G04*
G04 #@! TF.GenerationSoftware,Altium Limited,Altium Designer,23.0.1 (38)*
G04*
G04 Layer_Physical_Order=1*
G04 Layer_Color=255*
%FSLAX43Y43*%
%MOMM*%
G71*
G04*
G04 #@! TF.SameCoordinates,0C8224BD-781C-42A6-9A02-31E2BED0DC02*
G04*
G04*
G04 #@! TF.FilePolarity,Positive*
G04*
G01*
G75*
%ADD11C,0.254*%
%ADD13R,2.350X1.550*%
G04:AMPARAMS|DCode=14|XSize=1mm|YSize=1.525mm|CornerRadius=0.25mm|HoleSize=0mm|Usage=FLASHONLY|Rotation=90.000|XOffset=0mm|YOffset=0mm|HoleType=Round|Shape=RoundedRectangle|*
%AMROUNDEDRECTD14*
21,1,1.000,1.025,0,0,90.0*
21,1,0.500,1.525,0,0,90.0*
1,1,0.500,0.513,0.250*
1,1,0.500,0.513,-0.250*
1,1,0.500,-0.513,-0.250*
1,1,0.500,-0.513,0.250*
%
%ADD14ROUNDEDRECTD14*%
%ADD15R,1.200X0.800*%
%ADD16R,1.200X0.760*%
%ADD17R,1.200X0.700*%
%ADD27C,0.635*%
%ADD28C,0.508*%
%ADD29C,0.381*%
%ADD30C,6.000*%
%ADD31O,1.600X0.800*%
%ADD32R,1.651X1.651*%
%ADD33C,1.651*%
%ADD34C,0.508*%
G36*
X125511Y112232D02*
X125878Y112120D01*
X127457Y110541D01*
X127569Y110174D01*
X127616Y109688D01*
X127612Y109663D01*
Y91663D01*
X127616Y91638D01*
X127569Y91152D01*
X127420Y90661D01*
X127178Y90208D01*
X126852Y89811D01*
X126455Y89485D01*
X126002Y89243D01*
X125511Y89094D01*
X125125Y89056D01*
X125000Y89051D01*
X125000Y89051D01*
X124875Y89051D01*
X83000D01*
X82975Y89047D01*
X82489Y89094D01*
X82297Y89153D01*
X80490Y90960D01*
X80431Y91152D01*
X80423Y91240D01*
X80538Y91295D01*
X81365Y90467D01*
X81491Y90383D01*
X81640Y90353D01*
X86996D01*
X87145Y90383D01*
X87271Y90467D01*
X88666Y91861D01*
X88792Y91849D01*
X88796Y91843D01*
X88963Y91731D01*
X89160Y91692D01*
X89545D01*
Y92456D01*
Y93220D01*
X89160D01*
X88963Y93181D01*
X88796Y93069D01*
X88685Y92903D01*
X88666Y92809D01*
X88529Y92781D01*
X88403Y92697D01*
X88360Y92654D01*
X84973D01*
Y92706D01*
X84934Y92903D01*
X84823Y93069D01*
X84656Y93181D01*
X84460Y93220D01*
X84074D01*
Y92456D01*
X83820D01*
Y93220D01*
X83435D01*
X83238Y93181D01*
X83071Y93069D01*
X82960Y92903D01*
X82921Y92706D01*
Y92543D01*
X82803Y92494D01*
X82430Y92867D01*
Y96486D01*
X82732Y96788D01*
X83153D01*
X83238Y96731D01*
X83435Y96692D01*
X84460D01*
X84656Y96731D01*
X84823Y96843D01*
X84934Y97009D01*
X84946Y97068D01*
X88673D01*
X88685Y97009D01*
X88796Y96843D01*
X88963Y96731D01*
X89160Y96692D01*
X90185D01*
X90381Y96731D01*
X90548Y96843D01*
X90659Y97009D01*
X90698Y97206D01*
Y97706D01*
X90659Y97903D01*
X90548Y98069D01*
X90381Y98181D01*
X90185Y98220D01*
X89160D01*
X88963Y98181D01*
X88796Y98069D01*
X88685Y97903D01*
X88673Y97844D01*
X84946D01*
X84934Y97903D01*
X84823Y98069D01*
X84656Y98181D01*
X84460Y98220D01*
X83435D01*
X83238Y98181D01*
X83071Y98069D01*
X82960Y97903D01*
X82921Y97706D01*
Y97565D01*
X82572D01*
X82423Y97535D01*
X82297Y97451D01*
X81767Y96922D01*
X81683Y96796D01*
X81654Y96647D01*
Y92706D01*
X81683Y92557D01*
X81767Y92431D01*
X82898Y91300D01*
X82963Y91257D01*
X82925Y91130D01*
X81801D01*
X80896Y92034D01*
Y101797D01*
X82878Y103779D01*
X83003Y103821D01*
X83169Y103709D01*
X83366Y103670D01*
X83752D01*
Y104434D01*
Y105198D01*
X83366D01*
X83169Y105159D01*
X83003Y105047D01*
X82891Y104881D01*
X82852Y104684D01*
Y104632D01*
X82794D01*
X82645Y104602D01*
X82519Y104518D01*
X80506Y102505D01*
X80388Y102554D01*
Y109663D01*
X80384Y109688D01*
X80431Y110174D01*
X80580Y110665D01*
X80597Y110696D01*
X81967Y112066D01*
X81998Y112083D01*
X82489Y112232D01*
X82975Y112279D01*
X83000Y112275D01*
X125000D01*
X125025Y112279D01*
X125511Y112232D01*
D02*
G37*
%LPC*%
G36*
X87096Y110236D02*
X86894D01*
X86762Y110181D01*
X84674D01*
X84574Y110161D01*
X84391Y110198D01*
X83366D01*
X83169Y110159D01*
X83003Y110047D01*
X82891Y109881D01*
X82852Y109684D01*
Y109184D01*
X82891Y108987D01*
X83003Y108821D01*
X83169Y108709D01*
X83366Y108670D01*
X84391D01*
X84588Y108709D01*
X84754Y108821D01*
X84866Y108987D01*
X84905Y109184D01*
Y109275D01*
X86762D01*
X86894Y109220D01*
X87096D01*
X87228Y109275D01*
X88577D01*
Y109184D01*
X88616Y108987D01*
X88728Y108821D01*
X88894Y108709D01*
X89091Y108670D01*
X90116D01*
X90313Y108709D01*
X90479Y108821D01*
X90591Y108987D01*
X90630Y109184D01*
Y109684D01*
X90591Y109881D01*
X90479Y110047D01*
X90313Y110159D01*
X90116Y110198D01*
X89091D01*
X88908Y110161D01*
X88808Y110181D01*
X87228D01*
X87096Y110236D01*
D02*
G37*
G36*
X94236Y110823D02*
X93724D01*
X93218Y110743D01*
X92731Y110585D01*
X92275Y110352D01*
X91860Y110051D01*
X91498Y109689D01*
X91197Y109274D01*
X90964Y108818D01*
X90806Y108331D01*
X90726Y107825D01*
Y107452D01*
X90543D01*
X90479Y107547D01*
X90313Y107659D01*
X90116Y107698D01*
X89091D01*
X88894Y107659D01*
X88728Y107547D01*
X88664Y107452D01*
X84818D01*
X84754Y107547D01*
X84588Y107659D01*
X84391Y107698D01*
X83366D01*
X83169Y107659D01*
X83003Y107547D01*
X82891Y107381D01*
X82852Y107184D01*
Y106684D01*
X82891Y106487D01*
X83003Y106321D01*
X83169Y106209D01*
X83366Y106170D01*
X84391D01*
X84588Y106209D01*
X84754Y106321D01*
X84818Y106416D01*
X88664D01*
X88728Y106321D01*
X88894Y106209D01*
X89091Y106170D01*
X90116D01*
X90313Y106209D01*
X90479Y106321D01*
X90543Y106416D01*
X90933D01*
X90964Y106320D01*
X91197Y105864D01*
X91498Y105449D01*
X91860Y105087D01*
X92275Y104786D01*
X92731Y104553D01*
X93218Y104395D01*
X93724Y104315D01*
X94236D01*
X94742Y104395D01*
X95229Y104553D01*
X95685Y104786D01*
X96100Y105087D01*
X96462Y105449D01*
X96763Y105864D01*
X96996Y106320D01*
X97154Y106807D01*
X97234Y107313D01*
Y107825D01*
X97154Y108331D01*
X96996Y108818D01*
X96763Y109274D01*
X96462Y109689D01*
X96100Y110051D01*
X95685Y110352D01*
X95229Y110585D01*
X94742Y110743D01*
X94236Y110823D01*
D02*
G37*
G36*
X89477Y105198D02*
X89091D01*
X88894Y105159D01*
X88728Y105047D01*
X88616Y104881D01*
X88577Y104684D01*
Y104632D01*
X84905D01*
Y104684D01*
X84866Y104881D01*
X84754Y105047D01*
X84588Y105159D01*
X84391Y105198D01*
X84006D01*
Y104434D01*
Y103670D01*
X84391D01*
X84588Y103709D01*
X84754Y103821D01*
X84777Y103855D01*
X88705D01*
X88728Y103821D01*
X88894Y103709D01*
X89091Y103670D01*
X89477D01*
Y104434D01*
Y105198D01*
D02*
G37*
G36*
X119539Y110878D02*
X110744D01*
X110595Y110849D01*
X110469Y110765D01*
X105122Y105417D01*
X99378D01*
Y106108D01*
X97218D01*
Y103950D01*
X99378D01*
Y104641D01*
X105283D01*
X105432Y104670D01*
X105558Y104754D01*
X110905Y110102D01*
X119378D01*
X120415Y109065D01*
Y107556D01*
X122717D01*
X122765Y107439D01*
X122270Y106944D01*
X121285D01*
X121087Y106905D01*
X120919Y106792D01*
X118471Y104345D01*
X118418Y104383D01*
X117962Y104616D01*
X117475Y104774D01*
X116969Y104854D01*
X116457D01*
X115951Y104774D01*
X115464Y104616D01*
X115008Y104383D01*
X114593Y104082D01*
X114231Y103720D01*
X113930Y103305D01*
X113697Y102849D01*
X113539Y102362D01*
X113459Y101856D01*
Y101546D01*
X111951D01*
X111752Y101507D01*
X111606Y101410D01*
X110173D01*
Y99251D01*
X112331D01*
Y100511D01*
X113646D01*
X113697Y100351D01*
X113930Y99895D01*
X114231Y99480D01*
X114593Y99118D01*
X115008Y98817D01*
X115464Y98584D01*
X115951Y98426D01*
X116457Y98346D01*
X116969D01*
X117301Y98398D01*
X117334Y98230D01*
X117446Y98062D01*
X121137Y94372D01*
X121305Y94260D01*
X121503Y94220D01*
X122579D01*
X122689Y94110D01*
X122641Y93993D01*
X120339D01*
Y93482D01*
X103339D01*
X99378Y97443D01*
Y98869D01*
X97218D01*
Y96711D01*
X98645D01*
X102758Y92598D01*
X102926Y92485D01*
X103124Y92446D01*
X120339D01*
Y91935D01*
X123197D01*
Y93437D01*
X123314Y93485D01*
X123539Y93260D01*
Y91935D01*
X126397D01*
Y93993D01*
X124271D01*
X123160Y95104D01*
X122992Y95217D01*
X122794Y95256D01*
X121718D01*
X121509Y95465D01*
X121558Y95582D01*
X121887D01*
X121890Y95583D01*
X121894Y95582D01*
X121923Y95583D01*
X121929Y95584D01*
X121936Y95584D01*
X121965Y95586D01*
X121971Y95588D01*
X121978Y95587D01*
X122007Y95591D01*
X122013Y95593D01*
X122020Y95593D01*
X122049Y95598D01*
X122055Y95601D01*
X122062Y95601D01*
X122090Y95608D01*
X122096Y95611D01*
X122103Y95611D01*
X122131Y95620D01*
X122137Y95623D01*
X122143Y95624D01*
X122171Y95633D01*
X122176Y95637D01*
X122183Y95638D01*
X122210Y95649D01*
X122216Y95653D01*
X122222Y95655D01*
X122248Y95667D01*
X122254Y95671D01*
X122260Y95673D01*
X122286Y95687D01*
X122291Y95691D01*
X122297Y95694D01*
X122322Y95709D01*
X122327Y95714D01*
X122333Y95716D01*
X122357Y95733D01*
X122362Y95738D01*
X122368Y95741D01*
X122391Y95758D01*
X122395Y95763D01*
X122401Y95767D01*
X122423Y95785D01*
X122427Y95791D01*
X122433Y95794D01*
X122454Y95814D01*
X122458Y95820D01*
X122464Y95824D01*
X122484Y95845D01*
X122487Y95851D01*
X122493Y95855D01*
X122511Y95877D01*
X122515Y95883D01*
X122520Y95887D01*
X122537Y95910D01*
X122540Y95916D01*
X122545Y95921D01*
X122562Y95945D01*
X122564Y95951D01*
X122569Y95956D01*
X122584Y95981D01*
X122587Y95987D01*
X122591Y95992D01*
X122605Y96018D01*
X122607Y96024D01*
X122611Y96030D01*
X122623Y96056D01*
X122625Y96062D01*
X122629Y96068D01*
X122640Y96095D01*
X122641Y96102D01*
X122645Y96107D01*
X122654Y96135D01*
X122655Y96141D01*
X122658Y96147D01*
X122667Y96175D01*
X122667Y96182D01*
X122670Y96188D01*
X122677Y96216D01*
X122677Y96223D01*
X122680Y96229D01*
X122685Y96258D01*
X122685Y96265D01*
X122687Y96271D01*
X122691Y96300D01*
X122690Y96307D01*
X122692Y96313D01*
X122694Y96342D01*
X122694Y96349D01*
X122695Y96355D01*
X122696Y96384D01*
X122695Y96391D01*
X122696Y96398D01*
X122695Y96427D01*
X122694Y96433D01*
X122694Y96440D01*
X122692Y96469D01*
X122690Y96475D01*
X122691Y96482D01*
X122687Y96511D01*
X122685Y96517D01*
X122685Y96524D01*
X122680Y96553D01*
X122677Y96559D01*
X122677Y96566D01*
X122670Y96594D01*
X122667Y96600D01*
X122667Y96607D01*
X122658Y96635D01*
X122655Y96641D01*
X122654Y96647D01*
X122645Y96675D01*
X122641Y96680D01*
X122640Y96687D01*
X122629Y96714D01*
X122625Y96720D01*
X122623Y96726D01*
X122611Y96752D01*
X122607Y96758D01*
X122605Y96764D01*
X122591Y96790D01*
X122587Y96795D01*
X122584Y96801D01*
X122569Y96826D01*
X122564Y96831D01*
X122562Y96837D01*
X122545Y96861D01*
X122540Y96866D01*
X122537Y96872D01*
X122520Y96895D01*
X122515Y96899D01*
X122511Y96905D01*
X122493Y96927D01*
X122487Y96931D01*
X122484Y96937D01*
X122464Y96958D01*
X122458Y96962D01*
X122454Y96968D01*
X122433Y96988D01*
X122427Y96991D01*
X122423Y96997D01*
X122401Y97015D01*
X122395Y97019D01*
X122391Y97024D01*
X122368Y97041D01*
X122362Y97044D01*
X122357Y97049D01*
X122333Y97066D01*
X122327Y97068D01*
X122322Y97073D01*
X122297Y97088D01*
X122291Y97091D01*
X122286Y97095D01*
X122260Y97109D01*
X122254Y97111D01*
X122248Y97115D01*
X122222Y97127D01*
X122216Y97129D01*
X122210Y97133D01*
X122183Y97144D01*
X122176Y97145D01*
X122171Y97149D01*
X122143Y97158D01*
X122137Y97159D01*
X122131Y97162D01*
X122103Y97171D01*
X122100Y97180D01*
X122196Y97307D01*
X122361D01*
Y97834D01*
X121507D01*
Y98088D01*
X122361D01*
Y98671D01*
X122890D01*
X123113Y98715D01*
X123302Y98841D01*
X123983Y99522D01*
X124109Y99711D01*
X124154Y99934D01*
Y103289D01*
Y104834D01*
X124229Y104884D01*
X124281Y104888D01*
X124297Y104856D01*
X124304Y104828D01*
X124307Y104822D01*
X124307Y104815D01*
X124316Y104787D01*
X124319Y104781D01*
X124320Y104775D01*
X124329Y104747D01*
X124333Y104742D01*
X124334Y104735D01*
X124345Y104708D01*
X124349Y104702D01*
X124351Y104696D01*
X124363Y104670D01*
X124367Y104664D01*
X124369Y104658D01*
X124383Y104632D01*
X124387Y104627D01*
X124390Y104621D01*
X124405Y104596D01*
X124410Y104591D01*
X124412Y104585D01*
X124429Y104561D01*
X124434Y104556D01*
X124437Y104550D01*
X124454Y104527D01*
X124459Y104523D01*
X124463Y104517D01*
X124481Y104495D01*
X124487Y104491D01*
X124490Y104485D01*
X124510Y104464D01*
X124516Y104460D01*
X124520Y104454D01*
X124541Y104434D01*
X124547Y104431D01*
X124551Y104425D01*
X124573Y104407D01*
X124579Y104403D01*
X124583Y104398D01*
X124606Y104381D01*
X124612Y104378D01*
X124617Y104373D01*
X124641Y104356D01*
X124647Y104354D01*
X124652Y104349D01*
X124677Y104334D01*
X124683Y104331D01*
X124688Y104327D01*
X124714Y104313D01*
X124720Y104311D01*
X124726Y104307D01*
X124752Y104295D01*
X124758Y104293D01*
X124764Y104289D01*
X124791Y104278D01*
X124798Y104277D01*
X124803Y104273D01*
X124831Y104264D01*
X124837Y104263D01*
X124843Y104260D01*
X124871Y104251D01*
X124878Y104251D01*
X124884Y104248D01*
X124912Y104241D01*
X124919Y104241D01*
X124925Y104238D01*
X124954Y104233D01*
X124961Y104233D01*
X124967Y104231D01*
X124996Y104227D01*
X125003Y104228D01*
X125009Y104226D01*
X125038Y104224D01*
X125045Y104224D01*
X125051Y104223D01*
X125080Y104222D01*
X125084Y104223D01*
X125087Y104222D01*
X125687D01*
X125690Y104223D01*
X125694Y104222D01*
X125723Y104223D01*
X125729Y104224D01*
X125736Y104224D01*
X125765Y104226D01*
X125771Y104228D01*
X125778Y104227D01*
X125807Y104231D01*
X125813Y104233D01*
X125820Y104233D01*
X125849Y104238D01*
X125855Y104241D01*
X125862Y104241D01*
X125890Y104248D01*
X125896Y104251D01*
X125903Y104251D01*
X125931Y104260D01*
X125937Y104263D01*
X125943Y104264D01*
X125971Y104273D01*
X125976Y104277D01*
X125983Y104278D01*
X126010Y104289D01*
X126016Y104293D01*
X126022Y104295D01*
X126048Y104307D01*
X126054Y104311D01*
X126060Y104313D01*
X126086Y104327D01*
X126091Y104331D01*
X126097Y104334D01*
X126122Y104349D01*
X126127Y104354D01*
X126133Y104356D01*
X126157Y104373D01*
X126162Y104378D01*
X126168Y104381D01*
X126191Y104398D01*
X126195Y104403D01*
X126201Y104407D01*
X126223Y104425D01*
X126227Y104431D01*
X126233Y104434D01*
X126254Y104454D01*
X126258Y104460D01*
X126264Y104464D01*
X126284Y104485D01*
X126287Y104491D01*
X126293Y104495D01*
X126311Y104517D01*
X126315Y104523D01*
X126320Y104527D01*
X126337Y104550D01*
X126340Y104556D01*
X126345Y104561D01*
X126362Y104585D01*
X126364Y104591D01*
X126369Y104596D01*
X126384Y104621D01*
X126387Y104627D01*
X126391Y104632D01*
X126405Y104658D01*
X126407Y104664D01*
X126411Y104670D01*
X126423Y104696D01*
X126425Y104702D01*
X126429Y104708D01*
X126440Y104735D01*
X126441Y104742D01*
X126445Y104747D01*
X126454Y104775D01*
X126455Y104781D01*
X126458Y104787D01*
X126467Y104815D01*
X126467Y104822D01*
X126470Y104828D01*
X126477Y104856D01*
X126477Y104863D01*
X126480Y104869D01*
X126485Y104898D01*
X126485Y104905D01*
X126487Y104911D01*
X126491Y104940D01*
X126490Y104947D01*
X126492Y104953D01*
X126494Y104982D01*
X126494Y104989D01*
X126495Y104995D01*
X126496Y105024D01*
X126495Y105031D01*
X126496Y105038D01*
X126495Y105067D01*
X126494Y105073D01*
X126494Y105080D01*
X126492Y105109D01*
X126490Y105115D01*
X126491Y105122D01*
X126487Y105151D01*
X126485Y105157D01*
X126485Y105164D01*
X126480Y105193D01*
X126477Y105199D01*
X126477Y105206D01*
X126470Y105234D01*
X126467Y105240D01*
X126467Y105247D01*
X126458Y105275D01*
X126455Y105281D01*
X126454Y105287D01*
X126445Y105315D01*
X126441Y105320D01*
X126440Y105327D01*
X126429Y105354D01*
X126425Y105360D01*
X126423Y105366D01*
X126411Y105392D01*
X126407Y105398D01*
X126405Y105404D01*
X126391Y105430D01*
X126387Y105435D01*
X126384Y105441D01*
X126369Y105466D01*
X126364Y105471D01*
X126362Y105477D01*
X126345Y105501D01*
X126340Y105506D01*
X126337Y105512D01*
X126320Y105535D01*
X126315Y105539D01*
X126311Y105545D01*
X126293Y105567D01*
X126287Y105571D01*
X126284Y105577D01*
X126264Y105598D01*
X126258Y105602D01*
X126254Y105608D01*
X126233Y105628D01*
X126227Y105631D01*
X126223Y105637D01*
X126201Y105655D01*
X126195Y105659D01*
X126191Y105664D01*
X126168Y105681D01*
X126162Y105684D01*
X126157Y105689D01*
X126133Y105706D01*
X126127Y105708D01*
X126122Y105713D01*
X126097Y105728D01*
X126091Y105731D01*
X126086Y105735D01*
X126060Y105749D01*
X126054Y105751D01*
X126048Y105755D01*
X126022Y105767D01*
X126016Y105769D01*
X126010Y105773D01*
X125983Y105784D01*
X125976Y105785D01*
X125971Y105789D01*
X125943Y105798D01*
X125937Y105799D01*
X125931Y105802D01*
X125903Y105811D01*
X125896Y105811D01*
X125890Y105814D01*
X125862Y105821D01*
X125855Y105821D01*
X125849Y105824D01*
X125820Y105829D01*
X125813Y105829D01*
X125807Y105831D01*
X125778Y105835D01*
X125771Y105834D01*
X125765Y105836D01*
X125736Y105838D01*
X125729Y105838D01*
X125723Y105839D01*
X125694Y105840D01*
X125690Y105839D01*
X125687Y105840D01*
X125087D01*
X125084Y105839D01*
X125080Y105840D01*
X125051Y105839D01*
X125045Y105838D01*
X125038Y105838D01*
X125009Y105836D01*
X125003Y105834D01*
X124996Y105835D01*
X124967Y105831D01*
X124961Y105829D01*
X124954Y105829D01*
X124925Y105824D01*
X124919Y105821D01*
X124912Y105821D01*
X124884Y105814D01*
X124878Y105811D01*
X124871Y105811D01*
X124843Y105802D01*
X124837Y105799D01*
X124831Y105798D01*
X124803Y105789D01*
X124798Y105785D01*
X124791Y105784D01*
X124764Y105773D01*
X124758Y105769D01*
X124752Y105767D01*
X124726Y105755D01*
X124720Y105751D01*
X124714Y105749D01*
X124688Y105735D01*
X124683Y105731D01*
X124677Y105728D01*
X124652Y105713D01*
X124647Y105708D01*
X124641Y105706D01*
X124617Y105689D01*
X124612Y105684D01*
X124606Y105681D01*
X124583Y105664D01*
X124579Y105659D01*
X124573Y105655D01*
X124551Y105637D01*
X124547Y105631D01*
X124541Y105628D01*
X124520Y105608D01*
X124516Y105602D01*
X124510Y105598D01*
X124490Y105577D01*
X124487Y105571D01*
X124481Y105567D01*
X124463Y105545D01*
X124459Y105539D01*
X124454Y105535D01*
X124437Y105512D01*
X124434Y105506D01*
X124429Y105501D01*
X124412Y105477D01*
X124410Y105471D01*
X124405Y105466D01*
X124390Y105441D01*
X124387Y105435D01*
X124383Y105430D01*
X124369Y105404D01*
X124367Y105398D01*
X124363Y105392D01*
X124351Y105366D01*
X124349Y105360D01*
X124345Y105354D01*
X124334Y105327D01*
X124333Y105320D01*
X124329Y105315D01*
X124320Y105287D01*
X124319Y105281D01*
X124316Y105275D01*
X124307Y105247D01*
X124307Y105240D01*
X124304Y105234D01*
X124297Y105206D01*
X124281Y105174D01*
X124229Y105178D01*
X124154Y105228D01*
Y106299D01*
X124109Y106522D01*
X123983Y106711D01*
X123803Y106832D01*
X123783Y106855D01*
X123751Y106960D01*
X124347Y107556D01*
X126473D01*
Y109614D01*
X123615D01*
Y108288D01*
X123390Y108064D01*
X123273Y108112D01*
Y109614D01*
X120964D01*
X119814Y110765D01*
X119688Y110849D01*
X119539Y110878D01*
D02*
G37*
G36*
X111394Y103950D02*
X111379D01*
Y102997D01*
X112331D01*
Y103012D01*
X112258Y103287D01*
X112116Y103533D01*
X111915Y103734D01*
X111669Y103876D01*
X111394Y103950D01*
D02*
G37*
G36*
X112331Y102743D02*
X111379D01*
Y101790D01*
X111394D01*
X111669Y101864D01*
X111915Y102006D01*
X112116Y102207D01*
X112258Y102453D01*
X112331Y102728D01*
Y102743D01*
D02*
G37*
G36*
X90116Y105198D02*
X89730D01*
Y104434D01*
Y103670D01*
X90116D01*
X90313Y103709D01*
X90479Y103821D01*
X90502Y103855D01*
X91284D01*
X93115Y102024D01*
X93241Y101940D01*
X93390Y101910D01*
X97386D01*
X97434Y101826D01*
X97635Y101625D01*
X97881Y101483D01*
X97910Y101476D01*
Y101343D01*
X97881Y101336D01*
X97635Y101194D01*
X97434Y100993D01*
X97292Y100747D01*
X97218Y100472D01*
Y100457D01*
X98298D01*
X99378D01*
Y100472D01*
X99304Y100747D01*
X99162Y100993D01*
X98961Y101194D01*
X98715Y101336D01*
X98686Y101343D01*
Y101476D01*
X98715Y101483D01*
X98961Y101625D01*
X99162Y101826D01*
X99304Y102072D01*
X99311Y102101D01*
X110173D01*
X110321Y102130D01*
X110408Y102188D01*
X110589Y102006D01*
X110835Y101864D01*
X111110Y101790D01*
X111125D01*
Y102870D01*
Y103950D01*
X111110D01*
X110835Y103876D01*
X110589Y103734D01*
X110388Y103533D01*
X110246Y103287D01*
X110173Y103012D01*
Y102983D01*
X110155Y102979D01*
X110029Y102895D01*
X110012Y102877D01*
X99311D01*
X99304Y102906D01*
X99162Y103152D01*
X98961Y103353D01*
X98715Y103495D01*
X98440Y103568D01*
X98425D01*
Y102489D01*
X98171D01*
Y103568D01*
X98156D01*
X97881Y103495D01*
X97635Y103353D01*
X97434Y103152D01*
X97292Y102906D01*
X97233Y102687D01*
X93550D01*
X91719Y104518D01*
X91593Y104602D01*
X91445Y104632D01*
X90630D01*
Y104684D01*
X90591Y104881D01*
X90479Y105047D01*
X90313Y105159D01*
X90116Y105198D01*
D02*
G37*
G36*
X99378Y100203D02*
X98425D01*
Y99251D01*
X98440D01*
X98715Y99324D01*
X98961Y99466D01*
X99162Y99667D01*
X99304Y99913D01*
X99378Y100188D01*
Y100203D01*
D02*
G37*
G36*
X98171D02*
X97218D01*
Y100188D01*
X97292Y99913D01*
X97434Y99667D01*
X97635Y99466D01*
X97881Y99324D01*
X98156Y99251D01*
X98171D01*
Y100203D01*
D02*
G37*
G36*
X125687Y97200D02*
X125087D01*
X125084Y97199D01*
X125080Y97200D01*
X125051Y97199D01*
X125045Y97198D01*
X125038Y97198D01*
X125009Y97196D01*
X125003Y97194D01*
X124996Y97195D01*
X124967Y97191D01*
X124961Y97189D01*
X124954Y97189D01*
X124925Y97184D01*
X124919Y97181D01*
X124912Y97181D01*
X124884Y97174D01*
X124878Y97171D01*
X124871Y97171D01*
X124843Y97162D01*
X124837Y97159D01*
X124831Y97158D01*
X124803Y97149D01*
X124798Y97145D01*
X124791Y97144D01*
X124764Y97133D01*
X124758Y97129D01*
X124752Y97127D01*
X124726Y97115D01*
X124720Y97111D01*
X124714Y97109D01*
X124688Y97095D01*
X124683Y97091D01*
X124677Y97088D01*
X124652Y97073D01*
X124647Y97068D01*
X124641Y97066D01*
X124617Y97049D01*
X124612Y97044D01*
X124606Y97041D01*
X124583Y97024D01*
X124579Y97019D01*
X124573Y97015D01*
X124551Y96997D01*
X124547Y96991D01*
X124541Y96988D01*
X124520Y96968D01*
X124516Y96962D01*
X124510Y96958D01*
X124490Y96937D01*
X124487Y96931D01*
X124481Y96927D01*
X124463Y96905D01*
X124459Y96899D01*
X124454Y96895D01*
X124437Y96872D01*
X124434Y96866D01*
X124429Y96861D01*
X124412Y96837D01*
X124410Y96831D01*
X124405Y96826D01*
X124390Y96801D01*
X124387Y96795D01*
X124383Y96790D01*
X124369Y96764D01*
X124367Y96758D01*
X124363Y96752D01*
X124351Y96726D01*
X124349Y96720D01*
X124345Y96714D01*
X124334Y96687D01*
X124333Y96680D01*
X124329Y96675D01*
X124320Y96647D01*
X124319Y96641D01*
X124316Y96635D01*
X124307Y96607D01*
X124307Y96600D01*
X124304Y96594D01*
X124297Y96566D01*
X124297Y96559D01*
X124294Y96553D01*
X124289Y96524D01*
X124289Y96517D01*
X124287Y96511D01*
X124283Y96482D01*
X124284Y96475D01*
X124282Y96469D01*
X124280Y96440D01*
X124280Y96433D01*
X124279Y96427D01*
X124278Y96398D01*
X124279Y96391D01*
X124278Y96384D01*
X124279Y96355D01*
X124280Y96349D01*
X124280Y96342D01*
X124282Y96313D01*
X124284Y96307D01*
X124283Y96300D01*
X124287Y96271D01*
X124289Y96265D01*
X124289Y96258D01*
X124294Y96229D01*
X124297Y96223D01*
X124297Y96216D01*
X124304Y96188D01*
X124307Y96182D01*
X124307Y96175D01*
X124316Y96147D01*
X124319Y96141D01*
X124320Y96135D01*
X124329Y96107D01*
X124333Y96102D01*
X124334Y96095D01*
X124345Y96068D01*
X124349Y96062D01*
X124351Y96056D01*
X124363Y96030D01*
X124367Y96024D01*
X124369Y96018D01*
X124383Y95992D01*
X124387Y95987D01*
X124390Y95981D01*
X124405Y95956D01*
X124410Y95951D01*
X124412Y95945D01*
X124429Y95921D01*
X124434Y95916D01*
X124437Y95910D01*
X124454Y95887D01*
X124459Y95883D01*
X124463Y95877D01*
X124481Y95855D01*
X124487Y95851D01*
X124490Y95845D01*
X124510Y95824D01*
X124516Y95820D01*
X124520Y95814D01*
X124541Y95794D01*
X124547Y95791D01*
X124551Y95785D01*
X124573Y95767D01*
X124579Y95763D01*
X124583Y95758D01*
X124606Y95741D01*
X124612Y95738D01*
X124617Y95733D01*
X124641Y95716D01*
X124647Y95714D01*
X124652Y95709D01*
X124677Y95694D01*
X124683Y95691D01*
X124688Y95687D01*
X124714Y95673D01*
X124720Y95671D01*
X124726Y95667D01*
X124752Y95655D01*
X124758Y95653D01*
X124764Y95649D01*
X124791Y95638D01*
X124798Y95637D01*
X124803Y95633D01*
X124831Y95624D01*
X124837Y95623D01*
X124843Y95620D01*
X124871Y95611D01*
X124878Y95611D01*
X124884Y95608D01*
X124912Y95601D01*
X124919Y95601D01*
X124925Y95598D01*
X124954Y95593D01*
X124961Y95593D01*
X124967Y95591D01*
X124996Y95587D01*
X125003Y95588D01*
X125009Y95586D01*
X125038Y95584D01*
X125045Y95584D01*
X125051Y95583D01*
X125080Y95582D01*
X125084Y95583D01*
X125087Y95582D01*
X125687D01*
X125690Y95583D01*
X125694Y95582D01*
X125723Y95583D01*
X125729Y95584D01*
X125736Y95584D01*
X125765Y95586D01*
X125771Y95588D01*
X125778Y95587D01*
X125807Y95591D01*
X125813Y95593D01*
X125820Y95593D01*
X125849Y95598D01*
X125855Y95601D01*
X125862Y95601D01*
X125890Y95608D01*
X125896Y95611D01*
X125903Y95611D01*
X125931Y95620D01*
X125937Y95623D01*
X125943Y95624D01*
X125971Y95633D01*
X125976Y95637D01*
X125983Y95638D01*
X126010Y95649D01*
X126016Y95653D01*
X126022Y95655D01*
X126048Y95667D01*
X126054Y95671D01*
X126060Y95673D01*
X126086Y95687D01*
X126091Y95691D01*
X126097Y95694D01*
X126122Y95709D01*
X126127Y95714D01*
X126133Y95716D01*
X126157Y95733D01*
X126162Y95738D01*
X126168Y95741D01*
X126191Y95758D01*
X126195Y95763D01*
X126201Y95767D01*
X126223Y95785D01*
X126227Y95791D01*
X126233Y95794D01*
X126254Y95814D01*
X126258Y95820D01*
X126264Y95824D01*
X126284Y95845D01*
X126287Y95851D01*
X126293Y95855D01*
X126311Y95877D01*
X126315Y95883D01*
X126320Y95887D01*
X126337Y95910D01*
X126340Y95916D01*
X126345Y95921D01*
X126362Y95945D01*
X126364Y95951D01*
X126369Y95956D01*
X126384Y95981D01*
X126387Y95987D01*
X126391Y95992D01*
X126405Y96018D01*
X126407Y96024D01*
X126411Y96030D01*
X126423Y96056D01*
X126425Y96062D01*
X126429Y96068D01*
X126440Y96095D01*
X126441Y96102D01*
X126445Y96107D01*
X126454Y96135D01*
X126455Y96141D01*
X126458Y96147D01*
X126467Y96175D01*
X126467Y96182D01*
X126470Y96188D01*
X126477Y96216D01*
X126477Y96223D01*
X126480Y96229D01*
X126485Y96258D01*
X126485Y96265D01*
X126487Y96271D01*
X126491Y96300D01*
X126490Y96307D01*
X126492Y96313D01*
X126494Y96342D01*
X126494Y96349D01*
X126495Y96355D01*
X126496Y96384D01*
X126495Y96391D01*
X126496Y96398D01*
X126495Y96427D01*
X126494Y96433D01*
X126494Y96440D01*
X126492Y96469D01*
X126490Y96475D01*
X126491Y96482D01*
X126487Y96511D01*
X126485Y96517D01*
X126485Y96524D01*
X126480Y96553D01*
X126477Y96559D01*
X126477Y96566D01*
X126470Y96594D01*
X126467Y96600D01*
X126467Y96607D01*
X126458Y96635D01*
X126455Y96641D01*
X126454Y96647D01*
X126445Y96675D01*
X126441Y96680D01*
X126440Y96687D01*
X126429Y96714D01*
X126425Y96720D01*
X126423Y96726D01*
X126411Y96752D01*
X126407Y96758D01*
X126405Y96764D01*
X126391Y96790D01*
X126387Y96795D01*
X126384Y96801D01*
X126369Y96826D01*
X126364Y96831D01*
X126362Y96837D01*
X126345Y96861D01*
X126340Y96866D01*
X126337Y96872D01*
X126320Y96895D01*
X126315Y96899D01*
X126311Y96905D01*
X126293Y96927D01*
X126287Y96931D01*
X126284Y96937D01*
X126264Y96958D01*
X126258Y96962D01*
X126254Y96968D01*
X126233Y96988D01*
X126227Y96991D01*
X126223Y96997D01*
X126201Y97015D01*
X126195Y97019D01*
X126191Y97024D01*
X126168Y97041D01*
X126162Y97044D01*
X126157Y97049D01*
X126133Y97066D01*
X126127Y97068D01*
X126122Y97073D01*
X126097Y97088D01*
X126091Y97091D01*
X126086Y97095D01*
X126060Y97109D01*
X126054Y97111D01*
X126048Y97115D01*
X126022Y97127D01*
X126016Y97129D01*
X126010Y97133D01*
X125983Y97144D01*
X125976Y97145D01*
X125971Y97149D01*
X125943Y97158D01*
X125937Y97159D01*
X125931Y97162D01*
X125903Y97171D01*
X125896Y97171D01*
X125890Y97174D01*
X125862Y97181D01*
X125855Y97181D01*
X125849Y97184D01*
X125820Y97189D01*
X125813Y97189D01*
X125807Y97191D01*
X125778Y97195D01*
X125771Y97194D01*
X125765Y97196D01*
X125736Y97198D01*
X125729Y97198D01*
X125723Y97199D01*
X125694Y97200D01*
X125690Y97199D01*
X125687Y97200D01*
D02*
G37*
G36*
X94236Y98758D02*
X93724D01*
X93218Y98678D01*
X92731Y98520D01*
X92275Y98287D01*
X91860Y97986D01*
X91498Y97624D01*
X91197Y97209D01*
X90964Y96753D01*
X90806Y96266D01*
X90726Y95760D01*
Y95531D01*
X90599Y95493D01*
X90548Y95569D01*
X90381Y95681D01*
X90185Y95720D01*
X89160D01*
X88963Y95681D01*
X88796Y95569D01*
X88732Y95474D01*
X84887D01*
X84823Y95569D01*
X84656Y95681D01*
X84460Y95720D01*
X83435D01*
X83238Y95681D01*
X83071Y95569D01*
X82960Y95403D01*
X82921Y95206D01*
Y94706D01*
X82960Y94509D01*
X83071Y94343D01*
X83238Y94231D01*
X83435Y94192D01*
X84460D01*
X84656Y94231D01*
X84823Y94343D01*
X84887Y94438D01*
X88732D01*
X88796Y94343D01*
X88963Y94231D01*
X89160Y94192D01*
X90185D01*
X90381Y94231D01*
X90531Y94331D01*
X90940D01*
X90964Y94255D01*
X91197Y93799D01*
X91498Y93384D01*
X91860Y93022D01*
X92275Y92721D01*
X92731Y92488D01*
X93218Y92330D01*
X93724Y92250D01*
X94236D01*
X94742Y92330D01*
X95229Y92488D01*
X95685Y92721D01*
X96100Y93022D01*
X96462Y93384D01*
X96763Y93799D01*
X96996Y94255D01*
X97154Y94742D01*
X97234Y95248D01*
Y95760D01*
X97154Y96266D01*
X96996Y96753D01*
X96763Y97209D01*
X96462Y97624D01*
X96100Y97986D01*
X95685Y98287D01*
X95229Y98520D01*
X94742Y98678D01*
X94236Y98758D01*
D02*
G37*
G36*
X90185Y93220D02*
X89799D01*
Y92583D01*
X90698D01*
Y92706D01*
X90659Y92903D01*
X90548Y93069D01*
X90381Y93181D01*
X90185Y93220D01*
D02*
G37*
G36*
X90698Y92329D02*
X89799D01*
Y91692D01*
X90185D01*
X90381Y91731D01*
X90548Y91843D01*
X90659Y92009D01*
X90698Y92206D01*
Y92329D01*
D02*
G37*
%LPD*%
G36*
X125716Y105580D02*
X125744Y105578D01*
X125773Y105574D01*
X125801Y105569D01*
X125829Y105562D01*
X125857Y105554D01*
X125884Y105544D01*
X125911Y105533D01*
X125937Y105521D01*
X125962Y105507D01*
X125987Y105492D01*
X126010Y105476D01*
X126033Y105458D01*
X126055Y105440D01*
X126076Y105420D01*
X126096Y105399D01*
X126114Y105377D01*
X126132Y105354D01*
X126148Y105331D01*
X126163Y105306D01*
X126177Y105281D01*
X126189Y105255D01*
X126200Y105228D01*
X126210Y105201D01*
X126218Y105173D01*
X126225Y105145D01*
X126230Y105117D01*
X126234Y105088D01*
X126236Y105060D01*
X126237Y105031D01*
X126236Y105002D01*
X126234Y104974D01*
X126230Y104945D01*
X126225Y104917D01*
X126218Y104889D01*
X126210Y104861D01*
X126200Y104834D01*
X126189Y104807D01*
X126177Y104781D01*
X126163Y104756D01*
X126148Y104731D01*
X126132Y104708D01*
X126114Y104685D01*
X126096Y104663D01*
X126076Y104642D01*
X126055Y104622D01*
X126033Y104604D01*
X126010Y104586D01*
X125987Y104570D01*
X125962Y104555D01*
X125937Y104541D01*
X125911Y104529D01*
X125884Y104518D01*
X125857Y104508D01*
X125829Y104500D01*
X125801Y104493D01*
X125773Y104488D01*
X125744Y104484D01*
X125716Y104482D01*
X125687Y104481D01*
X125087D01*
X125058Y104482D01*
X125030Y104484D01*
X125001Y104488D01*
X124973Y104493D01*
X124945Y104500D01*
X124917Y104508D01*
X124890Y104518D01*
X124863Y104529D01*
X124837Y104541D01*
X124812Y104555D01*
X124787Y104570D01*
X124764Y104586D01*
X124741Y104604D01*
X124719Y104622D01*
X124698Y104642D01*
X124678Y104663D01*
X124660Y104685D01*
X124642Y104708D01*
X124626Y104731D01*
X124611Y104756D01*
X124597Y104781D01*
X124585Y104807D01*
X124574Y104834D01*
X124564Y104861D01*
X124556Y104889D01*
X124549Y104917D01*
X124544Y104945D01*
X124540Y104974D01*
X124538Y105002D01*
X124537Y105031D01*
X124538Y105060D01*
X124540Y105088D01*
X124544Y105117D01*
X124549Y105145D01*
X124556Y105173D01*
X124564Y105201D01*
X124574Y105228D01*
X124585Y105255D01*
X124597Y105281D01*
X124611Y105306D01*
X124626Y105331D01*
X124642Y105354D01*
X124660Y105377D01*
X124678Y105399D01*
X124698Y105420D01*
X124719Y105440D01*
X124741Y105458D01*
X124764Y105476D01*
X124787Y105492D01*
X124812Y105507D01*
X124837Y105521D01*
X124863Y105533D01*
X124890Y105544D01*
X124917Y105554D01*
X124945Y105562D01*
X124973Y105569D01*
X125001Y105574D01*
X125030Y105578D01*
X125058Y105580D01*
X125087Y105581D01*
X125687D01*
X125716Y105580D01*
D02*
G37*
G36*
X121916D02*
X121944Y105578D01*
X121973Y105574D01*
X122001Y105569D01*
X122029Y105562D01*
X122057Y105554D01*
X122084Y105544D01*
X122111Y105533D01*
X122137Y105521D01*
X122162Y105507D01*
X122187Y105492D01*
X122210Y105476D01*
X122233Y105458D01*
X122255Y105440D01*
X122276Y105420D01*
X122296Y105399D01*
X122314Y105377D01*
X122332Y105354D01*
X122348Y105331D01*
X122363Y105306D01*
X122377Y105281D01*
X122389Y105255D01*
X122400Y105228D01*
X122410Y105201D01*
X122418Y105173D01*
X122425Y105145D01*
X122430Y105117D01*
X122434Y105088D01*
X122436Y105060D01*
X122437Y105031D01*
X122436Y105002D01*
X122434Y104974D01*
X122430Y104945D01*
X122425Y104917D01*
X122418Y104889D01*
X122410Y104861D01*
X122400Y104834D01*
X122389Y104807D01*
X122377Y104781D01*
X122363Y104756D01*
X122348Y104731D01*
X122332Y104708D01*
X122314Y104685D01*
X122296Y104663D01*
X122276Y104642D01*
X122255Y104622D01*
X122233Y104604D01*
X122210Y104586D01*
X122187Y104570D01*
X122162Y104555D01*
X122137Y104541D01*
X122111Y104529D01*
X122084Y104518D01*
X122057Y104508D01*
X122029Y104500D01*
X122001Y104493D01*
X121973Y104488D01*
X121944Y104484D01*
X121916Y104482D01*
X121887Y104481D01*
X121287D01*
X121258Y104482D01*
X121230Y104484D01*
X121201Y104488D01*
X121173Y104493D01*
X121145Y104500D01*
X121117Y104508D01*
X121090Y104518D01*
X121063Y104529D01*
X121037Y104541D01*
X121012Y104555D01*
X120987Y104570D01*
X120964Y104586D01*
X120941Y104604D01*
X120919Y104622D01*
X120898Y104642D01*
X120878Y104663D01*
X120860Y104685D01*
X120842Y104708D01*
X120826Y104731D01*
X120811Y104756D01*
X120797Y104781D01*
X120785Y104807D01*
X120774Y104834D01*
X120764Y104861D01*
X120756Y104889D01*
X120749Y104917D01*
X120744Y104945D01*
X120740Y104974D01*
X120738Y105002D01*
X120737Y105031D01*
X120738Y105060D01*
X120740Y105088D01*
X120744Y105117D01*
X120749Y105145D01*
X120756Y105173D01*
X120764Y105201D01*
X120774Y105228D01*
X120785Y105255D01*
X120797Y105281D01*
X120811Y105306D01*
X120826Y105331D01*
X120842Y105354D01*
X120860Y105377D01*
X120878Y105399D01*
X120898Y105420D01*
X120919Y105440D01*
X120941Y105458D01*
X120964Y105476D01*
X120987Y105492D01*
X121012Y105507D01*
X121037Y105521D01*
X121063Y105533D01*
X121090Y105544D01*
X121117Y105554D01*
X121145Y105562D01*
X121173Y105569D01*
X121201Y105574D01*
X121230Y105578D01*
X121258Y105580D01*
X121287Y105581D01*
X121887D01*
X121916Y105580D01*
D02*
G37*
G36*
X120449Y104792D02*
X120527Y104755D01*
X120529Y104747D01*
X120533Y104742D01*
X120534Y104735D01*
X120545Y104708D01*
X120549Y104702D01*
X120551Y104696D01*
X120563Y104670D01*
X120567Y104664D01*
X120569Y104658D01*
X120583Y104632D01*
X120587Y104627D01*
X120590Y104621D01*
X120605Y104596D01*
X120610Y104591D01*
X120612Y104585D01*
X120629Y104561D01*
X120634Y104556D01*
X120637Y104550D01*
X120654Y104527D01*
X120659Y104523D01*
X120663Y104517D01*
X120681Y104495D01*
X120687Y104491D01*
X120690Y104485D01*
X120710Y104464D01*
X120716Y104460D01*
X120720Y104454D01*
X120741Y104434D01*
X120747Y104431D01*
X120751Y104425D01*
X120773Y104407D01*
X120779Y104403D01*
X120783Y104398D01*
X120806Y104381D01*
X120812Y104378D01*
X120817Y104373D01*
X120841Y104356D01*
X120847Y104354D01*
X120852Y104349D01*
X120877Y104334D01*
X120883Y104331D01*
X120888Y104327D01*
X120914Y104313D01*
X120920Y104311D01*
X120926Y104307D01*
X120952Y104295D01*
X120958Y104293D01*
X120964Y104289D01*
X120991Y104278D01*
X120998Y104277D01*
X121003Y104273D01*
X121031Y104264D01*
X121037Y104263D01*
X121043Y104260D01*
X121071Y104251D01*
X121074Y104242D01*
X120978Y104115D01*
X120653D01*
Y103576D01*
X120585Y103563D01*
X120459Y103479D01*
X120251Y103271D01*
X120167Y103145D01*
X120138Y102997D01*
Y98653D01*
X120156Y98559D01*
X120084Y98448D01*
X119956Y98440D01*
X119922Y98475D01*
X119761Y98541D01*
Y98044D01*
X119507D01*
Y98541D01*
X119346Y98475D01*
X119203Y98332D01*
X119126Y98145D01*
Y98027D01*
X118999Y97975D01*
X118330Y98643D01*
Y98772D01*
X118418Y98817D01*
X118833Y99118D01*
X119195Y99480D01*
X119496Y99895D01*
X119729Y100351D01*
X119887Y100838D01*
X119967Y101344D01*
Y101856D01*
X119887Y102362D01*
X119729Y102849D01*
X119496Y103305D01*
X119244Y103652D01*
X120384Y104793D01*
X120393Y104796D01*
X120449Y104792D01*
D02*
G37*
G36*
X121916Y96940D02*
X121944Y96938D01*
X121973Y96934D01*
X122001Y96929D01*
X122029Y96922D01*
X122057Y96914D01*
X122084Y96904D01*
X122111Y96893D01*
X122137Y96881D01*
X122162Y96867D01*
X122187Y96852D01*
X122210Y96836D01*
X122233Y96818D01*
X122255Y96800D01*
X122276Y96780D01*
X122296Y96759D01*
X122314Y96737D01*
X122332Y96714D01*
X122348Y96691D01*
X122363Y96666D01*
X122377Y96641D01*
X122389Y96615D01*
X122400Y96588D01*
X122410Y96561D01*
X122418Y96533D01*
X122425Y96505D01*
X122430Y96477D01*
X122434Y96448D01*
X122436Y96420D01*
X122437Y96391D01*
X122436Y96362D01*
X122434Y96334D01*
X122430Y96305D01*
X122425Y96277D01*
X122418Y96249D01*
X122410Y96221D01*
X122400Y96194D01*
X122389Y96167D01*
X122377Y96141D01*
X122363Y96116D01*
X122348Y96091D01*
X122332Y96068D01*
X122314Y96045D01*
X122296Y96023D01*
X122276Y96002D01*
X122255Y95982D01*
X122233Y95964D01*
X122210Y95946D01*
X122187Y95930D01*
X122162Y95915D01*
X122137Y95901D01*
X122111Y95889D01*
X122084Y95878D01*
X122057Y95868D01*
X122029Y95860D01*
X122001Y95853D01*
X121973Y95848D01*
X121944Y95844D01*
X121916Y95842D01*
X121887Y95841D01*
X121287D01*
X121258Y95842D01*
X121230Y95844D01*
X121201Y95848D01*
X121173Y95853D01*
X121145Y95860D01*
X121117Y95868D01*
X121090Y95878D01*
X121063Y95889D01*
X121037Y95901D01*
X121012Y95915D01*
X120987Y95930D01*
X120964Y95946D01*
X120941Y95964D01*
X120919Y95982D01*
X120898Y96002D01*
X120878Y96023D01*
X120860Y96045D01*
X120842Y96068D01*
X120826Y96091D01*
X120811Y96116D01*
X120797Y96141D01*
X120785Y96167D01*
X120774Y96194D01*
X120764Y96221D01*
X120756Y96249D01*
X120749Y96277D01*
X120744Y96305D01*
X120740Y96334D01*
X120738Y96362D01*
X120737Y96391D01*
X120738Y96420D01*
X120740Y96448D01*
X120744Y96477D01*
X120749Y96505D01*
X120756Y96533D01*
X120764Y96561D01*
X120774Y96588D01*
X120785Y96615D01*
X120797Y96641D01*
X120811Y96666D01*
X120826Y96691D01*
X120842Y96714D01*
X120860Y96737D01*
X120878Y96759D01*
X120898Y96780D01*
X120919Y96800D01*
X120941Y96818D01*
X120964Y96836D01*
X120987Y96852D01*
X121012Y96867D01*
X121037Y96881D01*
X121063Y96893D01*
X121090Y96904D01*
X121117Y96914D01*
X121145Y96922D01*
X121173Y96929D01*
X121201Y96934D01*
X121230Y96938D01*
X121258Y96940D01*
X121287Y96941D01*
X121887D01*
X121916Y96940D01*
D02*
G37*
G36*
X125716D02*
X125744Y96938D01*
X125773Y96934D01*
X125801Y96929D01*
X125829Y96922D01*
X125857Y96914D01*
X125884Y96904D01*
X125911Y96893D01*
X125937Y96881D01*
X125962Y96867D01*
X125987Y96852D01*
X126010Y96836D01*
X126033Y96818D01*
X126055Y96800D01*
X126076Y96780D01*
X126096Y96759D01*
X126114Y96737D01*
X126132Y96714D01*
X126148Y96691D01*
X126163Y96666D01*
X126177Y96641D01*
X126189Y96615D01*
X126200Y96588D01*
X126210Y96561D01*
X126218Y96533D01*
X126225Y96505D01*
X126230Y96477D01*
X126234Y96448D01*
X126236Y96420D01*
X126237Y96391D01*
X126236Y96362D01*
X126234Y96334D01*
X126230Y96305D01*
X126225Y96277D01*
X126218Y96249D01*
X126210Y96221D01*
X126200Y96194D01*
X126189Y96167D01*
X126177Y96141D01*
X126163Y96116D01*
X126148Y96091D01*
X126132Y96068D01*
X126114Y96045D01*
X126096Y96023D01*
X126076Y96002D01*
X126055Y95982D01*
X126033Y95964D01*
X126010Y95946D01*
X125987Y95930D01*
X125962Y95915D01*
X125937Y95901D01*
X125911Y95889D01*
X125884Y95878D01*
X125857Y95868D01*
X125829Y95860D01*
X125801Y95853D01*
X125773Y95848D01*
X125744Y95844D01*
X125716Y95842D01*
X125687Y95841D01*
X125087D01*
X125058Y95842D01*
X125030Y95844D01*
X125001Y95848D01*
X124973Y95853D01*
X124945Y95860D01*
X124917Y95868D01*
X124890Y95878D01*
X124863Y95889D01*
X124837Y95901D01*
X124812Y95915D01*
X124787Y95930D01*
X124764Y95946D01*
X124741Y95964D01*
X124719Y95982D01*
X124698Y96002D01*
X124678Y96023D01*
X124660Y96045D01*
X124642Y96068D01*
X124626Y96091D01*
X124611Y96116D01*
X124597Y96141D01*
X124585Y96167D01*
X124574Y96194D01*
X124564Y96221D01*
X124556Y96249D01*
X124549Y96277D01*
X124544Y96305D01*
X124540Y96334D01*
X124538Y96362D01*
X124537Y96391D01*
X124538Y96420D01*
X124540Y96448D01*
X124544Y96477D01*
X124549Y96505D01*
X124556Y96533D01*
X124564Y96561D01*
X124574Y96588D01*
X124585Y96615D01*
X124597Y96641D01*
X124611Y96666D01*
X124626Y96691D01*
X124642Y96714D01*
X124660Y96737D01*
X124678Y96759D01*
X124698Y96780D01*
X124719Y96800D01*
X124741Y96818D01*
X124764Y96836D01*
X124787Y96852D01*
X124812Y96867D01*
X124837Y96881D01*
X124863Y96893D01*
X124890Y96904D01*
X124917Y96914D01*
X124945Y96922D01*
X124973Y96929D01*
X125001Y96934D01*
X125030Y96938D01*
X125058Y96940D01*
X125087Y96941D01*
X125687D01*
X125716Y96940D01*
D02*
G37*
D11*
X98298Y100330D02*
Y102489D01*
X82572Y97177D02*
X83668D01*
X82042Y96647D02*
X82572Y97177D01*
X82042Y92706D02*
Y96647D01*
Y92706D02*
X83173Y91575D01*
X83668Y97177D02*
X83947Y97456D01*
X89672D01*
X86814Y91582D02*
X86939D01*
X88521Y92266D02*
X88677Y92422D01*
X81640Y90742D02*
X86996D01*
X93390Y102299D02*
X98107D01*
X88677Y92422D02*
X89638D01*
X91445Y104243D02*
X93390Y102299D01*
X83947Y92456D02*
X84137Y92266D01*
X80508Y91873D02*
Y101958D01*
X89794Y104243D02*
X91445D01*
X84069D02*
X89413D01*
X86996Y90742D02*
X88521Y92266D01*
X89604Y104434D02*
X89794Y104243D01*
X83879Y104434D02*
X84069Y104243D01*
X110304Y102620D02*
X111002D01*
X86939Y91582D02*
X86987Y91631D01*
X82794Y104243D02*
X83688D01*
X86807Y91575D02*
X86814Y91582D01*
X80508Y91873D02*
X81640Y90742D01*
X98298Y102489D02*
X110173D01*
X84137Y92266D02*
X88521D01*
X89638Y92422D02*
X89672Y92456D01*
X111002Y102620D02*
X111252Y102870D01*
X98107Y102299D02*
X98298Y102489D01*
X89413Y104243D02*
X89604Y104434D01*
X110173Y102489D02*
X110304Y102620D01*
X80508Y101958D02*
X82794Y104243D01*
X83688D02*
X83879Y104434D01*
X121234Y98234D02*
X121424Y98044D01*
X119634D02*
X121424D01*
X121507Y97961D01*
X120733Y103204D02*
X121250D01*
X120526Y98653D02*
Y102997D01*
X121250Y103204D02*
X121507Y103461D01*
X120526Y102997D02*
X120733Y103204D01*
X120945Y98234D02*
X121234D01*
X120526Y98653D02*
X120945Y98234D01*
X110744Y110490D02*
X119539D01*
X121444Y108585D02*
X121844D01*
X119539Y110490D02*
X121444Y108585D01*
X98298Y105029D02*
X105283D01*
X110744Y110490D01*
X83173Y91575D02*
X86807D01*
D13*
X125044Y108585D02*
D03*
X121844D02*
D03*
X124968Y92964D02*
D03*
X121768D02*
D03*
D14*
X83879Y104434D02*
D03*
Y106934D02*
D03*
Y109434D02*
D03*
X89604D02*
D03*
Y106934D02*
D03*
Y104434D02*
D03*
X83947Y92456D02*
D03*
Y94956D02*
D03*
Y97456D02*
D03*
X89672D02*
D03*
Y94956D02*
D03*
Y92456D02*
D03*
D15*
X121507Y97961D02*
D03*
Y103461D02*
D03*
D16*
Y99191D02*
D03*
Y102231D02*
D03*
D17*
Y100211D02*
D03*
Y101211D02*
D03*
D27*
X122890Y99254D02*
X123571Y99934D01*
X121570Y99254D02*
X122890D01*
X123571Y99934D02*
Y103289D01*
X121507Y99191D02*
X121570Y99254D01*
X122517Y102235D02*
X123571Y103289D01*
X122424Y102231D02*
X122428Y102235D01*
X122517D01*
X121507Y102231D02*
X122424D01*
X123571Y103289D02*
Y106299D01*
D28*
X93345Y106934D02*
X93980Y107569D01*
X83879Y106934D02*
X93345D01*
X117812Y98429D02*
Y100501D01*
Y98429D02*
X121503Y94738D01*
X122794D01*
X111951Y101029D02*
X116142D01*
X116713Y101600D01*
X111252Y100330D02*
X111951Y101029D01*
X116713Y101854D02*
X121285Y106426D01*
X122485D01*
X116713Y101600D02*
Y101854D01*
X122485Y106426D02*
X124644Y108585D01*
X125044D01*
X116713Y101600D02*
X117812Y100501D01*
X122794Y94738D02*
X124568Y92964D01*
X124968D01*
X98298Y97790D02*
X103124Y92964D01*
X121768D01*
X89671Y94849D02*
X94000D01*
X89563Y94956D02*
X89671Y94849D01*
X93980Y95504D02*
X94000Y94849D01*
X83947Y94956D02*
X89563D01*
D29*
X84674Y109728D02*
X88808D01*
X84151Y109707D02*
X84652D01*
X83879Y109434D02*
X84151Y109707D01*
X84652D02*
X84674Y109728D01*
X89331Y109707D02*
X89604Y109434D01*
X88808Y109728D02*
X88830Y109707D01*
X89331D01*
D30*
X93980Y107569D02*
D03*
X116713Y101600D02*
D03*
X93980Y95504D02*
D03*
D31*
X121587Y96391D02*
D03*
Y105031D02*
D03*
X125387Y96391D02*
D03*
Y105031D02*
D03*
D32*
X98298Y105029D02*
D03*
X111252Y100330D02*
D03*
X98298Y97790D02*
D03*
D33*
Y102489D02*
D03*
X111252Y102870D02*
D03*
X98298Y100330D02*
D03*
D34*
X86987Y91631D02*
D03*
X119634Y98044D02*
D03*
X123571Y106299D02*
D03*
X86995Y109728D02*
D03*
M02*
