G04*
G04 #@! TF.GenerationSoftware,Altium Limited,Altium Designer,23.0.1 (38)*
G04*
G04 Layer_Color=8421504*
%FSLAX43Y43*%
%MOMM*%
G71*
G04*
G04 #@! TF.SameCoordinates,0C8224BD-781C-42A6-9A02-31E2BED0DC02*
G04*
G04*
G04 #@! TF.FilePolarity,Positive*
G04*
G01*
G75*
%ADD13R,2.350X1.550*%
G04:AMPARAMS|DCode=14|XSize=1mm|YSize=1.525mm|CornerRadius=0.25mm|HoleSize=0mm|Usage=FLASHONLY|Rotation=90.000|XOffset=0mm|YOffset=0mm|HoleType=Round|Shape=RoundedRectangle|*
%AMROUNDEDRECTD14*
21,1,1.000,1.025,0,0,90.0*
21,1,0.500,1.525,0,0,90.0*
1,1,0.500,0.513,0.250*
1,1,0.500,0.513,-0.250*
1,1,0.500,-0.513,-0.250*
1,1,0.500,-0.513,0.250*
%
%ADD14ROUNDEDRECTD14*%
%ADD15R,1.200X0.800*%
%ADD16R,1.200X0.760*%
%ADD17R,1.200X0.700*%
D13*
X125044Y108585D02*
D03*
X121844D02*
D03*
X124968Y92964D02*
D03*
X121768D02*
D03*
D14*
X83879Y104434D02*
D03*
Y106934D02*
D03*
Y109434D02*
D03*
X89604D02*
D03*
Y106934D02*
D03*
Y104434D02*
D03*
X83947Y92456D02*
D03*
Y94956D02*
D03*
Y97456D02*
D03*
X89672D02*
D03*
Y94956D02*
D03*
Y92456D02*
D03*
D15*
X121507Y97961D02*
D03*
Y103461D02*
D03*
D16*
Y99191D02*
D03*
Y102231D02*
D03*
D17*
Y100211D02*
D03*
Y101211D02*
D03*
M02*
