G04*
G04 #@! TF.GenerationSoftware,Altium Limited,Altium Designer,23.0.1 (38)*
G04*
G04 Layer_Color=16711935*
%FSLAX43Y43*%
%MOMM*%
G71*
G04*
G04 #@! TF.SameCoordinates,0C8224BD-781C-42A6-9A02-31E2BED0DC02*
G04*
G04*
G04 #@! TF.FilePolarity,Negative*
G04*
G01*
G75*
%ADD23C,6.203*%
%ADD24R,1.854X1.854*%
%ADD25C,1.854*%
%ADD26C,0.711*%
%ADD36R,1.553X1.253*%
G36*
X120638Y96425D02*
X120641Y96459D01*
X120645Y96493D01*
X120651Y96526D01*
X120659Y96559D01*
X120669Y96592D01*
X120680Y96624D01*
X120693Y96655D01*
X120708Y96686D01*
X120724Y96716D01*
X120742Y96745D01*
X120761Y96773D01*
X120782Y96800D01*
X120804Y96826D01*
X120827Y96851D01*
X120852Y96874D01*
X120878Y96896D01*
X120905Y96917D01*
X120933Y96936D01*
X120962Y96954D01*
X120992Y96970D01*
X121023Y96985D01*
X121054Y96998D01*
X121086Y97009D01*
X121119Y97019D01*
X121152Y97027D01*
X121185Y97033D01*
X121219Y97037D01*
X121253Y97040D01*
X121287Y97041D01*
X121887D01*
X121921Y97040D01*
X121955Y97037D01*
X121989Y97033D01*
X122022Y97027D01*
X122055Y97019D01*
X122088Y97009D01*
X122120Y96998D01*
X122151Y96985D01*
X122182Y96970D01*
X122212Y96954D01*
X122241Y96936D01*
X122269Y96917D01*
X122296Y96896D01*
X122322Y96874D01*
X122347Y96851D01*
X122370Y96826D01*
X122392Y96800D01*
X122413Y96773D01*
X122432Y96745D01*
X122450Y96716D01*
X122466Y96686D01*
X122481Y96655D01*
X122494Y96624D01*
X122505Y96592D01*
X122515Y96559D01*
X122523Y96526D01*
X122529Y96493D01*
X122533Y96459D01*
X122536Y96425D01*
X122537Y96391D01*
X122536Y96357D01*
X122533Y96323D01*
X122529Y96289D01*
X122523Y96256D01*
X122515Y96223D01*
X122505Y96190D01*
X122494Y96158D01*
X122481Y96127D01*
X122466Y96096D01*
X122450Y96066D01*
X122432Y96037D01*
X122413Y96009D01*
X122392Y95982D01*
X122370Y95956D01*
X122347Y95931D01*
X122322Y95908D01*
X122296Y95886D01*
X122269Y95865D01*
X122241Y95846D01*
X122212Y95828D01*
X122182Y95812D01*
X122151Y95797D01*
X122120Y95784D01*
X122088Y95773D01*
X122055Y95763D01*
X122022Y95755D01*
X121989Y95749D01*
X121955Y95745D01*
X121921Y95742D01*
X121887Y95741D01*
X121287D01*
X121253Y95742D01*
X121219Y95745D01*
X121185Y95749D01*
X121152Y95755D01*
X121119Y95763D01*
X121086Y95773D01*
X121054Y95784D01*
X121023Y95797D01*
X120992Y95812D01*
X120962Y95828D01*
X120933Y95846D01*
X120905Y95865D01*
X120878Y95886D01*
X120852Y95908D01*
X120827Y95931D01*
X120804Y95956D01*
X120782Y95982D01*
X120761Y96009D01*
X120742Y96037D01*
X120724Y96066D01*
X120708Y96096D01*
X120693Y96127D01*
X120680Y96158D01*
X120669Y96190D01*
X120659Y96223D01*
X120651Y96256D01*
X120645Y96289D01*
X120641Y96323D01*
X120638Y96357D01*
X120637Y96391D01*
X120638Y96425D01*
D02*
G37*
G36*
X124438D02*
X124441Y96459D01*
X124445Y96493D01*
X124451Y96526D01*
X124459Y96559D01*
X124469Y96592D01*
X124480Y96624D01*
X124493Y96655D01*
X124508Y96686D01*
X124524Y96716D01*
X124542Y96745D01*
X124561Y96773D01*
X124582Y96800D01*
X124604Y96826D01*
X124627Y96851D01*
X124652Y96874D01*
X124678Y96896D01*
X124705Y96917D01*
X124733Y96936D01*
X124762Y96954D01*
X124792Y96970D01*
X124823Y96985D01*
X124854Y96998D01*
X124886Y97009D01*
X124919Y97019D01*
X124952Y97027D01*
X124985Y97033D01*
X125019Y97037D01*
X125053Y97040D01*
X125087Y97041D01*
X125687D01*
X125721Y97040D01*
X125755Y97037D01*
X125789Y97033D01*
X125822Y97027D01*
X125855Y97019D01*
X125888Y97009D01*
X125920Y96998D01*
X125951Y96985D01*
X125982Y96970D01*
X126012Y96954D01*
X126041Y96936D01*
X126069Y96917D01*
X126096Y96896D01*
X126122Y96874D01*
X126147Y96851D01*
X126170Y96826D01*
X126192Y96800D01*
X126213Y96773D01*
X126232Y96745D01*
X126250Y96716D01*
X126266Y96686D01*
X126281Y96655D01*
X126294Y96624D01*
X126305Y96592D01*
X126315Y96559D01*
X126323Y96526D01*
X126329Y96493D01*
X126333Y96459D01*
X126336Y96425D01*
X126337Y96391D01*
X126336Y96357D01*
X126333Y96323D01*
X126329Y96289D01*
X126323Y96256D01*
X126315Y96223D01*
X126305Y96190D01*
X126294Y96158D01*
X126281Y96127D01*
X126266Y96096D01*
X126250Y96066D01*
X126232Y96037D01*
X126213Y96009D01*
X126192Y95982D01*
X126170Y95956D01*
X126147Y95931D01*
X126122Y95908D01*
X126096Y95886D01*
X126069Y95865D01*
X126041Y95846D01*
X126012Y95828D01*
X125982Y95812D01*
X125951Y95797D01*
X125920Y95784D01*
X125888Y95773D01*
X125855Y95763D01*
X125822Y95755D01*
X125789Y95749D01*
X125755Y95745D01*
X125721Y95742D01*
X125687Y95741D01*
X125087D01*
X125053Y95742D01*
X125019Y95745D01*
X124985Y95749D01*
X124952Y95755D01*
X124919Y95763D01*
X124886Y95773D01*
X124854Y95784D01*
X124823Y95797D01*
X124792Y95812D01*
X124762Y95828D01*
X124733Y95846D01*
X124705Y95865D01*
X124678Y95886D01*
X124652Y95908D01*
X124627Y95931D01*
X124604Y95956D01*
X124582Y95982D01*
X124561Y96009D01*
X124542Y96037D01*
X124524Y96066D01*
X124508Y96096D01*
X124493Y96127D01*
X124480Y96158D01*
X124469Y96190D01*
X124459Y96223D01*
X124451Y96256D01*
X124445Y96289D01*
X124441Y96323D01*
X124438Y96357D01*
X124437Y96391D01*
X124438Y96425D01*
D02*
G37*
G36*
X120638Y105065D02*
X120641Y105099D01*
X120645Y105133D01*
X120651Y105166D01*
X120659Y105199D01*
X120669Y105232D01*
X120680Y105264D01*
X120693Y105295D01*
X120708Y105326D01*
X120724Y105356D01*
X120742Y105385D01*
X120761Y105413D01*
X120782Y105440D01*
X120804Y105466D01*
X120827Y105491D01*
X120852Y105514D01*
X120878Y105536D01*
X120905Y105557D01*
X120933Y105576D01*
X120962Y105594D01*
X120992Y105610D01*
X121023Y105625D01*
X121054Y105638D01*
X121086Y105649D01*
X121119Y105659D01*
X121152Y105667D01*
X121185Y105673D01*
X121219Y105677D01*
X121253Y105680D01*
X121287Y105681D01*
X121887D01*
X121921Y105680D01*
X121955Y105677D01*
X121989Y105673D01*
X122022Y105667D01*
X122055Y105659D01*
X122088Y105649D01*
X122120Y105638D01*
X122151Y105625D01*
X122182Y105610D01*
X122212Y105594D01*
X122241Y105576D01*
X122269Y105557D01*
X122296Y105536D01*
X122322Y105514D01*
X122347Y105491D01*
X122370Y105466D01*
X122392Y105440D01*
X122413Y105413D01*
X122432Y105385D01*
X122450Y105356D01*
X122466Y105326D01*
X122481Y105295D01*
X122494Y105264D01*
X122505Y105232D01*
X122515Y105199D01*
X122523Y105166D01*
X122529Y105133D01*
X122533Y105099D01*
X122536Y105065D01*
X122537Y105031D01*
X122536Y104997D01*
X122533Y104963D01*
X122529Y104929D01*
X122523Y104896D01*
X122515Y104863D01*
X122505Y104830D01*
X122494Y104798D01*
X122481Y104767D01*
X122466Y104736D01*
X122450Y104706D01*
X122432Y104677D01*
X122413Y104649D01*
X122392Y104622D01*
X122370Y104596D01*
X122347Y104571D01*
X122322Y104548D01*
X122296Y104526D01*
X122269Y104505D01*
X122241Y104486D01*
X122212Y104468D01*
X122182Y104452D01*
X122151Y104437D01*
X122120Y104424D01*
X122088Y104413D01*
X122055Y104403D01*
X122022Y104395D01*
X121989Y104389D01*
X121955Y104385D01*
X121921Y104382D01*
X121887Y104381D01*
X121287D01*
X121253Y104382D01*
X121219Y104385D01*
X121185Y104389D01*
X121152Y104395D01*
X121119Y104403D01*
X121086Y104413D01*
X121054Y104424D01*
X121023Y104437D01*
X120992Y104452D01*
X120962Y104468D01*
X120933Y104486D01*
X120905Y104505D01*
X120878Y104526D01*
X120852Y104548D01*
X120827Y104571D01*
X120804Y104596D01*
X120782Y104622D01*
X120761Y104649D01*
X120742Y104677D01*
X120724Y104706D01*
X120708Y104736D01*
X120693Y104767D01*
X120680Y104798D01*
X120669Y104830D01*
X120659Y104863D01*
X120651Y104896D01*
X120645Y104929D01*
X120641Y104963D01*
X120638Y104997D01*
X120637Y105031D01*
X120638Y105065D01*
D02*
G37*
G36*
X124438D02*
X124441Y105099D01*
X124445Y105133D01*
X124451Y105166D01*
X124459Y105199D01*
X124469Y105232D01*
X124480Y105264D01*
X124493Y105295D01*
X124508Y105326D01*
X124524Y105356D01*
X124542Y105385D01*
X124561Y105413D01*
X124582Y105440D01*
X124604Y105466D01*
X124627Y105491D01*
X124652Y105514D01*
X124678Y105536D01*
X124705Y105557D01*
X124733Y105576D01*
X124762Y105594D01*
X124792Y105610D01*
X124823Y105625D01*
X124854Y105638D01*
X124886Y105649D01*
X124919Y105659D01*
X124952Y105667D01*
X124985Y105673D01*
X125019Y105677D01*
X125053Y105680D01*
X125087Y105681D01*
X125687D01*
X125721Y105680D01*
X125755Y105677D01*
X125789Y105673D01*
X125822Y105667D01*
X125855Y105659D01*
X125888Y105649D01*
X125920Y105638D01*
X125951Y105625D01*
X125982Y105610D01*
X126012Y105594D01*
X126041Y105576D01*
X126069Y105557D01*
X126096Y105536D01*
X126122Y105514D01*
X126147Y105491D01*
X126170Y105466D01*
X126192Y105440D01*
X126213Y105413D01*
X126232Y105385D01*
X126250Y105356D01*
X126266Y105326D01*
X126281Y105295D01*
X126294Y105264D01*
X126305Y105232D01*
X126315Y105199D01*
X126323Y105166D01*
X126329Y105133D01*
X126333Y105099D01*
X126336Y105065D01*
X126337Y105031D01*
X126336Y104997D01*
X126333Y104963D01*
X126329Y104929D01*
X126323Y104896D01*
X126315Y104863D01*
X126305Y104830D01*
X126294Y104798D01*
X126281Y104767D01*
X126266Y104736D01*
X126250Y104706D01*
X126232Y104677D01*
X126213Y104649D01*
X126192Y104622D01*
X126170Y104596D01*
X126147Y104571D01*
X126122Y104548D01*
X126096Y104526D01*
X126069Y104505D01*
X126041Y104486D01*
X126012Y104468D01*
X125982Y104452D01*
X125951Y104437D01*
X125920Y104424D01*
X125888Y104413D01*
X125855Y104403D01*
X125822Y104395D01*
X125789Y104389D01*
X125755Y104385D01*
X125721Y104382D01*
X125687Y104381D01*
X125087D01*
X125053Y104382D01*
X125019Y104385D01*
X124985Y104389D01*
X124952Y104395D01*
X124919Y104403D01*
X124886Y104413D01*
X124854Y104424D01*
X124823Y104437D01*
X124792Y104452D01*
X124762Y104468D01*
X124733Y104486D01*
X124705Y104505D01*
X124678Y104526D01*
X124652Y104548D01*
X124627Y104571D01*
X124604Y104596D01*
X124582Y104622D01*
X124561Y104649D01*
X124542Y104677D01*
X124524Y104706D01*
X124508Y104736D01*
X124493Y104767D01*
X124480Y104798D01*
X124469Y104830D01*
X124459Y104863D01*
X124451Y104896D01*
X124445Y104929D01*
X124441Y104963D01*
X124438Y104997D01*
X124437Y105031D01*
X124438Y105065D01*
D02*
G37*
D23*
X93980Y107569D02*
D03*
X116713Y101600D02*
D03*
X93980Y95504D02*
D03*
D24*
X98298Y105029D02*
D03*
X111252Y100330D02*
D03*
X98298Y97790D02*
D03*
D25*
Y102489D02*
D03*
X111252Y102870D02*
D03*
X98298Y100330D02*
D03*
D26*
X86987Y91631D02*
D03*
X119634Y98044D02*
D03*
X123571Y106299D02*
D03*
X86995Y109728D02*
D03*
D36*
X86868Y105959D02*
D03*
Y107909D02*
D03*
Y95590D02*
D03*
Y93640D02*
D03*
M02*
