M48
;Layer_Color=9474304
;FILE_FORMAT=2:4
INCH,LZ
;TYPE=PLATED
T1F00S00C0.0315
T2F00S00C0.1575
%
T01
X027725Y013294
X028513
X0293
X030087
X032675Y016694
X033463
X03425
X035037
X036969Y016693
X037756
X038543
X039331
X030063Y015644
X029275
X028488
X0277
Y017994
X028488
X029275
X030063
X030025Y020294
X029237
X02845
X027663
T02
X032307Y013444
X035456
X038606
Y019744
X035456
X032307
M30
