G04*
G04 #@! TF.GenerationSoftware,Altium Limited,Altium Designer,23.0.1 (38)*
G04*
G04 Layer_Color=2752767*
%FSLAX25Y25*%
%MOIN*%
G70*
G04*
G04 #@! TF.SameCoordinates,383C52D0-4EDD-4C0E-AA1A-A67FCF8BFF30*
G04*
G04*
G04 #@! TF.FilePolarity,Positive*
G04*
G01*
G75*
%ADD11C,0.00500*%
D11*
X367685Y164929D02*
Y168929D01*
X371685D01*
Y164929D01*
X367685D01*
X375559D02*
Y168929D01*
X379559D01*
Y164929D01*
X375559D01*
X383433D02*
Y168929D01*
X387433D01*
Y164929D01*
X383433D01*
X391307D02*
Y168929D01*
X395307D01*
Y164929D01*
X391307D01*
X348374Y164937D02*
Y168937D01*
X352374D01*
Y164937D01*
X348374D01*
X340500D02*
Y168937D01*
X344500D01*
Y164937D01*
X340500D01*
X332626D02*
Y168937D01*
X336626D01*
Y164937D01*
X332626D01*
X324752D02*
Y168937D01*
X328752D01*
Y164937D01*
X324752D01*
X298248Y200937D02*
Y204937D01*
X302248D01*
Y200937D01*
X298248D01*
X290374D02*
Y204937D01*
X294374D01*
Y200937D01*
X290374D01*
X282500D02*
Y204937D01*
X286500D01*
Y200937D01*
X282500D01*
X274626D02*
Y204937D01*
X278626D01*
Y200937D01*
X274626D01*
X275004Y177937D02*
Y181937D01*
X279004D01*
Y177937D01*
X275004D01*
X282878D02*
Y181937D01*
X286878D01*
Y177937D01*
X282878D01*
X290752D02*
Y181937D01*
X294752D01*
Y177937D01*
X290752D01*
X298626D02*
Y181937D01*
X302626D01*
Y177937D01*
X298626D01*
X275004Y154437D02*
Y158437D01*
X279004D01*
Y154437D01*
X275004D01*
X282878D02*
Y158437D01*
X286878D01*
Y154437D01*
X282878D01*
X290752D02*
Y158437D01*
X294752D01*
Y154437D01*
X290752D01*
X298626D02*
Y158437D01*
X302626D01*
Y154437D01*
X298626D01*
X298874Y130937D02*
Y134937D01*
X302874D01*
Y130937D01*
X298874D01*
X291000D02*
Y134937D01*
X295000D01*
Y130937D01*
X291000D01*
X283126D02*
Y134937D01*
X287126D01*
Y130937D01*
X283126D01*
X275252D02*
Y134937D01*
X279252D01*
Y130937D01*
X275252D01*
X354563Y195437D02*
X352563Y199437D01*
X356563D01*
X354563Y195437D01*
X386059D02*
X384059Y199437D01*
X388059D01*
X386059Y195437D01*
X323067D02*
X321067Y199437D01*
X325067D01*
X323067Y195437D01*
Y132445D02*
X321067Y136445D01*
X325067D01*
X323067Y132445D01*
X354563D02*
X352563Y136445D01*
X356563D01*
X354563Y132445D01*
X386059D02*
X384059Y136445D01*
X388059D01*
X386059Y132445D01*
M02*
