G04*
G04 #@! TF.GenerationSoftware,Altium Limited,Altium Designer,23.0.1 (38)*
G04*
G04 Layer_Color=128*
%FSLAX25Y25*%
%MOIN*%
G70*
G04*
G04 #@! TF.SameCoordinates,383C52D0-4EDD-4C0E-AA1A-A67FCF8BFF30*
G04*
G04*
G04 #@! TF.FilePolarity,Positive*
G04*
G01*
G75*
%ADD11C,0.00500*%
D11*
X368110Y166929D02*
X371260D01*
X369685Y165354D02*
Y168504D01*
X375984Y166929D02*
X379134D01*
X377559Y165354D02*
Y168504D01*
X383858Y166929D02*
X387008D01*
X385433Y165354D02*
Y168504D01*
X391732Y166929D02*
X394882D01*
X393307Y165354D02*
Y168504D01*
X348799Y166937D02*
X351949D01*
X350374Y165362D02*
Y168512D01*
X340925Y166937D02*
X344075D01*
X342500Y165362D02*
Y168512D01*
X333051Y166937D02*
X336201D01*
X334626Y165362D02*
Y168512D01*
X325177Y166937D02*
X328327D01*
X326752Y165362D02*
Y168512D01*
X298673Y202937D02*
X301823D01*
X300248Y201362D02*
Y204512D01*
X290799Y202937D02*
X293949D01*
X292374Y201362D02*
Y204512D01*
X282925Y202937D02*
X286075D01*
X284500Y201362D02*
Y204512D01*
X275051Y202937D02*
X278201D01*
X276626Y201362D02*
Y204512D01*
X275429Y179937D02*
X278579D01*
X277004Y178362D02*
Y181512D01*
X283303Y179937D02*
X286453D01*
X284878Y178362D02*
Y181512D01*
X291177Y179937D02*
X294327D01*
X292752Y178362D02*
Y181512D01*
X299051Y179937D02*
X302201D01*
X300626Y178362D02*
Y181512D01*
X275429Y156437D02*
X278579D01*
X277004Y154862D02*
Y158012D01*
X283303Y156437D02*
X286453D01*
X284878Y154862D02*
Y158012D01*
X291177Y156437D02*
X294327D01*
X292752Y154862D02*
Y158012D01*
X299051Y156437D02*
X302201D01*
X300626Y154862D02*
Y158012D01*
X299299Y132937D02*
X302449D01*
X300874Y131362D02*
Y134512D01*
X291425Y132937D02*
X294575D01*
X293000Y131362D02*
Y134512D01*
X283551Y132937D02*
X286701D01*
X285126Y131362D02*
Y134512D01*
X275677Y132937D02*
X278827D01*
X277252Y131362D02*
Y134512D01*
X346689Y197437D02*
X362437D01*
X354563Y189563D02*
Y205311D01*
X378185Y197437D02*
X393933D01*
X386059Y189563D02*
Y205311D01*
X315193Y197437D02*
X330941D01*
X323067Y189563D02*
Y205311D01*
X315193Y134445D02*
X330941D01*
X323067Y126571D02*
Y142319D01*
X346689Y134445D02*
X362437D01*
X354563Y126571D02*
Y142319D01*
X378185Y134445D02*
X393933D01*
X386059Y126571D02*
Y142319D01*
M02*
