G04*
G04 #@! TF.GenerationSoftware,Altium Limited,Altium Designer,23.0.1 (38)*
G04*
G04 Layer_Color=8388736*
%FSLAX25Y25*%
%MOIN*%
G70*
G04*
G04 #@! TF.SameCoordinates,383C52D0-4EDD-4C0E-AA1A-A67FCF8BFF30*
G04*
G04*
G04 #@! TF.FilePolarity,Negative*
G04*
G01*
G75*
G04:AMPARAMS|DCode=16|XSize=47.37mil|YSize=145.8mil|CornerRadius=13.84mil|HoleSize=0mil|Usage=FLASHONLY|Rotation=270.000|XOffset=0mil|YOffset=0mil|HoleType=Round|Shape=RoundedRectangle|*
%AMROUNDEDRECTD16*
21,1,0.04737,0.11811,0,0,270.0*
21,1,0.01968,0.14580,0,0,270.0*
1,1,0.02769,-0.05906,-0.00984*
1,1,0.02769,-0.05906,0.00984*
1,1,0.02769,0.05906,0.00984*
1,1,0.02769,0.05906,-0.00984*
%
%ADD16ROUNDEDRECTD16*%
G04:AMPARAMS|DCode=17|XSize=67.06mil|YSize=141.86mil|CornerRadius=11.38mil|HoleSize=0mil|Usage=FLASHONLY|Rotation=270.000|XOffset=0mil|YOffset=0mil|HoleType=Round|Shape=RoundedRectangle|*
%AMROUNDEDRECTD17*
21,1,0.06706,0.11909,0,0,270.0*
21,1,0.04429,0.14186,0,0,270.0*
1,1,0.02276,-0.05955,-0.02215*
1,1,0.02276,-0.05955,0.02215*
1,1,0.02276,0.05955,0.02215*
1,1,0.02276,0.05955,-0.02215*
%
%ADD17ROUNDEDRECTD17*%
%ADD18R,0.05950X0.05950*%
%ADD19C,0.05950*%
%ADD20C,0.24422*%
D16*
X416339Y177362D02*
D03*
Y169488D02*
D03*
Y161614D02*
D03*
Y153740D02*
D03*
D17*
X438976Y187008D02*
D03*
Y144095D02*
D03*
D18*
X369685Y166929D02*
D03*
X326752Y166937D02*
D03*
X276626Y202937D02*
D03*
X277004Y179937D02*
D03*
Y156437D02*
D03*
X277252Y132937D02*
D03*
D19*
X377559Y166929D02*
D03*
X385433D02*
D03*
X393307D02*
D03*
X350374Y166937D02*
D03*
X342500D02*
D03*
X334626D02*
D03*
X300248Y202937D02*
D03*
X292374D02*
D03*
X284500D02*
D03*
X284878Y179937D02*
D03*
X292752D02*
D03*
X300626D02*
D03*
X284878Y156437D02*
D03*
X292752D02*
D03*
X300626D02*
D03*
X300874Y132937D02*
D03*
X293000D02*
D03*
X285126D02*
D03*
D20*
X354563Y197437D02*
D03*
X386059D02*
D03*
X323067D02*
D03*
Y134445D02*
D03*
X354563D02*
D03*
X386059D02*
D03*
M02*
