G04*
G04 #@! TF.GenerationSoftware,Altium Limited,Altium Designer,23.0.1 (38)*
G04*
G04 Layer_Color=16711935*
%FSLAX25Y25*%
%MOIN*%
G70*
G04*
G04 #@! TF.SameCoordinates,383C52D0-4EDD-4C0E-AA1A-A67FCF8BFF30*
G04*
G04*
G04 #@! TF.FilePolarity,Positive*
G04*
G01*
G75*
%ADD10C,0.00787*%
%ADD11C,0.00500*%
D10*
X359055Y166929D02*
G03*
X359055Y166929I-394J0D01*
G01*
X316122Y166937D02*
G03*
X316122Y166937I-394J0D01*
G01*
X265996Y202937D02*
G03*
X265996Y202937I-394J0D01*
G01*
X266374Y179937D02*
G03*
X266374Y179937I-394J0D01*
G01*
Y156437D02*
G03*
X266374Y156437I-394J0D01*
G01*
X266622Y132937D02*
G03*
X266622Y132937I-394J0D01*
G01*
D11*
X361811Y175394D02*
X401181D01*
Y155315D02*
Y175394D01*
X361811Y155315D02*
X401181D01*
X361811D02*
Y175394D01*
X318878Y155323D02*
Y175402D01*
Y155323D02*
X358248D01*
Y175402D01*
X318878D02*
X358248D01*
X268752Y191323D02*
Y211402D01*
Y191323D02*
X308122D01*
Y211402D01*
X268752D02*
X308122D01*
X269130Y188402D02*
X308500D01*
Y168323D02*
Y188402D01*
X269130Y168323D02*
X308500D01*
X269130D02*
Y188402D01*
Y164902D02*
X308500D01*
Y144823D02*
Y164902D01*
X269130Y144823D02*
X308500D01*
X269130D02*
Y164902D01*
X269378Y121323D02*
Y141402D01*
Y121323D02*
X308748D01*
Y141402D01*
X269378D02*
X308748D01*
M02*
