G04*
G04 #@! TF.GenerationSoftware,Altium Limited,Altium Designer,23.0.1 (38)*
G04*
G04 Layer_Color=2752767*
%FSLAX25Y25*%
%MOIN*%
G70*
G04*
G04 #@! TF.SameCoordinates,522C3931-FE7E-4C40-AD20-8D3CB5E53036*
G04*
G04*
G04 #@! TF.FilePolarity,Positive*
G04*
G01*
G75*
%ADD13C,0.00500*%
D13*
X417800Y148600D02*
Y152600D01*
X421800D01*
Y148600D01*
X417800D01*
X397800D02*
Y152600D01*
X401800D01*
Y148600D01*
X397800D01*
X377800D02*
Y152600D01*
X381800D01*
Y148600D01*
X377800D01*
X437800D02*
Y152600D01*
X441800D01*
Y148600D01*
X437800D01*
X457800D02*
Y152600D01*
X461800D01*
Y148600D01*
X457800D01*
X378000Y188000D02*
Y192000D01*
X382000D01*
Y188000D01*
X378000D01*
X398000D02*
Y192000D01*
X402000D01*
Y188000D01*
X398000D01*
X458000D02*
Y192000D01*
X462000D01*
Y188000D01*
X458000D01*
X438000D02*
Y192000D01*
X442000D01*
Y188000D01*
X438000D01*
X418000D02*
Y192000D01*
X422000D01*
Y188000D01*
X418000D01*
X356844Y164257D02*
X354844Y168257D01*
X358844D01*
X356844Y164257D01*
X332630Y167801D02*
X330630Y171801D01*
X334630D01*
X332630Y167801D01*
X332531Y173800D02*
X330531Y177800D01*
X334531D01*
X332531Y173800D01*
X334800Y184400D02*
X332800Y188400D01*
X336800D01*
X334800Y184400D01*
X336200Y148400D02*
X334200Y152400D01*
X338200D01*
X336200Y148400D01*
M02*
