G04*
G04 #@! TF.GenerationSoftware,Altium Limited,Altium Designer,23.0.1 (38)*
G04*
G04 Layer_Physical_Order=2*
G04 Layer_Color=16711680*
%FSLAX25Y25*%
%MOIN*%
G70*
G04*
G04 #@! TF.SameCoordinates,522C3931-FE7E-4C40-AD20-8D3CB5E53036*
G04*
G04*
G04 #@! TF.FilePolarity,Positive*
G04*
G01*
G75*
%ADD14C,0.01000*%
%ADD33C,0.04500*%
%ADD34O,0.11000X0.12000*%
%ADD35R,0.11000X0.12000*%
%ADD36C,0.05000*%
G36*
X463900Y216300D02*
Y216300D01*
X464554Y216065D01*
X465802Y215455D01*
X466975Y214711D01*
X468060Y213843D01*
X469042Y212860D01*
X469911Y211775D01*
X470655Y210602D01*
X471265Y209354D01*
X471500Y208700D01*
X471500Y131500D01*
X471500D01*
X470859Y130559D01*
X469406Y128805D01*
X467795Y127194D01*
X466041Y125741D01*
X465100Y125100D01*
X292400D01*
X292400Y125100D01*
X291832Y125322D01*
X290748Y125881D01*
X289727Y126548D01*
X288780Y127317D01*
X287917Y128180D01*
X287148Y129127D01*
X286481Y130148D01*
X285922Y131232D01*
X285700Y131800D01*
X285501Y206700D01*
X285500Y207200D01*
X285639Y208049D01*
X286177Y209684D01*
X286962Y211216D01*
X287975Y212608D01*
X289193Y213825D01*
X290584Y214838D01*
X292115Y215623D01*
X293751Y216161D01*
X294600Y216300D01*
X463900Y216300D01*
X463900Y216300D01*
D02*
G37*
%LPC*%
G36*
X420500Y196982D02*
Y190500D01*
X426532D01*
X426406Y191774D01*
X426034Y192999D01*
X425431Y194129D01*
X424618Y195118D01*
X423629Y195931D01*
X422500Y196534D01*
X421274Y196906D01*
X420500Y196982D01*
D02*
G37*
G36*
X419500D02*
X418726Y196906D01*
X417500Y196534D01*
X416371Y195931D01*
X415382Y195118D01*
X414569Y194129D01*
X413966Y192999D01*
X413594Y191774D01*
X413469Y190500D01*
D01*
X419500D01*
Y196982D01*
D02*
G37*
G36*
X334300Y189890D02*
X333449Y189662D01*
X332651Y189201D01*
X331999Y188549D01*
X331539Y187751D01*
X331311Y186900D01*
X334300D01*
Y189890D01*
D02*
G37*
G36*
X428177Y201052D02*
X334500D01*
X333915Y200936D01*
X333419Y200604D01*
X325719Y192904D01*
X325387Y192408D01*
X325271Y191823D01*
Y180654D01*
X325387Y180069D01*
X325719Y179572D01*
X329031Y176260D01*
Y175339D01*
X329270Y174449D01*
X329730Y173651D01*
X330304Y173077D01*
X330372Y172894D01*
X330331Y172452D01*
X329829Y171950D01*
X329368Y171152D01*
X329130Y170262D01*
Y169340D01*
X329368Y168450D01*
X329829Y167652D01*
X330481Y167000D01*
X331279Y166539D01*
X332169Y166301D01*
X333090D01*
X333424Y166390D01*
X334056Y165759D01*
Y153203D01*
X334051Y153201D01*
X333399Y152549D01*
X332939Y151751D01*
X332700Y150861D01*
Y149939D01*
X332939Y149049D01*
X333399Y148251D01*
X334051Y147599D01*
X334849Y147139D01*
X335739Y146900D01*
X336661D01*
X337551Y147139D01*
X338349Y147599D01*
X339001Y148251D01*
X339461Y149049D01*
X339700Y149939D01*
Y150861D01*
X339461Y151751D01*
X339001Y152549D01*
X338349Y153201D01*
X337551Y153662D01*
X337115Y153778D01*
Y166393D01*
X336998Y166978D01*
X336667Y167474D01*
X335818Y168323D01*
X335891Y168450D01*
X336130Y169340D01*
Y170262D01*
X335891Y171152D01*
X335430Y171950D01*
X334856Y172524D01*
X334788Y172707D01*
X334830Y173149D01*
X335332Y173651D01*
X335792Y174449D01*
X336031Y175339D01*
Y176261D01*
X335792Y177151D01*
X335332Y177949D01*
X334680Y178601D01*
X333882Y179061D01*
X332992Y179300D01*
X332070D01*
X331180Y179061D01*
X330784Y178833D01*
X328329Y181287D01*
Y191189D01*
X335134Y197994D01*
X427544D01*
X433569Y191968D01*
X433639Y191922D01*
X433594Y191774D01*
X433468Y190500D01*
Y189500D01*
X433594Y188226D01*
X433966Y187001D01*
X434569Y185871D01*
X435382Y184882D01*
X436371Y184069D01*
X437500Y183466D01*
X438726Y183094D01*
X440000Y182969D01*
X441274Y183094D01*
X442499Y183466D01*
X443629Y184069D01*
X444618Y184882D01*
X445431Y185871D01*
X446034Y187001D01*
X446406Y188226D01*
X446531Y189500D01*
Y190500D01*
X446406Y191774D01*
X446034Y192999D01*
X445431Y194129D01*
X444618Y195118D01*
X443629Y195931D01*
X442499Y196534D01*
X441274Y196906D01*
X440000Y197031D01*
X438726Y196906D01*
X437500Y196534D01*
X436371Y195931D01*
X435382Y195118D01*
X435331Y195056D01*
X434831Y195032D01*
X429258Y200604D01*
X428762Y200936D01*
X428177Y201052D01*
D02*
G37*
G36*
X338289Y185900D02*
X335300D01*
Y182911D01*
X336151Y183139D01*
X336949Y183599D01*
X337601Y184251D01*
X338061Y185049D01*
X338289Y185900D01*
D02*
G37*
G36*
X334300D02*
X331311D01*
X331539Y185049D01*
X331999Y184251D01*
X332651Y183599D01*
X333449Y183139D01*
X334300Y182911D01*
Y185900D01*
D02*
G37*
G36*
X400000Y197031D02*
X398726Y196906D01*
X397500Y196534D01*
X396371Y195931D01*
X395382Y195118D01*
X394569Y194129D01*
X393966Y192999D01*
X393594Y191774D01*
X393469Y190500D01*
Y189500D01*
X393594Y188226D01*
X393966Y187001D01*
X394569Y185871D01*
X395382Y184882D01*
X396371Y184069D01*
X397500Y183466D01*
X398726Y183094D01*
X399382Y183029D01*
X399358Y182529D01*
X395225D01*
X391184Y187469D01*
X391124Y187517D01*
X391081Y187581D01*
X389081Y189581D01*
X388585Y189913D01*
X388000Y190029D01*
X386531D01*
Y190500D01*
X386406Y191774D01*
X386034Y192999D01*
X385431Y194129D01*
X384618Y195118D01*
X383629Y195931D01*
X382500Y196534D01*
X381274Y196906D01*
X380500Y196982D01*
Y190000D01*
X379500D01*
Y196982D01*
X378726Y196906D01*
X377501Y196534D01*
X376371Y195931D01*
X375382Y195118D01*
X374569Y194129D01*
X373966Y192999D01*
X373594Y191774D01*
X373469Y190500D01*
Y190029D01*
X336900D01*
X336315Y189913D01*
X335999Y189702D01*
X335300Y189890D01*
Y186900D01*
X338330D01*
X338384Y186971D01*
X373982D01*
X374569Y185871D01*
X375382Y184882D01*
X376371Y184069D01*
X377501Y183466D01*
X378471Y183171D01*
Y177091D01*
X367609Y166229D01*
X360344D01*
Y166718D01*
X360105Y167608D01*
X359644Y168406D01*
X358993Y169058D01*
X358194Y169519D01*
X357344Y169747D01*
Y166257D01*
Y162768D01*
X358194Y162996D01*
X358806Y163349D01*
X358898Y163287D01*
X359483Y163171D01*
X368243D01*
X368828Y163287D01*
X369324Y163619D01*
X381081Y175376D01*
X381413Y175872D01*
X381529Y176457D01*
Y183171D01*
X382500Y183466D01*
X383629Y184069D01*
X384618Y184882D01*
X385431Y185871D01*
X386018Y186971D01*
X387367D01*
X388865Y185473D01*
X393048Y180360D01*
X393107Y180311D01*
X393150Y180247D01*
X393478Y179919D01*
X393974Y179587D01*
X394560Y179471D01*
X419414D01*
X420000Y179587D01*
X420496Y179919D01*
X421081Y180504D01*
X421413Y181000D01*
X421529Y181586D01*
Y183171D01*
X422500Y183466D01*
X423629Y184069D01*
X424618Y184882D01*
X425431Y185871D01*
X426034Y187001D01*
X426406Y188226D01*
X426532Y189500D01*
D01*
X420000D01*
X413469D01*
X413594Y188226D01*
X413966Y187001D01*
X414569Y185871D01*
X415382Y184882D01*
X416371Y184069D01*
X417500Y183466D01*
X418471Y183171D01*
Y182529D01*
X400642D01*
X400618Y183029D01*
X401274Y183094D01*
X402499Y183466D01*
X403629Y184069D01*
X404618Y184882D01*
X405431Y185871D01*
X406034Y187001D01*
X406406Y188226D01*
X406531Y189500D01*
Y190500D01*
X406406Y191774D01*
X406034Y192999D01*
X405431Y194129D01*
X404618Y195118D01*
X403629Y195931D01*
X402499Y196534D01*
X401274Y196906D01*
X400000Y197031D01*
D02*
G37*
G36*
X356344Y169747D02*
X355493Y169519D01*
X354695Y169058D01*
X354043Y168406D01*
X353582Y167608D01*
X353354Y166757D01*
X356344D01*
Y169747D01*
D02*
G37*
G36*
Y165757D02*
X353354D01*
X353582Y164906D01*
X354043Y164108D01*
X354695Y163456D01*
X355493Y162996D01*
X356344Y162768D01*
Y165757D01*
D02*
G37*
G36*
X460300Y157582D02*
Y151100D01*
X466331D01*
X466206Y152374D01*
X465834Y153600D01*
X465231Y154729D01*
X464418Y155718D01*
X463429Y156531D01*
X462299Y157134D01*
X461074Y157506D01*
X460300Y157582D01*
D02*
G37*
G36*
X459300D02*
X458526Y157506D01*
X457301Y157134D01*
X456171Y156531D01*
X455182Y155718D01*
X454369Y154729D01*
X453766Y153600D01*
X453394Y152374D01*
X453268Y151100D01*
X459300D01*
Y157582D01*
D02*
G37*
G36*
X420300D02*
Y151100D01*
X426332D01*
X426206Y152374D01*
X425834Y153600D01*
X425231Y154729D01*
X424418Y155718D01*
X423429Y156531D01*
X422299Y157134D01*
X421074Y157506D01*
X420300Y157582D01*
D02*
G37*
G36*
X419300D02*
X418526Y157506D01*
X417301Y157134D01*
X416171Y156531D01*
X415182Y155718D01*
X414369Y154729D01*
X413766Y153600D01*
X413394Y152374D01*
X413269Y151100D01*
X419300D01*
Y157582D01*
D02*
G37*
G36*
X466500Y197000D02*
X453500D01*
Y187636D01*
X439442Y173578D01*
X399000D01*
X398152Y173466D01*
X397361Y173139D01*
X396682Y172618D01*
X381664Y157600D01*
X373300D01*
Y143600D01*
X386300D01*
Y152964D01*
X400358Y167022D01*
X440800D01*
X441224Y167078D01*
X441648Y167134D01*
X442439Y167461D01*
X443118Y167982D01*
X458136Y183000D01*
X466500D01*
Y197000D01*
D02*
G37*
G36*
X439800Y157631D02*
X438526Y157506D01*
X437300Y157134D01*
X436171Y156531D01*
X435182Y155718D01*
X434369Y154729D01*
X433766Y153600D01*
X433394Y152374D01*
X433268Y151100D01*
Y150100D01*
X433394Y148826D01*
X433766Y147600D01*
X434369Y146471D01*
X435182Y145482D01*
X436171Y144669D01*
X437300Y144066D01*
X438526Y143694D01*
X439800Y143569D01*
X441074Y143694D01*
X442300Y144066D01*
X443429Y144669D01*
X444418Y145482D01*
X445231Y146471D01*
X445834Y147600D01*
X446206Y148826D01*
X446332Y150100D01*
Y151100D01*
X446206Y152374D01*
X445834Y153600D01*
X445231Y154729D01*
X444418Y155718D01*
X443429Y156531D01*
X442300Y157134D01*
X441074Y157506D01*
X439800Y157631D01*
D02*
G37*
G36*
X399800D02*
X398526Y157506D01*
X397301Y157134D01*
X396171Y156531D01*
X395182Y155718D01*
X394369Y154729D01*
X393766Y153600D01*
X393394Y152374D01*
X393269Y151100D01*
Y150100D01*
X393394Y148826D01*
X393766Y147600D01*
X394369Y146471D01*
X395182Y145482D01*
X396171Y144669D01*
X397301Y144066D01*
X398526Y143694D01*
X399800Y143569D01*
X401074Y143694D01*
X402299Y144066D01*
X403429Y144669D01*
X404418Y145482D01*
X405231Y146471D01*
X405834Y147600D01*
X406206Y148826D01*
X406331Y150100D01*
Y151100D01*
X406206Y152374D01*
X405834Y153600D01*
X405231Y154729D01*
X404418Y155718D01*
X403429Y156531D01*
X402299Y157134D01*
X401074Y157506D01*
X399800Y157631D01*
D02*
G37*
G36*
X466331Y150100D02*
X453268D01*
X453394Y148826D01*
X453766Y147600D01*
X454369Y146471D01*
X455182Y145482D01*
X456171Y144669D01*
X457301Y144066D01*
X458271Y143772D01*
Y140893D01*
X457106Y139729D01*
X422905D01*
X421729Y140905D01*
Y143893D01*
X422299Y144066D01*
X423429Y144669D01*
X424418Y145482D01*
X425231Y146471D01*
X425834Y147600D01*
X426206Y148826D01*
X426332Y150100D01*
X413269D01*
X413394Y148826D01*
X413766Y147600D01*
X414369Y146471D01*
X415182Y145482D01*
X416171Y144669D01*
X417301Y144066D01*
X418526Y143694D01*
X418671Y143680D01*
Y140272D01*
X418787Y139686D01*
X419119Y139190D01*
X421190Y137119D01*
X421686Y136787D01*
X422272Y136671D01*
X457740D01*
X458325Y136787D01*
X458821Y137119D01*
X460881Y139179D01*
X461213Y139675D01*
X461329Y140260D01*
Y143772D01*
X462299Y144066D01*
X463429Y144669D01*
X464418Y145482D01*
X465231Y146471D01*
X465834Y147600D01*
X466206Y148826D01*
X466331Y150100D01*
D02*
G37*
%LPD*%
D14*
X356844Y166257D02*
X357926D01*
X359483Y164700D01*
X394560Y181000D02*
X419414D01*
X394232Y181328D02*
X394560Y181000D01*
X419414D02*
X420000Y181586D01*
Y190000D01*
X390000Y186500D02*
X394232Y181328D01*
X359483Y164700D02*
X368243D01*
X380000Y176457D01*
X434744Y193050D02*
X437794Y190000D01*
X440000D01*
X434650Y193050D02*
X434744D01*
X428177Y199523D02*
X434650Y193050D01*
X334500Y199523D02*
X428177D01*
X331654Y175800D02*
X332531D01*
X326800Y180654D02*
X331654Y175800D01*
X326800Y180654D02*
Y191823D01*
X334500Y199523D01*
X336900Y188500D02*
X378500D01*
X334800Y186400D02*
X336900Y188500D01*
X381500D02*
X388000D01*
X390000Y186500D01*
X380000Y176457D02*
Y190000D01*
X378500Y188500D02*
X380000Y190000D01*
X381207Y188793D01*
X381500Y188500D01*
X420200Y140272D02*
Y150200D01*
X422272Y138200D02*
X457740D01*
X420200Y140272D02*
X422272Y138200D01*
X419800Y150600D02*
X420200Y150200D01*
X457740Y138200D02*
X459800Y140260D01*
Y150600D01*
X335585Y151015D02*
Y166393D01*
X332630Y169348D02*
Y169801D01*
Y169348D02*
X335585Y166393D01*
Y151015D02*
X336200Y150400D01*
D33*
X440800Y170300D02*
X460000Y189500D01*
Y190000D01*
X399000Y170300D02*
X440800D01*
X379800Y151100D02*
X399000Y170300D01*
X379800Y150600D02*
Y151100D01*
D34*
X419800Y150600D02*
D03*
X399800D02*
D03*
X439800D02*
D03*
X459800D02*
D03*
X380000Y190000D02*
D03*
X400000D02*
D03*
X440000D02*
D03*
X420000D02*
D03*
D35*
X379800Y150600D02*
D03*
X460000Y190000D02*
D03*
D36*
X356844Y166257D02*
D03*
X332630Y169801D02*
D03*
X332531Y175800D02*
D03*
X334800Y186400D02*
D03*
X336200Y150400D02*
D03*
M02*
