G04*
G04 #@! TF.GenerationSoftware,Altium Limited,Altium Designer,23.0.1 (38)*
G04*
G04 Layer_Color=8388736*
%FSLAX25Y25*%
%MOIN*%
G70*
G04*
G04 #@! TF.SameCoordinates,522C3931-FE7E-4C40-AD20-8D3CB5E53036*
G04*
G04*
G04 #@! TF.FilePolarity,Negative*
G04*
G01*
G75*
G04:AMPARAMS|DCode=22|XSize=47.37mil|YSize=145.8mil|CornerRadius=13.84mil|HoleSize=0mil|Usage=FLASHONLY|Rotation=90.000|XOffset=0mil|YOffset=0mil|HoleType=Round|Shape=RoundedRectangle|*
%AMROUNDEDRECTD22*
21,1,0.04737,0.11811,0,0,90.0*
21,1,0.01968,0.14580,0,0,90.0*
1,1,0.02769,0.05906,0.00984*
1,1,0.02769,0.05906,-0.00984*
1,1,0.02769,-0.05906,-0.00984*
1,1,0.02769,-0.05906,0.00984*
%
%ADD22ROUNDEDRECTD22*%
G04:AMPARAMS|DCode=23|XSize=67.06mil|YSize=141.86mil|CornerRadius=11.38mil|HoleSize=0mil|Usage=FLASHONLY|Rotation=90.000|XOffset=0mil|YOffset=0mil|HoleType=Round|Shape=RoundedRectangle|*
%AMROUNDEDRECTD23*
21,1,0.06706,0.11909,0,0,90.0*
21,1,0.04429,0.14186,0,0,90.0*
1,1,0.02276,0.05955,0.02215*
1,1,0.02276,0.05955,-0.02215*
1,1,0.02276,-0.05955,-0.02215*
1,1,0.02276,-0.05955,0.02215*
%
%ADD23ROUNDEDRECTD23*%
%ADD24R,0.12217X0.06312*%
%ADD25R,0.06902X0.10052*%
%ADD26R,0.06115X0.04934*%
G04:AMPARAMS|DCode=27|XSize=61.94mil|YSize=31.23mil|CornerRadius=9.81mil|HoleSize=0mil|Usage=FLASHONLY|Rotation=180.000|XOffset=0mil|YOffset=0mil|HoleType=Round|Shape=RoundedRectangle|*
%AMROUNDEDRECTD27*
21,1,0.06194,0.01161,0,0,180.0*
21,1,0.04232,0.03123,0,0,180.0*
1,1,0.01961,-0.02116,0.00581*
1,1,0.01961,0.02116,0.00581*
1,1,0.01961,0.02116,-0.00581*
1,1,0.01961,-0.02116,-0.00581*
%
%ADD27ROUNDEDRECTD27*%
%ADD28R,0.21666X0.08674*%
%ADD29O,0.11800X0.12800*%
%ADD30R,0.11800X0.12800*%
%ADD31C,0.05800*%
D22*
X315438Y157746D02*
D03*
Y165620D02*
D03*
Y173494D02*
D03*
Y181368D02*
D03*
D23*
X292800Y148100D02*
D03*
Y191013D02*
D03*
D24*
X363300Y196913D02*
D03*
Y211087D02*
D03*
X323700Y197213D02*
D03*
Y211387D02*
D03*
D25*
X355500Y146799D02*
D03*
Y134201D02*
D03*
D26*
X363300Y174961D02*
D03*
Y182639D02*
D03*
X355000Y175061D02*
D03*
Y182739D02*
D03*
X346700Y182639D02*
D03*
Y174961D02*
D03*
X319500Y132661D02*
D03*
Y140339D02*
D03*
X335500D02*
D03*
Y132661D02*
D03*
D27*
X350106Y164640D02*
D03*
Y160900D02*
D03*
Y157160D02*
D03*
X340894D02*
D03*
Y160900D02*
D03*
Y164640D02*
D03*
D28*
X343100Y210590D02*
D03*
Y196810D02*
D03*
D29*
X419800Y150600D02*
D03*
X399800D02*
D03*
X439800D02*
D03*
X459800D02*
D03*
X380000Y190000D02*
D03*
X400000D02*
D03*
X440000D02*
D03*
X420000D02*
D03*
D30*
X379800Y150600D02*
D03*
X460000Y190000D02*
D03*
D31*
X356844Y166257D02*
D03*
X332630Y169801D02*
D03*
X332531Y175800D02*
D03*
X334800Y186400D02*
D03*
X336200Y150400D02*
D03*
M02*
