G04*
G04 #@! TF.GenerationSoftware,Altium Limited,Altium Designer,23.0.1 (38)*
G04*
G04 Layer_Color=255*
%FSLAX25Y25*%
%MOIN*%
G70*
G04*
G04 #@! TF.SameCoordinates,522C3931-FE7E-4C40-AD20-8D3CB5E53036*
G04*
G04*
G04 #@! TF.FilePolarity,Positive*
G04*
G01*
G75*
G04:AMPARAMS|DCode=15|XSize=39.37mil|YSize=137.8mil|CornerRadius=9.84mil|HoleSize=0mil|Usage=FLASHONLY|Rotation=90.000|XOffset=0mil|YOffset=0mil|HoleType=Round|Shape=RoundedRectangle|*
%AMROUNDEDRECTD15*
21,1,0.03937,0.11811,0,0,90.0*
21,1,0.01968,0.13780,0,0,90.0*
1,1,0.01968,0.05906,0.00984*
1,1,0.01968,0.05906,-0.00984*
1,1,0.01968,-0.05906,-0.00984*
1,1,0.01968,-0.05906,0.00984*
%
%ADD15ROUNDEDRECTD15*%
G04:AMPARAMS|DCode=16|XSize=59.06mil|YSize=133.86mil|CornerRadius=7.38mil|HoleSize=0mil|Usage=FLASHONLY|Rotation=90.000|XOffset=0mil|YOffset=0mil|HoleType=Round|Shape=RoundedRectangle|*
%AMROUNDEDRECTD16*
21,1,0.05906,0.11909,0,0,90.0*
21,1,0.04429,0.13386,0,0,90.0*
1,1,0.01476,0.05955,0.02215*
1,1,0.01476,0.05955,-0.02215*
1,1,0.01476,-0.05955,-0.02215*
1,1,0.01476,-0.05955,0.02215*
%
%ADD16ROUNDEDRECTD16*%
%ADD17R,0.11417X0.05512*%
%ADD18R,0.06102X0.09252*%
%ADD19R,0.05315X0.04134*%
G04:AMPARAMS|DCode=20|XSize=53.94mil|YSize=23.23mil|CornerRadius=5.81mil|HoleSize=0mil|Usage=FLASHONLY|Rotation=180.000|XOffset=0mil|YOffset=0mil|HoleType=Round|Shape=RoundedRectangle|*
%AMROUNDEDRECTD20*
21,1,0.05394,0.01161,0,0,180.0*
21,1,0.04232,0.02323,0,0,180.0*
1,1,0.01161,-0.02116,0.00581*
1,1,0.01161,0.02116,0.00581*
1,1,0.01161,0.02116,-0.00581*
1,1,0.01161,-0.02116,-0.00581*
%
%ADD20ROUNDEDRECTD20*%
%ADD21R,0.20866X0.07874*%
%ADD34O,0.11000X0.12000*%
%ADD35R,0.11000X0.12000*%
D15*
X315438Y157746D02*
D03*
Y165620D02*
D03*
Y173494D02*
D03*
Y181368D02*
D03*
D16*
X292800Y148100D02*
D03*
Y191013D02*
D03*
D17*
X363300Y196913D02*
D03*
Y211087D02*
D03*
X323700Y197213D02*
D03*
Y211387D02*
D03*
D18*
X355500Y146799D02*
D03*
Y134201D02*
D03*
D19*
X363300Y174961D02*
D03*
Y182639D02*
D03*
X355000Y175061D02*
D03*
Y182739D02*
D03*
X346700Y182639D02*
D03*
Y174961D02*
D03*
X319500Y132661D02*
D03*
Y140339D02*
D03*
X335500D02*
D03*
Y132661D02*
D03*
D20*
X350106Y164640D02*
D03*
Y160900D02*
D03*
Y157160D02*
D03*
X340894D02*
D03*
Y160900D02*
D03*
Y164640D02*
D03*
D21*
X343100Y210590D02*
D03*
Y196810D02*
D03*
D34*
X419800Y150600D02*
D03*
X399800D02*
D03*
X439800D02*
D03*
X459800D02*
D03*
X380000Y190000D02*
D03*
X400000D02*
D03*
X440000D02*
D03*
X420000D02*
D03*
D35*
X379800Y150600D02*
D03*
X460000Y190000D02*
D03*
M02*
