G04*
G04 #@! TF.GenerationSoftware,Altium Limited,Altium Designer,23.0.1 (38)*
G04*
G04 Layer_Color=8388736*
%FSLAX25Y25*%
%MOIN*%
G70*
G04*
G04 #@! TF.SameCoordinates,EBFAA98F-4B33-4929-AD0F-5C95987F4AB2*
G04*
G04*
G04 #@! TF.FilePolarity,Negative*
G04*
G01*
G75*
G04:AMPARAMS|DCode=18|XSize=67.06mil|YSize=141.86mil|CornerRadius=11.38mil|HoleSize=0mil|Usage=FLASHONLY|Rotation=0.000|XOffset=0mil|YOffset=0mil|HoleType=Round|Shape=RoundedRectangle|*
%AMROUNDEDRECTD18*
21,1,0.06706,0.11909,0,0,0.0*
21,1,0.04429,0.14186,0,0,0.0*
1,1,0.02276,0.02215,-0.05955*
1,1,0.02276,-0.02215,-0.05955*
1,1,0.02276,-0.02215,0.05955*
1,1,0.02276,0.02215,0.05955*
%
%ADD18ROUNDEDRECTD18*%
G04:AMPARAMS|DCode=19|XSize=47.37mil|YSize=145.8mil|CornerRadius=13.84mil|HoleSize=0mil|Usage=FLASHONLY|Rotation=0.000|XOffset=0mil|YOffset=0mil|HoleType=Round|Shape=RoundedRectangle|*
%AMROUNDEDRECTD19*
21,1,0.04737,0.11811,0,0,0.0*
21,1,0.01968,0.14580,0,0,0.0*
1,1,0.02769,0.00984,-0.05906*
1,1,0.02769,-0.00984,-0.05906*
1,1,0.02769,-0.00984,0.05906*
1,1,0.02769,0.00984,0.05906*
%
%ADD19ROUNDEDRECTD19*%
%ADD20R,0.06115X0.04934*%
%ADD21O,0.05800X0.04147*%
%ADD22C,0.07887*%
%ADD23C,0.05800*%
D18*
X286500Y242000D02*
D03*
X243587D02*
D03*
D19*
X276854Y219362D02*
D03*
X268980D02*
D03*
X261106D02*
D03*
X253232D02*
D03*
D20*
X231000Y207661D02*
D03*
Y215339D02*
D03*
Y230161D02*
D03*
Y237839D02*
D03*
X302500Y208661D02*
D03*
Y216339D02*
D03*
Y230161D02*
D03*
Y237839D02*
D03*
D21*
X266500Y117000D02*
D03*
Y186000D02*
D03*
D22*
X246500Y107000D02*
D03*
X256500Y82000D02*
D03*
X246500Y176000D02*
D03*
X256500Y151000D02*
D03*
D23*
X266500Y77000D02*
D03*
Y97000D02*
D03*
Y146000D02*
D03*
Y166000D02*
D03*
M02*
