G04*
G04 #@! TF.GenerationSoftware,Altium Limited,Altium Designer,23.0.1 (38)*
G04*
G04 Layer_Physical_Order=2*
G04 Layer_Color=16711680*
%FSLAX25Y25*%
%MOIN*%
G70*
G04*
G04 #@! TF.SameCoordinates,EBFAA98F-4B33-4929-AD0F-5C95987F4AB2*
G04*
G04*
G04 #@! TF.FilePolarity,Positive*
G04*
G01*
G75*
%ADD25O,0.05000X0.03347*%
%ADD26C,0.07087*%
%ADD27C,0.05000*%
G36*
X311786Y241214D02*
Y70286D01*
X305500Y64000D01*
X305331Y64169D01*
X229804D01*
X222468Y71505D01*
X222999Y242254D01*
X228245Y247500D01*
X305500D01*
X311786Y241214D01*
D02*
G37*
%LPC*%
G36*
X267200Y191315D02*
X265800D01*
X264448Y190953D01*
X263236Y190253D01*
X262247Y189263D01*
X261547Y188051D01*
X261185Y186700D01*
Y185300D01*
X261547Y183949D01*
X262247Y182737D01*
X263236Y181747D01*
X264448Y181047D01*
X265800Y180685D01*
X267200D01*
X268551Y181047D01*
X269763Y181747D01*
X270753Y182737D01*
X271453Y183949D01*
X271815Y185300D01*
Y186700D01*
X271453Y188051D01*
X270753Y189263D01*
X269763Y190253D01*
X268551Y190953D01*
X267200Y191315D01*
D02*
G37*
G36*
X247122Y180724D02*
X247091D01*
Y176591D01*
X251224D01*
Y176622D01*
X250902Y177824D01*
X250280Y178901D01*
X249401Y179780D01*
X248323Y180402D01*
X247122Y180724D01*
D02*
G37*
G36*
X245910D02*
X245878D01*
X244676Y180402D01*
X243599Y179780D01*
X242720Y178901D01*
X242098Y177824D01*
X241776Y176622D01*
Y176591D01*
X245910D01*
Y180724D01*
D02*
G37*
G36*
X251224Y175409D02*
X247091D01*
Y171276D01*
X247122D01*
X248323Y171598D01*
X249401Y172220D01*
X250280Y173099D01*
X250902Y174176D01*
X251224Y175378D01*
Y175409D01*
D02*
G37*
G36*
X245910D02*
X241776D01*
Y175378D01*
X242098Y174176D01*
X242720Y173099D01*
X243599Y172220D01*
X244676Y171598D01*
X245878Y171276D01*
X245910D01*
Y175409D01*
D02*
G37*
G36*
X267467Y175819D02*
X265533D01*
X263636Y175442D01*
X261849Y174701D01*
X260241Y173627D01*
X258873Y172259D01*
X257799Y170651D01*
X257058Y168864D01*
X256681Y166967D01*
Y165033D01*
X257058Y163136D01*
X257799Y161349D01*
X258873Y159741D01*
X260241Y158373D01*
X261849Y157299D01*
X263636Y156558D01*
X265533Y156181D01*
X267467D01*
X269364Y156558D01*
X271151Y157299D01*
X272759Y158373D01*
X274127Y159741D01*
X275201Y161349D01*
X275942Y163136D01*
X276319Y165033D01*
Y166967D01*
X275942Y168864D01*
X275201Y170651D01*
X274127Y172259D01*
X272759Y173627D01*
X271151Y174701D01*
X269364Y175442D01*
X267467Y175819D01*
D02*
G37*
G36*
X257226Y156512D02*
X255774D01*
X254373Y156136D01*
X253116Y155411D01*
X252090Y154384D01*
X251364Y153128D01*
X250988Y151726D01*
Y150274D01*
X251364Y148872D01*
X252090Y147616D01*
X253116Y146590D01*
X254373Y145864D01*
X255774Y145488D01*
X257226D01*
X258628Y145864D01*
X259884Y146590D01*
X260911Y147616D01*
X260915Y147623D01*
X261381Y147430D01*
X261185Y146700D01*
Y145300D01*
X261547Y143948D01*
X262247Y142737D01*
X263236Y141747D01*
X264448Y141047D01*
X265800Y140685D01*
X267200D01*
X268551Y141047D01*
X269763Y141747D01*
X270753Y142737D01*
X271453Y143948D01*
X271815Y145300D01*
Y146700D01*
X271453Y148052D01*
X270753Y149263D01*
X269763Y150253D01*
X268551Y150953D01*
X267200Y151315D01*
X265800D01*
X264448Y150953D01*
X263236Y150253D01*
X262247Y149264D01*
X261803Y149494D01*
X262012Y150274D01*
Y151726D01*
X261636Y153128D01*
X260911Y154384D01*
X259884Y155411D01*
X258628Y156136D01*
X257226Y156512D01*
D02*
G37*
G36*
X267200Y122315D02*
X265800D01*
X264448Y121953D01*
X263236Y121253D01*
X262247Y120263D01*
X261547Y119052D01*
X261185Y117700D01*
Y116300D01*
X261547Y114948D01*
X262247Y113737D01*
X263236Y112747D01*
X264448Y112047D01*
X265800Y111685D01*
X267200D01*
X268551Y112047D01*
X269763Y112747D01*
X270753Y113737D01*
X271453Y114948D01*
X271815Y116300D01*
Y117700D01*
X271453Y119052D01*
X270753Y120263D01*
X269763Y121253D01*
X268551Y121953D01*
X267200Y122315D01*
D02*
G37*
G36*
X247122Y111724D02*
X247091D01*
Y107591D01*
X251224D01*
Y107622D01*
X250902Y108824D01*
X250280Y109901D01*
X249401Y110781D01*
X248323Y111402D01*
X247122Y111724D01*
D02*
G37*
G36*
X245910D02*
X245878D01*
X244676Y111402D01*
X243599Y110781D01*
X242720Y109901D01*
X242098Y108824D01*
X241776Y107622D01*
Y107591D01*
X245910D01*
Y111724D01*
D02*
G37*
G36*
X251224Y106409D02*
X247091D01*
Y102276D01*
X247122D01*
X248323Y102598D01*
X249401Y103219D01*
X250280Y104099D01*
X250902Y105176D01*
X251224Y106378D01*
Y106409D01*
D02*
G37*
G36*
X245910D02*
X241776D01*
Y106378D01*
X242098Y105176D01*
X242720Y104099D01*
X243599Y103219D01*
X244676Y102598D01*
X245878Y102276D01*
X245910D01*
Y106409D01*
D02*
G37*
G36*
X267467Y106819D02*
X265533D01*
X263636Y106442D01*
X261849Y105701D01*
X260241Y104627D01*
X258873Y103259D01*
X257799Y101651D01*
X257058Y99864D01*
X256681Y97967D01*
Y96033D01*
X257058Y94136D01*
X257799Y92349D01*
X258873Y90741D01*
X260241Y89373D01*
X261849Y88299D01*
X263636Y87558D01*
X265533Y87181D01*
X267467D01*
X269364Y87558D01*
X271151Y88299D01*
X272759Y89373D01*
X274127Y90741D01*
X275201Y92349D01*
X275942Y94136D01*
X276319Y96033D01*
Y97967D01*
X275942Y99864D01*
X275201Y101651D01*
X274127Y103259D01*
X272759Y104627D01*
X271151Y105701D01*
X269364Y106442D01*
X267467Y106819D01*
D02*
G37*
G36*
X257226Y87512D02*
X255774D01*
X254373Y87136D01*
X253116Y86410D01*
X252090Y85384D01*
X251364Y84127D01*
X250988Y82726D01*
Y81274D01*
X251364Y79873D01*
X252090Y78616D01*
X253116Y77589D01*
X254373Y76864D01*
X255774Y76488D01*
X257226D01*
X258628Y76864D01*
X259884Y77589D01*
X260911Y78616D01*
X260915Y78623D01*
X261381Y78430D01*
X261185Y77700D01*
Y76300D01*
X261547Y74949D01*
X262247Y73737D01*
X263236Y72747D01*
X264448Y72047D01*
X265800Y71685D01*
X267200D01*
X268551Y72047D01*
X269763Y72747D01*
X270753Y73737D01*
X271453Y74949D01*
X271815Y76300D01*
Y77700D01*
X271453Y79052D01*
X270753Y80264D01*
X269763Y81253D01*
X268551Y81953D01*
X267200Y82315D01*
X265800D01*
X264448Y81953D01*
X263236Y81253D01*
X262247Y80264D01*
X261803Y80494D01*
X262012Y81274D01*
Y82726D01*
X261636Y84127D01*
X260911Y85384D01*
X259884Y86410D01*
X258628Y87136D01*
X257226Y87512D01*
D02*
G37*
%LPD*%
D25*
X266500Y117000D02*
D03*
Y186000D02*
D03*
D26*
X246500Y107000D02*
D03*
X256500Y82000D02*
D03*
X246500Y176000D02*
D03*
X256500Y151000D02*
D03*
D27*
X266500Y77000D02*
D03*
Y97000D02*
D03*
Y146000D02*
D03*
Y166000D02*
D03*
M02*
