G04*
G04 #@! TF.GenerationSoftware,Altium Limited,Altium Designer,23.0.1 (38)*
G04*
G04 Layer_Physical_Order=2*
G04 Layer_Color=16711680*
%FSLAX24Y24*%
%MOIN*%
G70*
G04*
G04 #@! TF.SameCoordinates,76AA6A9F-6522-488D-AC0F-A5AD469E9F3A*
G04*
G04*
G04 #@! TF.FilePolarity,Positive*
G04*
G01*
G75*
%ADD13C,0.0100*%
G04:AMPARAMS|DCode=30|XSize=55.1mil|YSize=55.1mil|CornerRadius=13.8mil|HoleSize=0mil|Usage=FLASHONLY|Rotation=90.000|XOffset=0mil|YOffset=0mil|HoleType=Round|Shape=RoundedRectangle|*
%AMROUNDEDRECTD30*
21,1,0.0551,0.0276,0,0,90.0*
21,1,0.0276,0.0551,0,0,90.0*
1,1,0.0276,0.0138,0.0138*
1,1,0.0276,0.0138,-0.0138*
1,1,0.0276,-0.0138,-0.0138*
1,1,0.0276,-0.0138,0.0138*
%
%ADD30ROUNDEDRECTD30*%
%ADD31C,0.0551*%
%ADD32C,0.2362*%
%ADD33C,0.0200*%
G36*
X54400Y41850D02*
X54479Y41850D01*
X54635Y41829D01*
X54787Y41789D01*
X54932Y41729D01*
X55068Y41650D01*
X55193Y41554D01*
X55304Y41443D01*
X55400Y41318D01*
X55479Y41182D01*
X55539Y41037D01*
X55579Y40885D01*
X55600Y40729D01*
X55600Y40650D01*
X55600Y40650D01*
X55600Y40650D01*
Y39487D01*
X55550Y39466D01*
X55281Y39735D01*
X55270Y39763D01*
X55213Y39820D01*
X55140Y39850D01*
X55060D01*
X54987Y39820D01*
X54930Y39763D01*
X54900Y39690D01*
Y39610D01*
X54930Y39537D01*
X54987Y39480D01*
X55060Y39450D01*
X55134D01*
X55208Y39376D01*
X55179Y39334D01*
X55150Y39346D01*
Y39150D01*
X55050D01*
Y39346D01*
X54987Y39320D01*
X54930Y39263D01*
X54900Y39190D01*
Y39166D01*
X54224Y38490D01*
X39745D01*
X39701Y38568D01*
X39631Y38638D01*
X39545Y38687D01*
X39450Y38713D01*
Y38337D01*
X39400D01*
Y38287D01*
X39025D01*
X39050Y38192D01*
X39099Y38107D01*
X39169Y38037D01*
X39255Y37987D01*
X39322Y37970D01*
Y37918D01*
X39255Y37900D01*
X39169Y37851D01*
X39099Y37781D01*
X39050Y37695D01*
X39024Y37599D01*
Y37501D01*
X39050Y37405D01*
X39099Y37319D01*
X39169Y37249D01*
X39255Y37200D01*
X39322Y37182D01*
Y37130D01*
X39255Y37113D01*
X39169Y37063D01*
X39099Y36993D01*
X39050Y36908D01*
X39024Y36812D01*
Y36713D01*
X39050Y36618D01*
X39099Y36532D01*
X39169Y36462D01*
X39255Y36413D01*
X39282Y36405D01*
X39275Y36355D01*
X39262D01*
X39169Y36337D01*
X39091Y36284D01*
X39038Y36206D01*
X39020Y36113D01*
Y35837D01*
X39038Y35745D01*
X39091Y35666D01*
X39169Y35613D01*
X39262Y35595D01*
X39538D01*
X39631Y35613D01*
X39709Y35666D01*
X39762Y35745D01*
X39777Y35822D01*
X53775D01*
X53834Y35834D01*
X53883Y35867D01*
X55116Y37100D01*
X55140D01*
X55213Y37130D01*
X55270Y37187D01*
X55300Y37260D01*
Y37340D01*
X55270Y37413D01*
X55213Y37470D01*
X55140Y37500D01*
X55060D01*
X54987Y37470D01*
X54930Y37413D01*
X54900Y37340D01*
Y37316D01*
X53712Y36128D01*
X39777D01*
X39762Y36206D01*
X39709Y36284D01*
X39631Y36337D01*
X39538Y36355D01*
X39525D01*
X39518Y36405D01*
X39545Y36413D01*
X39631Y36462D01*
X39701Y36532D01*
X39745Y36610D01*
X53913D01*
X53971Y36621D01*
X54021Y36654D01*
X55116Y37750D01*
X55140D01*
X55213Y37780D01*
X55270Y37837D01*
X55300Y37910D01*
Y37990D01*
X55270Y38063D01*
X55213Y38120D01*
X55140Y38150D01*
X55060D01*
X54987Y38120D01*
X54930Y38063D01*
X54900Y37990D01*
Y37966D01*
X53849Y36916D01*
X39745D01*
X39701Y36993D01*
X39631Y37063D01*
X39545Y37113D01*
X39478Y37130D01*
Y37182D01*
X39545Y37200D01*
X39631Y37249D01*
X39701Y37319D01*
X39750Y37405D01*
X39776Y37501D01*
Y37599D01*
X39750Y37695D01*
X39701Y37781D01*
X39631Y37851D01*
X39545Y37900D01*
X39478Y37918D01*
Y37970D01*
X39545Y37987D01*
X39631Y38037D01*
X39701Y38107D01*
X39745Y38184D01*
X54287D01*
X54346Y38196D01*
X54396Y38229D01*
X55116Y38950D01*
X55140D01*
X55213Y38980D01*
X55234Y39001D01*
X55287Y38983D01*
X55290Y38957D01*
X55084Y38750D01*
X55060D01*
X54987Y38720D01*
X54930Y38663D01*
X54900Y38590D01*
Y38510D01*
X54930Y38437D01*
X54987Y38380D01*
X55060Y38350D01*
X55140D01*
X55213Y38380D01*
X55270Y38437D01*
X55300Y38510D01*
Y38534D01*
X55550Y38784D01*
X55600Y38763D01*
X55600Y33700D01*
X55600Y33602D01*
X55562Y33408D01*
X55486Y33226D01*
X55377Y33063D01*
X55237Y32923D01*
X55074Y32814D01*
X54892Y32738D01*
X54698Y32700D01*
X54600Y32700D01*
X37650D01*
X37000Y33350D01*
Y41000D01*
Y41084D01*
X37033Y41248D01*
X37097Y41403D01*
X37190Y41542D01*
X37308Y41660D01*
X37447Y41753D01*
X37602Y41817D01*
X37766Y41850D01*
X37850D01*
X37850Y41850D01*
X54400Y41850D01*
D02*
G37*
%LPC*%
G36*
X49545Y41702D02*
X49344D01*
X49145Y41670D01*
X48953Y41608D01*
X48773Y41517D01*
X48610Y41398D01*
X48467Y41255D01*
X48349Y41092D01*
X48257Y40913D01*
X48195Y40721D01*
X48163Y40522D01*
Y40320D01*
X48195Y40121D01*
X48257Y39929D01*
X48349Y39749D01*
X48467Y39586D01*
X48610Y39444D01*
X48773Y39325D01*
X48953Y39234D01*
X49145Y39171D01*
X49344Y39140D01*
X49545D01*
X49744Y39171D01*
X49936Y39234D01*
X50116Y39325D01*
X50279Y39444D01*
X50422Y39586D01*
X50540Y39749D01*
X50632Y39929D01*
X50694Y40121D01*
X50726Y40320D01*
Y40522D01*
X50694Y40721D01*
X50632Y40913D01*
X50540Y41092D01*
X50422Y41255D01*
X50279Y41398D01*
X50116Y41517D01*
X49936Y41608D01*
X49744Y41670D01*
X49545Y41702D01*
D02*
G37*
G36*
X46396D02*
X46194D01*
X45995Y41670D01*
X45803Y41608D01*
X45623Y41517D01*
X45460Y41398D01*
X45318Y41255D01*
X45199Y41092D01*
X45108Y40913D01*
X45045Y40721D01*
X45014Y40522D01*
Y40320D01*
X45045Y40121D01*
X45108Y39929D01*
X45199Y39749D01*
X45318Y39586D01*
X45460Y39444D01*
X45623Y39325D01*
X45803Y39234D01*
X45995Y39171D01*
X46194Y39140D01*
X46396D01*
X46595Y39171D01*
X46787Y39234D01*
X46966Y39325D01*
X47129Y39444D01*
X47272Y39586D01*
X47391Y39749D01*
X47482Y39929D01*
X47544Y40121D01*
X47576Y40320D01*
Y40522D01*
X47544Y40721D01*
X47482Y40913D01*
X47391Y41092D01*
X47272Y41255D01*
X47129Y41398D01*
X46966Y41517D01*
X46787Y41608D01*
X46595Y41670D01*
X46396Y41702D01*
D02*
G37*
G36*
X43246D02*
X43044D01*
X42845Y41670D01*
X42653Y41608D01*
X42474Y41517D01*
X42311Y41398D01*
X42168Y41255D01*
X42050Y41092D01*
X41958Y40913D01*
X41896Y40721D01*
X41864Y40522D01*
Y40320D01*
X41896Y40121D01*
X41958Y39929D01*
X42050Y39749D01*
X42168Y39586D01*
X42311Y39444D01*
X42474Y39325D01*
X42653Y39234D01*
X42845Y39171D01*
X43044Y39140D01*
X43246D01*
X43445Y39171D01*
X43637Y39234D01*
X43817Y39325D01*
X43980Y39444D01*
X44122Y39586D01*
X44241Y39749D01*
X44333Y39929D01*
X44395Y40121D01*
X44426Y40320D01*
Y40522D01*
X44395Y40721D01*
X44333Y40913D01*
X44241Y41092D01*
X44122Y41255D01*
X43980Y41398D01*
X43817Y41517D01*
X43637Y41608D01*
X43445Y41670D01*
X43246Y41702D01*
D02*
G37*
G36*
X39350Y38713D02*
X39255Y38687D01*
X39169Y38638D01*
X39099Y38568D01*
X39050Y38482D01*
X39025Y38387D01*
X39350D01*
Y38713D01*
D02*
G37*
G36*
X49545Y35403D02*
X49344D01*
X49145Y35371D01*
X48953Y35309D01*
X48773Y35217D01*
X48610Y35099D01*
X48467Y34956D01*
X48349Y34793D01*
X48257Y34613D01*
X48195Y34422D01*
X48163Y34222D01*
Y34021D01*
X48195Y33822D01*
X48257Y33630D01*
X48349Y33450D01*
X48467Y33287D01*
X48610Y33144D01*
X48773Y33026D01*
X48953Y32934D01*
X49145Y32872D01*
X49344Y32841D01*
X49545D01*
X49744Y32872D01*
X49936Y32934D01*
X50116Y33026D01*
X50279Y33144D01*
X50422Y33287D01*
X50540Y33450D01*
X50632Y33630D01*
X50694Y33822D01*
X50726Y34021D01*
Y34222D01*
X50694Y34422D01*
X50632Y34613D01*
X50540Y34793D01*
X50422Y34956D01*
X50279Y35099D01*
X50116Y35217D01*
X49936Y35309D01*
X49744Y35371D01*
X49545Y35403D01*
D02*
G37*
G36*
X46396D02*
X46194D01*
X45995Y35371D01*
X45803Y35309D01*
X45623Y35217D01*
X45460Y35099D01*
X45318Y34956D01*
X45199Y34793D01*
X45108Y34613D01*
X45045Y34422D01*
X45014Y34222D01*
Y34021D01*
X45045Y33822D01*
X45108Y33630D01*
X45199Y33450D01*
X45318Y33287D01*
X45460Y33144D01*
X45623Y33026D01*
X45803Y32934D01*
X45995Y32872D01*
X46194Y32841D01*
X46396D01*
X46595Y32872D01*
X46787Y32934D01*
X46966Y33026D01*
X47129Y33144D01*
X47272Y33287D01*
X47391Y33450D01*
X47482Y33630D01*
X47544Y33822D01*
X47576Y34021D01*
Y34222D01*
X47544Y34422D01*
X47482Y34613D01*
X47391Y34793D01*
X47272Y34956D01*
X47129Y35099D01*
X46966Y35217D01*
X46787Y35309D01*
X46595Y35371D01*
X46396Y35403D01*
D02*
G37*
G36*
X43246D02*
X43044D01*
X42845Y35371D01*
X42653Y35309D01*
X42474Y35217D01*
X42311Y35099D01*
X42168Y34956D01*
X42050Y34793D01*
X41958Y34613D01*
X41896Y34422D01*
X41864Y34222D01*
Y34021D01*
X41896Y33822D01*
X41958Y33630D01*
X42050Y33450D01*
X42168Y33287D01*
X42311Y33144D01*
X42474Y33026D01*
X42653Y32934D01*
X42845Y32872D01*
X43044Y32841D01*
X43246D01*
X43445Y32872D01*
X43637Y32934D01*
X43817Y33026D01*
X43980Y33144D01*
X44122Y33287D01*
X44241Y33450D01*
X44333Y33630D01*
X44395Y33822D01*
X44426Y34021D01*
Y34222D01*
X44395Y34422D01*
X44333Y34613D01*
X44241Y34793D01*
X44122Y34956D01*
X43980Y35099D01*
X43817Y35217D01*
X43637Y35309D01*
X43445Y35371D01*
X43246Y35403D01*
D02*
G37*
%LPD*%
D13*
X55100Y39650D02*
X55150D01*
X55459Y39341D01*
X39400Y35975D02*
X53775D01*
X55100Y37300D01*
X39400Y36763D02*
X53913D01*
X55100Y37950D01*
Y38550D02*
X55459Y38909D01*
Y39341D01*
X39400Y38337D02*
X54287D01*
X55100Y39150D01*
D30*
X39400Y35975D02*
D03*
D31*
Y36763D02*
D03*
Y37550D02*
D03*
Y38337D02*
D03*
D32*
X46295Y40421D02*
D03*
X49444D02*
D03*
X43145D02*
D03*
Y34122D02*
D03*
X46295D02*
D03*
X49444D02*
D03*
D33*
X55100Y39650D02*
D03*
Y37300D02*
D03*
Y37950D02*
D03*
Y38550D02*
D03*
Y39150D02*
D03*
M02*
