G04*
G04 #@! TF.GenerationSoftware,Altium Limited,Altium Designer,23.0.1 (38)*
G04*
G04 Layer_Physical_Order=1*
G04 Layer_Color=255*
%FSLAX24Y24*%
%MOIN*%
G70*
G04*
G04 #@! TF.SameCoordinates,76AA6A9F-6522-488D-AC0F-A5AD469E9F3A*
G04*
G04*
G04 #@! TF.FilePolarity,Positive*
G04*
G01*
G75*
%ADD13C,0.0100*%
%ADD14R,0.0591X0.0472*%
%ADD15R,0.0394X0.0236*%
%ADD16R,0.0118X0.0197*%
%ADD17R,0.0138X0.0197*%
%ADD18R,0.0531X0.0413*%
%ADD28C,0.0200*%
%ADD29C,0.0130*%
G04:AMPARAMS|DCode=30|XSize=55.1mil|YSize=55.1mil|CornerRadius=13.8mil|HoleSize=0mil|Usage=FLASHONLY|Rotation=90.000|XOffset=0mil|YOffset=0mil|HoleType=Round|Shape=RoundedRectangle|*
%AMROUNDEDRECTD30*
21,1,0.0551,0.0276,0,0,90.0*
21,1,0.0276,0.0551,0,0,90.0*
1,1,0.0276,0.0138,0.0138*
1,1,0.0276,0.0138,-0.0138*
1,1,0.0276,-0.0138,-0.0138*
1,1,0.0276,-0.0138,0.0138*
%
%ADD30ROUNDEDRECTD30*%
%ADD31C,0.0551*%
%ADD32C,0.2362*%
%ADD33C,0.0200*%
G36*
X54764Y41826D02*
X54957Y41767D01*
X55135Y41672D01*
X55292Y41544D01*
X55420Y41387D01*
X55515Y41209D01*
X55574Y41016D01*
X55593Y40824D01*
X55591Y40815D01*
Y38921D01*
X55541Y38914D01*
X55508Y38963D01*
X55300Y39171D01*
Y39190D01*
X55270Y39263D01*
X55213Y39320D01*
X55150Y39346D01*
Y39150D01*
X55050D01*
Y39346D01*
X54987Y39320D01*
X54970Y39303D01*
X54563D01*
X54183Y39683D01*
X54134Y39716D01*
X54075Y39728D01*
X53769D01*
Y40028D01*
X53768D01*
Y40382D01*
X54180D01*
X54900Y39662D01*
Y39610D01*
X54930Y39537D01*
X54987Y39480D01*
X55060Y39450D01*
X55140D01*
X55213Y39480D01*
X55270Y39537D01*
X55300Y39610D01*
Y39690D01*
X55270Y39763D01*
X55229Y39804D01*
X55219Y39819D01*
X55219Y39819D01*
X54369Y40669D01*
X54314Y40705D01*
X54250Y40718D01*
X53106D01*
X53106Y40718D01*
X53106Y40718D01*
X52550D01*
X52486Y40705D01*
X52431Y40669D01*
X51681Y39919D01*
X51645Y39864D01*
X51632Y39800D01*
Y37973D01*
X43495D01*
Y38141D01*
X42705D01*
Y37973D01*
X42141D01*
Y38092D01*
X42012D01*
Y39106D01*
X41999Y39171D01*
X41963Y39225D01*
X41568Y39620D01*
Y40500D01*
X41555Y40564D01*
X41519Y40619D01*
X41065Y41073D01*
X41010Y41110D01*
X40946Y41123D01*
X40895D01*
Y41291D01*
X40105D01*
Y41123D01*
X40045D01*
Y41291D01*
X39255D01*
Y40618D01*
X39255D01*
Y40582D01*
X39255D01*
Y40399D01*
X39195D01*
Y40582D01*
X39195D01*
Y40618D01*
X39195D01*
Y41291D01*
X38405D01*
Y41158D01*
X38345D01*
Y41291D01*
X37555D01*
Y41117D01*
X37382D01*
X37304Y41102D01*
X37238Y41057D01*
X37052Y40872D01*
X37004Y40894D01*
X37016Y41016D01*
X37075Y41209D01*
X37170Y41387D01*
X37298Y41544D01*
X37454Y41672D01*
X37633Y41767D01*
X37826Y41826D01*
X38017Y41845D01*
X38027Y41843D01*
X54563D01*
X54572Y41845D01*
X54764Y41826D01*
D02*
G37*
G36*
X41232Y40430D02*
Y39550D01*
X41245Y39486D01*
X41281Y39431D01*
X41675Y39037D01*
Y38092D01*
X41578D01*
Y38725D01*
X41566Y38784D01*
X41533Y38833D01*
X41408Y38958D01*
X41359Y38991D01*
X41300Y39003D01*
X39913D01*
X39854Y38991D01*
X39804Y38958D01*
X39536Y38690D01*
X39450Y38713D01*
Y38387D01*
X39775D01*
X39752Y38473D01*
X39976Y38697D01*
X41237D01*
X41272Y38662D01*
Y37718D01*
X40759D01*
Y37704D01*
X40198D01*
X40147Y37738D01*
X40069Y37754D01*
X39716D01*
X39701Y37781D01*
X39631Y37851D01*
X39545Y37900D01*
X39478Y37918D01*
Y37970D01*
X39545Y37987D01*
X39631Y38037D01*
X39701Y38107D01*
X39750Y38192D01*
X39775Y38287D01*
X39400D01*
Y38337D01*
X39350D01*
Y38713D01*
X39255Y38687D01*
X39169Y38638D01*
X39099Y38568D01*
X39067Y38512D01*
X39010Y38506D01*
X38953Y38563D01*
Y39909D01*
X39195D01*
Y40093D01*
X39255D01*
Y39909D01*
X39600D01*
Y40246D01*
X39700D01*
Y39909D01*
X40045D01*
Y40093D01*
X40105D01*
Y39909D01*
X40450D01*
Y40246D01*
X40500D01*
Y40296D01*
X40895D01*
Y40582D01*
X40895D01*
Y40618D01*
X40895D01*
Y40701D01*
X40941Y40721D01*
X41232Y40430D01*
D02*
G37*
G36*
X54392Y39042D02*
X54441Y39009D01*
X54500Y38997D01*
X54970D01*
X54987Y38980D01*
X55060Y38950D01*
X55089D01*
X55242Y38797D01*
X55237Y38751D01*
X55194Y38728D01*
X55140Y38750D01*
X55060D01*
X54987Y38720D01*
X54970Y38703D01*
X53934D01*
X53681Y38955D01*
X53701Y39002D01*
X53769D01*
Y39137D01*
X53772Y39150D01*
X53600D01*
Y39250D01*
X53769D01*
Y39398D01*
X53809Y39422D01*
X54012D01*
X54392Y39042D01*
D02*
G37*
G36*
X53762Y38442D02*
X53812Y38409D01*
X53871Y38397D01*
X54970D01*
X54987Y38380D01*
X55060Y38350D01*
X55140D01*
X55197Y38374D01*
X55247Y38349D01*
Y38151D01*
X55197Y38126D01*
X55140Y38150D01*
X55060D01*
X54987Y38120D01*
X54970Y38103D01*
X53259D01*
Y38880D01*
X53305Y38899D01*
X53762Y38442D01*
D02*
G37*
G36*
X37555Y40618D02*
X37555D01*
Y40582D01*
X37555D01*
Y40296D01*
X37950D01*
Y40246D01*
X38000D01*
Y39909D01*
X38345D01*
Y40093D01*
X38405D01*
Y39909D01*
X38647D01*
Y38500D01*
X38659Y38441D01*
X38692Y38392D01*
X38854Y38229D01*
X38904Y38196D01*
X38963Y38184D01*
X39055D01*
X39099Y38107D01*
X39169Y38037D01*
X39255Y37987D01*
X39322Y37970D01*
Y37918D01*
X39255Y37900D01*
X39169Y37851D01*
X39099Y37781D01*
X39084Y37754D01*
X37553D01*
X37300Y38007D01*
Y40543D01*
X37466Y40709D01*
X37555D01*
Y40618D01*
D02*
G37*
G36*
X54987Y37780D02*
X55060Y37750D01*
X55140D01*
X55197Y37774D01*
X55247Y37749D01*
Y37501D01*
X55197Y37476D01*
X55140Y37500D01*
X55060D01*
X54987Y37470D01*
X54930Y37413D01*
X54900Y37340D01*
Y37316D01*
X54492Y36908D01*
X54459Y36859D01*
X54447Y36800D01*
Y35713D01*
X53914Y35180D01*
X53667D01*
Y35474D01*
X53660D01*
Y37206D01*
X53649Y37265D01*
X53616Y37315D01*
X53241Y37689D01*
Y37797D01*
X54970D01*
X54987Y37780D01*
D02*
G37*
G36*
X53355Y37143D02*
Y35474D01*
X53210D01*
X52985Y35699D01*
Y37447D01*
X53031Y37466D01*
X53355Y37143D01*
D02*
G37*
G36*
X52920Y40028D02*
X52882D01*
Y39830D01*
X52832D01*
Y39780D01*
X52663D01*
Y39632D01*
X52709D01*
X52710Y39629D01*
X52743Y39579D01*
X52856Y39467D01*
X52883Y39448D01*
X52868Y39398D01*
X52663D01*
Y39002D01*
X52679D01*
Y35636D01*
X52691Y35577D01*
X52724Y35528D01*
X53033Y35218D01*
Y35077D01*
X53135D01*
X53160Y35053D01*
X53190Y35007D01*
X53228Y34969D01*
X53209Y34923D01*
X53033D01*
Y34893D01*
X52595D01*
X51968Y35520D01*
Y37800D01*
Y39730D01*
X52620Y40382D01*
X52920D01*
Y40028D01*
D02*
G37*
G36*
X55247Y37099D02*
Y35663D01*
X54461Y34877D01*
X54113D01*
X54101Y34895D01*
X54094Y34927D01*
X54708Y35542D01*
X54741Y35591D01*
X54753Y35650D01*
Y36737D01*
X55116Y37100D01*
X55140D01*
X55197Y37124D01*
X55247Y37099D01*
D02*
G37*
G36*
X37324Y37406D02*
X37391Y37362D01*
X37469Y37346D01*
X39084D01*
X39099Y37319D01*
X39169Y37249D01*
X39255Y37200D01*
X39322Y37182D01*
Y37130D01*
X39255Y37113D01*
X39169Y37063D01*
X39099Y36993D01*
X39050Y36908D01*
X39024Y36812D01*
Y36713D01*
X39050Y36618D01*
X39099Y36532D01*
X39169Y36462D01*
X39255Y36413D01*
X39282Y36405D01*
X39275Y36355D01*
X39262D01*
X39169Y36337D01*
X39091Y36284D01*
X39038Y36206D01*
X39020Y36113D01*
Y35837D01*
X39024Y35816D01*
X38442Y35233D01*
X38409Y35184D01*
X38397Y35125D01*
Y34491D01*
X38184D01*
Y33877D01*
X38916D01*
Y34491D01*
X38703D01*
Y35062D01*
X39240Y35599D01*
X39262Y35595D01*
X39538D01*
X39631Y35613D01*
X39709Y35666D01*
X39762Y35745D01*
X39780Y35837D01*
Y36113D01*
X39762Y36206D01*
X39709Y36284D01*
X39631Y36337D01*
X39538Y36355D01*
X39525D01*
X39518Y36405D01*
X39545Y36413D01*
X39631Y36462D01*
X39701Y36532D01*
X39745Y36610D01*
X40024D01*
X40547Y36087D01*
Y34613D01*
X40271Y34337D01*
X40066D01*
Y34491D01*
X39334D01*
Y33877D01*
X40066D01*
Y34031D01*
X40334D01*
X40392Y34043D01*
X40442Y34076D01*
X40808Y34442D01*
X40841Y34491D01*
X40853Y34550D01*
Y36150D01*
X40841Y36209D01*
X40808Y36258D01*
X40196Y36871D01*
X40146Y36904D01*
X40087Y36916D01*
X39745D01*
X39701Y36993D01*
X39631Y37063D01*
X39545Y37113D01*
X39478Y37130D01*
Y37182D01*
X39545Y37200D01*
X39631Y37249D01*
X39701Y37319D01*
X39716Y37346D01*
X39989D01*
X40041Y37312D01*
X40119Y37296D01*
X40119Y37296D01*
X40759D01*
Y37282D01*
X41272D01*
Y37185D01*
X41284Y37126D01*
X41317Y37076D01*
X41375Y37018D01*
X41425Y36985D01*
X41484Y36973D01*
X41547D01*
Y36908D01*
X41794D01*
Y37126D01*
Y37344D01*
X41578D01*
Y37656D01*
X41917D01*
X41928Y37649D01*
X41992Y37636D01*
X42705D01*
Y37468D01*
X42705D01*
Y37432D01*
X42705D01*
Y37279D01*
X42141D01*
Y37344D01*
X41894D01*
Y37126D01*
Y36908D01*
X42141D01*
Y36973D01*
X42705D01*
Y36759D01*
X43050D01*
Y37096D01*
X43100D01*
Y37146D01*
X43495D01*
Y37432D01*
X43495D01*
Y37468D01*
X43495D01*
Y37636D01*
X44432D01*
Y36820D01*
X44080Y36468D01*
X42600D01*
X42600Y36468D01*
X42536Y36455D01*
X42481Y36419D01*
X42481Y36419D01*
X41181Y35119D01*
X41145Y35064D01*
X41132Y35000D01*
Y33952D01*
X40764Y33584D01*
X40066D01*
Y33723D01*
X39334D01*
Y33584D01*
X38916D01*
Y33723D01*
X38184D01*
Y33109D01*
X38916D01*
Y33248D01*
X39334D01*
Y33109D01*
X40066D01*
Y33248D01*
X40834D01*
X40898Y33261D01*
X40953Y33297D01*
X41419Y33763D01*
X41455Y33818D01*
X41468Y33882D01*
Y34930D01*
X42670Y36132D01*
X44150D01*
X44214Y36145D01*
X44269Y36181D01*
X44719Y36631D01*
X44755Y36686D01*
X44768Y36750D01*
Y37636D01*
X51632D01*
Y35450D01*
X51645Y35386D01*
X51681Y35331D01*
X52407Y34605D01*
X52407Y34605D01*
X52461Y34569D01*
X52526Y34556D01*
X52526Y34556D01*
X53033D01*
Y34526D01*
X53457D01*
Y34724D01*
X53557D01*
Y34526D01*
X53667D01*
Y34571D01*
X54524D01*
X54583Y34583D01*
X54633Y34616D01*
X55508Y35492D01*
X55541Y35541D01*
X55591Y35534D01*
Y33728D01*
X55593Y33718D01*
X55574Y33527D01*
X55515Y33333D01*
X55420Y33155D01*
X55292Y32999D01*
X55135Y32871D01*
X54957Y32775D01*
X54764Y32717D01*
X54612Y32702D01*
X54563Y32700D01*
X54563Y32700D01*
X54513Y32700D01*
X38027D01*
X38017Y32698D01*
X37826Y32717D01*
X37633Y32775D01*
X37454Y32871D01*
X37298Y32999D01*
X37170Y33155D01*
X37075Y33333D01*
X37016Y33527D01*
X37001Y33679D01*
X36999Y33728D01*
X36999Y33728D01*
X36999Y33777D01*
Y37666D01*
X37045Y37685D01*
X37324Y37406D01*
D02*
G37*
%LPC*%
G36*
X49545Y41702D02*
X49344D01*
X49145Y41670D01*
X48953Y41608D01*
X48773Y41517D01*
X48610Y41398D01*
X48467Y41255D01*
X48349Y41092D01*
X48257Y40913D01*
X48195Y40721D01*
X48163Y40522D01*
Y40320D01*
X48195Y40121D01*
X48257Y39929D01*
X48349Y39749D01*
X48467Y39586D01*
X48610Y39444D01*
X48773Y39325D01*
X48953Y39234D01*
X49145Y39171D01*
X49344Y39140D01*
X49545D01*
X49744Y39171D01*
X49936Y39234D01*
X50116Y39325D01*
X50279Y39444D01*
X50422Y39586D01*
X50540Y39749D01*
X50632Y39929D01*
X50694Y40121D01*
X50726Y40320D01*
Y40522D01*
X50694Y40721D01*
X50632Y40913D01*
X50540Y41092D01*
X50422Y41255D01*
X50279Y41398D01*
X50116Y41517D01*
X49936Y41608D01*
X49744Y41670D01*
X49545Y41702D01*
D02*
G37*
G36*
X46396D02*
X46194D01*
X45995Y41670D01*
X45803Y41608D01*
X45623Y41517D01*
X45460Y41398D01*
X45318Y41255D01*
X45199Y41092D01*
X45108Y40913D01*
X45045Y40721D01*
X45014Y40522D01*
Y40320D01*
X45045Y40121D01*
X45108Y39929D01*
X45199Y39749D01*
X45318Y39586D01*
X45460Y39444D01*
X45623Y39325D01*
X45803Y39234D01*
X45995Y39171D01*
X46194Y39140D01*
X46396D01*
X46595Y39171D01*
X46787Y39234D01*
X46966Y39325D01*
X47129Y39444D01*
X47272Y39586D01*
X47391Y39749D01*
X47482Y39929D01*
X47544Y40121D01*
X47576Y40320D01*
Y40522D01*
X47544Y40721D01*
X47482Y40913D01*
X47391Y41092D01*
X47272Y41255D01*
X47129Y41398D01*
X46966Y41517D01*
X46787Y41608D01*
X46595Y41670D01*
X46396Y41702D01*
D02*
G37*
G36*
X43246D02*
X43044D01*
X42845Y41670D01*
X42653Y41608D01*
X42474Y41517D01*
X42311Y41398D01*
X42168Y41255D01*
X42050Y41092D01*
X41958Y40913D01*
X41896Y40721D01*
X41864Y40522D01*
Y40320D01*
X41896Y40121D01*
X41958Y39929D01*
X42050Y39749D01*
X42168Y39586D01*
X42311Y39444D01*
X42474Y39325D01*
X42653Y39234D01*
X42845Y39171D01*
X43044Y39140D01*
X43246D01*
X43445Y39171D01*
X43637Y39234D01*
X43817Y39325D01*
X43980Y39444D01*
X44122Y39586D01*
X44241Y39749D01*
X44333Y39929D01*
X44395Y40121D01*
X44426Y40320D01*
Y40522D01*
X44395Y40721D01*
X44333Y40913D01*
X44241Y41092D01*
X44122Y41255D01*
X43980Y41398D01*
X43817Y41517D01*
X43637Y41608D01*
X43445Y41670D01*
X43246Y41702D01*
D02*
G37*
G36*
X40895Y40196D02*
X40550D01*
Y39909D01*
X40895D01*
Y40196D01*
D02*
G37*
G36*
X37900D02*
X37555D01*
Y39909D01*
X37900D01*
Y40196D01*
D02*
G37*
G36*
X52782Y40028D02*
X52663D01*
Y39880D01*
X52782D01*
Y40028D01*
D02*
G37*
G36*
X43495Y37046D02*
X43150D01*
Y36759D01*
X43495D01*
Y37046D01*
D02*
G37*
G36*
X49545Y35403D02*
X49344D01*
X49145Y35371D01*
X48953Y35309D01*
X48773Y35217D01*
X48610Y35099D01*
X48467Y34956D01*
X48349Y34793D01*
X48257Y34613D01*
X48195Y34422D01*
X48163Y34222D01*
Y34021D01*
X48195Y33822D01*
X48257Y33630D01*
X48349Y33450D01*
X48467Y33287D01*
X48610Y33144D01*
X48773Y33026D01*
X48953Y32934D01*
X49145Y32872D01*
X49344Y32841D01*
X49545D01*
X49744Y32872D01*
X49936Y32934D01*
X50116Y33026D01*
X50279Y33144D01*
X50422Y33287D01*
X50540Y33450D01*
X50632Y33630D01*
X50694Y33822D01*
X50726Y34021D01*
Y34222D01*
X50694Y34422D01*
X50632Y34613D01*
X50540Y34793D01*
X50422Y34956D01*
X50279Y35099D01*
X50116Y35217D01*
X49936Y35309D01*
X49744Y35371D01*
X49545Y35403D01*
D02*
G37*
G36*
X46396D02*
X46194D01*
X45995Y35371D01*
X45803Y35309D01*
X45623Y35217D01*
X45460Y35099D01*
X45318Y34956D01*
X45199Y34793D01*
X45108Y34613D01*
X45045Y34422D01*
X45014Y34222D01*
Y34021D01*
X45045Y33822D01*
X45108Y33630D01*
X45199Y33450D01*
X45318Y33287D01*
X45460Y33144D01*
X45623Y33026D01*
X45803Y32934D01*
X45995Y32872D01*
X46194Y32841D01*
X46396D01*
X46595Y32872D01*
X46787Y32934D01*
X46966Y33026D01*
X47129Y33144D01*
X47272Y33287D01*
X47391Y33450D01*
X47482Y33630D01*
X47544Y33822D01*
X47576Y34021D01*
Y34222D01*
X47544Y34422D01*
X47482Y34613D01*
X47391Y34793D01*
X47272Y34956D01*
X47129Y35099D01*
X46966Y35217D01*
X46787Y35309D01*
X46595Y35371D01*
X46396Y35403D01*
D02*
G37*
G36*
X43246D02*
X43044D01*
X42845Y35371D01*
X42653Y35309D01*
X42474Y35217D01*
X42311Y35099D01*
X42168Y34956D01*
X42050Y34793D01*
X41958Y34613D01*
X41896Y34422D01*
X41864Y34222D01*
Y34021D01*
X41896Y33822D01*
X41958Y33630D01*
X42050Y33450D01*
X42168Y33287D01*
X42311Y33144D01*
X42474Y33026D01*
X42653Y32934D01*
X42845Y32872D01*
X43044Y32841D01*
X43246D01*
X43445Y32872D01*
X43637Y32934D01*
X43817Y33026D01*
X43980Y33144D01*
X44122Y33287D01*
X44241Y33450D01*
X44333Y33630D01*
X44395Y33822D01*
X44426Y34021D01*
Y34222D01*
X44395Y34422D01*
X44333Y34613D01*
X44241Y34793D01*
X44122Y34956D01*
X43980Y35099D01*
X43817Y35217D01*
X43637Y35309D01*
X43445Y35371D01*
X43246Y35403D01*
D02*
G37*
%LPD*%
D13*
X40700Y34550D02*
Y36150D01*
X40334Y34184D02*
X40700Y34550D01*
X39700Y34184D02*
X40334D01*
X40087Y36763D02*
X40700Y36150D01*
X39400Y36763D02*
X40087D01*
X38963Y38337D02*
X39400D01*
X38800Y38500D02*
X38963Y38337D01*
X38800Y38500D02*
Y40246D01*
X39650D02*
X40500D01*
X38800D02*
X39650D01*
X37950D02*
X38800D01*
X54500Y39150D02*
X55105D01*
X54075Y39575D02*
X54500Y39150D01*
X53600Y39575D02*
X54075D01*
X53350D02*
X53600D01*
Y39200D02*
Y39575D01*
X53088Y39200D02*
X53106Y39182D01*
Y37950D02*
Y39182D01*
Y37950D02*
X55100D01*
X52832Y35636D02*
Y39200D01*
Y35636D02*
X53193Y35276D01*
Y35236D02*
Y35276D01*
X53344Y39581D02*
Y39830D01*
X53977Y35027D02*
X54600Y35650D01*
Y36800D01*
X55100Y37300D01*
X53386Y35027D02*
X53977D01*
X55400Y35600D02*
Y38855D01*
X54524Y34724D02*
X55400Y35600D01*
X53507Y34724D02*
X54524D01*
X53088Y37626D02*
Y37968D01*
X53507Y35276D02*
Y37206D01*
X53088Y37626D02*
X53507Y37206D01*
X53088Y37968D02*
X53106Y37950D01*
X53363Y39058D02*
X53871Y38550D01*
X53344Y39200D02*
X53363Y39181D01*
Y39058D02*
Y39181D01*
X53600Y39170D02*
X53619Y39152D01*
X53600Y39170D02*
Y39200D01*
X52964Y39575D02*
X53350D01*
X53344Y39581D02*
X53350Y39575D01*
X52832Y39830D02*
X52851Y39811D01*
Y39687D02*
Y39811D01*
Y39687D02*
X52964Y39575D01*
X53871Y38550D02*
X55100D01*
X55105Y39150D02*
X55400Y38855D01*
X53298Y35115D02*
X53386Y35027D01*
X53298Y35115D02*
Y35130D01*
X53193Y35236D02*
X53298Y35130D01*
X38550Y35125D02*
X39400Y35975D01*
X38550Y34184D02*
Y35125D01*
X41844Y37126D02*
X43070D01*
X43100Y37096D01*
X41425Y37185D02*
Y38725D01*
X41484Y37126D02*
X41844D01*
X41425Y37185D02*
X41484Y37126D01*
X41300Y38850D02*
X41425Y38725D01*
X39913Y38850D02*
X41300D01*
X39400Y38337D02*
X39913Y38850D01*
D14*
X38800Y40246D02*
D03*
Y40954D02*
D03*
X39650Y40246D02*
D03*
Y40954D02*
D03*
X40500Y40246D02*
D03*
Y40954D02*
D03*
X37950D02*
D03*
Y40246D02*
D03*
X43100Y37804D02*
D03*
Y37096D02*
D03*
D15*
X41056Y37500D02*
D03*
X41844Y37874D02*
D03*
Y37126D02*
D03*
D16*
X53507Y34724D02*
D03*
X53193D02*
D03*
Y35276D02*
D03*
X53507D02*
D03*
D17*
X52832Y39830D02*
D03*
Y39200D02*
D03*
X53600D02*
D03*
Y39830D02*
D03*
X53088D02*
D03*
Y39200D02*
D03*
X53344Y39830D02*
D03*
Y39200D02*
D03*
D18*
X39700Y34184D02*
D03*
Y33416D02*
D03*
X38550Y34184D02*
D03*
Y33416D02*
D03*
D28*
X40119Y37500D02*
X41056D01*
X37469Y37550D02*
X40069D01*
X40119Y37500D01*
X37096Y37923D02*
X37469Y37550D01*
X37909Y40913D02*
X37950Y40954D01*
X37382Y40913D02*
X37909D01*
X37096Y37923D02*
Y40627D01*
X37382Y40913D01*
X37950Y40954D02*
X38800D01*
D29*
X52526Y34724D02*
X53193D01*
X51800Y35450D02*
Y37800D01*
Y35450D02*
X52526Y34724D01*
X51800Y37800D02*
Y39800D01*
X51796Y37804D02*
X51800Y37800D01*
Y39800D02*
X52550Y40550D01*
X44600Y37804D02*
X51796D01*
X42600Y36300D02*
X44150D01*
X41300Y35000D02*
X42600Y36300D01*
X41300Y33882D02*
Y35000D01*
X40834Y33416D02*
X41300Y33882D01*
X39700Y33416D02*
X40834D01*
X38550D02*
X39700D01*
X44150Y36300D02*
X44600Y36750D01*
Y37804D01*
X40946Y40954D02*
X41400Y40500D01*
X41844Y37874D02*
Y39106D01*
X41400Y39550D02*
Y40500D01*
Y39550D02*
X41844Y39106D01*
X40500Y40954D02*
X40946D01*
X39650D02*
X40500D01*
X55100Y39650D02*
Y39700D01*
X54250Y40550D02*
X55100Y39700D01*
X53600Y40550D02*
X54250D01*
X53106D02*
X53600D01*
Y39830D02*
Y40550D01*
X53088Y40532D02*
X53106Y40550D01*
X53088Y39830D02*
Y40532D01*
X52550Y40550D02*
X53106D01*
X41922Y37874D02*
X41992Y37804D01*
X43100D02*
X44600D01*
X41992D02*
X43100D01*
X41844Y37874D02*
X41922D01*
D30*
X39400Y35975D02*
D03*
D31*
Y36763D02*
D03*
Y37550D02*
D03*
Y38337D02*
D03*
D32*
X46295Y40421D02*
D03*
X49444D02*
D03*
X43145D02*
D03*
Y34122D02*
D03*
X46295D02*
D03*
X49444D02*
D03*
D33*
X55100Y39650D02*
D03*
Y37300D02*
D03*
Y37950D02*
D03*
Y38550D02*
D03*
Y39150D02*
D03*
M02*
