G04*
G04 #@! TF.GenerationSoftware,Altium Limited,Altium Designer,23.0.1 (38)*
G04*
G04 Layer_Color=8388736*
%FSLAX24Y24*%
%MOIN*%
G70*
G04*
G04 #@! TF.SameCoordinates,76AA6A9F-6522-488D-AC0F-A5AD469E9F3A*
G04*
G04*
G04 #@! TF.FilePolarity,Negative*
G04*
G01*
G75*
%ADD19R,0.0671X0.0552*%
%ADD20R,0.0474X0.0316*%
%ADD21R,0.0198X0.0277*%
%ADD22R,0.0218X0.0277*%
%ADD23R,0.0611X0.0493*%
G04:AMPARAMS|DCode=24|XSize=63.1mil|YSize=63.1mil|CornerRadius=17.8mil|HoleSize=0mil|Usage=FLASHONLY|Rotation=90.000|XOffset=0mil|YOffset=0mil|HoleType=Round|Shape=RoundedRectangle|*
%AMROUNDEDRECTD24*
21,1,0.0631,0.0276,0,0,90.0*
21,1,0.0276,0.0631,0,0,90.0*
1,1,0.0356,0.0138,0.0138*
1,1,0.0356,0.0138,-0.0138*
1,1,0.0356,-0.0138,-0.0138*
1,1,0.0356,-0.0138,0.0138*
%
%ADD24ROUNDEDRECTD24*%
%ADD25C,0.0631*%
%ADD26C,0.2442*%
%ADD27C,0.0280*%
D19*
X38800Y40246D02*
D03*
Y40954D02*
D03*
X39650Y40246D02*
D03*
Y40954D02*
D03*
X40500Y40246D02*
D03*
Y40954D02*
D03*
X37950D02*
D03*
Y40246D02*
D03*
X43100Y37804D02*
D03*
Y37096D02*
D03*
D20*
X41056Y37500D02*
D03*
X41844Y37874D02*
D03*
Y37126D02*
D03*
D21*
X53507Y34724D02*
D03*
X53193D02*
D03*
Y35276D02*
D03*
X53507D02*
D03*
D22*
X52832Y39830D02*
D03*
Y39200D02*
D03*
X53600D02*
D03*
Y39830D02*
D03*
X53088D02*
D03*
Y39200D02*
D03*
X53344Y39830D02*
D03*
Y39200D02*
D03*
D23*
X39700Y34184D02*
D03*
Y33416D02*
D03*
X38550Y34184D02*
D03*
Y33416D02*
D03*
D24*
X39400Y35975D02*
D03*
D25*
Y36763D02*
D03*
Y37550D02*
D03*
Y38337D02*
D03*
D26*
X46295Y40421D02*
D03*
X49444D02*
D03*
X43145D02*
D03*
Y34122D02*
D03*
X46295D02*
D03*
X49444D02*
D03*
D27*
X55100Y39650D02*
D03*
Y37300D02*
D03*
Y37950D02*
D03*
Y38550D02*
D03*
Y39150D02*
D03*
M02*
