G04*
G04 #@! TF.GenerationSoftware,Altium Limited,Altium Designer,23.0.1 (38)*
G04*
G04 Layer_Color=65535*
%FSLAX24Y24*%
%MOIN*%
G70*
G04*
G04 #@! TF.SameCoordinates,76AA6A9F-6522-488D-AC0F-A5AD469E9F3A*
G04*
G04*
G04 #@! TF.FilePolarity,Positive*
G04*
G01*
G75*
%ADD10C,0.0039*%
%ADD11C,0.0079*%
%ADD12C,0.0050*%
%ADD13C,0.0100*%
G36*
X40237Y38750D02*
X40241D01*
X40245Y38749D01*
X40249Y38749D01*
X40254Y38748D01*
X40259Y38747D01*
X40264Y38746D01*
X40276Y38743D01*
X40288Y38740D01*
X40301Y38734D01*
X40301Y38734D01*
X40302Y38734D01*
X40304Y38733D01*
X40306Y38732D01*
X40309Y38730D01*
X40312Y38728D01*
X40319Y38723D01*
X40327Y38717D01*
X40335Y38709D01*
X40342Y38700D01*
X40346Y38695D01*
X40349Y38690D01*
X40349Y38689D01*
X40350Y38688D01*
X40350Y38687D01*
X40352Y38685D01*
X40353Y38682D01*
X40354Y38678D01*
X40356Y38675D01*
X40357Y38670D01*
X40359Y38665D01*
X40360Y38660D01*
X40361Y38655D01*
X40362Y38649D01*
X40364Y38636D01*
X40365Y38629D01*
Y38617D01*
X40365Y38615D01*
Y38612D01*
X40364Y38605D01*
X40363Y38597D01*
X40361Y38589D01*
X40359Y38580D01*
X40356Y38572D01*
Y38571D01*
X40355Y38571D01*
X40355Y38569D01*
X40354Y38568D01*
X40352Y38564D01*
X40349Y38559D01*
X40346Y38553D01*
X40341Y38547D01*
X40336Y38542D01*
X40331Y38537D01*
X40330Y38536D01*
X40328Y38534D01*
X40324Y38532D01*
X40319Y38529D01*
X40313Y38526D01*
X40306Y38523D01*
X40298Y38519D01*
X40289Y38517D01*
X40281Y38548D01*
X40281D01*
X40281Y38548D01*
X40282Y38548D01*
X40284Y38549D01*
X40287Y38550D01*
X40292Y38551D01*
X40297Y38554D01*
X40302Y38556D01*
X40307Y38559D01*
X40311Y38562D01*
X40312Y38562D01*
X40313Y38564D01*
X40315Y38566D01*
X40318Y38568D01*
X40321Y38572D01*
X40323Y38576D01*
X40326Y38581D01*
X40329Y38586D01*
X40329Y38587D01*
X40330Y38589D01*
X40331Y38592D01*
X40333Y38597D01*
X40334Y38602D01*
X40335Y38608D01*
X40336Y38615D01*
X40336Y38622D01*
Y38626D01*
X40336Y38628D01*
Y38630D01*
X40335Y38635D01*
X40334Y38642D01*
X40333Y38649D01*
X40331Y38655D01*
X40329Y38662D01*
X40328Y38663D01*
X40328Y38665D01*
X40326Y38668D01*
X40324Y38672D01*
X40321Y38676D01*
X40318Y38681D01*
X40314Y38685D01*
X40310Y38689D01*
X40310Y38690D01*
X40308Y38691D01*
X40306Y38693D01*
X40303Y38695D01*
X40299Y38698D01*
X40295Y38700D01*
X40290Y38703D01*
X40285Y38706D01*
X40284D01*
X40284Y38706D01*
X40282Y38706D01*
X40281Y38707D01*
X40278Y38708D01*
X40276Y38709D01*
X40273Y38710D01*
X40269Y38710D01*
X40262Y38712D01*
X40253Y38714D01*
X40244Y38715D01*
X40233Y38715D01*
X40233D01*
X40232D01*
X40230D01*
X40228Y38715D01*
X40225D01*
X40221Y38714D01*
X40217Y38714D01*
X40213Y38714D01*
X40204Y38712D01*
X40194Y38710D01*
X40185Y38707D01*
X40175Y38704D01*
X40175D01*
X40174Y38703D01*
X40173Y38703D01*
X40172Y38702D01*
X40168Y38699D01*
X40163Y38695D01*
X40157Y38690D01*
X40151Y38684D01*
X40146Y38677D01*
X40141Y38669D01*
Y38669D01*
X40141Y38668D01*
X40140Y38667D01*
X40140Y38665D01*
X40139Y38663D01*
X40138Y38661D01*
X40136Y38655D01*
X40134Y38648D01*
X40132Y38639D01*
X40131Y38630D01*
X40130Y38621D01*
Y38618D01*
X40131Y38615D01*
Y38613D01*
X40131Y38608D01*
X40132Y38601D01*
X40134Y38594D01*
X40136Y38586D01*
X40138Y38578D01*
Y38578D01*
X40139Y38577D01*
X40139Y38576D01*
X40140Y38575D01*
X40142Y38571D01*
X40144Y38566D01*
X40147Y38561D01*
X40150Y38556D01*
X40153Y38551D01*
X40157Y38546D01*
X40205D01*
Y38622D01*
X40235D01*
Y38513D01*
X40140D01*
X40140Y38513D01*
X40139Y38514D01*
X40138Y38515D01*
X40137Y38517D01*
X40135Y38519D01*
X40133Y38522D01*
X40131Y38525D01*
X40129Y38529D01*
X40124Y38537D01*
X40119Y38545D01*
X40114Y38555D01*
X40110Y38565D01*
Y38565D01*
X40110Y38566D01*
X40109Y38567D01*
X40109Y38569D01*
X40108Y38572D01*
X40107Y38575D01*
X40106Y38578D01*
X40105Y38581D01*
X40103Y38589D01*
X40101Y38599D01*
X40100Y38609D01*
X40100Y38619D01*
Y38623D01*
X40100Y38625D01*
Y38629D01*
X40101Y38633D01*
X40101Y38637D01*
X40102Y38642D01*
X40104Y38653D01*
X40107Y38664D01*
X40111Y38676D01*
X40113Y38682D01*
X40116Y38688D01*
X40116Y38688D01*
X40117Y38689D01*
X40118Y38691D01*
X40119Y38693D01*
X40121Y38696D01*
X40123Y38698D01*
X40128Y38705D01*
X40134Y38713D01*
X40143Y38720D01*
X40152Y38728D01*
X40163Y38734D01*
X40163D01*
X40164Y38735D01*
X40165Y38736D01*
X40168Y38737D01*
X40171Y38738D01*
X40174Y38739D01*
X40178Y38741D01*
X40183Y38742D01*
X40187Y38744D01*
X40193Y38745D01*
X40198Y38746D01*
X40204Y38747D01*
X40217Y38749D01*
X40231Y38750D01*
X40231D01*
X40233D01*
X40235D01*
X40237Y38750D01*
D02*
G37*
G36*
X40360Y38428D02*
X40159Y38294D01*
X40360D01*
Y38262D01*
X40104D01*
Y38297D01*
X40305Y38431D01*
X40104D01*
Y38463D01*
X40360D01*
Y38428D01*
D02*
G37*
G36*
Y38106D02*
X40360Y38100D01*
X40360Y38092D01*
X40359Y38085D01*
X40358Y38077D01*
X40357Y38071D01*
Y38071D01*
X40356Y38070D01*
Y38069D01*
X40356Y38067D01*
X40355Y38063D01*
X40353Y38058D01*
X40350Y38052D01*
X40347Y38046D01*
X40343Y38040D01*
X40338Y38034D01*
X40338Y38033D01*
X40338Y38033D01*
X40336Y38032D01*
X40335Y38030D01*
X40332Y38027D01*
X40326Y38022D01*
X40320Y38017D01*
X40313Y38012D01*
X40304Y38007D01*
X40295Y38003D01*
X40294D01*
X40294Y38003D01*
X40292Y38002D01*
X40290Y38002D01*
X40287Y38001D01*
X40284Y38000D01*
X40281Y37999D01*
X40277Y37998D01*
X40273Y37997D01*
X40268Y37996D01*
X40258Y37994D01*
X40246Y37993D01*
X40234Y37993D01*
X40233D01*
X40232D01*
X40231D01*
X40229D01*
X40226Y37993D01*
X40223D01*
X40216Y37994D01*
X40208Y37995D01*
X40200Y37996D01*
X40191Y37998D01*
X40182Y38000D01*
X40181D01*
X40181Y38000D01*
X40180Y38001D01*
X40178Y38001D01*
X40174Y38003D01*
X40169Y38005D01*
X40163Y38007D01*
X40157Y38010D01*
X40151Y38014D01*
X40145Y38017D01*
X40144Y38018D01*
X40142Y38019D01*
X40140Y38021D01*
X40136Y38024D01*
X40133Y38028D01*
X40129Y38032D01*
X40125Y38036D01*
X40121Y38041D01*
X40121Y38041D01*
X40120Y38043D01*
X40118Y38046D01*
X40117Y38049D01*
X40114Y38054D01*
X40113Y38059D01*
X40110Y38065D01*
X40109Y38071D01*
Y38072D01*
X40108Y38073D01*
X40108Y38074D01*
X40107Y38078D01*
X40107Y38083D01*
X40106Y38089D01*
X40105Y38096D01*
X40105Y38104D01*
X40104Y38112D01*
Y38205D01*
X40360D01*
Y38106D01*
D02*
G37*
G36*
X40190Y37168D02*
X40189D01*
X40189D01*
X40188Y37168D01*
X40186D01*
X40183Y37167D01*
X40178Y37166D01*
X40173Y37164D01*
X40168Y37163D01*
X40163Y37160D01*
X40158Y37158D01*
X40157Y37157D01*
X40156Y37156D01*
X40153Y37154D01*
X40151Y37152D01*
X40147Y37148D01*
X40144Y37144D01*
X40141Y37138D01*
X40138Y37132D01*
Y37132D01*
X40137Y37132D01*
X40137Y37130D01*
X40137Y37129D01*
X40136Y37126D01*
X40134Y37121D01*
X40133Y37115D01*
X40131Y37108D01*
X40131Y37101D01*
X40130Y37093D01*
Y37089D01*
X40131Y37086D01*
X40131Y37081D01*
X40132Y37076D01*
X40133Y37070D01*
X40134Y37064D01*
X40136Y37059D01*
X40136Y37058D01*
X40137Y37056D01*
X40138Y37053D01*
X40140Y37050D01*
X40143Y37047D01*
X40145Y37043D01*
X40148Y37039D01*
X40152Y37036D01*
X40152Y37036D01*
X40154Y37035D01*
X40156Y37034D01*
X40158Y37033D01*
X40161Y37031D01*
X40165Y37030D01*
X40169Y37029D01*
X40174Y37029D01*
X40174D01*
X40176D01*
X40178Y37029D01*
X40181Y37030D01*
X40184Y37031D01*
X40188Y37032D01*
X40191Y37034D01*
X40195Y37036D01*
X40195Y37037D01*
X40196Y37038D01*
X40198Y37039D01*
X40200Y37042D01*
X40202Y37045D01*
X40205Y37049D01*
X40207Y37054D01*
X40210Y37059D01*
X40210Y37060D01*
X40210Y37062D01*
X40211Y37065D01*
X40212Y37066D01*
X40212Y37069D01*
X40214Y37072D01*
X40214Y37075D01*
X40215Y37079D01*
X40217Y37083D01*
X40218Y37088D01*
X40219Y37093D01*
X40221Y37099D01*
X40222Y37105D01*
Y37105D01*
X40222Y37106D01*
X40223Y37108D01*
X40224Y37110D01*
X40224Y37113D01*
X40225Y37117D01*
X40227Y37124D01*
X40230Y37132D01*
X40232Y37141D01*
X40235Y37148D01*
X40237Y37152D01*
X40238Y37154D01*
Y37155D01*
X40238Y37155D01*
X40240Y37157D01*
X40242Y37161D01*
X40245Y37164D01*
X40248Y37169D01*
X40252Y37173D01*
X40257Y37178D01*
X40262Y37181D01*
X40263Y37182D01*
X40265Y37183D01*
X40268Y37184D01*
X40271Y37186D01*
X40276Y37187D01*
X40282Y37189D01*
X40288Y37190D01*
X40294Y37190D01*
X40294D01*
X40295D01*
X40296D01*
X40297D01*
X40301Y37190D01*
X40306Y37189D01*
X40311Y37188D01*
X40318Y37186D01*
X40324Y37183D01*
X40330Y37180D01*
X40331D01*
X40331Y37179D01*
X40333Y37177D01*
X40336Y37175D01*
X40340Y37172D01*
X40344Y37167D01*
X40348Y37162D01*
X40352Y37155D01*
X40356Y37147D01*
Y37147D01*
X40356Y37146D01*
X40357Y37145D01*
X40358Y37144D01*
X40358Y37142D01*
X40359Y37139D01*
X40360Y37134D01*
X40362Y37127D01*
X40363Y37119D01*
X40365Y37110D01*
X40365Y37100D01*
Y37096D01*
X40365Y37093D01*
Y37090D01*
X40364Y37083D01*
X40363Y37076D01*
X40361Y37068D01*
X40359Y37059D01*
X40356Y37051D01*
Y37050D01*
X40355Y37049D01*
X40355Y37048D01*
X40354Y37047D01*
X40352Y37043D01*
X40349Y37038D01*
X40345Y37033D01*
X40340Y37027D01*
X40335Y37022D01*
X40328Y37017D01*
X40328D01*
X40328Y37017D01*
X40326Y37016D01*
X40325Y37015D01*
X40322Y37014D01*
X40317Y37011D01*
X40311Y37009D01*
X40304Y37007D01*
X40296Y37005D01*
X40288Y37004D01*
X40286Y37037D01*
X40286D01*
X40287D01*
X40288Y37037D01*
X40290Y37038D01*
X40294Y37039D01*
X40299Y37040D01*
X40305Y37042D01*
X40311Y37046D01*
X40317Y37050D01*
X40322Y37055D01*
X40322Y37056D01*
X40324Y37058D01*
X40326Y37061D01*
X40328Y37066D01*
X40331Y37072D01*
X40333Y37080D01*
X40334Y37089D01*
X40335Y37099D01*
Y37105D01*
X40334Y37107D01*
X40334Y37110D01*
X40333Y37116D01*
X40332Y37124D01*
X40330Y37131D01*
X40327Y37138D01*
X40325Y37141D01*
X40323Y37144D01*
X40323Y37145D01*
X40321Y37146D01*
X40319Y37149D01*
X40316Y37151D01*
X40312Y37153D01*
X40307Y37156D01*
X40302Y37157D01*
X40296Y37158D01*
X40295D01*
X40294D01*
X40291Y37157D01*
X40288Y37157D01*
X40285Y37156D01*
X40281Y37154D01*
X40277Y37152D01*
X40274Y37148D01*
X40273Y37148D01*
X40272Y37146D01*
X40271Y37144D01*
X40270Y37143D01*
X40269Y37141D01*
X40268Y37138D01*
X40266Y37135D01*
X40265Y37131D01*
X40264Y37127D01*
X40262Y37122D01*
X40260Y37117D01*
X40258Y37111D01*
X40257Y37105D01*
X40255Y37097D01*
Y37097D01*
X40255Y37095D01*
X40254Y37093D01*
X40254Y37090D01*
X40253Y37087D01*
X40252Y37083D01*
X40251Y37079D01*
X40249Y37075D01*
X40247Y37065D01*
X40244Y37056D01*
X40243Y37051D01*
X40241Y37047D01*
X40240Y37043D01*
X40239Y37041D01*
Y37040D01*
X40238Y37039D01*
X40238Y37038D01*
X40237Y37037D01*
X40235Y37033D01*
X40232Y37028D01*
X40228Y37022D01*
X40223Y37017D01*
X40218Y37012D01*
X40212Y37007D01*
X40212Y37007D01*
X40210Y37005D01*
X40207Y37004D01*
X40202Y37002D01*
X40197Y37000D01*
X40191Y36998D01*
X40184Y36997D01*
X40176Y36997D01*
X40176D01*
X40175D01*
X40174D01*
X40173D01*
X40169Y36997D01*
X40164Y36998D01*
X40158Y36999D01*
X40151Y37001D01*
X40145Y37004D01*
X40138Y37008D01*
X40137D01*
X40137Y37009D01*
X40135Y37011D01*
X40131Y37013D01*
X40128Y37017D01*
X40123Y37022D01*
X40118Y37028D01*
X40114Y37034D01*
X40110Y37042D01*
Y37042D01*
X40110Y37043D01*
X40109Y37044D01*
X40109Y37046D01*
X40108Y37048D01*
X40107Y37051D01*
X40105Y37056D01*
X40103Y37063D01*
X40101Y37072D01*
X40100Y37081D01*
X40100Y37091D01*
Y37097D01*
X40100Y37100D01*
Y37103D01*
X40101Y37107D01*
X40101Y37112D01*
X40103Y37121D01*
X40104Y37130D01*
X40107Y37140D01*
X40110Y37149D01*
Y37150D01*
X40110Y37150D01*
X40111Y37152D01*
X40112Y37153D01*
X40114Y37157D01*
X40117Y37163D01*
X40122Y37169D01*
X40127Y37175D01*
X40133Y37181D01*
X40140Y37186D01*
X40141D01*
X40141Y37187D01*
X40143Y37187D01*
X40144Y37189D01*
X40146Y37189D01*
X40148Y37190D01*
X40154Y37193D01*
X40161Y37196D01*
X40168Y37198D01*
X40177Y37199D01*
X40187Y37200D01*
X40190Y37168D01*
D02*
G37*
G36*
X40360Y36851D02*
X40360Y36845D01*
X40360Y36837D01*
X40359Y36830D01*
X40358Y36823D01*
X40357Y36816D01*
Y36816D01*
X40356Y36815D01*
Y36814D01*
X40356Y36813D01*
X40355Y36809D01*
X40353Y36803D01*
X40350Y36797D01*
X40347Y36791D01*
X40343Y36785D01*
X40338Y36779D01*
X40338Y36779D01*
X40338Y36778D01*
X40336Y36777D01*
X40335Y36776D01*
X40332Y36772D01*
X40326Y36767D01*
X40320Y36763D01*
X40313Y36757D01*
X40304Y36753D01*
X40295Y36749D01*
X40294D01*
X40294Y36748D01*
X40292Y36747D01*
X40290Y36747D01*
X40287Y36746D01*
X40284Y36745D01*
X40281Y36745D01*
X40277Y36743D01*
X40273Y36742D01*
X40268Y36742D01*
X40258Y36740D01*
X40246Y36739D01*
X40234Y36738D01*
X40233D01*
X40232D01*
X40231D01*
X40229D01*
X40226Y36739D01*
X40223D01*
X40216Y36739D01*
X40208Y36740D01*
X40200Y36741D01*
X40191Y36743D01*
X40182Y36745D01*
X40181D01*
X40181Y36746D01*
X40180Y36746D01*
X40178Y36746D01*
X40174Y36748D01*
X40169Y36750D01*
X40163Y36752D01*
X40157Y36755D01*
X40151Y36759D01*
X40145Y36763D01*
X40144Y36763D01*
X40142Y36765D01*
X40140Y36767D01*
X40136Y36770D01*
X40133Y36773D01*
X40129Y36777D01*
X40125Y36781D01*
X40121Y36786D01*
X40121Y36787D01*
X40120Y36788D01*
X40118Y36791D01*
X40117Y36794D01*
X40114Y36799D01*
X40113Y36804D01*
X40110Y36810D01*
X40109Y36817D01*
Y36817D01*
X40108Y36819D01*
X40108Y36820D01*
X40107Y36823D01*
X40107Y36829D01*
X40106Y36834D01*
X40105Y36841D01*
X40105Y36849D01*
X40104Y36858D01*
Y36950D01*
X40360D01*
Y36851D01*
D02*
G37*
G36*
Y36622D02*
Y36585D01*
X40104Y36480D01*
Y36519D01*
X40182Y36549D01*
Y36656D01*
X40104Y36684D01*
Y36720D01*
X40360Y36622D01*
D02*
G37*
G36*
X40174Y37717D02*
X40174D01*
X40173D01*
X40172Y37717D01*
X40170Y37716D01*
X40166Y37715D01*
X40160Y37714D01*
X40155Y37712D01*
X40148Y37709D01*
X40143Y37705D01*
X40138Y37700D01*
X40137Y37700D01*
X40136Y37698D01*
X40134Y37695D01*
X40132Y37691D01*
X40130Y37687D01*
X40128Y37681D01*
X40126Y37675D01*
X40126Y37668D01*
Y37666D01*
X40126Y37664D01*
X40127Y37660D01*
X40128Y37655D01*
X40130Y37648D01*
X40133Y37642D01*
X40137Y37635D01*
X40140Y37632D01*
X40143Y37629D01*
X40143Y37629D01*
X40144Y37629D01*
X40145Y37628D01*
X40146Y37627D01*
X40150Y37624D01*
X40155Y37621D01*
X40161Y37619D01*
X40169Y37616D01*
X40178Y37614D01*
X40183Y37613D01*
X40188D01*
X40189D01*
X40190D01*
X40191D01*
X40193Y37614D01*
X40195D01*
X40198Y37614D01*
X40204Y37615D01*
X40211Y37617D01*
X40218Y37620D01*
X40224Y37623D01*
X40231Y37629D01*
X40231D01*
X40231Y37629D01*
X40233Y37631D01*
X40236Y37635D01*
X40239Y37639D01*
X40241Y37645D01*
X40244Y37652D01*
X40246Y37659D01*
X40247Y37664D01*
Y37671D01*
X40246Y37674D01*
X40246Y37677D01*
X40245Y37682D01*
X40244Y37686D01*
X40242Y37691D01*
X40239Y37696D01*
X40239Y37696D01*
X40238Y37698D01*
X40237Y37700D01*
X40235Y37703D01*
X40232Y37706D01*
X40229Y37709D01*
X40225Y37712D01*
X40221Y37715D01*
X40225Y37744D01*
X40357Y37720D01*
Y37592D01*
X40327D01*
Y37695D01*
X40258Y37709D01*
X40258Y37708D01*
X40259Y37707D01*
X40259Y37706D01*
X40261Y37704D01*
X40262Y37702D01*
X40263Y37700D01*
X40266Y37694D01*
X40269Y37686D01*
X40272Y37678D01*
X40274Y37669D01*
X40274Y37665D01*
Y37657D01*
X40274Y37655D01*
X40274Y37652D01*
X40273Y37648D01*
X40272Y37645D01*
X40271Y37640D01*
X40269Y37632D01*
X40267Y37627D01*
X40264Y37622D01*
X40262Y37617D01*
X40259Y37612D01*
X40255Y37608D01*
X40251Y37603D01*
X40251Y37603D01*
X40250Y37602D01*
X40249Y37601D01*
X40247Y37600D01*
X40244Y37598D01*
X40242Y37596D01*
X40238Y37594D01*
X40235Y37592D01*
X40231Y37590D01*
X40226Y37588D01*
X40221Y37586D01*
X40216Y37584D01*
X40210Y37582D01*
X40204Y37581D01*
X40198Y37581D01*
X40191Y37580D01*
X40191D01*
X40190D01*
X40188D01*
X40185Y37581D01*
X40182Y37581D01*
X40179Y37581D01*
X40175Y37582D01*
X40171Y37583D01*
X40161Y37585D01*
X40151Y37589D01*
X40146Y37591D01*
X40141Y37594D01*
X40136Y37597D01*
X40131Y37601D01*
X40131Y37601D01*
X40130Y37602D01*
X40128Y37603D01*
X40126Y37605D01*
X40124Y37608D01*
X40121Y37611D01*
X40118Y37614D01*
X40116Y37618D01*
X40113Y37623D01*
X40110Y37628D01*
X40107Y37633D01*
X40105Y37639D01*
X40103Y37646D01*
X40101Y37653D01*
X40100Y37660D01*
X40100Y37668D01*
Y37671D01*
X40100Y37674D01*
X40101Y37677D01*
X40101Y37680D01*
X40101Y37684D01*
X40103Y37688D01*
X40105Y37697D01*
X40108Y37707D01*
X40110Y37712D01*
X40113Y37716D01*
X40116Y37721D01*
X40119Y37725D01*
X40120Y37726D01*
X40120Y37726D01*
X40121Y37727D01*
X40123Y37729D01*
X40125Y37730D01*
X40127Y37732D01*
X40130Y37734D01*
X40133Y37736D01*
X40137Y37739D01*
X40141Y37741D01*
X40150Y37745D01*
X40160Y37748D01*
X40165Y37749D01*
X40171Y37750D01*
X40174Y37717D01*
D02*
G37*
G36*
X40360Y37528D02*
X40174Y37461D01*
X40174D01*
X40173Y37461D01*
X40172Y37460D01*
X40171Y37460D01*
X40168Y37459D01*
X40166Y37458D01*
X40161Y37457D01*
X40154Y37454D01*
X40147Y37452D01*
X40133Y37448D01*
X40133D01*
X40134Y37447D01*
X40135Y37447D01*
X40136Y37447D01*
X40140Y37445D01*
X40146Y37444D01*
X40152Y37442D01*
X40159Y37440D01*
X40167Y37437D01*
X40174Y37434D01*
X40360Y37364D01*
Y37330D01*
X40104Y37430D01*
Y37465D01*
X40360Y37565D01*
Y37528D01*
D02*
G37*
G36*
X40190Y36218D02*
X40189D01*
X40189D01*
X40188Y36218D01*
X40186D01*
X40183Y36217D01*
X40178Y36216D01*
X40173Y36214D01*
X40168Y36213D01*
X40163Y36210D01*
X40158Y36208D01*
X40157Y36207D01*
X40156Y36206D01*
X40153Y36204D01*
X40151Y36202D01*
X40147Y36198D01*
X40144Y36194D01*
X40141Y36188D01*
X40138Y36182D01*
Y36182D01*
X40137Y36182D01*
X40137Y36180D01*
X40137Y36179D01*
X40136Y36176D01*
X40134Y36171D01*
X40133Y36165D01*
X40131Y36158D01*
X40131Y36151D01*
X40130Y36143D01*
Y36139D01*
X40131Y36136D01*
X40131Y36131D01*
X40132Y36126D01*
X40133Y36120D01*
X40134Y36114D01*
X40136Y36109D01*
X40136Y36108D01*
X40137Y36106D01*
X40138Y36103D01*
X40140Y36100D01*
X40143Y36097D01*
X40145Y36093D01*
X40148Y36089D01*
X40152Y36086D01*
X40152Y36086D01*
X40154Y36085D01*
X40156Y36084D01*
X40158Y36083D01*
X40161Y36081D01*
X40165Y36080D01*
X40169Y36079D01*
X40174Y36079D01*
X40174D01*
X40176D01*
X40178Y36079D01*
X40181Y36080D01*
X40184Y36081D01*
X40188Y36082D01*
X40191Y36084D01*
X40195Y36086D01*
X40195Y36087D01*
X40196Y36088D01*
X40198Y36089D01*
X40200Y36092D01*
X40202Y36095D01*
X40205Y36099D01*
X40207Y36104D01*
X40210Y36109D01*
X40210Y36110D01*
X40210Y36112D01*
X40211Y36115D01*
X40212Y36116D01*
X40212Y36119D01*
X40214Y36122D01*
X40214Y36125D01*
X40215Y36129D01*
X40217Y36133D01*
X40218Y36138D01*
X40219Y36143D01*
X40221Y36149D01*
X40222Y36155D01*
Y36155D01*
X40222Y36156D01*
X40223Y36158D01*
X40224Y36160D01*
X40224Y36163D01*
X40225Y36167D01*
X40227Y36174D01*
X40230Y36182D01*
X40232Y36191D01*
X40235Y36198D01*
X40237Y36202D01*
X40238Y36204D01*
Y36205D01*
X40238Y36205D01*
X40240Y36207D01*
X40242Y36211D01*
X40245Y36214D01*
X40248Y36219D01*
X40252Y36223D01*
X40257Y36228D01*
X40262Y36232D01*
X40263Y36232D01*
X40265Y36233D01*
X40268Y36234D01*
X40271Y36236D01*
X40276Y36237D01*
X40282Y36239D01*
X40288Y36240D01*
X40294Y36240D01*
X40294D01*
X40295D01*
X40296D01*
X40297D01*
X40301Y36240D01*
X40306Y36239D01*
X40311Y36238D01*
X40318Y36236D01*
X40324Y36233D01*
X40330Y36230D01*
X40331D01*
X40331Y36229D01*
X40333Y36227D01*
X40336Y36225D01*
X40340Y36222D01*
X40344Y36217D01*
X40348Y36212D01*
X40352Y36205D01*
X40356Y36197D01*
Y36197D01*
X40356Y36196D01*
X40357Y36195D01*
X40358Y36194D01*
X40358Y36192D01*
X40359Y36189D01*
X40360Y36184D01*
X40362Y36177D01*
X40363Y36169D01*
X40365Y36160D01*
X40365Y36150D01*
Y36146D01*
X40365Y36143D01*
Y36140D01*
X40364Y36133D01*
X40363Y36126D01*
X40361Y36118D01*
X40359Y36109D01*
X40356Y36101D01*
Y36100D01*
X40355Y36099D01*
X40355Y36098D01*
X40354Y36097D01*
X40352Y36093D01*
X40349Y36088D01*
X40345Y36083D01*
X40340Y36077D01*
X40335Y36072D01*
X40328Y36067D01*
X40328D01*
X40328Y36067D01*
X40326Y36066D01*
X40325Y36065D01*
X40322Y36064D01*
X40317Y36061D01*
X40311Y36059D01*
X40304Y36057D01*
X40296Y36055D01*
X40288Y36054D01*
X40286Y36087D01*
X40286D01*
X40287D01*
X40288Y36087D01*
X40290Y36088D01*
X40294Y36089D01*
X40299Y36090D01*
X40305Y36092D01*
X40311Y36096D01*
X40317Y36100D01*
X40322Y36105D01*
X40322Y36106D01*
X40324Y36108D01*
X40326Y36111D01*
X40328Y36116D01*
X40331Y36122D01*
X40333Y36130D01*
X40334Y36139D01*
X40335Y36149D01*
Y36155D01*
X40334Y36157D01*
X40334Y36160D01*
X40333Y36166D01*
X40332Y36174D01*
X40330Y36181D01*
X40327Y36188D01*
X40325Y36191D01*
X40323Y36194D01*
X40323Y36195D01*
X40321Y36196D01*
X40319Y36199D01*
X40316Y36201D01*
X40312Y36203D01*
X40307Y36206D01*
X40302Y36207D01*
X40296Y36208D01*
X40295D01*
X40294D01*
X40291Y36207D01*
X40288Y36207D01*
X40285Y36206D01*
X40281Y36204D01*
X40277Y36202D01*
X40274Y36198D01*
X40273Y36198D01*
X40272Y36196D01*
X40271Y36195D01*
X40270Y36193D01*
X40269Y36191D01*
X40268Y36188D01*
X40266Y36185D01*
X40265Y36181D01*
X40264Y36177D01*
X40262Y36172D01*
X40260Y36167D01*
X40258Y36161D01*
X40257Y36155D01*
X40255Y36147D01*
Y36147D01*
X40255Y36145D01*
X40254Y36143D01*
X40254Y36140D01*
X40253Y36137D01*
X40252Y36133D01*
X40251Y36129D01*
X40249Y36125D01*
X40247Y36115D01*
X40244Y36106D01*
X40243Y36101D01*
X40241Y36097D01*
X40240Y36093D01*
X40239Y36091D01*
Y36090D01*
X40238Y36089D01*
X40238Y36088D01*
X40237Y36087D01*
X40235Y36083D01*
X40232Y36078D01*
X40228Y36072D01*
X40223Y36067D01*
X40218Y36062D01*
X40212Y36057D01*
X40212Y36057D01*
X40210Y36055D01*
X40207Y36054D01*
X40202Y36052D01*
X40197Y36050D01*
X40191Y36048D01*
X40184Y36047D01*
X40176Y36047D01*
X40176D01*
X40175D01*
X40174D01*
X40173D01*
X40169Y36047D01*
X40164Y36048D01*
X40158Y36049D01*
X40151Y36051D01*
X40145Y36054D01*
X40138Y36058D01*
X40137D01*
X40137Y36059D01*
X40135Y36061D01*
X40131Y36063D01*
X40128Y36067D01*
X40123Y36072D01*
X40118Y36078D01*
X40114Y36084D01*
X40110Y36092D01*
Y36092D01*
X40110Y36093D01*
X40109Y36094D01*
X40109Y36096D01*
X40108Y36098D01*
X40107Y36101D01*
X40105Y36106D01*
X40103Y36113D01*
X40101Y36122D01*
X40100Y36131D01*
X40100Y36141D01*
Y36147D01*
X40100Y36150D01*
Y36153D01*
X40101Y36157D01*
X40101Y36162D01*
X40103Y36171D01*
X40104Y36180D01*
X40107Y36190D01*
X40110Y36199D01*
Y36200D01*
X40110Y36200D01*
X40111Y36202D01*
X40112Y36203D01*
X40114Y36207D01*
X40117Y36213D01*
X40122Y36219D01*
X40127Y36225D01*
X40133Y36231D01*
X40140Y36236D01*
X40141D01*
X40141Y36237D01*
X40143Y36237D01*
X40144Y36239D01*
X40146Y36239D01*
X40148Y36240D01*
X40154Y36243D01*
X40161Y36246D01*
X40168Y36248D01*
X40177Y36249D01*
X40187Y36250D01*
X40190Y36218D01*
D02*
G37*
G36*
X40241Y36010D02*
X40245D01*
X40248Y36009D01*
X40253Y36009D01*
X40258Y36008D01*
X40269Y36006D01*
X40281Y36004D01*
X40292Y36000D01*
X40304Y35995D01*
X40304Y35994D01*
X40305Y35994D01*
X40307Y35993D01*
X40309Y35992D01*
X40311Y35990D01*
X40314Y35988D01*
X40321Y35984D01*
X40328Y35977D01*
X40336Y35970D01*
X40343Y35961D01*
X40349Y35951D01*
X40350Y35951D01*
X40350Y35950D01*
X40351Y35948D01*
X40352Y35947D01*
X40353Y35944D01*
X40354Y35941D01*
X40356Y35937D01*
X40357Y35933D01*
X40359Y35928D01*
X40360Y35924D01*
X40362Y35913D01*
X40364Y35901D01*
X40365Y35889D01*
Y35886D01*
X40365Y35883D01*
X40364Y35880D01*
X40364Y35876D01*
X40363Y35871D01*
X40362Y35867D01*
X40360Y35857D01*
X40357Y35846D01*
X40355Y35840D01*
X40352Y35835D01*
X40349Y35830D01*
X40345Y35824D01*
X40345Y35824D01*
X40345Y35823D01*
X40343Y35822D01*
X40342Y35820D01*
X40340Y35818D01*
X40337Y35816D01*
X40334Y35813D01*
X40331Y35810D01*
X40328Y35807D01*
X40323Y35804D01*
X40319Y35801D01*
X40314Y35798D01*
X40308Y35795D01*
X40303Y35792D01*
X40297Y35790D01*
X40290Y35788D01*
X40282Y35821D01*
X40283D01*
X40284Y35822D01*
X40285Y35822D01*
X40287Y35823D01*
X40289Y35824D01*
X40292Y35825D01*
X40298Y35828D01*
X40305Y35832D01*
X40311Y35836D01*
X40318Y35842D01*
X40323Y35847D01*
X40324Y35848D01*
X40325Y35850D01*
X40327Y35854D01*
X40330Y35859D01*
X40332Y35865D01*
X40334Y35872D01*
X40336Y35881D01*
X40336Y35890D01*
Y35893D01*
X40336Y35895D01*
Y35897D01*
X40335Y35900D01*
X40334Y35907D01*
X40333Y35915D01*
X40330Y35923D01*
X40326Y35932D01*
X40322Y35940D01*
Y35940D01*
X40321Y35940D01*
X40319Y35943D01*
X40316Y35946D01*
X40312Y35950D01*
X40306Y35955D01*
X40300Y35960D01*
X40292Y35964D01*
X40284Y35967D01*
X40283D01*
X40282Y35968D01*
X40281Y35968D01*
X40279Y35968D01*
X40277Y35969D01*
X40275Y35970D01*
X40268Y35971D01*
X40261Y35972D01*
X40253Y35974D01*
X40244Y35975D01*
X40234Y35975D01*
X40234D01*
X40233D01*
X40231D01*
X40229D01*
X40226Y35975D01*
X40223D01*
X40219Y35974D01*
X40215Y35974D01*
X40206Y35973D01*
X40197Y35971D01*
X40187Y35969D01*
X40177Y35966D01*
X40177D01*
X40176Y35965D01*
X40175Y35965D01*
X40173Y35964D01*
X40169Y35962D01*
X40164Y35958D01*
X40158Y35954D01*
X40151Y35949D01*
X40146Y35943D01*
X40141Y35936D01*
Y35936D01*
X40140Y35935D01*
X40140Y35934D01*
X40139Y35933D01*
X40138Y35931D01*
X40137Y35928D01*
X40135Y35923D01*
X40133Y35917D01*
X40131Y35909D01*
X40129Y35901D01*
X40129Y35893D01*
Y35890D01*
X40129Y35888D01*
Y35885D01*
X40130Y35883D01*
X40131Y35876D01*
X40133Y35868D01*
X40136Y35860D01*
X40140Y35852D01*
X40142Y35848D01*
X40145Y35844D01*
X40146Y35844D01*
X40146Y35844D01*
X40147Y35843D01*
X40148Y35841D01*
X40150Y35840D01*
X40152Y35838D01*
X40154Y35836D01*
X40157Y35834D01*
X40161Y35832D01*
X40164Y35829D01*
X40168Y35827D01*
X40173Y35824D01*
X40177Y35823D01*
X40183Y35821D01*
X40188Y35819D01*
X40194Y35817D01*
X40185Y35783D01*
X40185D01*
X40184Y35784D01*
X40181Y35785D01*
X40178Y35786D01*
X40175Y35787D01*
X40171Y35788D01*
X40167Y35790D01*
X40162Y35792D01*
X40151Y35797D01*
X40141Y35804D01*
X40136Y35808D01*
X40131Y35812D01*
X40126Y35817D01*
X40122Y35822D01*
X40121Y35822D01*
X40121Y35823D01*
X40120Y35825D01*
X40118Y35827D01*
X40117Y35830D01*
X40115Y35833D01*
X40113Y35837D01*
X40111Y35841D01*
X40109Y35846D01*
X40107Y35851D01*
X40105Y35856D01*
X40103Y35862D01*
X40102Y35869D01*
X40101Y35875D01*
X40100Y35882D01*
X40100Y35890D01*
Y35894D01*
X40100Y35897D01*
Y35900D01*
X40101Y35904D01*
X40101Y35908D01*
X40102Y35914D01*
X40104Y35924D01*
X40107Y35935D01*
X40111Y35947D01*
X40114Y35952D01*
X40117Y35957D01*
X40117Y35957D01*
X40117Y35958D01*
X40118Y35960D01*
X40120Y35961D01*
X40121Y35963D01*
X40124Y35966D01*
X40126Y35969D01*
X40129Y35972D01*
X40133Y35975D01*
X40136Y35978D01*
X40144Y35985D01*
X40154Y35991D01*
X40165Y35997D01*
X40166D01*
X40167Y35997D01*
X40169Y35998D01*
X40171Y35999D01*
X40174Y36000D01*
X40178Y36001D01*
X40182Y36002D01*
X40186Y36003D01*
X40191Y36004D01*
X40197Y36006D01*
X40208Y36008D01*
X40221Y36009D01*
X40234Y36010D01*
X40235D01*
X40236D01*
X40238D01*
X40241Y36010D01*
D02*
G37*
G36*
X40360Y35709D02*
X40135D01*
Y35583D01*
X40104D01*
Y35743D01*
X40360D01*
Y35709D01*
D02*
G37*
G36*
X39523Y41848D02*
X39528Y41848D01*
X39534Y41847D01*
X39540Y41846D01*
X39547Y41845D01*
X39562Y41841D01*
X39579Y41836D01*
X39587Y41833D01*
X39595Y41829D01*
X39603Y41824D01*
X39611Y41819D01*
X39611Y41819D01*
X39612Y41818D01*
X39614Y41817D01*
X39617Y41814D01*
X39620Y41811D01*
X39624Y41807D01*
X39628Y41803D01*
X39632Y41798D01*
X39637Y41793D01*
X39641Y41786D01*
X39646Y41779D01*
X39651Y41772D01*
X39654Y41764D01*
X39659Y41755D01*
X39662Y41747D01*
X39666Y41737D01*
X39616Y41725D01*
Y41725D01*
X39615Y41727D01*
X39614Y41729D01*
X39613Y41732D01*
X39612Y41735D01*
X39610Y41739D01*
X39606Y41748D01*
X39600Y41758D01*
X39593Y41768D01*
X39585Y41778D01*
X39576Y41786D01*
X39575Y41787D01*
X39572Y41789D01*
X39566Y41792D01*
X39559Y41796D01*
X39550Y41799D01*
X39539Y41803D01*
X39526Y41805D01*
X39512Y41805D01*
X39508D01*
X39505Y41805D01*
X39501D01*
X39497Y41804D01*
X39486Y41803D01*
X39475Y41800D01*
X39462Y41797D01*
X39450Y41791D01*
X39438Y41784D01*
X39437D01*
X39437Y41783D01*
X39433Y41780D01*
X39428Y41775D01*
X39422Y41769D01*
X39415Y41760D01*
X39408Y41751D01*
X39402Y41739D01*
X39396Y41727D01*
Y41726D01*
X39396Y41725D01*
X39395Y41723D01*
X39395Y41720D01*
X39394Y41717D01*
X39392Y41713D01*
X39391Y41704D01*
X39389Y41693D01*
X39386Y41681D01*
X39385Y41667D01*
X39385Y41653D01*
Y41652D01*
Y41651D01*
Y41648D01*
Y41644D01*
X39385Y41641D01*
Y41636D01*
X39386Y41630D01*
X39386Y41624D01*
X39388Y41611D01*
X39391Y41596D01*
X39394Y41582D01*
X39399Y41567D01*
Y41567D01*
X39399Y41566D01*
X39400Y41564D01*
X39401Y41561D01*
X39405Y41555D01*
X39410Y41547D01*
X39416Y41538D01*
X39424Y41528D01*
X39432Y41520D01*
X39443Y41512D01*
X39444D01*
X39445Y41512D01*
X39446Y41511D01*
X39449Y41510D01*
X39451Y41508D01*
X39455Y41507D01*
X39462Y41503D01*
X39472Y41500D01*
X39483Y41497D01*
X39496Y41495D01*
X39508Y41495D01*
X39512D01*
X39516Y41495D01*
X39520D01*
X39523Y41496D01*
X39533Y41498D01*
X39545Y41501D01*
X39557Y41505D01*
X39569Y41511D01*
X39575Y41515D01*
X39581Y41519D01*
X39581Y41520D01*
X39582Y41520D01*
X39583Y41522D01*
X39586Y41523D01*
X39588Y41526D01*
X39591Y41530D01*
X39594Y41533D01*
X39597Y41537D01*
X39600Y41542D01*
X39604Y41548D01*
X39607Y41553D01*
X39611Y41560D01*
X39613Y41567D01*
X39616Y41575D01*
X39619Y41583D01*
X39621Y41592D01*
X39672Y41580D01*
Y41579D01*
X39672Y41577D01*
X39671Y41573D01*
X39669Y41569D01*
X39667Y41564D01*
X39665Y41558D01*
X39662Y41551D01*
X39659Y41544D01*
X39651Y41528D01*
X39641Y41513D01*
X39635Y41505D01*
X39629Y41497D01*
X39622Y41491D01*
X39614Y41484D01*
X39614Y41483D01*
X39613Y41482D01*
X39610Y41481D01*
X39607Y41479D01*
X39603Y41476D01*
X39598Y41474D01*
X39592Y41471D01*
X39586Y41468D01*
X39579Y41465D01*
X39571Y41462D01*
X39563Y41459D01*
X39554Y41456D01*
X39545Y41454D01*
X39535Y41453D01*
X39524Y41452D01*
X39513Y41451D01*
X39507D01*
X39502Y41452D01*
X39497D01*
X39491Y41452D01*
X39485Y41454D01*
X39477Y41455D01*
X39461Y41457D01*
X39444Y41462D01*
X39427Y41468D01*
X39420Y41472D01*
X39412Y41476D01*
X39411Y41477D01*
X39410Y41477D01*
X39408Y41479D01*
X39406Y41481D01*
X39402Y41483D01*
X39399Y41487D01*
X39394Y41491D01*
X39390Y41495D01*
X39385Y41500D01*
X39380Y41505D01*
X39370Y41518D01*
X39361Y41533D01*
X39353Y41550D01*
Y41550D01*
X39351Y41552D01*
X39351Y41555D01*
X39349Y41558D01*
X39348Y41562D01*
X39346Y41568D01*
X39344Y41574D01*
X39343Y41581D01*
X39341Y41588D01*
X39339Y41596D01*
X39336Y41613D01*
X39334Y41633D01*
X39333Y41653D01*
Y41653D01*
Y41656D01*
Y41659D01*
X39333Y41663D01*
Y41668D01*
X39334Y41674D01*
X39334Y41681D01*
X39335Y41688D01*
X39338Y41704D01*
X39342Y41722D01*
X39348Y41740D01*
X39355Y41757D01*
X39356Y41758D01*
X39356Y41759D01*
X39358Y41762D01*
X39360Y41764D01*
X39362Y41768D01*
X39365Y41773D01*
X39372Y41783D01*
X39381Y41794D01*
X39392Y41805D01*
X39405Y41816D01*
X39420Y41825D01*
X39421Y41826D01*
X39422Y41826D01*
X39425Y41828D01*
X39427Y41829D01*
X39432Y41831D01*
X39436Y41833D01*
X39442Y41835D01*
X39448Y41837D01*
X39455Y41839D01*
X39462Y41841D01*
X39477Y41845D01*
X39495Y41848D01*
X39513Y41849D01*
X39519D01*
X39523Y41848D01*
D02*
G37*
G36*
X39848Y41843D02*
X39855Y41842D01*
X39864Y41840D01*
X39874Y41838D01*
X39884Y41834D01*
X39894Y41830D01*
X39894D01*
X39895Y41829D01*
X39898Y41828D01*
X39903Y41824D01*
X39909Y41820D01*
X39915Y41815D01*
X39922Y41809D01*
X39929Y41802D01*
X39934Y41793D01*
X39935Y41792D01*
X39936Y41789D01*
X39939Y41784D01*
X39941Y41778D01*
X39944Y41771D01*
X39946Y41763D01*
X39948Y41753D01*
X39949Y41744D01*
Y41743D01*
Y41739D01*
X39948Y41735D01*
X39947Y41729D01*
X39945Y41722D01*
X39942Y41714D01*
X39939Y41706D01*
X39935Y41698D01*
X39934Y41697D01*
X39932Y41695D01*
X39929Y41691D01*
X39925Y41687D01*
X39919Y41682D01*
X39913Y41676D01*
X39905Y41671D01*
X39895Y41666D01*
X39896D01*
X39897Y41666D01*
X39899Y41665D01*
X39901Y41664D01*
X39907Y41662D01*
X39915Y41659D01*
X39924Y41654D01*
X39932Y41649D01*
X39941Y41642D01*
X39949Y41633D01*
X39949Y41632D01*
X39951Y41629D01*
X39955Y41623D01*
X39958Y41616D01*
X39961Y41607D01*
X39965Y41597D01*
X39967Y41585D01*
X39967Y41571D01*
Y41571D01*
Y41569D01*
Y41566D01*
X39967Y41563D01*
X39966Y41558D01*
X39965Y41553D01*
X39964Y41548D01*
X39963Y41542D01*
X39959Y41528D01*
X39955Y41521D01*
X39952Y41515D01*
X39947Y41507D01*
X39942Y41500D01*
X39937Y41493D01*
X39930Y41486D01*
X39930Y41486D01*
X39929Y41485D01*
X39926Y41483D01*
X39924Y41481D01*
X39920Y41478D01*
X39916Y41475D01*
X39911Y41472D01*
X39905Y41469D01*
X39899Y41466D01*
X39891Y41462D01*
X39884Y41460D01*
X39876Y41457D01*
X39867Y41455D01*
X39858Y41453D01*
X39848Y41452D01*
X39838Y41451D01*
X39833D01*
X39829Y41452D01*
X39825Y41452D01*
X39820Y41453D01*
X39814Y41454D01*
X39808Y41455D01*
X39795Y41459D01*
X39781Y41464D01*
X39774Y41467D01*
X39767Y41471D01*
X39760Y41476D01*
X39754Y41481D01*
X39753Y41482D01*
X39752Y41483D01*
X39750Y41485D01*
X39749Y41487D01*
X39746Y41490D01*
X39743Y41493D01*
X39740Y41497D01*
X39737Y41502D01*
X39733Y41508D01*
X39730Y41513D01*
X39724Y41527D01*
X39719Y41542D01*
X39717Y41551D01*
X39716Y41560D01*
X39763Y41566D01*
Y41565D01*
X39764Y41564D01*
X39764Y41562D01*
X39765Y41559D01*
X39765Y41556D01*
X39767Y41552D01*
X39769Y41543D01*
X39773Y41533D01*
X39778Y41524D01*
X39784Y41515D01*
X39790Y41507D01*
X39792Y41507D01*
X39794Y41505D01*
X39798Y41502D01*
X39804Y41499D01*
X39810Y41496D01*
X39819Y41493D01*
X39828Y41491D01*
X39838Y41490D01*
X39841D01*
X39844Y41491D01*
X39850Y41491D01*
X39858Y41493D01*
X39866Y41496D01*
X39876Y41500D01*
X39885Y41505D01*
X39894Y41513D01*
X39895Y41514D01*
X39898Y41517D01*
X39901Y41522D01*
X39906Y41529D01*
X39910Y41537D01*
X39914Y41547D01*
X39916Y41558D01*
X39918Y41570D01*
Y41571D01*
Y41572D01*
Y41573D01*
X39917Y41576D01*
X39916Y41582D01*
X39915Y41589D01*
X39913Y41598D01*
X39909Y41607D01*
X39903Y41616D01*
X39896Y41624D01*
X39895Y41625D01*
X39892Y41627D01*
X39888Y41631D01*
X39881Y41634D01*
X39874Y41638D01*
X39864Y41642D01*
X39854Y41644D01*
X39842Y41645D01*
X39837D01*
X39833Y41644D01*
X39828Y41644D01*
X39823Y41643D01*
X39816Y41642D01*
X39809Y41640D01*
X39814Y41682D01*
X39817D01*
X39819Y41681D01*
X39826D01*
X39833Y41682D01*
X39840Y41683D01*
X39848Y41685D01*
X39858Y41688D01*
X39866Y41692D01*
X39876Y41697D01*
X39876D01*
X39877Y41697D01*
X39880Y41699D01*
X39884Y41703D01*
X39888Y41708D01*
X39893Y41715D01*
X39896Y41724D01*
X39899Y41733D01*
X39900Y41739D01*
Y41745D01*
Y41745D01*
Y41746D01*
Y41749D01*
X39899Y41754D01*
X39898Y41760D01*
X39896Y41767D01*
X39893Y41774D01*
X39889Y41781D01*
X39883Y41788D01*
X39882Y41788D01*
X39879Y41790D01*
X39875Y41793D01*
X39870Y41797D01*
X39864Y41799D01*
X39856Y41802D01*
X39847Y41804D01*
X39837Y41805D01*
X39833D01*
X39828Y41804D01*
X39821Y41803D01*
X39814Y41800D01*
X39807Y41798D01*
X39799Y41793D01*
X39792Y41788D01*
X39791Y41787D01*
X39789Y41784D01*
X39785Y41780D01*
X39782Y41775D01*
X39778Y41768D01*
X39774Y41759D01*
X39770Y41748D01*
X39768Y41736D01*
X39721Y41744D01*
Y41745D01*
X39722Y41747D01*
X39722Y41749D01*
X39723Y41752D01*
X39724Y41756D01*
X39725Y41760D01*
X39729Y41771D01*
X39734Y41783D01*
X39741Y41795D01*
X39749Y41807D01*
X39760Y41818D01*
X39760Y41818D01*
X39762Y41819D01*
X39763Y41820D01*
X39765Y41821D01*
X39768Y41824D01*
X39772Y41826D01*
X39776Y41828D01*
X39781Y41831D01*
X39792Y41835D01*
X39805Y41840D01*
X39820Y41843D01*
X39828Y41844D01*
X39841D01*
X39848Y41843D01*
D02*
G37*
G36*
X40375Y41848D02*
X40380Y41848D01*
X40386Y41847D01*
X40392Y41846D01*
X40399Y41845D01*
X40414Y41841D01*
X40431Y41836D01*
X40439Y41833D01*
X40447Y41829D01*
X40455Y41824D01*
X40463Y41819D01*
X40463Y41819D01*
X40464Y41818D01*
X40466Y41817D01*
X40469Y41814D01*
X40472Y41811D01*
X40476Y41807D01*
X40480Y41803D01*
X40484Y41798D01*
X40489Y41793D01*
X40493Y41786D01*
X40498Y41779D01*
X40503Y41772D01*
X40506Y41764D01*
X40511Y41755D01*
X40514Y41747D01*
X40517Y41737D01*
X40468Y41725D01*
Y41725D01*
X40467Y41727D01*
X40466Y41729D01*
X40465Y41732D01*
X40464Y41735D01*
X40462Y41739D01*
X40458Y41748D01*
X40452Y41758D01*
X40445Y41768D01*
X40437Y41778D01*
X40428Y41786D01*
X40427Y41787D01*
X40424Y41789D01*
X40418Y41792D01*
X40411Y41796D01*
X40401Y41799D01*
X40391Y41803D01*
X40378Y41805D01*
X40364Y41805D01*
X40360D01*
X40357Y41805D01*
X40353D01*
X40349Y41804D01*
X40338Y41803D01*
X40327Y41800D01*
X40314Y41797D01*
X40302Y41791D01*
X40290Y41784D01*
X40289D01*
X40289Y41783D01*
X40285Y41780D01*
X40280Y41775D01*
X40274Y41769D01*
X40267Y41760D01*
X40260Y41751D01*
X40254Y41739D01*
X40248Y41727D01*
Y41726D01*
X40248Y41725D01*
X40247Y41723D01*
X40247Y41720D01*
X40246Y41717D01*
X40244Y41713D01*
X40243Y41704D01*
X40241Y41693D01*
X40238Y41681D01*
X40237Y41667D01*
X40237Y41653D01*
Y41652D01*
Y41651D01*
Y41648D01*
Y41644D01*
X40237Y41641D01*
Y41636D01*
X40238Y41630D01*
X40238Y41624D01*
X40240Y41611D01*
X40243Y41596D01*
X40246Y41582D01*
X40251Y41567D01*
Y41567D01*
X40251Y41566D01*
X40252Y41564D01*
X40253Y41561D01*
X40257Y41555D01*
X40262Y41547D01*
X40268Y41538D01*
X40276Y41528D01*
X40284Y41520D01*
X40295Y41512D01*
X40295D01*
X40297Y41512D01*
X40298Y41511D01*
X40300Y41510D01*
X40303Y41508D01*
X40307Y41507D01*
X40314Y41503D01*
X40324Y41500D01*
X40335Y41497D01*
X40348Y41495D01*
X40360Y41495D01*
X40364D01*
X40368Y41495D01*
X40372D01*
X40375Y41496D01*
X40385Y41498D01*
X40397Y41501D01*
X40409Y41505D01*
X40421Y41511D01*
X40427Y41515D01*
X40433Y41519D01*
X40433Y41520D01*
X40434Y41520D01*
X40435Y41522D01*
X40438Y41523D01*
X40440Y41526D01*
X40443Y41530D01*
X40446Y41533D01*
X40449Y41537D01*
X40452Y41542D01*
X40456Y41548D01*
X40459Y41553D01*
X40463Y41560D01*
X40465Y41567D01*
X40468Y41575D01*
X40471Y41583D01*
X40473Y41592D01*
X40524Y41580D01*
Y41579D01*
X40524Y41577D01*
X40522Y41573D01*
X40521Y41569D01*
X40519Y41564D01*
X40517Y41558D01*
X40514Y41551D01*
X40511Y41544D01*
X40503Y41528D01*
X40493Y41513D01*
X40487Y41505D01*
X40481Y41497D01*
X40474Y41491D01*
X40466Y41484D01*
X40466Y41483D01*
X40465Y41482D01*
X40462Y41481D01*
X40459Y41479D01*
X40455Y41476D01*
X40450Y41474D01*
X40444Y41471D01*
X40438Y41468D01*
X40431Y41465D01*
X40423Y41462D01*
X40415Y41459D01*
X40406Y41456D01*
X40396Y41454D01*
X40387Y41453D01*
X40376Y41452D01*
X40365Y41451D01*
X40359D01*
X40354Y41452D01*
X40349D01*
X40343Y41452D01*
X40337Y41454D01*
X40329Y41455D01*
X40313Y41457D01*
X40296Y41462D01*
X40279Y41468D01*
X40272Y41472D01*
X40264Y41476D01*
X40263Y41477D01*
X40262Y41477D01*
X40260Y41479D01*
X40258Y41481D01*
X40254Y41483D01*
X40251Y41487D01*
X40246Y41491D01*
X40242Y41495D01*
X40237Y41500D01*
X40232Y41505D01*
X40222Y41518D01*
X40213Y41533D01*
X40204Y41550D01*
Y41550D01*
X40203Y41552D01*
X40203Y41555D01*
X40201Y41558D01*
X40200Y41562D01*
X40198Y41568D01*
X40196Y41574D01*
X40194Y41581D01*
X40193Y41588D01*
X40191Y41596D01*
X40188Y41613D01*
X40186Y41633D01*
X40184Y41653D01*
Y41653D01*
Y41656D01*
Y41659D01*
X40185Y41663D01*
Y41668D01*
X40186Y41674D01*
X40186Y41681D01*
X40187Y41688D01*
X40190Y41704D01*
X40194Y41722D01*
X40199Y41740D01*
X40207Y41757D01*
X40208Y41758D01*
X40208Y41759D01*
X40209Y41762D01*
X40212Y41764D01*
X40214Y41768D01*
X40217Y41773D01*
X40224Y41783D01*
X40233Y41794D01*
X40244Y41805D01*
X40257Y41816D01*
X40272Y41825D01*
X40273Y41826D01*
X40274Y41826D01*
X40277Y41828D01*
X40279Y41829D01*
X40284Y41831D01*
X40288Y41833D01*
X40294Y41835D01*
X40300Y41837D01*
X40307Y41839D01*
X40314Y41841D01*
X40329Y41845D01*
X40347Y41848D01*
X40365Y41849D01*
X40371D01*
X40375Y41848D01*
D02*
G37*
G36*
X40704Y41843D02*
X40708Y41843D01*
X40714Y41842D01*
X40720Y41841D01*
X40726Y41840D01*
X40741Y41836D01*
X40755Y41830D01*
X40762Y41827D01*
X40769Y41823D01*
X40776Y41818D01*
X40782Y41813D01*
X40783Y41812D01*
X40784Y41811D01*
X40785Y41809D01*
X40787Y41807D01*
X40790Y41804D01*
X40793Y41800D01*
X40796Y41797D01*
X40799Y41792D01*
X40804Y41781D01*
X40810Y41768D01*
X40812Y41761D01*
X40813Y41753D01*
X40814Y41745D01*
X40815Y41737D01*
Y41736D01*
Y41733D01*
X40814Y41729D01*
X40814Y41723D01*
X40813Y41716D01*
X40811Y41708D01*
X40808Y41700D01*
X40805Y41692D01*
X40804Y41691D01*
X40803Y41688D01*
X40801Y41683D01*
X40798Y41677D01*
X40793Y41671D01*
X40788Y41662D01*
X40781Y41654D01*
X40773Y41644D01*
X40772Y41643D01*
X40769Y41640D01*
X40767Y41637D01*
X40764Y41634D01*
X40761Y41631D01*
X40756Y41627D01*
X40752Y41622D01*
X40746Y41617D01*
X40741Y41612D01*
X40734Y41606D01*
X40727Y41599D01*
X40719Y41592D01*
X40710Y41585D01*
X40701Y41577D01*
X40701Y41577D01*
X40700Y41576D01*
X40697Y41574D01*
X40695Y41572D01*
X40691Y41568D01*
X40687Y41565D01*
X40678Y41558D01*
X40669Y41550D01*
X40660Y41541D01*
X40652Y41534D01*
X40649Y41531D01*
X40646Y41528D01*
X40646Y41528D01*
X40644Y41526D01*
X40642Y41524D01*
X40639Y41521D01*
X40636Y41517D01*
X40633Y41513D01*
X40626Y41503D01*
X40816D01*
Y41458D01*
X40561D01*
Y41459D01*
Y41461D01*
Y41464D01*
X40561Y41469D01*
X40562Y41474D01*
X40563Y41479D01*
X40564Y41485D01*
X40566Y41491D01*
Y41491D01*
X40567Y41492D01*
X40568Y41495D01*
X40570Y41500D01*
X40574Y41507D01*
X40578Y41515D01*
X40584Y41523D01*
X40590Y41532D01*
X40597Y41542D01*
Y41542D01*
X40599Y41543D01*
X40601Y41546D01*
X40606Y41551D01*
X40613Y41558D01*
X40622Y41567D01*
X40632Y41577D01*
X40645Y41588D01*
X40659Y41599D01*
X40660Y41600D01*
X40662Y41602D01*
X40665Y41604D01*
X40669Y41608D01*
X40674Y41612D01*
X40680Y41617D01*
X40686Y41623D01*
X40693Y41629D01*
X40707Y41642D01*
X40721Y41656D01*
X40728Y41662D01*
X40734Y41669D01*
X40739Y41675D01*
X40744Y41681D01*
Y41682D01*
X40745Y41682D01*
X40746Y41684D01*
X40747Y41686D01*
X40751Y41692D01*
X40756Y41699D01*
X40759Y41708D01*
X40763Y41718D01*
X40766Y41728D01*
X40767Y41738D01*
Y41739D01*
Y41739D01*
X40766Y41743D01*
X40766Y41748D01*
X40764Y41754D01*
X40762Y41762D01*
X40758Y41770D01*
X40753Y41778D01*
X40746Y41785D01*
X40745Y41787D01*
X40742Y41789D01*
X40738Y41792D01*
X40732Y41795D01*
X40725Y41799D01*
X40716Y41802D01*
X40705Y41804D01*
X40693Y41805D01*
X40690D01*
X40688Y41804D01*
X40681Y41804D01*
X40673Y41802D01*
X40665Y41800D01*
X40656Y41796D01*
X40647Y41791D01*
X40638Y41784D01*
X40637Y41783D01*
X40635Y41780D01*
X40632Y41776D01*
X40628Y41769D01*
X40625Y41762D01*
X40621Y41752D01*
X40619Y41740D01*
X40618Y41728D01*
X40570Y41733D01*
Y41733D01*
X40570Y41735D01*
Y41738D01*
X40571Y41742D01*
X40572Y41746D01*
X40573Y41751D01*
X40575Y41757D01*
X40576Y41763D01*
X40581Y41777D01*
X40587Y41790D01*
X40591Y41797D01*
X40596Y41803D01*
X40601Y41809D01*
X40607Y41815D01*
X40607Y41815D01*
X40609Y41816D01*
X40610Y41818D01*
X40613Y41819D01*
X40616Y41821D01*
X40620Y41824D01*
X40625Y41826D01*
X40630Y41829D01*
X40636Y41832D01*
X40643Y41835D01*
X40650Y41837D01*
X40658Y41839D01*
X40666Y41841D01*
X40675Y41843D01*
X40685Y41843D01*
X40695Y41844D01*
X40700D01*
X40704Y41843D01*
D02*
G37*
G36*
X38672Y41848D02*
X38677Y41848D01*
X38683Y41847D01*
X38689Y41846D01*
X38696Y41845D01*
X38711Y41841D01*
X38728Y41836D01*
X38736Y41833D01*
X38744Y41829D01*
X38751Y41824D01*
X38759Y41819D01*
X38760Y41819D01*
X38761Y41818D01*
X38763Y41817D01*
X38766Y41814D01*
X38769Y41811D01*
X38773Y41807D01*
X38776Y41803D01*
X38781Y41798D01*
X38785Y41793D01*
X38790Y41786D01*
X38795Y41779D01*
X38799Y41772D01*
X38803Y41764D01*
X38807Y41755D01*
X38811Y41747D01*
X38814Y41737D01*
X38764Y41725D01*
Y41725D01*
X38764Y41727D01*
X38763Y41729D01*
X38761Y41732D01*
X38760Y41735D01*
X38759Y41739D01*
X38754Y41748D01*
X38749Y41758D01*
X38742Y41768D01*
X38734Y41778D01*
X38725Y41786D01*
X38724Y41787D01*
X38720Y41789D01*
X38715Y41792D01*
X38708Y41796D01*
X38698Y41799D01*
X38688Y41803D01*
X38675Y41805D01*
X38661Y41805D01*
X38657D01*
X38654Y41805D01*
X38650D01*
X38645Y41804D01*
X38635Y41803D01*
X38623Y41800D01*
X38611Y41797D01*
X38598Y41791D01*
X38587Y41784D01*
X38586D01*
X38585Y41783D01*
X38582Y41780D01*
X38577Y41775D01*
X38571Y41769D01*
X38563Y41760D01*
X38557Y41751D01*
X38551Y41739D01*
X38545Y41727D01*
Y41726D01*
X38544Y41725D01*
X38544Y41723D01*
X38543Y41720D01*
X38542Y41717D01*
X38541Y41713D01*
X38539Y41704D01*
X38537Y41693D01*
X38535Y41681D01*
X38534Y41667D01*
X38533Y41653D01*
Y41652D01*
Y41651D01*
Y41648D01*
Y41644D01*
X38534Y41641D01*
Y41636D01*
X38534Y41630D01*
X38535Y41624D01*
X38537Y41611D01*
X38539Y41596D01*
X38543Y41582D01*
X38547Y41567D01*
Y41567D01*
X38548Y41566D01*
X38549Y41564D01*
X38550Y41561D01*
X38553Y41555D01*
X38558Y41547D01*
X38564Y41538D01*
X38572Y41528D01*
X38581Y41520D01*
X38592Y41512D01*
X38592D01*
X38593Y41512D01*
X38595Y41511D01*
X38597Y41510D01*
X38600Y41508D01*
X38603Y41507D01*
X38611Y41503D01*
X38621Y41500D01*
X38632Y41497D01*
X38644Y41495D01*
X38657Y41495D01*
X38661D01*
X38664Y41495D01*
X38668D01*
X38672Y41496D01*
X38682Y41498D01*
X38694Y41501D01*
X38705Y41505D01*
X38718Y41511D01*
X38724Y41515D01*
X38729Y41519D01*
X38730Y41520D01*
X38730Y41520D01*
X38732Y41522D01*
X38734Y41523D01*
X38736Y41526D01*
X38739Y41530D01*
X38743Y41533D01*
X38745Y41537D01*
X38749Y41542D01*
X38753Y41548D01*
X38756Y41553D01*
X38759Y41560D01*
X38762Y41567D01*
X38765Y41575D01*
X38768Y41583D01*
X38770Y41592D01*
X38821Y41580D01*
Y41579D01*
X38820Y41577D01*
X38819Y41573D01*
X38817Y41569D01*
X38816Y41564D01*
X38814Y41558D01*
X38811Y41551D01*
X38807Y41544D01*
X38800Y41528D01*
X38790Y41513D01*
X38784Y41505D01*
X38778Y41497D01*
X38771Y41491D01*
X38763Y41484D01*
X38763Y41483D01*
X38761Y41482D01*
X38759Y41481D01*
X38756Y41479D01*
X38751Y41476D01*
X38747Y41474D01*
X38741Y41471D01*
X38735Y41468D01*
X38728Y41465D01*
X38720Y41462D01*
X38711Y41459D01*
X38703Y41456D01*
X38693Y41454D01*
X38683Y41453D01*
X38673Y41452D01*
X38662Y41451D01*
X38655D01*
X38651Y41452D01*
X38646D01*
X38640Y41452D01*
X38633Y41454D01*
X38625Y41455D01*
X38609Y41457D01*
X38593Y41462D01*
X38576Y41468D01*
X38568Y41472D01*
X38561Y41476D01*
X38560Y41477D01*
X38559Y41477D01*
X38557Y41479D01*
X38554Y41481D01*
X38551Y41483D01*
X38547Y41487D01*
X38543Y41491D01*
X38538Y41495D01*
X38534Y41500D01*
X38529Y41505D01*
X38519Y41518D01*
X38509Y41533D01*
X38501Y41550D01*
Y41550D01*
X38500Y41552D01*
X38499Y41555D01*
X38498Y41558D01*
X38497Y41562D01*
X38495Y41568D01*
X38493Y41574D01*
X38491Y41581D01*
X38489Y41588D01*
X38487Y41596D01*
X38484Y41613D01*
X38482Y41633D01*
X38481Y41653D01*
Y41653D01*
Y41656D01*
Y41659D01*
X38482Y41663D01*
Y41668D01*
X38482Y41674D01*
X38483Y41681D01*
X38484Y41688D01*
X38487Y41704D01*
X38491Y41722D01*
X38496Y41740D01*
X38504Y41757D01*
X38504Y41758D01*
X38505Y41759D01*
X38506Y41762D01*
X38508Y41764D01*
X38511Y41768D01*
X38513Y41773D01*
X38521Y41783D01*
X38530Y41794D01*
X38541Y41805D01*
X38554Y41816D01*
X38569Y41825D01*
X38569Y41826D01*
X38571Y41826D01*
X38573Y41828D01*
X38576Y41829D01*
X38581Y41831D01*
X38585Y41833D01*
X38590Y41835D01*
X38597Y41837D01*
X38603Y41839D01*
X38610Y41841D01*
X38626Y41845D01*
X38644Y41848D01*
X38662Y41849D01*
X38668D01*
X38672Y41848D01*
D02*
G37*
G36*
X39101Y41792D02*
X38947D01*
X38926Y41688D01*
X38927Y41689D01*
X38928Y41689D01*
X38930Y41691D01*
X38932Y41692D01*
X38936Y41694D01*
X38940Y41696D01*
X38948Y41701D01*
X38960Y41705D01*
X38972Y41709D01*
X38985Y41712D01*
X38992Y41713D01*
X39004D01*
X39007Y41712D01*
X39012Y41712D01*
X39017Y41711D01*
X39022Y41710D01*
X39028Y41708D01*
X39042Y41704D01*
X39049Y41702D01*
X39056Y41698D01*
X39063Y41694D01*
X39071Y41689D01*
X39077Y41684D01*
X39084Y41678D01*
X39084Y41677D01*
X39086Y41676D01*
X39087Y41674D01*
X39089Y41672D01*
X39092Y41668D01*
X39095Y41664D01*
X39098Y41659D01*
X39102Y41653D01*
X39104Y41647D01*
X39108Y41641D01*
X39111Y41633D01*
X39113Y41625D01*
X39116Y41617D01*
X39117Y41607D01*
X39118Y41598D01*
X39119Y41588D01*
Y41587D01*
Y41586D01*
Y41583D01*
X39118Y41579D01*
X39118Y41575D01*
X39117Y41570D01*
X39116Y41563D01*
X39115Y41557D01*
X39112Y41543D01*
X39106Y41528D01*
X39103Y41520D01*
X39098Y41513D01*
X39094Y41505D01*
X39088Y41498D01*
X39088Y41497D01*
X39087Y41496D01*
X39084Y41493D01*
X39082Y41491D01*
X39078Y41487D01*
X39073Y41483D01*
X39068Y41479D01*
X39062Y41475D01*
X39055Y41470D01*
X39047Y41466D01*
X39039Y41462D01*
X39030Y41459D01*
X39021Y41456D01*
X39010Y41454D01*
X38999Y41452D01*
X38987Y41451D01*
X38982D01*
X38978Y41452D01*
X38974Y41452D01*
X38969Y41453D01*
X38963Y41454D01*
X38957Y41455D01*
X38943Y41459D01*
X38929Y41464D01*
X38922Y41467D01*
X38915Y41471D01*
X38908Y41475D01*
X38901Y41480D01*
X38901Y41481D01*
X38900Y41481D01*
X38899Y41483D01*
X38896Y41486D01*
X38894Y41488D01*
X38891Y41492D01*
X38887Y41496D01*
X38885Y41501D01*
X38881Y41506D01*
X38878Y41512D01*
X38872Y41526D01*
X38867Y41541D01*
X38865Y41550D01*
X38864Y41558D01*
X38914Y41562D01*
Y41562D01*
Y41561D01*
X38914Y41559D01*
X38915Y41556D01*
X38916Y41550D01*
X38918Y41542D01*
X38922Y41533D01*
X38926Y41524D01*
X38932Y41516D01*
X38938Y41508D01*
X38940Y41507D01*
X38942Y41505D01*
X38946Y41502D01*
X38952Y41499D01*
X38959Y41496D01*
X38967Y41493D01*
X38977Y41491D01*
X38987Y41490D01*
X38991D01*
X38993Y41491D01*
X39000Y41491D01*
X39007Y41493D01*
X39017Y41496D01*
X39026Y41501D01*
X39036Y41507D01*
X39041Y41511D01*
X39045Y41516D01*
X39046Y41516D01*
X39046Y41517D01*
X39047Y41518D01*
X39049Y41520D01*
X39053Y41526D01*
X39057Y41534D01*
X39061Y41543D01*
X39065Y41555D01*
X39068Y41569D01*
X39069Y41576D01*
Y41584D01*
Y41585D01*
Y41586D01*
Y41588D01*
X39068Y41591D01*
Y41594D01*
X39068Y41598D01*
X39066Y41607D01*
X39063Y41617D01*
X39059Y41628D01*
X39054Y41638D01*
X39046Y41647D01*
Y41648D01*
X39045Y41648D01*
X39042Y41651D01*
X39037Y41655D01*
X39031Y41659D01*
X39022Y41663D01*
X39012Y41667D01*
X39000Y41670D01*
X38993Y41671D01*
X38983D01*
X38978Y41671D01*
X38973Y41670D01*
X38966Y41668D01*
X38960Y41667D01*
X38952Y41664D01*
X38945Y41661D01*
X38945Y41660D01*
X38942Y41659D01*
X38939Y41656D01*
X38935Y41653D01*
X38930Y41649D01*
X38926Y41644D01*
X38921Y41639D01*
X38917Y41633D01*
X38872Y41639D01*
X38910Y41837D01*
X39101D01*
Y41792D01*
D02*
G37*
G36*
X53494Y40398D02*
X53499Y40398D01*
X53504Y40397D01*
X53511Y40396D01*
X53517Y40395D01*
X53531Y40391D01*
X53546Y40385D01*
X53554Y40382D01*
X53561Y40378D01*
X53568Y40373D01*
X53574Y40368D01*
X53575Y40367D01*
X53576Y40367D01*
X53578Y40364D01*
X53580Y40362D01*
X53582Y40359D01*
X53585Y40355D01*
X53588Y40352D01*
X53592Y40347D01*
X53598Y40336D01*
X53603Y40323D01*
X53605Y40317D01*
X53607Y40309D01*
X53608Y40302D01*
X53608Y40293D01*
Y40292D01*
Y40289D01*
X53608Y40284D01*
X53607Y40278D01*
X53606Y40271D01*
X53603Y40263D01*
X53600Y40255D01*
X53596Y40247D01*
X53596Y40246D01*
X53594Y40243D01*
X53591Y40238D01*
X53586Y40232D01*
X53580Y40225D01*
X53572Y40216D01*
X53562Y40206D01*
X53550Y40196D01*
X53549Y40194D01*
X53546Y40192D01*
X53542Y40188D01*
X53537Y40184D01*
X53532Y40179D01*
X53527Y40174D01*
X53523Y40169D01*
X53520Y40165D01*
Y40164D01*
X53518Y40163D01*
X53517Y40161D01*
X53516Y40159D01*
X53514Y40156D01*
X53512Y40152D01*
X53509Y40143D01*
Y40142D01*
X53508Y40141D01*
X53508Y40137D01*
X53507Y40133D01*
X53507Y40128D01*
X53506Y40121D01*
X53506Y40112D01*
Y40103D01*
X53460D01*
Y40103D01*
Y40105D01*
Y40108D01*
X53460Y40112D01*
Y40117D01*
Y40117D01*
Y40118D01*
Y40121D01*
X53460Y40127D01*
X53461Y40133D01*
X53461Y40141D01*
X53463Y40148D01*
X53465Y40157D01*
X53467Y40164D01*
X53468Y40165D01*
X53468Y40167D01*
X53470Y40170D01*
X53472Y40174D01*
X53475Y40178D01*
X53478Y40184D01*
X53482Y40189D01*
X53486Y40195D01*
X53487Y40196D01*
X53488Y40197D01*
X53491Y40199D01*
X53494Y40203D01*
X53498Y40208D01*
X53505Y40213D01*
X53512Y40220D01*
X53520Y40228D01*
X53521D01*
X53521Y40229D01*
X53524Y40231D01*
X53528Y40236D01*
X53533Y40240D01*
X53539Y40246D01*
X53544Y40252D01*
X53549Y40257D01*
X53552Y40262D01*
X53553Y40263D01*
X53553Y40264D01*
X53554Y40267D01*
X53556Y40270D01*
X53558Y40275D01*
X53559Y40279D01*
X53559Y40285D01*
X53560Y40290D01*
Y40291D01*
Y40292D01*
X53559Y40295D01*
X53559Y40300D01*
X53557Y40307D01*
X53555Y40314D01*
X53551Y40322D01*
X53546Y40330D01*
X53538Y40339D01*
X53537Y40340D01*
X53534Y40342D01*
X53530Y40345D01*
X53524Y40349D01*
X53516Y40353D01*
X53507Y40357D01*
X53497Y40359D01*
X53486Y40360D01*
X53483D01*
X53481Y40359D01*
X53475Y40359D01*
X53468Y40358D01*
X53460Y40355D01*
X53452Y40352D01*
X53443Y40347D01*
X53435Y40340D01*
X53434Y40339D01*
X53432Y40337D01*
X53428Y40332D01*
X53425Y40326D01*
X53420Y40318D01*
X53416Y40308D01*
X53412Y40295D01*
X53409Y40282D01*
X53361Y40288D01*
Y40288D01*
X53361Y40290D01*
Y40293D01*
X53362Y40297D01*
X53363Y40301D01*
X53365Y40306D01*
X53366Y40312D01*
X53368Y40318D01*
X53373Y40331D01*
X53380Y40345D01*
X53388Y40358D01*
X53394Y40364D01*
X53399Y40370D01*
X53400Y40370D01*
X53401Y40371D01*
X53402Y40373D01*
X53405Y40374D01*
X53408Y40376D01*
X53412Y40379D01*
X53417Y40381D01*
X53422Y40384D01*
X53428Y40387D01*
X53435Y40390D01*
X53441Y40392D01*
X53449Y40394D01*
X53466Y40398D01*
X53475Y40398D01*
X53485Y40399D01*
X53490D01*
X53494Y40398D01*
D02*
G37*
G36*
X53294Y40170D02*
Y40169D01*
Y40167D01*
Y40164D01*
Y40161D01*
X53293Y40156D01*
Y40150D01*
X53293Y40143D01*
X53292Y40137D01*
X53290Y40122D01*
X53288Y40106D01*
X53285Y40091D01*
X53283Y40084D01*
X53280Y40077D01*
Y40077D01*
X53280Y40076D01*
X53279Y40074D01*
X53278Y40072D01*
X53274Y40066D01*
X53269Y40058D01*
X53263Y40049D01*
X53255Y40040D01*
X53245Y40031D01*
X53233Y40022D01*
X53232D01*
X53231Y40021D01*
X53229Y40021D01*
X53226Y40019D01*
X53223Y40017D01*
X53219Y40016D01*
X53214Y40014D01*
X53209Y40012D01*
X53203Y40010D01*
X53196Y40008D01*
X53189Y40006D01*
X53180Y40005D01*
X53172Y40004D01*
X53163Y40002D01*
X53143Y40001D01*
X53138D01*
X53134Y40002D01*
X53130D01*
X53124Y40002D01*
X53118Y40003D01*
X53112Y40004D01*
X53098Y40006D01*
X53083Y40009D01*
X53069Y40014D01*
X53055Y40020D01*
X53054D01*
X53053Y40021D01*
X53052Y40022D01*
X53049Y40023D01*
X53043Y40027D01*
X53036Y40033D01*
X53028Y40041D01*
X53020Y40050D01*
X53012Y40061D01*
X53006Y40073D01*
Y40074D01*
X53006Y40075D01*
X53005Y40077D01*
X53004Y40080D01*
X53003Y40083D01*
X53002Y40088D01*
X53000Y40093D01*
X52999Y40099D01*
X52998Y40106D01*
X52996Y40113D01*
X52995Y40121D01*
X52994Y40129D01*
X52993Y40138D01*
X52992Y40148D01*
X52992Y40159D01*
Y40170D01*
Y40392D01*
X53043D01*
Y40170D01*
Y40169D01*
Y40168D01*
Y40165D01*
Y40162D01*
X53043Y40158D01*
Y40153D01*
X53044Y40142D01*
X53045Y40130D01*
X53047Y40118D01*
X53049Y40106D01*
X53050Y40101D01*
X53052Y40096D01*
X53052Y40095D01*
X53053Y40092D01*
X53056Y40088D01*
X53059Y40083D01*
X53063Y40077D01*
X53069Y40071D01*
X53075Y40065D01*
X53083Y40060D01*
X53084Y40060D01*
X53087Y40058D01*
X53092Y40056D01*
X53099Y40054D01*
X53107Y40051D01*
X53117Y40050D01*
X53127Y40048D01*
X53139Y40047D01*
X53144D01*
X53148Y40048D01*
X53153D01*
X53158Y40048D01*
X53170Y40051D01*
X53183Y40053D01*
X53196Y40058D01*
X53208Y40064D01*
X53214Y40068D01*
X53219Y40072D01*
X53219Y40073D01*
X53220Y40073D01*
X53221Y40075D01*
X53223Y40077D01*
X53224Y40081D01*
X53226Y40084D01*
X53229Y40089D01*
X53231Y40094D01*
X53233Y40100D01*
X53235Y40107D01*
X53237Y40116D01*
X53239Y40125D01*
X53240Y40135D01*
X53241Y40145D01*
X53243Y40157D01*
Y40170D01*
Y40392D01*
X53294D01*
Y40170D01*
D02*
G37*
G36*
X53506Y40008D02*
X53452D01*
Y40062D01*
X53506D01*
Y40008D01*
D02*
G37*
G36*
X41629Y38573D02*
Y38572D01*
Y38570D01*
Y38567D01*
Y38563D01*
X41629Y38558D01*
Y38553D01*
X41628Y38546D01*
X41628Y38539D01*
X41626Y38524D01*
X41624Y38509D01*
X41621Y38494D01*
X41618Y38486D01*
X41616Y38480D01*
Y38479D01*
X41616Y38478D01*
X41614Y38477D01*
X41613Y38474D01*
X41610Y38468D01*
X41605Y38460D01*
X41598Y38452D01*
X41591Y38443D01*
X41581Y38433D01*
X41568Y38425D01*
X41568D01*
X41567Y38424D01*
X41565Y38423D01*
X41562Y38422D01*
X41559Y38420D01*
X41554Y38418D01*
X41550Y38417D01*
X41544Y38414D01*
X41538Y38412D01*
X41532Y38410D01*
X41525Y38409D01*
X41516Y38407D01*
X41508Y38406D01*
X41499Y38405D01*
X41479Y38404D01*
X41474D01*
X41470Y38404D01*
X41466D01*
X41460Y38405D01*
X41454Y38405D01*
X41448Y38406D01*
X41434Y38408D01*
X41419Y38412D01*
X41405Y38416D01*
X41391Y38422D01*
X41390D01*
X41389Y38423D01*
X41387Y38424D01*
X41385Y38425D01*
X41379Y38430D01*
X41372Y38436D01*
X41364Y38444D01*
X41356Y38453D01*
X41348Y38464D01*
X41342Y38476D01*
Y38477D01*
X41341Y38478D01*
X41341Y38480D01*
X41340Y38483D01*
X41339Y38486D01*
X41337Y38490D01*
X41336Y38495D01*
X41335Y38501D01*
X41334Y38508D01*
X41332Y38515D01*
X41331Y38523D01*
X41330Y38531D01*
X41329Y38541D01*
X41328Y38551D01*
X41327Y38561D01*
Y38573D01*
Y38795D01*
X41379D01*
Y38573D01*
Y38572D01*
Y38570D01*
Y38568D01*
Y38564D01*
X41379Y38560D01*
Y38555D01*
X41380Y38545D01*
X41381Y38533D01*
X41382Y38520D01*
X41385Y38509D01*
X41386Y38504D01*
X41387Y38499D01*
X41388Y38498D01*
X41389Y38495D01*
X41392Y38491D01*
X41395Y38485D01*
X41399Y38480D01*
X41405Y38474D01*
X41411Y38468D01*
X41419Y38463D01*
X41420Y38462D01*
X41423Y38460D01*
X41428Y38459D01*
X41435Y38457D01*
X41442Y38454D01*
X41452Y38452D01*
X41463Y38450D01*
X41475Y38450D01*
X41480D01*
X41483Y38450D01*
X41488D01*
X41493Y38451D01*
X41506Y38453D01*
X41519Y38456D01*
X41532Y38460D01*
X41544Y38467D01*
X41549Y38470D01*
X41554Y38475D01*
X41555Y38475D01*
X41556Y38476D01*
X41557Y38478D01*
X41558Y38480D01*
X41560Y38483D01*
X41562Y38486D01*
X41564Y38491D01*
X41567Y38496D01*
X41569Y38503D01*
X41571Y38510D01*
X41573Y38518D01*
X41574Y38527D01*
X41576Y38537D01*
X41577Y38548D01*
X41578Y38560D01*
Y38573D01*
Y38795D01*
X41629D01*
Y38573D01*
D02*
G37*
G36*
X41873Y38410D02*
X41825D01*
Y38711D01*
X41825Y38710D01*
X41822Y38708D01*
X41819Y38705D01*
X41813Y38701D01*
X41807Y38696D01*
X41799Y38690D01*
X41790Y38684D01*
X41780Y38678D01*
X41780D01*
X41779Y38677D01*
X41776Y38675D01*
X41770Y38672D01*
X41764Y38669D01*
X41756Y38665D01*
X41748Y38661D01*
X41739Y38657D01*
X41731Y38654D01*
Y38700D01*
X41732D01*
X41733Y38701D01*
X41735Y38701D01*
X41738Y38703D01*
X41741Y38705D01*
X41745Y38707D01*
X41754Y38712D01*
X41765Y38718D01*
X41776Y38726D01*
X41788Y38735D01*
X41800Y38745D01*
X41800Y38745D01*
X41801Y38746D01*
X41803Y38747D01*
X41805Y38749D01*
X41810Y38755D01*
X41816Y38761D01*
X41823Y38769D01*
X41830Y38778D01*
X41836Y38787D01*
X41842Y38796D01*
X41873D01*
Y38410D01*
D02*
G37*
G36*
X52850Y36048D02*
X52854D01*
X52865Y36047D01*
X52876Y36045D01*
X52888Y36043D01*
X52902Y36039D01*
X52914Y36035D01*
X52914D01*
X52916Y36034D01*
X52917Y36033D01*
X52919Y36032D01*
X52925Y36029D01*
X52932Y36024D01*
X52941Y36019D01*
X52949Y36012D01*
X52957Y36003D01*
X52964Y35994D01*
Y35993D01*
X52964Y35993D01*
X52966Y35991D01*
X52967Y35989D01*
X52969Y35984D01*
X52973Y35977D01*
X52977Y35968D01*
X52979Y35957D01*
X52982Y35946D01*
X52983Y35934D01*
X52934Y35930D01*
Y35930D01*
Y35932D01*
X52934Y35933D01*
X52933Y35936D01*
X52932Y35942D01*
X52929Y35950D01*
X52926Y35959D01*
X52921Y35968D01*
X52915Y35977D01*
X52907Y35984D01*
X52906Y35985D01*
X52903Y35987D01*
X52898Y35990D01*
X52891Y35994D01*
X52881Y35997D01*
X52870Y36000D01*
X52856Y36003D01*
X52841Y36003D01*
X52833D01*
X52830Y36003D01*
X52825Y36002D01*
X52815Y36001D01*
X52804Y35999D01*
X52793Y35996D01*
X52782Y35992D01*
X52778Y35989D01*
X52773Y35986D01*
X52772Y35985D01*
X52770Y35983D01*
X52767Y35979D01*
X52764Y35975D01*
X52760Y35969D01*
X52756Y35962D01*
X52754Y35954D01*
X52753Y35945D01*
Y35944D01*
Y35942D01*
X52754Y35938D01*
X52755Y35934D01*
X52756Y35928D01*
X52759Y35923D01*
X52762Y35917D01*
X52767Y35912D01*
X52768Y35911D01*
X52771Y35909D01*
X52773Y35908D01*
X52775Y35907D01*
X52779Y35905D01*
X52782Y35903D01*
X52787Y35901D01*
X52793Y35899D01*
X52799Y35897D01*
X52806Y35894D01*
X52814Y35892D01*
X52823Y35889D01*
X52833Y35887D01*
X52844Y35884D01*
X52845D01*
X52847Y35883D01*
X52850Y35883D01*
X52854Y35882D01*
X52859Y35881D01*
X52865Y35879D01*
X52871Y35877D01*
X52878Y35876D01*
X52892Y35872D01*
X52906Y35868D01*
X52913Y35866D01*
X52919Y35863D01*
X52924Y35862D01*
X52929Y35859D01*
X52929D01*
X52931Y35859D01*
X52932Y35858D01*
X52934Y35857D01*
X52941Y35853D01*
X52948Y35849D01*
X52956Y35843D01*
X52964Y35836D01*
X52972Y35828D01*
X52979Y35820D01*
X52979Y35819D01*
X52982Y35816D01*
X52984Y35811D01*
X52987Y35804D01*
X52990Y35797D01*
X52993Y35787D01*
X52994Y35777D01*
X52995Y35766D01*
Y35765D01*
Y35765D01*
Y35763D01*
Y35761D01*
X52994Y35755D01*
X52993Y35747D01*
X52991Y35738D01*
X52988Y35728D01*
X52983Y35718D01*
X52977Y35708D01*
Y35707D01*
X52977Y35707D01*
X52974Y35703D01*
X52970Y35698D01*
X52964Y35693D01*
X52957Y35686D01*
X52948Y35679D01*
X52938Y35672D01*
X52927Y35666D01*
X52926D01*
X52925Y35666D01*
X52923Y35665D01*
X52921Y35664D01*
X52918Y35663D01*
X52914Y35661D01*
X52905Y35659D01*
X52894Y35656D01*
X52882Y35654D01*
X52868Y35652D01*
X52853Y35651D01*
X52844D01*
X52840Y35652D01*
X52835D01*
X52829Y35652D01*
X52822Y35653D01*
X52808Y35655D01*
X52794Y35657D01*
X52780Y35661D01*
X52766Y35666D01*
X52765D01*
X52764Y35667D01*
X52762Y35668D01*
X52760Y35669D01*
X52754Y35672D01*
X52746Y35677D01*
X52737Y35684D01*
X52727Y35692D01*
X52719Y35701D01*
X52710Y35712D01*
Y35712D01*
X52709Y35713D01*
X52709Y35715D01*
X52707Y35717D01*
X52706Y35720D01*
X52704Y35723D01*
X52700Y35732D01*
X52696Y35742D01*
X52693Y35754D01*
X52691Y35767D01*
X52690Y35781D01*
X52737Y35786D01*
Y35785D01*
Y35785D01*
X52738Y35783D01*
Y35781D01*
X52739Y35776D01*
X52741Y35768D01*
X52743Y35761D01*
X52745Y35753D01*
X52749Y35745D01*
X52753Y35738D01*
X52754Y35737D01*
X52755Y35735D01*
X52758Y35731D01*
X52762Y35727D01*
X52768Y35722D01*
X52774Y35717D01*
X52782Y35712D01*
X52791Y35708D01*
X52792D01*
X52792Y35707D01*
X52794Y35707D01*
X52796Y35706D01*
X52801Y35705D01*
X52808Y35702D01*
X52817Y35700D01*
X52827Y35698D01*
X52838Y35697D01*
X52851Y35697D01*
X52856D01*
X52861Y35697D01*
X52868Y35698D01*
X52876Y35699D01*
X52884Y35700D01*
X52893Y35702D01*
X52902Y35705D01*
X52903Y35706D01*
X52906Y35707D01*
X52909Y35709D01*
X52914Y35711D01*
X52919Y35715D01*
X52925Y35719D01*
X52931Y35723D01*
X52935Y35729D01*
X52936Y35730D01*
X52937Y35732D01*
X52938Y35735D01*
X52941Y35739D01*
X52943Y35743D01*
X52944Y35749D01*
X52946Y35755D01*
X52946Y35762D01*
Y35762D01*
Y35765D01*
X52946Y35768D01*
X52945Y35773D01*
X52943Y35777D01*
X52942Y35783D01*
X52939Y35788D01*
X52935Y35793D01*
X52934Y35794D01*
X52933Y35796D01*
X52931Y35798D01*
X52927Y35801D01*
X52922Y35804D01*
X52916Y35808D01*
X52909Y35812D01*
X52901Y35816D01*
X52900Y35816D01*
X52897Y35817D01*
X52893Y35818D01*
X52890Y35819D01*
X52886Y35820D01*
X52882Y35822D01*
X52877Y35823D01*
X52872Y35824D01*
X52865Y35826D01*
X52858Y35828D01*
X52851Y35830D01*
X52842Y35832D01*
X52832Y35834D01*
X52832D01*
X52830Y35835D01*
X52827Y35836D01*
X52824Y35837D01*
X52820Y35838D01*
X52815Y35839D01*
X52803Y35842D01*
X52791Y35846D01*
X52779Y35850D01*
X52767Y35854D01*
X52762Y35856D01*
X52758Y35858D01*
X52757D01*
X52757Y35859D01*
X52754Y35861D01*
X52749Y35864D01*
X52743Y35868D01*
X52736Y35873D01*
X52730Y35879D01*
X52723Y35887D01*
X52717Y35894D01*
X52717Y35896D01*
X52715Y35898D01*
X52713Y35903D01*
X52711Y35908D01*
X52709Y35915D01*
X52706Y35924D01*
X52705Y35933D01*
X52704Y35942D01*
Y35943D01*
Y35943D01*
Y35945D01*
Y35947D01*
X52705Y35953D01*
X52706Y35960D01*
X52708Y35968D01*
X52711Y35978D01*
X52715Y35987D01*
X52720Y35997D01*
Y35997D01*
X52721Y35998D01*
X52724Y36001D01*
X52727Y36005D01*
X52732Y36011D01*
X52739Y36017D01*
X52747Y36024D01*
X52757Y36030D01*
X52769Y36035D01*
X52769D01*
X52770Y36036D01*
X52772Y36036D01*
X52774Y36038D01*
X52777Y36039D01*
X52781Y36040D01*
X52789Y36042D01*
X52800Y36044D01*
X52812Y36046D01*
X52825Y36048D01*
X52839Y36049D01*
X52846D01*
X52850Y36048D01*
D02*
G37*
G36*
X53367Y35658D02*
X53316D01*
Y35839D01*
X53118D01*
Y35658D01*
X53067D01*
Y36042D01*
X53118D01*
Y35884D01*
X53316D01*
Y36042D01*
X53367D01*
Y35658D01*
D02*
G37*
G36*
X53959Y35793D02*
X54011D01*
Y35750D01*
X53959D01*
Y35658D01*
X53912D01*
Y35750D01*
X53745D01*
Y35793D01*
X53921Y36042D01*
X53959D01*
Y35793D01*
D02*
G37*
G36*
X53728Y35997D02*
X53601D01*
Y35658D01*
X53550D01*
Y35997D01*
X53423D01*
Y36042D01*
X53728D01*
Y35997D01*
D02*
G37*
G36*
X54196Y36043D02*
X54203Y36042D01*
X54212Y36040D01*
X54220Y36038D01*
X54230Y36035D01*
X54239Y36031D01*
X54239D01*
X54240Y36030D01*
X54243Y36029D01*
X54247Y36026D01*
X54253Y36022D01*
X54259Y36016D01*
X54265Y36010D01*
X54271Y36003D01*
X54278Y35995D01*
X54278Y35994D01*
X54280Y35991D01*
X54283Y35986D01*
X54286Y35979D01*
X54290Y35970D01*
X54294Y35961D01*
X54298Y35950D01*
X54301Y35938D01*
Y35937D01*
X54302Y35936D01*
X54303Y35934D01*
X54303Y35932D01*
X54304Y35928D01*
X54304Y35924D01*
X54305Y35919D01*
X54306Y35914D01*
X54307Y35908D01*
X54308Y35901D01*
X54308Y35893D01*
X54309Y35886D01*
X54310Y35877D01*
Y35868D01*
X54310Y35858D01*
Y35847D01*
Y35847D01*
Y35844D01*
Y35841D01*
Y35836D01*
X54310Y35830D01*
Y35823D01*
X54309Y35816D01*
X54309Y35808D01*
X54307Y35791D01*
X54304Y35772D01*
X54301Y35755D01*
X54299Y35746D01*
X54296Y35738D01*
Y35737D01*
X54295Y35736D01*
X54294Y35734D01*
X54293Y35731D01*
X54292Y35727D01*
X54290Y35723D01*
X54285Y35714D01*
X54280Y35704D01*
X54273Y35693D01*
X54264Y35683D01*
X54254Y35674D01*
X54254D01*
X54253Y35672D01*
X54251Y35671D01*
X54249Y35670D01*
X54246Y35669D01*
X54244Y35666D01*
X54235Y35662D01*
X54225Y35659D01*
X54214Y35655D01*
X54200Y35652D01*
X54185Y35651D01*
X54179D01*
X54175Y35652D01*
X54171Y35652D01*
X54165Y35654D01*
X54159Y35655D01*
X54153Y35656D01*
X54146Y35659D01*
X54139Y35661D01*
X54132Y35664D01*
X54124Y35668D01*
X54117Y35672D01*
X54110Y35678D01*
X54103Y35684D01*
X54097Y35691D01*
X54097Y35691D01*
X54096Y35693D01*
X54094Y35696D01*
X54091Y35700D01*
X54088Y35705D01*
X54086Y35712D01*
X54082Y35720D01*
X54078Y35728D01*
X54075Y35738D01*
X54072Y35750D01*
X54068Y35763D01*
X54066Y35777D01*
X54063Y35793D01*
X54061Y35809D01*
X54060Y35828D01*
X54059Y35847D01*
Y35848D01*
Y35850D01*
Y35854D01*
Y35858D01*
X54060Y35864D01*
Y35871D01*
X54061Y35878D01*
X54061Y35887D01*
X54063Y35904D01*
X54066Y35922D01*
X54069Y35940D01*
X54071Y35949D01*
X54073Y35957D01*
Y35958D01*
X54074Y35959D01*
X54075Y35961D01*
X54076Y35964D01*
X54077Y35968D01*
X54079Y35972D01*
X54084Y35981D01*
X54089Y35991D01*
X54097Y36002D01*
X54105Y36012D01*
X54115Y36021D01*
X54116D01*
X54116Y36022D01*
X54118Y36023D01*
X54120Y36024D01*
X54123Y36026D01*
X54126Y36028D01*
X54134Y36033D01*
X54144Y36036D01*
X54156Y36040D01*
X54170Y36043D01*
X54185Y36044D01*
X54190D01*
X54196Y36043D01*
D02*
G37*
G36*
X39814Y35095D02*
X39818Y35095D01*
X39824Y35094D01*
X39830Y35093D01*
X39836Y35092D01*
X39851Y35088D01*
X39865Y35082D01*
X39872Y35079D01*
X39879Y35075D01*
X39886Y35070D01*
X39892Y35065D01*
X39893Y35064D01*
X39894Y35064D01*
X39895Y35061D01*
X39897Y35059D01*
X39900Y35056D01*
X39903Y35052D01*
X39906Y35049D01*
X39909Y35044D01*
X39914Y35033D01*
X39920Y35020D01*
X39922Y35013D01*
X39923Y35005D01*
X39924Y34997D01*
X39925Y34989D01*
Y34988D01*
Y34985D01*
X39924Y34981D01*
X39924Y34975D01*
X39923Y34968D01*
X39920Y34960D01*
X39918Y34952D01*
X39915Y34944D01*
X39914Y34943D01*
X39913Y34940D01*
X39911Y34935D01*
X39908Y34929D01*
X39903Y34923D01*
X39898Y34914D01*
X39891Y34906D01*
X39883Y34896D01*
X39882Y34895D01*
X39879Y34892D01*
X39877Y34889D01*
X39874Y34886D01*
X39871Y34883D01*
X39866Y34879D01*
X39862Y34874D01*
X39856Y34869D01*
X39851Y34864D01*
X39844Y34858D01*
X39837Y34852D01*
X39829Y34844D01*
X39820Y34837D01*
X39811Y34829D01*
X39811Y34829D01*
X39810Y34828D01*
X39807Y34826D01*
X39804Y34824D01*
X39801Y34820D01*
X39797Y34817D01*
X39788Y34810D01*
X39779Y34802D01*
X39770Y34793D01*
X39762Y34786D01*
X39759Y34783D01*
X39756Y34780D01*
X39756Y34780D01*
X39754Y34778D01*
X39752Y34776D01*
X39749Y34773D01*
X39746Y34769D01*
X39743Y34765D01*
X39736Y34756D01*
X39925D01*
Y34710D01*
X39671D01*
Y34711D01*
Y34713D01*
Y34716D01*
X39671Y34721D01*
X39672Y34726D01*
X39673Y34731D01*
X39674Y34737D01*
X39676Y34743D01*
Y34743D01*
X39677Y34744D01*
X39678Y34747D01*
X39680Y34752D01*
X39684Y34759D01*
X39688Y34767D01*
X39694Y34775D01*
X39700Y34784D01*
X39707Y34794D01*
Y34794D01*
X39708Y34795D01*
X39711Y34798D01*
X39716Y34803D01*
X39723Y34810D01*
X39732Y34819D01*
X39742Y34829D01*
X39755Y34840D01*
X39769Y34852D01*
X39770Y34852D01*
X39772Y34854D01*
X39775Y34857D01*
X39779Y34860D01*
X39784Y34864D01*
X39790Y34869D01*
X39796Y34875D01*
X39803Y34881D01*
X39817Y34894D01*
X39831Y34908D01*
X39838Y34914D01*
X39844Y34921D01*
X39849Y34927D01*
X39854Y34933D01*
Y34934D01*
X39855Y34934D01*
X39856Y34936D01*
X39857Y34938D01*
X39861Y34944D01*
X39866Y34951D01*
X39869Y34960D01*
X39873Y34970D01*
X39876Y34980D01*
X39877Y34990D01*
Y34991D01*
Y34991D01*
X39876Y34995D01*
X39876Y35000D01*
X39874Y35006D01*
X39872Y35014D01*
X39868Y35022D01*
X39863Y35030D01*
X39856Y35037D01*
X39855Y35039D01*
X39852Y35041D01*
X39848Y35044D01*
X39842Y35047D01*
X39834Y35051D01*
X39826Y35054D01*
X39815Y35056D01*
X39803Y35057D01*
X39800D01*
X39798Y35056D01*
X39791Y35056D01*
X39783Y35054D01*
X39775Y35052D01*
X39766Y35048D01*
X39757Y35043D01*
X39748Y35036D01*
X39747Y35035D01*
X39745Y35032D01*
X39742Y35028D01*
X39738Y35021D01*
X39735Y35014D01*
X39731Y35004D01*
X39729Y34992D01*
X39728Y34980D01*
X39680Y34985D01*
Y34985D01*
X39680Y34987D01*
Y34990D01*
X39681Y34994D01*
X39682Y34998D01*
X39683Y35003D01*
X39685Y35009D01*
X39686Y35015D01*
X39691Y35029D01*
X39697Y35042D01*
X39701Y35049D01*
X39706Y35055D01*
X39711Y35061D01*
X39717Y35067D01*
X39717Y35067D01*
X39718Y35068D01*
X39720Y35070D01*
X39723Y35071D01*
X39726Y35074D01*
X39730Y35076D01*
X39735Y35079D01*
X39740Y35081D01*
X39746Y35084D01*
X39753Y35087D01*
X39760Y35089D01*
X39768Y35091D01*
X39776Y35093D01*
X39785Y35095D01*
X39795Y35095D01*
X39804Y35096D01*
X39810D01*
X39814Y35095D01*
D02*
G37*
G36*
X39493Y35094D02*
X39498D01*
X39509Y35093D01*
X39521Y35091D01*
X39535Y35090D01*
X39547Y35087D01*
X39553Y35085D01*
X39558Y35084D01*
X39559D01*
X39559Y35083D01*
X39563Y35081D01*
X39568Y35079D01*
X39574Y35075D01*
X39580Y35070D01*
X39588Y35064D01*
X39594Y35056D01*
X39601Y35047D01*
Y35046D01*
X39601Y35046D01*
X39604Y35042D01*
X39606Y35037D01*
X39609Y35030D01*
X39612Y35021D01*
X39615Y35011D01*
X39616Y35001D01*
X39617Y34989D01*
Y34989D01*
Y34987D01*
Y34985D01*
X39616Y34983D01*
Y34979D01*
X39616Y34975D01*
X39614Y34965D01*
X39610Y34954D01*
X39606Y34943D01*
X39599Y34931D01*
X39595Y34925D01*
X39590Y34920D01*
X39590Y34919D01*
X39589Y34919D01*
X39588Y34917D01*
X39585Y34915D01*
X39583Y34913D01*
X39579Y34911D01*
X39575Y34908D01*
X39570Y34905D01*
X39565Y34902D01*
X39559Y34899D01*
X39552Y34896D01*
X39545Y34893D01*
X39536Y34891D01*
X39528Y34888D01*
X39519Y34886D01*
X39509Y34885D01*
X39510Y34884D01*
X39512Y34883D01*
X39515Y34881D01*
X39520Y34879D01*
X39530Y34873D01*
X39535Y34869D01*
X39539Y34865D01*
X39540Y34864D01*
X39543Y34862D01*
X39548Y34857D01*
X39553Y34852D01*
X39559Y34844D01*
X39566Y34835D01*
X39574Y34825D01*
X39581Y34814D01*
X39647Y34710D01*
X39584D01*
X39534Y34790D01*
Y34790D01*
X39533Y34792D01*
X39531Y34793D01*
X39530Y34795D01*
X39526Y34802D01*
X39521Y34809D01*
X39515Y34818D01*
X39509Y34827D01*
X39503Y34835D01*
X39497Y34843D01*
X39496Y34843D01*
X39495Y34845D01*
X39492Y34849D01*
X39488Y34853D01*
X39480Y34861D01*
X39475Y34865D01*
X39471Y34868D01*
X39470Y34869D01*
X39469Y34869D01*
X39467Y34870D01*
X39464Y34872D01*
X39460Y34874D01*
X39457Y34875D01*
X39448Y34878D01*
X39447D01*
X39446Y34879D01*
X39444D01*
X39441Y34879D01*
X39437Y34880D01*
X39433D01*
X39427Y34880D01*
X39361D01*
Y34710D01*
X39310D01*
Y35094D01*
X39488D01*
X39493Y35094D01*
D02*
G37*
G36*
X38705Y34710D02*
X38658D01*
Y35010D01*
X38657Y35010D01*
X38654Y35007D01*
X38651Y35004D01*
X38646Y35000D01*
X38640Y34995D01*
X38632Y34990D01*
X38623Y34984D01*
X38613Y34978D01*
X38612D01*
X38612Y34977D01*
X38608Y34975D01*
X38603Y34972D01*
X38596Y34969D01*
X38588Y34965D01*
X38580Y34961D01*
X38572Y34957D01*
X38563Y34954D01*
Y34999D01*
X38564D01*
X38565Y35000D01*
X38567Y35001D01*
X38570Y35002D01*
X38573Y35004D01*
X38577Y35006D01*
X38587Y35012D01*
X38598Y35018D01*
X38609Y35026D01*
X38621Y35035D01*
X38632Y35044D01*
X38633Y35045D01*
X38633Y35045D01*
X38635Y35047D01*
X38637Y35049D01*
X38642Y35054D01*
X38649Y35061D01*
X38656Y35069D01*
X38663Y35077D01*
X38669Y35086D01*
X38674Y35096D01*
X38705D01*
Y34710D01*
D02*
G37*
G36*
X38343Y35094D02*
X38348D01*
X38359Y35093D01*
X38371Y35091D01*
X38385Y35090D01*
X38397Y35087D01*
X38403Y35085D01*
X38408Y35084D01*
X38409D01*
X38409Y35083D01*
X38413Y35081D01*
X38418Y35079D01*
X38424Y35075D01*
X38430Y35070D01*
X38438Y35064D01*
X38444Y35056D01*
X38451Y35047D01*
Y35046D01*
X38451Y35046D01*
X38454Y35042D01*
X38456Y35037D01*
X38459Y35030D01*
X38462Y35021D01*
X38465Y35011D01*
X38466Y35001D01*
X38467Y34989D01*
Y34989D01*
Y34987D01*
Y34985D01*
X38466Y34983D01*
Y34979D01*
X38466Y34975D01*
X38464Y34965D01*
X38460Y34954D01*
X38456Y34943D01*
X38449Y34931D01*
X38445Y34925D01*
X38440Y34920D01*
X38440Y34919D01*
X38439Y34919D01*
X38438Y34917D01*
X38435Y34915D01*
X38433Y34913D01*
X38429Y34911D01*
X38425Y34908D01*
X38420Y34905D01*
X38415Y34902D01*
X38409Y34899D01*
X38402Y34896D01*
X38395Y34893D01*
X38386Y34891D01*
X38378Y34888D01*
X38369Y34886D01*
X38359Y34885D01*
X38360Y34884D01*
X38362Y34883D01*
X38365Y34881D01*
X38370Y34879D01*
X38380Y34873D01*
X38385Y34869D01*
X38389Y34865D01*
X38390Y34864D01*
X38393Y34862D01*
X38398Y34857D01*
X38403Y34852D01*
X38409Y34844D01*
X38416Y34835D01*
X38424Y34825D01*
X38431Y34814D01*
X38497Y34710D01*
X38434D01*
X38384Y34790D01*
Y34790D01*
X38383Y34792D01*
X38381Y34793D01*
X38380Y34795D01*
X38376Y34802D01*
X38371Y34809D01*
X38365Y34818D01*
X38359Y34827D01*
X38353Y34835D01*
X38347Y34843D01*
X38346Y34843D01*
X38345Y34845D01*
X38342Y34849D01*
X38338Y34853D01*
X38330Y34861D01*
X38325Y34865D01*
X38321Y34868D01*
X38320Y34869D01*
X38319Y34869D01*
X38317Y34870D01*
X38314Y34872D01*
X38310Y34874D01*
X38307Y34875D01*
X38298Y34878D01*
X38297D01*
X38296Y34879D01*
X38294D01*
X38291Y34879D01*
X38287Y34880D01*
X38283D01*
X38277Y34880D01*
X38211D01*
Y34710D01*
X38160D01*
Y35094D01*
X38338D01*
X38343Y35094D01*
D02*
G37*
G36*
X42880Y38770D02*
X42885Y38770D01*
X42891Y38769D01*
X42898Y38768D01*
X42905Y38767D01*
X42920Y38764D01*
X42936Y38759D01*
X42945Y38755D01*
X42953Y38751D01*
X42960Y38746D01*
X42968Y38741D01*
X42969Y38741D01*
X42970Y38740D01*
X42972Y38739D01*
X42975Y38736D01*
X42977Y38733D01*
X42981Y38729D01*
X42985Y38725D01*
X42990Y38720D01*
X42994Y38715D01*
X42999Y38708D01*
X43004Y38701D01*
X43008Y38694D01*
X43012Y38686D01*
X43016Y38677D01*
X43020Y38669D01*
X43023Y38659D01*
X42973Y38647D01*
Y38648D01*
X42972Y38649D01*
X42971Y38651D01*
X42970Y38654D01*
X42969Y38657D01*
X42968Y38661D01*
X42963Y38670D01*
X42958Y38680D01*
X42951Y38690D01*
X42943Y38700D01*
X42934Y38708D01*
X42933Y38709D01*
X42929Y38711D01*
X42924Y38714D01*
X42916Y38718D01*
X42907Y38721D01*
X42896Y38725D01*
X42884Y38727D01*
X42870Y38727D01*
X42865D01*
X42863Y38727D01*
X42859D01*
X42854Y38726D01*
X42844Y38725D01*
X42832Y38722D01*
X42820Y38719D01*
X42807Y38713D01*
X42795Y38706D01*
X42795D01*
X42794Y38705D01*
X42790Y38702D01*
X42785Y38697D01*
X42779Y38691D01*
X42772Y38682D01*
X42765Y38673D01*
X42759Y38661D01*
X42754Y38649D01*
Y38648D01*
X42753Y38647D01*
X42753Y38645D01*
X42752Y38643D01*
X42751Y38639D01*
X42750Y38635D01*
X42748Y38626D01*
X42746Y38615D01*
X42744Y38603D01*
X42743Y38589D01*
X42742Y38575D01*
Y38574D01*
Y38573D01*
Y38570D01*
Y38566D01*
X42743Y38563D01*
Y38558D01*
X42743Y38552D01*
X42744Y38546D01*
X42745Y38533D01*
X42748Y38518D01*
X42752Y38504D01*
X42756Y38489D01*
Y38489D01*
X42757Y38488D01*
X42758Y38486D01*
X42759Y38483D01*
X42762Y38477D01*
X42767Y38469D01*
X42773Y38460D01*
X42781Y38450D01*
X42790Y38442D01*
X42800Y38434D01*
X42801D01*
X42802Y38434D01*
X42804Y38433D01*
X42806Y38432D01*
X42809Y38431D01*
X42812Y38429D01*
X42820Y38426D01*
X42830Y38422D01*
X42841Y38419D01*
X42853Y38417D01*
X42866Y38417D01*
X42870D01*
X42873Y38417D01*
X42877D01*
X42881Y38418D01*
X42891Y38420D01*
X42903Y38423D01*
X42914Y38427D01*
X42926Y38433D01*
X42933Y38437D01*
X42938Y38441D01*
X42939Y38442D01*
X42939Y38442D01*
X42941Y38444D01*
X42943Y38445D01*
X42945Y38448D01*
X42948Y38452D01*
X42951Y38455D01*
X42954Y38459D01*
X42958Y38464D01*
X42961Y38470D01*
X42965Y38475D01*
X42968Y38482D01*
X42971Y38489D01*
X42974Y38497D01*
X42976Y38505D01*
X42979Y38514D01*
X43030Y38502D01*
Y38501D01*
X43029Y38499D01*
X43028Y38495D01*
X43026Y38491D01*
X43025Y38486D01*
X43022Y38480D01*
X43020Y38473D01*
X43016Y38466D01*
X43009Y38450D01*
X42999Y38435D01*
X42992Y38427D01*
X42986Y38419D01*
X42980Y38413D01*
X42972Y38406D01*
X42971Y38406D01*
X42970Y38404D01*
X42968Y38403D01*
X42965Y38401D01*
X42960Y38398D01*
X42956Y38396D01*
X42950Y38393D01*
X42944Y38390D01*
X42936Y38387D01*
X42929Y38384D01*
X42920Y38381D01*
X42911Y38378D01*
X42902Y38376D01*
X42892Y38375D01*
X42881Y38374D01*
X42870Y38373D01*
X42864D01*
X42860Y38374D01*
X42855D01*
X42849Y38374D01*
X42842Y38376D01*
X42834Y38377D01*
X42818Y38379D01*
X42802Y38384D01*
X42785Y38390D01*
X42777Y38394D01*
X42769Y38398D01*
X42769Y38399D01*
X42768Y38399D01*
X42765Y38401D01*
X42763Y38403D01*
X42760Y38406D01*
X42756Y38409D01*
X42752Y38413D01*
X42747Y38417D01*
X42743Y38422D01*
X42738Y38427D01*
X42728Y38440D01*
X42718Y38455D01*
X42710Y38472D01*
Y38472D01*
X42709Y38474D01*
X42708Y38477D01*
X42707Y38480D01*
X42706Y38484D01*
X42704Y38490D01*
X42702Y38496D01*
X42700Y38503D01*
X42698Y38510D01*
X42696Y38518D01*
X42693Y38535D01*
X42691Y38555D01*
X42690Y38575D01*
Y38575D01*
Y38578D01*
Y38581D01*
X42691Y38585D01*
Y38590D01*
X42691Y38596D01*
X42692Y38603D01*
X42693Y38610D01*
X42696Y38626D01*
X42699Y38644D01*
X42705Y38662D01*
X42713Y38679D01*
X42713Y38680D01*
X42714Y38681D01*
X42715Y38684D01*
X42717Y38686D01*
X42719Y38690D01*
X42722Y38695D01*
X42729Y38705D01*
X42739Y38716D01*
X42750Y38727D01*
X42763Y38738D01*
X42778Y38747D01*
X42778Y38748D01*
X42780Y38749D01*
X42782Y38750D01*
X42785Y38751D01*
X42789Y38753D01*
X42794Y38755D01*
X42799Y38757D01*
X42805Y38759D01*
X42812Y38761D01*
X42819Y38764D01*
X42835Y38767D01*
X42853Y38770D01*
X42871Y38771D01*
X42876D01*
X42880Y38770D01*
D02*
G37*
G36*
X43271Y38515D02*
X43323D01*
Y38472D01*
X43271D01*
Y38380D01*
X43224D01*
Y38472D01*
X43057D01*
Y38515D01*
X43233Y38764D01*
X43271D01*
Y38515D01*
D02*
G37*
G36*
X37860Y41848D02*
X37865Y41848D01*
X37871Y41847D01*
X37877Y41846D01*
X37885Y41845D01*
X37899Y41841D01*
X37916Y41836D01*
X37924Y41833D01*
X37932Y41829D01*
X37940Y41824D01*
X37948Y41819D01*
X37948Y41819D01*
X37949Y41818D01*
X37952Y41817D01*
X37954Y41814D01*
X37957Y41811D01*
X37961Y41807D01*
X37965Y41803D01*
X37969Y41798D01*
X37974Y41793D01*
X37978Y41786D01*
X37983Y41779D01*
X37988Y41772D01*
X37992Y41764D01*
X37996Y41755D01*
X37999Y41747D01*
X38003Y41737D01*
X37953Y41725D01*
Y41725D01*
X37952Y41727D01*
X37951Y41729D01*
X37950Y41732D01*
X37949Y41735D01*
X37947Y41739D01*
X37943Y41748D01*
X37937Y41758D01*
X37931Y41768D01*
X37922Y41778D01*
X37913Y41786D01*
X37912Y41787D01*
X37909Y41789D01*
X37903Y41792D01*
X37896Y41796D01*
X37887Y41799D01*
X37876Y41803D01*
X37863Y41805D01*
X37850Y41805D01*
X37845D01*
X37842Y41805D01*
X37838D01*
X37834Y41804D01*
X37823Y41803D01*
X37812Y41800D01*
X37800Y41797D01*
X37787Y41791D01*
X37775Y41784D01*
X37775D01*
X37774Y41783D01*
X37770Y41780D01*
X37765Y41775D01*
X37759Y41769D01*
X37752Y41760D01*
X37745Y41751D01*
X37739Y41739D01*
X37734Y41727D01*
Y41726D01*
X37733Y41725D01*
X37732Y41723D01*
X37732Y41720D01*
X37731Y41717D01*
X37730Y41713D01*
X37728Y41704D01*
X37726Y41693D01*
X37724Y41681D01*
X37722Y41667D01*
X37722Y41653D01*
Y41652D01*
Y41651D01*
Y41648D01*
Y41644D01*
X37722Y41641D01*
Y41636D01*
X37723Y41630D01*
X37724Y41624D01*
X37725Y41611D01*
X37728Y41596D01*
X37731Y41582D01*
X37736Y41567D01*
Y41567D01*
X37736Y41566D01*
X37737Y41564D01*
X37739Y41561D01*
X37742Y41555D01*
X37747Y41547D01*
X37753Y41538D01*
X37761Y41528D01*
X37770Y41520D01*
X37780Y41512D01*
X37781D01*
X37782Y41512D01*
X37784Y41511D01*
X37786Y41510D01*
X37788Y41508D01*
X37792Y41507D01*
X37800Y41503D01*
X37810Y41500D01*
X37821Y41497D01*
X37833Y41495D01*
X37846Y41495D01*
X37850D01*
X37853Y41495D01*
X37857D01*
X37861Y41496D01*
X37871Y41498D01*
X37882Y41501D01*
X37894Y41505D01*
X37906Y41511D01*
X37912Y41515D01*
X37918Y41519D01*
X37918Y41520D01*
X37919Y41520D01*
X37921Y41522D01*
X37923Y41523D01*
X37925Y41526D01*
X37928Y41530D01*
X37931Y41533D01*
X37934Y41537D01*
X37937Y41542D01*
X37941Y41548D01*
X37944Y41553D01*
X37948Y41560D01*
X37951Y41567D01*
X37953Y41575D01*
X37956Y41583D01*
X37958Y41592D01*
X38009Y41580D01*
Y41579D01*
X38009Y41577D01*
X38008Y41573D01*
X38006Y41569D01*
X38004Y41564D01*
X38002Y41558D01*
X37999Y41551D01*
X37996Y41544D01*
X37988Y41528D01*
X37978Y41513D01*
X37972Y41505D01*
X37966Y41497D01*
X37959Y41491D01*
X37952Y41484D01*
X37951Y41483D01*
X37950Y41482D01*
X37947Y41481D01*
X37944Y41479D01*
X37940Y41476D01*
X37936Y41474D01*
X37929Y41471D01*
X37923Y41468D01*
X37916Y41465D01*
X37908Y41462D01*
X37900Y41459D01*
X37891Y41456D01*
X37882Y41454D01*
X37872Y41453D01*
X37861Y41452D01*
X37850Y41451D01*
X37844D01*
X37840Y41452D01*
X37835D01*
X37828Y41452D01*
X37822Y41454D01*
X37814Y41455D01*
X37798Y41457D01*
X37781Y41462D01*
X37765Y41468D01*
X37757Y41472D01*
X37749Y41476D01*
X37749Y41477D01*
X37747Y41477D01*
X37745Y41479D01*
X37743Y41481D01*
X37740Y41483D01*
X37736Y41487D01*
X37731Y41491D01*
X37727Y41495D01*
X37722Y41500D01*
X37717Y41505D01*
X37707Y41518D01*
X37698Y41533D01*
X37690Y41550D01*
Y41550D01*
X37689Y41552D01*
X37688Y41555D01*
X37686Y41558D01*
X37685Y41562D01*
X37684Y41568D01*
X37681Y41574D01*
X37680Y41581D01*
X37678Y41588D01*
X37676Y41596D01*
X37673Y41613D01*
X37671Y41633D01*
X37670Y41653D01*
Y41653D01*
Y41656D01*
Y41659D01*
X37670Y41663D01*
Y41668D01*
X37671Y41674D01*
X37671Y41681D01*
X37673Y41688D01*
X37675Y41704D01*
X37679Y41722D01*
X37685Y41740D01*
X37692Y41757D01*
X37693Y41758D01*
X37694Y41759D01*
X37695Y41762D01*
X37697Y41764D01*
X37699Y41768D01*
X37702Y41773D01*
X37709Y41783D01*
X37719Y41794D01*
X37730Y41805D01*
X37742Y41816D01*
X37757Y41825D01*
X37758Y41826D01*
X37760Y41826D01*
X37762Y41828D01*
X37765Y41829D01*
X37769Y41831D01*
X37774Y41833D01*
X37779Y41835D01*
X37785Y41837D01*
X37792Y41839D01*
X37799Y41841D01*
X37815Y41845D01*
X37832Y41848D01*
X37851Y41849D01*
X37856D01*
X37860Y41848D01*
D02*
G37*
G36*
X38230Y41458D02*
X38183D01*
Y41758D01*
X38183Y41758D01*
X38180Y41755D01*
X38176Y41752D01*
X38171Y41748D01*
X38165Y41743D01*
X38157Y41738D01*
X38148Y41732D01*
X38138Y41725D01*
X38138D01*
X38137Y41725D01*
X38134Y41723D01*
X38128Y41720D01*
X38121Y41717D01*
X38114Y41713D01*
X38105Y41709D01*
X38097Y41705D01*
X38089Y41702D01*
Y41747D01*
X38089D01*
X38090Y41748D01*
X38093Y41749D01*
X38095Y41750D01*
X38099Y41752D01*
X38103Y41754D01*
X38112Y41760D01*
X38123Y41766D01*
X38134Y41774D01*
X38146Y41783D01*
X38158Y41792D01*
X38158Y41793D01*
X38159Y41793D01*
X38160Y41795D01*
X38163Y41797D01*
X38168Y41802D01*
X38174Y41809D01*
X38181Y41817D01*
X38188Y41825D01*
X38194Y41834D01*
X38200Y41844D01*
X38230D01*
Y41458D01*
D02*
G37*
%LPC*%
G36*
X40330Y38171D02*
X40135D01*
Y38110D01*
X40135Y38107D01*
X40136Y38102D01*
X40136Y38095D01*
X40137Y38089D01*
X40138Y38082D01*
X40139Y38077D01*
X40140Y38076D01*
X40140Y38074D01*
X40141Y38071D01*
X40143Y38068D01*
X40145Y38064D01*
X40147Y38061D01*
X40150Y38057D01*
X40153Y38053D01*
X40153Y38053D01*
X40155Y38051D01*
X40157Y38049D01*
X40161Y38047D01*
X40166Y38044D01*
X40171Y38040D01*
X40178Y38037D01*
X40185Y38035D01*
X40185D01*
X40186Y38034D01*
X40187Y38034D01*
X40188Y38034D01*
X40190Y38033D01*
X40193Y38033D01*
X40195Y38032D01*
X40198Y38031D01*
X40206Y38030D01*
X40214Y38029D01*
X40224Y38028D01*
X40234Y38028D01*
X40235D01*
X40236D01*
X40238D01*
X40241Y38028D01*
X40244D01*
X40248Y38029D01*
X40252Y38029D01*
X40257Y38029D01*
X40267Y38031D01*
X40277Y38033D01*
X40287Y38037D01*
X40292Y38039D01*
X40296Y38041D01*
X40296D01*
X40297Y38042D01*
X40298Y38043D01*
X40299Y38043D01*
X40303Y38046D01*
X40308Y38050D01*
X40312Y38055D01*
X40317Y38060D01*
X40321Y38067D01*
X40325Y38073D01*
X40325Y38074D01*
X40325Y38076D01*
X40326Y38079D01*
X40328Y38084D01*
X40328Y38090D01*
X40329Y38097D01*
X40330Y38102D01*
Y38107D01*
X40330Y38111D01*
Y38171D01*
D02*
G37*
G36*
Y36916D02*
X40135D01*
Y36855D01*
X40135Y36853D01*
X40136Y36847D01*
X40136Y36841D01*
X40137Y36834D01*
X40138Y36827D01*
X40139Y36822D01*
X40140Y36821D01*
X40140Y36819D01*
X40141Y36817D01*
X40143Y36813D01*
X40145Y36810D01*
X40147Y36806D01*
X40150Y36802D01*
X40153Y36799D01*
X40153Y36798D01*
X40155Y36797D01*
X40157Y36794D01*
X40161Y36792D01*
X40166Y36789D01*
X40171Y36786D01*
X40178Y36783D01*
X40185Y36780D01*
X40185D01*
X40186Y36780D01*
X40187Y36779D01*
X40188Y36779D01*
X40190Y36779D01*
X40193Y36778D01*
X40195Y36777D01*
X40198Y36776D01*
X40206Y36775D01*
X40214Y36774D01*
X40224Y36773D01*
X40234Y36773D01*
X40235D01*
X40236D01*
X40238D01*
X40241Y36773D01*
X40244D01*
X40248Y36774D01*
X40252Y36774D01*
X40257Y36774D01*
X40267Y36776D01*
X40277Y36779D01*
X40287Y36782D01*
X40292Y36784D01*
X40296Y36786D01*
X40296D01*
X40297Y36787D01*
X40298Y36788D01*
X40299Y36789D01*
X40303Y36792D01*
X40308Y36795D01*
X40312Y36800D01*
X40317Y36806D01*
X40321Y36812D01*
X40325Y36819D01*
X40325Y36819D01*
X40325Y36821D01*
X40326Y36824D01*
X40328Y36829D01*
X40328Y36835D01*
X40329Y36843D01*
X40330Y36847D01*
Y36852D01*
X40330Y36857D01*
Y36916D01*
D02*
G37*
G36*
X40210Y36646D02*
Y36560D01*
X40280Y36586D01*
X40281D01*
X40282Y36587D01*
X40284Y36587D01*
X40286Y36588D01*
X40288Y36589D01*
X40292Y36590D01*
X40295Y36591D01*
X40299Y36593D01*
X40308Y36596D01*
X40316Y36599D01*
X40325Y36602D01*
X40334Y36604D01*
X40333D01*
X40333Y36605D01*
X40331D01*
X40330Y36605D01*
X40327Y36606D01*
X40325Y36607D01*
X40318Y36608D01*
X40311Y36610D01*
X40303Y36612D01*
X40294Y36615D01*
X40285Y36618D01*
X40210Y36646D01*
D02*
G37*
G36*
X53912Y35965D02*
X53791Y35793D01*
X53912D01*
Y35965D01*
D02*
G37*
G36*
X54184Y36005D02*
X54181D01*
X54179Y36004D01*
X54173Y36003D01*
X54165Y36002D01*
X54157Y35998D01*
X54148Y35993D01*
X54144Y35990D01*
X54139Y35987D01*
X54135Y35982D01*
X54132Y35977D01*
Y35977D01*
X54130Y35975D01*
X54129Y35973D01*
X54128Y35970D01*
X54126Y35966D01*
X54124Y35961D01*
X54122Y35955D01*
X54120Y35948D01*
X54118Y35939D01*
X54116Y35930D01*
X54113Y35919D01*
X54112Y35908D01*
X54110Y35894D01*
X54109Y35880D01*
X54108Y35864D01*
X54108Y35847D01*
Y35846D01*
Y35843D01*
Y35838D01*
X54108Y35832D01*
Y35824D01*
X54109Y35816D01*
X54109Y35806D01*
X54110Y35796D01*
X54113Y35775D01*
X54115Y35764D01*
X54117Y35754D01*
X54119Y35745D01*
X54123Y35736D01*
X54126Y35728D01*
X54130Y35721D01*
Y35721D01*
X54131Y35720D01*
X54134Y35716D01*
X54139Y35711D01*
X54145Y35706D01*
X54153Y35700D01*
X54163Y35695D01*
X54173Y35691D01*
X54179Y35691D01*
X54185Y35690D01*
X54188D01*
X54190Y35691D01*
X54196Y35692D01*
X54204Y35694D01*
X54212Y35698D01*
X54222Y35703D01*
X54226Y35707D01*
X54230Y35711D01*
X54235Y35716D01*
X54239Y35721D01*
Y35722D01*
X54240Y35723D01*
X54241Y35725D01*
X54243Y35727D01*
X54245Y35731D01*
X54246Y35736D01*
X54249Y35742D01*
X54251Y35748D01*
X54253Y35757D01*
X54255Y35766D01*
X54257Y35776D01*
X54259Y35787D01*
X54260Y35801D01*
X54261Y35814D01*
X54262Y35830D01*
Y35847D01*
Y35848D01*
Y35848D01*
Y35851D01*
Y35856D01*
X54261Y35863D01*
Y35870D01*
X54261Y35879D01*
X54260Y35888D01*
X54259Y35899D01*
X54256Y35920D01*
X54255Y35930D01*
X54253Y35940D01*
X54250Y35950D01*
X54247Y35959D01*
X54244Y35967D01*
X54240Y35973D01*
Y35974D01*
X54239Y35974D01*
X54238Y35976D01*
X54236Y35978D01*
X54231Y35983D01*
X54225Y35989D01*
X54216Y35995D01*
X54207Y36000D01*
X54202Y36002D01*
X54197Y36004D01*
X54190Y36004D01*
X54184Y36005D01*
D02*
G37*
G36*
X39482Y35051D02*
X39361D01*
Y34924D01*
X39475D01*
X39482Y34925D01*
X39490Y34925D01*
X39499Y34926D01*
X39508Y34927D01*
X39516Y34929D01*
X39524Y34931D01*
X39525Y34931D01*
X39528Y34933D01*
X39531Y34934D01*
X39535Y34936D01*
X39540Y34940D01*
X39545Y34944D01*
X39550Y34949D01*
X39554Y34954D01*
X39555Y34955D01*
X39556Y34957D01*
X39558Y34960D01*
X39560Y34965D01*
X39561Y34970D01*
X39563Y34975D01*
X39564Y34982D01*
X39565Y34989D01*
Y34989D01*
Y34990D01*
X39564Y34993D01*
X39564Y34998D01*
X39563Y35005D01*
X39560Y35011D01*
X39556Y35019D01*
X39551Y35026D01*
X39545Y35034D01*
X39544Y35034D01*
X39541Y35036D01*
X39536Y35039D01*
X39529Y35042D01*
X39521Y35046D01*
X39510Y35049D01*
X39497Y35051D01*
X39482Y35051D01*
D02*
G37*
G36*
X38332D02*
X38211D01*
Y34924D01*
X38325D01*
X38332Y34925D01*
X38340Y34925D01*
X38349Y34926D01*
X38358Y34927D01*
X38366Y34929D01*
X38374Y34931D01*
X38375Y34931D01*
X38378Y34933D01*
X38381Y34934D01*
X38385Y34936D01*
X38390Y34940D01*
X38395Y34944D01*
X38400Y34949D01*
X38404Y34954D01*
X38405Y34955D01*
X38406Y34957D01*
X38408Y34960D01*
X38410Y34965D01*
X38411Y34970D01*
X38413Y34975D01*
X38414Y34982D01*
X38415Y34989D01*
Y34989D01*
Y34990D01*
X38414Y34993D01*
X38414Y34998D01*
X38413Y35005D01*
X38410Y35011D01*
X38406Y35019D01*
X38401Y35026D01*
X38395Y35034D01*
X38394Y35034D01*
X38391Y35036D01*
X38386Y35039D01*
X38379Y35042D01*
X38371Y35046D01*
X38360Y35049D01*
X38347Y35051D01*
X38332Y35051D01*
D02*
G37*
G36*
X43224Y38687D02*
X43103Y38515D01*
X43224D01*
Y38687D01*
D02*
G37*
%LPD*%
D10*
X53685Y35394D02*
G03*
X53685Y35394I-20J0D01*
G01*
X38550Y40600D02*
X39050D01*
X39194Y39901D02*
Y41299D01*
X38406Y39901D02*
X39194D01*
X38406D02*
Y41299D01*
X39194D01*
X39400Y40600D02*
X39900D01*
X40044Y39901D02*
Y41299D01*
X39256Y39901D02*
X40044D01*
X39256D02*
Y41299D01*
X40044D01*
X40250Y40600D02*
X40750D01*
X40894Y39901D02*
Y41299D01*
X40106Y39901D02*
X40894D01*
X40106D02*
Y41299D01*
X40894D01*
X37556D02*
X38344D01*
X37556Y39901D02*
Y41299D01*
Y39901D02*
X38344D01*
Y41299D01*
X37700Y40600D02*
X38200D01*
X53055Y34724D02*
Y35276D01*
X53645Y34724D02*
Y35276D01*
X42706Y38149D02*
X43494D01*
X42706Y36751D02*
Y38149D01*
Y36751D02*
X43494D01*
Y38149D01*
X42850Y37450D02*
X43350D01*
D11*
X53708Y38848D02*
G03*
X53708Y38848I-39J0D01*
G01*
X41174Y37776D02*
Y38091D01*
X41371D01*
X41174Y36909D02*
Y37224D01*
Y36909D02*
X41371D01*
D12*
X52685Y39121D02*
Y39909D01*
X53748Y39121D02*
Y39909D01*
X39336Y33111D02*
Y34489D01*
X40064Y33111D02*
Y34489D01*
X39336Y33111D02*
X40064D01*
X39336Y34489D02*
X40064D01*
X38186Y33111D02*
Y34489D01*
X38914Y33111D02*
Y34489D01*
X38186Y33111D02*
X38914D01*
X38186Y34489D02*
X38914D01*
D13*
X39302Y35483D02*
X39931D01*
Y35207D02*
Y35483D01*
Y38830D02*
Y39105D01*
X39302Y38830D02*
X39931D01*
X36939Y35207D02*
Y39105D01*
Y35207D02*
X39931D01*
X36939Y39105D02*
X39931D01*
X39302Y38731D02*
Y38830D01*
Y35483D02*
Y35582D01*
X38809Y36172D02*
Y38141D01*
X37038D02*
X38809D01*
X37038Y36172D02*
X38809D01*
X38613Y38436D02*
Y38830D01*
X37924D02*
X38613D01*
X37924Y38436D02*
Y38830D01*
Y38436D02*
X38613D01*
X37924Y35877D02*
X38613D01*
X37924Y35483D02*
Y35877D01*
Y35483D02*
X38613D01*
Y35877D01*
X36990Y39460D02*
Y40060D01*
X37290D01*
X37390Y39960D01*
Y39760D01*
X37290Y39660D01*
X36990D01*
X37590Y39460D02*
X37790D01*
X37690D01*
Y40060D01*
X37590Y39960D01*
M02*
