G04*
G04 #@! TF.GenerationSoftware,Altium Limited,Altium Designer,23.0.1 (38)*
G04*
G04 Layer_Color=2752767*
%FSLAX24Y24*%
%MOIN*%
G70*
G04*
G04 #@! TF.SameCoordinates,76AA6A9F-6522-488D-AC0F-A5AD469E9F3A*
G04*
G04*
G04 #@! TF.FilePolarity,Positive*
G04*
G01*
G75*
%ADD12C,0.0050*%
%ADD34C,0.0067*%
D12*
X39200Y35775D02*
Y36175D01*
X39600D01*
Y35775D01*
X39200D01*
Y36563D02*
Y36963D01*
X39600D01*
Y36563D01*
X39200D01*
Y37350D02*
Y37750D01*
X39600D01*
Y37350D01*
X39200D01*
Y38137D02*
Y38537D01*
X39600D01*
Y38137D01*
X39200D01*
X55100Y39450D02*
X54900Y39850D01*
X55300D01*
X55100Y39450D01*
Y37100D02*
X54900Y37500D01*
X55300D01*
X55100Y37100D01*
Y37750D02*
X54900Y38150D01*
X55300D01*
X55100Y37750D01*
Y38350D02*
X54900Y38750D01*
X55300D01*
X55100Y38350D01*
Y38950D02*
X54900Y39350D01*
X55300D01*
X55100Y38950D01*
D34*
X46495Y40421D02*
G03*
X46495Y40421I-200J0D01*
G01*
X49644D02*
G03*
X49644Y40421I-200J0D01*
G01*
X43345D02*
G03*
X43345Y40421I-200J0D01*
G01*
Y34122D02*
G03*
X43345Y34122I-200J0D01*
G01*
X46495D02*
G03*
X46495Y34122I-200J0D01*
G01*
X49644D02*
G03*
X49644Y34122I-200J0D01*
G01*
M02*
