M48
;Layer_Color=9474304
;FILE_FORMAT=2:4
INCH,LZ
;TYPE=PLATED
T1F00S00C0.0315
T2F00S00C0.0402
T3F00S00C0.1575
%
T01
X040738Y0084
X041525
X042313
X0431
X045063
X04585
X046637
X047425
X049488
X050275
X051063
X05185
Y00555
X051063
X050275
X049488
X049469Y0113
X050256
X051044
X051831
T02
X0351Y00515
X0361
X0371
X0381
X0391
X0381Y011134
X0371
X0361
X0351
T03
X040787Y005107
X043937
Y011406
X040787
X047086
Y005107
M30
