G04*
G04 #@! TF.GenerationSoftware,Altium Limited,Altium Designer,23.0.1 (38)*
G04*
G04 Layer_Color=65535*
%FSLAX25Y25*%
%MOIN*%
G70*
G04*
G04 #@! TF.SameCoordinates,774D8BB4-ACF3-4C22-8FF0-7C46817B3CBB*
G04*
G04*
G04 #@! TF.FilePolarity,Positive*
G04*
G01*
G75*
%ADD10C,0.00787*%
%ADD11C,0.00500*%
%ADD12C,0.01000*%
G36*
X392387Y44488D02*
Y44139D01*
X389868Y43163D01*
Y43527D01*
X391699Y44182D01*
X391703D01*
X391710Y44186D01*
X391721Y44189D01*
X391736Y44197D01*
X391757Y44200D01*
X391779Y44208D01*
X391834Y44226D01*
X391896Y44248D01*
X391965Y44269D01*
X392110Y44313D01*
X392107D01*
X392099Y44317D01*
X392089Y44320D01*
X392074Y44324D01*
X392034Y44335D01*
X391979Y44353D01*
X391917Y44371D01*
X391848Y44393D01*
X391776Y44419D01*
X391699Y44448D01*
X389868Y45132D01*
Y45471D01*
X392387Y44488D01*
D02*
G37*
G36*
X391699Y42988D02*
X391728Y42985D01*
X391761Y42977D01*
X391797Y42970D01*
X391837Y42963D01*
X391925Y42934D01*
X391972Y42912D01*
X392016Y42890D01*
X392063Y42861D01*
X392110Y42828D01*
X392158Y42792D01*
X392201Y42748D01*
X392205Y42744D01*
X392212Y42737D01*
X392223Y42722D01*
X392238Y42704D01*
X392256Y42682D01*
X392274Y42653D01*
X392296Y42621D01*
X392314Y42581D01*
X392336Y42540D01*
X392358Y42493D01*
X392376Y42446D01*
X392394Y42391D01*
X392409Y42333D01*
X392420Y42271D01*
X392427Y42209D01*
X392431Y42140D01*
Y42107D01*
X392427Y42085D01*
X392424Y42056D01*
X392420Y42024D01*
X392413Y41987D01*
X392405Y41947D01*
X392383Y41860D01*
X392347Y41769D01*
X392325Y41721D01*
X392300Y41678D01*
X392267Y41634D01*
X392234Y41590D01*
X392231Y41587D01*
X392223Y41580D01*
X392212Y41569D01*
X392198Y41558D01*
X392180Y41539D01*
X392154Y41521D01*
X392129Y41500D01*
X392096Y41478D01*
X392059Y41456D01*
X392023Y41434D01*
X391936Y41394D01*
X391834Y41361D01*
X391779Y41350D01*
X391721Y41343D01*
X391681Y41652D01*
X391685D01*
X391692Y41656D01*
X391706Y41660D01*
X391725Y41663D01*
X391746Y41667D01*
X391772Y41674D01*
X391827Y41692D01*
X391892Y41718D01*
X391954Y41751D01*
X392012Y41787D01*
X392063Y41831D01*
X392067Y41838D01*
X392081Y41853D01*
X392099Y41882D01*
X392118Y41918D01*
X392140Y41962D01*
X392158Y42016D01*
X392172Y42078D01*
X392176Y42144D01*
Y42166D01*
X392172Y42180D01*
X392169Y42220D01*
X392158Y42271D01*
X392140Y42329D01*
X392114Y42391D01*
X392078Y42453D01*
X392027Y42511D01*
X392019Y42519D01*
X391998Y42537D01*
X391965Y42559D01*
X391921Y42588D01*
X391867Y42617D01*
X391805Y42639D01*
X391732Y42657D01*
X391652Y42664D01*
X391648D01*
X391641D01*
X391630D01*
X391615Y42661D01*
X391575Y42657D01*
X391528Y42646D01*
X391470Y42632D01*
X391412Y42606D01*
X391353Y42570D01*
X391299Y42522D01*
X391291Y42515D01*
X391277Y42497D01*
X391255Y42468D01*
X391230Y42428D01*
X391204Y42377D01*
X391182Y42315D01*
X391168Y42246D01*
X391160Y42169D01*
Y42136D01*
X391164Y42111D01*
X391168Y42078D01*
X391175Y42042D01*
X391182Y41998D01*
X391193Y41951D01*
X390920Y41987D01*
Y42005D01*
X390924Y42020D01*
Y42067D01*
X390916Y42107D01*
X390909Y42155D01*
X390898Y42209D01*
X390880Y42271D01*
X390855Y42329D01*
X390822Y42391D01*
Y42395D01*
X390818Y42399D01*
X390804Y42417D01*
X390778Y42442D01*
X390745Y42471D01*
X390698Y42500D01*
X390644Y42526D01*
X390582Y42544D01*
X390545Y42551D01*
X390505D01*
X390502D01*
X390498D01*
X390476D01*
X390447Y42544D01*
X390407Y42537D01*
X390363Y42522D01*
X390316Y42504D01*
X390269Y42475D01*
X390225Y42435D01*
X390221Y42431D01*
X390207Y42413D01*
X390189Y42388D01*
X390167Y42355D01*
X390148Y42311D01*
X390130Y42260D01*
X390116Y42202D01*
X390112Y42136D01*
Y42107D01*
X390119Y42075D01*
X390127Y42031D01*
X390141Y41984D01*
X390159Y41936D01*
X390189Y41885D01*
X390225Y41838D01*
X390229Y41834D01*
X390247Y41820D01*
X390272Y41798D01*
X390309Y41772D01*
X390356Y41747D01*
X390414Y41721D01*
X390483Y41700D01*
X390563Y41685D01*
X390509Y41376D01*
X390505D01*
X390494Y41379D01*
X390480Y41383D01*
X390458Y41387D01*
X390432Y41394D01*
X390403Y41405D01*
X390334Y41427D01*
X390254Y41463D01*
X390174Y41507D01*
X390097Y41561D01*
X390028Y41631D01*
X390025Y41634D01*
X390021Y41641D01*
X390014Y41652D01*
X390003Y41667D01*
X389988Y41685D01*
X389974Y41711D01*
X389959Y41736D01*
X389941Y41769D01*
X389912Y41842D01*
X389883Y41925D01*
X389865Y42024D01*
X389857Y42075D01*
Y42166D01*
X389861Y42206D01*
X389868Y42253D01*
X389879Y42311D01*
X389897Y42377D01*
X389919Y42442D01*
X389948Y42508D01*
Y42511D01*
X389952Y42515D01*
X389963Y42537D01*
X389985Y42570D01*
X390010Y42606D01*
X390047Y42650D01*
X390087Y42693D01*
X390134Y42737D01*
X390189Y42774D01*
X390196Y42777D01*
X390214Y42788D01*
X390247Y42803D01*
X390287Y42821D01*
X390334Y42839D01*
X390389Y42854D01*
X390451Y42865D01*
X390512Y42868D01*
X390520D01*
X390542D01*
X390571Y42865D01*
X390611Y42857D01*
X390658Y42846D01*
X390709Y42828D01*
X390760Y42806D01*
X390811Y42777D01*
X390818Y42774D01*
X390833Y42763D01*
X390858Y42741D01*
X390887Y42712D01*
X390920Y42675D01*
X390957Y42632D01*
X390989Y42581D01*
X391022Y42519D01*
Y42522D01*
X391026Y42530D01*
X391029Y42540D01*
X391033Y42555D01*
X391048Y42595D01*
X391069Y42646D01*
X391098Y42704D01*
X391135Y42763D01*
X391182Y42817D01*
X391237Y42868D01*
X391244Y42872D01*
X391266Y42886D01*
X391302Y42908D01*
X391350Y42930D01*
X391408Y42952D01*
X391477Y42974D01*
X391557Y42988D01*
X391645Y42992D01*
X391648D01*
X391659D01*
X391677D01*
X391699Y42988D01*
D02*
G37*
G36*
X392387Y40535D02*
X392034D01*
Y40888D01*
X392387D01*
Y40535D01*
D02*
G37*
G36*
X391699Y40051D02*
X391728Y40047D01*
X391761Y40040D01*
X391797Y40033D01*
X391837Y40025D01*
X391925Y39996D01*
X391972Y39974D01*
X392016Y39952D01*
X392063Y39923D01*
X392110Y39891D01*
X392158Y39854D01*
X392201Y39810D01*
X392205Y39807D01*
X392212Y39800D01*
X392223Y39785D01*
X392238Y39767D01*
X392256Y39745D01*
X392274Y39716D01*
X392296Y39683D01*
X392314Y39643D01*
X392336Y39603D01*
X392358Y39556D01*
X392376Y39508D01*
X392394Y39454D01*
X392409Y39396D01*
X392420Y39334D01*
X392427Y39272D01*
X392431Y39203D01*
Y39170D01*
X392427Y39148D01*
X392424Y39119D01*
X392420Y39086D01*
X392413Y39050D01*
X392405Y39010D01*
X392383Y38922D01*
X392347Y38831D01*
X392325Y38784D01*
X392300Y38740D01*
X392267Y38697D01*
X392234Y38653D01*
X392231Y38649D01*
X392223Y38642D01*
X392212Y38631D01*
X392198Y38620D01*
X392180Y38602D01*
X392154Y38584D01*
X392129Y38562D01*
X392096Y38540D01*
X392059Y38518D01*
X392023Y38497D01*
X391936Y38456D01*
X391834Y38424D01*
X391779Y38413D01*
X391721Y38405D01*
X391681Y38715D01*
X391685D01*
X391692Y38719D01*
X391706Y38722D01*
X391725Y38726D01*
X391746Y38729D01*
X391772Y38737D01*
X391827Y38755D01*
X391892Y38780D01*
X391954Y38813D01*
X392012Y38850D01*
X392063Y38893D01*
X392067Y38901D01*
X392081Y38915D01*
X392099Y38944D01*
X392118Y38981D01*
X392140Y39024D01*
X392158Y39079D01*
X392172Y39141D01*
X392176Y39206D01*
Y39228D01*
X392172Y39243D01*
X392169Y39283D01*
X392158Y39334D01*
X392140Y39392D01*
X392114Y39454D01*
X392078Y39516D01*
X392027Y39574D01*
X392019Y39581D01*
X391998Y39599D01*
X391965Y39621D01*
X391921Y39650D01*
X391867Y39680D01*
X391805Y39701D01*
X391732Y39720D01*
X391652Y39727D01*
X391648D01*
X391641D01*
X391630D01*
X391615Y39723D01*
X391575Y39720D01*
X391528Y39709D01*
X391470Y39694D01*
X391412Y39669D01*
X391353Y39632D01*
X391299Y39585D01*
X391291Y39578D01*
X391277Y39559D01*
X391255Y39530D01*
X391230Y39490D01*
X391204Y39439D01*
X391182Y39377D01*
X391168Y39308D01*
X391160Y39232D01*
Y39199D01*
X391164Y39173D01*
X391168Y39141D01*
X391175Y39104D01*
X391182Y39061D01*
X391193Y39013D01*
X390920Y39050D01*
Y39068D01*
X390924Y39083D01*
Y39130D01*
X390916Y39170D01*
X390909Y39217D01*
X390898Y39272D01*
X390880Y39334D01*
X390855Y39392D01*
X390822Y39454D01*
Y39457D01*
X390818Y39461D01*
X390804Y39479D01*
X390778Y39505D01*
X390745Y39534D01*
X390698Y39563D01*
X390644Y39588D01*
X390582Y39607D01*
X390545Y39614D01*
X390505D01*
X390502D01*
X390498D01*
X390476D01*
X390447Y39607D01*
X390407Y39599D01*
X390363Y39585D01*
X390316Y39567D01*
X390269Y39538D01*
X390225Y39498D01*
X390221Y39494D01*
X390207Y39476D01*
X390189Y39450D01*
X390167Y39417D01*
X390148Y39374D01*
X390130Y39323D01*
X390116Y39265D01*
X390112Y39199D01*
Y39170D01*
X390119Y39137D01*
X390127Y39093D01*
X390141Y39046D01*
X390159Y38999D01*
X390189Y38948D01*
X390225Y38901D01*
X390229Y38897D01*
X390247Y38882D01*
X390272Y38860D01*
X390309Y38835D01*
X390356Y38809D01*
X390414Y38784D01*
X390483Y38762D01*
X390563Y38748D01*
X390509Y38438D01*
X390505D01*
X390494Y38442D01*
X390480Y38445D01*
X390458Y38449D01*
X390432Y38456D01*
X390403Y38467D01*
X390334Y38489D01*
X390254Y38526D01*
X390174Y38569D01*
X390097Y38624D01*
X390028Y38693D01*
X390025Y38697D01*
X390021Y38704D01*
X390014Y38715D01*
X390003Y38729D01*
X389988Y38748D01*
X389974Y38773D01*
X389959Y38799D01*
X389941Y38831D01*
X389912Y38904D01*
X389883Y38988D01*
X389865Y39086D01*
X389857Y39137D01*
Y39228D01*
X389861Y39268D01*
X389868Y39316D01*
X389879Y39374D01*
X389897Y39439D01*
X389919Y39505D01*
X389948Y39570D01*
Y39574D01*
X389952Y39578D01*
X389963Y39599D01*
X389985Y39632D01*
X390010Y39669D01*
X390047Y39712D01*
X390087Y39756D01*
X390134Y39800D01*
X390189Y39836D01*
X390196Y39840D01*
X390214Y39851D01*
X390247Y39865D01*
X390287Y39883D01*
X390334Y39902D01*
X390389Y39916D01*
X390451Y39927D01*
X390512Y39931D01*
X390520D01*
X390542D01*
X390571Y39927D01*
X390611Y39920D01*
X390658Y39909D01*
X390709Y39891D01*
X390760Y39869D01*
X390811Y39840D01*
X390818Y39836D01*
X390833Y39825D01*
X390858Y39803D01*
X390887Y39774D01*
X390920Y39738D01*
X390957Y39694D01*
X390989Y39643D01*
X391022Y39581D01*
Y39585D01*
X391026Y39592D01*
X391029Y39603D01*
X391033Y39618D01*
X391048Y39658D01*
X391069Y39709D01*
X391098Y39767D01*
X391135Y39825D01*
X391182Y39880D01*
X391237Y39931D01*
X391244Y39934D01*
X391266Y39949D01*
X391302Y39971D01*
X391350Y39992D01*
X391408Y40014D01*
X391477Y40036D01*
X391557Y40051D01*
X391645Y40054D01*
X391648D01*
X391659D01*
X391677D01*
X391699Y40051D01*
D02*
G37*
G36*
X382000Y41978D02*
X381105Y41342D01*
X381101Y41338D01*
X381090Y41331D01*
X381075Y41323D01*
X381057Y41309D01*
X381006Y41276D01*
X380952Y41240D01*
X380955Y41236D01*
X380970Y41225D01*
X380992Y41210D01*
X381021Y41192D01*
X381079Y41152D01*
X381105Y41134D01*
X381126Y41120D01*
X382000Y40483D01*
Y40082D01*
X380697Y41054D01*
X379481Y40195D01*
Y40592D01*
X380129Y41050D01*
X380133D01*
X380136Y41058D01*
X380147Y41065D01*
X380162Y41076D01*
X380198Y41098D01*
X380242Y41130D01*
X380293Y41163D01*
X380344Y41196D01*
X380391Y41225D01*
X380435Y41251D01*
X380428Y41254D01*
X380413Y41265D01*
X380384Y41283D01*
X380347Y41309D01*
X380307Y41338D01*
X380256Y41374D01*
X380205Y41411D01*
X380151Y41454D01*
X379481Y41957D01*
Y42321D01*
X380679Y41447D01*
X382000Y42390D01*
Y41978D01*
D02*
G37*
G36*
X379780Y39165D02*
X382000D01*
Y38830D01*
X379780D01*
Y38000D01*
X379481D01*
Y39995D01*
X379780D01*
Y39165D01*
D02*
G37*
G36*
X371673Y41552D02*
X370778Y40915D01*
X370774Y40911D01*
X370763Y40904D01*
X370749Y40896D01*
X370730Y40882D01*
X370679Y40849D01*
X370625Y40813D01*
X370628Y40809D01*
X370643Y40798D01*
X370665Y40784D01*
X370694Y40766D01*
X370752Y40725D01*
X370778Y40707D01*
X370800Y40693D01*
X371673Y40056D01*
Y39655D01*
X370370Y40627D01*
X369154Y39768D01*
Y40165D01*
X369802Y40624D01*
X369806D01*
X369810Y40631D01*
X369820Y40638D01*
X369835Y40649D01*
X369871Y40671D01*
X369915Y40704D01*
X369966Y40736D01*
X370017Y40769D01*
X370064Y40798D01*
X370108Y40824D01*
X370101Y40827D01*
X370086Y40838D01*
X370057Y40857D01*
X370021Y40882D01*
X369981Y40911D01*
X369930Y40947D01*
X369879Y40984D01*
X369824Y41028D01*
X369154Y41530D01*
Y41894D01*
X370352Y41020D01*
X371673Y41963D01*
Y41552D01*
D02*
G37*
G36*
Y39175D02*
X371149Y38844D01*
X371145D01*
X371138Y38836D01*
X371127Y38829D01*
X371113Y38818D01*
X371073Y38793D01*
X371022Y38760D01*
X370967Y38720D01*
X370909Y38680D01*
X370854Y38640D01*
X370803Y38603D01*
X370800Y38600D01*
X370785Y38589D01*
X370763Y38571D01*
X370738Y38545D01*
X370683Y38491D01*
X370658Y38461D01*
X370636Y38432D01*
X370632Y38429D01*
X370628Y38421D01*
X370621Y38407D01*
X370610Y38385D01*
X370599Y38363D01*
X370588Y38338D01*
X370570Y38279D01*
Y38276D01*
X370567Y38269D01*
Y38254D01*
X370563Y38236D01*
X370559Y38210D01*
Y38181D01*
X370556Y38141D01*
Y37712D01*
X371673D01*
Y37377D01*
X369154D01*
Y38545D01*
X369158Y38574D01*
Y38607D01*
X369162Y38683D01*
X369173Y38763D01*
X369183Y38851D01*
X369202Y38931D01*
X369213Y38971D01*
X369223Y39004D01*
Y39007D01*
X369227Y39011D01*
X369238Y39033D01*
X369253Y39066D01*
X369278Y39106D01*
X369311Y39149D01*
X369355Y39197D01*
X369406Y39240D01*
X369464Y39284D01*
X369467D01*
X369471Y39288D01*
X369493Y39302D01*
X369529Y39317D01*
X369577Y39339D01*
X369631Y39357D01*
X369697Y39375D01*
X369766Y39386D01*
X369842Y39390D01*
X369846D01*
X369853D01*
X369868D01*
X369886Y39386D01*
X369911D01*
X369937Y39382D01*
X369999Y39368D01*
X370072Y39346D01*
X370148Y39317D01*
X370224Y39273D01*
X370261Y39244D01*
X370297Y39215D01*
X370301Y39211D01*
X370305Y39208D01*
X370316Y39197D01*
X370326Y39182D01*
X370341Y39164D01*
X370356Y39142D01*
X370374Y39113D01*
X370396Y39084D01*
X370414Y39047D01*
X370432Y39007D01*
X370454Y38964D01*
X370472Y38916D01*
X370487Y38862D01*
X370505Y38807D01*
X370516Y38745D01*
X370527Y38680D01*
X370530Y38687D01*
X370537Y38702D01*
X370552Y38723D01*
X370567Y38753D01*
X370607Y38818D01*
X370632Y38851D01*
X370654Y38880D01*
X370661Y38887D01*
X370679Y38906D01*
X370709Y38935D01*
X370745Y38971D01*
X370796Y39011D01*
X370851Y39058D01*
X370916Y39106D01*
X370989Y39157D01*
X371673Y39590D01*
Y39175D01*
D02*
G37*
G36*
X361351Y44395D02*
X361372Y44387D01*
X361402Y44376D01*
X361434Y44366D01*
X361474Y44351D01*
X361518Y44333D01*
X361565Y44311D01*
X361667Y44260D01*
X361769Y44194D01*
X361820Y44154D01*
X361871Y44114D01*
X361915Y44071D01*
X361958Y44020D01*
X361962Y44016D01*
X361969Y44009D01*
X361977Y43990D01*
X361991Y43972D01*
X362009Y43943D01*
X362028Y43914D01*
X362046Y43874D01*
X362064Y43834D01*
X362086Y43787D01*
X362104Y43736D01*
X362122Y43681D01*
X362140Y43623D01*
X362155Y43561D01*
X362162Y43496D01*
X362170Y43426D01*
X362173Y43354D01*
Y43314D01*
X362170Y43284D01*
Y43252D01*
X362166Y43212D01*
X362159Y43168D01*
X362151Y43117D01*
X362133Y43011D01*
X362104Y42902D01*
X362064Y42793D01*
X362038Y42742D01*
X362009Y42691D01*
X362006Y42687D01*
X362002Y42680D01*
X361991Y42666D01*
X361977Y42651D01*
X361962Y42629D01*
X361940Y42604D01*
X361915Y42575D01*
X361886Y42546D01*
X361853Y42516D01*
X361820Y42484D01*
X361736Y42418D01*
X361638Y42356D01*
X361529Y42302D01*
X361525D01*
X361514Y42294D01*
X361496Y42291D01*
X361474Y42280D01*
X361445Y42272D01*
X361409Y42261D01*
X361369Y42247D01*
X361325Y42236D01*
X361278Y42225D01*
X361223Y42211D01*
X361110Y42192D01*
X360983Y42178D01*
X360852Y42171D01*
X360848D01*
X360834D01*
X360812D01*
X360786Y42174D01*
X360750D01*
X360714Y42178D01*
X360666Y42182D01*
X360619Y42189D01*
X360513Y42207D01*
X360397Y42232D01*
X360280Y42269D01*
X360168Y42320D01*
X360164Y42323D01*
X360153Y42327D01*
X360138Y42334D01*
X360120Y42349D01*
X360095Y42364D01*
X360066Y42382D01*
X360000Y42429D01*
X359927Y42491D01*
X359855Y42564D01*
X359782Y42647D01*
X359720Y42746D01*
X359716Y42749D01*
X359713Y42760D01*
X359705Y42775D01*
X359694Y42793D01*
X359683Y42822D01*
X359672Y42851D01*
X359658Y42888D01*
X359643Y42928D01*
X359629Y42971D01*
X359614Y43019D01*
X359592Y43121D01*
X359574Y43237D01*
X359567Y43357D01*
Y43394D01*
X359571Y43419D01*
X359574Y43452D01*
X359578Y43492D01*
X359581Y43532D01*
X359592Y43579D01*
X359614Y43677D01*
X359647Y43787D01*
X359669Y43841D01*
X359694Y43892D01*
X359727Y43943D01*
X359760Y43994D01*
X359764Y43998D01*
X359767Y44005D01*
X359778Y44020D01*
X359796Y44038D01*
X359815Y44056D01*
X359840Y44082D01*
X359869Y44107D01*
X359898Y44136D01*
X359935Y44165D01*
X359978Y44194D01*
X360022Y44227D01*
X360069Y44256D01*
X360124Y44282D01*
X360178Y44311D01*
X360237Y44333D01*
X360302Y44355D01*
X360379Y44027D01*
X360375D01*
X360368Y44023D01*
X360353Y44016D01*
X360335Y44009D01*
X360313Y44001D01*
X360284Y43990D01*
X360226Y43961D01*
X360160Y43925D01*
X360095Y43881D01*
X360033Y43827D01*
X359978Y43769D01*
X359971Y43761D01*
X359956Y43739D01*
X359938Y43703D01*
X359913Y43656D01*
X359891Y43594D01*
X359869Y43525D01*
X359855Y43441D01*
X359851Y43350D01*
Y43321D01*
X359855Y43303D01*
Y43277D01*
X359858Y43248D01*
X359869Y43179D01*
X359884Y43102D01*
X359909Y43022D01*
X359946Y42939D01*
X359993Y42862D01*
Y42858D01*
X360000Y42855D01*
X360018Y42829D01*
X360047Y42797D01*
X360091Y42757D01*
X360146Y42709D01*
X360208Y42666D01*
X360284Y42625D01*
X360368Y42589D01*
X360371D01*
X360379Y42586D01*
X360390Y42582D01*
X360408Y42578D01*
X360430Y42571D01*
X360455Y42564D01*
X360517Y42553D01*
X360590Y42538D01*
X360670Y42524D01*
X360757Y42516D01*
X360852Y42513D01*
X360856D01*
X360866D01*
X360885D01*
X360907D01*
X360932Y42516D01*
X360965D01*
X361001Y42520D01*
X361041Y42524D01*
X361128Y42535D01*
X361223Y42553D01*
X361318Y42575D01*
X361412Y42604D01*
X361416D01*
X361423Y42607D01*
X361434Y42615D01*
X361453Y42622D01*
X361496Y42644D01*
X361547Y42676D01*
X361605Y42717D01*
X361667Y42768D01*
X361722Y42826D01*
X361773Y42895D01*
Y42898D01*
X361776Y42906D01*
X361784Y42917D01*
X361791Y42931D01*
X361798Y42950D01*
X361809Y42971D01*
X361831Y43022D01*
X361853Y43088D01*
X361871Y43161D01*
X361886Y43241D01*
X361889Y43324D01*
Y43350D01*
X361886Y43372D01*
Y43397D01*
X361882Y43423D01*
X361867Y43488D01*
X361849Y43565D01*
X361820Y43641D01*
X361780Y43721D01*
X361758Y43761D01*
X361729Y43798D01*
X361725Y43801D01*
X361722Y43805D01*
X361711Y43816D01*
X361700Y43830D01*
X361682Y43845D01*
X361660Y43863D01*
X361638Y43885D01*
X361609Y43903D01*
X361576Y43925D01*
X361540Y43951D01*
X361503Y43972D01*
X361460Y43994D01*
X361412Y44012D01*
X361362Y44031D01*
X361307Y44049D01*
X361249Y44063D01*
X361332Y44398D01*
X361336D01*
X361351Y44395D01*
D02*
G37*
G36*
X362129Y39925D02*
X359611D01*
Y41748D01*
X359909D01*
Y40260D01*
X360677D01*
Y41654D01*
X360976D01*
Y40260D01*
X361831D01*
Y41807D01*
X362129D01*
Y39925D01*
D02*
G37*
G36*
Y39015D02*
X360153Y37697D01*
X362129D01*
Y37377D01*
X359611D01*
Y37719D01*
X361591Y39040D01*
X359611D01*
Y39360D01*
X362129D01*
Y39015D01*
D02*
G37*
G36*
X351851Y45168D02*
X351872Y45160D01*
X351902Y45149D01*
X351934Y45138D01*
X351974Y45124D01*
X352018Y45106D01*
X352065Y45084D01*
X352167Y45033D01*
X352269Y44967D01*
X352320Y44927D01*
X352371Y44887D01*
X352415Y44844D01*
X352458Y44793D01*
X352462Y44789D01*
X352469Y44782D01*
X352477Y44763D01*
X352491Y44745D01*
X352509Y44716D01*
X352528Y44687D01*
X352546Y44647D01*
X352564Y44607D01*
X352586Y44560D01*
X352604Y44509D01*
X352622Y44454D01*
X352640Y44396D01*
X352655Y44334D01*
X352662Y44269D01*
X352670Y44199D01*
X352673Y44126D01*
Y44087D01*
X352670Y44057D01*
Y44025D01*
X352666Y43985D01*
X352659Y43941D01*
X352651Y43890D01*
X352633Y43784D01*
X352604Y43675D01*
X352564Y43566D01*
X352538Y43515D01*
X352509Y43464D01*
X352506Y43460D01*
X352502Y43453D01*
X352491Y43439D01*
X352477Y43424D01*
X352462Y43402D01*
X352440Y43377D01*
X352415Y43348D01*
X352386Y43319D01*
X352353Y43289D01*
X352320Y43257D01*
X352236Y43191D01*
X352138Y43129D01*
X352029Y43075D01*
X352025D01*
X352014Y43067D01*
X351996Y43064D01*
X351974Y43053D01*
X351945Y43045D01*
X351909Y43034D01*
X351869Y43020D01*
X351825Y43009D01*
X351778Y42998D01*
X351723Y42984D01*
X351610Y42965D01*
X351483Y42951D01*
X351352Y42944D01*
X351348D01*
X351334D01*
X351312D01*
X351286Y42947D01*
X351250D01*
X351214Y42951D01*
X351166Y42954D01*
X351119Y42962D01*
X351013Y42980D01*
X350897Y43005D01*
X350780Y43042D01*
X350668Y43093D01*
X350664Y43096D01*
X350653Y43100D01*
X350638Y43107D01*
X350620Y43122D01*
X350595Y43137D01*
X350566Y43155D01*
X350500Y43202D01*
X350427Y43264D01*
X350355Y43337D01*
X350282Y43420D01*
X350220Y43519D01*
X350216Y43522D01*
X350213Y43533D01*
X350205Y43548D01*
X350194Y43566D01*
X350183Y43595D01*
X350172Y43624D01*
X350158Y43661D01*
X350143Y43701D01*
X350129Y43744D01*
X350114Y43792D01*
X350092Y43894D01*
X350074Y44010D01*
X350067Y44130D01*
Y44167D01*
X350071Y44192D01*
X350074Y44225D01*
X350078Y44265D01*
X350081Y44305D01*
X350092Y44352D01*
X350114Y44451D01*
X350147Y44560D01*
X350169Y44614D01*
X350194Y44665D01*
X350227Y44716D01*
X350260Y44767D01*
X350264Y44771D01*
X350267Y44778D01*
X350278Y44793D01*
X350296Y44811D01*
X350314Y44829D01*
X350340Y44855D01*
X350369Y44880D01*
X350398Y44909D01*
X350435Y44938D01*
X350478Y44967D01*
X350522Y45000D01*
X350569Y45029D01*
X350624Y45055D01*
X350678Y45084D01*
X350737Y45106D01*
X350802Y45127D01*
X350879Y44800D01*
X350875D01*
X350868Y44796D01*
X350853Y44789D01*
X350835Y44782D01*
X350813Y44774D01*
X350784Y44763D01*
X350726Y44734D01*
X350660Y44698D01*
X350595Y44654D01*
X350533Y44600D01*
X350478Y44541D01*
X350471Y44534D01*
X350456Y44512D01*
X350438Y44476D01*
X350413Y44429D01*
X350391Y44367D01*
X350369Y44298D01*
X350355Y44214D01*
X350351Y44123D01*
Y44094D01*
X350355Y44076D01*
Y44050D01*
X350358Y44021D01*
X350369Y43952D01*
X350384Y43875D01*
X350409Y43795D01*
X350446Y43712D01*
X350493Y43635D01*
Y43632D01*
X350500Y43628D01*
X350518Y43602D01*
X350547Y43570D01*
X350591Y43530D01*
X350646Y43482D01*
X350708Y43439D01*
X350784Y43398D01*
X350868Y43362D01*
X350871D01*
X350879Y43358D01*
X350890Y43355D01*
X350908Y43351D01*
X350930Y43344D01*
X350955Y43337D01*
X351017Y43326D01*
X351090Y43311D01*
X351170Y43297D01*
X351257Y43289D01*
X351352Y43286D01*
X351356D01*
X351366D01*
X351385D01*
X351407D01*
X351432Y43289D01*
X351465D01*
X351501Y43293D01*
X351541Y43297D01*
X351628Y43308D01*
X351723Y43326D01*
X351818Y43348D01*
X351912Y43377D01*
X351916D01*
X351923Y43380D01*
X351934Y43388D01*
X351953Y43395D01*
X351996Y43417D01*
X352047Y43450D01*
X352105Y43490D01*
X352167Y43540D01*
X352222Y43599D01*
X352273Y43668D01*
Y43672D01*
X352276Y43679D01*
X352284Y43690D01*
X352291Y43704D01*
X352298Y43723D01*
X352309Y43744D01*
X352331Y43795D01*
X352353Y43861D01*
X352371Y43934D01*
X352386Y44014D01*
X352389Y44097D01*
Y44123D01*
X352386Y44145D01*
Y44170D01*
X352382Y44196D01*
X352367Y44261D01*
X352349Y44338D01*
X352320Y44414D01*
X352280Y44494D01*
X352258Y44534D01*
X352229Y44571D01*
X352225Y44574D01*
X352222Y44578D01*
X352211Y44589D01*
X352200Y44603D01*
X352182Y44618D01*
X352160Y44636D01*
X352138Y44658D01*
X352109Y44676D01*
X352076Y44698D01*
X352040Y44723D01*
X352003Y44745D01*
X351960Y44767D01*
X351912Y44785D01*
X351862Y44804D01*
X351807Y44822D01*
X351749Y44836D01*
X351832Y45171D01*
X351836D01*
X351851Y45168D01*
D02*
G37*
G36*
X351432Y42579D02*
X351461D01*
X351530Y42576D01*
X351610Y42565D01*
X351694Y42554D01*
X351781Y42536D01*
X351869Y42514D01*
X351872D01*
X351880Y42510D01*
X351891Y42507D01*
X351905Y42503D01*
X351945Y42489D01*
X351996Y42467D01*
X352054Y42445D01*
X352113Y42416D01*
X352174Y42379D01*
X352233Y42343D01*
X352240Y42339D01*
X352258Y42325D01*
X352284Y42303D01*
X352316Y42274D01*
X352353Y42241D01*
X352389Y42201D01*
X352429Y42161D01*
X352462Y42114D01*
X352466Y42106D01*
X352477Y42092D01*
X352491Y42066D01*
X352509Y42030D01*
X352531Y41986D01*
X352549Y41935D01*
X352571Y41877D01*
X352590Y41811D01*
Y41804D01*
X352593Y41793D01*
X352597Y41782D01*
X352600Y41746D01*
X352608Y41695D01*
X352615Y41637D01*
X352622Y41568D01*
X352626Y41491D01*
X352629Y41407D01*
Y40501D01*
X350111D01*
Y41469D01*
X350114Y41535D01*
X350118Y41608D01*
X350125Y41680D01*
X350136Y41753D01*
X350147Y41815D01*
Y41819D01*
X350151Y41826D01*
Y41837D01*
X350158Y41851D01*
X350169Y41892D01*
X350187Y41943D01*
X350213Y42001D01*
X350245Y42063D01*
X350282Y42125D01*
X350329Y42183D01*
X350333Y42186D01*
X350336Y42190D01*
X350347Y42201D01*
X350358Y42215D01*
X350395Y42252D01*
X350446Y42296D01*
X350507Y42343D01*
X350580Y42394D01*
X350664Y42441D01*
X350759Y42481D01*
X350762D01*
X350769Y42485D01*
X350784Y42492D01*
X350806Y42496D01*
X350831Y42507D01*
X350861Y42514D01*
X350893Y42521D01*
X350933Y42532D01*
X350973Y42543D01*
X351021Y42550D01*
X351123Y42569D01*
X351235Y42579D01*
X351359Y42583D01*
X351363D01*
X351370D01*
X351388D01*
X351407D01*
X351432Y42579D01*
D02*
G37*
G36*
X352629Y39853D02*
X351865Y39558D01*
Y38503D01*
X352629Y38230D01*
Y37877D01*
X350111Y38838D01*
Y39202D01*
X352629Y40232D01*
Y39853D01*
D02*
G37*
G36*
X382130Y125364D02*
X379611D01*
Y125698D01*
X381831D01*
Y126940D01*
X382130D01*
Y125364D01*
D02*
G37*
G36*
X381351Y124963D02*
X381372Y124956D01*
X381401Y124945D01*
X381434Y124934D01*
X381474Y124919D01*
X381518Y124901D01*
X381565Y124879D01*
X381667Y124828D01*
X381769Y124763D01*
X381820Y124723D01*
X381871Y124683D01*
X381915Y124639D01*
X381958Y124588D01*
X381962Y124584D01*
X381969Y124577D01*
X381977Y124559D01*
X381991Y124541D01*
X382009Y124512D01*
X382028Y124483D01*
X382046Y124443D01*
X382064Y124402D01*
X382086Y124355D01*
X382104Y124304D01*
X382122Y124250D01*
X382140Y124191D01*
X382155Y124129D01*
X382162Y124064D01*
X382170Y123995D01*
X382173Y123922D01*
Y123882D01*
X382170Y123853D01*
Y123820D01*
X382166Y123780D01*
X382159Y123736D01*
X382151Y123685D01*
X382133Y123580D01*
X382104Y123471D01*
X382064Y123362D01*
X382038Y123310D01*
X382009Y123259D01*
X382006Y123256D01*
X382002Y123249D01*
X381991Y123234D01*
X381977Y123220D01*
X381962Y123198D01*
X381940Y123172D01*
X381915Y123143D01*
X381886Y123114D01*
X381853Y123085D01*
X381820Y123052D01*
X381736Y122986D01*
X381638Y122925D01*
X381529Y122870D01*
X381525D01*
X381514Y122863D01*
X381496Y122859D01*
X381474Y122848D01*
X381445Y122841D01*
X381409Y122830D01*
X381369Y122816D01*
X381325Y122804D01*
X381278Y122794D01*
X381223Y122779D01*
X381110Y122761D01*
X380983Y122746D01*
X380852Y122739D01*
X380848D01*
X380834D01*
X380812D01*
X380786Y122743D01*
X380750D01*
X380714Y122746D01*
X380666Y122750D01*
X380619Y122757D01*
X380513Y122775D01*
X380397Y122801D01*
X380280Y122837D01*
X380168Y122888D01*
X380164Y122892D01*
X380153Y122896D01*
X380138Y122903D01*
X380120Y122917D01*
X380095Y122932D01*
X380066Y122950D01*
X380000Y122997D01*
X379927Y123059D01*
X379854Y123132D01*
X379782Y123216D01*
X379720Y123314D01*
X379716Y123318D01*
X379713Y123329D01*
X379705Y123343D01*
X379694Y123362D01*
X379683Y123391D01*
X379673Y123420D01*
X379658Y123456D01*
X379643Y123496D01*
X379629Y123540D01*
X379614Y123587D01*
X379592Y123689D01*
X379574Y123805D01*
X379567Y123926D01*
Y123962D01*
X379571Y123987D01*
X379574Y124020D01*
X379578Y124060D01*
X379581Y124100D01*
X379592Y124148D01*
X379614Y124246D01*
X379647Y124355D01*
X379669Y124410D01*
X379694Y124461D01*
X379727Y124512D01*
X379760Y124563D01*
X379764Y124566D01*
X379767Y124574D01*
X379778Y124588D01*
X379796Y124606D01*
X379815Y124625D01*
X379840Y124650D01*
X379869Y124676D01*
X379898Y124705D01*
X379935Y124734D01*
X379978Y124763D01*
X380022Y124796D01*
X380069Y124825D01*
X380124Y124850D01*
X380178Y124879D01*
X380237Y124901D01*
X380302Y124923D01*
X380379Y124595D01*
X380375D01*
X380368Y124592D01*
X380353Y124584D01*
X380335Y124577D01*
X380313Y124570D01*
X380284Y124559D01*
X380226Y124530D01*
X380160Y124494D01*
X380095Y124450D01*
X380033Y124395D01*
X379978Y124337D01*
X379971Y124330D01*
X379956Y124308D01*
X379938Y124272D01*
X379913Y124224D01*
X379891Y124162D01*
X379869Y124093D01*
X379854Y124009D01*
X379851Y123918D01*
Y123889D01*
X379854Y123871D01*
Y123846D01*
X379858Y123817D01*
X379869Y123747D01*
X379884Y123671D01*
X379909Y123591D01*
X379945Y123507D01*
X379993Y123431D01*
Y123427D01*
X380000Y123423D01*
X380018Y123398D01*
X380047Y123365D01*
X380091Y123325D01*
X380146Y123278D01*
X380208Y123234D01*
X380284Y123194D01*
X380368Y123158D01*
X380371D01*
X380379Y123154D01*
X380390Y123150D01*
X380408Y123147D01*
X380430Y123139D01*
X380455Y123132D01*
X380517Y123121D01*
X380590Y123107D01*
X380670Y123092D01*
X380757Y123085D01*
X380852Y123081D01*
X380855D01*
X380866D01*
X380885D01*
X380907D01*
X380932Y123085D01*
X380965D01*
X381001Y123089D01*
X381041Y123092D01*
X381129Y123103D01*
X381223Y123121D01*
X381318Y123143D01*
X381412Y123172D01*
X381416D01*
X381423Y123176D01*
X381434Y123183D01*
X381452Y123190D01*
X381496Y123212D01*
X381547Y123245D01*
X381605Y123285D01*
X381667Y123336D01*
X381722Y123394D01*
X381773Y123463D01*
Y123467D01*
X381776Y123474D01*
X381784Y123485D01*
X381791Y123500D01*
X381798Y123518D01*
X381809Y123540D01*
X381831Y123591D01*
X381853Y123656D01*
X381871Y123729D01*
X381886Y123809D01*
X381889Y123893D01*
Y123918D01*
X381886Y123940D01*
Y123966D01*
X381882Y123991D01*
X381867Y124057D01*
X381849Y124133D01*
X381820Y124210D01*
X381780Y124290D01*
X381758Y124330D01*
X381729Y124366D01*
X381726Y124370D01*
X381722Y124373D01*
X381711Y124384D01*
X381700Y124399D01*
X381682Y124413D01*
X381660Y124432D01*
X381638Y124453D01*
X381609Y124472D01*
X381576Y124494D01*
X381540Y124519D01*
X381503Y124541D01*
X381460Y124563D01*
X381412Y124581D01*
X381362Y124599D01*
X381307Y124617D01*
X381249Y124632D01*
X381332Y124967D01*
X381336D01*
X381351Y124963D01*
D02*
G37*
G36*
X381496Y122371D02*
X381547Y122364D01*
X381605Y122350D01*
X381667Y122331D01*
X381733Y122302D01*
X381802Y122262D01*
X381806D01*
X381809Y122258D01*
X381831Y122240D01*
X381864Y122215D01*
X381900Y122178D01*
X381944Y122131D01*
X381991Y122073D01*
X382035Y122007D01*
X382075Y121931D01*
Y121927D01*
X382079Y121920D01*
X382082Y121909D01*
X382089Y121895D01*
X382097Y121873D01*
X382108Y121847D01*
X382122Y121789D01*
X382140Y121720D01*
X382159Y121636D01*
X382170Y121545D01*
X382173Y121447D01*
Y121389D01*
X382170Y121360D01*
Y121327D01*
X382166Y121290D01*
X382162Y121247D01*
X382148Y121156D01*
X382133Y121061D01*
X382108Y120966D01*
X382075Y120875D01*
Y120872D01*
X382071Y120864D01*
X382064Y120853D01*
X382057Y120839D01*
X382035Y120795D01*
X382002Y120744D01*
X381958Y120686D01*
X381908Y120624D01*
X381846Y120566D01*
X381776Y120511D01*
X381773D01*
X381766Y120504D01*
X381755Y120500D01*
X381740Y120490D01*
X381722Y120482D01*
X381700Y120471D01*
X381645Y120446D01*
X381576Y120420D01*
X381500Y120398D01*
X381412Y120384D01*
X381321Y120377D01*
X381292Y120690D01*
X381296D01*
X381300D01*
X381311Y120693D01*
X381325D01*
X381358Y120701D01*
X381405Y120712D01*
X381452Y120726D01*
X381507Y120741D01*
X381558Y120766D01*
X381605Y120792D01*
X381609Y120795D01*
X381624Y120806D01*
X381649Y120824D01*
X381675Y120853D01*
X381707Y120890D01*
X381740Y120930D01*
X381773Y120984D01*
X381802Y121043D01*
Y121046D01*
X381806Y121050D01*
X381809Y121061D01*
X381813Y121072D01*
X381824Y121108D01*
X381838Y121156D01*
X381853Y121214D01*
X381864Y121279D01*
X381871Y121352D01*
X381875Y121432D01*
Y121465D01*
X381871Y121501D01*
X381867Y121545D01*
X381860Y121596D01*
X381853Y121654D01*
X381838Y121713D01*
X381820Y121767D01*
X381817Y121774D01*
X381809Y121793D01*
X381795Y121818D01*
X381780Y121851D01*
X381755Y121884D01*
X381729Y121920D01*
X381700Y121956D01*
X381664Y121985D01*
X381660Y121989D01*
X381645Y121996D01*
X381627Y122007D01*
X381598Y122022D01*
X381569Y122037D01*
X381533Y122047D01*
X381492Y122055D01*
X381449Y122058D01*
X381445D01*
X381427D01*
X381405Y122055D01*
X381376Y122051D01*
X381347Y122040D01*
X381311Y122029D01*
X381274Y122011D01*
X381241Y121985D01*
X381238Y121982D01*
X381227Y121971D01*
X381212Y121956D01*
X381190Y121931D01*
X381169Y121902D01*
X381143Y121862D01*
X381118Y121815D01*
X381096Y121760D01*
X381092Y121756D01*
X381088Y121738D01*
X381078Y121709D01*
X381074Y121691D01*
X381067Y121665D01*
X381056Y121640D01*
X381048Y121607D01*
X381037Y121571D01*
X381027Y121527D01*
X381016Y121483D01*
X381001Y121432D01*
X380987Y121374D01*
X380972Y121312D01*
Y121309D01*
X380968Y121298D01*
X380965Y121279D01*
X380957Y121257D01*
X380950Y121228D01*
X380943Y121196D01*
X380921Y121123D01*
X380896Y121043D01*
X380870Y120959D01*
X380845Y120886D01*
X380830Y120853D01*
X380816Y120824D01*
Y120821D01*
X380812Y120817D01*
X380797Y120795D01*
X380779Y120763D01*
X380750Y120726D01*
X380717Y120682D01*
X380677Y120639D01*
X380630Y120595D01*
X380579Y120559D01*
X380572Y120555D01*
X380553Y120544D01*
X380524Y120529D01*
X380488Y120515D01*
X380441Y120500D01*
X380386Y120486D01*
X380328Y120475D01*
X380266Y120471D01*
X380262D01*
X380259D01*
X380248D01*
X380233D01*
X380197Y120479D01*
X380149Y120486D01*
X380095Y120497D01*
X380033Y120515D01*
X379971Y120540D01*
X379909Y120577D01*
X379906D01*
X379902Y120580D01*
X379880Y120599D01*
X379851Y120624D01*
X379815Y120657D01*
X379774Y120701D01*
X379731Y120755D01*
X379691Y120821D01*
X379654Y120894D01*
Y120897D01*
X379651Y120905D01*
X379647Y120915D01*
X379640Y120930D01*
X379632Y120948D01*
X379625Y120974D01*
X379611Y121028D01*
X379596Y121097D01*
X379581Y121177D01*
X379571Y121261D01*
X379567Y121356D01*
Y121403D01*
X379571Y121429D01*
Y121454D01*
X379578Y121523D01*
X379589Y121600D01*
X379607Y121680D01*
X379629Y121767D01*
X379658Y121847D01*
Y121851D01*
X379662Y121858D01*
X379669Y121869D01*
X379676Y121884D01*
X379694Y121920D01*
X379727Y121967D01*
X379764Y122022D01*
X379811Y122076D01*
X379865Y122127D01*
X379927Y122175D01*
X379931D01*
X379935Y122178D01*
X379945Y122186D01*
X379956Y122193D01*
X379993Y122211D01*
X380040Y122233D01*
X380098Y122258D01*
X380168Y122277D01*
X380240Y122295D01*
X380320Y122302D01*
X380346Y121982D01*
X380342D01*
X380335D01*
X380324Y121978D01*
X380306Y121975D01*
X380266Y121964D01*
X380211Y121949D01*
X380153Y121927D01*
X380095Y121895D01*
X380040Y121854D01*
X379989Y121803D01*
X379986Y121796D01*
X379971Y121778D01*
X379949Y121742D01*
X379927Y121694D01*
X379906Y121633D01*
X379884Y121560D01*
X379869Y121469D01*
X379865Y121367D01*
Y121316D01*
X379869Y121294D01*
X379873Y121265D01*
X379880Y121199D01*
X379895Y121126D01*
X379913Y121054D01*
X379942Y120984D01*
X379960Y120955D01*
X379978Y120926D01*
X379982Y120919D01*
X379996Y120905D01*
X380022Y120883D01*
X380051Y120861D01*
X380091Y120835D01*
X380135Y120814D01*
X380186Y120799D01*
X380244Y120792D01*
X380251D01*
X380266D01*
X380291Y120795D01*
X380320Y120802D01*
X380357Y120814D01*
X380393Y120832D01*
X380430Y120853D01*
X380466Y120886D01*
X380470Y120890D01*
X380481Y120908D01*
X380491Y120923D01*
X380499Y120937D01*
X380510Y120959D01*
X380524Y120984D01*
X380535Y121017D01*
X380550Y121054D01*
X380564Y121094D01*
X380582Y121141D01*
X380597Y121192D01*
X380615Y121250D01*
X380630Y121316D01*
X380648Y121389D01*
Y121392D01*
X380652Y121407D01*
X380655Y121429D01*
X380663Y121454D01*
X380670Y121487D01*
X380681Y121527D01*
X380692Y121567D01*
X380703Y121611D01*
X380728Y121705D01*
X380754Y121796D01*
X380768Y121840D01*
X380783Y121880D01*
X380794Y121916D01*
X380808Y121946D01*
Y121949D01*
X380812Y121956D01*
X380819Y121967D01*
X380826Y121982D01*
X380848Y122022D01*
X380877Y122069D01*
X380917Y122124D01*
X380961Y122178D01*
X381012Y122229D01*
X381067Y122273D01*
X381074Y122277D01*
X381092Y122291D01*
X381125Y122306D01*
X381169Y122328D01*
X381220Y122346D01*
X381281Y122364D01*
X381351Y122375D01*
X381423Y122379D01*
X381427D01*
X381431D01*
X381442D01*
X381456D01*
X381496Y122371D01*
D02*
G37*
G36*
X372517Y126737D02*
X371752Y126442D01*
Y125387D01*
X372517Y125114D01*
Y124761D01*
X369998Y125722D01*
Y126086D01*
X372517Y127116D01*
Y126737D01*
D02*
G37*
G36*
X371319Y124575D02*
X371348D01*
X371417Y124571D01*
X371498Y124560D01*
X371581Y124549D01*
X371669Y124531D01*
X371756Y124510D01*
X371760D01*
X371767Y124506D01*
X371778Y124502D01*
X371792Y124498D01*
X371832Y124484D01*
X371883Y124462D01*
X371942Y124440D01*
X372000Y124411D01*
X372062Y124375D01*
X372120Y124338D01*
X372127Y124335D01*
X372145Y124320D01*
X372171Y124298D01*
X372204Y124269D01*
X372240Y124237D01*
X372276Y124196D01*
X372317Y124156D01*
X372349Y124109D01*
X372353Y124102D01*
X372364Y124087D01*
X372378Y124062D01*
X372397Y124025D01*
X372418Y123982D01*
X372437Y123931D01*
X372459Y123872D01*
X372477Y123807D01*
Y123800D01*
X372480Y123789D01*
X372484Y123778D01*
X372488Y123741D01*
X372495Y123690D01*
X372502Y123632D01*
X372509Y123563D01*
X372513Y123487D01*
X372517Y123403D01*
Y122496D01*
X369998D01*
Y123465D01*
X370002Y123530D01*
X370005Y123603D01*
X370012Y123676D01*
X370023Y123749D01*
X370034Y123811D01*
Y123814D01*
X370038Y123821D01*
Y123832D01*
X370045Y123847D01*
X370056Y123887D01*
X370074Y123938D01*
X370100Y123996D01*
X370132Y124058D01*
X370169Y124120D01*
X370216Y124178D01*
X370220Y124182D01*
X370223Y124186D01*
X370234Y124196D01*
X370245Y124211D01*
X370282Y124247D01*
X370333Y124291D01*
X370395Y124338D01*
X370467Y124389D01*
X370551Y124437D01*
X370646Y124477D01*
X370649D01*
X370657Y124480D01*
X370671Y124488D01*
X370693Y124491D01*
X370719Y124502D01*
X370748Y124510D01*
X370780Y124517D01*
X370820Y124528D01*
X370861Y124539D01*
X370908Y124546D01*
X371010Y124564D01*
X371123Y124575D01*
X371246Y124579D01*
X371250D01*
X371257D01*
X371275D01*
X371294D01*
X371319Y124575D01*
D02*
G37*
G36*
X371883Y122031D02*
X371934Y122023D01*
X371993Y122009D01*
X372054Y121991D01*
X372120Y121961D01*
X372189Y121921D01*
X372193D01*
X372196Y121918D01*
X372218Y121900D01*
X372251Y121874D01*
X372287Y121838D01*
X372331Y121790D01*
X372378Y121732D01*
X372422Y121667D01*
X372462Y121590D01*
Y121587D01*
X372466Y121579D01*
X372469Y121568D01*
X372477Y121554D01*
X372484Y121532D01*
X372495Y121507D01*
X372509Y121448D01*
X372528Y121379D01*
X372546Y121295D01*
X372557Y121204D01*
X372560Y121106D01*
Y121048D01*
X372557Y121019D01*
Y120986D01*
X372553Y120949D01*
X372550Y120906D01*
X372535Y120815D01*
X372520Y120720D01*
X372495Y120626D01*
X372462Y120535D01*
Y120531D01*
X372459Y120524D01*
X372451Y120513D01*
X372444Y120498D01*
X372422Y120455D01*
X372389Y120404D01*
X372346Y120345D01*
X372295Y120283D01*
X372233Y120225D01*
X372164Y120171D01*
X372160D01*
X372153Y120163D01*
X372142Y120160D01*
X372127Y120149D01*
X372109Y120141D01*
X372087Y120131D01*
X372033Y120105D01*
X371963Y120080D01*
X371887Y120058D01*
X371800Y120043D01*
X371709Y120036D01*
X371679Y120349D01*
X371683D01*
X371687D01*
X371698Y120353D01*
X371712D01*
X371745Y120360D01*
X371792Y120371D01*
X371840Y120385D01*
X371894Y120400D01*
X371945Y120425D01*
X371993Y120451D01*
X371996Y120455D01*
X372011Y120465D01*
X372036Y120484D01*
X372062Y120513D01*
X372094Y120549D01*
X372127Y120589D01*
X372160Y120644D01*
X372189Y120702D01*
Y120706D01*
X372193Y120709D01*
X372196Y120720D01*
X372200Y120731D01*
X372211Y120767D01*
X372225Y120815D01*
X372240Y120873D01*
X372251Y120939D01*
X372258Y121011D01*
X372262Y121091D01*
Y121124D01*
X372258Y121161D01*
X372255Y121204D01*
X372247Y121255D01*
X372240Y121314D01*
X372225Y121372D01*
X372207Y121426D01*
X372204Y121434D01*
X372196Y121452D01*
X372182Y121477D01*
X372167Y121510D01*
X372142Y121543D01*
X372116Y121579D01*
X372087Y121616D01*
X372051Y121645D01*
X372047Y121648D01*
X372033Y121656D01*
X372014Y121667D01*
X371985Y121681D01*
X371956Y121696D01*
X371920Y121707D01*
X371880Y121714D01*
X371836Y121718D01*
X371832D01*
X371814D01*
X371792Y121714D01*
X371763Y121710D01*
X371734Y121699D01*
X371698Y121688D01*
X371661Y121670D01*
X371629Y121645D01*
X371625Y121641D01*
X371614Y121630D01*
X371599Y121616D01*
X371578Y121590D01*
X371556Y121561D01*
X371530Y121521D01*
X371505Y121474D01*
X371483Y121419D01*
X371479Y121415D01*
X371476Y121397D01*
X371465Y121368D01*
X371461Y121350D01*
X371454Y121325D01*
X371443Y121299D01*
X371436Y121266D01*
X371425Y121230D01*
X371414Y121186D01*
X371403Y121142D01*
X371388Y121091D01*
X371374Y121033D01*
X371359Y120971D01*
Y120968D01*
X371356Y120957D01*
X371352Y120939D01*
X371345Y120917D01*
X371337Y120888D01*
X371330Y120855D01*
X371308Y120782D01*
X371283Y120702D01*
X371257Y120618D01*
X371232Y120545D01*
X371217Y120513D01*
X371203Y120484D01*
Y120480D01*
X371199Y120476D01*
X371184Y120455D01*
X371166Y120422D01*
X371137Y120385D01*
X371104Y120342D01*
X371064Y120298D01*
X371017Y120254D01*
X370966Y120218D01*
X370959Y120214D01*
X370941Y120203D01*
X370912Y120189D01*
X370875Y120174D01*
X370828Y120160D01*
X370773Y120145D01*
X370715Y120134D01*
X370653Y120131D01*
X370649D01*
X370646D01*
X370635D01*
X370620D01*
X370584Y120138D01*
X370537Y120145D01*
X370482Y120156D01*
X370420Y120174D01*
X370358Y120200D01*
X370296Y120236D01*
X370293D01*
X370289Y120240D01*
X370267Y120258D01*
X370238Y120283D01*
X370202Y120316D01*
X370162Y120360D01*
X370118Y120414D01*
X370078Y120480D01*
X370041Y120553D01*
Y120556D01*
X370038Y120564D01*
X370034Y120575D01*
X370027Y120589D01*
X370020Y120607D01*
X370012Y120633D01*
X369998Y120687D01*
X369983Y120757D01*
X369969Y120837D01*
X369958Y120920D01*
X369954Y121015D01*
Y121062D01*
X369958Y121088D01*
Y121113D01*
X369965Y121183D01*
X369976Y121259D01*
X369994Y121339D01*
X370016Y121426D01*
X370045Y121507D01*
Y121510D01*
X370049Y121517D01*
X370056Y121528D01*
X370063Y121543D01*
X370082Y121579D01*
X370114Y121627D01*
X370151Y121681D01*
X370198Y121736D01*
X370253Y121787D01*
X370315Y121834D01*
X370318D01*
X370322Y121838D01*
X370333Y121845D01*
X370344Y121852D01*
X370380Y121871D01*
X370427Y121892D01*
X370486Y121918D01*
X370555Y121936D01*
X370628Y121954D01*
X370708Y121961D01*
X370733Y121641D01*
X370729D01*
X370722D01*
X370711Y121637D01*
X370693Y121634D01*
X370653Y121623D01*
X370598Y121608D01*
X370540Y121587D01*
X370482Y121554D01*
X370427Y121514D01*
X370376Y121463D01*
X370373Y121456D01*
X370358Y121437D01*
X370336Y121401D01*
X370315Y121354D01*
X370293Y121292D01*
X370271Y121219D01*
X370256Y121128D01*
X370253Y121026D01*
Y120975D01*
X370256Y120953D01*
X370260Y120924D01*
X370267Y120859D01*
X370282Y120786D01*
X370300Y120713D01*
X370329Y120644D01*
X370347Y120615D01*
X370366Y120586D01*
X370369Y120578D01*
X370384Y120564D01*
X370409Y120542D01*
X370438Y120520D01*
X370478Y120494D01*
X370522Y120473D01*
X370573Y120458D01*
X370631Y120451D01*
X370638D01*
X370653D01*
X370678Y120455D01*
X370708Y120462D01*
X370744Y120473D01*
X370780Y120491D01*
X370817Y120513D01*
X370853Y120545D01*
X370857Y120549D01*
X370868Y120567D01*
X370879Y120582D01*
X370886Y120597D01*
X370897Y120618D01*
X370912Y120644D01*
X370922Y120677D01*
X370937Y120713D01*
X370952Y120753D01*
X370970Y120800D01*
X370984Y120851D01*
X371003Y120910D01*
X371017Y120975D01*
X371035Y121048D01*
Y121052D01*
X371039Y121066D01*
X371042Y121088D01*
X371050Y121113D01*
X371057Y121146D01*
X371068Y121186D01*
X371079Y121226D01*
X371090Y121270D01*
X371115Y121364D01*
X371141Y121456D01*
X371155Y121499D01*
X371170Y121539D01*
X371181Y121576D01*
X371195Y121605D01*
Y121608D01*
X371199Y121616D01*
X371206Y121627D01*
X371214Y121641D01*
X371235Y121681D01*
X371265Y121729D01*
X371305Y121783D01*
X371348Y121838D01*
X371399Y121889D01*
X371454Y121932D01*
X371461Y121936D01*
X371479Y121950D01*
X371512Y121965D01*
X371556Y121987D01*
X371607Y122005D01*
X371669Y122023D01*
X371738Y122034D01*
X371811Y122038D01*
X371814D01*
X371818D01*
X371829D01*
X371843D01*
X371883Y122031D01*
D02*
G37*
G36*
X363129Y123025D02*
Y122676D01*
X360611Y121700D01*
Y122064D01*
X362442Y122720D01*
X362445D01*
X362453Y122723D01*
X362463Y122727D01*
X362478Y122734D01*
X362500Y122738D01*
X362522Y122745D01*
X362576Y122763D01*
X362638Y122785D01*
X362707Y122807D01*
X362853Y122851D01*
X362849D01*
X362842Y122854D01*
X362831Y122858D01*
X362817Y122862D01*
X362776Y122872D01*
X362722Y122891D01*
X362660Y122909D01*
X362591Y122931D01*
X362518Y122956D01*
X362442Y122985D01*
X360611Y123670D01*
Y124008D01*
X363129Y123025D01*
D02*
G37*
G36*
X362336Y121544D02*
X362365Y121540D01*
X362398Y121537D01*
X362438Y121529D01*
X362478Y121522D01*
X362573Y121500D01*
X362671Y121464D01*
X362722Y121442D01*
X362769Y121413D01*
X362820Y121384D01*
X362867Y121347D01*
X362871Y121344D01*
X362882Y121336D01*
X362897Y121322D01*
X362915Y121303D01*
X362937Y121278D01*
X362966Y121249D01*
X362991Y121212D01*
X363020Y121172D01*
X363049Y121129D01*
X363075Y121078D01*
X363100Y121023D01*
X363126Y120965D01*
X363144Y120903D01*
X363159Y120834D01*
X363170Y120761D01*
X363173Y120685D01*
Y120652D01*
X363170Y120626D01*
X363166Y120597D01*
X363162Y120565D01*
X363159Y120525D01*
X363148Y120484D01*
X363126Y120394D01*
X363093Y120302D01*
X363071Y120255D01*
X363046Y120208D01*
X363017Y120164D01*
X362984Y120121D01*
X362980Y120117D01*
X362977Y120110D01*
X362962Y120102D01*
X362948Y120088D01*
X362929Y120070D01*
X362908Y120051D01*
X362878Y120029D01*
X362846Y120011D01*
X362813Y119990D01*
X362773Y119968D01*
X362685Y119928D01*
X362583Y119895D01*
X362529Y119884D01*
X362471Y119877D01*
X362445Y120201D01*
X362449D01*
X362456D01*
X362467Y120204D01*
X362485Y120208D01*
X362525Y120219D01*
X362580Y120233D01*
X362634Y120255D01*
X362696Y120284D01*
X362751Y120321D01*
X362802Y120364D01*
X362806Y120372D01*
X362820Y120386D01*
X362838Y120415D01*
X362860Y120455D01*
X362882Y120499D01*
X362900Y120554D01*
X362915Y120616D01*
X362918Y120685D01*
Y120707D01*
X362915Y120721D01*
X362911Y120765D01*
X362897Y120816D01*
X362878Y120878D01*
X362849Y120940D01*
X362806Y121005D01*
X362780Y121034D01*
X362751Y121063D01*
X362747Y121067D01*
X362744Y121071D01*
X362733Y121078D01*
X362722Y121089D01*
X362682Y121114D01*
X362631Y121143D01*
X362569Y121169D01*
X362492Y121194D01*
X362402Y121212D01*
X362354Y121220D01*
X362303D01*
X362300D01*
X362292D01*
X362278D01*
X362260Y121216D01*
X362238D01*
X362212Y121212D01*
X362154Y121202D01*
X362085Y121183D01*
X362016Y121158D01*
X361950Y121122D01*
X361888Y121071D01*
X361885D01*
X361881Y121063D01*
X361863Y121045D01*
X361837Y121012D01*
X361808Y120969D01*
X361783Y120910D01*
X361757Y120845D01*
X361739Y120768D01*
X361732Y120725D01*
Y120656D01*
X361735Y120626D01*
X361739Y120590D01*
X361750Y120546D01*
X361761Y120503D01*
X361779Y120455D01*
X361801Y120408D01*
X361805Y120405D01*
X361812Y120390D01*
X361830Y120368D01*
X361848Y120339D01*
X361874Y120310D01*
X361907Y120281D01*
X361939Y120248D01*
X361979Y120222D01*
X361939Y119931D01*
X360643Y120175D01*
Y121427D01*
X360938D01*
Y120419D01*
X361619Y120284D01*
X361615Y120288D01*
X361612Y120295D01*
X361604Y120306D01*
X361593Y120324D01*
X361582Y120346D01*
X361568Y120372D01*
X361539Y120430D01*
X361510Y120503D01*
X361484Y120583D01*
X361466Y120670D01*
X361459Y120714D01*
Y120794D01*
X361462Y120816D01*
X361466Y120845D01*
X361470Y120878D01*
X361477Y120914D01*
X361488Y120954D01*
X361513Y121042D01*
X361532Y121089D01*
X361557Y121136D01*
X361582Y121183D01*
X361612Y121231D01*
X361648Y121274D01*
X361688Y121318D01*
X361692Y121322D01*
X361699Y121329D01*
X361710Y121340D01*
X361728Y121354D01*
X361754Y121373D01*
X361779Y121391D01*
X361812Y121413D01*
X361848Y121435D01*
X361888Y121453D01*
X361932Y121475D01*
X361983Y121493D01*
X362034Y121511D01*
X362088Y121526D01*
X362150Y121537D01*
X362212Y121544D01*
X362278Y121547D01*
X362281D01*
X362292D01*
X362311D01*
X362336Y121544D01*
D02*
G37*
G36*
X351759Y126944D02*
X351788D01*
X351857Y126940D01*
X351937Y126929D01*
X352021Y126918D01*
X352108Y126900D01*
X352196Y126878D01*
X352199D01*
X352206Y126875D01*
X352217Y126871D01*
X352232Y126867D01*
X352272Y126853D01*
X352323Y126831D01*
X352381Y126809D01*
X352439Y126780D01*
X352501Y126744D01*
X352560Y126707D01*
X352567Y126704D01*
X352585Y126689D01*
X352610Y126667D01*
X352643Y126638D01*
X352680Y126605D01*
X352716Y126565D01*
X352756Y126525D01*
X352789Y126478D01*
X352793Y126471D01*
X352803Y126456D01*
X352818Y126431D01*
X352836Y126394D01*
X352858Y126350D01*
X352876Y126300D01*
X352898Y126241D01*
X352916Y126176D01*
Y126169D01*
X352920Y126158D01*
X352924Y126147D01*
X352927Y126110D01*
X352935Y126059D01*
X352942Y126001D01*
X352949Y125932D01*
X352953Y125855D01*
X352956Y125772D01*
Y124865D01*
X350437D01*
Y125834D01*
X350441Y125899D01*
X350445Y125972D01*
X350452Y126045D01*
X350463Y126118D01*
X350474Y126179D01*
Y126183D01*
X350478Y126190D01*
Y126201D01*
X350485Y126216D01*
X350496Y126256D01*
X350514Y126307D01*
X350539Y126365D01*
X350572Y126427D01*
X350608Y126489D01*
X350656Y126547D01*
X350659Y126551D01*
X350663Y126554D01*
X350674Y126565D01*
X350685Y126580D01*
X350721Y126616D01*
X350772Y126660D01*
X350834Y126707D01*
X350907Y126758D01*
X350991Y126805D01*
X351085Y126846D01*
X351089D01*
X351096Y126849D01*
X351111Y126856D01*
X351133Y126860D01*
X351158Y126871D01*
X351187Y126878D01*
X351220Y126886D01*
X351260Y126897D01*
X351300Y126907D01*
X351347Y126915D01*
X351449Y126933D01*
X351562Y126944D01*
X351686Y126947D01*
X351690D01*
X351697D01*
X351715D01*
X351733D01*
X351759Y126944D01*
D02*
G37*
G36*
X352956Y123959D02*
X350980Y122641D01*
X352956D01*
Y122321D01*
X350437D01*
Y122663D01*
X352418Y123985D01*
X350437D01*
Y124305D01*
X352956D01*
Y123959D01*
D02*
G37*
G36*
X352610Y121830D02*
X352614Y121822D01*
X352625Y121808D01*
X352640Y121790D01*
X352654Y121768D01*
X352672Y121742D01*
X352694Y121710D01*
X352716Y121677D01*
X352763Y121600D01*
X352814Y121513D01*
X352862Y121422D01*
X352902Y121324D01*
Y121320D01*
X352905Y121313D01*
X352909Y121298D01*
X352916Y121280D01*
X352924Y121255D01*
X352935Y121225D01*
X352942Y121193D01*
X352949Y121160D01*
X352967Y121080D01*
X352985Y120989D01*
X352996Y120890D01*
X353000Y120789D01*
Y120752D01*
X352996Y120727D01*
Y120694D01*
X352993Y120654D01*
X352985Y120610D01*
X352982Y120563D01*
X352960Y120457D01*
X352935Y120344D01*
X352894Y120228D01*
X352873Y120170D01*
X352843Y120112D01*
X352840Y120108D01*
X352836Y120097D01*
X352825Y120082D01*
X352814Y120061D01*
X352796Y120035D01*
X352778Y120010D01*
X352727Y119940D01*
X352661Y119868D01*
X352581Y119791D01*
X352490Y119718D01*
X352385Y119653D01*
X352381D01*
X352370Y119646D01*
X352356Y119638D01*
X352330Y119627D01*
X352305Y119616D01*
X352268Y119606D01*
X352232Y119591D01*
X352188Y119576D01*
X352141Y119562D01*
X352086Y119547D01*
X352032Y119536D01*
X351974Y119526D01*
X351846Y119507D01*
X351711Y119500D01*
X351708D01*
X351693D01*
X351675D01*
X351650Y119504D01*
X351617D01*
X351577Y119507D01*
X351537Y119515D01*
X351489Y119518D01*
X351438Y119529D01*
X351384Y119536D01*
X351267Y119565D01*
X351147Y119602D01*
X351027Y119653D01*
X351024Y119657D01*
X351013Y119660D01*
X350998Y119667D01*
X350976Y119682D01*
X350947Y119697D01*
X350918Y119715D01*
X350849Y119766D01*
X350769Y119828D01*
X350692Y119904D01*
X350616Y119991D01*
X350583Y120042D01*
X350550Y120093D01*
X350547Y120097D01*
X350543Y120108D01*
X350536Y120122D01*
X350525Y120144D01*
X350514Y120173D01*
X350499Y120206D01*
X350485Y120243D01*
X350470Y120286D01*
X350456Y120334D01*
X350445Y120385D01*
X350430Y120439D01*
X350419Y120497D01*
X350401Y120625D01*
X350394Y120690D01*
Y120807D01*
X350397Y120829D01*
Y120858D01*
X350405Y120927D01*
X350416Y121003D01*
X350434Y121083D01*
X350456Y121171D01*
X350485Y121255D01*
Y121258D01*
X350488Y121265D01*
X350492Y121276D01*
X350499Y121291D01*
X350521Y121331D01*
X350547Y121382D01*
X350583Y121437D01*
X350627Y121495D01*
X350674Y121549D01*
X350732Y121600D01*
X350740Y121608D01*
X350761Y121622D01*
X350794Y121644D01*
X350841Y121673D01*
X350900Y121702D01*
X350973Y121735D01*
X351053Y121768D01*
X351144Y121793D01*
X351224Y121491D01*
X351220D01*
X351216Y121487D01*
X351205Y121484D01*
X351191Y121480D01*
X351158Y121469D01*
X351115Y121455D01*
X351063Y121433D01*
X351016Y121407D01*
X350965Y121382D01*
X350922Y121349D01*
X350918Y121345D01*
X350903Y121335D01*
X350885Y121313D01*
X350860Y121287D01*
X350831Y121255D01*
X350801Y121211D01*
X350772Y121163D01*
X350747Y121109D01*
X350743Y121102D01*
X350736Y121083D01*
X350725Y121051D01*
X350710Y121007D01*
X350699Y120956D01*
X350689Y120898D01*
X350681Y120832D01*
X350678Y120763D01*
Y120723D01*
X350681Y120705D01*
Y120683D01*
X350685Y120628D01*
X350696Y120566D01*
X350707Y120497D01*
X350725Y120432D01*
X350750Y120366D01*
X350754Y120359D01*
X350761Y120337D01*
X350780Y120308D01*
X350798Y120272D01*
X350827Y120228D01*
X350856Y120181D01*
X350892Y120137D01*
X350933Y120097D01*
X350936Y120093D01*
X350951Y120079D01*
X350976Y120061D01*
X351005Y120039D01*
X351042Y120013D01*
X351085Y119988D01*
X351133Y119962D01*
X351184Y119937D01*
X351187D01*
X351195Y119933D01*
X351205Y119930D01*
X351224Y119922D01*
X351245Y119915D01*
X351271Y119908D01*
X351300Y119897D01*
X351333Y119889D01*
X351409Y119871D01*
X351497Y119857D01*
X351588Y119846D01*
X351690Y119842D01*
X351693D01*
X351704D01*
X351722D01*
X351744Y119846D01*
X351773D01*
X351810Y119849D01*
X351846Y119853D01*
X351886Y119857D01*
X351977Y119871D01*
X352072Y119889D01*
X352166Y119919D01*
X352257Y119955D01*
X352261D01*
X352268Y119962D01*
X352279Y119966D01*
X352294Y119977D01*
X352334Y120002D01*
X352385Y120042D01*
X352439Y120090D01*
X352494Y120148D01*
X352545Y120217D01*
X352592Y120293D01*
Y120297D01*
X352596Y120304D01*
X352603Y120315D01*
X352610Y120334D01*
X352618Y120352D01*
X352625Y120377D01*
X352647Y120436D01*
X352665Y120508D01*
X352683Y120588D01*
X352698Y120676D01*
X352701Y120767D01*
Y120803D01*
X352698Y120825D01*
Y120847D01*
X352691Y120901D01*
X352683Y120967D01*
X352669Y121036D01*
X352647Y121113D01*
X352621Y121189D01*
Y121193D01*
X352618Y121200D01*
X352614Y121207D01*
X352607Y121222D01*
X352589Y121262D01*
X352567Y121305D01*
X352541Y121356D01*
X352512Y121411D01*
X352480Y121462D01*
X352443Y121506D01*
X351970D01*
Y120763D01*
X351671D01*
Y121833D01*
X352607D01*
X352610Y121830D01*
D02*
G37*
G36*
X450072Y99452D02*
X450144Y99441D01*
X450233Y99424D01*
X450333Y99396D01*
X450433Y99363D01*
X450533Y99318D01*
X450538D01*
X450544Y99313D01*
X450577Y99296D01*
X450627Y99263D01*
X450682Y99224D01*
X450749Y99169D01*
X450816Y99108D01*
X450882Y99036D01*
X450938Y98952D01*
X450943Y98941D01*
X450960Y98913D01*
X450982Y98863D01*
X451010Y98802D01*
X451038Y98730D01*
X451060Y98647D01*
X451077Y98553D01*
X451082Y98458D01*
Y98447D01*
Y98414D01*
X451077Y98369D01*
X451065Y98308D01*
X451049Y98236D01*
X451021Y98159D01*
X450988Y98081D01*
X450943Y98003D01*
X450938Y97992D01*
X450921Y97970D01*
X450888Y97931D01*
X450843Y97887D01*
X450788Y97837D01*
X450721Y97781D01*
X450644Y97731D01*
X450549Y97681D01*
X450555D01*
X450566Y97676D01*
X450583Y97670D01*
X450605Y97665D01*
X450666Y97642D01*
X450744Y97609D01*
X450832Y97565D01*
X450921Y97509D01*
X451004Y97437D01*
X451082Y97354D01*
X451088Y97343D01*
X451110Y97309D01*
X451143Y97254D01*
X451177Y97182D01*
X451210Y97093D01*
X451243Y96987D01*
X451265Y96865D01*
X451271Y96732D01*
Y96727D01*
Y96710D01*
Y96682D01*
X451265Y96649D01*
X451260Y96605D01*
X451249Y96555D01*
X451238Y96499D01*
X451227Y96438D01*
X451182Y96305D01*
X451149Y96233D01*
X451115Y96166D01*
X451071Y96094D01*
X451021Y96022D01*
X450966Y95950D01*
X450899Y95883D01*
X450893Y95877D01*
X450882Y95866D01*
X450860Y95850D01*
X450832Y95828D01*
X450799Y95800D01*
X450755Y95772D01*
X450705Y95739D01*
X450644Y95711D01*
X450583Y95678D01*
X450511Y95644D01*
X450438Y95617D01*
X450355Y95589D01*
X450266Y95567D01*
X450172Y95550D01*
X450078Y95539D01*
X449972Y95533D01*
X449922D01*
X449889Y95539D01*
X449845Y95544D01*
X449794Y95550D01*
X449739Y95561D01*
X449678Y95572D01*
X449545Y95606D01*
X449406Y95661D01*
X449334Y95694D01*
X449267Y95733D01*
X449201Y95783D01*
X449134Y95833D01*
X449128Y95839D01*
X449118Y95850D01*
X449101Y95866D01*
X449084Y95889D01*
X449056Y95916D01*
X449029Y95955D01*
X448995Y95994D01*
X448962Y96044D01*
X448929Y96100D01*
X448895Y96155D01*
X448834Y96288D01*
X448784Y96444D01*
X448768Y96527D01*
X448757Y96616D01*
X449228Y96677D01*
Y96671D01*
X449234Y96660D01*
X449239Y96638D01*
X449245Y96610D01*
X449251Y96577D01*
X449262Y96538D01*
X449290Y96455D01*
X449328Y96355D01*
X449378Y96260D01*
X449434Y96172D01*
X449500Y96094D01*
X449511Y96088D01*
X449534Y96066D01*
X449578Y96039D01*
X449634Y96011D01*
X449700Y95977D01*
X449783Y95950D01*
X449878Y95927D01*
X449978Y95922D01*
X450011D01*
X450033Y95927D01*
X450094Y95933D01*
X450172Y95950D01*
X450261Y95977D01*
X450355Y96016D01*
X450449Y96072D01*
X450538Y96149D01*
X450549Y96161D01*
X450577Y96194D01*
X450610Y96244D01*
X450655Y96310D01*
X450699Y96394D01*
X450733Y96488D01*
X450760Y96599D01*
X450771Y96721D01*
Y96727D01*
Y96738D01*
Y96754D01*
X450766Y96777D01*
X450760Y96838D01*
X450744Y96910D01*
X450721Y96999D01*
X450682Y97087D01*
X450627Y97176D01*
X450555Y97259D01*
X450544Y97271D01*
X450516Y97293D01*
X450472Y97326D01*
X450411Y97365D01*
X450333Y97404D01*
X450239Y97437D01*
X450133Y97459D01*
X450017Y97470D01*
X449967D01*
X449928Y97465D01*
X449878Y97459D01*
X449822Y97448D01*
X449756Y97437D01*
X449684Y97420D01*
X449739Y97837D01*
X449767D01*
X449789Y97831D01*
X449861D01*
X449922Y97842D01*
X449994Y97853D01*
X450078Y97870D01*
X450172Y97898D01*
X450261Y97936D01*
X450355Y97987D01*
X450361D01*
X450366Y97992D01*
X450394Y98014D01*
X450433Y98053D01*
X450477Y98103D01*
X450522Y98175D01*
X450561Y98259D01*
X450588Y98353D01*
X450599Y98408D01*
Y98469D01*
Y98475D01*
Y98480D01*
Y98514D01*
X450588Y98558D01*
X450577Y98619D01*
X450555Y98686D01*
X450527Y98758D01*
X450483Y98830D01*
X450422Y98897D01*
X450416Y98902D01*
X450388Y98924D01*
X450350Y98952D01*
X450300Y98985D01*
X450233Y99013D01*
X450155Y99041D01*
X450067Y99063D01*
X449967Y99069D01*
X449922D01*
X449872Y99058D01*
X449806Y99047D01*
X449733Y99024D01*
X449661Y98997D01*
X449584Y98952D01*
X449511Y98897D01*
X449506Y98891D01*
X449484Y98863D01*
X449450Y98825D01*
X449412Y98769D01*
X449373Y98697D01*
X449334Y98608D01*
X449301Y98503D01*
X449278Y98381D01*
X448807Y98464D01*
Y98469D01*
X448812Y98486D01*
X448818Y98508D01*
X448823Y98541D01*
X448834Y98580D01*
X448851Y98625D01*
X448884Y98730D01*
X448940Y98852D01*
X449007Y98974D01*
X449090Y99091D01*
X449195Y99196D01*
X449201Y99202D01*
X449212Y99208D01*
X449228Y99219D01*
X449251Y99235D01*
X449278Y99257D01*
X449317Y99280D01*
X449356Y99302D01*
X449406Y99330D01*
X449517Y99374D01*
X449645Y99418D01*
X449794Y99446D01*
X449872Y99457D01*
X450011D01*
X450072Y99452D01*
D02*
G37*
G36*
X447042Y95600D02*
X446464D01*
X446015Y96766D01*
X444406D01*
X443989Y95600D01*
X443451D01*
X444916Y99441D01*
X445471D01*
X447042Y95600D01*
D02*
G37*
G36*
X442990D02*
X442452D01*
Y96138D01*
X442990D01*
Y95600D01*
D02*
G37*
G36*
X440459Y99435D02*
X440554Y99430D01*
X440654Y99424D01*
X440748Y99413D01*
X440831Y99402D01*
X440842D01*
X440881Y99391D01*
X440931Y99379D01*
X440998Y99363D01*
X441070Y99335D01*
X441148Y99302D01*
X441231Y99263D01*
X441303Y99219D01*
X441314Y99213D01*
X441336Y99196D01*
X441370Y99163D01*
X441414Y99124D01*
X441464Y99074D01*
X441514Y99008D01*
X441569Y98936D01*
X441614Y98852D01*
X441619Y98841D01*
X441631Y98813D01*
X441653Y98764D01*
X441675Y98697D01*
X441692Y98619D01*
X441714Y98530D01*
X441725Y98431D01*
X441730Y98325D01*
Y98320D01*
Y98303D01*
Y98281D01*
X441725Y98242D01*
X441719Y98203D01*
X441714Y98153D01*
X441703Y98097D01*
X441692Y98036D01*
X441653Y97909D01*
X441631Y97842D01*
X441597Y97770D01*
X441558Y97698D01*
X441519Y97631D01*
X441469Y97565D01*
X441414Y97498D01*
X441408Y97493D01*
X441397Y97481D01*
X441381Y97465D01*
X441353Y97448D01*
X441320Y97420D01*
X441275Y97393D01*
X441220Y97359D01*
X441159Y97332D01*
X441087Y97298D01*
X441003Y97265D01*
X440914Y97237D01*
X440809Y97215D01*
X440698Y97193D01*
X440576Y97176D01*
X440437Y97165D01*
X440293Y97160D01*
X439311D01*
Y95600D01*
X438800D01*
Y99441D01*
X440376D01*
X440459Y99435D01*
D02*
G37*
G36*
X412101Y98923D02*
X412145Y98918D01*
X412200Y98912D01*
X412261Y98901D01*
X412323Y98890D01*
X412467Y98851D01*
X412611Y98795D01*
X412683Y98762D01*
X412755Y98723D01*
X412822Y98673D01*
X412883Y98618D01*
X412889Y98612D01*
X412900Y98607D01*
X412911Y98585D01*
X412933Y98562D01*
X412961Y98535D01*
X412989Y98496D01*
X413016Y98457D01*
X413050Y98407D01*
X413105Y98302D01*
X413161Y98168D01*
X413183Y98102D01*
X413194Y98024D01*
X413205Y97946D01*
X413210Y97863D01*
Y97852D01*
Y97824D01*
X413205Y97780D01*
X413199Y97719D01*
X413188Y97652D01*
X413166Y97574D01*
X413144Y97491D01*
X413110Y97408D01*
X413105Y97397D01*
X413094Y97369D01*
X413072Y97325D01*
X413038Y97264D01*
X412994Y97197D01*
X412938Y97114D01*
X412872Y97031D01*
X412794Y96936D01*
X412783Y96925D01*
X412755Y96892D01*
X412728Y96864D01*
X412700Y96836D01*
X412667Y96803D01*
X412622Y96759D01*
X412578Y96714D01*
X412522Y96664D01*
X412467Y96609D01*
X412400Y96548D01*
X412328Y96487D01*
X412250Y96415D01*
X412161Y96342D01*
X412073Y96265D01*
X412067Y96259D01*
X412056Y96248D01*
X412034Y96231D01*
X412006Y96209D01*
X411973Y96176D01*
X411934Y96143D01*
X411845Y96070D01*
X411751Y95987D01*
X411662Y95904D01*
X411584Y95832D01*
X411551Y95804D01*
X411523Y95776D01*
X411518Y95771D01*
X411501Y95754D01*
X411479Y95732D01*
X411451Y95698D01*
X411423Y95660D01*
X411390Y95621D01*
X411323Y95526D01*
X413216D01*
Y95071D01*
X410669D01*
Y95077D01*
Y95099D01*
Y95132D01*
X410674Y95177D01*
X410680Y95227D01*
X410691Y95282D01*
X410702Y95338D01*
X410724Y95399D01*
Y95404D01*
X410730Y95410D01*
X410741Y95443D01*
X410763Y95493D01*
X410796Y95560D01*
X410841Y95638D01*
X410896Y95726D01*
X410957Y95815D01*
X411035Y95909D01*
Y95915D01*
X411046Y95920D01*
X411074Y95954D01*
X411124Y96004D01*
X411196Y96076D01*
X411279Y96159D01*
X411384Y96259D01*
X411512Y96370D01*
X411651Y96487D01*
X411657Y96492D01*
X411679Y96509D01*
X411712Y96537D01*
X411751Y96570D01*
X411801Y96614D01*
X411862Y96664D01*
X411923Y96720D01*
X411995Y96781D01*
X412134Y96914D01*
X412273Y97047D01*
X412339Y97114D01*
X412400Y97180D01*
X412456Y97241D01*
X412500Y97303D01*
Y97308D01*
X412511Y97314D01*
X412522Y97330D01*
X412533Y97352D01*
X412572Y97413D01*
X412617Y97486D01*
X412655Y97574D01*
X412694Y97669D01*
X412716Y97774D01*
X412728Y97874D01*
Y97880D01*
Y97885D01*
X412722Y97918D01*
X412716Y97974D01*
X412700Y98035D01*
X412678Y98113D01*
X412639Y98190D01*
X412589Y98268D01*
X412522Y98346D01*
X412511Y98357D01*
X412483Y98379D01*
X412444Y98407D01*
X412384Y98446D01*
X412306Y98479D01*
X412217Y98512D01*
X412112Y98535D01*
X411995Y98540D01*
X411962D01*
X411939Y98535D01*
X411873Y98529D01*
X411795Y98512D01*
X411712Y98490D01*
X411618Y98451D01*
X411529Y98401D01*
X411446Y98335D01*
X411435Y98324D01*
X411412Y98296D01*
X411379Y98251D01*
X411346Y98185D01*
X411307Y98107D01*
X411273Y98007D01*
X411251Y97896D01*
X411240Y97769D01*
X410757Y97819D01*
Y97824D01*
X410763Y97841D01*
Y97869D01*
X410769Y97907D01*
X410780Y97952D01*
X410791Y98002D01*
X410807Y98063D01*
X410824Y98124D01*
X410868Y98257D01*
X410935Y98390D01*
X410974Y98457D01*
X411024Y98523D01*
X411074Y98585D01*
X411129Y98640D01*
X411135Y98646D01*
X411146Y98651D01*
X411163Y98668D01*
X411190Y98684D01*
X411224Y98707D01*
X411262Y98729D01*
X411307Y98757D01*
X411362Y98784D01*
X411423Y98812D01*
X411490Y98840D01*
X411562Y98862D01*
X411640Y98884D01*
X411723Y98901D01*
X411812Y98918D01*
X411906Y98923D01*
X412006Y98929D01*
X412062D01*
X412101Y98923D01*
D02*
G37*
G36*
X409026Y95071D02*
X408449D01*
X407999Y96237D01*
X406390D01*
X405973Y95071D01*
X405435D01*
X406900Y98912D01*
X407455D01*
X409026Y95071D01*
D02*
G37*
G36*
X404974D02*
X404436D01*
Y95610D01*
X404974D01*
Y95071D01*
D02*
G37*
G36*
X402443Y98906D02*
X402538Y98901D01*
X402638Y98895D01*
X402732Y98884D01*
X402815Y98873D01*
X402826D01*
X402865Y98862D01*
X402915Y98851D01*
X402982Y98834D01*
X403054Y98807D01*
X403132Y98773D01*
X403215Y98734D01*
X403287Y98690D01*
X403298Y98684D01*
X403320Y98668D01*
X403354Y98634D01*
X403398Y98596D01*
X403448Y98546D01*
X403498Y98479D01*
X403553Y98407D01*
X403598Y98324D01*
X403603Y98313D01*
X403615Y98285D01*
X403637Y98235D01*
X403659Y98168D01*
X403676Y98091D01*
X403698Y98002D01*
X403709Y97902D01*
X403714Y97796D01*
Y97791D01*
Y97774D01*
Y97752D01*
X403709Y97713D01*
X403703Y97674D01*
X403698Y97624D01*
X403687Y97569D01*
X403676Y97508D01*
X403637Y97380D01*
X403615Y97314D01*
X403581Y97241D01*
X403542Y97169D01*
X403504Y97103D01*
X403453Y97036D01*
X403398Y96969D01*
X403393Y96964D01*
X403381Y96953D01*
X403365Y96936D01*
X403337Y96920D01*
X403304Y96892D01*
X403259Y96864D01*
X403204Y96831D01*
X403143Y96803D01*
X403071Y96770D01*
X402987Y96736D01*
X402899Y96709D01*
X402793Y96686D01*
X402682Y96664D01*
X402560Y96648D01*
X402421Y96636D01*
X402277Y96631D01*
X401295D01*
Y95071D01*
X400784D01*
Y98912D01*
X402360D01*
X402443Y98906D01*
D02*
G37*
G36*
X489926Y71002D02*
X489977Y70996D01*
X490037Y70991D01*
X490098Y70985D01*
X490171Y70968D01*
X490321Y70935D01*
X490487Y70885D01*
X490570Y70852D01*
X490648Y70813D01*
X490726Y70763D01*
X490803Y70713D01*
X490809Y70707D01*
X490820Y70702D01*
X490842Y70685D01*
X490870Y70658D01*
X490898Y70630D01*
X490937Y70591D01*
X490976Y70547D01*
X491020Y70502D01*
X491064Y70447D01*
X491109Y70380D01*
X491159Y70314D01*
X491203Y70241D01*
X491242Y70158D01*
X491286Y70075D01*
X491320Y69986D01*
X491353Y69886D01*
X490853Y69770D01*
Y69775D01*
X490848Y69786D01*
X490837Y69808D01*
X490826Y69836D01*
X490814Y69869D01*
X490798Y69914D01*
X490753Y70003D01*
X490698Y70103D01*
X490631Y70202D01*
X490548Y70297D01*
X490459Y70380D01*
X490448Y70391D01*
X490415Y70413D01*
X490359Y70441D01*
X490287Y70480D01*
X490193Y70513D01*
X490087Y70547D01*
X489960Y70569D01*
X489821Y70574D01*
X489777D01*
X489749Y70569D01*
X489710D01*
X489666Y70563D01*
X489560Y70547D01*
X489444Y70524D01*
X489322Y70486D01*
X489194Y70430D01*
X489077Y70358D01*
X489072D01*
X489066Y70347D01*
X489027Y70319D01*
X488977Y70275D01*
X488916Y70208D01*
X488844Y70125D01*
X488778Y70030D01*
X488717Y69914D01*
X488661Y69786D01*
Y69781D01*
X488656Y69770D01*
X488650Y69753D01*
X488644Y69725D01*
X488633Y69692D01*
X488622Y69653D01*
X488606Y69559D01*
X488583Y69448D01*
X488561Y69326D01*
X488550Y69192D01*
X488545Y69048D01*
Y69042D01*
Y69026D01*
Y68998D01*
Y68965D01*
X488550Y68926D01*
Y68876D01*
X488556Y68821D01*
X488561Y68760D01*
X488578Y68626D01*
X488606Y68482D01*
X488639Y68338D01*
X488683Y68193D01*
Y68188D01*
X488689Y68177D01*
X488700Y68160D01*
X488711Y68132D01*
X488744Y68066D01*
X488794Y67988D01*
X488855Y67899D01*
X488933Y67805D01*
X489022Y67722D01*
X489127Y67644D01*
X489133D01*
X489144Y67638D01*
X489161Y67627D01*
X489183Y67616D01*
X489211Y67605D01*
X489244Y67588D01*
X489322Y67555D01*
X489422Y67522D01*
X489532Y67494D01*
X489655Y67472D01*
X489782Y67466D01*
X489821D01*
X489854Y67472D01*
X489893D01*
X489932Y67477D01*
X490032Y67500D01*
X490148Y67527D01*
X490265Y67572D01*
X490387Y67633D01*
X490448Y67666D01*
X490504Y67711D01*
X490509Y67716D01*
X490515Y67722D01*
X490531Y67738D01*
X490554Y67755D01*
X490576Y67783D01*
X490604Y67816D01*
X490637Y67849D01*
X490665Y67894D01*
X490698Y67944D01*
X490737Y67999D01*
X490770Y68055D01*
X490803Y68121D01*
X490831Y68193D01*
X490859Y68271D01*
X490887Y68354D01*
X490909Y68443D01*
X491419Y68315D01*
Y68310D01*
X491414Y68288D01*
X491403Y68254D01*
X491386Y68210D01*
X491369Y68160D01*
X491347Y68099D01*
X491320Y68032D01*
X491286Y67960D01*
X491209Y67805D01*
X491109Y67650D01*
X491048Y67572D01*
X490986Y67494D01*
X490920Y67427D01*
X490842Y67361D01*
X490837Y67355D01*
X490826Y67344D01*
X490798Y67333D01*
X490770Y67311D01*
X490726Y67283D01*
X490681Y67255D01*
X490620Y67228D01*
X490559Y67200D01*
X490487Y67167D01*
X490409Y67139D01*
X490326Y67111D01*
X490237Y67083D01*
X490143Y67061D01*
X490043Y67050D01*
X489938Y67039D01*
X489827Y67033D01*
X489766D01*
X489721Y67039D01*
X489671D01*
X489610Y67045D01*
X489543Y67056D01*
X489466Y67067D01*
X489305Y67094D01*
X489138Y67139D01*
X488972Y67200D01*
X488894Y67239D01*
X488816Y67283D01*
X488811Y67289D01*
X488800Y67294D01*
X488778Y67311D01*
X488756Y67333D01*
X488722Y67355D01*
X488683Y67389D01*
X488639Y67427D01*
X488594Y67472D01*
X488550Y67522D01*
X488500Y67572D01*
X488400Y67699D01*
X488306Y67849D01*
X488223Y68016D01*
Y68021D01*
X488211Y68038D01*
X488206Y68066D01*
X488189Y68099D01*
X488178Y68143D01*
X488162Y68199D01*
X488139Y68260D01*
X488123Y68326D01*
X488106Y68399D01*
X488084Y68482D01*
X488056Y68654D01*
X488034Y68848D01*
X488023Y69048D01*
Y69054D01*
Y69076D01*
Y69109D01*
X488028Y69148D01*
Y69203D01*
X488034Y69259D01*
X488039Y69331D01*
X488051Y69403D01*
X488078Y69564D01*
X488117Y69742D01*
X488173Y69919D01*
X488250Y70091D01*
X488256Y70097D01*
X488262Y70114D01*
X488273Y70136D01*
X488295Y70164D01*
X488317Y70202D01*
X488345Y70247D01*
X488417Y70347D01*
X488511Y70458D01*
X488622Y70569D01*
X488750Y70680D01*
X488900Y70774D01*
X488905Y70780D01*
X488922Y70785D01*
X488944Y70796D01*
X488972Y70813D01*
X489016Y70830D01*
X489061Y70846D01*
X489116Y70868D01*
X489177Y70891D01*
X489244Y70913D01*
X489316Y70935D01*
X489471Y70968D01*
X489649Y70996D01*
X489832Y71007D01*
X489888D01*
X489926Y71002D01*
D02*
G37*
G36*
X487290Y67100D02*
X486752D01*
Y67638D01*
X487290D01*
Y67100D01*
D02*
G37*
G36*
X484760Y70935D02*
X484854Y70929D01*
X484954Y70924D01*
X485048Y70913D01*
X485131Y70902D01*
X485142D01*
X485181Y70891D01*
X485231Y70880D01*
X485298Y70863D01*
X485370Y70835D01*
X485448Y70802D01*
X485531Y70763D01*
X485603Y70719D01*
X485614Y70713D01*
X485636Y70696D01*
X485670Y70663D01*
X485714Y70624D01*
X485764Y70574D01*
X485814Y70508D01*
X485869Y70436D01*
X485914Y70352D01*
X485919Y70341D01*
X485930Y70314D01*
X485953Y70263D01*
X485975Y70197D01*
X485992Y70119D01*
X486014Y70030D01*
X486025Y69930D01*
X486030Y69825D01*
Y69819D01*
Y69803D01*
Y69781D01*
X486025Y69742D01*
X486019Y69703D01*
X486014Y69653D01*
X486003Y69598D01*
X485992Y69537D01*
X485953Y69409D01*
X485930Y69342D01*
X485897Y69270D01*
X485858Y69198D01*
X485819Y69131D01*
X485770Y69065D01*
X485714Y68998D01*
X485709Y68993D01*
X485697Y68981D01*
X485681Y68965D01*
X485653Y68948D01*
X485620Y68920D01*
X485575Y68893D01*
X485520Y68859D01*
X485459Y68832D01*
X485387Y68798D01*
X485303Y68765D01*
X485215Y68737D01*
X485109Y68715D01*
X484998Y68693D01*
X484876Y68676D01*
X484737Y68665D01*
X484593Y68660D01*
X483611D01*
Y67100D01*
X483100D01*
Y70941D01*
X484676D01*
X484760Y70935D01*
D02*
G37*
G36*
X489699Y99335D02*
X489743D01*
X489843Y99324D01*
X489954Y99313D01*
X490071Y99291D01*
X490187Y99263D01*
X490293Y99224D01*
X490298D01*
X490304Y99218D01*
X490337Y99202D01*
X490387Y99174D01*
X490443Y99135D01*
X490509Y99085D01*
X490581Y99024D01*
X490648Y98947D01*
X490709Y98863D01*
X490715Y98852D01*
X490731Y98819D01*
X490759Y98774D01*
X490787Y98708D01*
X490814Y98630D01*
X490842Y98547D01*
X490859Y98453D01*
X490865Y98358D01*
Y98347D01*
Y98319D01*
X490859Y98269D01*
X490848Y98208D01*
X490831Y98136D01*
X490803Y98059D01*
X490770Y97981D01*
X490726Y97898D01*
X490720Y97887D01*
X490703Y97864D01*
X490670Y97820D01*
X490626Y97776D01*
X490570Y97720D01*
X490504Y97659D01*
X490420Y97603D01*
X490326Y97548D01*
X490332D01*
X490343Y97542D01*
X490359Y97537D01*
X490382Y97526D01*
X490448Y97504D01*
X490526Y97465D01*
X490609Y97415D01*
X490703Y97354D01*
X490787Y97282D01*
X490865Y97193D01*
X490870Y97182D01*
X490892Y97148D01*
X490926Y97098D01*
X490959Y97032D01*
X490992Y96943D01*
X491025Y96849D01*
X491048Y96738D01*
X491053Y96615D01*
Y96610D01*
Y96604D01*
Y96571D01*
X491048Y96516D01*
X491037Y96449D01*
X491025Y96371D01*
X491003Y96288D01*
X490976Y96199D01*
X490937Y96110D01*
X490931Y96099D01*
X490914Y96072D01*
X490892Y96033D01*
X490859Y95977D01*
X490814Y95922D01*
X490770Y95861D01*
X490715Y95800D01*
X490654Y95750D01*
X490648Y95744D01*
X490626Y95727D01*
X490587Y95705D01*
X490537Y95683D01*
X490476Y95650D01*
X490404Y95617D01*
X490326Y95589D01*
X490232Y95561D01*
X490221D01*
X490187Y95550D01*
X490132Y95544D01*
X490060Y95533D01*
X489971Y95522D01*
X489865Y95511D01*
X489749Y95506D01*
X489616Y95500D01*
X488151D01*
Y99341D01*
X489660D01*
X489699Y99335D01*
D02*
G37*
G36*
X487290Y95500D02*
X486752D01*
Y96038D01*
X487290D01*
Y95500D01*
D02*
G37*
G36*
X484760Y99335D02*
X484854Y99330D01*
X484954Y99324D01*
X485048Y99313D01*
X485131Y99302D01*
X485142D01*
X485181Y99291D01*
X485231Y99279D01*
X485298Y99263D01*
X485370Y99235D01*
X485448Y99202D01*
X485531Y99163D01*
X485603Y99119D01*
X485614Y99113D01*
X485636Y99096D01*
X485670Y99063D01*
X485714Y99024D01*
X485764Y98974D01*
X485814Y98908D01*
X485869Y98836D01*
X485914Y98752D01*
X485919Y98741D01*
X485930Y98713D01*
X485953Y98664D01*
X485975Y98597D01*
X485992Y98519D01*
X486014Y98430D01*
X486025Y98330D01*
X486030Y98225D01*
Y98220D01*
Y98203D01*
Y98181D01*
X486025Y98142D01*
X486019Y98103D01*
X486014Y98053D01*
X486003Y97997D01*
X485992Y97936D01*
X485953Y97809D01*
X485930Y97742D01*
X485897Y97670D01*
X485858Y97598D01*
X485819Y97531D01*
X485770Y97465D01*
X485714Y97398D01*
X485709Y97393D01*
X485697Y97381D01*
X485681Y97365D01*
X485653Y97348D01*
X485620Y97320D01*
X485575Y97293D01*
X485520Y97259D01*
X485459Y97232D01*
X485387Y97198D01*
X485303Y97165D01*
X485215Y97137D01*
X485109Y97115D01*
X484998Y97093D01*
X484876Y97076D01*
X484737Y97065D01*
X484593Y97060D01*
X483611D01*
Y95500D01*
X483100D01*
Y99341D01*
X484676D01*
X484760Y99335D01*
D02*
G37*
G36*
X494627Y124500D02*
X494155D01*
Y127503D01*
X494150Y127497D01*
X494122Y127475D01*
X494089Y127442D01*
X494033Y127403D01*
X493972Y127353D01*
X493894Y127297D01*
X493806Y127236D01*
X493706Y127175D01*
X493700D01*
X493695Y127170D01*
X493661Y127147D01*
X493606Y127120D01*
X493539Y127086D01*
X493462Y127048D01*
X493378Y127009D01*
X493295Y126970D01*
X493212Y126936D01*
Y127392D01*
X493218D01*
X493228Y127403D01*
X493251Y127408D01*
X493279Y127425D01*
X493312Y127442D01*
X493351Y127464D01*
X493445Y127519D01*
X493556Y127580D01*
X493667Y127658D01*
X493784Y127747D01*
X493900Y127841D01*
X493906Y127847D01*
X493911Y127852D01*
X493928Y127869D01*
X493950Y127885D01*
X494000Y127941D01*
X494067Y128008D01*
X494133Y128085D01*
X494205Y128174D01*
X494266Y128263D01*
X494322Y128357D01*
X494627D01*
Y124500D01*
D02*
G37*
G36*
X491142D02*
X490564D01*
X490115Y125665D01*
X488506D01*
X488089Y124500D01*
X487551D01*
X489016Y128341D01*
X489571D01*
X491142Y124500D01*
D02*
G37*
G36*
X487090D02*
X486552D01*
Y125038D01*
X487090D01*
Y124500D01*
D02*
G37*
G36*
X484559Y128335D02*
X484654Y128330D01*
X484754Y128324D01*
X484848Y128313D01*
X484931Y128302D01*
X484942D01*
X484981Y128291D01*
X485031Y128279D01*
X485098Y128263D01*
X485170Y128235D01*
X485248Y128202D01*
X485331Y128163D01*
X485403Y128119D01*
X485414Y128113D01*
X485436Y128096D01*
X485470Y128063D01*
X485514Y128024D01*
X485564Y127974D01*
X485614Y127908D01*
X485669Y127836D01*
X485714Y127752D01*
X485719Y127741D01*
X485731Y127713D01*
X485753Y127664D01*
X485775Y127597D01*
X485792Y127519D01*
X485814Y127430D01*
X485825Y127331D01*
X485830Y127225D01*
Y127219D01*
Y127203D01*
Y127181D01*
X485825Y127142D01*
X485819Y127103D01*
X485814Y127053D01*
X485803Y126997D01*
X485792Y126936D01*
X485753Y126809D01*
X485731Y126742D01*
X485697Y126670D01*
X485658Y126598D01*
X485619Y126531D01*
X485569Y126465D01*
X485514Y126398D01*
X485508Y126393D01*
X485497Y126381D01*
X485481Y126365D01*
X485453Y126348D01*
X485420Y126320D01*
X485375Y126293D01*
X485320Y126259D01*
X485259Y126232D01*
X485187Y126198D01*
X485103Y126165D01*
X485014Y126137D01*
X484909Y126115D01*
X484798Y126093D01*
X484676Y126076D01*
X484537Y126065D01*
X484393Y126059D01*
X483411D01*
Y124500D01*
X482900D01*
Y128341D01*
X484476D01*
X484559Y128335D01*
D02*
G37*
%LPC*%
G36*
X369846Y39047D02*
X369842D01*
X369839D01*
X369817Y39044D01*
X369784Y39040D01*
X369740Y39033D01*
X369697Y39015D01*
X369646Y38993D01*
X369598Y38960D01*
X369551Y38916D01*
X369547Y38909D01*
X369533Y38891D01*
X369515Y38862D01*
X369493Y38814D01*
X369471Y38760D01*
X369453Y38687D01*
X369438Y38603D01*
X369435Y38505D01*
Y37712D01*
X370268D01*
Y38461D01*
X370265Y38505D01*
X370261Y38556D01*
X370257Y38614D01*
X370250Y38673D01*
X370239Y38731D01*
X370224Y38782D01*
X370221Y38789D01*
X370214Y38803D01*
X370203Y38825D01*
X370188Y38855D01*
X370166Y38887D01*
X370141Y38920D01*
X370108Y38953D01*
X370072Y38978D01*
X370068Y38982D01*
X370053Y38989D01*
X370032Y39000D01*
X370002Y39015D01*
X369970Y39026D01*
X369933Y39037D01*
X369890Y39044D01*
X369846Y39047D01*
D02*
G37*
G36*
X351352Y42241D02*
X351348D01*
X351334D01*
X351315D01*
X351286Y42237D01*
X351254D01*
X351217Y42234D01*
X351173Y42230D01*
X351130Y42226D01*
X351032Y42208D01*
X350930Y42186D01*
X350835Y42154D01*
X350788Y42132D01*
X350748Y42110D01*
X350744D01*
X350737Y42103D01*
X350726Y42095D01*
X350711Y42088D01*
X350675Y42059D01*
X350631Y42023D01*
X350584Y41975D01*
X350536Y41921D01*
X350497Y41859D01*
X350464Y41793D01*
X350460Y41786D01*
X350456Y41768D01*
X350446Y41735D01*
X350435Y41688D01*
X350427Y41629D01*
X350416Y41557D01*
X350413Y41513D01*
Y41466D01*
X350409Y41418D01*
Y40836D01*
X352331D01*
Y41433D01*
X352327Y41458D01*
X352324Y41513D01*
X352320Y41575D01*
X352313Y41640D01*
X352302Y41706D01*
X352287Y41761D01*
X352284Y41768D01*
X352280Y41786D01*
X352269Y41811D01*
X352255Y41844D01*
X352233Y41881D01*
X352211Y41917D01*
X352185Y41954D01*
X352156Y41990D01*
X352149Y41993D01*
X352134Y42008D01*
X352109Y42030D01*
X352073Y42055D01*
X352025Y42085D01*
X351971Y42117D01*
X351909Y42146D01*
X351840Y42172D01*
X351836D01*
X351829Y42175D01*
X351818Y42179D01*
X351803Y42183D01*
X351785Y42186D01*
X351760Y42194D01*
X351734Y42201D01*
X351705Y42208D01*
X351632Y42219D01*
X351548Y42230D01*
X351454Y42237D01*
X351352Y42241D01*
D02*
G37*
G36*
X351592Y39453D02*
X350901Y39191D01*
X350897D01*
X350886Y39187D01*
X350868Y39180D01*
X350846Y39173D01*
X350820Y39162D01*
X350788Y39151D01*
X350751Y39140D01*
X350715Y39125D01*
X350631Y39096D01*
X350544Y39067D01*
X350456Y39038D01*
X350373Y39012D01*
X350376D01*
X350384Y39009D01*
X350398D01*
X350413Y39001D01*
X350438Y38998D01*
X350464Y38991D01*
X350526Y38976D01*
X350598Y38958D01*
X350678Y38932D01*
X350766Y38907D01*
X350857Y38874D01*
X351592Y38601D01*
Y39453D01*
D02*
G37*
G36*
X371479Y126337D02*
X370788Y126075D01*
X370784D01*
X370773Y126071D01*
X370755Y126064D01*
X370733Y126057D01*
X370708Y126046D01*
X370675Y126035D01*
X370638Y126024D01*
X370602Y126009D01*
X370518Y125980D01*
X370431Y125951D01*
X370344Y125922D01*
X370260Y125896D01*
X370264D01*
X370271Y125893D01*
X370285D01*
X370300Y125885D01*
X370325Y125882D01*
X370351Y125874D01*
X370413Y125860D01*
X370486Y125842D01*
X370566Y125816D01*
X370653Y125791D01*
X370744Y125758D01*
X371479Y125485D01*
Y126337D01*
D02*
G37*
G36*
X371239Y124237D02*
X371235D01*
X371221D01*
X371203D01*
X371174Y124233D01*
X371141D01*
X371104Y124229D01*
X371061Y124225D01*
X371017Y124222D01*
X370919Y124204D01*
X370817Y124182D01*
X370722Y124149D01*
X370675Y124127D01*
X370635Y124105D01*
X370631D01*
X370624Y124098D01*
X370613Y124091D01*
X370598Y124084D01*
X370562Y124055D01*
X370518Y124018D01*
X370471Y123971D01*
X370424Y123916D01*
X370384Y123854D01*
X370351Y123789D01*
X370347Y123782D01*
X370344Y123763D01*
X370333Y123731D01*
X370322Y123683D01*
X370315Y123625D01*
X370304Y123552D01*
X370300Y123509D01*
Y123461D01*
X370296Y123414D01*
Y122831D01*
X372218D01*
Y123428D01*
X372215Y123454D01*
X372211Y123509D01*
X372207Y123570D01*
X372200Y123636D01*
X372189Y123701D01*
X372175Y123756D01*
X372171Y123763D01*
X372167Y123782D01*
X372156Y123807D01*
X372142Y123840D01*
X372120Y123876D01*
X372098Y123913D01*
X372073Y123949D01*
X372043Y123985D01*
X372036Y123989D01*
X372022Y124004D01*
X371996Y124025D01*
X371960Y124051D01*
X371913Y124080D01*
X371858Y124113D01*
X371796Y124142D01*
X371727Y124167D01*
X371723D01*
X371716Y124171D01*
X371705Y124175D01*
X371690Y124178D01*
X371672Y124182D01*
X371647Y124189D01*
X371621Y124196D01*
X371592Y124204D01*
X371519Y124215D01*
X371436Y124225D01*
X371341Y124233D01*
X371239Y124237D01*
D02*
G37*
G36*
X351679Y126605D02*
X351675D01*
X351660D01*
X351642D01*
X351613Y126602D01*
X351580D01*
X351544Y126598D01*
X351500Y126594D01*
X351457Y126591D01*
X351358Y126573D01*
X351256Y126551D01*
X351162Y126518D01*
X351115Y126496D01*
X351074Y126474D01*
X351071D01*
X351063Y126467D01*
X351053Y126460D01*
X351038Y126452D01*
X351002Y126423D01*
X350958Y126387D01*
X350911Y126340D01*
X350863Y126285D01*
X350823Y126223D01*
X350791Y126158D01*
X350787Y126150D01*
X350783Y126132D01*
X350772Y126099D01*
X350761Y126052D01*
X350754Y125994D01*
X350743Y125921D01*
X350740Y125877D01*
Y125830D01*
X350736Y125783D01*
Y125200D01*
X352658D01*
Y125797D01*
X352654Y125823D01*
X352651Y125877D01*
X352647Y125939D01*
X352640Y126005D01*
X352629Y126070D01*
X352614Y126125D01*
X352610Y126132D01*
X352607Y126150D01*
X352596Y126176D01*
X352581Y126208D01*
X352560Y126245D01*
X352538Y126281D01*
X352512Y126318D01*
X352483Y126354D01*
X352476Y126358D01*
X352461Y126372D01*
X352436Y126394D01*
X352399Y126420D01*
X352352Y126449D01*
X352297Y126481D01*
X352236Y126511D01*
X352166Y126536D01*
X352163D01*
X352155Y126540D01*
X352145Y126543D01*
X352130Y126547D01*
X352112Y126551D01*
X352086Y126558D01*
X352061Y126565D01*
X352032Y126573D01*
X351959Y126583D01*
X351875Y126594D01*
X351781Y126602D01*
X351679Y126605D01*
D02*
G37*
G36*
X445183Y99041D02*
Y99036D01*
X445177Y99024D01*
Y99002D01*
X445166Y98980D01*
X445160Y98941D01*
X445149Y98902D01*
X445127Y98808D01*
X445099Y98697D01*
X445060Y98575D01*
X445022Y98442D01*
X444972Y98303D01*
X444555Y97182D01*
X445854D01*
X445454Y98236D01*
Y98242D01*
X445449Y98259D01*
X445438Y98286D01*
X445427Y98320D01*
X445410Y98358D01*
X445393Y98408D01*
X445377Y98464D01*
X445355Y98519D01*
X445310Y98647D01*
X445266Y98780D01*
X445221Y98913D01*
X445183Y99041D01*
D02*
G37*
G36*
X440410Y98985D02*
X439311D01*
Y97615D01*
X440343D01*
X440382Y97620D01*
X440421D01*
X440465Y97626D01*
X440570Y97637D01*
X440687Y97659D01*
X440803Y97692D01*
X440909Y97737D01*
X440959Y97764D01*
X440998Y97798D01*
X441009Y97809D01*
X441031Y97831D01*
X441064Y97875D01*
X441103Y97931D01*
X441142Y98003D01*
X441175Y98092D01*
X441198Y98192D01*
X441209Y98308D01*
Y98314D01*
Y98320D01*
Y98347D01*
X441203Y98397D01*
X441192Y98453D01*
X441181Y98514D01*
X441159Y98586D01*
X441125Y98652D01*
X441087Y98719D01*
X441081Y98725D01*
X441064Y98747D01*
X441037Y98775D01*
X441003Y98813D01*
X440953Y98852D01*
X440898Y98886D01*
X440837Y98919D01*
X440765Y98947D01*
X440759D01*
X440737Y98952D01*
X440704Y98958D01*
X440659Y98969D01*
X440593Y98974D01*
X440509Y98980D01*
X440410Y98985D01*
D02*
G37*
G36*
X407166Y98512D02*
Y98507D01*
X407161Y98496D01*
Y98474D01*
X407150Y98451D01*
X407144Y98413D01*
X407133Y98374D01*
X407111Y98279D01*
X407083Y98168D01*
X407044Y98046D01*
X407006Y97913D01*
X406956Y97774D01*
X406539Y96653D01*
X407838D01*
X407439Y97708D01*
Y97713D01*
X407433Y97730D01*
X407422Y97758D01*
X407411Y97791D01*
X407394Y97830D01*
X407377Y97880D01*
X407361Y97935D01*
X407338Y97991D01*
X407294Y98118D01*
X407250Y98251D01*
X407205Y98385D01*
X407166Y98512D01*
D02*
G37*
G36*
X402393Y98457D02*
X401295D01*
Y97086D01*
X402327D01*
X402366Y97092D01*
X402405D01*
X402449Y97097D01*
X402554Y97108D01*
X402671Y97130D01*
X402788Y97164D01*
X402893Y97208D01*
X402943Y97236D01*
X402982Y97269D01*
X402993Y97280D01*
X403015Y97303D01*
X403048Y97347D01*
X403087Y97402D01*
X403126Y97474D01*
X403159Y97563D01*
X403182Y97663D01*
X403193Y97780D01*
Y97785D01*
Y97791D01*
Y97819D01*
X403187Y97869D01*
X403176Y97924D01*
X403165Y97985D01*
X403143Y98057D01*
X403110Y98124D01*
X403071Y98190D01*
X403065Y98196D01*
X403048Y98218D01*
X403021Y98246D01*
X402987Y98285D01*
X402937Y98324D01*
X402882Y98357D01*
X402821Y98390D01*
X402749Y98418D01*
X402743D01*
X402721Y98424D01*
X402688Y98429D01*
X402643Y98440D01*
X402577Y98446D01*
X402493Y98451D01*
X402393Y98457D01*
D02*
G37*
G36*
X484710Y70486D02*
X483611D01*
Y69115D01*
X484643D01*
X484682Y69120D01*
X484721D01*
X484765Y69126D01*
X484870Y69137D01*
X484987Y69159D01*
X485104Y69192D01*
X485209Y69237D01*
X485259Y69265D01*
X485298Y69298D01*
X485309Y69309D01*
X485331Y69331D01*
X485364Y69375D01*
X485403Y69431D01*
X485442Y69503D01*
X485475Y69592D01*
X485498Y69692D01*
X485509Y69808D01*
Y69814D01*
Y69819D01*
Y69847D01*
X485503Y69897D01*
X485492Y69953D01*
X485481Y70014D01*
X485459Y70086D01*
X485426Y70152D01*
X485387Y70219D01*
X485381Y70225D01*
X485364Y70247D01*
X485337Y70275D01*
X485303Y70314D01*
X485253Y70352D01*
X485198Y70386D01*
X485137Y70419D01*
X485065Y70447D01*
X485059D01*
X485037Y70452D01*
X485004Y70458D01*
X484959Y70469D01*
X484893Y70474D01*
X484809Y70480D01*
X484710Y70486D01*
D02*
G37*
G36*
X489571Y98886D02*
X488661D01*
Y97731D01*
X489605D01*
X489677Y97737D01*
X489754Y97742D01*
X489832Y97748D01*
X489910Y97759D01*
X489971Y97770D01*
X489982Y97776D01*
X490004Y97781D01*
X490037Y97798D01*
X490082Y97820D01*
X490126Y97842D01*
X490176Y97875D01*
X490226Y97920D01*
X490265Y97964D01*
X490271Y97970D01*
X490282Y97986D01*
X490298Y98020D01*
X490315Y98059D01*
X490332Y98103D01*
X490348Y98159D01*
X490359Y98225D01*
X490365Y98297D01*
Y98308D01*
Y98330D01*
X490359Y98364D01*
X490354Y98408D01*
X490343Y98464D01*
X490326Y98519D01*
X490304Y98575D01*
X490271Y98630D01*
X490265Y98636D01*
X490254Y98652D01*
X490232Y98680D01*
X490204Y98708D01*
X490165Y98741D01*
X490121Y98774D01*
X490065Y98808D01*
X490004Y98830D01*
X489999D01*
X489971Y98841D01*
X489932Y98847D01*
X489871Y98858D01*
X489788Y98869D01*
X489693Y98874D01*
X489571Y98886D01*
D02*
G37*
G36*
X489671Y97276D02*
X488661D01*
Y95955D01*
X489754D01*
X489871Y95961D01*
X489921Y95966D01*
X489965Y95972D01*
X489971D01*
X489993Y95977D01*
X490026Y95983D01*
X490065Y95994D01*
X490160Y96027D01*
X490254Y96072D01*
X490260Y96077D01*
X490276Y96088D01*
X490298Y96105D01*
X490326Y96127D01*
X490354Y96161D01*
X490393Y96194D01*
X490420Y96238D01*
X490454Y96288D01*
X490459Y96294D01*
X490465Y96310D01*
X490476Y96344D01*
X490493Y96382D01*
X490509Y96427D01*
X490520Y96482D01*
X490526Y96549D01*
X490531Y96615D01*
Y96627D01*
Y96649D01*
X490526Y96693D01*
X490515Y96743D01*
X490504Y96799D01*
X490482Y96860D01*
X490454Y96921D01*
X490415Y96982D01*
X490409Y96987D01*
X490393Y97010D01*
X490371Y97037D01*
X490337Y97071D01*
X490293Y97110D01*
X490237Y97148D01*
X490176Y97182D01*
X490104Y97209D01*
X490093Y97215D01*
X490071Y97220D01*
X490021Y97232D01*
X489960Y97243D01*
X489882Y97254D01*
X489788Y97265D01*
X489671Y97276D01*
D02*
G37*
G36*
X484710Y98886D02*
X483611D01*
Y97515D01*
X484643D01*
X484682Y97520D01*
X484721D01*
X484765Y97526D01*
X484870Y97537D01*
X484987Y97559D01*
X485104Y97592D01*
X485209Y97637D01*
X485259Y97664D01*
X485298Y97698D01*
X485309Y97709D01*
X485331Y97731D01*
X485364Y97776D01*
X485403Y97831D01*
X485442Y97903D01*
X485475Y97992D01*
X485498Y98092D01*
X485509Y98208D01*
Y98214D01*
Y98220D01*
Y98247D01*
X485503Y98297D01*
X485492Y98353D01*
X485481Y98414D01*
X485459Y98486D01*
X485426Y98553D01*
X485387Y98619D01*
X485381Y98625D01*
X485364Y98647D01*
X485337Y98675D01*
X485303Y98713D01*
X485253Y98752D01*
X485198Y98786D01*
X485137Y98819D01*
X485065Y98847D01*
X485059D01*
X485037Y98852D01*
X485004Y98858D01*
X484959Y98869D01*
X484893Y98874D01*
X484809Y98880D01*
X484710Y98886D01*
D02*
G37*
G36*
X489283Y127941D02*
Y127935D01*
X489277Y127924D01*
Y127902D01*
X489266Y127880D01*
X489260Y127841D01*
X489249Y127802D01*
X489227Y127708D01*
X489199Y127597D01*
X489160Y127475D01*
X489122Y127342D01*
X489072Y127203D01*
X488655Y126082D01*
X489954D01*
X489554Y127136D01*
Y127142D01*
X489549Y127158D01*
X489538Y127186D01*
X489527Y127219D01*
X489510Y127258D01*
X489493Y127308D01*
X489477Y127364D01*
X489455Y127419D01*
X489410Y127547D01*
X489366Y127680D01*
X489321Y127813D01*
X489283Y127941D01*
D02*
G37*
G36*
X484510Y127885D02*
X483411D01*
Y126515D01*
X484443D01*
X484482Y126520D01*
X484521D01*
X484565Y126526D01*
X484670Y126537D01*
X484787Y126559D01*
X484903Y126592D01*
X485009Y126637D01*
X485059Y126664D01*
X485098Y126698D01*
X485109Y126709D01*
X485131Y126731D01*
X485164Y126776D01*
X485203Y126831D01*
X485242Y126903D01*
X485275Y126992D01*
X485298Y127092D01*
X485309Y127208D01*
Y127214D01*
Y127219D01*
Y127247D01*
X485303Y127297D01*
X485292Y127353D01*
X485281Y127414D01*
X485259Y127486D01*
X485225Y127552D01*
X485187Y127619D01*
X485181Y127625D01*
X485164Y127647D01*
X485137Y127675D01*
X485103Y127713D01*
X485053Y127752D01*
X484998Y127786D01*
X484937Y127819D01*
X484865Y127847D01*
X484859D01*
X484837Y127852D01*
X484804Y127858D01*
X484759Y127869D01*
X484693Y127874D01*
X484609Y127880D01*
X484510Y127885D01*
D02*
G37*
%LPD*%
D10*
X396748Y84000D02*
G03*
X396748Y84000I-394J0D01*
G01*
X439996D02*
G03*
X439996Y84000I-394J0D01*
G01*
X484248Y55500D02*
G03*
X484248Y55500I-394J0D01*
G01*
Y84000D02*
G03*
X484248Y84000I-394J0D01*
G01*
X484059Y113000D02*
G03*
X484059Y113000I-394J0D01*
G01*
D11*
X399504Y92465D02*
X438874D01*
Y72386D02*
Y92465D01*
X399504Y72386D02*
X438874D01*
X399504D02*
Y92465D01*
X442752D02*
X482122D01*
Y72386D02*
Y92465D01*
X442752Y72386D02*
X482122D01*
X442752D02*
Y92465D01*
X487004Y43886D02*
Y63965D01*
Y43886D02*
X526374D01*
Y63965D01*
X487004D02*
X526374D01*
X487004Y72386D02*
Y92465D01*
Y72386D02*
X526374D01*
Y92465D01*
X487004D02*
X526374D01*
X486815Y101386D02*
Y121465D01*
Y101386D02*
X526185D01*
Y121465D01*
X486815D02*
X526185D01*
D12*
X345724Y46382D02*
Y117248D01*
Y46382D02*
X396906D01*
X345724Y117248D02*
X396906D01*
Y46382D02*
Y117248D01*
M02*
