G04*
G04 #@! TF.GenerationSoftware,Altium Limited,Altium Designer,23.0.1 (38)*
G04*
G04 Layer_Color=8388736*
%FSLAX25Y25*%
%MOIN*%
G70*
G04*
G04 #@! TF.SameCoordinates,774D8BB4-ACF3-4C22-8FF0-7C46817B3CBB*
G04*
G04*
G04 #@! TF.FilePolarity,Negative*
G04*
G01*
G75*
%ADD13R,0.05950X0.05950*%
%ADD14C,0.05950*%
%ADD15C,0.06800*%
%ADD16C,0.24422*%
D13*
X407378Y84000D02*
D03*
X450626D02*
D03*
X494878Y55500D02*
D03*
Y84000D02*
D03*
X494689Y113000D02*
D03*
D14*
X415252Y84000D02*
D03*
X423126D02*
D03*
X431000D02*
D03*
X458500D02*
D03*
X466374D02*
D03*
X474248D02*
D03*
X518500Y55500D02*
D03*
X510626D02*
D03*
X502752D02*
D03*
X518500Y84000D02*
D03*
X510626D02*
D03*
X502752D02*
D03*
X518311Y113000D02*
D03*
X510437D02*
D03*
X502563D02*
D03*
D15*
X361000Y111343D02*
D03*
X371000D02*
D03*
X351000D02*
D03*
Y51500D02*
D03*
X391000D02*
D03*
X361000D02*
D03*
X381000D02*
D03*
X371000D02*
D03*
X381000Y111343D02*
D03*
D16*
X439366Y114059D02*
D03*
X470862D02*
D03*
X407870D02*
D03*
Y51067D02*
D03*
X439366D02*
D03*
X470862D02*
D03*
M02*
