G04*
G04 #@! TF.GenerationSoftware,Altium Limited,Altium Designer,23.0.1 (38)*
G04*
G04 Layer_Physical_Order=2*
G04 Layer_Color=16711680*
%FSLAX25Y25*%
%MOIN*%
G70*
G04*
G04 #@! TF.SameCoordinates,CB264EA1-B4AC-40A8-8FC8-DEB541A081C8*
G04*
G04*
G04 #@! TF.FilePolarity,Positive*
G04*
G01*
G75*
%ADD12C,0.01000*%
%ADD18R,0.05150X0.05150*%
%ADD19C,0.05150*%
%ADD20C,0.06000*%
%ADD21C,0.23622*%
G36*
X525171Y127820D02*
X526456Y127287D01*
X527660Y126592D01*
X528763Y125746D01*
X529746Y124763D01*
X530592Y123660D01*
X531287Y122456D01*
X531820Y121171D01*
X532000Y120500D01*
X532000Y120500D01*
X532000Y120500D01*
X532000Y44500D01*
X531820Y43829D01*
X531287Y42544D01*
X530592Y41340D01*
X529746Y40237D01*
X528763Y39254D01*
X527660Y38408D01*
X526456Y37712D01*
X525171Y37180D01*
X524500Y37000D01*
X524500Y37000D01*
X524500Y37000D01*
X524500Y37000D01*
X354000Y37000D01*
X353370Y37259D01*
X352168Y37900D01*
X351035Y38655D01*
X349981Y39518D01*
X349019Y40481D01*
X348155Y41535D01*
X347399Y42668D01*
X346759Y43870D01*
X346500Y44500D01*
X346500Y44500D01*
X346541Y50756D01*
X347041Y50820D01*
X347273Y49956D01*
X347799Y49044D01*
X348544Y48299D01*
X349456Y47773D01*
X350473Y47500D01*
X351527D01*
X352544Y47773D01*
X353456Y48299D01*
X354201Y49044D01*
X354727Y49956D01*
X355000Y50973D01*
Y52027D01*
X354727Y53044D01*
X354720Y53057D01*
X373512Y71849D01*
X490378D01*
X490963Y71965D01*
X491459Y72297D01*
X495959Y76797D01*
X496291Y77293D01*
X496407Y77878D01*
Y80425D01*
X498453D01*
Y87575D01*
X492391D01*
X492200Y88037D01*
X498633Y94471D01*
X513367D01*
X516971Y90867D01*
Y87245D01*
X516305Y86861D01*
X515639Y86195D01*
X515169Y85380D01*
X514933Y84500D01*
X522067D01*
X521831Y85380D01*
X521360Y86195D01*
X520695Y86861D01*
X520029Y87245D01*
Y91500D01*
X519913Y92085D01*
X519581Y92581D01*
X515081Y97081D01*
X514585Y97413D01*
X514000Y97529D01*
X498000D01*
X497415Y97413D01*
X496919Y97081D01*
X478367Y78529D01*
X475777D01*
Y80755D01*
X476443Y81139D01*
X477109Y81805D01*
X477579Y82620D01*
X477815Y83500D01*
X470681D01*
X470917Y82620D01*
X471387Y81805D01*
X472053Y81139D01*
X472719Y80755D01*
Y78529D01*
X433029D01*
Y81044D01*
X433195Y81139D01*
X433860Y81805D01*
X434331Y82620D01*
X434567Y83500D01*
X427433D01*
X427669Y82620D01*
X428139Y81805D01*
X428805Y81139D01*
X429620Y80669D01*
X429971Y80575D01*
Y78529D01*
X385976D01*
X354720Y109786D01*
X354727Y109799D01*
X355000Y110816D01*
Y110843D01*
X351500D01*
Y107343D01*
X351527D01*
X352544Y107615D01*
X352557Y107623D01*
X384261Y75919D01*
X384757Y75587D01*
X385343Y75471D01*
X479000D01*
X479585Y75587D01*
X480081Y75919D01*
X490841Y86678D01*
X491303Y86487D01*
Y80425D01*
X493349D01*
Y78512D01*
X489745Y74907D01*
X372878D01*
X372293Y74791D01*
X371796Y74459D01*
X352557Y55220D01*
X352544Y55227D01*
X351527Y55500D01*
X350473D01*
X349456Y55227D01*
X348544Y54701D01*
X347799Y53956D01*
X347273Y53044D01*
X347050Y52214D01*
X346550Y52281D01*
X346921Y109407D01*
X347422Y109539D01*
X347799Y108887D01*
X348544Y108142D01*
X349456Y107615D01*
X350473Y107343D01*
X350500D01*
Y111343D01*
Y115343D01*
X350473D01*
X349456Y115070D01*
X348544Y114543D01*
X347799Y113799D01*
X347446Y113187D01*
X346947Y113322D01*
X346981Y118499D01*
X347000Y118500D01*
X347000Y118500D01*
Y120025D01*
X347000Y120026D01*
X347117Y121081D01*
X347359Y121841D01*
X347641Y122730D01*
X348475Y124245D01*
X349590Y125568D01*
X350941Y126649D01*
X352477Y127445D01*
X354138Y127926D01*
X355000Y128000D01*
X355000Y128000D01*
X524500Y128000D01*
X525171Y127820D01*
D02*
G37*
%LPC*%
G36*
X518811Y116567D02*
Y113500D01*
X521878D01*
X521642Y114380D01*
X521172Y115195D01*
X520506Y115860D01*
X519691Y116331D01*
X518811Y116567D01*
D02*
G37*
G36*
X517811D02*
X516931Y116331D01*
X516116Y115860D01*
X515450Y115195D01*
X514980Y114380D01*
X514744Y113500D01*
X517811D01*
Y116567D01*
D02*
G37*
G36*
X351527Y115343D02*
X351500D01*
Y111843D01*
X355000D01*
Y111869D01*
X354727Y112887D01*
X354201Y113799D01*
X353456Y114543D01*
X352544Y115070D01*
X351527Y115343D01*
D02*
G37*
G36*
X521878Y112500D02*
X518811D01*
Y109433D01*
X519691Y109669D01*
X520506Y110140D01*
X521172Y110805D01*
X521642Y111620D01*
X521878Y112500D01*
D02*
G37*
G36*
X517811D02*
X514744D01*
X514980Y111620D01*
X515450Y110805D01*
X516116Y110140D01*
X516931Y109669D01*
X517811Y109433D01*
Y112500D01*
D02*
G37*
G36*
X510908Y116575D02*
X509966D01*
X509057Y116331D01*
X508242Y115860D01*
X507577Y115195D01*
X507106Y114380D01*
X506862Y113471D01*
Y112529D01*
X507106Y111620D01*
X507577Y110805D01*
X508242Y110140D01*
X509057Y109669D01*
X509966Y109425D01*
X510908D01*
X511817Y109669D01*
X512632Y110140D01*
X513298Y110805D01*
X513768Y111620D01*
X514012Y112529D01*
Y113471D01*
X513768Y114380D01*
X513298Y115195D01*
X512632Y115860D01*
X511817Y116331D01*
X510908Y116575D01*
D02*
G37*
G36*
X498264D02*
X491114D01*
Y109425D01*
X498264D01*
Y116575D01*
D02*
G37*
G36*
X381527Y115343D02*
X380473D01*
X379456Y115070D01*
X378544Y114543D01*
X377799Y113799D01*
X377273Y112887D01*
X377000Y111869D01*
Y110816D01*
X377273Y109799D01*
X377799Y108887D01*
X378544Y108142D01*
X379456Y107615D01*
X380473Y107343D01*
X381527D01*
X382544Y107615D01*
X383456Y108142D01*
X384201Y108887D01*
X384727Y109799D01*
X385000Y110816D01*
Y111869D01*
X384727Y112887D01*
X384201Y113799D01*
X383456Y114543D01*
X382544Y115070D01*
X381527Y115343D01*
D02*
G37*
G36*
X361527D02*
X360473D01*
X359456Y115070D01*
X358544Y114543D01*
X357799Y113799D01*
X357273Y112887D01*
X357000Y111869D01*
Y110816D01*
X357273Y109799D01*
X357799Y108887D01*
X358544Y108142D01*
X359456Y107615D01*
X360473Y107343D01*
X361527D01*
X362544Y107615D01*
X363456Y108142D01*
X364201Y108887D01*
X364727Y109799D01*
X365000Y110816D01*
Y111869D01*
X364727Y112887D01*
X364201Y113799D01*
X363456Y114543D01*
X362544Y115070D01*
X361527Y115343D01*
D02*
G37*
G36*
X471870Y126870D02*
X469854D01*
X467862Y126555D01*
X465944Y125931D01*
X464148Y125016D01*
X462516Y123831D01*
X461091Y122405D01*
X459905Y120773D01*
X458990Y118977D01*
X458367Y117059D01*
X458051Y115067D01*
Y113051D01*
X458367Y111059D01*
X458990Y109141D01*
X459905Y107345D01*
X461091Y105713D01*
X462516Y104287D01*
X464148Y103102D01*
X465944Y102187D01*
X467862Y101563D01*
X469854Y101248D01*
X471870D01*
X473862Y101563D01*
X475780Y102187D01*
X477577Y103102D01*
X479208Y104287D01*
X480634Y105713D01*
X481819Y107345D01*
X482735Y109141D01*
X483358Y111059D01*
X483673Y113051D01*
Y115067D01*
X483358Y117059D01*
X482735Y118977D01*
X481819Y120773D01*
X480634Y122405D01*
X479208Y123831D01*
X477577Y125016D01*
X475780Y125931D01*
X473862Y126555D01*
X471870Y126870D01*
D02*
G37*
G36*
X440374D02*
X438358D01*
X436366Y126555D01*
X434448Y125931D01*
X432652Y125016D01*
X431020Y123831D01*
X429595Y122405D01*
X428409Y120773D01*
X427494Y118977D01*
X426871Y117059D01*
X426555Y115067D01*
Y113051D01*
X426871Y111059D01*
X427494Y109141D01*
X428409Y107345D01*
X429595Y105713D01*
X431020Y104287D01*
X432652Y103102D01*
X434448Y102187D01*
X436366Y101563D01*
X438358Y101248D01*
X440374D01*
X442366Y101563D01*
X444284Y102187D01*
X446081Y103102D01*
X447712Y104287D01*
X449138Y105713D01*
X450323Y107345D01*
X451239Y109141D01*
X451862Y111059D01*
X452177Y113051D01*
Y115067D01*
X451862Y117059D01*
X451239Y118977D01*
X450323Y120773D01*
X449138Y122405D01*
X447712Y123831D01*
X446081Y125016D01*
X444284Y125931D01*
X442366Y126555D01*
X440374Y126870D01*
D02*
G37*
G36*
X408878D02*
X406862D01*
X404870Y126555D01*
X402952Y125931D01*
X401156Y125016D01*
X399524Y123831D01*
X398098Y122405D01*
X396913Y120773D01*
X395998Y118977D01*
X395374Y117059D01*
X395059Y115067D01*
Y113051D01*
X395374Y111059D01*
X395998Y109141D01*
X396913Y107345D01*
X398098Y105713D01*
X399524Y104287D01*
X401156Y103102D01*
X402952Y102187D01*
X404870Y101563D01*
X406862Y101248D01*
X408878D01*
X410870Y101563D01*
X412788Y102187D01*
X414584Y103102D01*
X416216Y104287D01*
X417642Y105713D01*
X418827Y107345D01*
X419742Y109141D01*
X420366Y111059D01*
X420681Y113051D01*
Y115067D01*
X420366Y117059D01*
X419742Y118977D01*
X418827Y120773D01*
X417642Y122405D01*
X416216Y123831D01*
X414584Y125016D01*
X412788Y125931D01*
X410870Y126555D01*
X408878Y126870D01*
D02*
G37*
G36*
X503034Y116575D02*
X502092D01*
X501183Y116331D01*
X500368Y115860D01*
X499703Y115195D01*
X499232Y114380D01*
X498988Y113471D01*
Y112529D01*
X499232Y111620D01*
X499703Y110805D01*
X500086Y110422D01*
X500091Y109754D01*
X485204Y94867D01*
X389638D01*
X374720Y109786D01*
X374727Y109799D01*
X375000Y110816D01*
Y111869D01*
X374727Y112887D01*
X374201Y113799D01*
X373456Y114543D01*
X372544Y115070D01*
X371527Y115343D01*
X370473D01*
X369456Y115070D01*
X368544Y114543D01*
X367799Y113799D01*
X367273Y112887D01*
X367000Y111869D01*
Y110816D01*
X367273Y109799D01*
X367799Y108887D01*
X368544Y108142D01*
X369456Y107615D01*
X370473Y107343D01*
X371527D01*
X372544Y107615D01*
X372557Y107623D01*
X387924Y92256D01*
X388420Y91925D01*
X389005Y91808D01*
X413723D01*
Y87245D01*
X413057Y86861D01*
X412391Y86195D01*
X411921Y85380D01*
X411677Y84471D01*
Y83529D01*
X411921Y82620D01*
X412391Y81805D01*
X413057Y81139D01*
X413872Y80669D01*
X414781Y80425D01*
X415723D01*
X416632Y80669D01*
X417447Y81139D01*
X418113Y81805D01*
X418583Y82620D01*
X418827Y83529D01*
Y84471D01*
X418583Y85380D01*
X418113Y86195D01*
X417447Y86861D01*
X416781Y87245D01*
Y91808D01*
X456971D01*
Y87245D01*
X456305Y86861D01*
X455640Y86195D01*
X455169Y85380D01*
X454925Y84471D01*
Y83529D01*
X455169Y82620D01*
X455640Y81805D01*
X456305Y81139D01*
X457120Y80669D01*
X458029Y80425D01*
X458971D01*
X459880Y80669D01*
X460695Y81139D01*
X461361Y81805D01*
X461831Y82620D01*
X462075Y83529D01*
Y84471D01*
X461831Y85380D01*
X461361Y86195D01*
X460695Y86861D01*
X460029Y87245D01*
Y91808D01*
X485838D01*
X486423Y91925D01*
X486919Y92256D01*
X486947Y92299D01*
X486990Y92327D01*
X503232Y108569D01*
X503563Y109065D01*
X503669Y109595D01*
X503943Y109669D01*
X504758Y110140D01*
X505423Y110805D01*
X505894Y111620D01*
X506138Y112529D01*
Y113471D01*
X505894Y114380D01*
X505423Y115195D01*
X504758Y115860D01*
X503943Y116331D01*
X503034Y116575D01*
D02*
G37*
G36*
X474748Y87567D02*
Y84500D01*
X477815D01*
X477579Y85380D01*
X477109Y86195D01*
X476443Y86861D01*
X475628Y87331D01*
X474748Y87567D01*
D02*
G37*
G36*
X473748D02*
X472868Y87331D01*
X472053Y86861D01*
X471387Y86195D01*
X470917Y85380D01*
X470681Y84500D01*
X473748D01*
Y87567D01*
D02*
G37*
G36*
X431500D02*
Y84500D01*
X434567D01*
X434331Y85380D01*
X433860Y86195D01*
X433195Y86861D01*
X432380Y87331D01*
X431500Y87567D01*
D02*
G37*
G36*
X430500D02*
X429620Y87331D01*
X428805Y86861D01*
X428139Y86195D01*
X427669Y85380D01*
X427433Y84500D01*
X430500D01*
Y87567D01*
D02*
G37*
G36*
X522067Y83500D02*
X519000D01*
Y80433D01*
X519880Y80669D01*
X520695Y81139D01*
X521360Y81805D01*
X521831Y82620D01*
X522067Y83500D01*
D02*
G37*
G36*
X518000D02*
X514933D01*
X515169Y82620D01*
X515639Y81805D01*
X516305Y81139D01*
X517120Y80669D01*
X518000Y80433D01*
Y83500D01*
D02*
G37*
G36*
X511097Y87575D02*
X510155D01*
X509246Y87331D01*
X508431Y86861D01*
X507765Y86195D01*
X507295Y85380D01*
X507051Y84471D01*
Y83529D01*
X507295Y82620D01*
X507765Y81805D01*
X508431Y81139D01*
X509246Y80669D01*
X510155Y80425D01*
X511097D01*
X512006Y80669D01*
X512821Y81139D01*
X513486Y81805D01*
X513957Y82620D01*
X514201Y83529D01*
Y84471D01*
X513957Y85380D01*
X513486Y86195D01*
X512821Y86861D01*
X512006Y87331D01*
X511097Y87575D01*
D02*
G37*
G36*
X466845D02*
X465903D01*
X464994Y87331D01*
X464179Y86861D01*
X463514Y86195D01*
X463043Y85380D01*
X462799Y84471D01*
Y83529D01*
X463043Y82620D01*
X463514Y81805D01*
X464179Y81139D01*
X464994Y80669D01*
X465903Y80425D01*
X466845D01*
X467754Y80669D01*
X468569Y81139D01*
X469235Y81805D01*
X469705Y82620D01*
X469949Y83529D01*
Y84471D01*
X469705Y85380D01*
X469235Y86195D01*
X468569Y86861D01*
X467754Y87331D01*
X466845Y87575D01*
D02*
G37*
G36*
X454201D02*
X447051D01*
Y80425D01*
X454201D01*
Y87575D01*
D02*
G37*
G36*
X423597D02*
X422655D01*
X421746Y87331D01*
X420931Y86861D01*
X420265Y86195D01*
X419795Y85380D01*
X419551Y84471D01*
Y83529D01*
X419795Y82620D01*
X420265Y81805D01*
X420931Y81139D01*
X421746Y80669D01*
X422655Y80425D01*
X423597D01*
X424506Y80669D01*
X425321Y81139D01*
X425986Y81805D01*
X426457Y82620D01*
X426701Y83529D01*
Y84471D01*
X426457Y85380D01*
X425986Y86195D01*
X425321Y86861D01*
X424506Y87331D01*
X423597Y87575D01*
D02*
G37*
G36*
X410953D02*
X403803D01*
Y80425D01*
X410953D01*
Y87575D01*
D02*
G37*
G36*
X519000Y59067D02*
Y56000D01*
X522067D01*
X521831Y56880D01*
X521360Y57695D01*
X520695Y58361D01*
X519880Y58831D01*
X519000Y59067D01*
D02*
G37*
G36*
X518000D02*
X517120Y58831D01*
X516305Y58361D01*
X515639Y57695D01*
X515169Y56880D01*
X514933Y56000D01*
X518000D01*
Y59067D01*
D02*
G37*
G36*
X408878Y63878D02*
X406862D01*
X404870Y63563D01*
X402952Y62939D01*
X401156Y62024D01*
X399524Y60839D01*
X398098Y59413D01*
X396913Y57781D01*
X395998Y55985D01*
X395374Y54067D01*
X395240Y53217D01*
X394763Y53063D01*
X394711Y53073D01*
X394201Y53956D01*
X393456Y54701D01*
X392544Y55227D01*
X391527Y55500D01*
X390473D01*
X389456Y55227D01*
X388544Y54701D01*
X387799Y53956D01*
X387273Y53044D01*
X387000Y52027D01*
Y50973D01*
X387273Y49956D01*
X387799Y49044D01*
X388544Y48299D01*
X389456Y47773D01*
X390473Y47500D01*
X391527D01*
X392544Y47773D01*
X393456Y48299D01*
X394201Y49044D01*
X394603Y49741D01*
X395125Y49644D01*
X395374Y48067D01*
X395998Y46149D01*
X396913Y44353D01*
X398098Y42721D01*
X399524Y41295D01*
X401156Y40110D01*
X402952Y39195D01*
X404870Y38571D01*
X406862Y38256D01*
X408878D01*
X410870Y38571D01*
X412788Y39195D01*
X414584Y40110D01*
X416216Y41295D01*
X417642Y42721D01*
X418827Y44353D01*
X419742Y46149D01*
X420366Y48067D01*
X420681Y50059D01*
Y52075D01*
X420366Y54067D01*
X419742Y55985D01*
X418827Y57781D01*
X417642Y59413D01*
X416216Y60839D01*
X414584Y62024D01*
X412788Y62939D01*
X410870Y63563D01*
X408878Y63878D01*
D02*
G37*
G36*
X522067Y55000D02*
X519000D01*
Y51933D01*
X519880Y52169D01*
X520695Y52639D01*
X521360Y53305D01*
X521831Y54120D01*
X522067Y55000D01*
D02*
G37*
G36*
X518000D02*
X514933D01*
X515169Y54120D01*
X515639Y53305D01*
X516305Y52639D01*
X517120Y52169D01*
X518000Y51933D01*
Y55000D01*
D02*
G37*
G36*
X511097Y59075D02*
X510155D01*
X509246Y58831D01*
X508431Y58361D01*
X507765Y57695D01*
X507295Y56880D01*
X507051Y55971D01*
Y55029D01*
X507295Y54120D01*
X507765Y53305D01*
X508431Y52639D01*
X509246Y52169D01*
X510155Y51925D01*
X511097D01*
X512006Y52169D01*
X512821Y52639D01*
X513486Y53305D01*
X513957Y54120D01*
X514201Y55029D01*
Y55971D01*
X513957Y56880D01*
X513486Y57695D01*
X512821Y58361D01*
X512006Y58831D01*
X511097Y59075D01*
D02*
G37*
G36*
X503223D02*
X502281D01*
X501372Y58831D01*
X500557Y58361D01*
X499891Y57695D01*
X499421Y56880D01*
X499177Y55971D01*
Y55029D01*
X499421Y54120D01*
X499891Y53305D01*
X500557Y52639D01*
X501372Y52169D01*
X502281Y51925D01*
X503223D01*
X504132Y52169D01*
X504947Y52639D01*
X505613Y53305D01*
X506083Y54120D01*
X506327Y55029D01*
Y55971D01*
X506083Y56880D01*
X505613Y57695D01*
X504947Y58361D01*
X504132Y58831D01*
X503223Y59075D01*
D02*
G37*
G36*
X498453D02*
X491303D01*
Y51925D01*
X498453D01*
Y59075D01*
D02*
G37*
G36*
X381527Y55500D02*
X380473D01*
X379456Y55227D01*
X378544Y54701D01*
X377799Y53956D01*
X377273Y53044D01*
X377000Y52027D01*
Y50973D01*
X377273Y49956D01*
X377799Y49044D01*
X378544Y48299D01*
X379456Y47773D01*
X380473Y47500D01*
X381527D01*
X382544Y47773D01*
X383456Y48299D01*
X384201Y49044D01*
X384727Y49956D01*
X385000Y50973D01*
Y52027D01*
X384727Y53044D01*
X384201Y53956D01*
X383456Y54701D01*
X382544Y55227D01*
X381527Y55500D01*
D02*
G37*
G36*
X371527D02*
X370473D01*
X369456Y55227D01*
X368544Y54701D01*
X367799Y53956D01*
X367273Y53044D01*
X367000Y52027D01*
Y50973D01*
X367273Y49956D01*
X367799Y49044D01*
X368544Y48299D01*
X369456Y47773D01*
X370473Y47500D01*
X371527D01*
X372544Y47773D01*
X373456Y48299D01*
X374201Y49044D01*
X374727Y49956D01*
X375000Y50973D01*
Y52027D01*
X374727Y53044D01*
X374201Y53956D01*
X373456Y54701D01*
X372544Y55227D01*
X371527Y55500D01*
D02*
G37*
G36*
X503223Y87575D02*
X502281D01*
X501372Y87331D01*
X500557Y86861D01*
X499891Y86195D01*
X499421Y85380D01*
X499177Y84471D01*
Y83529D01*
X499421Y82620D01*
X499891Y81805D01*
X500557Y81139D01*
X501223Y80755D01*
Y73386D01*
X498366Y70529D01*
X374000D01*
X373415Y70413D01*
X372919Y70081D01*
X359919Y57081D01*
X359587Y56585D01*
X359471Y56000D01*
Y55231D01*
X359456Y55227D01*
X358544Y54701D01*
X357799Y53956D01*
X357273Y53044D01*
X357000Y52027D01*
Y50973D01*
X357273Y49956D01*
X357799Y49044D01*
X358544Y48299D01*
X359456Y47773D01*
X360473Y47500D01*
X361527D01*
X362544Y47773D01*
X363456Y48299D01*
X364201Y49044D01*
X364727Y49956D01*
X365000Y50973D01*
Y52027D01*
X364727Y53044D01*
X364201Y53956D01*
X363456Y54701D01*
X362895Y55025D01*
X362813Y55650D01*
X374634Y67471D01*
X499000D01*
X499585Y67587D01*
X500081Y67919D01*
X503833Y71671D01*
X504165Y72167D01*
X504281Y72752D01*
Y80755D01*
X504947Y81139D01*
X505613Y81805D01*
X506083Y82620D01*
X506327Y83529D01*
Y84471D01*
X506083Y85380D01*
X505613Y86195D01*
X504947Y86861D01*
X504132Y87331D01*
X503223Y87575D01*
D02*
G37*
G36*
X471870Y63878D02*
X469854D01*
X467862Y63563D01*
X465944Y62939D01*
X464148Y62024D01*
X462516Y60839D01*
X461091Y59413D01*
X459905Y57781D01*
X458990Y55985D01*
X458367Y54067D01*
X458051Y52075D01*
Y50059D01*
X458367Y48067D01*
X458990Y46149D01*
X459905Y44353D01*
X461091Y42721D01*
X462516Y41295D01*
X464148Y40110D01*
X465944Y39195D01*
X467862Y38571D01*
X469854Y38256D01*
X471870D01*
X473862Y38571D01*
X475780Y39195D01*
X477577Y40110D01*
X479208Y41295D01*
X480634Y42721D01*
X481819Y44353D01*
X482735Y46149D01*
X483358Y48067D01*
X483673Y50059D01*
Y52075D01*
X483358Y54067D01*
X482735Y55985D01*
X481819Y57781D01*
X480634Y59413D01*
X479208Y60839D01*
X477577Y62024D01*
X475780Y62939D01*
X473862Y63563D01*
X471870Y63878D01*
D02*
G37*
G36*
X440374D02*
X438358D01*
X436366Y63563D01*
X434448Y62939D01*
X432652Y62024D01*
X431020Y60839D01*
X429595Y59413D01*
X428409Y57781D01*
X427494Y55985D01*
X426871Y54067D01*
X426555Y52075D01*
Y50059D01*
X426871Y48067D01*
X427494Y46149D01*
X428409Y44353D01*
X429595Y42721D01*
X431020Y41295D01*
X432652Y40110D01*
X434448Y39195D01*
X436366Y38571D01*
X438358Y38256D01*
X440374D01*
X442366Y38571D01*
X444284Y39195D01*
X446081Y40110D01*
X447712Y41295D01*
X449138Y42721D01*
X450323Y44353D01*
X451239Y46149D01*
X451862Y48067D01*
X452177Y50059D01*
Y52075D01*
X451862Y54067D01*
X451239Y55985D01*
X450323Y57781D01*
X449138Y59413D01*
X447712Y60839D01*
X446081Y62024D01*
X444284Y62939D01*
X442366Y63563D01*
X440374Y63878D01*
D02*
G37*
%LPD*%
D12*
X389005Y93338D02*
X415252D01*
X371000Y111343D02*
X389005Y93338D01*
X415252D02*
X458500D01*
X485838D01*
X415252Y84000D02*
Y93338D01*
X485908Y93408D02*
X502150Y109650D01*
X458500Y84000D02*
Y93238D01*
X415252Y93338D02*
X415252Y93338D01*
X502150Y109650D02*
Y112587D01*
X502563Y113000D01*
X494878Y77878D02*
Y84000D01*
X490378Y73378D02*
X494878Y77878D01*
X372878Y73378D02*
X490378D01*
X499000Y69000D02*
X502752Y72752D01*
X361000Y56000D02*
X374000Y69000D01*
X499000D01*
X502752Y72752D02*
Y84000D01*
X351000Y51500D02*
X372878Y73378D01*
X431500Y77000D02*
X474000D01*
X385343D02*
X431500D01*
X431000Y84000D02*
X431500Y83500D01*
Y77000D02*
Y83500D01*
X474000Y77000D02*
X479000D01*
X474000D02*
X474248Y77248D01*
Y84000D01*
X514000Y96000D02*
X518500Y91500D01*
X479000Y77000D02*
X498000Y96000D01*
X514000D01*
X518500Y84000D02*
Y91500D01*
X351000Y111343D02*
X385343Y77000D01*
X361000Y51500D02*
Y56000D01*
D18*
X407378Y84000D02*
D03*
X450626D02*
D03*
X494878Y55500D02*
D03*
Y84000D02*
D03*
X494689Y113000D02*
D03*
D19*
X415252Y84000D02*
D03*
X423126D02*
D03*
X431000D02*
D03*
X458500D02*
D03*
X466374D02*
D03*
X474248D02*
D03*
X518500Y55500D02*
D03*
X510626D02*
D03*
X502752D02*
D03*
X518500Y84000D02*
D03*
X510626D02*
D03*
X502752D02*
D03*
X518311Y113000D02*
D03*
X510437D02*
D03*
X502563D02*
D03*
D20*
X361000Y111343D02*
D03*
X371000D02*
D03*
X351000D02*
D03*
Y51500D02*
D03*
X391000D02*
D03*
X361000D02*
D03*
X381000D02*
D03*
X371000D02*
D03*
X381000Y111343D02*
D03*
D21*
X439366Y114059D02*
D03*
X470862D02*
D03*
X407870D02*
D03*
Y51067D02*
D03*
X439366D02*
D03*
X470862D02*
D03*
M02*
