G04*
G04 #@! TF.GenerationSoftware,Altium Limited,Altium Designer,23.0.1 (38)*
G04*
G04 Layer_Color=2752767*
%FSLAX25Y25*%
%MOIN*%
G70*
G04*
G04 #@! TF.SameCoordinates,774D8BB4-ACF3-4C22-8FF0-7C46817B3CBB*
G04*
G04*
G04 #@! TF.FilePolarity,Positive*
G04*
G01*
G75*
%ADD11C,0.00500*%
%ADD22C,0.00667*%
D11*
X405378Y82000D02*
Y86000D01*
X409378D01*
Y82000D01*
X405378D01*
X413252D02*
Y86000D01*
X417252D01*
Y82000D01*
X413252D01*
X421126D02*
Y86000D01*
X425126D01*
Y82000D01*
X421126D01*
X429000D02*
Y86000D01*
X433000D01*
Y82000D01*
X429000D01*
X448626D02*
Y86000D01*
X452626D01*
Y82000D01*
X448626D01*
X456500D02*
Y86000D01*
X460500D01*
Y82000D01*
X456500D01*
X464374D02*
Y86000D01*
X468374D01*
Y82000D01*
X464374D01*
X472248D02*
Y86000D01*
X476248D01*
Y82000D01*
X472248D01*
X516500Y53500D02*
Y57500D01*
X520500D01*
Y53500D01*
X516500D01*
X508626D02*
Y57500D01*
X512626D01*
Y53500D01*
X508626D01*
X500752D02*
Y57500D01*
X504752D01*
Y53500D01*
X500752D01*
X492878D02*
Y57500D01*
X496878D01*
Y53500D01*
X492878D01*
X516500Y82000D02*
Y86000D01*
X520500D01*
Y82000D01*
X516500D01*
X508626D02*
Y86000D01*
X512626D01*
Y82000D01*
X508626D01*
X500752D02*
Y86000D01*
X504752D01*
Y82000D01*
X500752D01*
X492878D02*
Y86000D01*
X496878D01*
Y82000D01*
X492878D01*
X516311Y111000D02*
Y115000D01*
X520311D01*
Y111000D01*
X516311D01*
X508437D02*
Y115000D01*
X512437D01*
Y111000D01*
X508437D01*
X500563D02*
Y115000D01*
X504563D01*
Y111000D01*
X500563D01*
X492689D02*
Y115000D01*
X496689D01*
Y111000D01*
X492689D01*
X439366Y112059D02*
X437366Y116059D01*
X441366D01*
X439366Y112059D01*
X470862D02*
X468862Y116059D01*
X472862D01*
X470862Y112059D01*
X407870D02*
X405870Y116059D01*
X409870D01*
X407870Y112059D01*
Y49067D02*
X405870Y53067D01*
X409870D01*
X407870Y49067D01*
X439366D02*
X437366Y53067D01*
X441366D01*
X439366Y49067D01*
X470862D02*
X468862Y53067D01*
X472862D01*
X470862Y49067D01*
D22*
X363000Y111343D02*
G03*
X363000Y111343I-2000J0D01*
G01*
X373000D02*
G03*
X373000Y111343I-2000J0D01*
G01*
X353000D02*
G03*
X353000Y111343I-2000J0D01*
G01*
Y51500D02*
G03*
X353000Y51500I-2000J0D01*
G01*
X393000D02*
G03*
X393000Y51500I-2000J0D01*
G01*
X363000D02*
G03*
X363000Y51500I-2000J0D01*
G01*
X383000D02*
G03*
X383000Y51500I-2000J0D01*
G01*
X373000D02*
G03*
X373000Y51500I-2000J0D01*
G01*
X383000Y111343D02*
G03*
X383000Y111343I-2000J0D01*
G01*
M02*
