G04*
G04 #@! TF.GenerationSoftware,Altium Limited,Altium Designer,23.0.1 (38)*
G04*
G04 Layer_Color=128*
%FSLAX25Y25*%
%MOIN*%
G70*
G04*
G04 #@! TF.SameCoordinates,774D8BB4-ACF3-4C22-8FF0-7C46817B3CBB*
G04*
G04*
G04 #@! TF.FilePolarity,Positive*
G04*
G01*
G75*
%ADD11C,0.00500*%
D11*
X405803Y84000D02*
X408953D01*
X407378Y82425D02*
Y85575D01*
X413677Y84000D02*
X416827D01*
X415252Y82425D02*
Y85575D01*
X421551Y84000D02*
X424701D01*
X423126Y82425D02*
Y85575D01*
X429425Y84000D02*
X432575D01*
X431000Y82425D02*
Y85575D01*
X358992Y111343D02*
X363008D01*
X361000Y109335D02*
Y113350D01*
X368992Y111343D02*
X373008D01*
X371000Y109335D02*
Y113350D01*
X348992Y111343D02*
X353008D01*
X351000Y109335D02*
Y113350D01*
X348992Y51500D02*
X353008D01*
X351000Y49492D02*
Y53508D01*
X388992Y51500D02*
X393008D01*
X391000Y49492D02*
Y53508D01*
X358992Y51500D02*
X363008D01*
X361000Y49492D02*
Y53508D01*
X378992Y51500D02*
X383008D01*
X381000Y49492D02*
Y53508D01*
X368992Y51500D02*
X373008D01*
X371000Y49492D02*
Y53508D01*
X378992Y111343D02*
X383008D01*
X381000Y109335D02*
Y113350D01*
X449051Y84000D02*
X452201D01*
X450626Y82425D02*
Y85575D01*
X456925Y84000D02*
X460075D01*
X458500Y82425D02*
Y85575D01*
X464799Y84000D02*
X467949D01*
X466374Y82425D02*
Y85575D01*
X472673Y84000D02*
X475823D01*
X474248Y82425D02*
Y85575D01*
X516925Y55500D02*
X520075D01*
X518500Y53925D02*
Y57075D01*
X509051Y55500D02*
X512201D01*
X510626Y53925D02*
Y57075D01*
X501177Y55500D02*
X504327D01*
X502752Y53925D02*
Y57075D01*
X493303Y55500D02*
X496453D01*
X494878Y53925D02*
Y57075D01*
X516925Y84000D02*
X520075D01*
X518500Y82425D02*
Y85575D01*
X509051Y84000D02*
X512201D01*
X510626Y82425D02*
Y85575D01*
X501177Y84000D02*
X504327D01*
X502752Y82425D02*
Y85575D01*
X493303Y84000D02*
X496453D01*
X494878Y82425D02*
Y85575D01*
X516736Y113000D02*
X519886D01*
X518311Y111425D02*
Y114575D01*
X508862Y113000D02*
X512012D01*
X510437Y111425D02*
Y114575D01*
X500988Y113000D02*
X504138D01*
X502563Y111425D02*
Y114575D01*
X493114Y113000D02*
X496264D01*
X494689Y111425D02*
Y114575D01*
X431492Y114059D02*
X447240D01*
X439366Y106185D02*
Y121933D01*
X462988Y114059D02*
X478736D01*
X470862Y106185D02*
Y121933D01*
X399996Y114059D02*
X415744D01*
X407870Y106185D02*
Y121933D01*
X399996Y51067D02*
X415744D01*
X407870Y43193D02*
Y58941D01*
X431492Y51067D02*
X447240D01*
X439366Y43193D02*
Y58941D01*
X462988Y51067D02*
X478736D01*
X470862Y43193D02*
Y58941D01*
M02*
