G04*
G04 #@! TF.GenerationSoftware,Altium Limited,Altium Designer,23.0.1 (38)*
G04*
G04 Layer_Physical_Order=2*
G04 Layer_Color=16711680*
%FSLAX25Y25*%
%MOIN*%
G70*
G04*
G04 #@! TF.SameCoordinates,29F5B130-E819-45AE-A50E-1DD68B7551F0*
G04*
G04*
G04 #@! TF.FilePolarity,Positive*
G04*
G01*
G75*
%ADD14C,0.01000*%
%ADD16R,0.05315X0.04134*%
%ADD17R,0.04134X0.05315*%
%ADD49C,0.01500*%
%ADD50C,0.02000*%
%ADD51C,0.02500*%
%ADD52C,0.05512*%
G04:AMPARAMS|DCode=53|XSize=55.12mil|YSize=55.12mil|CornerRadius=13.78mil|HoleSize=0mil|Usage=FLASHONLY|Rotation=90.000|XOffset=0mil|YOffset=0mil|HoleType=Round|Shape=RoundedRectangle|*
%AMROUNDEDRECTD53*
21,1,0.05512,0.02756,0,0,90.0*
21,1,0.02756,0.05512,0,0,90.0*
1,1,0.02756,0.01378,0.01378*
1,1,0.02756,0.01378,-0.01378*
1,1,0.02756,-0.01378,-0.01378*
1,1,0.02756,-0.01378,0.01378*
%
%ADD53ROUNDEDRECTD53*%
%ADD54C,0.02000*%
%ADD55C,0.02500*%
%ADD56R,0.05906X0.04724*%
%ADD57R,0.07480X0.09843*%
%ADD58R,0.06102X0.09252*%
%ADD59R,0.04724X0.05906*%
G04:AMPARAMS|DCode=60|XSize=49.21mil|YSize=23.23mil|CornerRadius=2.9mil|HoleSize=0mil|Usage=FLASHONLY|Rotation=180.000|XOffset=0mil|YOffset=0mil|HoleType=Round|Shape=RoundedRectangle|*
%AMROUNDEDRECTD60*
21,1,0.04921,0.01742,0,0,180.0*
21,1,0.04341,0.02323,0,0,180.0*
1,1,0.00581,-0.02170,0.00871*
1,1,0.00581,0.02170,0.00871*
1,1,0.00581,0.02170,-0.00871*
1,1,0.00581,-0.02170,-0.00871*
%
%ADD60ROUNDEDRECTD60*%
G36*
X425456Y288800D02*
Y272604D01*
X424956Y272504D01*
X424695Y273133D01*
X424529Y273299D01*
Y279364D01*
X424413Y279949D01*
X424081Y280445D01*
X417410Y287117D01*
X416914Y287448D01*
X416328Y287565D01*
X396848D01*
X394500Y289913D01*
Y290148D01*
X394435Y290305D01*
X394713Y290721D01*
X397539D01*
X398000Y290260D01*
Y290025D01*
X398305Y289290D01*
X398867Y288727D01*
X399602Y288423D01*
X400398D01*
X401133Y288727D01*
X401695Y289290D01*
X402000Y290025D01*
Y290821D01*
X401695Y291556D01*
X401133Y292118D01*
X400922Y292206D01*
X401021Y292706D01*
X421550D01*
X425456Y288800D01*
D02*
G37*
G36*
X356335Y290221D02*
X356247Y290133D01*
X355943Y289398D01*
Y288602D01*
X355968Y288540D01*
X355925Y288475D01*
X355190Y288170D01*
X354627Y287608D01*
X354323Y286873D01*
Y286077D01*
X354384Y285930D01*
X354106Y285514D01*
X343973D01*
X343973Y285514D01*
X343193Y285359D01*
X342531Y284917D01*
X333395Y275780D01*
X332952Y275119D01*
X332797Y274338D01*
Y260210D01*
X324626Y252039D01*
X323500D01*
X323500Y252039D01*
X323303Y252000D01*
X323102D01*
X322917Y251923D01*
X322720Y251884D01*
X322553Y251772D01*
X322367Y251695D01*
X322225Y251554D01*
X322058Y251442D01*
X322058Y251442D01*
X308912Y238296D01*
X308470Y237634D01*
X308315Y236854D01*
Y215199D01*
X308058Y214942D01*
X307946Y214775D01*
X307804Y214633D01*
X307728Y214447D01*
X307616Y214280D01*
X307577Y214083D01*
X307500Y213898D01*
Y213697D01*
X307461Y213500D01*
X307500Y213303D01*
Y213269D01*
X307028Y213034D01*
X304910Y215152D01*
Y261885D01*
X320900Y277875D01*
X321550Y277500D01*
X322216Y277322D01*
Y276804D01*
X321550Y276626D01*
X320694Y276131D01*
X319994Y275432D01*
X319500Y274576D01*
X319244Y273620D01*
Y272632D01*
X319500Y271676D01*
X319994Y270820D01*
X320694Y270121D01*
X321550Y269626D01*
X322216Y269448D01*
Y268930D01*
X321550Y268752D01*
X320694Y268257D01*
X319994Y267558D01*
X319500Y266702D01*
X319244Y265746D01*
Y264757D01*
X319500Y263802D01*
X319994Y262946D01*
X320694Y262246D01*
X321550Y261752D01*
X321817Y261680D01*
X321752Y261180D01*
X321622D01*
X320694Y260996D01*
X319908Y260470D01*
X319382Y259684D01*
X319198Y258756D01*
Y256000D01*
X319382Y255072D01*
X319908Y254286D01*
X320694Y253760D01*
X321622Y253575D01*
X324378D01*
X325306Y253760D01*
X326092Y254286D01*
X326618Y255072D01*
X326802Y256000D01*
Y258756D01*
X326618Y259684D01*
X326092Y260470D01*
X325306Y260996D01*
X324378Y261180D01*
X324248D01*
X324183Y261680D01*
X324450Y261752D01*
X325306Y262246D01*
X326006Y262946D01*
X326500Y263802D01*
X326756Y264757D01*
Y265746D01*
X326500Y266702D01*
X326006Y267558D01*
X325306Y268257D01*
X324450Y268752D01*
X323784Y268930D01*
Y269448D01*
X324450Y269626D01*
X325306Y270121D01*
X326006Y270820D01*
X326500Y271676D01*
X326756Y272632D01*
Y273620D01*
X326752Y273634D01*
X342826Y289708D01*
X343250Y289425D01*
X343000Y288821D01*
Y288025D01*
X343304Y287290D01*
X343867Y286727D01*
X344602Y286423D01*
X345398D01*
X346133Y286727D01*
X346695Y287290D01*
X347000Y288025D01*
Y288260D01*
X349461Y290721D01*
X356128D01*
X356335Y290221D01*
D02*
G37*
G36*
X390565Y290305D02*
X390542Y290250D01*
X392500D01*
Y289250D01*
X390542D01*
X390805Y288617D01*
X391367Y288054D01*
X392102Y287750D01*
X392337D01*
X394003Y286084D01*
X393812Y285622D01*
X383999D01*
X383808Y286084D01*
X385474Y287750D01*
X385898D01*
X386633Y288054D01*
X387195Y288617D01*
X387500Y289352D01*
Y290148D01*
X387435Y290305D01*
X387713Y290721D01*
X390287D01*
X390565Y290305D01*
D02*
G37*
G36*
X341476Y295500D02*
X341668Y295038D01*
X327256Y280626D01*
X326756Y280833D01*
Y281494D01*
X326500Y282450D01*
X326006Y283306D01*
X325306Y284005D01*
X324450Y284500D01*
X323500Y284754D01*
Y281000D01*
X323000D01*
Y280500D01*
X319199D01*
X302299Y263600D01*
X301968Y263104D01*
X301851Y262519D01*
Y214518D01*
X301968Y213933D01*
X302299Y213437D01*
X311236Y204500D01*
X311191Y204244D01*
X311053Y204000D01*
X306000D01*
X305329Y204180D01*
X304044Y204713D01*
X302840Y205408D01*
X301737Y206254D01*
X300754Y207237D01*
X299908Y208340D01*
X299213Y209544D01*
X298680Y210829D01*
X298500Y211500D01*
Y288000D01*
X298680Y288671D01*
X299213Y289956D01*
X299908Y291160D01*
X300754Y292263D01*
X301737Y293246D01*
X302840Y294092D01*
X304044Y294788D01*
X305329Y295320D01*
X306000Y295500D01*
X306000Y295500D01*
X341476D01*
D02*
G37*
G36*
X393968Y278571D02*
X394008Y278374D01*
Y278173D01*
X394085Y277988D01*
X394124Y277791D01*
X394235Y277624D01*
X394312Y277438D01*
X394454Y277296D01*
X394566Y277129D01*
X394733Y277018D01*
X394875Y276876D01*
X395060Y276799D01*
X395227Y276687D01*
X395424Y276648D01*
X395432Y276645D01*
X395584Y276170D01*
X395578Y276084D01*
X395106Y275612D01*
X380529D01*
Y277284D01*
X380696Y277450D01*
X381000Y278185D01*
Y278980D01*
X380935Y279138D01*
X381213Y279553D01*
X381752D01*
X383887Y277419D01*
X384383Y277087D01*
X384969Y276971D01*
X387201D01*
X387367Y276804D01*
X388102Y276500D01*
X388898D01*
X389633Y276804D01*
X390195Y277367D01*
X390500Y278102D01*
Y278898D01*
X390195Y279633D01*
X389633Y280195D01*
X388898Y280500D01*
X388102D01*
X387367Y280195D01*
X387201Y280029D01*
X385602D01*
X384550Y281082D01*
X384741Y281543D01*
X393968D01*
Y278571D01*
D02*
G37*
G36*
X411768Y278131D02*
X412510D01*
X412867Y277773D01*
X413602Y277469D01*
X414398D01*
X414545Y277530D01*
X414961Y277252D01*
Y270574D01*
X411253Y266867D01*
X410791Y267058D01*
Y277953D01*
X411291Y278225D01*
X411768Y278131D01*
D02*
G37*
G36*
X400287Y275815D02*
Y258669D01*
X400365Y258279D01*
X400586Y257948D01*
X400917Y257727D01*
X401307Y257650D01*
X409772D01*
X410051Y257420D01*
Y256906D01*
X407935D01*
X407842Y256906D01*
Y256906D01*
X407453Y256862D01*
Y256862D01*
X399547D01*
Y255539D01*
X398953D01*
Y256906D01*
X397039D01*
Y261057D01*
X397039Y261057D01*
X396884Y261837D01*
X396442Y262499D01*
X396442Y262499D01*
X394581Y264359D01*
X393920Y264801D01*
X393139Y264956D01*
X392311D01*
Y270921D01*
X390130D01*
Y272553D01*
X395740D01*
X396325Y272670D01*
X396821Y273001D01*
X399826Y276006D01*
X400287Y275815D01*
D02*
G37*
G36*
X368870Y254764D02*
X376286D01*
Y253427D01*
X375645D01*
X375141Y253327D01*
X374714Y253042D01*
X374533Y252769D01*
X366551D01*
Y258636D01*
X366689Y259079D01*
X368870D01*
Y254764D01*
D02*
G37*
G36*
X366689Y268226D02*
Y260069D01*
X366551Y259626D01*
X358449D01*
Y252529D01*
X351046D01*
X350839Y253029D01*
X366227Y268418D01*
X366689Y268226D01*
D02*
G37*
G36*
X443421Y263024D02*
Y249508D01*
X443499Y249118D01*
X443720Y248787D01*
X443730Y248687D01*
X416000Y220958D01*
X415500Y221165D01*
Y221512D01*
X415196Y222247D01*
X414633Y222810D01*
X413898Y223114D01*
X413793D01*
X413601Y223576D01*
X421376Y231350D01*
X421707Y231847D01*
X421824Y232432D01*
Y245989D01*
X423682D01*
X423867Y245805D01*
X424500Y245542D01*
Y247500D01*
Y249458D01*
X423867Y249196D01*
X423719Y249048D01*
X421824D01*
Y251547D01*
X423638D01*
X423776Y251547D01*
Y251547D01*
X424138D01*
Y251547D01*
X430862D01*
Y253206D01*
X432000D01*
X432878Y253380D01*
X433622Y253878D01*
X442959Y263215D01*
X443421Y263024D01*
D02*
G37*
G36*
X421471Y278731D02*
Y273299D01*
X421305Y273133D01*
X421042Y272500D01*
X423000D01*
Y271500D01*
X421042D01*
X421305Y270867D01*
X421471Y270701D01*
Y266299D01*
X421305Y266133D01*
X421042Y265500D01*
X423000D01*
Y264500D01*
X421042D01*
X421305Y263867D01*
X421471Y263701D01*
Y259453D01*
X420913D01*
Y255500D01*
X420413D01*
Y255000D01*
X417051D01*
Y251547D01*
X416664Y251276D01*
X415158D01*
Y256906D01*
X414130D01*
Y263976D01*
X418442Y268288D01*
X418884Y268949D01*
X419039Y269730D01*
Y280455D01*
X419539Y280662D01*
X421471Y278731D01*
D02*
G37*
G36*
X475000Y295500D02*
X475777Y295332D01*
X477268Y294777D01*
X478664Y294015D01*
X479938Y293062D01*
X481062Y291938D01*
X482015Y290664D01*
X482777Y289268D01*
X483332Y287777D01*
X483500Y287000D01*
X483500D01*
X483500Y287000D01*
X483500Y234612D01*
X483000Y234345D01*
X482834Y234456D01*
X482248Y234573D01*
X478953D01*
Y236405D01*
X474651D01*
X474574Y236547D01*
X474870Y237047D01*
X478905D01*
Y244953D01*
X474344D01*
X473840Y245457D01*
X474031Y245918D01*
X475753D01*
X475867Y245805D01*
X476602Y245500D01*
X477398D01*
X478133Y245805D01*
X478695Y246367D01*
X479000Y247102D01*
Y247898D01*
X478695Y248633D01*
X478133Y249196D01*
X477398Y249500D01*
X476602D01*
X476543Y249476D01*
X476148D01*
X476090Y249487D01*
X473509D01*
X473492Y249508D01*
Y264075D01*
X473414Y264465D01*
X473193Y264796D01*
X472863Y265017D01*
X472472Y265094D01*
X462866D01*
X462476Y265017D01*
X462145Y264796D01*
X461924Y264465D01*
X461847Y264075D01*
Y249508D01*
X461829Y249487D01*
X460596D01*
X460579Y249508D01*
Y264075D01*
X460501Y264465D01*
X460280Y264796D01*
X459949Y265017D01*
X459559Y265094D01*
X454441D01*
X454051Y265017D01*
X453720Y264796D01*
X453499Y264465D01*
X453421Y264075D01*
Y249508D01*
X453404Y249487D01*
X450596D01*
X450579Y249508D01*
Y264075D01*
X450501Y264465D01*
X450280Y264796D01*
X449949Y265017D01*
X449559Y265094D01*
X445492D01*
X445301Y265556D01*
X448450Y268706D01*
X475500D01*
X475722Y268750D01*
X475948D01*
X476156Y268836D01*
X476378Y268881D01*
X476566Y269006D01*
X476775Y269092D01*
X476934Y269252D01*
X477122Y269378D01*
X477248Y269566D01*
X477408Y269725D01*
X477494Y269934D01*
X477619Y270122D01*
X477664Y270344D01*
X477750Y270552D01*
Y270778D01*
X477794Y271000D01*
X477750Y271222D01*
Y271448D01*
X477664Y271656D01*
X477619Y271878D01*
X477494Y272066D01*
X477408Y272274D01*
X477248Y272434D01*
X477122Y272622D01*
X476934Y272748D01*
X476775Y272907D01*
X476566Y272994D01*
X476378Y273119D01*
X476156Y273164D01*
X475948Y273250D01*
X475722D01*
X475500Y273294D01*
X447500D01*
X446622Y273119D01*
X445878Y272622D01*
X431362Y258106D01*
X430862Y258314D01*
Y259453D01*
X429794D01*
Y262042D01*
X429869Y262155D01*
X430044Y263033D01*
Y289750D01*
X429869Y290628D01*
X429372Y291372D01*
X425706Y295038D01*
X425898Y295500D01*
X475000D01*
D02*
G37*
G36*
X384211Y251554D02*
Y250369D01*
X384311Y249866D01*
X384382Y249760D01*
X384564Y249370D01*
X384382Y248981D01*
X384311Y248874D01*
X384211Y248371D01*
Y248000D01*
X387697D01*
Y247000D01*
X384211D01*
Y246629D01*
X384311Y246126D01*
X384382Y246019D01*
X384564Y245630D01*
X384382Y245240D01*
X384311Y245134D01*
X384211Y244631D01*
Y244403D01*
X383749Y244211D01*
X383119Y244841D01*
X382623Y245173D01*
X382037Y245289D01*
X381243D01*
X380980Y245699D01*
X381130Y246019D01*
X381201Y246126D01*
X381301Y246629D01*
Y248371D01*
X381201Y248874D01*
X381130Y248981D01*
X380948Y249370D01*
X381130Y249760D01*
X381201Y249866D01*
X381301Y250369D01*
Y252111D01*
X381201Y252615D01*
X380915Y253042D01*
X380489Y253327D01*
X379985Y253427D01*
X379344D01*
Y254764D01*
X381001D01*
X384211Y251554D01*
D02*
G37*
G36*
X358449Y248374D02*
X363836D01*
X364027Y247912D01*
X362750Y246635D01*
X358517D01*
X357639Y246460D01*
X356895Y245963D01*
X353878Y242946D01*
X353453Y242310D01*
X352953Y242419D01*
Y246905D01*
X350529D01*
Y248867D01*
X351133Y249471D01*
X358449D01*
Y248374D01*
D02*
G37*
G36*
X345013Y281309D02*
X345132Y280787D01*
X345067Y280744D01*
X343735Y279412D01*
X343293Y278750D01*
X343138Y277970D01*
Y265313D01*
X343116Y265280D01*
X343077Y265083D01*
X343000Y264898D01*
Y264697D01*
X342961Y264500D01*
X343000Y264303D01*
Y264102D01*
X343077Y263917D01*
X343116Y263720D01*
X343228Y263553D01*
X343304Y263367D01*
X343446Y263225D01*
X343558Y263058D01*
X343725Y262947D01*
X343867Y262805D01*
X344053Y262728D01*
X344220Y262616D01*
X344417Y262577D01*
X344602Y262500D01*
X344803D01*
X345000Y262461D01*
X345197Y262500D01*
X345398D01*
X345583Y262577D01*
X345780Y262616D01*
X345947Y262728D01*
X346133Y262805D01*
X346275Y262947D01*
X346442Y263058D01*
X346619Y263235D01*
X346619Y263235D01*
X347061Y263896D01*
X347216Y264677D01*
Y277125D01*
X347353Y277262D01*
X362567D01*
X362759Y276800D01*
X327218Y241259D01*
X326756Y241451D01*
Y241494D01*
X326500Y242450D01*
X326006Y243306D01*
X325306Y244005D01*
X324450Y244500D01*
X323500Y244754D01*
Y241000D01*
X323000D01*
Y240500D01*
X319246D01*
X319447Y239748D01*
X314299Y234600D01*
X313968Y234104D01*
X313851Y233519D01*
Y207048D01*
X313014D01*
X309034Y211028D01*
X309269Y211500D01*
X309303D01*
X309500Y211461D01*
X309697Y211500D01*
X309898D01*
X310083Y211577D01*
X310280Y211616D01*
X310447Y211728D01*
X310633Y211805D01*
X310775Y211947D01*
X310942Y212058D01*
X311796Y212912D01*
X311796Y212912D01*
X312238Y213574D01*
X312393Y214354D01*
Y236010D01*
X318932Y242548D01*
X319008Y242531D01*
X319365Y241944D01*
X319246Y241500D01*
X322500D01*
Y244754D01*
X322056Y244636D01*
X321469Y244992D01*
X321452Y245069D01*
X324345Y247961D01*
X325471D01*
X326251Y248116D01*
X326912Y248558D01*
X336278Y257924D01*
X336720Y258586D01*
X336876Y259366D01*
Y273494D01*
X344730Y281348D01*
X345013Y281309D01*
D02*
G37*
G36*
X390674Y239919D02*
X391171Y239587D01*
X391756Y239471D01*
X409634D01*
X409831Y239158D01*
X409592Y238657D01*
X403772D01*
Y234643D01*
X402690Y233562D01*
X402228Y233753D01*
Y238657D01*
X396094D01*
Y236529D01*
X391431D01*
X386849Y241111D01*
X387040Y241573D01*
X389020D01*
X390674Y239919D01*
D02*
G37*
G36*
X389716Y233919D02*
X390212Y233587D01*
X390797Y233471D01*
X396094D01*
Y231420D01*
X385324D01*
X381325Y235419D01*
X380581Y235917D01*
X380405Y235951D01*
Y239453D01*
X377712D01*
X377553Y239691D01*
X376133Y241111D01*
X376325Y241573D01*
X379985D01*
X380489Y241673D01*
X380915Y241958D01*
X380978Y242052D01*
X381541Y242093D01*
X389716Y233919D01*
D02*
G37*
G36*
X409680Y230842D02*
X403043Y224205D01*
X380405D01*
Y229197D01*
X380868Y229388D01*
X382752Y227504D01*
X383496Y227007D01*
X384374Y226832D01*
X401499D01*
X402377Y227007D01*
X403121Y227504D01*
X406960Y231343D01*
X409473D01*
X409680Y230842D01*
D02*
G37*
G36*
X418765Y233065D02*
X407905Y222205D01*
X406021D01*
X405830Y222667D01*
X412581Y229419D01*
X412913Y229915D01*
X413029Y230500D01*
Y242000D01*
Y243094D01*
X415158D01*
Y248217D01*
X418765D01*
Y233065D01*
D02*
G37*
G36*
X453443Y236547D02*
X453421Y236437D01*
Y221870D01*
X453499Y221480D01*
X453720Y221149D01*
X454051Y220928D01*
X454441Y220850D01*
X459480D01*
X459617Y220663D01*
X459707Y220370D01*
X459337Y220000D01*
X459102D01*
X458367Y219695D01*
X457804Y219133D01*
X457500Y218398D01*
Y218163D01*
X451036Y211699D01*
X450648Y212018D01*
X450913Y212415D01*
X451029Y213000D01*
Y216201D01*
X451195Y216367D01*
X451500Y217102D01*
Y217898D01*
X451195Y218633D01*
X450633Y219196D01*
X449898Y219500D01*
X449102D01*
X448367Y219196D01*
X447804Y218633D01*
X447500Y217898D01*
Y217102D01*
X447804Y216367D01*
X447971Y216201D01*
Y213633D01*
X445866Y211529D01*
X438112D01*
X437767Y211892D01*
X437784Y212091D01*
X438102Y212500D01*
X438898D01*
X439633Y212805D01*
X440196Y213367D01*
X440500Y214102D01*
Y214898D01*
X440196Y215633D01*
X440029Y215799D01*
Y231984D01*
X442959Y234914D01*
X443421Y234723D01*
Y221870D01*
X443499Y221480D01*
X443720Y221149D01*
X444051Y220928D01*
X444441Y220850D01*
X449559D01*
X449949Y220928D01*
X450280Y221149D01*
X450501Y221480D01*
X450579Y221870D01*
Y236437D01*
X450563Y236518D01*
X450929Y237018D01*
X452095D01*
X452242Y237047D01*
X453090D01*
X453443Y236547D01*
D02*
G37*
G36*
X343092Y249272D02*
X343018Y248901D01*
Y240319D01*
X343134Y239734D01*
X343466Y239237D01*
X345047Y237656D01*
Y233095D01*
X350237D01*
X350429Y232632D01*
X336590Y218794D01*
X333500D01*
X332622Y218619D01*
X331878Y218122D01*
X331381Y217378D01*
X331206Y216500D01*
X331381Y215622D01*
X331878Y214878D01*
X332622Y214381D01*
X333500Y214206D01*
X337540D01*
X338418Y214381D01*
X339162Y214878D01*
X355825Y231540D01*
X355889Y231636D01*
X357122Y232869D01*
X357620Y233613D01*
X357794Y234491D01*
Y240106D01*
X357949Y240221D01*
X358449Y239969D01*
Y237965D01*
X362500D01*
Y236965D01*
X358449D01*
Y231839D01*
X360971D01*
Y228633D01*
X339385Y207048D01*
X337113D01*
X337013Y207548D01*
X337633Y207804D01*
X338195Y208367D01*
X338500Y209102D01*
Y209898D01*
X338195Y210633D01*
X337633Y211195D01*
X336898Y211500D01*
X336102D01*
X335367Y211195D01*
X335201Y211029D01*
X334000D01*
X333415Y210913D01*
X332919Y210581D01*
X331867Y209529D01*
X321634D01*
X319029Y212134D01*
Y214700D01*
X319529Y214852D01*
X319908Y214286D01*
X320694Y213760D01*
X321622Y213576D01*
X324378D01*
X325306Y213760D01*
X326092Y214286D01*
X326618Y215072D01*
X326802Y216000D01*
Y218756D01*
X326759Y218974D01*
X330337Y222552D01*
X330669Y223049D01*
X330785Y223634D01*
Y237673D01*
X342631Y249518D01*
X343092Y249272D01*
D02*
G37*
G36*
X445810Y245625D02*
X445974Y245083D01*
X434919Y234027D01*
X434587Y233531D01*
X434471Y232946D01*
Y211465D01*
X434587Y210879D01*
X434919Y210383D01*
X435310Y209991D01*
X435119Y209529D01*
X430126D01*
X426074Y213581D01*
X425578Y213913D01*
X424993Y214029D01*
X414497D01*
X414399Y214199D01*
X414655Y214759D01*
X414656Y214759D01*
X415235Y215146D01*
X445730Y245641D01*
X445810Y245625D01*
D02*
G37*
G36*
X393643Y216666D02*
X388891Y211914D01*
X388363Y211696D01*
X387800Y211133D01*
X387495Y210398D01*
Y209602D01*
X387800Y208867D01*
X388138Y208529D01*
X387930Y208029D01*
X368211D01*
X368004Y208529D01*
X368077Y208603D01*
X368382Y209338D01*
Y209573D01*
X375937Y217128D01*
X393451D01*
X393643Y216666D01*
D02*
G37*
G36*
X481305Y220133D02*
X467201Y206029D01*
X449845D01*
X449795Y206529D01*
X450085Y206587D01*
X450581Y206919D01*
X459663Y216000D01*
X459898D01*
X460633Y216304D01*
X461196Y216867D01*
X461500Y217602D01*
Y217837D01*
X462004Y218341D01*
X471800D01*
X472386Y218457D01*
X472882Y218789D01*
X475692Y221599D01*
X476023Y222095D01*
X476123Y222594D01*
X478953D01*
Y229319D01*
X478953D01*
Y229681D01*
X478953D01*
Y231514D01*
X481305D01*
Y220133D01*
D02*
G37*
G36*
X412522Y211087D02*
X413107Y210971D01*
X424359D01*
X428411Y206919D01*
X428907Y206587D01*
X429197Y206529D01*
X429148Y206029D01*
X422213D01*
X421935Y206445D01*
X422000Y206602D01*
Y207398D01*
X421696Y208133D01*
X421133Y208696D01*
X420398Y209000D01*
X419602D01*
X419081Y208784D01*
X408711D01*
X408515Y208980D01*
X407936Y209367D01*
X407254Y209503D01*
X397455D01*
X397264Y209965D01*
X398495Y211196D01*
X412360D01*
X412522Y211087D01*
D02*
G37*
G36*
X366551Y231839D02*
X366595Y231547D01*
X368308D01*
Y230658D01*
X366595D01*
Y227500D01*
X369661D01*
Y226500D01*
X366595D01*
Y225643D01*
X358000Y217049D01*
Y215000D01*
Y213042D01*
X358633Y213304D01*
X359195Y213867D01*
X359261Y214026D01*
X359387Y214110D01*
X367525Y222248D01*
X368067Y222083D01*
X368129Y221772D01*
X368461Y221276D01*
X370142Y219595D01*
X370638Y219263D01*
X371223Y219147D01*
X372976D01*
X373168Y218685D01*
X366219Y211736D01*
X365984D01*
X365249Y211432D01*
X364686Y210869D01*
X364382Y210134D01*
Y209338D01*
X364686Y208603D01*
X365231Y208059D01*
X364805Y207633D01*
X364500Y206898D01*
Y206102D01*
X364805Y205367D01*
X365367Y204804D01*
X366102Y204500D01*
X366898D01*
X367633Y204804D01*
X367799Y204971D01*
X391636D01*
X391640Y204967D01*
Y204571D01*
X391704Y204416D01*
X391426Y204000D01*
X341346D01*
X341209Y204244D01*
X341163Y204500D01*
X363581Y226919D01*
X363913Y227415D01*
X364029Y228000D01*
Y231839D01*
X366551D01*
D02*
G37*
G36*
X483500Y217350D02*
Y212000D01*
X483285Y211295D01*
X482687Y209947D01*
X481928Y208683D01*
X481021Y207521D01*
X479979Y206479D01*
X478817Y205572D01*
X477553Y204813D01*
X476205Y204215D01*
X475500Y204000D01*
X475500Y204000D01*
X475500Y204000D01*
X470150D01*
X469959Y204462D01*
X483038Y217541D01*
X483500Y217350D01*
D02*
G37*
%LPC*%
G36*
X322500Y284754D02*
X321550Y284500D01*
X320694Y284005D01*
X319994Y283306D01*
X319500Y282450D01*
X319246Y281500D01*
X322500D01*
Y284754D01*
D02*
G37*
G36*
X425500Y249458D02*
Y248000D01*
X426958D01*
X426695Y248633D01*
X426133Y249196D01*
X425500Y249458D01*
D02*
G37*
G36*
X426958Y247000D02*
X425500D01*
Y245542D01*
X426133Y245805D01*
X426695Y246367D01*
X426958Y247000D01*
D02*
G37*
G36*
X419913Y259453D02*
X417051D01*
Y256000D01*
X419913D01*
Y259453D01*
D02*
G37*
G36*
X439736Y288047D02*
X432638D01*
X432247Y287969D01*
X431917Y287749D01*
X431696Y287418D01*
X431618Y287028D01*
Y278708D01*
X431696Y278317D01*
X431917Y277987D01*
X432247Y277766D01*
X432638Y277688D01*
X439736D01*
X440126Y277766D01*
X440457Y277987D01*
X440678Y278317D01*
X440756Y278708D01*
Y287028D01*
X440678Y287418D01*
X440457Y287749D01*
X440126Y287969D01*
X439736Y288047D01*
D02*
G37*
G36*
X357000Y216958D02*
X356367Y216695D01*
X355804Y216133D01*
X355542Y215500D01*
X357000D01*
Y216958D01*
D02*
G37*
G36*
Y214500D02*
X355542D01*
X355804Y213867D01*
X356367Y213304D01*
X357000Y213042D01*
Y214500D01*
D02*
G37*
%LPD*%
D14*
X461370Y219870D02*
X471800D01*
X449500Y208000D02*
X461370Y219870D01*
X429493Y208000D02*
X449500D01*
X397861Y212725D02*
X412060D01*
X413107D01*
X412060D02*
Y213577D01*
X375303Y218657D02*
X411043D01*
X413500Y221114D01*
X411768Y279660D02*
X413809D01*
X399807Y280157D02*
X400686Y281035D01*
X413809Y279660D02*
X414000Y279469D01*
X410393Y281035D02*
X411768Y279660D01*
X400686Y281035D02*
X410393D01*
X403901Y204500D02*
X467834D01*
X397176Y204969D02*
X403433D01*
X391636Y206500D02*
X397861Y212725D01*
X366586Y206500D02*
X391636D01*
X403433Y204969D02*
X403901Y204500D01*
X366382Y209736D02*
X375303Y218657D01*
X413107Y212500D02*
X413850D01*
X379000Y274083D02*
X395740D01*
X365032D02*
X379000D01*
Y278583D01*
X382386Y281083D02*
X384969Y278500D01*
X372193Y276610D02*
X376665Y281083D01*
X382386D01*
X364732Y276610D02*
X372193D01*
X327256Y239135D02*
X364732Y276610D01*
X329256Y238306D02*
X365032Y274083D01*
X377336Y272000D02*
X380500Y268835D01*
X344547Y248901D02*
X367646Y272000D01*
X377336D01*
X462500Y230000D02*
Y239543D01*
X461043Y241000D02*
X462500Y239543D01*
X362500Y228000D02*
Y237465D01*
X340019Y205519D02*
X362500Y228000D01*
X315381Y205519D02*
X340019D01*
X384969Y278500D02*
X388500D01*
X395740Y274083D02*
X399807Y278150D01*
X416328Y286035D02*
X423000Y279364D01*
X399807Y278150D02*
Y280157D01*
X382036Y286475D02*
X385311Y289750D01*
X385500D01*
X357943Y289000D02*
X380479D01*
X396215Y286035D02*
X416328D01*
X345000Y288423D02*
X348827Y292250D01*
X398173D02*
X400000Y290423D01*
X381229Y289750D02*
X381500D01*
X348827Y292250D02*
X398173D01*
X392500Y289750D02*
X396215Y286035D01*
X380479Y289000D02*
X381229Y289750D01*
X356323Y286475D02*
X382036D01*
X423000Y265000D02*
Y272000D01*
Y258677D02*
Y265000D01*
Y272000D02*
Y279364D01*
X482834Y219500D02*
Y232457D01*
X474555Y233043D02*
X482248D01*
X482834Y232457D01*
X468457Y240409D02*
X472693Y236173D01*
Y234906D02*
Y236173D01*
Y234906D02*
X474555Y233043D01*
X468457Y240409D02*
Y241000D01*
X420413Y256090D02*
X423000Y258677D01*
X420413Y255500D02*
Y256090D01*
X420294Y255381D02*
X420413Y255500D01*
X403971Y246432D02*
X404109D01*
X369542Y222357D02*
Y226290D01*
X358306Y215191D02*
X367957Y224843D01*
X322862Y241000D02*
X323000D01*
X369837Y227176D02*
Y235381D01*
X357691Y215191D02*
X358306D01*
X312381Y205519D02*
X315381D01*
X420294Y232432D02*
Y249518D01*
X369661Y226410D02*
Y227000D01*
X303381Y214518D02*
X312381Y205519D01*
X321881Y281018D02*
X322982D01*
X407286Y249747D02*
X420066D01*
X405953Y248276D02*
Y248413D01*
X369542Y222357D02*
X371223Y220676D01*
X387715Y247518D02*
X393938D01*
X367957Y224843D02*
X368094D01*
X420066Y249747D02*
X420294Y249518D01*
X420294Y247518D02*
X424981D01*
X408538Y220676D02*
X420294Y232432D01*
X405953Y248413D02*
X407286Y249747D01*
X404109Y246432D02*
X405953Y248276D01*
X369680Y227018D02*
X369837Y227176D01*
X369542Y226290D02*
X369661Y226410D01*
X369837Y235381D02*
X369957Y235500D01*
X420294Y249518D02*
Y255381D01*
X371223Y220676D02*
X408538D01*
X393938Y247518D02*
X395000Y246457D01*
X368094Y224843D02*
X369542Y226290D01*
X315381Y233519D02*
X322862Y241000D01*
X303381Y214518D02*
Y262519D01*
X321881Y281018D01*
X395019Y246475D02*
X403438D01*
X403500Y246413D01*
X364446Y235519D02*
X369938D01*
X357500Y215000D02*
X357691Y215191D01*
X362500Y237465D02*
X364446Y235519D01*
X315381Y205519D02*
Y233519D01*
X468457Y241000D02*
Y241138D01*
X403676Y222676D02*
X411500Y230500D01*
X377679Y223321D02*
X378324Y222676D01*
X403676D01*
X377339Y227000D02*
X377679Y226659D01*
Y223321D02*
Y226659D01*
X323000Y217378D02*
X329256Y223634D01*
Y238306D01*
X332500Y208000D02*
X334000Y209500D01*
X336500D01*
X321000Y208000D02*
X332500D01*
X317500Y211500D02*
X321000Y208000D01*
X325773Y228025D02*
X325964D01*
X327256Y229317D01*
X323000Y225252D02*
X325773Y228025D01*
X318338Y225252D02*
X323000D01*
X317500Y224414D02*
X318338Y225252D01*
X317500Y211500D02*
Y224414D01*
X327256Y229317D02*
Y239135D01*
X391756Y241000D02*
X410500D01*
X388996Y243760D02*
X391756Y241000D01*
X410500D02*
X411500Y242000D01*
X467834Y204500D02*
X482834Y219500D01*
X413850Y212500D02*
X424993D01*
X462906Y243000D02*
X466595D01*
X461043Y241000D02*
Y241138D01*
X466595Y243000D02*
X468457Y241138D01*
X461043D02*
X462906Y243000D01*
X448507Y245453D02*
X471440D01*
X471690Y245203D01*
X424993Y212500D02*
X429493Y208000D01*
X471931Y245203D02*
X475543Y241590D01*
X471690Y245203D02*
X471931D01*
X436000Y232946D02*
X448507Y245453D01*
X371429Y263819D02*
X377815Y257433D01*
X344547Y240319D02*
Y248901D01*
Y240319D02*
X348410Y236457D01*
X380500Y257428D02*
X386688Y251240D01*
X380500Y257428D02*
Y268835D01*
X348410Y236457D02*
X349000D01*
X377815Y251240D02*
Y257433D01*
X362500Y253791D02*
Y254000D01*
X449500Y213000D02*
Y217500D01*
X437465Y210000D02*
X446500D01*
X449500Y213000D01*
X438500Y214500D02*
Y232617D01*
X436000Y211465D02*
X437465Y210000D01*
X474611Y222680D02*
Y225567D01*
X471800Y219870D02*
X474611Y222680D01*
Y225567D02*
X475000Y225957D01*
X377815Y243760D02*
X382037D01*
X390797Y235000D01*
X411500Y230500D02*
Y242000D01*
X362500Y253791D02*
X365051Y251240D01*
X377815D01*
X386688D02*
X387697D01*
X349000Y243543D02*
Y249500D01*
X350500Y251000D01*
X359949D01*
X362500Y253551D02*
Y253791D01*
X359949Y251000D02*
X362500Y253551D01*
X371429Y263819D02*
Y265000D01*
X411500Y242000D02*
Y246161D01*
X387697Y243760D02*
X388996D01*
X390797Y235000D02*
X399161D01*
X475543Y241000D02*
Y241590D01*
X436000Y211465D02*
Y232946D01*
X444430Y238547D02*
X452095D01*
X453957Y240409D02*
Y241000D01*
X438500Y232617D02*
X444430Y238547D01*
X452095D02*
X453957Y240409D01*
D16*
X411500Y253839D02*
D03*
Y246161D02*
D03*
D17*
X377339Y227000D02*
D03*
X369661D02*
D03*
X399161Y235000D02*
D03*
X406839D02*
D03*
D49*
X413973Y216407D02*
X445268Y247703D01*
X395907Y216407D02*
X413973D01*
X396037Y207718D02*
X407254D01*
X394426Y206108D02*
X396037Y207718D01*
X393640Y205104D02*
X394426Y205889D01*
Y206108D01*
X393640Y204969D02*
Y205104D01*
X389495Y210000D02*
X389500D01*
X395907Y216407D01*
X407254Y207718D02*
X407972Y207000D01*
X420000D01*
X476102Y247691D02*
X476809D01*
X445268Y247703D02*
X476090D01*
X476809Y247691D02*
X477000Y247500D01*
X476090Y247703D02*
X476102Y247691D01*
D50*
X346509Y279302D02*
X371349D01*
X345177Y277970D02*
X346509Y279302D01*
X411161Y253500D02*
X412090Y254429D01*
X395043Y253500D02*
X411161D01*
X396008Y278571D02*
Y283535D01*
X395752D02*
X411428D01*
X411702Y283262D01*
X414450D01*
X417000Y280711D01*
X362576Y283583D02*
X395705D01*
X343973Y283475D02*
X362468D01*
X334836Y274338D02*
X343973Y283475D01*
X362468D02*
X362576Y283583D01*
X395000Y253543D02*
Y261057D01*
X393139Y262917D02*
X395000Y261057D01*
X389654Y262917D02*
X393139D01*
X387571Y265000D02*
X389654Y262917D01*
X412090Y254429D02*
Y264820D01*
X417000Y269730D01*
Y280711D01*
X325471Y250000D02*
X334836Y259366D01*
X310354Y214354D02*
Y236854D01*
X334836Y259366D02*
Y274338D01*
X310354Y236854D02*
X323500Y250000D01*
X309500Y213500D02*
X310354Y214354D01*
X323500Y250000D02*
X325471D01*
X345000Y264500D02*
X345177Y264677D01*
Y277970D01*
D51*
X344874Y295000D02*
X422500D01*
X427750Y289750D01*
X323000Y273126D02*
X344874Y295000D01*
X427500Y262783D02*
X427750Y263033D01*
X427500Y255500D02*
Y262783D01*
X427750Y263033D02*
Y289750D01*
X337540Y216500D02*
X354203Y233162D01*
Y233194D01*
X355500Y234491D01*
Y241324D01*
X333500Y216500D02*
X337540D01*
X355500Y241324D02*
X358517Y244340D01*
X363700D02*
X366859Y247500D01*
X358517Y244340D02*
X363700D01*
X366859Y247500D02*
X371570D01*
X377043Y234910D02*
Y235500D01*
X384374Y229126D02*
X401499D01*
X378155Y233797D02*
X379703D01*
X377043Y234910D02*
X378155Y233797D01*
X379703D02*
X384374Y229126D01*
X371570Y242430D02*
X375931Y238069D01*
Y236808D02*
Y238069D01*
X371570Y242430D02*
Y247500D01*
X375931Y236808D02*
X377043Y235696D01*
X427500Y255500D02*
X432000D01*
X447500Y271000D01*
X475500D01*
X371570Y247500D02*
X377759D01*
X405716Y233343D02*
X405772D01*
X401499Y229126D02*
X405716Y233343D01*
X405772D02*
X406909Y234479D01*
Y234930D01*
D52*
X323000Y233126D02*
D03*
Y241000D02*
D03*
Y225252D02*
D03*
Y281000D02*
D03*
Y273126D02*
D03*
Y265252D02*
D03*
D53*
Y217378D02*
D03*
Y257378D02*
D03*
D54*
X459500Y218000D02*
D03*
X412060Y213577D02*
D03*
X397176Y204969D02*
D03*
X393640D02*
D03*
X389495Y210000D02*
D03*
X366382Y209736D02*
D03*
X379000Y278583D02*
D03*
X371349Y279302D02*
D03*
X414000Y279469D02*
D03*
X385500Y289750D02*
D03*
X392500D02*
D03*
X381500D02*
D03*
X400000Y290423D02*
D03*
X396008Y278571D02*
D03*
X423000Y265000D02*
D03*
X356323Y286475D02*
D03*
X357943Y289000D02*
D03*
X425000Y247500D02*
D03*
X423000Y272000D02*
D03*
X357500Y215000D02*
D03*
X336500Y209500D02*
D03*
X388500Y278500D02*
D03*
X420000Y207000D02*
D03*
X477000Y247500D02*
D03*
X345000Y288423D02*
D03*
X345354Y278146D02*
D03*
X438500Y214500D02*
D03*
X366500Y206500D02*
D03*
X323500Y250000D02*
D03*
X309500Y213500D02*
D03*
X333500Y216500D02*
D03*
X345000Y264500D02*
D03*
X413500Y221114D02*
D03*
X449500Y217500D02*
D03*
X462500Y230000D02*
D03*
D55*
X475500Y271000D02*
D03*
D56*
X403500Y253500D02*
D03*
X395000Y253543D02*
D03*
X475000Y233043D02*
D03*
Y225957D02*
D03*
X403500Y246413D02*
D03*
X395000Y246457D02*
D03*
X349000Y236457D02*
D03*
Y243543D02*
D03*
D57*
X387571Y265000D02*
D03*
X371429D02*
D03*
D58*
X362500Y237465D02*
D03*
Y254000D02*
D03*
D59*
X369957Y235500D02*
D03*
X377043D02*
D03*
X468457Y241000D02*
D03*
X475543D02*
D03*
X453957D02*
D03*
X461043D02*
D03*
X427500Y255500D02*
D03*
X420413D02*
D03*
D60*
X387697Y251240D02*
D03*
Y247500D02*
D03*
Y243760D02*
D03*
X377815D02*
D03*
Y247500D02*
D03*
Y251240D02*
D03*
M02*
