G04*
G04 #@! TF.GenerationSoftware,Altium Limited,Altium Designer,23.0.1 (38)*
G04*
G04 Layer_Color=16711935*
%FSLAX25Y25*%
%MOIN*%
G70*
G04*
G04 #@! TF.SameCoordinates,8F8842E6-A163-4070-9E61-B2F925759E80*
G04*
G04*
G04 #@! TF.FilePolarity,Positive*
G04*
G01*
G75*
%ADD10C,0.00787*%
%ADD13C,0.00500*%
%ADD14C,0.00394*%
D10*
X385752Y229252D02*
G03*
X385752Y229252I-394J0D01*
G01*
X346189Y275402D02*
G03*
X346189Y275402I-394J0D01*
G01*
D13*
X437541Y282539D02*
G03*
X437541Y282539I-1309J0D01*
G01*
X438364D02*
G03*
X438364Y282539I-2171J0D01*
G01*
X386343Y237126D02*
Y252874D01*
X366657Y237126D02*
Y252874D01*
Y237126D02*
X386343D01*
X366657Y252874D02*
X386343D01*
X431075Y277382D02*
Y279075D01*
Y287618D01*
X441311Y277382D02*
Y287618D01*
X441626Y285925D02*
X442374D01*
Y279075D02*
Y285925D01*
X441468Y279075D02*
X442374D01*
X430012D02*
Y285925D01*
X430957D01*
Y285965D01*
X431075Y277382D02*
X441311D01*
X431075Y287618D02*
X441311D01*
X430012Y279075D02*
X431075D01*
X352095Y284260D02*
X413905D01*
Y214968D02*
Y284260D01*
X352095Y214968D02*
X413905D01*
X352095D02*
Y284260D01*
D14*
X353669Y231646D02*
X362331D01*
X353669Y237354D02*
X362331D01*
X353669Y231646D02*
Y237354D01*
X362331Y231646D02*
Y237354D01*
X319634Y288342D02*
Y293657D01*
X311366Y288342D02*
Y293657D01*
Y288342D02*
X319634D01*
X311366Y293657D02*
X319634D01*
X353669Y272854D02*
X362331D01*
X353669Y267146D02*
X362331D01*
Y272854D01*
X353669Y267146D02*
Y272854D01*
X392169Y229354D02*
X400831D01*
X392169Y223646D02*
X400831D01*
Y229354D01*
X392169Y223646D02*
Y229354D01*
X307854Y274169D02*
Y282831D01*
X302146Y274169D02*
Y282831D01*
X307854D01*
X302146Y274169D02*
X307854D01*
X397854Y245669D02*
Y254331D01*
X392146Y245669D02*
Y254331D01*
Y245669D02*
X397854D01*
X392146Y254331D02*
X397854D01*
X406354Y245626D02*
Y254287D01*
X400646Y245626D02*
Y254287D01*
Y245626D02*
X406354D01*
X400646Y254287D02*
X406354D01*
X357634Y220843D02*
Y226157D01*
X349366Y220843D02*
Y226157D01*
X357634D01*
X349366Y220843D02*
X357634D01*
X410343Y245866D02*
X415658D01*
X410343Y254134D02*
X415658D01*
Y245866D02*
Y254134D01*
X410343Y245866D02*
Y254134D01*
X407134Y232343D02*
Y237657D01*
X398866Y232343D02*
Y237657D01*
X407134D01*
X398866Y232343D02*
X407134D01*
X331866Y236157D02*
X340134D01*
X331866Y230842D02*
X340134D01*
X331866D02*
Y236157D01*
X340134Y230842D02*
Y236157D01*
X331866Y238843D02*
X340134D01*
X331866Y244158D02*
X340134D01*
Y238843D02*
Y244158D01*
X331866Y238843D02*
Y244158D01*
X331866Y285343D02*
X340134D01*
X331866Y290657D02*
X340134D01*
Y285343D02*
Y290657D01*
X331866Y285343D02*
Y290657D01*
X332028Y222843D02*
X340295D01*
X332028Y228157D02*
X340295D01*
Y222843D02*
Y228157D01*
X332028Y222843D02*
Y228157D01*
X331866Y275842D02*
Y281157D01*
X340134Y275842D02*
Y281157D01*
X331866D02*
X340134D01*
X331866Y275842D02*
X340134D01*
X375866Y204343D02*
Y209658D01*
X384134Y204343D02*
Y209658D01*
X375866D02*
X384134D01*
X375866Y204343D02*
X384134D01*
X402528Y209658D02*
X410795D01*
X402528Y204343D02*
X410795D01*
X402528D02*
Y209658D01*
X410795Y204343D02*
Y209658D01*
X421842Y229366D02*
X427157D01*
X421842Y237634D02*
X427157D01*
X421842Y229366D02*
Y237634D01*
X427157Y229366D02*
Y237634D01*
X376795Y289843D02*
Y295158D01*
X368528Y289843D02*
Y295158D01*
Y289843D02*
X376795D01*
X368528Y295158D02*
X376795D01*
X352866Y289843D02*
X361134D01*
X352866Y295158D02*
X361134D01*
Y289843D02*
Y295158D01*
X352866Y289843D02*
Y295158D01*
X407366Y292158D02*
X415634D01*
X407366Y286842D02*
X415634D01*
X407366D02*
Y292158D01*
X415634Y286842D02*
Y292158D01*
X472843Y286295D02*
X478158D01*
X472843Y278028D02*
X478158D01*
Y286295D01*
X472843Y278028D02*
Y286295D01*
X453744Y275095D02*
Y286906D01*
X459256Y275095D02*
Y286906D01*
X453744D02*
X459256D01*
X453744Y275095D02*
X459256D01*
X338756Y247094D02*
Y258906D01*
X333244Y247094D02*
Y258906D01*
Y247094D02*
X338756D01*
X333244Y258906D02*
X338756D01*
X333244Y261595D02*
Y273406D01*
X338756Y261595D02*
Y273406D01*
X333244D02*
X338756D01*
X333244Y261595D02*
X338756D01*
X419626Y252646D02*
X428287D01*
X419626Y258354D02*
X428287D01*
X419626Y252646D02*
Y258354D01*
X428287Y252646D02*
Y258354D01*
X372213Y220646D02*
Y226354D01*
X380874Y220646D02*
Y226354D01*
X372213Y220646D02*
X380874D01*
X372213Y226354D02*
X380874D01*
X472146Y225169D02*
X477854D01*
X472146Y233831D02*
X477854D01*
Y225169D02*
Y233831D01*
X472146Y225169D02*
Y233831D01*
X476331Y238146D02*
Y243854D01*
X467669Y238146D02*
Y243854D01*
X476331D01*
X467669Y238146D02*
X476331D01*
X453169Y243854D02*
X461831D01*
X453169Y238146D02*
X461831D01*
Y243854D01*
X453169Y238146D02*
Y243854D01*
X434953Y211713D02*
X479047D01*
X434953D02*
Y266831D01*
X479047D01*
Y211713D02*
Y266831D01*
X426831Y211842D02*
Y217158D01*
X418169Y211842D02*
Y217158D01*
X426831D01*
X418169Y211842D02*
X426831D01*
M02*
