M48
;Layer_Color=9474304
;FILE_FORMAT=2:4
INCH,LZ
;TYPE=PLATED
T1F00S00C0.0100
T2F00S00C0.0315
%
T01
X0477Y02475
X04755Y0271
X0423Y0272
Y0265
X0425Y02475
X04135Y022111
X041206Y021358
X042Y0207
X039718Y020497
X039364
X03895Y021
X036638Y020974
X03665Y02065
X03575Y0215
X03335Y02165
X03365Y02095
X03235Y025
X0345Y02645
X034535Y027815
X0345Y028842
X035632Y028647
X035794Y0289
X037135Y02793
X0379Y027858
X03885Y02785
X039601Y027857
X03925Y028975
X03855
X03815
X04Y029042
X0414Y027947
X04385Y02145
X04495Y02175
X04595Y0218
X04625Y023
X03095Y02135
T02
X0323Y021738
Y022525
Y023313
Y0241
Y025738
Y026525
Y027313
Y0281
M30
