M48
;Layer_Color=9474304
;FILE_FORMAT=2:4
INCH,LZ
;TYPE=PLATED
T1F00S00C0.0100
T2F00S00C0.0315
%
T01
X0477Y02475
Y0255
X04734Y026632
X045647Y0281
X04397Y026941
X0435Y02695
X0423Y0265
X04255Y02495
X043109Y025045
X0429Y02429
X043954Y024096
X044505Y024355
X04495Y02175
X04595Y0218
X04625Y023
X04385Y02145
X042Y0207
X04115Y02125
X039718Y020497
X03895Y0205
X03895Y021
X035773Y021548
X034817Y021233
X03415Y02095
X03235Y0216
X0314Y0263
X032029Y027279
X03185Y02835
X034487Y028613
X03475Y02915
X035725Y029075
X034535Y027815
X034498Y026502
X037135Y02793
X038325Y029075
X0387
X03905Y029042
X039833Y028875
X0398Y02785
X041927Y022673
X0312Y02155
X031204Y028004
T02
X0322Y0238
Y024587
Y025375
Y026162
M30
