G04*
G04 #@! TF.GenerationSoftware,Altium Limited,Altium Designer,23.0.1 (38)*
G04*
G04 Layer_Color=8421504*
%FSLAX25Y25*%
%MOIN*%
G70*
G04*
G04 #@! TF.SameCoordinates,8F624F87-4904-4D54-B770-2945CE276165*
G04*
G04*
G04 #@! TF.FilePolarity,Positive*
G04*
G01*
G75*
%ADD16R,0.05906X0.04724*%
%ADD17R,0.03937X0.02362*%
%ADD18R,0.04134X0.05315*%
%ADD19R,0.04134X0.04331*%
%ADD20R,0.04331X0.08858*%
%ADD21R,0.05118X0.07087*%
%ADD22R,0.03543X0.04724*%
%ADD23R,0.05315X0.04134*%
%ADD24R,0.03150X0.03150*%
%ADD25R,0.01181X0.02756*%
G36*
X400437Y288189D02*
X400492Y288185D01*
X400547Y288173D01*
X400602Y288161D01*
X400658Y288146D01*
X400713Y288126D01*
X400764Y288102D01*
X400815Y288079D01*
X400862Y288051D01*
X400913Y288024D01*
X400961Y287988D01*
X401004Y287957D01*
X401047Y287917D01*
X401087Y287878D01*
X401126Y287839D01*
X401165Y287795D01*
X401197Y287752D01*
X401232Y287705D01*
X401260Y287657D01*
X401287Y287606D01*
X401311Y287555D01*
X401335Y287504D01*
X401354Y287449D01*
X401370Y287394D01*
X401382Y287339D01*
X401394Y287283D01*
X401398Y287228D01*
X401405Y287169D01*
Y287114D01*
Y282193D01*
Y282138D01*
X401398Y282079D01*
X401394Y282024D01*
X401382Y281968D01*
X401370Y281913D01*
X401354Y281858D01*
X401335Y281803D01*
X401311Y281752D01*
X401287Y281701D01*
X401260Y281650D01*
X401232Y281602D01*
X401197Y281555D01*
X401165Y281512D01*
X401126Y281469D01*
X401087Y281429D01*
X401047Y281390D01*
X401004Y281350D01*
X400961Y281319D01*
X400913Y281283D01*
X400862Y281256D01*
X400815Y281228D01*
X400764Y281205D01*
X400713Y281181D01*
X400658Y281161D01*
X400602Y281146D01*
X400547Y281134D01*
X400492Y281122D01*
X400437Y281118D01*
X400378Y281110D01*
X400268D01*
X400209Y281118D01*
X400153Y281122D01*
X400098Y281134D01*
X400043Y281146D01*
X399988Y281161D01*
X399933Y281181D01*
X399882Y281205D01*
X399831Y281228D01*
X399783Y281256D01*
X399732Y281283D01*
X399685Y281319D01*
X399642Y281350D01*
X399598Y281390D01*
X399559Y281429D01*
X399520Y281469D01*
X399480Y281512D01*
X399449Y281555D01*
X399413Y281602D01*
X399386Y281650D01*
X399358Y281701D01*
X399335Y281752D01*
X399311Y281803D01*
X399291Y281858D01*
X399276Y281913D01*
X399264Y281968D01*
X399252Y282024D01*
X399248Y282079D01*
X399240Y282138D01*
Y282193D01*
Y287114D01*
Y287169D01*
X399248Y287228D01*
X399252Y287283D01*
X399264Y287339D01*
X399276Y287394D01*
X399291Y287449D01*
X399311Y287504D01*
X399335Y287555D01*
X399358Y287606D01*
X399386Y287657D01*
X399413Y287705D01*
X399449Y287752D01*
X399480Y287795D01*
X399520Y287839D01*
X399559Y287878D01*
X399598Y287917D01*
X399642Y287957D01*
X399685Y287988D01*
X399732Y288024D01*
X399783Y288051D01*
X399831Y288079D01*
X399882Y288102D01*
X399933Y288126D01*
X399988Y288146D01*
X400043Y288161D01*
X400098Y288173D01*
X400153Y288185D01*
X400209Y288189D01*
X400268Y288197D01*
X400378D01*
X400437Y288189D01*
D02*
G37*
G36*
X396106D02*
X396161Y288185D01*
X396217Y288173D01*
X396272Y288161D01*
X396327Y288146D01*
X396382Y288126D01*
X396433Y288102D01*
X396484Y288079D01*
X396535Y288051D01*
X396583Y288024D01*
X396630Y287988D01*
X396673Y287957D01*
X396716Y287917D01*
X396756Y287878D01*
X396795Y287839D01*
X396835Y287795D01*
X396866Y287752D01*
X396902Y287705D01*
X396929Y287657D01*
X396957Y287606D01*
X396980Y287555D01*
X397004Y287504D01*
X397024Y287449D01*
X397039Y287394D01*
X397051Y287339D01*
X397063Y287283D01*
X397067Y287228D01*
X397075Y287169D01*
Y287114D01*
Y282193D01*
Y282138D01*
X397067Y282079D01*
X397063Y282024D01*
X397051Y281968D01*
X397039Y281913D01*
X397024Y281858D01*
X397004Y281803D01*
X396980Y281752D01*
X396957Y281701D01*
X396929Y281650D01*
X396902Y281602D01*
X396866Y281555D01*
X396835Y281512D01*
X396795Y281469D01*
X396756Y281429D01*
X396716Y281390D01*
X396673Y281350D01*
X396630Y281319D01*
X396583Y281283D01*
X396535Y281256D01*
X396484Y281228D01*
X396433Y281205D01*
X396382Y281181D01*
X396327Y281161D01*
X396272Y281146D01*
X396217Y281134D01*
X396161Y281122D01*
X396106Y281118D01*
X396047Y281110D01*
X395937D01*
X395878Y281118D01*
X395823Y281122D01*
X395768Y281134D01*
X395713Y281146D01*
X395657Y281161D01*
X395602Y281181D01*
X395551Y281205D01*
X395500Y281228D01*
X395449Y281256D01*
X395402Y281283D01*
X395354Y281319D01*
X395311Y281350D01*
X395268Y281390D01*
X395228Y281429D01*
X395189Y281469D01*
X395150Y281512D01*
X395118Y281555D01*
X395083Y281602D01*
X395055Y281650D01*
X395028Y281701D01*
X395004Y281752D01*
X394980Y281803D01*
X394961Y281858D01*
X394945Y281913D01*
X394933Y281968D01*
X394921Y282024D01*
X394917Y282079D01*
X394910Y282138D01*
Y282193D01*
Y287114D01*
Y287169D01*
X394917Y287228D01*
X394921Y287283D01*
X394933Y287339D01*
X394945Y287394D01*
X394961Y287449D01*
X394980Y287504D01*
X395004Y287555D01*
X395028Y287606D01*
X395055Y287657D01*
X395083Y287705D01*
X395118Y287752D01*
X395150Y287795D01*
X395189Y287839D01*
X395228Y287878D01*
X395268Y287917D01*
X395311Y287957D01*
X395354Y287988D01*
X395402Y288024D01*
X395449Y288051D01*
X395500Y288079D01*
X395551Y288102D01*
X395602Y288126D01*
X395657Y288146D01*
X395713Y288161D01*
X395768Y288173D01*
X395823Y288185D01*
X395878Y288189D01*
X395937Y288197D01*
X396047D01*
X396106Y288189D01*
D02*
G37*
G36*
X391776D02*
X391831Y288185D01*
X391886Y288173D01*
X391941Y288161D01*
X391996Y288146D01*
X392051Y288126D01*
X392102Y288102D01*
X392154Y288079D01*
X392205Y288051D01*
X392252Y288024D01*
X392299Y287988D01*
X392342Y287957D01*
X392386Y287917D01*
X392425Y287878D01*
X392465Y287839D01*
X392504Y287795D01*
X392535Y287752D01*
X392571Y287705D01*
X392598Y287657D01*
X392626Y287606D01*
X392650Y287555D01*
X392673Y287504D01*
X392693Y287449D01*
X392709Y287394D01*
X392721Y287339D01*
X392732Y287283D01*
X392736Y287228D01*
X392744Y287169D01*
Y287114D01*
Y282193D01*
Y282138D01*
X392736Y282079D01*
X392732Y282024D01*
X392721Y281968D01*
X392709Y281913D01*
X392693Y281858D01*
X392673Y281803D01*
X392650Y281752D01*
X392626Y281701D01*
X392598Y281650D01*
X392571Y281602D01*
X392535Y281555D01*
X392504Y281512D01*
X392465Y281469D01*
X392425Y281429D01*
X392386Y281390D01*
X392342Y281350D01*
X392299Y281319D01*
X392252Y281283D01*
X392205Y281256D01*
X392154Y281228D01*
X392102Y281205D01*
X392051Y281181D01*
X391996Y281161D01*
X391941Y281146D01*
X391886Y281134D01*
X391831Y281122D01*
X391776Y281118D01*
X391717Y281110D01*
X391606D01*
X391547Y281118D01*
X391492Y281122D01*
X391437Y281134D01*
X391382Y281146D01*
X391327Y281161D01*
X391272Y281181D01*
X391220Y281205D01*
X391169Y281228D01*
X391122Y281256D01*
X391071Y281283D01*
X391024Y281319D01*
X390980Y281350D01*
X390937Y281390D01*
X390898Y281429D01*
X390858Y281469D01*
X390819Y281512D01*
X390787Y281555D01*
X390752Y281602D01*
X390724Y281650D01*
X390697Y281701D01*
X390673Y281752D01*
X390650Y281803D01*
X390630Y281858D01*
X390614Y281913D01*
X390602Y281968D01*
X390591Y282024D01*
X390587Y282079D01*
X390579Y282138D01*
Y282193D01*
Y287114D01*
Y287169D01*
X390587Y287228D01*
X390591Y287283D01*
X390602Y287339D01*
X390614Y287394D01*
X390630Y287449D01*
X390650Y287504D01*
X390673Y287555D01*
X390697Y287606D01*
X390724Y287657D01*
X390752Y287705D01*
X390787Y287752D01*
X390819Y287795D01*
X390858Y287839D01*
X390898Y287878D01*
X390937Y287917D01*
X390980Y287957D01*
X391024Y287988D01*
X391071Y288024D01*
X391122Y288051D01*
X391169Y288079D01*
X391220Y288102D01*
X391272Y288126D01*
X391327Y288146D01*
X391382Y288161D01*
X391437Y288173D01*
X391492Y288185D01*
X391547Y288189D01*
X391606Y288197D01*
X391717D01*
X391776Y288189D01*
D02*
G37*
G36*
X387445D02*
X387500Y288185D01*
X387555Y288173D01*
X387610Y288161D01*
X387665Y288146D01*
X387720Y288126D01*
X387772Y288102D01*
X387823Y288079D01*
X387874Y288051D01*
X387921Y288024D01*
X387968Y287988D01*
X388012Y287957D01*
X388055Y287917D01*
X388094Y287878D01*
X388134Y287839D01*
X388173Y287795D01*
X388205Y287752D01*
X388240Y287705D01*
X388268Y287657D01*
X388295Y287606D01*
X388319Y287555D01*
X388342Y287504D01*
X388362Y287449D01*
X388378Y287394D01*
X388390Y287339D01*
X388402Y287283D01*
X388405Y287228D01*
X388413Y287169D01*
Y287114D01*
Y282193D01*
Y282138D01*
X388405Y282079D01*
X388402Y282024D01*
X388390Y281968D01*
X388378Y281913D01*
X388362Y281858D01*
X388342Y281803D01*
X388319Y281752D01*
X388295Y281701D01*
X388268Y281650D01*
X388240Y281602D01*
X388205Y281555D01*
X388173Y281512D01*
X388134Y281469D01*
X388094Y281429D01*
X388055Y281390D01*
X388012Y281350D01*
X387968Y281319D01*
X387921Y281283D01*
X387874Y281256D01*
X387823Y281228D01*
X387772Y281205D01*
X387720Y281181D01*
X387665Y281161D01*
X387610Y281146D01*
X387555Y281134D01*
X387500Y281122D01*
X387445Y281118D01*
X387386Y281110D01*
X387276D01*
X387216Y281118D01*
X387161Y281122D01*
X387106Y281134D01*
X387051Y281146D01*
X386996Y281161D01*
X386941Y281181D01*
X386890Y281205D01*
X386839Y281228D01*
X386787Y281256D01*
X386740Y281283D01*
X386693Y281319D01*
X386650Y281350D01*
X386606Y281390D01*
X386567Y281429D01*
X386528Y281469D01*
X386488Y281512D01*
X386457Y281555D01*
X386421Y281602D01*
X386394Y281650D01*
X386366Y281701D01*
X386343Y281752D01*
X386319Y281803D01*
X386299Y281858D01*
X386283Y281913D01*
X386272Y281968D01*
X386260Y282024D01*
X386256Y282079D01*
X386248Y282138D01*
Y282193D01*
Y287114D01*
Y287169D01*
X386256Y287228D01*
X386260Y287283D01*
X386272Y287339D01*
X386283Y287394D01*
X386299Y287449D01*
X386319Y287504D01*
X386343Y287555D01*
X386366Y287606D01*
X386394Y287657D01*
X386421Y287705D01*
X386457Y287752D01*
X386488Y287795D01*
X386528Y287839D01*
X386567Y287878D01*
X386606Y287917D01*
X386650Y287957D01*
X386693Y287988D01*
X386740Y288024D01*
X386791Y288051D01*
X386839Y288079D01*
X386890Y288102D01*
X386941Y288126D01*
X386996Y288146D01*
X387051Y288161D01*
X387106Y288173D01*
X387161Y288185D01*
X387216Y288189D01*
X387276Y288197D01*
X387386D01*
X387445Y288189D01*
D02*
G37*
G36*
X383114D02*
X383169Y288185D01*
X383224Y288173D01*
X383279Y288161D01*
X383335Y288146D01*
X383390Y288126D01*
X383441Y288102D01*
X383492Y288079D01*
X383539Y288051D01*
X383591Y288024D01*
X383638Y287988D01*
X383681Y287957D01*
X383724Y287917D01*
X383764Y287878D01*
X383803Y287839D01*
X383842Y287795D01*
X383874Y287752D01*
X383910Y287705D01*
X383937Y287657D01*
X383965Y287606D01*
X383988Y287555D01*
X384012Y287504D01*
X384032Y287449D01*
X384047Y287394D01*
X384059Y287339D01*
X384071Y287283D01*
X384075Y287228D01*
X384083Y287169D01*
Y287114D01*
Y282193D01*
Y282138D01*
X384075Y282079D01*
X384071Y282024D01*
X384059Y281968D01*
X384047Y281913D01*
X384032Y281858D01*
X384012Y281803D01*
X383988Y281752D01*
X383965Y281701D01*
X383937Y281650D01*
X383910Y281602D01*
X383874Y281555D01*
X383842Y281512D01*
X383803Y281469D01*
X383764Y281429D01*
X383724Y281390D01*
X383681Y281350D01*
X383638Y281319D01*
X383591Y281283D01*
X383539Y281256D01*
X383492Y281228D01*
X383441Y281205D01*
X383390Y281181D01*
X383335Y281161D01*
X383279Y281146D01*
X383224Y281134D01*
X383169Y281122D01*
X383114Y281118D01*
X383055Y281110D01*
X382945D01*
X382886Y281118D01*
X382831Y281122D01*
X382776Y281134D01*
X382720Y281146D01*
X382665Y281161D01*
X382610Y281181D01*
X382559Y281205D01*
X382508Y281228D01*
X382457Y281256D01*
X382410Y281283D01*
X382362Y281319D01*
X382319Y281350D01*
X382276Y281390D01*
X382236Y281429D01*
X382197Y281469D01*
X382157Y281512D01*
X382126Y281555D01*
X382090Y281602D01*
X382063Y281650D01*
X382035Y281701D01*
X382012Y281752D01*
X381988Y281803D01*
X381968Y281858D01*
X381953Y281913D01*
X381941Y281968D01*
X381929Y282024D01*
X381925Y282079D01*
X381917Y282138D01*
Y282193D01*
Y287114D01*
Y287169D01*
X381925Y287228D01*
X381929Y287283D01*
X381941Y287339D01*
X381953Y287394D01*
X381968Y287449D01*
X381988Y287504D01*
X382012Y287555D01*
X382035Y287606D01*
X382063Y287657D01*
X382090Y287705D01*
X382126Y287752D01*
X382157Y287795D01*
X382197Y287839D01*
X382236Y287878D01*
X382276Y287917D01*
X382319Y287957D01*
X382362Y287988D01*
X382410Y288024D01*
X382461Y288051D01*
X382508Y288079D01*
X382559Y288102D01*
X382610Y288126D01*
X382665Y288146D01*
X382720Y288161D01*
X382776Y288173D01*
X382831Y288185D01*
X382886Y288189D01*
X382945Y288197D01*
X383055D01*
X383114Y288189D01*
D02*
G37*
G36*
X378783D02*
X378839Y288185D01*
X378894Y288173D01*
X378949Y288161D01*
X379004Y288146D01*
X379059Y288126D01*
X379110Y288102D01*
X379161Y288079D01*
X379213Y288051D01*
X379260Y288024D01*
X379307Y287988D01*
X379350Y287957D01*
X379394Y287917D01*
X379433Y287878D01*
X379472Y287839D01*
X379512Y287795D01*
X379543Y287752D01*
X379579Y287705D01*
X379606Y287657D01*
X379634Y287606D01*
X379658Y287555D01*
X379681Y287504D01*
X379701Y287449D01*
X379716Y287394D01*
X379728Y287339D01*
X379740Y287283D01*
X379744Y287228D01*
X379752Y287169D01*
Y287114D01*
Y282193D01*
Y282138D01*
X379744Y282079D01*
X379740Y282024D01*
X379728Y281968D01*
X379716Y281913D01*
X379701Y281858D01*
X379681Y281803D01*
X379658Y281752D01*
X379634Y281701D01*
X379606Y281650D01*
X379579Y281602D01*
X379543Y281555D01*
X379512Y281512D01*
X379472Y281469D01*
X379433Y281429D01*
X379394Y281390D01*
X379350Y281350D01*
X379307Y281319D01*
X379260Y281283D01*
X379213Y281256D01*
X379161Y281228D01*
X379110Y281205D01*
X379059Y281181D01*
X379004Y281161D01*
X378949Y281146D01*
X378894Y281134D01*
X378839Y281122D01*
X378783Y281118D01*
X378724Y281110D01*
X378614D01*
X378555Y281118D01*
X378500Y281122D01*
X378445Y281134D01*
X378390Y281146D01*
X378335Y281161D01*
X378279Y281181D01*
X378228Y281205D01*
X378177Y281228D01*
X378126Y281256D01*
X378079Y281283D01*
X378031Y281319D01*
X377988Y281350D01*
X377945Y281390D01*
X377906Y281429D01*
X377866Y281469D01*
X377827Y281512D01*
X377795Y281555D01*
X377760Y281602D01*
X377732Y281650D01*
X377705Y281701D01*
X377681Y281752D01*
X377658Y281803D01*
X377638Y281858D01*
X377622Y281913D01*
X377610Y281968D01*
X377598Y282024D01*
X377594Y282079D01*
X377587Y282138D01*
Y282193D01*
Y287114D01*
Y287169D01*
X377594Y287228D01*
X377598Y287283D01*
X377610Y287339D01*
X377622Y287394D01*
X377638Y287449D01*
X377658Y287504D01*
X377681Y287555D01*
X377705Y287606D01*
X377732Y287657D01*
X377760Y287705D01*
X377795Y287752D01*
X377827Y287795D01*
X377866Y287839D01*
X377906Y287878D01*
X377945Y287917D01*
X377988Y287957D01*
X378031Y287988D01*
X378079Y288024D01*
X378130Y288051D01*
X378177Y288079D01*
X378228Y288102D01*
X378279Y288126D01*
X378335Y288146D01*
X378390Y288161D01*
X378445Y288173D01*
X378500Y288185D01*
X378555Y288189D01*
X378614Y288197D01*
X378724D01*
X378783Y288189D01*
D02*
G37*
G36*
X374453D02*
X374508Y288185D01*
X374563Y288173D01*
X374618Y288161D01*
X374673Y288146D01*
X374728Y288126D01*
X374780Y288102D01*
X374831Y288079D01*
X374878Y288051D01*
X374929Y288024D01*
X374976Y287988D01*
X375020Y287957D01*
X375063Y287917D01*
X375102Y287878D01*
X375142Y287839D01*
X375181Y287795D01*
X375213Y287752D01*
X375248Y287705D01*
X375276Y287657D01*
X375303Y287606D01*
X375327Y287555D01*
X375350Y287504D01*
X375370Y287449D01*
X375386Y287394D01*
X375398Y287339D01*
X375410Y287283D01*
X375413Y287228D01*
X375421Y287169D01*
Y287114D01*
Y282193D01*
Y282138D01*
X375413Y282079D01*
X375410Y282024D01*
X375398Y281968D01*
X375386Y281913D01*
X375370Y281858D01*
X375350Y281803D01*
X375327Y281752D01*
X375303Y281701D01*
X375276Y281650D01*
X375248Y281602D01*
X375213Y281555D01*
X375181Y281512D01*
X375142Y281469D01*
X375102Y281429D01*
X375063Y281390D01*
X375020Y281350D01*
X374976Y281319D01*
X374929Y281283D01*
X374878Y281256D01*
X374831Y281228D01*
X374780Y281205D01*
X374728Y281181D01*
X374673Y281161D01*
X374618Y281146D01*
X374563Y281134D01*
X374508Y281122D01*
X374453Y281118D01*
X374394Y281110D01*
X374284D01*
X374224Y281118D01*
X374169Y281122D01*
X374114Y281134D01*
X374059Y281146D01*
X374004Y281161D01*
X373949Y281181D01*
X373898Y281205D01*
X373847Y281228D01*
X373795Y281256D01*
X373748Y281283D01*
X373701Y281319D01*
X373657Y281350D01*
X373614Y281390D01*
X373575Y281429D01*
X373535Y281469D01*
X373496Y281512D01*
X373465Y281555D01*
X373429Y281602D01*
X373402Y281650D01*
X373374Y281701D01*
X373350Y281752D01*
X373327Y281803D01*
X373307Y281858D01*
X373291Y281913D01*
X373280Y281968D01*
X373268Y282024D01*
X373264Y282079D01*
X373256Y282138D01*
Y282193D01*
Y287114D01*
Y287169D01*
X373264Y287228D01*
X373268Y287283D01*
X373280Y287339D01*
X373291Y287394D01*
X373307Y287449D01*
X373327Y287504D01*
X373350Y287555D01*
X373374Y287606D01*
X373402Y287657D01*
X373429Y287705D01*
X373465Y287752D01*
X373496Y287795D01*
X373535Y287839D01*
X373575Y287878D01*
X373614Y287917D01*
X373657Y287957D01*
X373701Y287988D01*
X373748Y288024D01*
X373795Y288051D01*
X373847Y288079D01*
X373898Y288102D01*
X373949Y288126D01*
X374004Y288146D01*
X374059Y288161D01*
X374114Y288173D01*
X374169Y288185D01*
X374224Y288189D01*
X374284Y288197D01*
X374394D01*
X374453Y288189D01*
D02*
G37*
G36*
X370122D02*
X370177Y288185D01*
X370232Y288173D01*
X370287Y288161D01*
X370342Y288146D01*
X370398Y288126D01*
X370449Y288102D01*
X370500Y288079D01*
X370551Y288051D01*
X370598Y288024D01*
X370646Y287988D01*
X370689Y287957D01*
X370732Y287917D01*
X370772Y287878D01*
X370811Y287839D01*
X370850Y287795D01*
X370882Y287752D01*
X370917Y287705D01*
X370945Y287657D01*
X370972Y287606D01*
X370996Y287555D01*
X371020Y287504D01*
X371039Y287449D01*
X371055Y287394D01*
X371067Y287339D01*
X371079Y287283D01*
X371083Y287228D01*
X371091Y287169D01*
Y287114D01*
Y282193D01*
Y282138D01*
X371083Y282079D01*
X371079Y282024D01*
X371067Y281968D01*
X371055Y281913D01*
X371039Y281858D01*
X371020Y281803D01*
X370996Y281752D01*
X370972Y281701D01*
X370945Y281650D01*
X370917Y281602D01*
X370882Y281555D01*
X370850Y281512D01*
X370811Y281469D01*
X370772Y281429D01*
X370732Y281390D01*
X370689Y281350D01*
X370646Y281319D01*
X370598Y281283D01*
X370551Y281256D01*
X370500Y281228D01*
X370449Y281205D01*
X370398Y281181D01*
X370342Y281161D01*
X370287Y281146D01*
X370232Y281134D01*
X370177Y281122D01*
X370122Y281118D01*
X370063Y281110D01*
X369953D01*
X369894Y281118D01*
X369839Y281122D01*
X369783Y281134D01*
X369728Y281146D01*
X369673Y281161D01*
X369618Y281181D01*
X369567Y281205D01*
X369516Y281228D01*
X369465Y281256D01*
X369417Y281283D01*
X369370Y281319D01*
X369327Y281350D01*
X369284Y281390D01*
X369244Y281429D01*
X369205Y281469D01*
X369165Y281512D01*
X369134Y281555D01*
X369098Y281602D01*
X369071Y281650D01*
X369043Y281701D01*
X369020Y281752D01*
X368996Y281803D01*
X368976Y281858D01*
X368961Y281913D01*
X368949Y281968D01*
X368937Y282024D01*
X368933Y282079D01*
X368925Y282138D01*
Y282193D01*
Y287114D01*
Y287169D01*
X368933Y287228D01*
X368937Y287283D01*
X368949Y287339D01*
X368961Y287394D01*
X368976Y287449D01*
X368996Y287504D01*
X369020Y287555D01*
X369043Y287606D01*
X369071Y287657D01*
X369098Y287705D01*
X369134Y287752D01*
X369165Y287795D01*
X369205Y287839D01*
X369244Y287878D01*
X369284Y287917D01*
X369327Y287957D01*
X369370Y287988D01*
X369417Y288024D01*
X369465Y288051D01*
X369516Y288079D01*
X369567Y288102D01*
X369618Y288126D01*
X369673Y288146D01*
X369728Y288161D01*
X369783Y288173D01*
X369839Y288185D01*
X369894Y288189D01*
X369953Y288197D01*
X370063D01*
X370122Y288189D01*
D02*
G37*
G36*
X365791D02*
X365846Y288185D01*
X365902Y288173D01*
X365957Y288161D01*
X366012Y288146D01*
X366067Y288126D01*
X366118Y288102D01*
X366169Y288079D01*
X366216Y288051D01*
X366268Y288024D01*
X366315Y287988D01*
X366358Y287957D01*
X366402Y287917D01*
X366441Y287878D01*
X366480Y287839D01*
X366520Y287795D01*
X366551Y287752D01*
X366587Y287705D01*
X366614Y287657D01*
X366642Y287606D01*
X366665Y287555D01*
X366689Y287504D01*
X366709Y287449D01*
X366724Y287394D01*
X366736Y287339D01*
X366748Y287283D01*
X366752Y287228D01*
X366760Y287169D01*
Y287114D01*
Y282193D01*
Y282138D01*
X366752Y282079D01*
X366748Y282024D01*
X366736Y281968D01*
X366724Y281913D01*
X366709Y281858D01*
X366689Y281803D01*
X366665Y281752D01*
X366642Y281701D01*
X366614Y281650D01*
X366587Y281602D01*
X366551Y281555D01*
X366520Y281512D01*
X366480Y281469D01*
X366441Y281429D01*
X366402Y281390D01*
X366358Y281350D01*
X366315Y281319D01*
X366268Y281283D01*
X366216Y281256D01*
X366169Y281228D01*
X366118Y281205D01*
X366067Y281181D01*
X366012Y281161D01*
X365957Y281146D01*
X365902Y281134D01*
X365846Y281122D01*
X365791Y281118D01*
X365732Y281110D01*
X365622D01*
X365563Y281118D01*
X365508Y281122D01*
X365453Y281134D01*
X365398Y281146D01*
X365342Y281161D01*
X365287Y281181D01*
X365236Y281205D01*
X365185Y281228D01*
X365138Y281256D01*
X365087Y281283D01*
X365039Y281319D01*
X364996Y281350D01*
X364953Y281390D01*
X364913Y281429D01*
X364874Y281469D01*
X364835Y281512D01*
X364803Y281555D01*
X364768Y281602D01*
X364740Y281650D01*
X364713Y281701D01*
X364689Y281752D01*
X364665Y281803D01*
X364646Y281858D01*
X364630Y281913D01*
X364618Y281968D01*
X364606Y282024D01*
X364602Y282079D01*
X364595Y282138D01*
Y282193D01*
Y287114D01*
Y287169D01*
X364602Y287228D01*
X364606Y287283D01*
X364618Y287339D01*
X364630Y287394D01*
X364646Y287449D01*
X364665Y287504D01*
X364689Y287555D01*
X364713Y287606D01*
X364740Y287657D01*
X364768Y287705D01*
X364803Y287752D01*
X364835Y287795D01*
X364874Y287839D01*
X364913Y287878D01*
X364953Y287917D01*
X364996Y287957D01*
X365039Y287988D01*
X365087Y288024D01*
X365138Y288051D01*
X365185Y288079D01*
X365236Y288102D01*
X365287Y288126D01*
X365342Y288146D01*
X365398Y288161D01*
X365453Y288173D01*
X365508Y288185D01*
X365563Y288189D01*
X365622Y288197D01*
X365732D01*
X365791Y288189D01*
D02*
G37*
G36*
X395402Y274614D02*
X394220D01*
Y276307D01*
X395402D01*
Y274614D01*
D02*
G37*
G36*
X393827D02*
X392646D01*
Y276307D01*
X393827D01*
Y274614D01*
D02*
G37*
G36*
X389890D02*
X388709D01*
Y276307D01*
X389890D01*
Y274614D01*
D02*
G37*
G36*
X388315D02*
X387134D01*
Y276307D01*
X388315D01*
Y274614D01*
D02*
G37*
G36*
X384378D02*
X383197D01*
Y276307D01*
X384378D01*
Y274614D01*
D02*
G37*
G36*
X382803D02*
X381622D01*
Y276307D01*
X382803D01*
Y274614D01*
D02*
G37*
G36*
X378866D02*
X377685D01*
Y276307D01*
X378866D01*
Y274614D01*
D02*
G37*
G36*
X377291D02*
X376110D01*
Y276307D01*
X377291D01*
Y274614D01*
D02*
G37*
G36*
X373354D02*
X372173D01*
Y276307D01*
X373354D01*
Y274614D01*
D02*
G37*
G36*
X371779D02*
X370598D01*
Y276307D01*
X371779D01*
Y274614D01*
D02*
G37*
G36*
X367843D02*
X366661D01*
Y276307D01*
X367843D01*
Y274614D01*
D02*
G37*
G36*
X366268D02*
X365087D01*
Y276307D01*
X366268D01*
Y274614D01*
D02*
G37*
G36*
X395402Y272528D02*
X394220D01*
Y274220D01*
X395402D01*
Y272528D01*
D02*
G37*
G36*
X393827D02*
X392646D01*
Y274220D01*
X393827D01*
Y272528D01*
D02*
G37*
G36*
X389890D02*
X388709D01*
Y274220D01*
X389890D01*
Y272528D01*
D02*
G37*
G36*
X388315D02*
X387134D01*
Y274220D01*
X388315D01*
Y272528D01*
D02*
G37*
G36*
X384378D02*
X383197D01*
Y274220D01*
X384378D01*
Y272528D01*
D02*
G37*
G36*
X382803D02*
X381622D01*
Y274220D01*
X382803D01*
Y272528D01*
D02*
G37*
G36*
X378866D02*
X377685D01*
Y274220D01*
X378866D01*
Y272528D01*
D02*
G37*
G36*
X377291D02*
X376110D01*
Y274220D01*
X377291D01*
Y272528D01*
D02*
G37*
G36*
X373354D02*
X372173D01*
Y274220D01*
X373354D01*
Y272528D01*
D02*
G37*
G36*
X371779D02*
X370598D01*
Y274220D01*
X371779D01*
Y272528D01*
D02*
G37*
G36*
X367843D02*
X366661D01*
Y274220D01*
X367843D01*
Y272528D01*
D02*
G37*
G36*
X366268D02*
X365087D01*
Y274220D01*
X366268D01*
Y272528D01*
D02*
G37*
G36*
X416874Y274508D02*
X416929Y274504D01*
X416984Y274492D01*
X417039Y274480D01*
X417095Y274465D01*
X417150Y274445D01*
X417201Y274421D01*
X417252Y274398D01*
X417299Y274370D01*
X417350Y274342D01*
X417398Y274307D01*
X417441Y274276D01*
X417484Y274236D01*
X417524Y274197D01*
X417563Y274158D01*
X417602Y274114D01*
X417634Y274071D01*
X417669Y274024D01*
X417697Y273976D01*
X417724Y273925D01*
X417748Y273874D01*
X417772Y273823D01*
X417791Y273768D01*
X417807Y273713D01*
X417819Y273657D01*
X417831Y273602D01*
X417835Y273547D01*
X417842Y273488D01*
Y273433D01*
Y273378D01*
X417835Y273319D01*
X417831Y273264D01*
X417819Y273209D01*
X417807Y273153D01*
X417791Y273098D01*
X417772Y273043D01*
X417748Y272992D01*
X417724Y272941D01*
X417697Y272890D01*
X417669Y272843D01*
X417634Y272795D01*
X417602Y272752D01*
X417563Y272709D01*
X417524Y272669D01*
X417484Y272630D01*
X417441Y272590D01*
X417398Y272559D01*
X417350Y272524D01*
X417299Y272496D01*
X417252Y272468D01*
X417201Y272445D01*
X417150Y272421D01*
X417095Y272402D01*
X417039Y272386D01*
X416984Y272374D01*
X416929Y272362D01*
X416874Y272358D01*
X416815Y272350D01*
X411784D01*
X411724Y272358D01*
X411669Y272362D01*
X411614Y272374D01*
X411559Y272386D01*
X411504Y272402D01*
X411449Y272421D01*
X411398Y272445D01*
X411346Y272468D01*
X411299Y272496D01*
X411248Y272524D01*
X411201Y272559D01*
X411158Y272590D01*
X411114Y272630D01*
X411075Y272669D01*
X411035Y272709D01*
X410996Y272752D01*
X410965Y272795D01*
X410929Y272843D01*
X410902Y272890D01*
X410874Y272941D01*
X410850Y272992D01*
X410827Y273043D01*
X410807Y273098D01*
X410791Y273153D01*
X410779Y273209D01*
X410768Y273264D01*
X410764Y273319D01*
X410756Y273378D01*
Y273433D01*
Y273488D01*
X410764Y273547D01*
X410768Y273602D01*
X410779Y273657D01*
X410791Y273713D01*
X410807Y273768D01*
X410827Y273823D01*
X410850Y273874D01*
X410874Y273925D01*
X410902Y273976D01*
X410929Y274024D01*
X410965Y274071D01*
X410996Y274114D01*
X411035Y274158D01*
X411075Y274197D01*
X411114Y274236D01*
X411158Y274276D01*
X411201Y274307D01*
X411248Y274342D01*
X411299Y274370D01*
X411346Y274398D01*
X411398Y274421D01*
X411449Y274445D01*
X411504Y274465D01*
X411559Y274480D01*
X411614Y274492D01*
X411669Y274504D01*
X411724Y274508D01*
X411784Y274516D01*
X416815D01*
X416874Y274508D01*
D02*
G37*
G36*
X354276D02*
X354331Y274504D01*
X354386Y274492D01*
X354441Y274480D01*
X354496Y274465D01*
X354551Y274445D01*
X354602Y274421D01*
X354654Y274398D01*
X354701Y274370D01*
X354752Y274342D01*
X354799Y274307D01*
X354842Y274276D01*
X354886Y274236D01*
X354925Y274197D01*
X354965Y274158D01*
X355004Y274114D01*
X355035Y274071D01*
X355071Y274024D01*
X355098Y273976D01*
X355126Y273925D01*
X355150Y273874D01*
X355173Y273823D01*
X355193Y273768D01*
X355209Y273713D01*
X355221Y273657D01*
X355232Y273602D01*
X355236Y273547D01*
X355244Y273488D01*
Y273433D01*
Y273378D01*
X355236Y273319D01*
X355232Y273264D01*
X355221Y273209D01*
X355209Y273153D01*
X355193Y273098D01*
X355173Y273043D01*
X355150Y272992D01*
X355126Y272941D01*
X355098Y272890D01*
X355071Y272843D01*
X355035Y272795D01*
X355004Y272752D01*
X354965Y272709D01*
X354925Y272669D01*
X354886Y272630D01*
X354842Y272590D01*
X354799Y272559D01*
X354752Y272524D01*
X354701Y272496D01*
X354654Y272468D01*
X354602Y272445D01*
X354551Y272421D01*
X354496Y272402D01*
X354441Y272386D01*
X354386Y272374D01*
X354331Y272362D01*
X354276Y272358D01*
X354217Y272350D01*
X349185D01*
X349126Y272358D01*
X349071Y272362D01*
X349016Y272374D01*
X348961Y272386D01*
X348905Y272402D01*
X348850Y272421D01*
X348799Y272445D01*
X348748Y272468D01*
X348701Y272496D01*
X348650Y272524D01*
X348602Y272559D01*
X348559Y272590D01*
X348516Y272630D01*
X348476Y272669D01*
X348437Y272709D01*
X348398Y272752D01*
X348366Y272795D01*
X348331Y272843D01*
X348303Y272890D01*
X348276Y272941D01*
X348252Y272992D01*
X348228Y273043D01*
X348209Y273098D01*
X348193Y273153D01*
X348181Y273209D01*
X348169Y273264D01*
X348165Y273319D01*
X348158Y273378D01*
Y273433D01*
Y273488D01*
X348165Y273547D01*
X348169Y273602D01*
X348181Y273657D01*
X348193Y273713D01*
X348209Y273768D01*
X348228Y273823D01*
X348252Y273874D01*
X348276Y273925D01*
X348303Y273976D01*
X348331Y274024D01*
X348366Y274071D01*
X348398Y274114D01*
X348437Y274158D01*
X348476Y274197D01*
X348516Y274236D01*
X348559Y274276D01*
X348602Y274307D01*
X348650Y274342D01*
X348701Y274370D01*
X348748Y274398D01*
X348799Y274421D01*
X348850Y274445D01*
X348905Y274465D01*
X348961Y274480D01*
X349016Y274492D01*
X349071Y274504D01*
X349126Y274508D01*
X349185Y274516D01*
X354217D01*
X354276Y274508D01*
D02*
G37*
G36*
X363827Y269102D02*
X362134D01*
Y270284D01*
X363827D01*
Y269102D01*
D02*
G37*
G36*
X361740D02*
X360047D01*
Y270284D01*
X361740D01*
Y269102D01*
D02*
G37*
G36*
X416874Y270177D02*
X416929Y270173D01*
X416984Y270161D01*
X417039Y270150D01*
X417095Y270134D01*
X417150Y270114D01*
X417201Y270091D01*
X417252Y270067D01*
X417299Y270039D01*
X417350Y270012D01*
X417398Y269976D01*
X417441Y269945D01*
X417484Y269905D01*
X417524Y269866D01*
X417563Y269827D01*
X417602Y269783D01*
X417634Y269740D01*
X417669Y269693D01*
X417697Y269646D01*
X417724Y269595D01*
X417748Y269543D01*
X417772Y269492D01*
X417791Y269437D01*
X417807Y269382D01*
X417819Y269327D01*
X417831Y269272D01*
X417835Y269216D01*
X417842Y269158D01*
Y269102D01*
Y269047D01*
X417835Y268988D01*
X417831Y268933D01*
X417819Y268878D01*
X417807Y268823D01*
X417791Y268768D01*
X417772Y268713D01*
X417748Y268661D01*
X417724Y268610D01*
X417697Y268563D01*
X417669Y268512D01*
X417634Y268465D01*
X417602Y268421D01*
X417563Y268378D01*
X417524Y268339D01*
X417484Y268299D01*
X417441Y268260D01*
X417398Y268228D01*
X417350Y268193D01*
X417299Y268165D01*
X417252Y268138D01*
X417201Y268114D01*
X417150Y268091D01*
X417095Y268071D01*
X417039Y268055D01*
X416984Y268043D01*
X416929Y268032D01*
X416874Y268028D01*
X416815Y268020D01*
X411784D01*
X411724Y268028D01*
X411669Y268032D01*
X411614Y268043D01*
X411559Y268055D01*
X411504Y268071D01*
X411449Y268091D01*
X411398Y268114D01*
X411346Y268138D01*
X411299Y268165D01*
X411248Y268193D01*
X411201Y268228D01*
X411158Y268260D01*
X411114Y268299D01*
X411075Y268339D01*
X411035Y268378D01*
X410996Y268421D01*
X410965Y268465D01*
X410929Y268512D01*
X410902Y268563D01*
X410874Y268610D01*
X410850Y268661D01*
X410827Y268713D01*
X410807Y268768D01*
X410791Y268823D01*
X410779Y268878D01*
X410768Y268933D01*
X410764Y268988D01*
X410756Y269047D01*
Y269102D01*
Y269158D01*
X410764Y269216D01*
X410768Y269272D01*
X410779Y269327D01*
X410791Y269382D01*
X410807Y269437D01*
X410827Y269492D01*
X410850Y269543D01*
X410874Y269595D01*
X410902Y269646D01*
X410929Y269693D01*
X410965Y269740D01*
X410996Y269783D01*
X411035Y269827D01*
X411075Y269866D01*
X411114Y269905D01*
X411158Y269945D01*
X411201Y269976D01*
X411248Y270012D01*
X411299Y270039D01*
X411346Y270067D01*
X411398Y270091D01*
X411449Y270114D01*
X411504Y270134D01*
X411559Y270150D01*
X411614Y270161D01*
X411669Y270173D01*
X411724Y270177D01*
X411784Y270185D01*
X416815D01*
X416874Y270177D01*
D02*
G37*
G36*
X354276D02*
X354331Y270173D01*
X354386Y270161D01*
X354441Y270150D01*
X354496Y270134D01*
X354551Y270114D01*
X354602Y270091D01*
X354654Y270067D01*
X354701Y270039D01*
X354752Y270012D01*
X354799Y269976D01*
X354842Y269945D01*
X354886Y269905D01*
X354925Y269866D01*
X354965Y269827D01*
X355004Y269783D01*
X355035Y269740D01*
X355071Y269693D01*
X355098Y269646D01*
X355126Y269595D01*
X355150Y269543D01*
X355173Y269492D01*
X355193Y269437D01*
X355209Y269382D01*
X355221Y269327D01*
X355232Y269272D01*
X355236Y269216D01*
X355244Y269158D01*
Y269102D01*
Y269047D01*
X355236Y268988D01*
X355232Y268933D01*
X355221Y268878D01*
X355209Y268823D01*
X355193Y268768D01*
X355173Y268713D01*
X355150Y268661D01*
X355126Y268610D01*
X355098Y268563D01*
X355071Y268512D01*
X355035Y268465D01*
X355004Y268421D01*
X354965Y268378D01*
X354925Y268339D01*
X354886Y268299D01*
X354842Y268260D01*
X354799Y268228D01*
X354752Y268193D01*
X354701Y268165D01*
X354654Y268138D01*
X354602Y268114D01*
X354551Y268091D01*
X354496Y268071D01*
X354441Y268055D01*
X354386Y268043D01*
X354331Y268032D01*
X354276Y268028D01*
X354217Y268020D01*
X349185D01*
X349126Y268028D01*
X349071Y268032D01*
X349016Y268043D01*
X348961Y268055D01*
X348905Y268071D01*
X348850Y268091D01*
X348799Y268114D01*
X348748Y268138D01*
X348701Y268165D01*
X348650Y268193D01*
X348602Y268228D01*
X348559Y268260D01*
X348516Y268299D01*
X348476Y268339D01*
X348437Y268378D01*
X348398Y268421D01*
X348366Y268465D01*
X348331Y268512D01*
X348303Y268563D01*
X348276Y268610D01*
X348252Y268661D01*
X348228Y268713D01*
X348209Y268768D01*
X348193Y268823D01*
X348181Y268878D01*
X348169Y268933D01*
X348165Y268988D01*
X348158Y269047D01*
Y269102D01*
Y269158D01*
X348165Y269216D01*
X348169Y269272D01*
X348181Y269327D01*
X348193Y269382D01*
X348209Y269437D01*
X348228Y269492D01*
X348252Y269543D01*
X348276Y269595D01*
X348303Y269646D01*
X348331Y269693D01*
X348366Y269740D01*
X348398Y269783D01*
X348437Y269827D01*
X348476Y269866D01*
X348516Y269905D01*
X348559Y269945D01*
X348602Y269976D01*
X348650Y270012D01*
X348701Y270039D01*
X348748Y270067D01*
X348799Y270091D01*
X348850Y270114D01*
X348905Y270134D01*
X348961Y270150D01*
X349016Y270161D01*
X349071Y270173D01*
X349126Y270177D01*
X349185Y270185D01*
X354217D01*
X354276Y270177D01*
D02*
G37*
G36*
X363827Y267528D02*
X362134D01*
Y268709D01*
X363827D01*
Y267528D01*
D02*
G37*
G36*
X361740D02*
X360047D01*
Y268709D01*
X361740D01*
Y267528D01*
D02*
G37*
G36*
X398354Y264181D02*
X395598D01*
Y267921D01*
X398354D01*
Y264181D01*
D02*
G37*
G36*
X393236D02*
X390480D01*
Y267921D01*
X393236D01*
Y264181D01*
D02*
G37*
G36*
X386937D02*
X384181D01*
Y267921D01*
X386937D01*
Y264181D01*
D02*
G37*
G36*
X381819D02*
X379063D01*
Y267921D01*
X381819D01*
Y264181D01*
D02*
G37*
G36*
X375520D02*
X372764D01*
Y267921D01*
X375520D01*
Y264181D01*
D02*
G37*
G36*
X370402D02*
X367646D01*
Y265087D01*
X370402Y267843D01*
Y264181D01*
D02*
G37*
G36*
X416874Y265846D02*
X416929Y265843D01*
X416984Y265831D01*
X417039Y265819D01*
X417095Y265803D01*
X417150Y265784D01*
X417201Y265760D01*
X417252Y265736D01*
X417299Y265709D01*
X417350Y265681D01*
X417398Y265646D01*
X417441Y265614D01*
X417484Y265575D01*
X417524Y265535D01*
X417563Y265496D01*
X417602Y265453D01*
X417634Y265409D01*
X417669Y265362D01*
X417697Y265311D01*
X417724Y265264D01*
X417748Y265213D01*
X417772Y265161D01*
X417791Y265106D01*
X417807Y265051D01*
X417819Y264996D01*
X417831Y264941D01*
X417835Y264886D01*
X417842Y264827D01*
Y264772D01*
Y264717D01*
X417835Y264657D01*
X417831Y264602D01*
X417819Y264547D01*
X417807Y264492D01*
X417791Y264437D01*
X417772Y264382D01*
X417748Y264331D01*
X417724Y264280D01*
X417697Y264232D01*
X417669Y264181D01*
X417634Y264134D01*
X417602Y264090D01*
X417563Y264047D01*
X417524Y264008D01*
X417484Y263968D01*
X417441Y263929D01*
X417398Y263898D01*
X417350Y263862D01*
X417299Y263835D01*
X417252Y263807D01*
X417201Y263784D01*
X417150Y263760D01*
X417095Y263740D01*
X417039Y263724D01*
X416984Y263713D01*
X416929Y263701D01*
X416874Y263697D01*
X416815Y263689D01*
X411784D01*
X411724Y263697D01*
X411669Y263701D01*
X411614Y263713D01*
X411559Y263724D01*
X411504Y263740D01*
X411449Y263760D01*
X411398Y263784D01*
X411346Y263807D01*
X411299Y263835D01*
X411248Y263862D01*
X411201Y263898D01*
X411158Y263929D01*
X411114Y263968D01*
X411075Y264008D01*
X411035Y264047D01*
X410996Y264090D01*
X410965Y264134D01*
X410929Y264181D01*
X410902Y264232D01*
X410874Y264280D01*
X410850Y264331D01*
X410827Y264382D01*
X410807Y264437D01*
X410791Y264492D01*
X410779Y264547D01*
X410768Y264602D01*
X410764Y264657D01*
X410756Y264717D01*
Y264772D01*
Y264827D01*
X410764Y264886D01*
X410768Y264941D01*
X410779Y264996D01*
X410791Y265051D01*
X410807Y265106D01*
X410827Y265161D01*
X410850Y265213D01*
X410874Y265264D01*
X410902Y265311D01*
X410929Y265362D01*
X410965Y265409D01*
X410996Y265453D01*
X411035Y265496D01*
X411075Y265535D01*
X411114Y265575D01*
X411158Y265614D01*
X411201Y265646D01*
X411248Y265681D01*
X411299Y265709D01*
X411346Y265736D01*
X411398Y265760D01*
X411449Y265784D01*
X411504Y265803D01*
X411559Y265819D01*
X411614Y265831D01*
X411669Y265843D01*
X411724Y265846D01*
X411784Y265854D01*
X416815D01*
X416874Y265846D01*
D02*
G37*
G36*
X354276D02*
X354331Y265843D01*
X354386Y265831D01*
X354441Y265819D01*
X354496Y265803D01*
X354551Y265784D01*
X354602Y265760D01*
X354654Y265736D01*
X354701Y265709D01*
X354752Y265681D01*
X354799Y265646D01*
X354842Y265614D01*
X354886Y265575D01*
X354925Y265535D01*
X354965Y265496D01*
X355004Y265453D01*
X355035Y265409D01*
X355071Y265362D01*
X355098Y265311D01*
X355126Y265264D01*
X355150Y265213D01*
X355173Y265161D01*
X355193Y265106D01*
X355209Y265051D01*
X355221Y264996D01*
X355232Y264941D01*
X355236Y264886D01*
X355244Y264827D01*
Y264772D01*
Y264717D01*
X355236Y264657D01*
X355232Y264602D01*
X355221Y264547D01*
X355209Y264492D01*
X355193Y264437D01*
X355173Y264382D01*
X355150Y264331D01*
X355126Y264280D01*
X355098Y264232D01*
X355071Y264181D01*
X355035Y264134D01*
X355004Y264090D01*
X354965Y264047D01*
X354925Y264008D01*
X354886Y263968D01*
X354842Y263929D01*
X354799Y263898D01*
X354752Y263862D01*
X354701Y263835D01*
X354654Y263807D01*
X354602Y263784D01*
X354551Y263760D01*
X354496Y263740D01*
X354441Y263724D01*
X354386Y263713D01*
X354331Y263701D01*
X354276Y263697D01*
X354217Y263689D01*
X349185D01*
X349126Y263697D01*
X349071Y263701D01*
X349016Y263713D01*
X348961Y263724D01*
X348905Y263740D01*
X348850Y263760D01*
X348799Y263784D01*
X348748Y263807D01*
X348701Y263835D01*
X348650Y263862D01*
X348602Y263898D01*
X348559Y263929D01*
X348516Y263968D01*
X348476Y264008D01*
X348437Y264047D01*
X348398Y264090D01*
X348366Y264134D01*
X348331Y264181D01*
X348303Y264232D01*
X348276Y264280D01*
X348252Y264331D01*
X348228Y264382D01*
X348209Y264437D01*
X348193Y264492D01*
X348181Y264547D01*
X348169Y264602D01*
X348165Y264657D01*
X348158Y264717D01*
Y264772D01*
Y264827D01*
X348165Y264886D01*
X348169Y264941D01*
X348181Y264996D01*
X348193Y265051D01*
X348209Y265106D01*
X348228Y265161D01*
X348252Y265213D01*
X348276Y265264D01*
X348303Y265311D01*
X348331Y265362D01*
X348366Y265409D01*
X348398Y265453D01*
X348437Y265496D01*
X348476Y265535D01*
X348516Y265575D01*
X348559Y265614D01*
X348602Y265646D01*
X348650Y265681D01*
X348701Y265709D01*
X348748Y265736D01*
X348799Y265760D01*
X348850Y265784D01*
X348905Y265803D01*
X348961Y265819D01*
X349016Y265831D01*
X349071Y265843D01*
X349126Y265846D01*
X349185Y265854D01*
X354217D01*
X354276Y265846D01*
D02*
G37*
G36*
X363827Y263591D02*
X362134D01*
Y264772D01*
X363827D01*
Y263591D01*
D02*
G37*
G36*
X361740D02*
X360047D01*
Y264772D01*
X361740D01*
Y263591D01*
D02*
G37*
G36*
X363827Y262016D02*
X362134D01*
Y263197D01*
X363827D01*
Y262016D01*
D02*
G37*
G36*
X361740D02*
X360047D01*
Y263197D01*
X361740D01*
Y262016D01*
D02*
G37*
G36*
X416874Y261516D02*
X416929Y261512D01*
X416984Y261500D01*
X417039Y261488D01*
X417095Y261472D01*
X417150Y261453D01*
X417201Y261429D01*
X417252Y261405D01*
X417299Y261378D01*
X417350Y261350D01*
X417398Y261315D01*
X417441Y261283D01*
X417484Y261244D01*
X417524Y261205D01*
X417563Y261165D01*
X417602Y261122D01*
X417634Y261079D01*
X417669Y261032D01*
X417697Y260984D01*
X417724Y260933D01*
X417748Y260882D01*
X417772Y260831D01*
X417791Y260776D01*
X417807Y260720D01*
X417819Y260665D01*
X417831Y260610D01*
X417835Y260555D01*
X417842Y260496D01*
Y260441D01*
Y260386D01*
X417835Y260327D01*
X417831Y260272D01*
X417819Y260216D01*
X417807Y260161D01*
X417791Y260106D01*
X417772Y260051D01*
X417748Y260000D01*
X417724Y259949D01*
X417697Y259898D01*
X417669Y259850D01*
X417634Y259803D01*
X417602Y259760D01*
X417563Y259717D01*
X417524Y259677D01*
X417484Y259638D01*
X417441Y259598D01*
X417398Y259567D01*
X417350Y259531D01*
X417299Y259504D01*
X417252Y259476D01*
X417201Y259453D01*
X417150Y259429D01*
X417095Y259409D01*
X417039Y259394D01*
X416984Y259382D01*
X416929Y259370D01*
X416874Y259366D01*
X416815Y259358D01*
X411784D01*
X411724Y259366D01*
X411669Y259370D01*
X411614Y259382D01*
X411559Y259394D01*
X411504Y259409D01*
X411449Y259429D01*
X411398Y259453D01*
X411346Y259476D01*
X411299Y259504D01*
X411248Y259531D01*
X411201Y259567D01*
X411158Y259598D01*
X411114Y259638D01*
X411075Y259677D01*
X411035Y259717D01*
X410996Y259760D01*
X410965Y259803D01*
X410929Y259850D01*
X410902Y259898D01*
X410874Y259949D01*
X410850Y260000D01*
X410827Y260051D01*
X410807Y260106D01*
X410791Y260161D01*
X410779Y260216D01*
X410768Y260272D01*
X410764Y260327D01*
X410756Y260386D01*
Y260441D01*
Y260496D01*
X410764Y260555D01*
X410768Y260610D01*
X410779Y260665D01*
X410791Y260720D01*
X410807Y260776D01*
X410827Y260831D01*
X410850Y260882D01*
X410874Y260933D01*
X410902Y260984D01*
X410929Y261032D01*
X410965Y261079D01*
X410996Y261122D01*
X411035Y261165D01*
X411075Y261205D01*
X411114Y261244D01*
X411158Y261283D01*
X411201Y261315D01*
X411248Y261350D01*
X411299Y261378D01*
X411346Y261405D01*
X411398Y261429D01*
X411449Y261453D01*
X411504Y261472D01*
X411559Y261488D01*
X411614Y261500D01*
X411669Y261512D01*
X411724Y261516D01*
X411784Y261524D01*
X416815D01*
X416874Y261516D01*
D02*
G37*
G36*
X354276D02*
X354331Y261512D01*
X354386Y261500D01*
X354441Y261488D01*
X354496Y261472D01*
X354551Y261453D01*
X354602Y261429D01*
X354654Y261405D01*
X354701Y261378D01*
X354752Y261350D01*
X354799Y261315D01*
X354842Y261283D01*
X354886Y261244D01*
X354925Y261205D01*
X354965Y261165D01*
X355004Y261122D01*
X355035Y261079D01*
X355071Y261032D01*
X355098Y260984D01*
X355126Y260933D01*
X355150Y260882D01*
X355173Y260831D01*
X355193Y260776D01*
X355209Y260720D01*
X355221Y260665D01*
X355232Y260610D01*
X355236Y260555D01*
X355244Y260496D01*
Y260441D01*
Y260386D01*
X355236Y260327D01*
X355232Y260272D01*
X355221Y260216D01*
X355209Y260161D01*
X355193Y260106D01*
X355173Y260051D01*
X355150Y260000D01*
X355126Y259949D01*
X355098Y259898D01*
X355071Y259850D01*
X355035Y259803D01*
X355004Y259760D01*
X354965Y259717D01*
X354925Y259677D01*
X354886Y259638D01*
X354842Y259598D01*
X354799Y259567D01*
X354752Y259531D01*
X354701Y259504D01*
X354654Y259476D01*
X354602Y259453D01*
X354551Y259429D01*
X354496Y259409D01*
X354441Y259394D01*
X354386Y259382D01*
X354331Y259370D01*
X354276Y259366D01*
X354217Y259358D01*
X349185D01*
X349126Y259366D01*
X349071Y259370D01*
X349016Y259382D01*
X348961Y259394D01*
X348905Y259409D01*
X348850Y259429D01*
X348799Y259453D01*
X348748Y259476D01*
X348697Y259504D01*
X348650Y259531D01*
X348602Y259567D01*
X348559Y259598D01*
X348516Y259638D01*
X348476Y259677D01*
X348437Y259717D01*
X348398Y259760D01*
X348366Y259803D01*
X348331Y259850D01*
X348303Y259898D01*
X348276Y259949D01*
X348252Y260000D01*
X348228Y260051D01*
X348209Y260106D01*
X348193Y260161D01*
X348181Y260216D01*
X348169Y260272D01*
X348165Y260327D01*
X348158Y260386D01*
Y260441D01*
Y260496D01*
X348165Y260555D01*
X348169Y260610D01*
X348181Y260665D01*
X348193Y260720D01*
X348209Y260776D01*
X348228Y260831D01*
X348252Y260882D01*
X348276Y260933D01*
X348303Y260984D01*
X348331Y261032D01*
X348366Y261079D01*
X348398Y261122D01*
X348437Y261165D01*
X348476Y261205D01*
X348516Y261244D01*
X348559Y261283D01*
X348602Y261315D01*
X348650Y261350D01*
X348701Y261378D01*
X348748Y261405D01*
X348799Y261429D01*
X348850Y261453D01*
X348905Y261472D01*
X348961Y261488D01*
X349016Y261500D01*
X349071Y261512D01*
X349126Y261516D01*
X349185Y261524D01*
X354217D01*
X354276Y261516D01*
D02*
G37*
G36*
X398354Y258079D02*
X395598D01*
Y261819D01*
X398354D01*
Y258079D01*
D02*
G37*
G36*
X393236D02*
X390480D01*
Y261819D01*
X393236D01*
Y258079D01*
D02*
G37*
G36*
X386937D02*
X384181D01*
Y261819D01*
X386937D01*
Y258079D01*
D02*
G37*
G36*
X381819D02*
X379063D01*
Y261819D01*
X381819D01*
Y258079D01*
D02*
G37*
G36*
X375520D02*
X372764D01*
Y261819D01*
X375520D01*
Y258079D01*
D02*
G37*
G36*
X370402D02*
X367646D01*
Y261819D01*
X370402D01*
Y258079D01*
D02*
G37*
G36*
X363827D02*
X362134D01*
Y259260D01*
X363827D01*
Y258079D01*
D02*
G37*
G36*
X361740D02*
X360047D01*
Y259260D01*
X361740D01*
Y258079D01*
D02*
G37*
G36*
X363827Y256504D02*
X362134D01*
Y257685D01*
X363827D01*
Y256504D01*
D02*
G37*
G36*
X361740D02*
X360047D01*
Y257685D01*
X361740D01*
Y256504D01*
D02*
G37*
G36*
X416874Y257185D02*
X416929Y257181D01*
X416984Y257169D01*
X417039Y257157D01*
X417095Y257142D01*
X417150Y257122D01*
X417201Y257098D01*
X417252Y257075D01*
X417299Y257047D01*
X417350Y257020D01*
X417398Y256984D01*
X417441Y256953D01*
X417484Y256913D01*
X417524Y256874D01*
X417563Y256835D01*
X417602Y256791D01*
X417634Y256748D01*
X417669Y256701D01*
X417697Y256653D01*
X417724Y256602D01*
X417748Y256551D01*
X417772Y256500D01*
X417791Y256445D01*
X417807Y256390D01*
X417819Y256335D01*
X417831Y256279D01*
X417835Y256224D01*
X417842Y256165D01*
Y256110D01*
Y256055D01*
X417835Y255996D01*
X417831Y255941D01*
X417819Y255886D01*
X417807Y255831D01*
X417791Y255776D01*
X417772Y255720D01*
X417748Y255669D01*
X417724Y255618D01*
X417697Y255571D01*
X417669Y255520D01*
X417634Y255472D01*
X417602Y255429D01*
X417563Y255386D01*
X417524Y255346D01*
X417484Y255307D01*
X417441Y255268D01*
X417398Y255236D01*
X417350Y255201D01*
X417299Y255173D01*
X417252Y255146D01*
X417201Y255122D01*
X417150Y255098D01*
X417095Y255079D01*
X417039Y255063D01*
X416984Y255051D01*
X416929Y255039D01*
X416874Y255035D01*
X416815Y255028D01*
X411784D01*
X411724Y255035D01*
X411669Y255039D01*
X411614Y255051D01*
X411559Y255063D01*
X411504Y255079D01*
X411449Y255098D01*
X411398Y255122D01*
X411346Y255146D01*
X411299Y255173D01*
X411248Y255201D01*
X411201Y255236D01*
X411158Y255268D01*
X411114Y255307D01*
X411075Y255346D01*
X411035Y255386D01*
X410996Y255429D01*
X410965Y255472D01*
X410929Y255520D01*
X410902Y255571D01*
X410874Y255618D01*
X410850Y255669D01*
X410827Y255720D01*
X410807Y255776D01*
X410791Y255831D01*
X410779Y255886D01*
X410768Y255941D01*
X410764Y255996D01*
X410756Y256055D01*
Y256110D01*
Y256165D01*
X410764Y256224D01*
X410768Y256279D01*
X410779Y256335D01*
X410791Y256390D01*
X410807Y256445D01*
X410827Y256500D01*
X410850Y256551D01*
X410874Y256602D01*
X410902Y256653D01*
X410929Y256701D01*
X410965Y256748D01*
X410996Y256791D01*
X411035Y256835D01*
X411075Y256874D01*
X411114Y256913D01*
X411158Y256953D01*
X411201Y256984D01*
X411248Y257020D01*
X411299Y257047D01*
X411346Y257075D01*
X411398Y257098D01*
X411449Y257122D01*
X411504Y257142D01*
X411559Y257157D01*
X411614Y257169D01*
X411669Y257181D01*
X411724Y257185D01*
X411784Y257193D01*
X416815D01*
X416874Y257185D01*
D02*
G37*
G36*
X354276D02*
X354331Y257181D01*
X354386Y257169D01*
X354441Y257157D01*
X354496Y257142D01*
X354551Y257122D01*
X354602Y257098D01*
X354654Y257075D01*
X354701Y257047D01*
X354752Y257020D01*
X354799Y256984D01*
X354842Y256953D01*
X354886Y256913D01*
X354925Y256874D01*
X354965Y256835D01*
X355004Y256791D01*
X355035Y256748D01*
X355071Y256701D01*
X355098Y256653D01*
X355126Y256602D01*
X355150Y256551D01*
X355173Y256500D01*
X355193Y256445D01*
X355209Y256390D01*
X355221Y256335D01*
X355232Y256279D01*
X355236Y256224D01*
X355244Y256165D01*
Y256110D01*
Y256055D01*
X355236Y255996D01*
X355232Y255941D01*
X355221Y255886D01*
X355209Y255831D01*
X355193Y255776D01*
X355173Y255720D01*
X355150Y255669D01*
X355126Y255618D01*
X355098Y255571D01*
X355071Y255520D01*
X355035Y255472D01*
X355004Y255429D01*
X354965Y255386D01*
X354925Y255346D01*
X354886Y255307D01*
X354842Y255268D01*
X354799Y255236D01*
X354752Y255201D01*
X354701Y255173D01*
X354654Y255146D01*
X354602Y255122D01*
X354551Y255098D01*
X354496Y255079D01*
X354441Y255063D01*
X354386Y255051D01*
X354331Y255039D01*
X354276Y255035D01*
X354217Y255028D01*
X349185D01*
X349126Y255035D01*
X349071Y255039D01*
X349016Y255051D01*
X348961Y255063D01*
X348905Y255079D01*
X348850Y255098D01*
X348799Y255122D01*
X348748Y255146D01*
X348701Y255173D01*
X348650Y255201D01*
X348602Y255236D01*
X348559Y255268D01*
X348516Y255307D01*
X348476Y255346D01*
X348437Y255386D01*
X348398Y255429D01*
X348366Y255472D01*
X348331Y255520D01*
X348303Y255571D01*
X348276Y255618D01*
X348252Y255669D01*
X348228Y255720D01*
X348209Y255776D01*
X348193Y255831D01*
X348181Y255886D01*
X348169Y255941D01*
X348165Y255996D01*
X348158Y256055D01*
Y256110D01*
Y256165D01*
X348165Y256224D01*
X348169Y256279D01*
X348181Y256335D01*
X348193Y256390D01*
X348209Y256445D01*
X348228Y256500D01*
X348252Y256551D01*
X348276Y256602D01*
X348303Y256653D01*
X348331Y256701D01*
X348366Y256748D01*
X348398Y256791D01*
X348437Y256835D01*
X348476Y256874D01*
X348516Y256913D01*
X348559Y256953D01*
X348602Y256984D01*
X348650Y257020D01*
X348701Y257047D01*
X348748Y257075D01*
X348799Y257098D01*
X348850Y257122D01*
X348905Y257142D01*
X348961Y257157D01*
X349016Y257169D01*
X349071Y257181D01*
X349126Y257185D01*
X349185Y257193D01*
X354217D01*
X354276Y257185D01*
D02*
G37*
G36*
X405953Y252567D02*
X404260D01*
Y253748D01*
X405953D01*
Y252567D01*
D02*
G37*
G36*
X403866D02*
X402173D01*
Y253748D01*
X403866D01*
Y252567D01*
D02*
G37*
G36*
X363827D02*
X362134D01*
Y253748D01*
X363827D01*
Y252567D01*
D02*
G37*
G36*
X361740D02*
X360047D01*
Y253748D01*
X361740D01*
Y252567D01*
D02*
G37*
G36*
X405953Y250992D02*
X404260D01*
Y252173D01*
X405953D01*
Y250992D01*
D02*
G37*
G36*
X403866D02*
X402173D01*
Y252173D01*
X403866D01*
Y250992D01*
D02*
G37*
G36*
X363827D02*
X362134D01*
Y252173D01*
X363827D01*
Y250992D01*
D02*
G37*
G36*
X361740D02*
X360047D01*
Y252173D01*
X361740D01*
Y250992D01*
D02*
G37*
G36*
X398354Y250795D02*
X395598D01*
Y254535D01*
X398354D01*
Y250795D01*
D02*
G37*
G36*
X393236D02*
X390480D01*
Y254535D01*
X393236D01*
Y250795D01*
D02*
G37*
G36*
X386937D02*
X384181D01*
Y254535D01*
X386937D01*
Y250795D01*
D02*
G37*
G36*
X381819D02*
X379063D01*
Y254535D01*
X381819D01*
Y250795D01*
D02*
G37*
G36*
X375520D02*
X372764D01*
Y254535D01*
X375520D01*
Y250795D01*
D02*
G37*
G36*
X370402D02*
X367646D01*
Y254535D01*
X370402D01*
Y250795D01*
D02*
G37*
G36*
X416874Y252854D02*
X416929Y252850D01*
X416984Y252839D01*
X417039Y252827D01*
X417095Y252811D01*
X417150Y252791D01*
X417201Y252768D01*
X417252Y252744D01*
X417299Y252716D01*
X417350Y252689D01*
X417398Y252654D01*
X417441Y252622D01*
X417484Y252583D01*
X417524Y252543D01*
X417563Y252504D01*
X417602Y252461D01*
X417634Y252417D01*
X417669Y252370D01*
X417697Y252319D01*
X417724Y252272D01*
X417748Y252221D01*
X417772Y252169D01*
X417791Y252114D01*
X417807Y252059D01*
X417819Y252004D01*
X417831Y251949D01*
X417835Y251894D01*
X417842Y251835D01*
Y251780D01*
Y251724D01*
X417835Y251665D01*
X417831Y251610D01*
X417819Y251555D01*
X417807Y251500D01*
X417791Y251445D01*
X417772Y251390D01*
X417748Y251339D01*
X417724Y251287D01*
X417697Y251240D01*
X417669Y251189D01*
X417634Y251142D01*
X417602Y251098D01*
X417563Y251055D01*
X417524Y251016D01*
X417484Y250976D01*
X417441Y250937D01*
X417398Y250905D01*
X417350Y250870D01*
X417299Y250842D01*
X417252Y250815D01*
X417201Y250791D01*
X417150Y250768D01*
X417095Y250748D01*
X417039Y250732D01*
X416984Y250721D01*
X416929Y250709D01*
X416874Y250705D01*
X416815Y250697D01*
X411784D01*
X411724Y250705D01*
X411669Y250709D01*
X411614Y250721D01*
X411559Y250732D01*
X411504Y250748D01*
X411449Y250768D01*
X411398Y250791D01*
X411346Y250815D01*
X411299Y250842D01*
X411248Y250870D01*
X411201Y250905D01*
X411158Y250937D01*
X411114Y250976D01*
X411075Y251016D01*
X411035Y251055D01*
X410996Y251098D01*
X410965Y251142D01*
X410929Y251189D01*
X410902Y251240D01*
X410874Y251287D01*
X410850Y251339D01*
X410827Y251390D01*
X410807Y251445D01*
X410791Y251500D01*
X410779Y251555D01*
X410768Y251610D01*
X410764Y251665D01*
X410756Y251724D01*
Y251780D01*
Y251835D01*
X410764Y251894D01*
X410768Y251949D01*
X410779Y252004D01*
X410791Y252059D01*
X410807Y252114D01*
X410827Y252169D01*
X410850Y252221D01*
X410874Y252272D01*
X410902Y252319D01*
X410929Y252370D01*
X410965Y252417D01*
X410996Y252461D01*
X411035Y252504D01*
X411075Y252543D01*
X411114Y252583D01*
X411158Y252622D01*
X411201Y252654D01*
X411248Y252689D01*
X411299Y252716D01*
X411346Y252744D01*
X411398Y252768D01*
X411449Y252791D01*
X411504Y252811D01*
X411559Y252827D01*
X411614Y252839D01*
X411669Y252850D01*
X411724Y252854D01*
X411784Y252862D01*
X416815D01*
X416874Y252854D01*
D02*
G37*
G36*
X354276D02*
X354331Y252850D01*
X354386Y252839D01*
X354441Y252827D01*
X354496Y252811D01*
X354551Y252791D01*
X354602Y252768D01*
X354654Y252744D01*
X354701Y252716D01*
X354752Y252689D01*
X354799Y252654D01*
X354842Y252622D01*
X354886Y252583D01*
X354925Y252543D01*
X354965Y252504D01*
X355004Y252461D01*
X355035Y252417D01*
X355071Y252370D01*
X355098Y252319D01*
X355126Y252272D01*
X355150Y252221D01*
X355173Y252169D01*
X355193Y252114D01*
X355209Y252059D01*
X355221Y252004D01*
X355232Y251949D01*
X355236Y251894D01*
X355244Y251835D01*
Y251780D01*
Y251724D01*
X355236Y251665D01*
X355232Y251610D01*
X355221Y251555D01*
X355209Y251500D01*
X355193Y251445D01*
X355173Y251390D01*
X355150Y251339D01*
X355126Y251287D01*
X355098Y251240D01*
X355071Y251189D01*
X355035Y251142D01*
X355004Y251098D01*
X354965Y251055D01*
X354925Y251016D01*
X354886Y250976D01*
X354842Y250937D01*
X354799Y250905D01*
X354752Y250870D01*
X354701Y250842D01*
X354654Y250815D01*
X354602Y250791D01*
X354551Y250768D01*
X354496Y250748D01*
X354441Y250732D01*
X354386Y250721D01*
X354331Y250709D01*
X354276Y250705D01*
X354217Y250697D01*
X349185D01*
X349126Y250705D01*
X349071Y250709D01*
X349016Y250721D01*
X348961Y250732D01*
X348905Y250748D01*
X348850Y250768D01*
X348799Y250791D01*
X348748Y250815D01*
X348701Y250842D01*
X348650Y250870D01*
X348602Y250905D01*
X348559Y250937D01*
X348516Y250976D01*
X348476Y251016D01*
X348437Y251055D01*
X348398Y251098D01*
X348366Y251142D01*
X348331Y251189D01*
X348303Y251240D01*
X348276Y251287D01*
X348252Y251339D01*
X348228Y251390D01*
X348209Y251445D01*
X348193Y251500D01*
X348181Y251555D01*
X348169Y251610D01*
X348165Y251665D01*
X348158Y251724D01*
Y251780D01*
Y251835D01*
X348165Y251894D01*
X348169Y251949D01*
X348181Y252004D01*
X348193Y252059D01*
X348209Y252114D01*
X348228Y252169D01*
X348252Y252221D01*
X348276Y252272D01*
X348303Y252319D01*
X348331Y252370D01*
X348366Y252417D01*
X348398Y252461D01*
X348437Y252504D01*
X348476Y252543D01*
X348516Y252583D01*
X348559Y252622D01*
X348602Y252654D01*
X348650Y252689D01*
X348701Y252716D01*
X348748Y252744D01*
X348799Y252768D01*
X348850Y252791D01*
X348905Y252811D01*
X348961Y252827D01*
X349016Y252839D01*
X349071Y252850D01*
X349126Y252854D01*
X349185Y252862D01*
X354217D01*
X354276Y252854D01*
D02*
G37*
G36*
X405953Y247055D02*
X404260D01*
Y248236D01*
X405953D01*
Y247055D01*
D02*
G37*
G36*
X403866D02*
X402173D01*
Y248236D01*
X403866D01*
Y247055D01*
D02*
G37*
G36*
X363827D02*
X362134D01*
Y248236D01*
X363827D01*
Y247055D01*
D02*
G37*
G36*
X361740D02*
X360047D01*
Y248236D01*
X361740D01*
Y247055D01*
D02*
G37*
G36*
X416874Y248524D02*
X416929Y248520D01*
X416984Y248508D01*
X417039Y248496D01*
X417095Y248480D01*
X417150Y248461D01*
X417201Y248437D01*
X417252Y248413D01*
X417299Y248386D01*
X417350Y248358D01*
X417398Y248323D01*
X417441Y248291D01*
X417484Y248252D01*
X417524Y248213D01*
X417563Y248173D01*
X417602Y248130D01*
X417634Y248087D01*
X417669Y248039D01*
X417697Y247988D01*
X417724Y247941D01*
X417748Y247890D01*
X417772Y247839D01*
X417791Y247783D01*
X417807Y247728D01*
X417819Y247673D01*
X417831Y247618D01*
X417835Y247563D01*
X417842Y247504D01*
Y247449D01*
Y247394D01*
X417835Y247335D01*
X417831Y247280D01*
X417819Y247224D01*
X417807Y247169D01*
X417791Y247114D01*
X417772Y247059D01*
X417748Y247008D01*
X417724Y246957D01*
X417697Y246909D01*
X417669Y246858D01*
X417634Y246811D01*
X417602Y246768D01*
X417563Y246724D01*
X417524Y246685D01*
X417484Y246646D01*
X417441Y246606D01*
X417398Y246575D01*
X417350Y246539D01*
X417299Y246512D01*
X417252Y246484D01*
X417201Y246461D01*
X417150Y246437D01*
X417095Y246417D01*
X417039Y246402D01*
X416984Y246390D01*
X416929Y246378D01*
X416874Y246374D01*
X416815Y246366D01*
X411784D01*
X411724Y246374D01*
X411669Y246378D01*
X411614Y246390D01*
X411559Y246402D01*
X411504Y246417D01*
X411449Y246437D01*
X411398Y246461D01*
X411346Y246484D01*
X411299Y246512D01*
X411248Y246539D01*
X411201Y246575D01*
X411158Y246606D01*
X411114Y246646D01*
X411075Y246685D01*
X411035Y246724D01*
X410996Y246768D01*
X410965Y246811D01*
X410929Y246858D01*
X410902Y246909D01*
X410874Y246957D01*
X410850Y247008D01*
X410827Y247059D01*
X410807Y247114D01*
X410791Y247169D01*
X410779Y247224D01*
X410768Y247280D01*
X410764Y247335D01*
X410756Y247394D01*
Y247449D01*
Y247504D01*
X410764Y247563D01*
X410768Y247618D01*
X410779Y247673D01*
X410791Y247728D01*
X410807Y247783D01*
X410827Y247839D01*
X410850Y247890D01*
X410874Y247941D01*
X410902Y247988D01*
X410929Y248039D01*
X410965Y248087D01*
X410996Y248130D01*
X411035Y248173D01*
X411075Y248213D01*
X411114Y248252D01*
X411158Y248291D01*
X411201Y248323D01*
X411248Y248358D01*
X411299Y248386D01*
X411346Y248413D01*
X411398Y248437D01*
X411449Y248461D01*
X411504Y248480D01*
X411559Y248496D01*
X411614Y248508D01*
X411669Y248520D01*
X411724Y248524D01*
X411784Y248532D01*
X416815D01*
X416874Y248524D01*
D02*
G37*
G36*
X354276D02*
X354331Y248520D01*
X354386Y248508D01*
X354441Y248496D01*
X354496Y248480D01*
X354551Y248461D01*
X354602Y248437D01*
X354654Y248413D01*
X354701Y248386D01*
X354752Y248358D01*
X354799Y248323D01*
X354842Y248291D01*
X354886Y248252D01*
X354925Y248213D01*
X354965Y248173D01*
X355004Y248130D01*
X355035Y248087D01*
X355071Y248039D01*
X355098Y247988D01*
X355126Y247941D01*
X355150Y247890D01*
X355173Y247839D01*
X355193Y247783D01*
X355209Y247728D01*
X355221Y247673D01*
X355232Y247618D01*
X355236Y247563D01*
X355244Y247504D01*
Y247449D01*
Y247394D01*
X355236Y247335D01*
X355232Y247280D01*
X355221Y247224D01*
X355209Y247169D01*
X355193Y247114D01*
X355173Y247059D01*
X355150Y247008D01*
X355126Y246957D01*
X355098Y246909D01*
X355071Y246858D01*
X355035Y246811D01*
X355004Y246768D01*
X354965Y246724D01*
X354925Y246685D01*
X354886Y246646D01*
X354842Y246606D01*
X354799Y246575D01*
X354752Y246539D01*
X354701Y246512D01*
X354654Y246484D01*
X354602Y246461D01*
X354551Y246437D01*
X354496Y246417D01*
X354441Y246402D01*
X354386Y246390D01*
X354331Y246378D01*
X354276Y246374D01*
X354217Y246366D01*
X349185D01*
X349126Y246374D01*
X349071Y246378D01*
X349016Y246390D01*
X348961Y246402D01*
X348905Y246417D01*
X348850Y246437D01*
X348799Y246461D01*
X348748Y246484D01*
X348701Y246512D01*
X348650Y246539D01*
X348602Y246575D01*
X348559Y246606D01*
X348516Y246646D01*
X348476Y246685D01*
X348437Y246724D01*
X348398Y246768D01*
X348366Y246811D01*
X348331Y246858D01*
X348303Y246909D01*
X348276Y246957D01*
X348252Y247008D01*
X348228Y247059D01*
X348209Y247114D01*
X348193Y247169D01*
X348181Y247224D01*
X348169Y247280D01*
X348165Y247335D01*
X348158Y247394D01*
Y247449D01*
Y247504D01*
X348165Y247563D01*
X348169Y247618D01*
X348181Y247673D01*
X348193Y247728D01*
X348209Y247783D01*
X348228Y247839D01*
X348252Y247890D01*
X348276Y247941D01*
X348303Y247988D01*
X348331Y248039D01*
X348366Y248087D01*
X348398Y248130D01*
X348437Y248173D01*
X348476Y248213D01*
X348516Y248252D01*
X348559Y248291D01*
X348602Y248323D01*
X348650Y248358D01*
X348701Y248386D01*
X348748Y248413D01*
X348799Y248437D01*
X348850Y248461D01*
X348905Y248480D01*
X348961Y248496D01*
X349016Y248508D01*
X349071Y248520D01*
X349126Y248524D01*
X349185Y248532D01*
X354217D01*
X354276Y248524D01*
D02*
G37*
G36*
X405953Y245480D02*
X404260D01*
Y246661D01*
X405953D01*
Y245480D01*
D02*
G37*
G36*
X403866D02*
X402173D01*
Y246661D01*
X403866D01*
Y245480D01*
D02*
G37*
G36*
X363827D02*
X362134D01*
Y246661D01*
X363827D01*
Y245480D01*
D02*
G37*
G36*
X361740D02*
X360047D01*
Y246661D01*
X361740D01*
Y245480D01*
D02*
G37*
G36*
X398354Y244693D02*
X395598D01*
Y248433D01*
X398354D01*
Y244693D01*
D02*
G37*
G36*
X393236D02*
X390480D01*
Y248433D01*
X393236D01*
Y244693D01*
D02*
G37*
G36*
X386937D02*
X384181D01*
Y248433D01*
X386937D01*
Y244693D01*
D02*
G37*
G36*
X381819D02*
X379063D01*
Y248433D01*
X381819D01*
Y244693D01*
D02*
G37*
G36*
X375520D02*
X372764D01*
Y248433D01*
X375520D01*
Y244693D01*
D02*
G37*
G36*
X370402D02*
X367646D01*
Y248433D01*
X370402D01*
Y244693D01*
D02*
G37*
G36*
X416874Y244193D02*
X416929Y244189D01*
X416984Y244177D01*
X417039Y244165D01*
X417095Y244150D01*
X417150Y244130D01*
X417201Y244106D01*
X417252Y244083D01*
X417299Y244055D01*
X417350Y244028D01*
X417398Y243992D01*
X417441Y243961D01*
X417484Y243921D01*
X417524Y243882D01*
X417563Y243843D01*
X417602Y243799D01*
X417634Y243756D01*
X417669Y243709D01*
X417697Y243657D01*
X417724Y243610D01*
X417748Y243559D01*
X417772Y243508D01*
X417791Y243453D01*
X417807Y243398D01*
X417819Y243342D01*
X417831Y243287D01*
X417835Y243232D01*
X417842Y243173D01*
Y243118D01*
Y243063D01*
X417835Y243004D01*
X417831Y242949D01*
X417819Y242894D01*
X417807Y242839D01*
X417791Y242783D01*
X417772Y242728D01*
X417748Y242677D01*
X417724Y242626D01*
X417697Y242575D01*
X417669Y242528D01*
X417634Y242480D01*
X417602Y242437D01*
X417563Y242394D01*
X417524Y242354D01*
X417484Y242315D01*
X417441Y242276D01*
X417398Y242244D01*
X417350Y242209D01*
X417299Y242181D01*
X417252Y242154D01*
X417201Y242130D01*
X417150Y242106D01*
X417095Y242087D01*
X417039Y242071D01*
X416984Y242059D01*
X416929Y242047D01*
X416874Y242043D01*
X416815Y242035D01*
X411784D01*
X411724Y242043D01*
X411669Y242047D01*
X411614Y242059D01*
X411559Y242071D01*
X411504Y242087D01*
X411449Y242106D01*
X411398Y242130D01*
X411346Y242154D01*
X411299Y242181D01*
X411248Y242209D01*
X411201Y242244D01*
X411158Y242276D01*
X411114Y242315D01*
X411075Y242354D01*
X411035Y242394D01*
X410996Y242437D01*
X410965Y242480D01*
X410929Y242528D01*
X410902Y242575D01*
X410874Y242626D01*
X410850Y242677D01*
X410827Y242728D01*
X410807Y242783D01*
X410791Y242839D01*
X410779Y242894D01*
X410768Y242949D01*
X410764Y243004D01*
X410756Y243063D01*
Y243118D01*
Y243173D01*
X410764Y243232D01*
X410768Y243287D01*
X410779Y243342D01*
X410791Y243398D01*
X410807Y243453D01*
X410827Y243508D01*
X410850Y243559D01*
X410874Y243610D01*
X410902Y243657D01*
X410929Y243709D01*
X410965Y243756D01*
X410996Y243799D01*
X411035Y243843D01*
X411075Y243882D01*
X411114Y243921D01*
X411158Y243961D01*
X411201Y243992D01*
X411248Y244028D01*
X411299Y244055D01*
X411346Y244083D01*
X411398Y244106D01*
X411449Y244130D01*
X411504Y244150D01*
X411559Y244165D01*
X411614Y244177D01*
X411669Y244189D01*
X411724Y244193D01*
X411784Y244201D01*
X416815D01*
X416874Y244193D01*
D02*
G37*
G36*
X354276D02*
X354331Y244189D01*
X354386Y244177D01*
X354441Y244165D01*
X354496Y244150D01*
X354551Y244130D01*
X354602Y244106D01*
X354654Y244083D01*
X354701Y244055D01*
X354752Y244028D01*
X354799Y243992D01*
X354842Y243961D01*
X354886Y243921D01*
X354925Y243882D01*
X354965Y243843D01*
X355004Y243799D01*
X355035Y243756D01*
X355071Y243709D01*
X355098Y243657D01*
X355126Y243610D01*
X355150Y243559D01*
X355173Y243508D01*
X355193Y243453D01*
X355209Y243398D01*
X355221Y243342D01*
X355232Y243287D01*
X355236Y243232D01*
X355244Y243173D01*
Y243118D01*
Y243063D01*
X355236Y243004D01*
X355232Y242949D01*
X355221Y242894D01*
X355209Y242839D01*
X355193Y242783D01*
X355173Y242728D01*
X355150Y242677D01*
X355126Y242626D01*
X355098Y242575D01*
X355071Y242528D01*
X355035Y242480D01*
X355004Y242437D01*
X354965Y242394D01*
X354925Y242354D01*
X354886Y242315D01*
X354842Y242276D01*
X354799Y242244D01*
X354752Y242209D01*
X354701Y242181D01*
X354654Y242154D01*
X354602Y242130D01*
X354551Y242106D01*
X354496Y242087D01*
X354441Y242071D01*
X354386Y242059D01*
X354331Y242047D01*
X354276Y242043D01*
X354217Y242035D01*
X349185D01*
X349126Y242043D01*
X349071Y242047D01*
X349016Y242059D01*
X348961Y242071D01*
X348905Y242087D01*
X348850Y242106D01*
X348799Y242130D01*
X348748Y242154D01*
X348697Y242181D01*
X348650Y242209D01*
X348602Y242244D01*
X348559Y242276D01*
X348516Y242315D01*
X348476Y242354D01*
X348437Y242394D01*
X348398Y242437D01*
X348366Y242480D01*
X348331Y242528D01*
X348303Y242575D01*
X348276Y242626D01*
X348252Y242677D01*
X348228Y242728D01*
X348209Y242783D01*
X348193Y242839D01*
X348181Y242894D01*
X348169Y242949D01*
X348165Y243004D01*
X348158Y243063D01*
Y243118D01*
Y243173D01*
X348165Y243232D01*
X348169Y243287D01*
X348181Y243342D01*
X348193Y243398D01*
X348209Y243453D01*
X348228Y243508D01*
X348252Y243559D01*
X348276Y243610D01*
X348303Y243657D01*
X348331Y243709D01*
X348366Y243756D01*
X348398Y243799D01*
X348437Y243843D01*
X348476Y243882D01*
X348516Y243921D01*
X348559Y243961D01*
X348602Y243992D01*
X348650Y244028D01*
X348701Y244055D01*
X348748Y244083D01*
X348799Y244106D01*
X348850Y244130D01*
X348905Y244150D01*
X348961Y244165D01*
X349016Y244177D01*
X349071Y244189D01*
X349126Y244193D01*
X349185Y244201D01*
X354217D01*
X354276Y244193D01*
D02*
G37*
G36*
X405953Y241543D02*
X404260D01*
Y242724D01*
X405953D01*
Y241543D01*
D02*
G37*
G36*
X403866D02*
X402173D01*
Y242724D01*
X403866D01*
Y241543D01*
D02*
G37*
G36*
X363827D02*
X362134D01*
Y242724D01*
X363827D01*
Y241543D01*
D02*
G37*
G36*
X361740D02*
X360047D01*
Y242724D01*
X361740D01*
Y241543D01*
D02*
G37*
G36*
X405953Y239968D02*
X404260D01*
Y241150D01*
X405953D01*
Y239968D01*
D02*
G37*
G36*
X403866D02*
X402173D01*
Y241150D01*
X403866D01*
Y239968D01*
D02*
G37*
G36*
X363827D02*
X362134D01*
Y241150D01*
X363827D01*
Y239968D01*
D02*
G37*
G36*
X361740D02*
X360047D01*
Y241150D01*
X361740D01*
Y239968D01*
D02*
G37*
G36*
X416874Y239862D02*
X416929Y239858D01*
X416984Y239846D01*
X417039Y239835D01*
X417095Y239819D01*
X417150Y239799D01*
X417201Y239776D01*
X417252Y239752D01*
X417299Y239724D01*
X417350Y239697D01*
X417398Y239661D01*
X417441Y239630D01*
X417484Y239591D01*
X417524Y239551D01*
X417563Y239512D01*
X417602Y239469D01*
X417634Y239425D01*
X417669Y239378D01*
X417697Y239331D01*
X417724Y239280D01*
X417748Y239228D01*
X417772Y239177D01*
X417791Y239122D01*
X417807Y239067D01*
X417819Y239012D01*
X417831Y238957D01*
X417835Y238902D01*
X417842Y238843D01*
Y238787D01*
Y238732D01*
X417835Y238673D01*
X417831Y238618D01*
X417819Y238563D01*
X417807Y238508D01*
X417791Y238453D01*
X417772Y238398D01*
X417748Y238347D01*
X417724Y238295D01*
X417697Y238244D01*
X417669Y238197D01*
X417634Y238150D01*
X417602Y238106D01*
X417563Y238063D01*
X417524Y238024D01*
X417484Y237984D01*
X417441Y237945D01*
X417398Y237913D01*
X417350Y237878D01*
X417299Y237850D01*
X417252Y237823D01*
X417201Y237799D01*
X417150Y237776D01*
X417095Y237756D01*
X417039Y237740D01*
X416984Y237728D01*
X416929Y237717D01*
X416874Y237713D01*
X416815Y237705D01*
X411784D01*
X411724Y237713D01*
X411669Y237717D01*
X411614Y237728D01*
X411559Y237740D01*
X411504Y237756D01*
X411449Y237776D01*
X411398Y237799D01*
X411346Y237823D01*
X411299Y237850D01*
X411248Y237878D01*
X411201Y237913D01*
X411158Y237945D01*
X411114Y237984D01*
X411075Y238024D01*
X411035Y238063D01*
X410996Y238106D01*
X410965Y238150D01*
X410929Y238197D01*
X410902Y238244D01*
X410874Y238295D01*
X410850Y238347D01*
X410827Y238398D01*
X410807Y238453D01*
X410791Y238508D01*
X410779Y238563D01*
X410768Y238618D01*
X410764Y238673D01*
X410756Y238732D01*
Y238787D01*
Y238843D01*
X410764Y238902D01*
X410768Y238957D01*
X410779Y239012D01*
X410791Y239067D01*
X410807Y239122D01*
X410827Y239177D01*
X410850Y239228D01*
X410874Y239280D01*
X410902Y239331D01*
X410929Y239378D01*
X410965Y239425D01*
X410996Y239469D01*
X411035Y239512D01*
X411075Y239551D01*
X411114Y239591D01*
X411158Y239630D01*
X411201Y239661D01*
X411248Y239697D01*
X411299Y239724D01*
X411346Y239752D01*
X411398Y239776D01*
X411449Y239799D01*
X411504Y239819D01*
X411559Y239835D01*
X411614Y239846D01*
X411669Y239858D01*
X411724Y239862D01*
X411784Y239870D01*
X416815D01*
X416874Y239862D01*
D02*
G37*
G36*
X354276D02*
X354331Y239858D01*
X354386Y239846D01*
X354441Y239835D01*
X354496Y239819D01*
X354551Y239799D01*
X354602Y239776D01*
X354654Y239752D01*
X354701Y239724D01*
X354752Y239697D01*
X354799Y239661D01*
X354842Y239630D01*
X354886Y239591D01*
X354925Y239551D01*
X354965Y239512D01*
X355004Y239469D01*
X355035Y239425D01*
X355071Y239378D01*
X355098Y239331D01*
X355126Y239280D01*
X355150Y239228D01*
X355173Y239177D01*
X355193Y239122D01*
X355209Y239067D01*
X355221Y239012D01*
X355232Y238957D01*
X355236Y238902D01*
X355244Y238843D01*
Y238787D01*
Y238732D01*
X355236Y238673D01*
X355232Y238618D01*
X355221Y238563D01*
X355209Y238508D01*
X355193Y238453D01*
X355173Y238398D01*
X355150Y238347D01*
X355126Y238295D01*
X355098Y238244D01*
X355071Y238197D01*
X355035Y238150D01*
X355004Y238106D01*
X354965Y238063D01*
X354925Y238024D01*
X354886Y237984D01*
X354842Y237945D01*
X354799Y237913D01*
X354752Y237878D01*
X354701Y237850D01*
X354654Y237823D01*
X354602Y237799D01*
X354551Y237776D01*
X354496Y237756D01*
X354441Y237740D01*
X354386Y237728D01*
X354331Y237717D01*
X354276Y237713D01*
X354217Y237705D01*
X349185D01*
X349126Y237713D01*
X349071Y237717D01*
X349016Y237728D01*
X348961Y237740D01*
X348905Y237756D01*
X348850Y237776D01*
X348799Y237799D01*
X348748Y237823D01*
X348697Y237850D01*
X348650Y237878D01*
X348602Y237913D01*
X348559Y237945D01*
X348516Y237984D01*
X348476Y238024D01*
X348437Y238063D01*
X348398Y238106D01*
X348366Y238150D01*
X348331Y238197D01*
X348303Y238244D01*
X348276Y238295D01*
X348252Y238347D01*
X348228Y238398D01*
X348209Y238453D01*
X348193Y238508D01*
X348181Y238563D01*
X348169Y238618D01*
X348165Y238673D01*
X348158Y238732D01*
Y238787D01*
Y238843D01*
X348165Y238902D01*
X348169Y238957D01*
X348181Y239012D01*
X348193Y239067D01*
X348209Y239122D01*
X348228Y239177D01*
X348252Y239228D01*
X348276Y239280D01*
X348303Y239331D01*
X348331Y239378D01*
X348366Y239425D01*
X348398Y239469D01*
X348437Y239512D01*
X348476Y239551D01*
X348516Y239591D01*
X348559Y239630D01*
X348602Y239661D01*
X348650Y239697D01*
X348701Y239724D01*
X348748Y239752D01*
X348799Y239776D01*
X348850Y239799D01*
X348905Y239819D01*
X348961Y239835D01*
X349016Y239846D01*
X349071Y239858D01*
X349126Y239862D01*
X349185Y239870D01*
X354217D01*
X354276Y239862D01*
D02*
G37*
G36*
X398354Y237409D02*
X395598D01*
Y241150D01*
X398354D01*
Y237409D01*
D02*
G37*
G36*
X393236D02*
X390480D01*
Y241150D01*
X393236D01*
Y237409D01*
D02*
G37*
G36*
X386937D02*
X384181D01*
Y241150D01*
X386937D01*
Y237409D01*
D02*
G37*
G36*
X381819D02*
X379063D01*
Y241150D01*
X381819D01*
Y237409D01*
D02*
G37*
G36*
X375520D02*
X372764D01*
Y241150D01*
X375520D01*
Y237409D01*
D02*
G37*
G36*
X370402D02*
X367646D01*
Y241150D01*
X370402D01*
Y237409D01*
D02*
G37*
G36*
X405953Y236032D02*
X404260D01*
Y237213D01*
X405953D01*
Y236032D01*
D02*
G37*
G36*
X403866D02*
X402173D01*
Y237213D01*
X403866D01*
Y236032D01*
D02*
G37*
G36*
X363827D02*
X362134D01*
Y237213D01*
X363827D01*
Y236032D01*
D02*
G37*
G36*
X361740D02*
X360047D01*
Y237213D01*
X361740D01*
Y236032D01*
D02*
G37*
G36*
X405953Y234457D02*
X404260D01*
Y235638D01*
X405953D01*
Y234457D01*
D02*
G37*
G36*
X403866D02*
X402173D01*
Y235638D01*
X403866D01*
Y234457D01*
D02*
G37*
G36*
X363827D02*
X362134D01*
Y235638D01*
X363827D01*
Y234457D01*
D02*
G37*
G36*
X361740D02*
X360047D01*
Y235638D01*
X361740D01*
Y234457D01*
D02*
G37*
G36*
X416874Y235531D02*
X416929Y235528D01*
X416984Y235516D01*
X417039Y235504D01*
X417095Y235488D01*
X417150Y235469D01*
X417201Y235445D01*
X417252Y235421D01*
X417299Y235394D01*
X417350Y235366D01*
X417398Y235331D01*
X417441Y235299D01*
X417484Y235260D01*
X417524Y235221D01*
X417563Y235181D01*
X417602Y235138D01*
X417634Y235094D01*
X417669Y235047D01*
X417697Y234996D01*
X417724Y234949D01*
X417748Y234898D01*
X417772Y234846D01*
X417791Y234791D01*
X417807Y234736D01*
X417819Y234681D01*
X417831Y234626D01*
X417835Y234571D01*
X417842Y234512D01*
Y234457D01*
Y234402D01*
X417835Y234343D01*
X417831Y234287D01*
X417819Y234232D01*
X417807Y234177D01*
X417791Y234122D01*
X417772Y234067D01*
X417748Y234016D01*
X417724Y233965D01*
X417697Y233917D01*
X417669Y233866D01*
X417634Y233819D01*
X417602Y233776D01*
X417563Y233732D01*
X417524Y233693D01*
X417484Y233653D01*
X417441Y233614D01*
X417398Y233583D01*
X417350Y233547D01*
X417299Y233520D01*
X417252Y233492D01*
X417201Y233469D01*
X417150Y233445D01*
X417095Y233425D01*
X417039Y233410D01*
X416984Y233398D01*
X416929Y233386D01*
X416874Y233382D01*
X416815Y233374D01*
X411784D01*
X411724Y233382D01*
X411669Y233386D01*
X411614Y233398D01*
X411559Y233410D01*
X411504Y233425D01*
X411449Y233445D01*
X411398Y233469D01*
X411346Y233492D01*
X411299Y233520D01*
X411248Y233547D01*
X411201Y233583D01*
X411158Y233614D01*
X411114Y233653D01*
X411075Y233693D01*
X411035Y233732D01*
X410996Y233776D01*
X410965Y233819D01*
X410929Y233866D01*
X410902Y233917D01*
X410874Y233965D01*
X410850Y234016D01*
X410827Y234067D01*
X410807Y234122D01*
X410791Y234177D01*
X410779Y234232D01*
X410768Y234287D01*
X410764Y234343D01*
X410756Y234402D01*
Y234457D01*
Y234512D01*
X410764Y234571D01*
X410768Y234626D01*
X410779Y234681D01*
X410791Y234736D01*
X410807Y234791D01*
X410827Y234846D01*
X410850Y234898D01*
X410874Y234949D01*
X410902Y234996D01*
X410929Y235047D01*
X410965Y235094D01*
X410996Y235138D01*
X411035Y235181D01*
X411075Y235221D01*
X411114Y235260D01*
X411158Y235299D01*
X411201Y235331D01*
X411248Y235366D01*
X411299Y235394D01*
X411346Y235421D01*
X411398Y235445D01*
X411449Y235469D01*
X411504Y235488D01*
X411559Y235504D01*
X411614Y235516D01*
X411669Y235528D01*
X411724Y235531D01*
X411784Y235539D01*
X416815D01*
X416874Y235531D01*
D02*
G37*
G36*
X354276D02*
X354331Y235528D01*
X354386Y235516D01*
X354441Y235504D01*
X354496Y235488D01*
X354551Y235469D01*
X354602Y235445D01*
X354654Y235421D01*
X354701Y235394D01*
X354752Y235366D01*
X354799Y235331D01*
X354842Y235299D01*
X354886Y235260D01*
X354925Y235221D01*
X354965Y235181D01*
X355004Y235138D01*
X355035Y235094D01*
X355071Y235047D01*
X355098Y234996D01*
X355126Y234949D01*
X355150Y234898D01*
X355173Y234846D01*
X355193Y234791D01*
X355209Y234736D01*
X355221Y234681D01*
X355232Y234626D01*
X355236Y234571D01*
X355244Y234512D01*
Y234457D01*
Y234402D01*
X355236Y234343D01*
X355232Y234287D01*
X355221Y234232D01*
X355209Y234177D01*
X355193Y234122D01*
X355173Y234067D01*
X355150Y234016D01*
X355126Y233965D01*
X355098Y233917D01*
X355071Y233866D01*
X355035Y233819D01*
X355004Y233776D01*
X354965Y233732D01*
X354925Y233693D01*
X354886Y233653D01*
X354842Y233614D01*
X354799Y233583D01*
X354752Y233547D01*
X354701Y233520D01*
X354654Y233492D01*
X354602Y233469D01*
X354551Y233445D01*
X354496Y233425D01*
X354441Y233410D01*
X354386Y233398D01*
X354331Y233386D01*
X354276Y233382D01*
X354217Y233374D01*
X349185D01*
X349126Y233382D01*
X349071Y233386D01*
X349016Y233398D01*
X348961Y233410D01*
X348905Y233425D01*
X348850Y233445D01*
X348799Y233469D01*
X348748Y233492D01*
X348701Y233520D01*
X348650Y233547D01*
X348602Y233583D01*
X348559Y233614D01*
X348516Y233653D01*
X348476Y233693D01*
X348437Y233732D01*
X348398Y233776D01*
X348366Y233819D01*
X348331Y233866D01*
X348303Y233917D01*
X348276Y233965D01*
X348252Y234016D01*
X348228Y234067D01*
X348209Y234122D01*
X348193Y234177D01*
X348181Y234232D01*
X348169Y234287D01*
X348165Y234343D01*
X348158Y234402D01*
Y234457D01*
Y234512D01*
X348165Y234571D01*
X348169Y234626D01*
X348181Y234681D01*
X348193Y234736D01*
X348209Y234791D01*
X348228Y234846D01*
X348252Y234898D01*
X348276Y234949D01*
X348303Y234996D01*
X348331Y235047D01*
X348366Y235094D01*
X348398Y235138D01*
X348437Y235181D01*
X348476Y235221D01*
X348516Y235260D01*
X348559Y235299D01*
X348602Y235331D01*
X348650Y235366D01*
X348701Y235394D01*
X348748Y235421D01*
X348799Y235445D01*
X348850Y235469D01*
X348905Y235488D01*
X348961Y235504D01*
X349016Y235516D01*
X349071Y235528D01*
X349126Y235531D01*
X349185Y235539D01*
X354217D01*
X354276Y235531D01*
D02*
G37*
G36*
X398354Y231307D02*
X395598D01*
Y235047D01*
X398354D01*
Y231307D01*
D02*
G37*
G36*
X393236D02*
X390480D01*
Y235047D01*
X393236D01*
Y231307D01*
D02*
G37*
G36*
X386937D02*
X384181D01*
Y235047D01*
X386937D01*
Y231307D01*
D02*
G37*
G36*
X381819D02*
X379063D01*
Y235047D01*
X381819D01*
Y231307D01*
D02*
G37*
G36*
X375520D02*
X372764D01*
Y235047D01*
X375520D01*
Y231307D01*
D02*
G37*
G36*
X370402D02*
X367646D01*
Y235047D01*
X370402D01*
Y231307D01*
D02*
G37*
G36*
X405953Y230520D02*
X404260D01*
Y231701D01*
X405953D01*
Y230520D01*
D02*
G37*
G36*
X403866D02*
X402173D01*
Y231701D01*
X403866D01*
Y230520D01*
D02*
G37*
G36*
X363827D02*
X362134D01*
Y231701D01*
X363827D01*
Y230520D01*
D02*
G37*
G36*
X361740D02*
X360047D01*
Y231701D01*
X361740D01*
Y230520D01*
D02*
G37*
G36*
X416874Y231201D02*
X416929Y231197D01*
X416984Y231185D01*
X417039Y231173D01*
X417095Y231157D01*
X417150Y231138D01*
X417201Y231114D01*
X417252Y231090D01*
X417299Y231063D01*
X417350Y231035D01*
X417398Y231000D01*
X417441Y230968D01*
X417484Y230929D01*
X417524Y230890D01*
X417563Y230850D01*
X417602Y230807D01*
X417634Y230764D01*
X417669Y230716D01*
X417697Y230665D01*
X417724Y230618D01*
X417748Y230567D01*
X417772Y230516D01*
X417791Y230461D01*
X417807Y230405D01*
X417819Y230350D01*
X417831Y230295D01*
X417835Y230240D01*
X417842Y230181D01*
Y230126D01*
Y230071D01*
X417835Y230012D01*
X417831Y229957D01*
X417819Y229902D01*
X417807Y229847D01*
X417791Y229791D01*
X417772Y229736D01*
X417748Y229685D01*
X417724Y229634D01*
X417697Y229583D01*
X417669Y229535D01*
X417634Y229488D01*
X417602Y229445D01*
X417563Y229402D01*
X417524Y229362D01*
X417484Y229323D01*
X417441Y229283D01*
X417398Y229252D01*
X417350Y229217D01*
X417299Y229189D01*
X417252Y229161D01*
X417201Y229138D01*
X417150Y229114D01*
X417095Y229095D01*
X417039Y229079D01*
X416984Y229067D01*
X416929Y229055D01*
X416874Y229051D01*
X416815Y229043D01*
X411784D01*
X411724Y229051D01*
X411669Y229055D01*
X411614Y229067D01*
X411559Y229079D01*
X411504Y229095D01*
X411449Y229114D01*
X411398Y229138D01*
X411346Y229161D01*
X411299Y229189D01*
X411248Y229217D01*
X411201Y229252D01*
X411158Y229283D01*
X411114Y229323D01*
X411075Y229362D01*
X411035Y229402D01*
X410996Y229445D01*
X410965Y229488D01*
X410929Y229535D01*
X410902Y229583D01*
X410874Y229634D01*
X410850Y229685D01*
X410827Y229736D01*
X410807Y229791D01*
X410791Y229847D01*
X410779Y229902D01*
X410768Y229957D01*
X410764Y230012D01*
X410756Y230071D01*
Y230126D01*
Y230181D01*
X410764Y230240D01*
X410768Y230295D01*
X410779Y230350D01*
X410791Y230405D01*
X410807Y230461D01*
X410827Y230516D01*
X410850Y230567D01*
X410874Y230618D01*
X410902Y230665D01*
X410929Y230716D01*
X410965Y230764D01*
X410996Y230807D01*
X411035Y230850D01*
X411075Y230890D01*
X411114Y230929D01*
X411158Y230968D01*
X411201Y231000D01*
X411248Y231035D01*
X411299Y231063D01*
X411346Y231090D01*
X411398Y231114D01*
X411449Y231138D01*
X411504Y231157D01*
X411559Y231173D01*
X411614Y231185D01*
X411669Y231197D01*
X411724Y231201D01*
X411784Y231209D01*
X416815D01*
X416874Y231201D01*
D02*
G37*
G36*
X354276D02*
X354331Y231197D01*
X354386Y231185D01*
X354441Y231173D01*
X354496Y231157D01*
X354551Y231138D01*
X354602Y231114D01*
X354654Y231090D01*
X354701Y231063D01*
X354752Y231035D01*
X354799Y231000D01*
X354842Y230968D01*
X354886Y230929D01*
X354925Y230890D01*
X354965Y230850D01*
X355004Y230807D01*
X355035Y230764D01*
X355071Y230716D01*
X355098Y230665D01*
X355126Y230618D01*
X355150Y230567D01*
X355173Y230516D01*
X355193Y230461D01*
X355209Y230405D01*
X355221Y230350D01*
X355232Y230295D01*
X355236Y230240D01*
X355244Y230181D01*
Y230126D01*
Y230071D01*
X355236Y230012D01*
X355232Y229957D01*
X355221Y229902D01*
X355209Y229847D01*
X355193Y229791D01*
X355173Y229736D01*
X355150Y229685D01*
X355126Y229634D01*
X355098Y229583D01*
X355071Y229535D01*
X355035Y229488D01*
X355004Y229445D01*
X354965Y229402D01*
X354925Y229362D01*
X354886Y229323D01*
X354842Y229283D01*
X354799Y229252D01*
X354752Y229217D01*
X354701Y229189D01*
X354654Y229161D01*
X354602Y229138D01*
X354551Y229114D01*
X354496Y229095D01*
X354441Y229079D01*
X354386Y229067D01*
X354331Y229055D01*
X354276Y229051D01*
X354217Y229043D01*
X349185D01*
X349126Y229051D01*
X349071Y229055D01*
X349016Y229067D01*
X348961Y229079D01*
X348905Y229095D01*
X348850Y229114D01*
X348799Y229138D01*
X348748Y229161D01*
X348701Y229189D01*
X348650Y229217D01*
X348602Y229252D01*
X348559Y229283D01*
X348516Y229323D01*
X348476Y229362D01*
X348437Y229402D01*
X348398Y229445D01*
X348366Y229488D01*
X348331Y229535D01*
X348303Y229583D01*
X348276Y229634D01*
X348252Y229685D01*
X348228Y229736D01*
X348209Y229791D01*
X348193Y229847D01*
X348181Y229902D01*
X348169Y229957D01*
X348165Y230012D01*
X348158Y230071D01*
Y230126D01*
Y230181D01*
X348165Y230240D01*
X348169Y230295D01*
X348181Y230350D01*
X348193Y230405D01*
X348209Y230461D01*
X348228Y230516D01*
X348252Y230567D01*
X348276Y230618D01*
X348303Y230665D01*
X348331Y230716D01*
X348366Y230764D01*
X348398Y230807D01*
X348437Y230850D01*
X348476Y230890D01*
X348516Y230929D01*
X348559Y230968D01*
X348602Y231000D01*
X348650Y231035D01*
X348701Y231063D01*
X348748Y231090D01*
X348799Y231114D01*
X348850Y231138D01*
X348905Y231157D01*
X348961Y231173D01*
X349016Y231185D01*
X349071Y231197D01*
X349126Y231201D01*
X349185Y231209D01*
X354217D01*
X354276Y231201D01*
D02*
G37*
G36*
X405953Y228945D02*
X404260D01*
Y230126D01*
X405953D01*
Y228945D01*
D02*
G37*
G36*
X403866D02*
X402173D01*
Y230126D01*
X403866D01*
Y228945D01*
D02*
G37*
G36*
X363827D02*
X362134D01*
Y230126D01*
X363827D01*
Y228945D01*
D02*
G37*
G36*
X361740D02*
X360047D01*
Y230126D01*
X361740D01*
Y228945D01*
D02*
G37*
G36*
X400913Y225008D02*
X399732D01*
Y226701D01*
X400913D01*
Y225008D01*
D02*
G37*
G36*
X399339D02*
X398158D01*
Y226701D01*
X399339D01*
Y225008D01*
D02*
G37*
G36*
X395402D02*
X394220D01*
Y226701D01*
X395402D01*
Y225008D01*
D02*
G37*
G36*
X393827D02*
X392646D01*
Y226701D01*
X393827D01*
Y225008D01*
D02*
G37*
G36*
X389890D02*
X388709D01*
Y226701D01*
X389890D01*
Y225008D01*
D02*
G37*
G36*
X388315D02*
X387134D01*
Y226701D01*
X388315D01*
Y225008D01*
D02*
G37*
G36*
X384378D02*
X383197D01*
Y226701D01*
X384378D01*
Y225008D01*
D02*
G37*
G36*
X382803D02*
X381622D01*
Y226701D01*
X382803D01*
Y225008D01*
D02*
G37*
G36*
X378866D02*
X377685D01*
Y226701D01*
X378866D01*
Y225008D01*
D02*
G37*
G36*
X377291D02*
X376110D01*
Y226701D01*
X377291D01*
Y225008D01*
D02*
G37*
G36*
X373354D02*
X372173D01*
Y226701D01*
X373354D01*
Y225008D01*
D02*
G37*
G36*
X371779D02*
X370598D01*
Y226701D01*
X371779D01*
Y225008D01*
D02*
G37*
G36*
X367843D02*
X366661D01*
Y226701D01*
X367843D01*
Y225008D01*
D02*
G37*
G36*
X366268D02*
X365087D01*
Y226701D01*
X366268D01*
Y225008D01*
D02*
G37*
G36*
X416874Y226870D02*
X416929Y226866D01*
X416984Y226854D01*
X417039Y226842D01*
X417095Y226827D01*
X417150Y226807D01*
X417201Y226783D01*
X417252Y226760D01*
X417299Y226732D01*
X417350Y226705D01*
X417398Y226669D01*
X417441Y226638D01*
X417484Y226598D01*
X417524Y226559D01*
X417563Y226520D01*
X417602Y226476D01*
X417634Y226433D01*
X417669Y226386D01*
X417697Y226339D01*
X417724Y226287D01*
X417748Y226236D01*
X417772Y226185D01*
X417791Y226130D01*
X417807Y226075D01*
X417819Y226020D01*
X417831Y225965D01*
X417835Y225909D01*
X417842Y225850D01*
Y225795D01*
Y225740D01*
X417835Y225681D01*
X417831Y225626D01*
X417819Y225571D01*
X417807Y225516D01*
X417791Y225461D01*
X417772Y225406D01*
X417748Y225354D01*
X417724Y225303D01*
X417697Y225252D01*
X417669Y225205D01*
X417634Y225157D01*
X417602Y225114D01*
X417563Y225071D01*
X417524Y225031D01*
X417484Y224992D01*
X417441Y224953D01*
X417398Y224921D01*
X417350Y224886D01*
X417299Y224858D01*
X417252Y224831D01*
X417201Y224807D01*
X417150Y224783D01*
X417095Y224764D01*
X417039Y224748D01*
X416984Y224736D01*
X416929Y224724D01*
X416874Y224721D01*
X416815Y224713D01*
X411784D01*
X411724Y224721D01*
X411669Y224724D01*
X411614Y224736D01*
X411559Y224748D01*
X411504Y224764D01*
X411449Y224783D01*
X411398Y224807D01*
X411346Y224831D01*
X411299Y224858D01*
X411248Y224886D01*
X411201Y224921D01*
X411158Y224953D01*
X411114Y224992D01*
X411075Y225031D01*
X411035Y225071D01*
X410996Y225114D01*
X410965Y225157D01*
X410929Y225205D01*
X410902Y225252D01*
X410874Y225303D01*
X410850Y225354D01*
X410827Y225406D01*
X410807Y225461D01*
X410791Y225516D01*
X410779Y225571D01*
X410768Y225626D01*
X410764Y225681D01*
X410756Y225740D01*
Y225795D01*
Y225850D01*
X410764Y225909D01*
X410768Y225965D01*
X410779Y226020D01*
X410791Y226075D01*
X410807Y226130D01*
X410827Y226185D01*
X410850Y226236D01*
X410874Y226287D01*
X410902Y226339D01*
X410929Y226386D01*
X410965Y226433D01*
X410996Y226476D01*
X411035Y226520D01*
X411075Y226559D01*
X411114Y226598D01*
X411158Y226638D01*
X411201Y226669D01*
X411248Y226705D01*
X411299Y226732D01*
X411346Y226760D01*
X411398Y226783D01*
X411449Y226807D01*
X411504Y226827D01*
X411559Y226842D01*
X411614Y226854D01*
X411669Y226866D01*
X411724Y226870D01*
X411784Y226878D01*
X416815D01*
X416874Y226870D01*
D02*
G37*
G36*
X354276D02*
X354331Y226866D01*
X354386Y226854D01*
X354441Y226842D01*
X354496Y226827D01*
X354551Y226807D01*
X354602Y226783D01*
X354654Y226760D01*
X354701Y226732D01*
X354752Y226705D01*
X354799Y226669D01*
X354842Y226638D01*
X354886Y226598D01*
X354925Y226559D01*
X354965Y226520D01*
X355004Y226476D01*
X355035Y226433D01*
X355071Y226386D01*
X355098Y226339D01*
X355126Y226287D01*
X355150Y226236D01*
X355173Y226185D01*
X355193Y226130D01*
X355209Y226075D01*
X355221Y226020D01*
X355232Y225965D01*
X355236Y225909D01*
X355244Y225850D01*
Y225795D01*
Y225740D01*
X355236Y225681D01*
X355232Y225626D01*
X355221Y225571D01*
X355209Y225516D01*
X355193Y225461D01*
X355173Y225406D01*
X355150Y225354D01*
X355126Y225303D01*
X355098Y225252D01*
X355071Y225205D01*
X355035Y225157D01*
X355004Y225114D01*
X354965Y225071D01*
X354925Y225031D01*
X354886Y224992D01*
X354842Y224953D01*
X354799Y224921D01*
X354752Y224886D01*
X354701Y224858D01*
X354654Y224831D01*
X354602Y224807D01*
X354551Y224783D01*
X354496Y224764D01*
X354441Y224748D01*
X354386Y224736D01*
X354331Y224724D01*
X354276Y224721D01*
X354217Y224713D01*
X349185D01*
X349126Y224721D01*
X349071Y224724D01*
X349016Y224736D01*
X348961Y224748D01*
X348905Y224764D01*
X348850Y224783D01*
X348799Y224807D01*
X348748Y224831D01*
X348701Y224858D01*
X348650Y224886D01*
X348602Y224921D01*
X348559Y224953D01*
X348516Y224992D01*
X348476Y225031D01*
X348437Y225071D01*
X348398Y225114D01*
X348366Y225157D01*
X348331Y225205D01*
X348303Y225252D01*
X348276Y225303D01*
X348252Y225354D01*
X348228Y225406D01*
X348209Y225461D01*
X348193Y225516D01*
X348181Y225571D01*
X348169Y225626D01*
X348165Y225681D01*
X348158Y225740D01*
Y225795D01*
Y225850D01*
X348165Y225909D01*
X348169Y225965D01*
X348181Y226020D01*
X348193Y226075D01*
X348209Y226130D01*
X348228Y226185D01*
X348252Y226236D01*
X348276Y226287D01*
X348303Y226339D01*
X348331Y226386D01*
X348366Y226433D01*
X348398Y226476D01*
X348437Y226520D01*
X348476Y226559D01*
X348516Y226598D01*
X348559Y226638D01*
X348602Y226669D01*
X348650Y226705D01*
X348701Y226732D01*
X348748Y226760D01*
X348799Y226783D01*
X348850Y226807D01*
X348905Y226827D01*
X348961Y226842D01*
X349016Y226854D01*
X349071Y226866D01*
X349126Y226870D01*
X349185Y226878D01*
X354217D01*
X354276Y226870D01*
D02*
G37*
G36*
X400913Y222921D02*
X399732D01*
Y224614D01*
X400913D01*
Y222921D01*
D02*
G37*
G36*
X399339D02*
X398158D01*
Y224614D01*
X399339D01*
Y222921D01*
D02*
G37*
G36*
X395402D02*
X394220D01*
Y224614D01*
X395402D01*
Y222921D01*
D02*
G37*
G36*
X393827D02*
X392646D01*
Y224614D01*
X393827D01*
Y222921D01*
D02*
G37*
G36*
X389890D02*
X388709D01*
Y224614D01*
X389890D01*
Y222921D01*
D02*
G37*
G36*
X388315D02*
X387134D01*
Y224614D01*
X388315D01*
Y222921D01*
D02*
G37*
G36*
X384378D02*
X383197D01*
Y224614D01*
X384378D01*
Y222921D01*
D02*
G37*
G36*
X382803D02*
X381622D01*
Y224614D01*
X382803D01*
Y222921D01*
D02*
G37*
G36*
X378866D02*
X377685D01*
Y224614D01*
X378866D01*
Y222921D01*
D02*
G37*
G36*
X377291D02*
X376110D01*
Y224614D01*
X377291D01*
Y222921D01*
D02*
G37*
G36*
X373354D02*
X372173D01*
Y224614D01*
X373354D01*
Y222921D01*
D02*
G37*
G36*
X371779D02*
X370598D01*
Y224614D01*
X371779D01*
Y222921D01*
D02*
G37*
G36*
X367843D02*
X366661D01*
Y224614D01*
X367843D01*
Y222921D01*
D02*
G37*
G36*
X366268D02*
X365087D01*
Y224614D01*
X366268D01*
Y222921D01*
D02*
G37*
G36*
X400437Y218110D02*
X400492Y218106D01*
X400547Y218094D01*
X400602Y218083D01*
X400658Y218067D01*
X400713Y218047D01*
X400764Y218024D01*
X400815Y218000D01*
X400862Y217972D01*
X400913Y217945D01*
X400961Y217910D01*
X401004Y217878D01*
X401047Y217839D01*
X401087Y217799D01*
X401126Y217760D01*
X401165Y217717D01*
X401197Y217673D01*
X401232Y217626D01*
X401260Y217579D01*
X401287Y217528D01*
X401311Y217476D01*
X401335Y217425D01*
X401354Y217370D01*
X401370Y217315D01*
X401382Y217260D01*
X401394Y217205D01*
X401398Y217150D01*
X401405Y217091D01*
Y217035D01*
Y212114D01*
Y212059D01*
X401398Y212000D01*
X401394Y211945D01*
X401382Y211890D01*
X401370Y211835D01*
X401354Y211779D01*
X401335Y211724D01*
X401311Y211673D01*
X401287Y211622D01*
X401260Y211571D01*
X401232Y211524D01*
X401197Y211476D01*
X401165Y211433D01*
X401126Y211390D01*
X401087Y211350D01*
X401047Y211311D01*
X401004Y211272D01*
X400961Y211240D01*
X400913Y211205D01*
X400862Y211177D01*
X400815Y211150D01*
X400764Y211126D01*
X400713Y211102D01*
X400658Y211083D01*
X400602Y211067D01*
X400547Y211055D01*
X400492Y211043D01*
X400437Y211039D01*
X400378Y211032D01*
X400268D01*
X400209Y211039D01*
X400153Y211043D01*
X400098Y211055D01*
X400043Y211067D01*
X399988Y211083D01*
X399933Y211102D01*
X399882Y211126D01*
X399831Y211150D01*
X399783Y211177D01*
X399732Y211205D01*
X399685Y211240D01*
X399642Y211272D01*
X399598Y211311D01*
X399559Y211350D01*
X399520Y211390D01*
X399480Y211433D01*
X399449Y211476D01*
X399413Y211524D01*
X399386Y211571D01*
X399358Y211622D01*
X399335Y211673D01*
X399311Y211724D01*
X399291Y211779D01*
X399276Y211835D01*
X399264Y211890D01*
X399252Y211945D01*
X399248Y212000D01*
X399240Y212059D01*
Y212114D01*
Y217035D01*
Y217091D01*
X399248Y217150D01*
X399252Y217205D01*
X399264Y217260D01*
X399276Y217315D01*
X399291Y217370D01*
X399311Y217425D01*
X399335Y217476D01*
X399358Y217528D01*
X399386Y217579D01*
X399413Y217626D01*
X399449Y217673D01*
X399480Y217717D01*
X399520Y217760D01*
X399559Y217799D01*
X399598Y217839D01*
X399642Y217878D01*
X399685Y217910D01*
X399732Y217945D01*
X399783Y217972D01*
X399831Y218000D01*
X399882Y218024D01*
X399933Y218047D01*
X399988Y218067D01*
X400043Y218083D01*
X400098Y218094D01*
X400153Y218106D01*
X400209Y218110D01*
X400268Y218118D01*
X400378D01*
X400437Y218110D01*
D02*
G37*
G36*
X396106D02*
X396161Y218106D01*
X396217Y218094D01*
X396272Y218083D01*
X396327Y218067D01*
X396382Y218047D01*
X396433Y218024D01*
X396484Y218000D01*
X396535Y217972D01*
X396583Y217945D01*
X396630Y217910D01*
X396673Y217878D01*
X396716Y217839D01*
X396756Y217799D01*
X396795Y217760D01*
X396835Y217717D01*
X396866Y217673D01*
X396902Y217626D01*
X396929Y217579D01*
X396957Y217528D01*
X396980Y217476D01*
X397004Y217425D01*
X397024Y217370D01*
X397039Y217315D01*
X397051Y217260D01*
X397063Y217205D01*
X397067Y217150D01*
X397075Y217091D01*
Y217035D01*
Y212114D01*
Y212059D01*
X397067Y212000D01*
X397063Y211945D01*
X397051Y211890D01*
X397039Y211835D01*
X397024Y211779D01*
X397004Y211724D01*
X396980Y211673D01*
X396957Y211622D01*
X396929Y211571D01*
X396902Y211524D01*
X396866Y211476D01*
X396835Y211433D01*
X396795Y211390D01*
X396756Y211350D01*
X396716Y211311D01*
X396673Y211272D01*
X396630Y211240D01*
X396583Y211205D01*
X396535Y211177D01*
X396484Y211150D01*
X396433Y211126D01*
X396382Y211102D01*
X396327Y211083D01*
X396272Y211067D01*
X396217Y211055D01*
X396161Y211043D01*
X396106Y211039D01*
X396047Y211032D01*
X395937D01*
X395878Y211039D01*
X395823Y211043D01*
X395768Y211055D01*
X395713Y211067D01*
X395657Y211083D01*
X395602Y211102D01*
X395551Y211126D01*
X395500Y211150D01*
X395449Y211177D01*
X395402Y211205D01*
X395354Y211240D01*
X395311Y211272D01*
X395268Y211311D01*
X395228Y211350D01*
X395189Y211390D01*
X395150Y211433D01*
X395118Y211476D01*
X395083Y211524D01*
X395055Y211571D01*
X395028Y211622D01*
X395004Y211673D01*
X394980Y211724D01*
X394961Y211779D01*
X394945Y211835D01*
X394933Y211890D01*
X394921Y211945D01*
X394917Y212000D01*
X394910Y212059D01*
Y212114D01*
Y217035D01*
Y217091D01*
X394917Y217150D01*
X394921Y217205D01*
X394933Y217260D01*
X394945Y217315D01*
X394961Y217370D01*
X394980Y217425D01*
X395004Y217476D01*
X395028Y217528D01*
X395055Y217579D01*
X395083Y217626D01*
X395118Y217673D01*
X395150Y217717D01*
X395189Y217760D01*
X395228Y217799D01*
X395268Y217839D01*
X395311Y217878D01*
X395354Y217910D01*
X395402Y217945D01*
X395449Y217972D01*
X395500Y218000D01*
X395551Y218024D01*
X395602Y218047D01*
X395657Y218067D01*
X395713Y218083D01*
X395768Y218094D01*
X395823Y218106D01*
X395878Y218110D01*
X395937Y218118D01*
X396047D01*
X396106Y218110D01*
D02*
G37*
G36*
X391776D02*
X391831Y218106D01*
X391886Y218094D01*
X391941Y218083D01*
X391996Y218067D01*
X392051Y218047D01*
X392102Y218024D01*
X392154Y218000D01*
X392205Y217972D01*
X392252Y217945D01*
X392299Y217910D01*
X392342Y217878D01*
X392386Y217839D01*
X392425Y217799D01*
X392465Y217760D01*
X392504Y217717D01*
X392535Y217673D01*
X392571Y217626D01*
X392598Y217579D01*
X392626Y217528D01*
X392650Y217476D01*
X392673Y217425D01*
X392693Y217370D01*
X392709Y217315D01*
X392721Y217260D01*
X392732Y217205D01*
X392736Y217150D01*
X392744Y217091D01*
Y217035D01*
Y212114D01*
Y212059D01*
X392736Y212000D01*
X392732Y211945D01*
X392721Y211890D01*
X392709Y211835D01*
X392693Y211779D01*
X392673Y211724D01*
X392650Y211673D01*
X392626Y211622D01*
X392598Y211571D01*
X392571Y211524D01*
X392535Y211476D01*
X392504Y211433D01*
X392465Y211390D01*
X392425Y211350D01*
X392386Y211311D01*
X392342Y211272D01*
X392299Y211240D01*
X392252Y211205D01*
X392205Y211177D01*
X392154Y211150D01*
X392102Y211126D01*
X392051Y211102D01*
X391996Y211083D01*
X391941Y211067D01*
X391886Y211055D01*
X391831Y211043D01*
X391776Y211039D01*
X391717Y211032D01*
X391606D01*
X391547Y211039D01*
X391492Y211043D01*
X391437Y211055D01*
X391382Y211067D01*
X391327Y211083D01*
X391272Y211102D01*
X391220Y211126D01*
X391169Y211150D01*
X391122Y211177D01*
X391071Y211205D01*
X391024Y211240D01*
X390980Y211272D01*
X390937Y211311D01*
X390898Y211350D01*
X390858Y211390D01*
X390819Y211433D01*
X390787Y211476D01*
X390752Y211524D01*
X390724Y211571D01*
X390697Y211622D01*
X390673Y211673D01*
X390650Y211724D01*
X390630Y211779D01*
X390614Y211835D01*
X390602Y211890D01*
X390591Y211945D01*
X390587Y212000D01*
X390579Y212059D01*
Y212114D01*
Y217035D01*
Y217091D01*
X390587Y217150D01*
X390591Y217205D01*
X390602Y217260D01*
X390614Y217315D01*
X390630Y217370D01*
X390650Y217425D01*
X390673Y217476D01*
X390697Y217528D01*
X390724Y217579D01*
X390752Y217626D01*
X390787Y217673D01*
X390819Y217717D01*
X390858Y217760D01*
X390898Y217799D01*
X390937Y217839D01*
X390980Y217878D01*
X391024Y217910D01*
X391071Y217945D01*
X391122Y217972D01*
X391169Y218000D01*
X391220Y218024D01*
X391272Y218047D01*
X391327Y218067D01*
X391382Y218083D01*
X391437Y218094D01*
X391492Y218106D01*
X391547Y218110D01*
X391606Y218118D01*
X391717D01*
X391776Y218110D01*
D02*
G37*
G36*
X387445D02*
X387500Y218106D01*
X387555Y218094D01*
X387610Y218083D01*
X387665Y218067D01*
X387720Y218047D01*
X387772Y218024D01*
X387823Y218000D01*
X387874Y217972D01*
X387921Y217945D01*
X387968Y217910D01*
X388012Y217878D01*
X388055Y217839D01*
X388094Y217799D01*
X388134Y217760D01*
X388173Y217717D01*
X388205Y217673D01*
X388240Y217626D01*
X388268Y217579D01*
X388295Y217528D01*
X388319Y217476D01*
X388342Y217425D01*
X388362Y217370D01*
X388378Y217315D01*
X388390Y217260D01*
X388402Y217205D01*
X388405Y217150D01*
X388413Y217091D01*
Y217035D01*
Y212114D01*
Y212059D01*
X388405Y212000D01*
X388402Y211945D01*
X388390Y211890D01*
X388378Y211835D01*
X388362Y211779D01*
X388342Y211724D01*
X388319Y211673D01*
X388295Y211622D01*
X388268Y211571D01*
X388240Y211524D01*
X388205Y211476D01*
X388173Y211433D01*
X388134Y211390D01*
X388094Y211350D01*
X388055Y211311D01*
X388012Y211272D01*
X387968Y211240D01*
X387921Y211205D01*
X387874Y211177D01*
X387823Y211150D01*
X387772Y211126D01*
X387720Y211102D01*
X387665Y211083D01*
X387610Y211067D01*
X387555Y211055D01*
X387500Y211043D01*
X387445Y211039D01*
X387386Y211032D01*
X387276D01*
X387216Y211039D01*
X387161Y211043D01*
X387106Y211055D01*
X387051Y211067D01*
X386996Y211083D01*
X386941Y211102D01*
X386890Y211126D01*
X386839Y211150D01*
X386787Y211177D01*
X386740Y211205D01*
X386693Y211240D01*
X386650Y211272D01*
X386606Y211311D01*
X386567Y211350D01*
X386528Y211390D01*
X386488Y211433D01*
X386457Y211476D01*
X386421Y211524D01*
X386394Y211571D01*
X386366Y211622D01*
X386343Y211673D01*
X386319Y211724D01*
X386299Y211779D01*
X386283Y211835D01*
X386272Y211890D01*
X386260Y211945D01*
X386256Y212000D01*
X386248Y212059D01*
Y212114D01*
Y217035D01*
Y217091D01*
X386256Y217150D01*
X386260Y217205D01*
X386272Y217260D01*
X386283Y217315D01*
X386299Y217370D01*
X386319Y217425D01*
X386343Y217476D01*
X386366Y217528D01*
X386394Y217579D01*
X386421Y217626D01*
X386457Y217673D01*
X386488Y217717D01*
X386528Y217760D01*
X386567Y217799D01*
X386606Y217839D01*
X386650Y217878D01*
X386693Y217910D01*
X386740Y217945D01*
X386791Y217972D01*
X386839Y218000D01*
X386890Y218024D01*
X386941Y218047D01*
X386996Y218067D01*
X387051Y218083D01*
X387106Y218094D01*
X387161Y218106D01*
X387216Y218110D01*
X387276Y218118D01*
X387386D01*
X387445Y218110D01*
D02*
G37*
G36*
X383114D02*
X383169Y218106D01*
X383224Y218094D01*
X383279Y218083D01*
X383335Y218067D01*
X383390Y218047D01*
X383441Y218024D01*
X383492Y218000D01*
X383539Y217972D01*
X383591Y217945D01*
X383638Y217910D01*
X383681Y217878D01*
X383724Y217839D01*
X383764Y217799D01*
X383803Y217760D01*
X383842Y217717D01*
X383874Y217673D01*
X383910Y217626D01*
X383937Y217579D01*
X383965Y217528D01*
X383988Y217476D01*
X384012Y217425D01*
X384032Y217370D01*
X384047Y217315D01*
X384059Y217260D01*
X384071Y217205D01*
X384075Y217150D01*
X384083Y217091D01*
Y217035D01*
Y212114D01*
Y212059D01*
X384075Y212000D01*
X384071Y211945D01*
X384059Y211890D01*
X384047Y211835D01*
X384032Y211779D01*
X384012Y211724D01*
X383988Y211673D01*
X383965Y211622D01*
X383937Y211571D01*
X383910Y211524D01*
X383874Y211476D01*
X383842Y211433D01*
X383803Y211390D01*
X383764Y211350D01*
X383724Y211311D01*
X383681Y211272D01*
X383638Y211240D01*
X383591Y211205D01*
X383539Y211177D01*
X383492Y211150D01*
X383441Y211126D01*
X383390Y211102D01*
X383335Y211083D01*
X383279Y211067D01*
X383224Y211055D01*
X383169Y211043D01*
X383114Y211039D01*
X383055Y211032D01*
X382945D01*
X382886Y211039D01*
X382831Y211043D01*
X382776Y211055D01*
X382720Y211067D01*
X382665Y211083D01*
X382610Y211102D01*
X382559Y211126D01*
X382508Y211150D01*
X382457Y211177D01*
X382410Y211205D01*
X382362Y211240D01*
X382319Y211272D01*
X382276Y211311D01*
X382236Y211350D01*
X382197Y211390D01*
X382157Y211433D01*
X382126Y211476D01*
X382090Y211524D01*
X382063Y211571D01*
X382035Y211622D01*
X382012Y211673D01*
X381988Y211724D01*
X381968Y211779D01*
X381953Y211835D01*
X381941Y211890D01*
X381929Y211945D01*
X381925Y212000D01*
X381917Y212059D01*
Y212114D01*
Y217035D01*
Y217091D01*
X381925Y217150D01*
X381929Y217205D01*
X381941Y217260D01*
X381953Y217315D01*
X381968Y217370D01*
X381988Y217425D01*
X382012Y217476D01*
X382035Y217528D01*
X382063Y217579D01*
X382090Y217626D01*
X382126Y217673D01*
X382157Y217717D01*
X382197Y217760D01*
X382236Y217799D01*
X382276Y217839D01*
X382319Y217878D01*
X382362Y217910D01*
X382410Y217945D01*
X382461Y217972D01*
X382508Y218000D01*
X382559Y218024D01*
X382610Y218047D01*
X382665Y218067D01*
X382720Y218083D01*
X382776Y218094D01*
X382831Y218106D01*
X382886Y218110D01*
X382945Y218118D01*
X383055D01*
X383114Y218110D01*
D02*
G37*
G36*
X378783D02*
X378839Y218106D01*
X378894Y218094D01*
X378949Y218083D01*
X379004Y218067D01*
X379059Y218047D01*
X379110Y218024D01*
X379161Y218000D01*
X379213Y217972D01*
X379260Y217945D01*
X379307Y217910D01*
X379350Y217878D01*
X379394Y217839D01*
X379433Y217799D01*
X379472Y217760D01*
X379512Y217717D01*
X379543Y217673D01*
X379579Y217626D01*
X379606Y217579D01*
X379634Y217528D01*
X379658Y217476D01*
X379681Y217425D01*
X379701Y217370D01*
X379716Y217315D01*
X379728Y217260D01*
X379740Y217205D01*
X379744Y217150D01*
X379752Y217091D01*
Y217035D01*
Y212114D01*
Y212059D01*
X379744Y212000D01*
X379740Y211945D01*
X379728Y211890D01*
X379716Y211835D01*
X379701Y211779D01*
X379681Y211724D01*
X379658Y211673D01*
X379634Y211622D01*
X379606Y211571D01*
X379579Y211524D01*
X379543Y211476D01*
X379512Y211433D01*
X379472Y211390D01*
X379433Y211350D01*
X379394Y211311D01*
X379350Y211272D01*
X379307Y211240D01*
X379260Y211205D01*
X379213Y211177D01*
X379161Y211150D01*
X379110Y211126D01*
X379059Y211102D01*
X379004Y211083D01*
X378949Y211067D01*
X378894Y211055D01*
X378839Y211043D01*
X378783Y211039D01*
X378724Y211032D01*
X378614D01*
X378555Y211039D01*
X378500Y211043D01*
X378445Y211055D01*
X378390Y211067D01*
X378335Y211083D01*
X378279Y211102D01*
X378228Y211126D01*
X378177Y211150D01*
X378126Y211177D01*
X378079Y211205D01*
X378031Y211240D01*
X377988Y211272D01*
X377945Y211311D01*
X377906Y211350D01*
X377866Y211390D01*
X377827Y211433D01*
X377795Y211476D01*
X377760Y211524D01*
X377732Y211571D01*
X377705Y211622D01*
X377681Y211673D01*
X377658Y211724D01*
X377638Y211779D01*
X377622Y211835D01*
X377610Y211890D01*
X377598Y211945D01*
X377594Y212000D01*
X377587Y212059D01*
Y212114D01*
Y217035D01*
Y217091D01*
X377594Y217150D01*
X377598Y217205D01*
X377610Y217260D01*
X377622Y217315D01*
X377638Y217370D01*
X377658Y217425D01*
X377681Y217476D01*
X377705Y217528D01*
X377732Y217579D01*
X377760Y217626D01*
X377795Y217673D01*
X377827Y217717D01*
X377866Y217760D01*
X377906Y217799D01*
X377945Y217839D01*
X377988Y217878D01*
X378031Y217910D01*
X378079Y217945D01*
X378130Y217972D01*
X378177Y218000D01*
X378228Y218024D01*
X378279Y218047D01*
X378335Y218067D01*
X378390Y218083D01*
X378445Y218094D01*
X378500Y218106D01*
X378555Y218110D01*
X378614Y218118D01*
X378724D01*
X378783Y218110D01*
D02*
G37*
G36*
X374453D02*
X374508Y218106D01*
X374563Y218094D01*
X374618Y218083D01*
X374673Y218067D01*
X374728Y218047D01*
X374780Y218024D01*
X374831Y218000D01*
X374878Y217972D01*
X374929Y217945D01*
X374976Y217910D01*
X375020Y217878D01*
X375063Y217839D01*
X375102Y217799D01*
X375142Y217760D01*
X375181Y217717D01*
X375213Y217673D01*
X375248Y217626D01*
X375276Y217579D01*
X375303Y217528D01*
X375327Y217476D01*
X375350Y217425D01*
X375370Y217370D01*
X375386Y217315D01*
X375398Y217260D01*
X375410Y217205D01*
X375413Y217150D01*
X375421Y217091D01*
Y217035D01*
Y212114D01*
Y212059D01*
X375413Y212000D01*
X375410Y211945D01*
X375398Y211890D01*
X375386Y211835D01*
X375370Y211779D01*
X375350Y211724D01*
X375327Y211673D01*
X375303Y211622D01*
X375276Y211571D01*
X375248Y211524D01*
X375213Y211476D01*
X375181Y211433D01*
X375142Y211390D01*
X375102Y211350D01*
X375063Y211311D01*
X375020Y211272D01*
X374976Y211240D01*
X374929Y211205D01*
X374878Y211177D01*
X374831Y211150D01*
X374780Y211126D01*
X374728Y211102D01*
X374673Y211083D01*
X374618Y211067D01*
X374563Y211055D01*
X374508Y211043D01*
X374453Y211039D01*
X374394Y211032D01*
X374284D01*
X374224Y211039D01*
X374169Y211043D01*
X374114Y211055D01*
X374059Y211067D01*
X374004Y211083D01*
X373949Y211102D01*
X373898Y211126D01*
X373847Y211150D01*
X373795Y211177D01*
X373748Y211205D01*
X373701Y211240D01*
X373657Y211272D01*
X373614Y211311D01*
X373575Y211350D01*
X373535Y211390D01*
X373496Y211433D01*
X373465Y211476D01*
X373429Y211524D01*
X373402Y211571D01*
X373374Y211622D01*
X373350Y211673D01*
X373327Y211724D01*
X373307Y211779D01*
X373291Y211835D01*
X373280Y211890D01*
X373268Y211945D01*
X373264Y212000D01*
X373256Y212059D01*
Y212114D01*
Y217035D01*
Y217091D01*
X373264Y217150D01*
X373268Y217205D01*
X373280Y217260D01*
X373291Y217315D01*
X373307Y217370D01*
X373327Y217425D01*
X373350Y217476D01*
X373374Y217528D01*
X373402Y217579D01*
X373429Y217626D01*
X373465Y217673D01*
X373496Y217717D01*
X373535Y217760D01*
X373575Y217799D01*
X373614Y217839D01*
X373657Y217878D01*
X373701Y217910D01*
X373748Y217945D01*
X373795Y217972D01*
X373847Y218000D01*
X373898Y218024D01*
X373949Y218047D01*
X374004Y218067D01*
X374059Y218083D01*
X374114Y218094D01*
X374169Y218106D01*
X374224Y218110D01*
X374284Y218118D01*
X374394D01*
X374453Y218110D01*
D02*
G37*
G36*
X370122D02*
X370177Y218106D01*
X370232Y218094D01*
X370287Y218083D01*
X370342Y218067D01*
X370398Y218047D01*
X370449Y218024D01*
X370500Y218000D01*
X370551Y217972D01*
X370598Y217945D01*
X370646Y217910D01*
X370689Y217878D01*
X370732Y217839D01*
X370772Y217799D01*
X370811Y217760D01*
X370850Y217717D01*
X370882Y217673D01*
X370917Y217626D01*
X370945Y217579D01*
X370972Y217528D01*
X370996Y217476D01*
X371020Y217425D01*
X371039Y217370D01*
X371055Y217315D01*
X371067Y217260D01*
X371079Y217205D01*
X371083Y217150D01*
X371091Y217091D01*
Y217035D01*
Y212114D01*
Y212059D01*
X371083Y212000D01*
X371079Y211945D01*
X371067Y211890D01*
X371055Y211835D01*
X371039Y211779D01*
X371020Y211724D01*
X370996Y211673D01*
X370972Y211622D01*
X370945Y211571D01*
X370917Y211524D01*
X370882Y211476D01*
X370850Y211433D01*
X370811Y211390D01*
X370772Y211350D01*
X370732Y211311D01*
X370689Y211272D01*
X370646Y211240D01*
X370598Y211205D01*
X370551Y211177D01*
X370500Y211150D01*
X370449Y211126D01*
X370398Y211102D01*
X370342Y211083D01*
X370287Y211067D01*
X370232Y211055D01*
X370177Y211043D01*
X370122Y211039D01*
X370063Y211032D01*
X369953D01*
X369894Y211039D01*
X369839Y211043D01*
X369783Y211055D01*
X369728Y211067D01*
X369673Y211083D01*
X369618Y211102D01*
X369567Y211126D01*
X369516Y211150D01*
X369465Y211177D01*
X369417Y211205D01*
X369370Y211240D01*
X369327Y211272D01*
X369284Y211311D01*
X369244Y211350D01*
X369205Y211390D01*
X369165Y211433D01*
X369134Y211476D01*
X369098Y211524D01*
X369071Y211571D01*
X369043Y211622D01*
X369020Y211673D01*
X368996Y211724D01*
X368976Y211779D01*
X368961Y211835D01*
X368949Y211890D01*
X368937Y211945D01*
X368933Y212000D01*
X368925Y212059D01*
Y212114D01*
Y217035D01*
Y217091D01*
X368933Y217150D01*
X368937Y217205D01*
X368949Y217260D01*
X368961Y217315D01*
X368976Y217370D01*
X368996Y217425D01*
X369020Y217476D01*
X369043Y217528D01*
X369071Y217579D01*
X369098Y217626D01*
X369134Y217673D01*
X369165Y217717D01*
X369205Y217760D01*
X369244Y217799D01*
X369284Y217839D01*
X369327Y217878D01*
X369370Y217910D01*
X369417Y217945D01*
X369465Y217972D01*
X369516Y218000D01*
X369567Y218024D01*
X369618Y218047D01*
X369673Y218067D01*
X369728Y218083D01*
X369783Y218094D01*
X369839Y218106D01*
X369894Y218110D01*
X369953Y218118D01*
X370063D01*
X370122Y218110D01*
D02*
G37*
G36*
X365791D02*
X365846Y218106D01*
X365902Y218094D01*
X365957Y218083D01*
X366012Y218067D01*
X366067Y218047D01*
X366118Y218024D01*
X366169Y218000D01*
X366216Y217972D01*
X366268Y217945D01*
X366315Y217910D01*
X366358Y217878D01*
X366402Y217839D01*
X366441Y217799D01*
X366480Y217760D01*
X366520Y217717D01*
X366551Y217673D01*
X366587Y217626D01*
X366614Y217579D01*
X366642Y217528D01*
X366665Y217476D01*
X366689Y217425D01*
X366709Y217370D01*
X366724Y217315D01*
X366736Y217260D01*
X366748Y217205D01*
X366752Y217150D01*
X366760Y217091D01*
Y217035D01*
Y212114D01*
Y212059D01*
X366752Y212000D01*
X366748Y211945D01*
X366736Y211890D01*
X366724Y211835D01*
X366709Y211779D01*
X366689Y211724D01*
X366665Y211673D01*
X366642Y211622D01*
X366614Y211571D01*
X366587Y211524D01*
X366551Y211476D01*
X366520Y211433D01*
X366480Y211390D01*
X366441Y211350D01*
X366402Y211311D01*
X366358Y211272D01*
X366315Y211240D01*
X366268Y211205D01*
X366216Y211177D01*
X366169Y211150D01*
X366118Y211126D01*
X366067Y211102D01*
X366012Y211083D01*
X365957Y211067D01*
X365902Y211055D01*
X365846Y211043D01*
X365791Y211039D01*
X365732Y211032D01*
X365622D01*
X365563Y211039D01*
X365508Y211043D01*
X365453Y211055D01*
X365398Y211067D01*
X365342Y211083D01*
X365287Y211102D01*
X365236Y211126D01*
X365185Y211150D01*
X365138Y211177D01*
X365087Y211205D01*
X365039Y211240D01*
X364996Y211272D01*
X364953Y211311D01*
X364913Y211350D01*
X364874Y211390D01*
X364835Y211433D01*
X364803Y211476D01*
X364768Y211524D01*
X364740Y211571D01*
X364713Y211622D01*
X364689Y211673D01*
X364665Y211724D01*
X364646Y211779D01*
X364630Y211835D01*
X364618Y211890D01*
X364606Y211945D01*
X364602Y212000D01*
X364595Y212059D01*
Y212114D01*
Y217035D01*
Y217091D01*
X364602Y217150D01*
X364606Y217205D01*
X364618Y217260D01*
X364630Y217315D01*
X364646Y217370D01*
X364665Y217425D01*
X364689Y217476D01*
X364713Y217528D01*
X364740Y217579D01*
X364768Y217626D01*
X364803Y217673D01*
X364835Y217717D01*
X364874Y217760D01*
X364913Y217799D01*
X364953Y217839D01*
X364996Y217878D01*
X365039Y217910D01*
X365087Y217945D01*
X365138Y217972D01*
X365185Y218000D01*
X365236Y218024D01*
X365287Y218047D01*
X365342Y218067D01*
X365398Y218083D01*
X365453Y218094D01*
X365508Y218106D01*
X365563Y218110D01*
X365622Y218118D01*
X365732D01*
X365791Y218110D01*
D02*
G37*
D16*
X305000Y274957D02*
D03*
Y282043D02*
D03*
D17*
X339937Y267500D02*
D03*
X332063Y263760D02*
D03*
Y271240D02*
D03*
Y253000D02*
D03*
X339937Y256740D02*
D03*
Y249260D02*
D03*
X460437Y281000D02*
D03*
X452563Y277260D02*
D03*
Y284740D02*
D03*
D18*
X339839Y278500D02*
D03*
X332161D02*
D03*
X332161Y241500D02*
D03*
X339839D02*
D03*
X332323Y225500D02*
D03*
X340000D02*
D03*
X332161Y233500D02*
D03*
X339839D02*
D03*
X332161Y288000D02*
D03*
X339839D02*
D03*
X322339Y289500D02*
D03*
X314661D02*
D03*
X410500Y207000D02*
D03*
X402823D02*
D03*
X383839D02*
D03*
X376161D02*
D03*
X415339Y289500D02*
D03*
X407661D02*
D03*
X353161Y292500D02*
D03*
X360839D02*
D03*
X368823D02*
D03*
X376500D02*
D03*
D19*
X436193Y276398D02*
D03*
D20*
X442000Y282500D02*
D03*
X430386D02*
D03*
D21*
X432787Y263287D02*
D03*
Y228642D02*
D03*
X481213Y263287D02*
D03*
Y228642D02*
D03*
D22*
X444500Y212500D02*
D03*
X454500D02*
D03*
X464500D02*
D03*
X449500D02*
D03*
X459500D02*
D03*
X469500D02*
D03*
D23*
X424500Y237339D02*
D03*
Y229661D02*
D03*
X475500Y278323D02*
D03*
Y286000D02*
D03*
D24*
X456953Y292500D02*
D03*
X451047D02*
D03*
D25*
X419941Y210563D02*
D03*
X422500D02*
D03*
X425059D02*
D03*
Y218437D02*
D03*
X422500D02*
D03*
X419941D02*
D03*
M02*
