G04*
G04 #@! TF.GenerationSoftware,Altium Limited,Altium Designer,23.0.1 (38)*
G04*
G04 Layer_Color=32896*
%FSLAX25Y25*%
%MOIN*%
G70*
G04*
G04 #@! TF.SameCoordinates,8F624F87-4904-4D54-B770-2945CE276165*
G04*
G04*
G04 #@! TF.FilePolarity,Positive*
G04*
G01*
G75*
%ADD10C,0.00787*%
%ADD12C,0.00984*%
%ADD13C,0.00394*%
%ADD15C,0.00500*%
%ADD72C,0.00598*%
%ADD73C,0.00600*%
G36*
X392343Y263103D02*
X392468Y263080D01*
X392575Y263043D01*
X392667Y263006D01*
X392708Y262983D01*
X392741Y262965D01*
X392773Y262946D01*
X392796Y262928D01*
X392815Y262914D01*
X392829Y262905D01*
X392838Y262900D01*
X392843Y262895D01*
X392930Y262807D01*
X393000Y262710D01*
X393055Y262609D01*
X393101Y262507D01*
X393129Y262419D01*
X393143Y262382D01*
X393152Y262350D01*
X393157Y262322D01*
X393161Y262304D01*
X393166Y262290D01*
Y262285D01*
X392773Y262216D01*
X392755Y262318D01*
X392727Y262405D01*
X392695Y262479D01*
X392662Y262540D01*
X392630Y262586D01*
X392602Y262618D01*
X392584Y262641D01*
X392579Y262646D01*
X392519Y262692D01*
X392454Y262729D01*
X392394Y262752D01*
X392334Y262771D01*
X392279Y262780D01*
X392237Y262789D01*
X392200D01*
X392117Y262784D01*
X392043Y262766D01*
X391979Y262743D01*
X391923Y262720D01*
X391881Y262692D01*
X391849Y262669D01*
X391826Y262650D01*
X391821Y262646D01*
X391771Y262590D01*
X391734Y262530D01*
X391711Y262470D01*
X391692Y262415D01*
X391683Y262364D01*
X391674Y262327D01*
Y262299D01*
Y262295D01*
Y262290D01*
Y262239D01*
X391683Y262193D01*
X391706Y262115D01*
X391738Y262045D01*
X391775Y261985D01*
X391812Y261944D01*
X391845Y261911D01*
X391868Y261893D01*
X391872Y261888D01*
X391877D01*
X391955Y261846D01*
X392029Y261814D01*
X392108Y261791D01*
X392177Y261777D01*
X392237Y261768D01*
X392288Y261759D01*
X392348D01*
X392367Y261763D01*
X392390D01*
X392436Y261417D01*
X392376Y261431D01*
X392320Y261440D01*
X392274Y261449D01*
X392233Y261454D01*
X392200Y261458D01*
X392159D01*
X392062Y261449D01*
X391974Y261431D01*
X391895Y261403D01*
X391831Y261371D01*
X391780Y261338D01*
X391743Y261311D01*
X391720Y261292D01*
X391711Y261283D01*
X391651Y261214D01*
X391604Y261140D01*
X391572Y261066D01*
X391553Y260992D01*
X391540Y260932D01*
X391535Y260881D01*
X391530Y260862D01*
Y260849D01*
Y260839D01*
Y260835D01*
X391540Y260733D01*
X391563Y260641D01*
X391590Y260562D01*
X391627Y260493D01*
X391664Y260437D01*
X391692Y260396D01*
X391715Y260368D01*
X391724Y260359D01*
X391798Y260294D01*
X391877Y260248D01*
X391955Y260216D01*
X392029Y260192D01*
X392094Y260179D01*
X392145Y260174D01*
X392163Y260169D01*
X392191D01*
X392274Y260174D01*
X392353Y260192D01*
X392422Y260216D01*
X392477Y260243D01*
X392524Y260266D01*
X392561Y260290D01*
X392579Y260308D01*
X392588Y260313D01*
X392644Y260377D01*
X392690Y260451D01*
X392732Y260530D01*
X392764Y260613D01*
X392787Y260682D01*
X392796Y260715D01*
X392801Y260742D01*
X392806Y260765D01*
X392810Y260784D01*
X392815Y260793D01*
Y260798D01*
X393207Y260747D01*
X393198Y260673D01*
X393184Y260604D01*
X393143Y260474D01*
X393092Y260364D01*
X393064Y260317D01*
X393037Y260271D01*
X393009Y260229D01*
X392981Y260197D01*
X392958Y260165D01*
X392935Y260142D01*
X392921Y260123D01*
X392907Y260109D01*
X392898Y260100D01*
X392893Y260096D01*
X392838Y260054D01*
X392782Y260012D01*
X392727Y259980D01*
X392667Y259952D01*
X392551Y259906D01*
X392441Y259878D01*
X392390Y259869D01*
X392343Y259860D01*
X392302Y259855D01*
X392265Y259851D01*
X392237Y259846D01*
X392196D01*
X392108Y259851D01*
X392029Y259860D01*
X391951Y259874D01*
X391877Y259892D01*
X391808Y259915D01*
X391747Y259938D01*
X391687Y259966D01*
X391637Y259994D01*
X391586Y260017D01*
X391544Y260045D01*
X391507Y260068D01*
X391480Y260091D01*
X391457Y260109D01*
X391438Y260123D01*
X391429Y260133D01*
X391424Y260137D01*
X391369Y260192D01*
X391322Y260253D01*
X391281Y260313D01*
X391244Y260373D01*
X391216Y260428D01*
X391189Y260488D01*
X391151Y260599D01*
X391142Y260650D01*
X391133Y260696D01*
X391124Y260738D01*
X391119Y260775D01*
X391115Y260802D01*
Y260825D01*
Y260839D01*
Y260844D01*
X391119Y260955D01*
X391138Y261056D01*
X391165Y261144D01*
X391193Y261218D01*
X391221Y261278D01*
X391249Y261324D01*
X391267Y261352D01*
X391272Y261361D01*
X391336Y261431D01*
X391406Y261491D01*
X391480Y261537D01*
X391553Y261574D01*
X391618Y261602D01*
X391669Y261620D01*
X391687Y261625D01*
X391701Y261629D01*
X391711Y261634D01*
X391715D01*
X391637Y261676D01*
X391572Y261717D01*
X391516Y261763D01*
X391470Y261805D01*
X391433Y261842D01*
X391406Y261874D01*
X391392Y261893D01*
X391387Y261902D01*
X391350Y261967D01*
X391322Y262031D01*
X391299Y262096D01*
X391285Y262156D01*
X391276Y262207D01*
X391272Y262244D01*
Y262271D01*
Y262281D01*
X391276Y262359D01*
X391290Y262438D01*
X391309Y262507D01*
X391332Y262567D01*
X391355Y262618D01*
X391373Y262660D01*
X391387Y262683D01*
X391392Y262692D01*
X391438Y262761D01*
X391493Y262821D01*
X391549Y262872D01*
X391604Y262918D01*
X391651Y262951D01*
X391692Y262978D01*
X391720Y262992D01*
X391724Y262997D01*
X391729D01*
X391812Y263034D01*
X391895Y263062D01*
X391979Y263085D01*
X392052Y263099D01*
X392112Y263108D01*
X392163Y263112D01*
X392279D01*
X392343Y263103D01*
D02*
G37*
G36*
X394519Y263034D02*
X394570Y262960D01*
X394630Y262886D01*
X394686Y262821D01*
X394741Y262766D01*
X394783Y262720D01*
X394801Y262706D01*
X394815Y262692D01*
X394820Y262687D01*
X394824Y262683D01*
X394921Y262604D01*
X395019Y262530D01*
X395111Y262466D01*
X395203Y262415D01*
X395282Y262369D01*
X395314Y262350D01*
X395342Y262336D01*
X395365Y262322D01*
X395384Y262318D01*
X395393Y262309D01*
X395397D01*
Y261930D01*
X395328Y261957D01*
X395259Y261990D01*
X395189Y262022D01*
X395125Y262054D01*
X395069Y262082D01*
X395023Y262105D01*
X394995Y262124D01*
X394991Y262128D01*
X394986D01*
X394903Y262179D01*
X394829Y262230D01*
X394764Y262276D01*
X394714Y262318D01*
X394667Y262350D01*
X394640Y262378D01*
X394617Y262396D01*
X394612Y262401D01*
Y259901D01*
X394219D01*
Y263112D01*
X394473D01*
X394519Y263034D01*
D02*
G37*
G36*
X397532Y263145D02*
X397680Y263122D01*
X397809Y263094D01*
X397869Y263075D01*
X397924Y263057D01*
X397975Y263038D01*
X398022Y263020D01*
X398058Y263006D01*
X398095Y262992D01*
X398118Y262978D01*
X398137Y262969D01*
X398151Y262965D01*
X398155Y262960D01*
X398280Y262881D01*
X398387Y262789D01*
X398479Y262697D01*
X398557Y262604D01*
X398618Y262521D01*
X398641Y262484D01*
X398659Y262452D01*
X398677Y262429D01*
X398687Y262410D01*
X398691Y262396D01*
X398696Y262392D01*
X398761Y262248D01*
X398807Y262101D01*
X398839Y261953D01*
X398862Y261819D01*
X398872Y261759D01*
X398876Y261699D01*
X398881Y261652D01*
Y261606D01*
X398885Y261574D01*
Y261546D01*
Y261528D01*
Y261523D01*
X398876Y261357D01*
X398858Y261195D01*
X398835Y261052D01*
X398816Y260983D01*
X398802Y260923D01*
X398788Y260867D01*
X398770Y260816D01*
X398756Y260770D01*
X398747Y260733D01*
X398733Y260705D01*
X398728Y260682D01*
X398719Y260668D01*
Y260664D01*
X398650Y260525D01*
X398571Y260400D01*
X398488Y260294D01*
X398446Y260253D01*
X398410Y260211D01*
X398373Y260174D01*
X398336Y260142D01*
X398303Y260114D01*
X398276Y260096D01*
X398257Y260077D01*
X398239Y260063D01*
X398229Y260059D01*
X398225Y260054D01*
X398160Y260017D01*
X398095Y259985D01*
X397957Y259934D01*
X397818Y259897D01*
X397684Y259874D01*
X397620Y259864D01*
X397564Y259855D01*
X397513Y259851D01*
X397472D01*
X397435Y259846D01*
X397384D01*
X397291Y259851D01*
X397204Y259860D01*
X397121Y259869D01*
X397042Y259888D01*
X396968Y259911D01*
X396899Y259934D01*
X396834Y259957D01*
X396774Y259985D01*
X396723Y260008D01*
X396672Y260031D01*
X396636Y260054D01*
X396599Y260077D01*
X396575Y260096D01*
X396552Y260105D01*
X396543Y260114D01*
X396538Y260119D01*
X396474Y260174D01*
X396418Y260229D01*
X396368Y260294D01*
X396317Y260359D01*
X396234Y260488D01*
X396169Y260618D01*
X396141Y260678D01*
X396118Y260733D01*
X396100Y260784D01*
X396086Y260825D01*
X396072Y260862D01*
X396063Y260890D01*
X396058Y260909D01*
Y260913D01*
X396483Y261019D01*
X396501Y260946D01*
X396525Y260876D01*
X396548Y260812D01*
X396571Y260752D01*
X396599Y260696D01*
X396626Y260650D01*
X396659Y260604D01*
X396686Y260562D01*
X396709Y260525D01*
X396737Y260497D01*
X396760Y260470D01*
X396779Y260447D01*
X396797Y260433D01*
X396811Y260419D01*
X396816Y260414D01*
X396820Y260410D01*
X396866Y260373D01*
X396917Y260345D01*
X397019Y260294D01*
X397116Y260257D01*
X397213Y260234D01*
X397296Y260216D01*
X397328Y260211D01*
X397361D01*
X397389Y260206D01*
X397421D01*
X397527Y260211D01*
X397629Y260229D01*
X397721Y260253D01*
X397804Y260280D01*
X397869Y260308D01*
X397897Y260322D01*
X397920Y260331D01*
X397938Y260340D01*
X397952Y260350D01*
X397961Y260354D01*
X397966D01*
X398054Y260419D01*
X398128Y260488D01*
X398192Y260567D01*
X398243Y260641D01*
X398285Y260705D01*
X398312Y260761D01*
X398322Y260784D01*
X398331Y260798D01*
X398336Y260807D01*
Y260812D01*
X398373Y260932D01*
X398400Y261052D01*
X398423Y261172D01*
X398437Y261283D01*
X398442Y261334D01*
X398446Y261380D01*
Y261421D01*
X398451Y261454D01*
Y261481D01*
Y261505D01*
Y261519D01*
Y261523D01*
X398446Y261643D01*
X398437Y261754D01*
X398419Y261856D01*
X398400Y261948D01*
X398387Y262027D01*
X398377Y262059D01*
X398368Y262087D01*
X398363Y262110D01*
X398359Y262124D01*
X398354Y262133D01*
Y262138D01*
X398308Y262244D01*
X398257Y262341D01*
X398202Y262419D01*
X398142Y262489D01*
X398091Y262544D01*
X398049Y262581D01*
X398017Y262604D01*
X398012Y262613D01*
X398008D01*
X397911Y262673D01*
X397804Y262720D01*
X397703Y262752D01*
X397606Y262771D01*
X397518Y262784D01*
X397481Y262789D01*
X397449D01*
X397426Y262794D01*
X397389D01*
X397273Y262789D01*
X397167Y262771D01*
X397079Y262743D01*
X397001Y262715D01*
X396940Y262683D01*
X396894Y262660D01*
X396866Y262641D01*
X396857Y262632D01*
X396783Y262563D01*
X396714Y262484D01*
X396659Y262401D01*
X396612Y262318D01*
X396575Y262244D01*
X396562Y262207D01*
X396552Y262179D01*
X396543Y262156D01*
X396534Y262138D01*
X396529Y262128D01*
Y262124D01*
X396113Y262221D01*
X396141Y262304D01*
X396169Y262378D01*
X396206Y262447D01*
X396238Y262516D01*
X396275Y262577D01*
X396317Y262632D01*
X396354Y262687D01*
X396391Y262734D01*
X396428Y262771D01*
X396460Y262807D01*
X396492Y262840D01*
X396515Y262863D01*
X396538Y262886D01*
X396557Y262900D01*
X396566Y262905D01*
X396571Y262909D01*
X396636Y262951D01*
X396700Y262992D01*
X396765Y263025D01*
X396834Y263052D01*
X396973Y263094D01*
X397097Y263122D01*
X397158Y263136D01*
X397208Y263140D01*
X397259Y263145D01*
X397301Y263149D01*
X397333Y263154D01*
X397379D01*
X397532Y263145D01*
D02*
G37*
G36*
X400721Y263108D02*
X400800Y263103D01*
X400874Y263089D01*
X400943Y263075D01*
X401008Y263057D01*
X401068Y263038D01*
X401123Y263015D01*
X401174Y262992D01*
X401220Y262969D01*
X401257Y262946D01*
X401289Y262928D01*
X401317Y262909D01*
X401340Y262895D01*
X401354Y262881D01*
X401363Y262877D01*
X401368Y262872D01*
X401414Y262826D01*
X401456Y262775D01*
X401497Y262720D01*
X401530Y262664D01*
X401585Y262553D01*
X401622Y262442D01*
X401636Y262392D01*
X401650Y262341D01*
X401659Y262299D01*
X401668Y262262D01*
X401673Y262230D01*
Y262207D01*
X401677Y262193D01*
Y262188D01*
X401275Y262147D01*
X401266Y262253D01*
X401248Y262346D01*
X401220Y262429D01*
X401188Y262493D01*
X401160Y262549D01*
X401132Y262586D01*
X401114Y262609D01*
X401104Y262618D01*
X401035Y262673D01*
X400961Y262715D01*
X400883Y262747D01*
X400813Y262766D01*
X400749Y262780D01*
X400693Y262784D01*
X400675Y262789D01*
X400647D01*
X400550Y262784D01*
X400462Y262766D01*
X400388Y262738D01*
X400324Y262710D01*
X400273Y262678D01*
X400241Y262655D01*
X400217Y262636D01*
X400208Y262627D01*
X400153Y262563D01*
X400111Y262498D01*
X400079Y262433D01*
X400060Y262369D01*
X400046Y262318D01*
X400042Y262271D01*
X400037Y262244D01*
Y262239D01*
Y262235D01*
X400046Y262151D01*
X400065Y262064D01*
X400097Y261985D01*
X400130Y261911D01*
X400167Y261851D01*
X400199Y261800D01*
X400208Y261782D01*
X400217Y261768D01*
X400227Y261763D01*
Y261759D01*
X400264Y261708D01*
X400310Y261657D01*
X400361Y261602D01*
X400416Y261546D01*
X400532Y261435D01*
X400647Y261324D01*
X400707Y261274D01*
X400758Y261227D01*
X400809Y261186D01*
X400850Y261149D01*
X400883Y261121D01*
X400911Y261098D01*
X400929Y261084D01*
X400934Y261080D01*
X401049Y260983D01*
X401155Y260890D01*
X401243Y260807D01*
X401312Y260738D01*
X401372Y260678D01*
X401414Y260636D01*
X401437Y260608D01*
X401446Y260604D01*
Y260599D01*
X401511Y260521D01*
X401562Y260447D01*
X401608Y260373D01*
X401645Y260308D01*
X401673Y260253D01*
X401691Y260211D01*
X401700Y260183D01*
X401705Y260179D01*
Y260174D01*
X401724Y260123D01*
X401733Y260077D01*
X401742Y260031D01*
X401747Y259989D01*
X401751Y259952D01*
Y259925D01*
Y259906D01*
Y259901D01*
X399631D01*
Y260280D01*
X401206D01*
X401151Y260359D01*
X401123Y260391D01*
X401100Y260423D01*
X401077Y260451D01*
X401058Y260470D01*
X401045Y260484D01*
X401040Y260488D01*
X401017Y260511D01*
X400989Y260534D01*
X400924Y260595D01*
X400850Y260664D01*
X400772Y260733D01*
X400698Y260793D01*
X400666Y260821D01*
X400638Y260849D01*
X400615Y260867D01*
X400596Y260881D01*
X400587Y260890D01*
X400583Y260895D01*
X400509Y260960D01*
X400435Y261019D01*
X400370Y261080D01*
X400310Y261130D01*
X400254Y261181D01*
X400208Y261227D01*
X400162Y261269D01*
X400125Y261306D01*
X400088Y261343D01*
X400060Y261371D01*
X400037Y261394D01*
X400014Y261417D01*
X399991Y261445D01*
X399982Y261454D01*
X399917Y261532D01*
X399862Y261602D01*
X399816Y261671D01*
X399779Y261726D01*
X399751Y261777D01*
X399732Y261814D01*
X399723Y261837D01*
X399718Y261846D01*
X399691Y261916D01*
X399672Y261985D01*
X399654Y262050D01*
X399645Y262105D01*
X399640Y262156D01*
X399635Y262193D01*
Y262216D01*
Y262225D01*
X399640Y262295D01*
X399649Y262359D01*
X399658Y262424D01*
X399677Y262479D01*
X399723Y262590D01*
X399769Y262678D01*
X399797Y262720D01*
X399820Y262752D01*
X399843Y262784D01*
X399866Y262807D01*
X399885Y262826D01*
X399894Y262844D01*
X399903Y262849D01*
X399908Y262854D01*
X399959Y262900D01*
X400014Y262941D01*
X400074Y262974D01*
X400134Y263001D01*
X400254Y263048D01*
X400375Y263080D01*
X400425Y263089D01*
X400476Y263099D01*
X400522Y263103D01*
X400559Y263108D01*
X400592Y263112D01*
X400638D01*
X400721Y263108D01*
D02*
G37*
G36*
X403003Y263034D02*
X403054Y262960D01*
X403114Y262886D01*
X403170Y262821D01*
X403225Y262766D01*
X403267Y262720D01*
X403285Y262706D01*
X403299Y262692D01*
X403304Y262687D01*
X403308Y262683D01*
X403405Y262604D01*
X403502Y262530D01*
X403595Y262466D01*
X403687Y262415D01*
X403766Y262369D01*
X403798Y262350D01*
X403826Y262336D01*
X403849Y262322D01*
X403867Y262318D01*
X403876Y262309D01*
X403881D01*
Y261930D01*
X403812Y261957D01*
X403743Y261990D01*
X403673Y262022D01*
X403609Y262054D01*
X403553Y262082D01*
X403507Y262105D01*
X403479Y262124D01*
X403475Y262128D01*
X403470D01*
X403387Y262179D01*
X403313Y262230D01*
X403248Y262276D01*
X403197Y262318D01*
X403151Y262350D01*
X403124Y262378D01*
X403100Y262396D01*
X403096Y262401D01*
Y259901D01*
X402703D01*
Y263112D01*
X402957D01*
X403003Y263034D01*
D02*
G37*
G36*
X406016Y263145D02*
X406163Y263122D01*
X406293Y263094D01*
X406353Y263075D01*
X406408Y263057D01*
X406459Y263038D01*
X406505Y263020D01*
X406542Y263006D01*
X406579Y262992D01*
X406602Y262978D01*
X406621Y262969D01*
X406635Y262965D01*
X406639Y262960D01*
X406764Y262881D01*
X406870Y262789D01*
X406963Y262697D01*
X407041Y262604D01*
X407101Y262521D01*
X407124Y262484D01*
X407143Y262452D01*
X407161Y262429D01*
X407171Y262410D01*
X407175Y262396D01*
X407180Y262392D01*
X407244Y262248D01*
X407291Y262101D01*
X407323Y261953D01*
X407346Y261819D01*
X407355Y261759D01*
X407360Y261699D01*
X407365Y261652D01*
Y261606D01*
X407369Y261574D01*
Y261546D01*
Y261528D01*
Y261523D01*
X407360Y261357D01*
X407341Y261195D01*
X407318Y261052D01*
X407300Y260983D01*
X407286Y260923D01*
X407272Y260867D01*
X407254Y260816D01*
X407240Y260770D01*
X407231Y260733D01*
X407217Y260705D01*
X407212Y260682D01*
X407203Y260668D01*
Y260664D01*
X407134Y260525D01*
X407055Y260400D01*
X406972Y260294D01*
X406930Y260253D01*
X406893Y260211D01*
X406856Y260174D01*
X406819Y260142D01*
X406787Y260114D01*
X406759Y260096D01*
X406741Y260077D01*
X406722Y260063D01*
X406713Y260059D01*
X406709Y260054D01*
X406644Y260017D01*
X406579Y259985D01*
X406441Y259934D01*
X406302Y259897D01*
X406168Y259874D01*
X406103Y259864D01*
X406048Y259855D01*
X405997Y259851D01*
X405956D01*
X405919Y259846D01*
X405868D01*
X405775Y259851D01*
X405688Y259860D01*
X405604Y259869D01*
X405526Y259888D01*
X405452Y259911D01*
X405383Y259934D01*
X405318Y259957D01*
X405258Y259985D01*
X405207Y260008D01*
X405156Y260031D01*
X405119Y260054D01*
X405082Y260077D01*
X405059Y260096D01*
X405036Y260105D01*
X405027Y260114D01*
X405022Y260119D01*
X404958Y260174D01*
X404902Y260229D01*
X404851Y260294D01*
X404801Y260359D01*
X404717Y260488D01*
X404653Y260618D01*
X404625Y260678D01*
X404602Y260733D01*
X404583Y260784D01*
X404569Y260825D01*
X404556Y260862D01*
X404546Y260890D01*
X404542Y260909D01*
Y260913D01*
X404967Y261019D01*
X404985Y260946D01*
X405008Y260876D01*
X405031Y260812D01*
X405055Y260752D01*
X405082Y260696D01*
X405110Y260650D01*
X405142Y260604D01*
X405170Y260562D01*
X405193Y260525D01*
X405221Y260497D01*
X405244Y260470D01*
X405263Y260447D01*
X405281Y260433D01*
X405295Y260419D01*
X405300Y260414D01*
X405304Y260410D01*
X405350Y260373D01*
X405401Y260345D01*
X405503Y260294D01*
X405600Y260257D01*
X405697Y260234D01*
X405780Y260216D01*
X405812Y260211D01*
X405845D01*
X405872Y260206D01*
X405905D01*
X406011Y260211D01*
X406113Y260229D01*
X406205Y260253D01*
X406288Y260280D01*
X406353Y260308D01*
X406381Y260322D01*
X406404Y260331D01*
X406422Y260340D01*
X406436Y260350D01*
X406445Y260354D01*
X406450D01*
X406538Y260419D01*
X406612Y260488D01*
X406676Y260567D01*
X406727Y260641D01*
X406769Y260705D01*
X406796Y260761D01*
X406806Y260784D01*
X406815Y260798D01*
X406819Y260807D01*
Y260812D01*
X406856Y260932D01*
X406884Y261052D01*
X406907Y261172D01*
X406921Y261283D01*
X406926Y261334D01*
X406930Y261380D01*
Y261421D01*
X406935Y261454D01*
Y261481D01*
Y261505D01*
Y261519D01*
Y261523D01*
X406930Y261643D01*
X406921Y261754D01*
X406903Y261856D01*
X406884Y261948D01*
X406870Y262027D01*
X406861Y262059D01*
X406852Y262087D01*
X406847Y262110D01*
X406843Y262124D01*
X406838Y262133D01*
Y262138D01*
X406792Y262244D01*
X406741Y262341D01*
X406685Y262419D01*
X406625Y262489D01*
X406575Y262544D01*
X406533Y262581D01*
X406501Y262604D01*
X406496Y262613D01*
X406491D01*
X406394Y262673D01*
X406288Y262720D01*
X406186Y262752D01*
X406089Y262771D01*
X406002Y262784D01*
X405965Y262789D01*
X405932D01*
X405909Y262794D01*
X405872D01*
X405757Y262789D01*
X405651Y262771D01*
X405563Y262743D01*
X405484Y262715D01*
X405424Y262683D01*
X405378Y262660D01*
X405350Y262641D01*
X405341Y262632D01*
X405267Y262563D01*
X405198Y262484D01*
X405142Y262401D01*
X405096Y262318D01*
X405059Y262244D01*
X405045Y262207D01*
X405036Y262179D01*
X405027Y262156D01*
X405018Y262138D01*
X405013Y262128D01*
Y262124D01*
X404597Y262221D01*
X404625Y262304D01*
X404653Y262378D01*
X404690Y262447D01*
X404722Y262516D01*
X404759Y262577D01*
X404801Y262632D01*
X404838Y262687D01*
X404874Y262734D01*
X404911Y262771D01*
X404944Y262807D01*
X404976Y262840D01*
X404999Y262863D01*
X405022Y262886D01*
X405041Y262900D01*
X405050Y262905D01*
X405055Y262909D01*
X405119Y262951D01*
X405184Y262992D01*
X405249Y263025D01*
X405318Y263052D01*
X405457Y263094D01*
X405581Y263122D01*
X405641Y263136D01*
X405692Y263140D01*
X405743Y263145D01*
X405785Y263149D01*
X405817Y263154D01*
X405863D01*
X406016Y263145D01*
D02*
G37*
G36*
X386503Y228868D02*
X386564Y228779D01*
X386636Y228690D01*
X386703Y228612D01*
X386770Y228546D01*
X386820Y228490D01*
X386842Y228473D01*
X386859Y228457D01*
X386864Y228451D01*
X386870Y228446D01*
X386986Y228351D01*
X387103Y228263D01*
X387214Y228185D01*
X387325Y228124D01*
X387419Y228068D01*
X387458Y228046D01*
X387491Y228029D01*
X387519Y228013D01*
X387541Y228007D01*
X387552Y227996D01*
X387558D01*
Y227541D01*
X387474Y227574D01*
X387391Y227613D01*
X387308Y227652D01*
X387230Y227691D01*
X387164Y227724D01*
X387108Y227752D01*
X387075Y227774D01*
X387069Y227780D01*
X387064D01*
X386964Y227841D01*
X386875Y227902D01*
X386797Y227957D01*
X386736Y228007D01*
X386681Y228046D01*
X386648Y228080D01*
X386620Y228102D01*
X386614Y228107D01*
Y225105D01*
X386142D01*
Y228962D01*
X386448D01*
X386503Y228868D01*
D02*
G37*
G36*
X391593Y225105D02*
X391082D01*
Y226809D01*
X390427D01*
X390366Y226803D01*
X390322D01*
X390283Y226797D01*
X390255Y226792D01*
X390233D01*
X390222Y226786D01*
X390216D01*
X390127Y226759D01*
X390089Y226742D01*
X390055Y226725D01*
X390022Y226709D01*
X390000Y226697D01*
X389989Y226692D01*
X389983Y226686D01*
X389939Y226653D01*
X389894Y226614D01*
X389811Y226531D01*
X389772Y226492D01*
X389744Y226459D01*
X389728Y226437D01*
X389722Y226431D01*
X389667Y226353D01*
X389606Y226270D01*
X389545Y226181D01*
X389484Y226098D01*
X389434Y226020D01*
X389395Y225959D01*
X389378Y225937D01*
X389367Y225921D01*
X389356Y225909D01*
Y225904D01*
X388851Y225105D01*
X388218D01*
X388879Y226148D01*
X388956Y226259D01*
X389029Y226359D01*
X389101Y226442D01*
X389162Y226520D01*
X389217Y226575D01*
X389262Y226620D01*
X389289Y226648D01*
X389300Y226659D01*
X389345Y226692D01*
X389395Y226731D01*
X389495Y226792D01*
X389539Y226814D01*
X389572Y226836D01*
X389595Y226847D01*
X389606Y226853D01*
X389506Y226870D01*
X389411Y226886D01*
X389328Y226914D01*
X389245Y226936D01*
X389173Y226964D01*
X389106Y226997D01*
X389045Y227025D01*
X388990Y227053D01*
X388945Y227086D01*
X388901Y227114D01*
X388868Y227136D01*
X388840Y227158D01*
X388818Y227175D01*
X388801Y227191D01*
X388795Y227197D01*
X388790Y227203D01*
X388745Y227258D01*
X388701Y227314D01*
X388634Y227430D01*
X388590Y227547D01*
X388557Y227658D01*
X388535Y227752D01*
X388529Y227791D01*
Y227830D01*
X388524Y227857D01*
Y227880D01*
Y227891D01*
Y227896D01*
X388529Y228013D01*
X388546Y228118D01*
X388573Y228218D01*
X388601Y228302D01*
X388634Y228374D01*
X388657Y228429D01*
X388679Y228462D01*
X388684Y228468D01*
Y228473D01*
X388751Y228562D01*
X388818Y228640D01*
X388890Y228707D01*
X388956Y228757D01*
X389017Y228795D01*
X389067Y228818D01*
X389101Y228834D01*
X389106Y228840D01*
X389112D01*
X389162Y228856D01*
X389223Y228873D01*
X389345Y228901D01*
X389478Y228918D01*
X389600Y228934D01*
X389717Y228940D01*
X389767D01*
X389811Y228945D01*
X391593D01*
Y225105D01*
D02*
G37*
G36*
X383773Y228956D02*
X383861Y228951D01*
X384017Y228918D01*
X384089Y228895D01*
X384156Y228873D01*
X384217Y228845D01*
X384272Y228818D01*
X384317Y228790D01*
X384361Y228762D01*
X384400Y228740D01*
X384428Y228718D01*
X384450Y228701D01*
X384466Y228684D01*
X384477Y228679D01*
X384483Y228673D01*
X384533Y228618D01*
X384583Y228562D01*
X384622Y228501D01*
X384655Y228440D01*
X384711Y228324D01*
X384744Y228213D01*
X384766Y228118D01*
X384772Y228074D01*
X384777Y228041D01*
X384783Y228007D01*
Y227985D01*
Y227974D01*
Y227969D01*
X384777Y227869D01*
X384761Y227774D01*
X384738Y227691D01*
X384711Y227619D01*
X384688Y227563D01*
X384666Y227519D01*
X384650Y227497D01*
X384644Y227486D01*
X384583Y227419D01*
X384516Y227358D01*
X384444Y227303D01*
X384372Y227258D01*
X384306Y227225D01*
X384256Y227203D01*
X384233Y227191D01*
X384217Y227186D01*
X384211Y227180D01*
X384206D01*
X384333Y227141D01*
X384439Y227092D01*
X384533Y227030D01*
X384611Y226975D01*
X384672Y226920D01*
X384716Y226875D01*
X384738Y226847D01*
X384750Y226842D01*
Y226836D01*
X384810Y226736D01*
X384860Y226631D01*
X384894Y226531D01*
X384916Y226431D01*
X384927Y226342D01*
X384933Y226304D01*
Y226270D01*
X384938Y226248D01*
Y226226D01*
Y226215D01*
Y226209D01*
X384933Y226120D01*
X384922Y226031D01*
X384905Y225948D01*
X384883Y225865D01*
X384827Y225726D01*
X384799Y225660D01*
X384766Y225604D01*
X384733Y225549D01*
X384705Y225504D01*
X384672Y225465D01*
X384650Y225432D01*
X384627Y225404D01*
X384611Y225388D01*
X384600Y225377D01*
X384594Y225371D01*
X384527Y225310D01*
X384455Y225260D01*
X384378Y225216D01*
X384300Y225177D01*
X384228Y225149D01*
X384150Y225121D01*
X384000Y225082D01*
X383934Y225066D01*
X383873Y225055D01*
X383817Y225049D01*
X383767Y225044D01*
X383728Y225038D01*
X383673D01*
X383567Y225044D01*
X383473Y225055D01*
X383379Y225071D01*
X383290Y225088D01*
X383212Y225116D01*
X383134Y225144D01*
X383062Y225171D01*
X383001Y225205D01*
X382946Y225238D01*
X382896Y225266D01*
X382857Y225293D01*
X382818Y225321D01*
X382790Y225338D01*
X382774Y225354D01*
X382763Y225365D01*
X382757Y225371D01*
X382696Y225438D01*
X382641Y225504D01*
X382596Y225571D01*
X382557Y225643D01*
X382518Y225710D01*
X382491Y225782D01*
X382452Y225909D01*
X382435Y225971D01*
X382424Y226026D01*
X382418Y226076D01*
X382413Y226115D01*
X382407Y226148D01*
Y226176D01*
Y226192D01*
Y226198D01*
X382413Y226326D01*
X382435Y226442D01*
X382468Y226548D01*
X382502Y226637D01*
X382535Y226709D01*
X382568Y226764D01*
X382591Y226797D01*
X382596Y226803D01*
Y226809D01*
X382674Y226897D01*
X382757Y226975D01*
X382846Y227036D01*
X382929Y227092D01*
X383007Y227130D01*
X383073Y227158D01*
X383096Y227169D01*
X383112Y227175D01*
X383123Y227180D01*
X383129D01*
X383029Y227225D01*
X382946Y227275D01*
X382874Y227325D01*
X382812Y227375D01*
X382768Y227419D01*
X382735Y227452D01*
X382713Y227474D01*
X382707Y227486D01*
X382657Y227563D01*
X382624Y227641D01*
X382596Y227719D01*
X382579Y227796D01*
X382568Y227857D01*
X382563Y227907D01*
Y227941D01*
Y227946D01*
Y227952D01*
X382568Y228029D01*
X382574Y228102D01*
X382613Y228240D01*
X382663Y228362D01*
X382718Y228468D01*
X382774Y228551D01*
X382801Y228585D01*
X382824Y228618D01*
X382846Y228640D01*
X382862Y228657D01*
X382868Y228662D01*
X382874Y228668D01*
X382935Y228718D01*
X382996Y228768D01*
X383062Y228806D01*
X383129Y228840D01*
X383262Y228890D01*
X383395Y228923D01*
X383451Y228940D01*
X383506Y228945D01*
X383556Y228951D01*
X383601Y228956D01*
X383634Y228962D01*
X383684D01*
X383773Y228956D01*
D02*
G37*
G36*
X411084Y263027D02*
X411135Y262953D01*
X411195Y262879D01*
X411250Y262814D01*
X411306Y262759D01*
X411347Y262713D01*
X411366Y262699D01*
X411380Y262685D01*
X411384Y262680D01*
X411389Y262676D01*
X411486Y262597D01*
X411583Y262523D01*
X411676Y262459D01*
X411768Y262408D01*
X411846Y262362D01*
X411879Y262343D01*
X411907Y262329D01*
X411930Y262315D01*
X411948Y262311D01*
X411957Y262302D01*
X411962D01*
Y261923D01*
X411893Y261950D01*
X411823Y261983D01*
X411754Y262015D01*
X411689Y262048D01*
X411634Y262075D01*
X411588Y262098D01*
X411560Y262117D01*
X411555Y262121D01*
X411551D01*
X411468Y262172D01*
X411394Y262223D01*
X411329Y262269D01*
X411278Y262311D01*
X411232Y262343D01*
X411204Y262371D01*
X411181Y262389D01*
X411177Y262394D01*
Y259894D01*
X410784D01*
Y263106D01*
X411038D01*
X411084Y263027D01*
D02*
G37*
G36*
X415321Y259894D02*
X414896D01*
Y261313D01*
X414351D01*
X414300Y261308D01*
X414263D01*
X414230Y261304D01*
X414207Y261299D01*
X414189D01*
X414180Y261294D01*
X414175D01*
X414101Y261271D01*
X414069Y261258D01*
X414041Y261244D01*
X414013Y261230D01*
X413995Y261221D01*
X413986Y261216D01*
X413981Y261211D01*
X413944Y261184D01*
X413907Y261151D01*
X413838Y261082D01*
X413805Y261050D01*
X413782Y261022D01*
X413768Y261003D01*
X413764Y260999D01*
X413718Y260934D01*
X413667Y260865D01*
X413616Y260791D01*
X413565Y260721D01*
X413524Y260657D01*
X413491Y260606D01*
X413477Y260588D01*
X413468Y260574D01*
X413459Y260564D01*
Y260560D01*
X413038Y259894D01*
X412512D01*
X413062Y260763D01*
X413126Y260856D01*
X413186Y260939D01*
X413246Y261008D01*
X413297Y261073D01*
X413343Y261119D01*
X413380Y261156D01*
X413403Y261179D01*
X413413Y261188D01*
X413450Y261216D01*
X413491Y261248D01*
X413574Y261299D01*
X413611Y261317D01*
X413639Y261336D01*
X413658Y261345D01*
X413667Y261350D01*
X413584Y261364D01*
X413505Y261378D01*
X413436Y261401D01*
X413367Y261419D01*
X413306Y261442D01*
X413251Y261470D01*
X413200Y261493D01*
X413154Y261516D01*
X413117Y261544D01*
X413080Y261567D01*
X413052Y261585D01*
X413029Y261604D01*
X413011Y261618D01*
X412997Y261632D01*
X412992Y261636D01*
X412988Y261641D01*
X412951Y261687D01*
X412914Y261733D01*
X412858Y261830D01*
X412821Y261927D01*
X412794Y262020D01*
X412775Y262098D01*
X412771Y262131D01*
Y262163D01*
X412766Y262186D01*
Y262205D01*
Y262214D01*
Y262218D01*
X412771Y262315D01*
X412784Y262403D01*
X412808Y262486D01*
X412831Y262556D01*
X412858Y262616D01*
X412877Y262662D01*
X412895Y262690D01*
X412900Y262694D01*
Y262699D01*
X412955Y262773D01*
X413011Y262838D01*
X413071Y262893D01*
X413126Y262934D01*
X413177Y262967D01*
X413219Y262985D01*
X413246Y262999D01*
X413251Y263004D01*
X413256D01*
X413297Y263018D01*
X413348Y263032D01*
X413450Y263055D01*
X413560Y263069D01*
X413662Y263082D01*
X413759Y263087D01*
X413801D01*
X413838Y263092D01*
X415321D01*
Y259894D01*
D02*
G37*
G36*
X409749Y262671D02*
X408183D01*
X408294Y262537D01*
X408400Y262394D01*
X408492Y262255D01*
X408580Y262121D01*
X408617Y262061D01*
X408649Y262006D01*
X408682Y261955D01*
X408705Y261913D01*
X408723Y261877D01*
X408737Y261853D01*
X408746Y261835D01*
X408751Y261830D01*
X408844Y261646D01*
X408927Y261461D01*
X408996Y261285D01*
X409024Y261207D01*
X409051Y261128D01*
X409079Y261059D01*
X409098Y260994D01*
X409116Y260939D01*
X409130Y260893D01*
X409144Y260851D01*
X409153Y260823D01*
X409158Y260805D01*
Y260800D01*
X409204Y260611D01*
X409222Y260518D01*
X409236Y260435D01*
X409250Y260357D01*
X409264Y260278D01*
X409273Y260213D01*
X409282Y260149D01*
X409287Y260093D01*
X409292Y260042D01*
X409296Y259996D01*
Y259959D01*
X409301Y259931D01*
Y259913D01*
Y259899D01*
Y259894D01*
X408899D01*
X408885Y260070D01*
X408862Y260232D01*
X408839Y260380D01*
X408825Y260449D01*
X408811Y260514D01*
X408802Y260569D01*
X408788Y260620D01*
X408779Y260666D01*
X408770Y260703D01*
X408760Y260731D01*
X408756Y260754D01*
X408751Y260768D01*
Y260772D01*
X408682Y260985D01*
X408608Y261184D01*
X408571Y261280D01*
X408534Y261373D01*
X408492Y261456D01*
X408455Y261539D01*
X408423Y261613D01*
X408391Y261678D01*
X408363Y261733D01*
X408340Y261784D01*
X408317Y261826D01*
X408303Y261853D01*
X408294Y261872D01*
X408289Y261877D01*
X408234Y261974D01*
X408178Y262071D01*
X408123Y262158D01*
X408067Y262242D01*
X408016Y262315D01*
X407966Y262389D01*
X407915Y262454D01*
X407873Y262509D01*
X407832Y262565D01*
X407795Y262611D01*
X407758Y262648D01*
X407730Y262680D01*
X407712Y262708D01*
X407693Y262727D01*
X407684Y262736D01*
X407679Y262740D01*
Y263050D01*
X409749D01*
Y262671D01*
D02*
G37*
G36*
X401501Y230368D02*
X401561Y230279D01*
X401634Y230190D01*
X401700Y230112D01*
X401767Y230046D01*
X401817Y229990D01*
X401839Y229974D01*
X401856Y229957D01*
X401861Y229951D01*
X401867Y229946D01*
X401983Y229851D01*
X402100Y229763D01*
X402211Y229685D01*
X402322Y229624D01*
X402416Y229568D01*
X402455Y229546D01*
X402488Y229530D01*
X402516Y229513D01*
X402538Y229507D01*
X402549Y229496D01*
X402555D01*
Y229041D01*
X402472Y229074D01*
X402388Y229113D01*
X402305Y229152D01*
X402228Y229191D01*
X402161Y229224D01*
X402106Y229252D01*
X402072Y229274D01*
X402067Y229280D01*
X402061D01*
X401961Y229341D01*
X401872Y229402D01*
X401795Y229457D01*
X401734Y229507D01*
X401678Y229546D01*
X401645Y229579D01*
X401617Y229602D01*
X401612Y229607D01*
Y226605D01*
X401140D01*
Y230462D01*
X401445D01*
X401501Y230368D01*
D02*
G37*
G36*
X398681Y230456D02*
X398786Y230445D01*
X398886Y230423D01*
X398981Y230395D01*
X399064Y230357D01*
X399147Y230323D01*
X399219Y230279D01*
X399286Y230240D01*
X399342Y230201D01*
X399397Y230157D01*
X399441Y230123D01*
X399475Y230090D01*
X399502Y230057D01*
X399525Y230035D01*
X399536Y230024D01*
X399541Y230018D01*
X399613Y229918D01*
X399675Y229802D01*
X399730Y229679D01*
X399780Y229552D01*
X399819Y229418D01*
X399852Y229285D01*
X399880Y229147D01*
X399902Y229019D01*
X399919Y228891D01*
X399930Y228775D01*
X399941Y228669D01*
X399946Y228580D01*
Y228503D01*
X399952Y228447D01*
Y228425D01*
Y228408D01*
Y228403D01*
Y228397D01*
X399946Y228220D01*
X399935Y228053D01*
X399919Y227898D01*
X399891Y227753D01*
X399863Y227626D01*
X399835Y227509D01*
X399802Y227404D01*
X399763Y227309D01*
X399730Y227232D01*
X399697Y227160D01*
X399669Y227104D01*
X399636Y227054D01*
X399613Y227015D01*
X399597Y226993D01*
X399586Y226976D01*
X399580Y226971D01*
X399508Y226893D01*
X399430Y226827D01*
X399353Y226771D01*
X399275Y226721D01*
X399192Y226677D01*
X399114Y226643D01*
X399036Y226616D01*
X398959Y226594D01*
X398892Y226577D01*
X398825Y226560D01*
X398770Y226549D01*
X398720Y226544D01*
X398676D01*
X398648Y226538D01*
X398620D01*
X398492Y226544D01*
X398376Y226566D01*
X398270Y226588D01*
X398176Y226621D01*
X398104Y226649D01*
X398048Y226677D01*
X398026Y226682D01*
X398009Y226694D01*
X398004Y226699D01*
X397998D01*
X397904Y226766D01*
X397815Y226843D01*
X397743Y226921D01*
X397682Y226999D01*
X397632Y227071D01*
X397599Y227126D01*
X397588Y227149D01*
X397577Y227165D01*
X397571Y227171D01*
Y227176D01*
X397516Y227293D01*
X397477Y227415D01*
X397449Y227526D01*
X397432Y227631D01*
X397416Y227720D01*
Y227753D01*
X397410Y227787D01*
Y227815D01*
Y227831D01*
Y227842D01*
Y227848D01*
X397416Y227948D01*
X397427Y228042D01*
X397443Y228136D01*
X397460Y228220D01*
X397488Y228297D01*
X397516Y228375D01*
X397543Y228442D01*
X397577Y228503D01*
X397610Y228558D01*
X397638Y228608D01*
X397666Y228647D01*
X397693Y228686D01*
X397710Y228714D01*
X397726Y228730D01*
X397738Y228741D01*
X397743Y228747D01*
X397804Y228808D01*
X397871Y228864D01*
X397943Y228908D01*
X398009Y228947D01*
X398076Y228986D01*
X398143Y229013D01*
X398270Y229052D01*
X398326Y229069D01*
X398381Y229080D01*
X398426Y229085D01*
X398470Y229091D01*
X398503Y229097D01*
X398548D01*
X398648Y229091D01*
X398742Y229074D01*
X398831Y229058D01*
X398909Y229036D01*
X398975Y229008D01*
X399025Y228991D01*
X399059Y228975D01*
X399064Y228969D01*
X399070D01*
X399158Y228913D01*
X399236Y228852D01*
X399308Y228791D01*
X399364Y228725D01*
X399414Y228669D01*
X399453Y228625D01*
X399475Y228592D01*
X399480Y228586D01*
Y228686D01*
X399475Y228786D01*
X399469Y228875D01*
X399458Y228963D01*
X399453Y229041D01*
X399441Y229113D01*
X399430Y229180D01*
X399414Y229241D01*
X399403Y229296D01*
X399392Y229341D01*
X399380Y229380D01*
X399375Y229413D01*
X399364Y229435D01*
X399358Y229452D01*
X399353Y229463D01*
Y229468D01*
X399297Y229579D01*
X399242Y229679D01*
X399181Y229757D01*
X399125Y229824D01*
X399075Y229879D01*
X399036Y229918D01*
X399009Y229940D01*
X398997Y229946D01*
X398931Y229990D01*
X398864Y230018D01*
X398798Y230040D01*
X398731Y230057D01*
X398681Y230068D01*
X398637Y230073D01*
X398598D01*
X398498Y230062D01*
X398404Y230040D01*
X398326Y230007D01*
X398254Y229974D01*
X398198Y229935D01*
X398159Y229901D01*
X398137Y229879D01*
X398126Y229868D01*
X398087Y229818D01*
X398048Y229757D01*
X398015Y229691D01*
X397993Y229624D01*
X397971Y229563D01*
X397954Y229513D01*
X397949Y229480D01*
X397943Y229474D01*
Y229468D01*
X397471Y229507D01*
X397504Y229663D01*
X397554Y229802D01*
X397610Y229924D01*
X397671Y230024D01*
X397732Y230101D01*
X397754Y230135D01*
X397782Y230162D01*
X397799Y230179D01*
X397815Y230195D01*
X397821Y230201D01*
X397826Y230207D01*
X397882Y230251D01*
X397943Y230290D01*
X398065Y230357D01*
X398187Y230401D01*
X398304Y230429D01*
X398409Y230451D01*
X398453Y230456D01*
X398492D01*
X398526Y230462D01*
X398570D01*
X398681Y230456D01*
D02*
G37*
G36*
X406590Y226605D02*
X406079D01*
Y228309D01*
X405424D01*
X405363Y228303D01*
X405319D01*
X405280Y228297D01*
X405252Y228292D01*
X405230D01*
X405219Y228286D01*
X405213D01*
X405125Y228259D01*
X405086Y228242D01*
X405053Y228225D01*
X405019Y228209D01*
X404997Y228198D01*
X404986Y228192D01*
X404980Y228186D01*
X404936Y228153D01*
X404892Y228114D01*
X404808Y228031D01*
X404770Y227992D01*
X404742Y227959D01*
X404725Y227937D01*
X404719Y227931D01*
X404664Y227853D01*
X404603Y227770D01*
X404542Y227681D01*
X404481Y227598D01*
X404431Y227520D01*
X404392Y227459D01*
X404375Y227437D01*
X404364Y227420D01*
X404353Y227409D01*
Y227404D01*
X403848Y226605D01*
X403216D01*
X403876Y227648D01*
X403954Y227759D01*
X404026Y227859D01*
X404098Y227942D01*
X404159Y228020D01*
X404214Y228075D01*
X404259Y228120D01*
X404287Y228148D01*
X404298Y228159D01*
X404342Y228192D01*
X404392Y228231D01*
X404492Y228292D01*
X404536Y228314D01*
X404570Y228336D01*
X404592Y228347D01*
X404603Y228353D01*
X404503Y228370D01*
X404409Y228386D01*
X404325Y228414D01*
X404242Y228436D01*
X404170Y228464D01*
X404104Y228497D01*
X404042Y228525D01*
X403987Y228553D01*
X403942Y228586D01*
X403898Y228614D01*
X403865Y228636D01*
X403837Y228658D01*
X403815Y228675D01*
X403798Y228692D01*
X403793Y228697D01*
X403787Y228703D01*
X403743Y228758D01*
X403698Y228814D01*
X403632Y228930D01*
X403587Y229047D01*
X403554Y229158D01*
X403532Y229252D01*
X403526Y229291D01*
Y229330D01*
X403521Y229358D01*
Y229380D01*
Y229391D01*
Y229396D01*
X403526Y229513D01*
X403543Y229618D01*
X403571Y229718D01*
X403598Y229802D01*
X403632Y229874D01*
X403654Y229929D01*
X403676Y229962D01*
X403682Y229968D01*
Y229974D01*
X403748Y230062D01*
X403815Y230140D01*
X403887Y230207D01*
X403954Y230257D01*
X404015Y230295D01*
X404065Y230318D01*
X404098Y230334D01*
X404104Y230340D01*
X404109D01*
X404159Y230357D01*
X404220Y230373D01*
X404342Y230401D01*
X404475Y230417D01*
X404597Y230434D01*
X404714Y230440D01*
X404764D01*
X404808Y230445D01*
X406590D01*
Y226605D01*
D02*
G37*
G36*
X358034Y265766D02*
X358095Y265677D01*
X358167Y265588D01*
X358234Y265510D01*
X358301Y265444D01*
X358351Y265388D01*
X358373Y265371D01*
X358389Y265355D01*
X358395Y265349D01*
X358401Y265344D01*
X358517Y265249D01*
X358634Y265161D01*
X358745Y265083D01*
X358856Y265022D01*
X358950Y264966D01*
X358989Y264944D01*
X359022Y264928D01*
X359050Y264911D01*
X359072Y264905D01*
X359083Y264894D01*
X359089D01*
Y264439D01*
X359005Y264472D01*
X358922Y264511D01*
X358839Y264550D01*
X358761Y264589D01*
X358695Y264622D01*
X358639Y264650D01*
X358606Y264672D01*
X358600Y264678D01*
X358595D01*
X358495Y264739D01*
X358406Y264800D01*
X358328Y264855D01*
X358267Y264905D01*
X358212Y264944D01*
X358178Y264978D01*
X358151Y265000D01*
X358145Y265005D01*
Y262003D01*
X357674D01*
Y265860D01*
X357979D01*
X358034Y265766D01*
D02*
G37*
G36*
X363129Y262003D02*
X361747D01*
X361619Y262008D01*
X361503Y262014D01*
X361398Y262025D01*
X361309Y262036D01*
X361231Y262047D01*
X361175Y262053D01*
X361159Y262058D01*
X361142Y262064D01*
X361131D01*
X361031Y262091D01*
X360942Y262125D01*
X360865Y262153D01*
X360798Y262186D01*
X360743Y262214D01*
X360704Y262236D01*
X360682Y262252D01*
X360670Y262258D01*
X360598Y262308D01*
X360537Y262369D01*
X360476Y262424D01*
X360426Y262480D01*
X360382Y262530D01*
X360349Y262569D01*
X360326Y262597D01*
X360321Y262608D01*
X360265Y262696D01*
X360210Y262791D01*
X360165Y262880D01*
X360132Y262968D01*
X360099Y263046D01*
X360077Y263107D01*
X360071Y263129D01*
X360066Y263146D01*
X360060Y263157D01*
Y263163D01*
X360027Y263296D01*
X359999Y263429D01*
X359982Y263557D01*
X359966Y263679D01*
X359960Y263784D01*
Y263829D01*
X359955Y263867D01*
Y263895D01*
Y263923D01*
Y263934D01*
Y263940D01*
X359960Y264128D01*
X359977Y264300D01*
X360004Y264456D01*
X360016Y264528D01*
X360032Y264589D01*
X360049Y264650D01*
X360060Y264700D01*
X360071Y264744D01*
X360088Y264783D01*
X360093Y264816D01*
X360104Y264839D01*
X360110Y264850D01*
Y264855D01*
X360171Y265000D01*
X360243Y265127D01*
X360321Y265238D01*
X360393Y265333D01*
X360460Y265410D01*
X360515Y265466D01*
X360537Y265482D01*
X360554Y265499D01*
X360560Y265505D01*
X360565Y265510D01*
X360654Y265582D01*
X360748Y265638D01*
X360842Y265688D01*
X360931Y265727D01*
X361009Y265755D01*
X361070Y265771D01*
X361092Y265782D01*
X361109D01*
X361120Y265788D01*
X361126D01*
X361220Y265804D01*
X361331Y265821D01*
X361442Y265832D01*
X361553Y265838D01*
X361653Y265843D01*
X363129D01*
Y262003D01*
D02*
G37*
G36*
X347551Y232343D02*
X347612Y232254D01*
X347684Y232165D01*
X347751Y232087D01*
X347817Y232021D01*
X347867Y231965D01*
X347889Y231948D01*
X347906Y231932D01*
X347912Y231926D01*
X347917Y231921D01*
X348034Y231826D01*
X348150Y231738D01*
X348261Y231660D01*
X348372Y231599D01*
X348467Y231543D01*
X348505Y231521D01*
X348539Y231505D01*
X348567Y231488D01*
X348589Y231482D01*
X348600Y231471D01*
X348605D01*
Y231016D01*
X348522Y231049D01*
X348439Y231088D01*
X348356Y231127D01*
X348278Y231166D01*
X348211Y231199D01*
X348156Y231227D01*
X348123Y231249D01*
X348117Y231255D01*
X348112D01*
X348012Y231316D01*
X347923Y231377D01*
X347845Y231432D01*
X347784Y231482D01*
X347728Y231521D01*
X347695Y231555D01*
X347668Y231577D01*
X347662Y231582D01*
Y228580D01*
X347190D01*
Y232437D01*
X347495D01*
X347551Y232343D01*
D02*
G37*
G36*
X344565D02*
X344626Y232254D01*
X344698Y232165D01*
X344765Y232087D01*
X344831Y232021D01*
X344881Y231965D01*
X344904Y231948D01*
X344920Y231932D01*
X344926Y231926D01*
X344931Y231921D01*
X345048Y231826D01*
X345164Y231738D01*
X345275Y231660D01*
X345387Y231599D01*
X345481Y231543D01*
X345520Y231521D01*
X345553Y231505D01*
X345581Y231488D01*
X345603Y231482D01*
X345614Y231471D01*
X345620D01*
Y231016D01*
X345536Y231049D01*
X345453Y231088D01*
X345370Y231127D01*
X345292Y231166D01*
X345226Y231199D01*
X345170Y231227D01*
X345137Y231249D01*
X345131Y231255D01*
X345126D01*
X345026Y231316D01*
X344937Y231377D01*
X344859Y231432D01*
X344798Y231482D01*
X344743Y231521D01*
X344709Y231555D01*
X344682Y231577D01*
X344676Y231582D01*
Y228580D01*
X344204D01*
Y232437D01*
X344510D01*
X344565Y232343D01*
D02*
G37*
G36*
X351169Y232476D02*
X351347Y232448D01*
X351503Y232415D01*
X351575Y232393D01*
X351641Y232370D01*
X351702Y232348D01*
X351758Y232326D01*
X351802Y232309D01*
X351847Y232293D01*
X351874Y232276D01*
X351897Y232265D01*
X351913Y232259D01*
X351919Y232254D01*
X352069Y232159D01*
X352196Y232049D01*
X352307Y231937D01*
X352402Y231826D01*
X352474Y231727D01*
X352502Y231682D01*
X352524Y231643D01*
X352546Y231615D01*
X352557Y231593D01*
X352563Y231577D01*
X352568Y231571D01*
X352646Y231399D01*
X352701Y231222D01*
X352740Y231044D01*
X352768Y230883D01*
X352779Y230811D01*
X352785Y230739D01*
X352790Y230683D01*
Y230628D01*
X352796Y230589D01*
Y230556D01*
Y230533D01*
Y230528D01*
X352785Y230328D01*
X352762Y230134D01*
X352735Y229962D01*
X352712Y229878D01*
X352696Y229806D01*
X352679Y229740D01*
X352657Y229679D01*
X352640Y229623D01*
X352629Y229579D01*
X352613Y229545D01*
X352607Y229518D01*
X352596Y229501D01*
Y229495D01*
X352513Y229329D01*
X352418Y229179D01*
X352318Y229051D01*
X352268Y229001D01*
X352224Y228952D01*
X352180Y228907D01*
X352135Y228868D01*
X352096Y228835D01*
X352063Y228813D01*
X352041Y228791D01*
X352019Y228774D01*
X352008Y228768D01*
X352002Y228763D01*
X351924Y228718D01*
X351847Y228680D01*
X351680Y228619D01*
X351514Y228574D01*
X351353Y228546D01*
X351275Y228535D01*
X351208Y228524D01*
X351147Y228519D01*
X351097D01*
X351053Y228513D01*
X350992D01*
X350881Y228519D01*
X350776Y228530D01*
X350676Y228541D01*
X350581Y228563D01*
X350493Y228591D01*
X350409Y228619D01*
X350331Y228646D01*
X350259Y228680D01*
X350198Y228707D01*
X350137Y228735D01*
X350093Y228763D01*
X350048Y228791D01*
X350021Y228813D01*
X349993Y228824D01*
X349982Y228835D01*
X349976Y228840D01*
X349899Y228907D01*
X349832Y228974D01*
X349771Y229051D01*
X349710Y229129D01*
X349610Y229285D01*
X349532Y229440D01*
X349499Y229512D01*
X349471Y229579D01*
X349449Y229640D01*
X349432Y229690D01*
X349416Y229734D01*
X349405Y229767D01*
X349399Y229790D01*
Y229795D01*
X349910Y229923D01*
X349932Y229834D01*
X349960Y229751D01*
X349987Y229673D01*
X350015Y229601D01*
X350048Y229534D01*
X350082Y229479D01*
X350121Y229423D01*
X350154Y229373D01*
X350182Y229329D01*
X350215Y229296D01*
X350243Y229262D01*
X350265Y229235D01*
X350287Y229218D01*
X350304Y229201D01*
X350309Y229196D01*
X350315Y229190D01*
X350370Y229146D01*
X350431Y229113D01*
X350553Y229051D01*
X350670Y229007D01*
X350787Y228979D01*
X350887Y228957D01*
X350925Y228952D01*
X350964D01*
X350997Y228946D01*
X351036D01*
X351164Y228952D01*
X351286Y228974D01*
X351397Y229001D01*
X351497Y229035D01*
X351575Y229068D01*
X351608Y229085D01*
X351636Y229096D01*
X351658Y229107D01*
X351675Y229118D01*
X351686Y229124D01*
X351691D01*
X351797Y229201D01*
X351886Y229285D01*
X351963Y229379D01*
X352024Y229468D01*
X352074Y229545D01*
X352108Y229612D01*
X352119Y229640D01*
X352130Y229656D01*
X352135Y229667D01*
Y229673D01*
X352180Y229817D01*
X352213Y229962D01*
X352241Y230106D01*
X352257Y230239D01*
X352263Y230300D01*
X352268Y230356D01*
Y230406D01*
X352274Y230445D01*
Y230478D01*
Y230505D01*
Y230522D01*
Y230528D01*
X352268Y230672D01*
X352257Y230805D01*
X352235Y230927D01*
X352213Y231038D01*
X352196Y231133D01*
X352185Y231171D01*
X352174Y231205D01*
X352169Y231233D01*
X352163Y231249D01*
X352157Y231260D01*
Y231266D01*
X352102Y231394D01*
X352041Y231510D01*
X351974Y231604D01*
X351902Y231688D01*
X351841Y231754D01*
X351791Y231799D01*
X351752Y231826D01*
X351747Y231838D01*
X351741D01*
X351625Y231910D01*
X351497Y231965D01*
X351375Y232004D01*
X351258Y232026D01*
X351153Y232043D01*
X351109Y232049D01*
X351070D01*
X351042Y232054D01*
X350997D01*
X350859Y232049D01*
X350731Y232026D01*
X350626Y231993D01*
X350531Y231960D01*
X350459Y231921D01*
X350404Y231893D01*
X350370Y231871D01*
X350359Y231860D01*
X350270Y231776D01*
X350187Y231682D01*
X350121Y231582D01*
X350065Y231482D01*
X350021Y231394D01*
X350004Y231349D01*
X349993Y231316D01*
X349982Y231288D01*
X349971Y231266D01*
X349965Y231255D01*
Y231249D01*
X349466Y231366D01*
X349499Y231466D01*
X349532Y231555D01*
X349577Y231638D01*
X349616Y231721D01*
X349660Y231793D01*
X349710Y231860D01*
X349754Y231926D01*
X349799Y231982D01*
X349843Y232026D01*
X349882Y232071D01*
X349921Y232109D01*
X349949Y232137D01*
X349976Y232165D01*
X349998Y232182D01*
X350010Y232187D01*
X350015Y232193D01*
X350093Y232243D01*
X350171Y232293D01*
X350248Y232331D01*
X350331Y232365D01*
X350498Y232415D01*
X350648Y232448D01*
X350720Y232465D01*
X350781Y232470D01*
X350842Y232476D01*
X350892Y232481D01*
X350931Y232487D01*
X350986D01*
X351169Y232476D01*
D02*
G37*
G36*
X425855Y265463D02*
X425916Y265374D01*
X425988Y265285D01*
X426055Y265208D01*
X426122Y265141D01*
X426172Y265086D01*
X426194Y265069D01*
X426210Y265052D01*
X426216Y265047D01*
X426222Y265041D01*
X426338Y264947D01*
X426455Y264858D01*
X426566Y264780D01*
X426677Y264719D01*
X426771Y264664D01*
X426810Y264641D01*
X426843Y264625D01*
X426871Y264608D01*
X426893Y264603D01*
X426904Y264592D01*
X426910D01*
Y264137D01*
X426826Y264170D01*
X426743Y264209D01*
X426660Y264247D01*
X426582Y264286D01*
X426516Y264320D01*
X426460Y264347D01*
X426427Y264370D01*
X426421Y264375D01*
X426416D01*
X426316Y264436D01*
X426227Y264497D01*
X426149Y264553D01*
X426088Y264603D01*
X426033Y264641D01*
X425999Y264675D01*
X425972Y264697D01*
X425966Y264703D01*
Y261700D01*
X425494D01*
Y265557D01*
X425800D01*
X425855Y265463D01*
D02*
G37*
G36*
X429474Y265596D02*
X429651Y265568D01*
X429807Y265535D01*
X429879Y265513D01*
X429946Y265491D01*
X430007Y265468D01*
X430062Y265446D01*
X430106Y265430D01*
X430151Y265413D01*
X430179Y265396D01*
X430201Y265385D01*
X430218Y265380D01*
X430223Y265374D01*
X430373Y265280D01*
X430501Y265169D01*
X430612Y265058D01*
X430706Y264947D01*
X430778Y264847D01*
X430806Y264802D01*
X430828Y264764D01*
X430850Y264736D01*
X430861Y264714D01*
X430867Y264697D01*
X430872Y264691D01*
X430950Y264519D01*
X431006Y264342D01*
X431044Y264164D01*
X431072Y264003D01*
X431083Y263931D01*
X431089Y263859D01*
X431094Y263804D01*
Y263748D01*
X431100Y263709D01*
Y263676D01*
Y263654D01*
Y263648D01*
X431089Y263448D01*
X431067Y263254D01*
X431039Y263082D01*
X431017Y262999D01*
X431000Y262927D01*
X430983Y262860D01*
X430961Y262799D01*
X430945Y262743D01*
X430934Y262699D01*
X430917Y262666D01*
X430911Y262638D01*
X430900Y262621D01*
Y262616D01*
X430817Y262449D01*
X430723Y262299D01*
X430623Y262172D01*
X430573Y262122D01*
X430528Y262072D01*
X430484Y262027D01*
X430440Y261989D01*
X430401Y261955D01*
X430367Y261933D01*
X430345Y261911D01*
X430323Y261894D01*
X430312Y261889D01*
X430306Y261883D01*
X430229Y261839D01*
X430151Y261800D01*
X429985Y261739D01*
X429818Y261695D01*
X429657Y261667D01*
X429579Y261656D01*
X429513Y261645D01*
X429452Y261639D01*
X429402D01*
X429357Y261633D01*
X429296D01*
X429185Y261639D01*
X429080Y261650D01*
X428980Y261661D01*
X428886Y261683D01*
X428797Y261711D01*
X428714Y261739D01*
X428636Y261767D01*
X428564Y261800D01*
X428503Y261828D01*
X428442Y261855D01*
X428397Y261883D01*
X428353Y261911D01*
X428325Y261933D01*
X428297Y261944D01*
X428286Y261955D01*
X428281Y261961D01*
X428203Y262027D01*
X428136Y262094D01*
X428075Y262172D01*
X428014Y262249D01*
X427914Y262405D01*
X427837Y262560D01*
X427803Y262632D01*
X427776Y262699D01*
X427753Y262760D01*
X427737Y262810D01*
X427720Y262854D01*
X427709Y262888D01*
X427703Y262910D01*
Y262915D01*
X428214Y263043D01*
X428236Y262954D01*
X428264Y262871D01*
X428292Y262793D01*
X428319Y262721D01*
X428353Y262655D01*
X428386Y262599D01*
X428425Y262544D01*
X428458Y262494D01*
X428486Y262449D01*
X428519Y262416D01*
X428547Y262383D01*
X428569Y262355D01*
X428591Y262338D01*
X428608Y262322D01*
X428614Y262316D01*
X428619Y262311D01*
X428675Y262266D01*
X428736Y262233D01*
X428858Y262172D01*
X428974Y262127D01*
X429091Y262100D01*
X429191Y262077D01*
X429230Y262072D01*
X429269D01*
X429302Y262066D01*
X429341D01*
X429468Y262072D01*
X429590Y262094D01*
X429701Y262122D01*
X429801Y262155D01*
X429879Y262188D01*
X429912Y262205D01*
X429940Y262216D01*
X429962Y262227D01*
X429979Y262238D01*
X429990Y262244D01*
X429996D01*
X430101Y262322D01*
X430190Y262405D01*
X430267Y262499D01*
X430329Y262588D01*
X430378Y262666D01*
X430412Y262732D01*
X430423Y262760D01*
X430434Y262777D01*
X430440Y262788D01*
Y262793D01*
X430484Y262938D01*
X430517Y263082D01*
X430545Y263226D01*
X430562Y263359D01*
X430567Y263421D01*
X430573Y263476D01*
Y263526D01*
X430578Y263565D01*
Y263598D01*
Y263626D01*
Y263643D01*
Y263648D01*
X430573Y263792D01*
X430562Y263926D01*
X430540Y264048D01*
X430517Y264159D01*
X430501Y264253D01*
X430489Y264292D01*
X430478Y264325D01*
X430473Y264353D01*
X430467Y264370D01*
X430462Y264381D01*
Y264386D01*
X430406Y264514D01*
X430345Y264630D01*
X430279Y264725D01*
X430206Y264808D01*
X430145Y264875D01*
X430095Y264919D01*
X430057Y264947D01*
X430051Y264958D01*
X430046D01*
X429929Y265030D01*
X429801Y265086D01*
X429679Y265124D01*
X429563Y265146D01*
X429457Y265163D01*
X429413Y265169D01*
X429374D01*
X429346Y265174D01*
X429302D01*
X429163Y265169D01*
X429035Y265146D01*
X428930Y265113D01*
X428836Y265080D01*
X428763Y265041D01*
X428708Y265013D01*
X428675Y264991D01*
X428664Y264980D01*
X428575Y264897D01*
X428491Y264802D01*
X428425Y264703D01*
X428369Y264603D01*
X428325Y264514D01*
X428308Y264470D01*
X428297Y264436D01*
X428286Y264408D01*
X428275Y264386D01*
X428269Y264375D01*
Y264370D01*
X427770Y264486D01*
X427803Y264586D01*
X427837Y264675D01*
X427881Y264758D01*
X427920Y264841D01*
X427964Y264914D01*
X428014Y264980D01*
X428059Y265047D01*
X428103Y265102D01*
X428147Y265146D01*
X428186Y265191D01*
X428225Y265230D01*
X428253Y265258D01*
X428281Y265285D01*
X428303Y265302D01*
X428314Y265307D01*
X428319Y265313D01*
X428397Y265363D01*
X428475Y265413D01*
X428552Y265452D01*
X428636Y265485D01*
X428802Y265535D01*
X428952Y265568D01*
X429024Y265585D01*
X429085Y265591D01*
X429146Y265596D01*
X429196Y265602D01*
X429235Y265607D01*
X429291D01*
X429474Y265596D01*
D02*
G37*
G36*
X423180Y265546D02*
X423319Y265524D01*
X423435Y265485D01*
X423535Y265446D01*
X423619Y265402D01*
X423652Y265385D01*
X423680Y265363D01*
X423702Y265352D01*
X423719Y265341D01*
X423724Y265330D01*
X423730D01*
X423830Y265241D01*
X423913Y265135D01*
X423985Y265030D01*
X424040Y264930D01*
X424085Y264836D01*
X424107Y264797D01*
X424118Y264758D01*
X424129Y264730D01*
X424140Y264708D01*
X424146Y264697D01*
Y264691D01*
X424168Y264608D01*
X424190Y264525D01*
X424224Y264342D01*
X424251Y264159D01*
X424268Y263987D01*
X424273Y263903D01*
X424279Y263831D01*
Y263765D01*
X424285Y263703D01*
Y263659D01*
Y263620D01*
Y263598D01*
Y263593D01*
X424279Y263398D01*
X424268Y263215D01*
X424251Y263049D01*
X424224Y262893D01*
X424196Y262749D01*
X424162Y262621D01*
X424129Y262505D01*
X424096Y262405D01*
X424063Y262316D01*
X424024Y262238D01*
X423996Y262172D01*
X423968Y262122D01*
X423941Y262077D01*
X423924Y262050D01*
X423913Y262033D01*
X423907Y262027D01*
X423846Y261961D01*
X423780Y261900D01*
X423707Y261844D01*
X423635Y261800D01*
X423563Y261761D01*
X423491Y261728D01*
X423419Y261705D01*
X423352Y261683D01*
X423286Y261667D01*
X423224Y261656D01*
X423169Y261645D01*
X423125Y261639D01*
X423086Y261633D01*
X423030D01*
X422881Y261645D01*
X422742Y261667D01*
X422625Y261705D01*
X422525Y261744D01*
X422442Y261783D01*
X422414Y261806D01*
X422387Y261822D01*
X422364Y261833D01*
X422348Y261844D01*
X422342Y261855D01*
X422336D01*
X422237Y261950D01*
X422153Y262050D01*
X422081Y262161D01*
X422026Y262261D01*
X421981Y262355D01*
X421959Y262394D01*
X421948Y262433D01*
X421937Y262460D01*
X421926Y262483D01*
X421920Y262494D01*
Y262499D01*
X421893Y262582D01*
X421870Y262666D01*
X421837Y262843D01*
X421809Y263026D01*
X421793Y263204D01*
X421787Y263282D01*
X421781Y263354D01*
Y263421D01*
X421776Y263482D01*
Y263526D01*
Y263565D01*
Y263587D01*
Y263593D01*
Y263698D01*
X421781Y263798D01*
Y263887D01*
X421787Y263976D01*
X421798Y264053D01*
X421804Y264131D01*
X421809Y264197D01*
X421820Y264259D01*
X421826Y264314D01*
X421837Y264364D01*
X421843Y264403D01*
X421848Y264436D01*
X421854Y264464D01*
X421859Y264480D01*
X421865Y264492D01*
Y264497D01*
X421898Y264619D01*
X421937Y264730D01*
X421981Y264825D01*
X422015Y264908D01*
X422053Y264980D01*
X422076Y265030D01*
X422098Y265058D01*
X422103Y265069D01*
X422164Y265152D01*
X422226Y265224D01*
X422292Y265285D01*
X422353Y265341D01*
X422409Y265380D01*
X422453Y265407D01*
X422481Y265424D01*
X422486Y265430D01*
X422492D01*
X422581Y265474D01*
X422675Y265502D01*
X422764Y265524D01*
X422847Y265541D01*
X422919Y265552D01*
X422980Y265557D01*
X423030D01*
X423180Y265546D01*
D02*
G37*
G36*
X383738Y237431D02*
X383827Y237420D01*
X383915Y237404D01*
X383993Y237381D01*
X384143Y237320D01*
X384210Y237293D01*
X384265Y237259D01*
X384321Y237221D01*
X384365Y237193D01*
X384409Y237159D01*
X384443Y237132D01*
X384471Y237109D01*
X384487Y237093D01*
X384498Y237082D01*
X384504Y237076D01*
X384565Y237010D01*
X384615Y236932D01*
X384665Y236860D01*
X384704Y236782D01*
X384737Y236699D01*
X384765Y236621D01*
X384804Y236477D01*
X384820Y236405D01*
X384831Y236344D01*
X384837Y236282D01*
X384842Y236233D01*
X384848Y236194D01*
Y236166D01*
Y236144D01*
Y236138D01*
X384842Y236033D01*
X384831Y235939D01*
X384820Y235844D01*
X384798Y235755D01*
X384770Y235678D01*
X384742Y235600D01*
X384715Y235533D01*
X384681Y235472D01*
X384654Y235417D01*
X384626Y235367D01*
X384598Y235328D01*
X384570Y235289D01*
X384548Y235261D01*
X384537Y235245D01*
X384526Y235234D01*
X384520Y235228D01*
X384459Y235167D01*
X384393Y235117D01*
X384326Y235067D01*
X384254Y235028D01*
X384187Y234995D01*
X384121Y234967D01*
X383993Y234928D01*
X383938Y234912D01*
X383882Y234901D01*
X383838Y234895D01*
X383793Y234890D01*
X383760Y234884D01*
X383716D01*
X383610Y234890D01*
X383510Y234906D01*
X383421Y234928D01*
X383338Y234956D01*
X383277Y234978D01*
X383227Y235000D01*
X383194Y235017D01*
X383183Y235023D01*
X383094Y235078D01*
X383016Y235139D01*
X382950Y235200D01*
X382894Y235256D01*
X382855Y235311D01*
X382822Y235350D01*
X382800Y235378D01*
X382794Y235389D01*
Y235345D01*
Y235317D01*
Y235300D01*
Y235295D01*
X382800Y235184D01*
X382805Y235078D01*
X382817Y234984D01*
X382828Y234895D01*
X382844Y234823D01*
X382855Y234767D01*
X382861Y234745D01*
Y234729D01*
X382867Y234723D01*
Y234717D01*
X382894Y234617D01*
X382922Y234529D01*
X382950Y234451D01*
X382978Y234384D01*
X383000Y234334D01*
X383022Y234296D01*
X383033Y234268D01*
X383039Y234262D01*
X383083Y234201D01*
X383127Y234151D01*
X383172Y234107D01*
X383216Y234068D01*
X383249Y234035D01*
X383283Y234013D01*
X383305Y234001D01*
X383311Y233996D01*
X383372Y233963D01*
X383438Y233941D01*
X383499Y233924D01*
X383560Y233913D01*
X383610Y233907D01*
X383649Y233902D01*
X383688D01*
X383777Y233907D01*
X383860Y233924D01*
X383932Y233946D01*
X383993Y233974D01*
X384038Y233996D01*
X384076Y234018D01*
X384099Y234035D01*
X384104Y234040D01*
X384160Y234101D01*
X384204Y234173D01*
X384243Y234251D01*
X384271Y234329D01*
X384293Y234396D01*
X384310Y234457D01*
X384315Y234479D01*
Y234490D01*
X384321Y234501D01*
Y234507D01*
X384776Y234468D01*
X384742Y234307D01*
X384698Y234168D01*
X384643Y234046D01*
X384587Y233946D01*
X384531Y233868D01*
X384504Y233835D01*
X384482Y233807D01*
X384465Y233791D01*
X384448Y233774D01*
X384443Y233768D01*
X384437Y233763D01*
X384382Y233718D01*
X384321Y233680D01*
X384198Y233619D01*
X384076Y233574D01*
X383960Y233546D01*
X383854Y233524D01*
X383810Y233519D01*
X383771D01*
X383743Y233513D01*
X383699D01*
X383544Y233524D01*
X383405Y233546D01*
X383277Y233585D01*
X383172Y233630D01*
X383127Y233646D01*
X383083Y233668D01*
X383050Y233691D01*
X383016Y233707D01*
X382994Y233718D01*
X382978Y233730D01*
X382966Y233741D01*
X382961D01*
X382850Y233835D01*
X382750Y233941D01*
X382672Y234051D01*
X382606Y234157D01*
X382550Y234251D01*
X382528Y234296D01*
X382511Y234329D01*
X382500Y234362D01*
X382489Y234384D01*
X382484Y234396D01*
Y234401D01*
X382456Y234484D01*
X382428Y234579D01*
X382389Y234767D01*
X382362Y234967D01*
X382345Y235156D01*
X382334Y235239D01*
X382328Y235322D01*
Y235395D01*
X382323Y235456D01*
Y235506D01*
Y235544D01*
Y235572D01*
Y235578D01*
Y235705D01*
X382328Y235827D01*
X382339Y235939D01*
X382350Y236044D01*
X382362Y236138D01*
X382373Y236227D01*
X382389Y236310D01*
X382406Y236383D01*
X382422Y236443D01*
X382434Y236499D01*
X382450Y236549D01*
X382461Y236588D01*
X382472Y236615D01*
X382484Y236638D01*
X382489Y236649D01*
Y236654D01*
X382556Y236788D01*
X382628Y236904D01*
X382711Y237004D01*
X382783Y237087D01*
X382855Y237148D01*
X382911Y237193D01*
X382933Y237209D01*
X382950Y237221D01*
X382955Y237232D01*
X382961D01*
X383077Y237298D01*
X383194Y237348D01*
X383311Y237387D01*
X383416Y237409D01*
X383510Y237426D01*
X383549Y237431D01*
X383577D01*
X383605Y237437D01*
X383644D01*
X383738Y237431D01*
D02*
G37*
G36*
X387051Y237476D02*
X387229Y237448D01*
X387384Y237415D01*
X387456Y237392D01*
X387523Y237370D01*
X387584Y237348D01*
X387639Y237326D01*
X387684Y237309D01*
X387728Y237293D01*
X387756Y237276D01*
X387778Y237265D01*
X387795Y237259D01*
X387801Y237254D01*
X387950Y237159D01*
X388078Y237049D01*
X388189Y236937D01*
X388283Y236826D01*
X388355Y236726D01*
X388383Y236682D01*
X388405Y236643D01*
X388428Y236615D01*
X388439Y236593D01*
X388444Y236577D01*
X388450Y236571D01*
X388527Y236399D01*
X388583Y236222D01*
X388622Y236044D01*
X388650Y235883D01*
X388661Y235811D01*
X388666Y235739D01*
X388672Y235683D01*
Y235628D01*
X388677Y235589D01*
Y235556D01*
Y235533D01*
Y235528D01*
X388666Y235328D01*
X388644Y235134D01*
X388616Y234962D01*
X388594Y234878D01*
X388578Y234806D01*
X388561Y234740D01*
X388539Y234679D01*
X388522Y234623D01*
X388511Y234579D01*
X388494Y234545D01*
X388489Y234518D01*
X388478Y234501D01*
Y234495D01*
X388394Y234329D01*
X388300Y234179D01*
X388200Y234051D01*
X388150Y234001D01*
X388106Y233951D01*
X388061Y233907D01*
X388017Y233868D01*
X387978Y233835D01*
X387945Y233813D01*
X387923Y233791D01*
X387900Y233774D01*
X387889Y233768D01*
X387884Y233763D01*
X387806Y233718D01*
X387728Y233680D01*
X387562Y233619D01*
X387395Y233574D01*
X387234Y233546D01*
X387157Y233535D01*
X387090Y233524D01*
X387029Y233519D01*
X386979D01*
X386935Y233513D01*
X386874D01*
X386763Y233519D01*
X386657Y233530D01*
X386557Y233541D01*
X386463Y233563D01*
X386374Y233591D01*
X386291Y233619D01*
X386213Y233646D01*
X386141Y233680D01*
X386080Y233707D01*
X386019Y233735D01*
X385975Y233763D01*
X385930Y233791D01*
X385902Y233813D01*
X385875Y233824D01*
X385863Y233835D01*
X385858Y233840D01*
X385780Y233907D01*
X385714Y233974D01*
X385653Y234051D01*
X385592Y234129D01*
X385492Y234284D01*
X385414Y234440D01*
X385381Y234512D01*
X385353Y234579D01*
X385331Y234640D01*
X385314Y234690D01*
X385297Y234734D01*
X385286Y234767D01*
X385281Y234790D01*
Y234795D01*
X385791Y234923D01*
X385814Y234834D01*
X385841Y234751D01*
X385869Y234673D01*
X385897Y234601D01*
X385930Y234534D01*
X385963Y234479D01*
X386002Y234423D01*
X386036Y234373D01*
X386063Y234329D01*
X386097Y234296D01*
X386124Y234262D01*
X386147Y234235D01*
X386169Y234218D01*
X386185Y234201D01*
X386191Y234196D01*
X386196Y234190D01*
X386252Y234146D01*
X386313Y234113D01*
X386435Y234051D01*
X386552Y234007D01*
X386668Y233979D01*
X386768Y233957D01*
X386807Y233951D01*
X386846D01*
X386879Y233946D01*
X386918D01*
X387046Y233951D01*
X387168Y233974D01*
X387279Y234001D01*
X387379Y234035D01*
X387456Y234068D01*
X387490Y234085D01*
X387517Y234096D01*
X387540Y234107D01*
X387556Y234118D01*
X387567Y234124D01*
X387573D01*
X387678Y234201D01*
X387767Y234284D01*
X387845Y234379D01*
X387906Y234468D01*
X387956Y234545D01*
X387989Y234612D01*
X388000Y234640D01*
X388011Y234656D01*
X388017Y234667D01*
Y234673D01*
X388061Y234817D01*
X388095Y234962D01*
X388122Y235106D01*
X388139Y235239D01*
X388145Y235300D01*
X388150Y235356D01*
Y235406D01*
X388156Y235444D01*
Y235478D01*
Y235506D01*
Y235522D01*
Y235528D01*
X388150Y235672D01*
X388139Y235805D01*
X388117Y235927D01*
X388095Y236038D01*
X388078Y236133D01*
X388067Y236172D01*
X388056Y236205D01*
X388050Y236233D01*
X388045Y236249D01*
X388039Y236260D01*
Y236266D01*
X387984Y236394D01*
X387923Y236510D01*
X387856Y236604D01*
X387784Y236688D01*
X387723Y236754D01*
X387673Y236799D01*
X387634Y236826D01*
X387628Y236838D01*
X387623D01*
X387506Y236910D01*
X387379Y236965D01*
X387257Y237004D01*
X387140Y237026D01*
X387035Y237043D01*
X386990Y237049D01*
X386951D01*
X386924Y237054D01*
X386879D01*
X386740Y237049D01*
X386613Y237026D01*
X386507Y236993D01*
X386413Y236960D01*
X386341Y236921D01*
X386285Y236893D01*
X386252Y236871D01*
X386241Y236860D01*
X386152Y236776D01*
X386069Y236682D01*
X386002Y236582D01*
X385947Y236482D01*
X385902Y236394D01*
X385886Y236349D01*
X385875Y236316D01*
X385863Y236288D01*
X385852Y236266D01*
X385847Y236255D01*
Y236249D01*
X385347Y236366D01*
X385381Y236466D01*
X385414Y236555D01*
X385458Y236638D01*
X385497Y236721D01*
X385542Y236793D01*
X385592Y236860D01*
X385636Y236926D01*
X385680Y236982D01*
X385725Y237026D01*
X385764Y237071D01*
X385803Y237109D01*
X385830Y237137D01*
X385858Y237165D01*
X385880Y237182D01*
X385891Y237187D01*
X385897Y237193D01*
X385975Y237243D01*
X386052Y237293D01*
X386130Y237332D01*
X386213Y237365D01*
X386380Y237415D01*
X386529Y237448D01*
X386602Y237465D01*
X386663Y237470D01*
X386724Y237476D01*
X386774Y237481D01*
X386813Y237487D01*
X386868D01*
X387051Y237476D01*
D02*
G37*
G36*
X468051Y226476D02*
X468229Y226448D01*
X468384Y226415D01*
X468456Y226393D01*
X468523Y226370D01*
X468584Y226348D01*
X468640Y226326D01*
X468684Y226309D01*
X468728Y226293D01*
X468756Y226276D01*
X468778Y226265D01*
X468795Y226259D01*
X468800Y226254D01*
X468950Y226160D01*
X469078Y226048D01*
X469189Y225937D01*
X469283Y225827D01*
X469355Y225727D01*
X469383Y225682D01*
X469405Y225643D01*
X469428Y225616D01*
X469439Y225593D01*
X469444Y225577D01*
X469450Y225571D01*
X469527Y225399D01*
X469583Y225221D01*
X469622Y225044D01*
X469650Y224883D01*
X469661Y224811D01*
X469666Y224739D01*
X469672Y224683D01*
Y224628D01*
X469677Y224589D01*
Y224555D01*
Y224533D01*
Y224528D01*
X469666Y224328D01*
X469644Y224134D01*
X469616Y223962D01*
X469594Y223878D01*
X469578Y223806D01*
X469561Y223740D01*
X469539Y223679D01*
X469522Y223623D01*
X469511Y223579D01*
X469494Y223545D01*
X469489Y223518D01*
X469478Y223501D01*
Y223495D01*
X469394Y223329D01*
X469300Y223179D01*
X469200Y223052D01*
X469150Y223002D01*
X469106Y222952D01*
X469061Y222907D01*
X469017Y222868D01*
X468978Y222835D01*
X468945Y222813D01*
X468923Y222791D01*
X468900Y222774D01*
X468889Y222768D01*
X468884Y222763D01*
X468806Y222718D01*
X468728Y222680D01*
X468562Y222619D01*
X468395Y222574D01*
X468234Y222546D01*
X468157Y222535D01*
X468090Y222524D01*
X468029Y222519D01*
X467979D01*
X467935Y222513D01*
X467874D01*
X467763Y222519D01*
X467657Y222530D01*
X467557Y222541D01*
X467463Y222563D01*
X467374Y222591D01*
X467291Y222619D01*
X467213Y222646D01*
X467141Y222680D01*
X467080Y222707D01*
X467019Y222735D01*
X466974Y222763D01*
X466930Y222791D01*
X466902Y222813D01*
X466875Y222824D01*
X466863Y222835D01*
X466858Y222840D01*
X466780Y222907D01*
X466714Y222974D01*
X466653Y223052D01*
X466592Y223129D01*
X466492Y223285D01*
X466414Y223440D01*
X466381Y223512D01*
X466353Y223579D01*
X466331Y223640D01*
X466314Y223690D01*
X466297Y223734D01*
X466286Y223767D01*
X466281Y223790D01*
Y223795D01*
X466791Y223923D01*
X466814Y223834D01*
X466841Y223751D01*
X466869Y223673D01*
X466897Y223601D01*
X466930Y223534D01*
X466963Y223479D01*
X467002Y223423D01*
X467036Y223373D01*
X467063Y223329D01*
X467097Y223296D01*
X467124Y223262D01*
X467147Y223235D01*
X467169Y223218D01*
X467185Y223201D01*
X467191Y223196D01*
X467197Y223190D01*
X467252Y223146D01*
X467313Y223113D01*
X467435Y223052D01*
X467552Y223007D01*
X467668Y222979D01*
X467768Y222957D01*
X467807Y222952D01*
X467846D01*
X467879Y222946D01*
X467918D01*
X468046Y222952D01*
X468168Y222974D01*
X468279Y223002D01*
X468379Y223035D01*
X468456Y223068D01*
X468490Y223085D01*
X468517Y223096D01*
X468540Y223107D01*
X468556Y223118D01*
X468567Y223124D01*
X468573D01*
X468678Y223201D01*
X468767Y223285D01*
X468845Y223379D01*
X468906Y223468D01*
X468956Y223545D01*
X468989Y223612D01*
X469000Y223640D01*
X469011Y223656D01*
X469017Y223668D01*
Y223673D01*
X469061Y223817D01*
X469095Y223962D01*
X469122Y224106D01*
X469139Y224239D01*
X469145Y224300D01*
X469150Y224356D01*
Y224406D01*
X469156Y224445D01*
Y224478D01*
Y224505D01*
Y224522D01*
Y224528D01*
X469150Y224672D01*
X469139Y224805D01*
X469117Y224927D01*
X469095Y225038D01*
X469078Y225133D01*
X469067Y225171D01*
X469056Y225205D01*
X469050Y225233D01*
X469045Y225249D01*
X469039Y225260D01*
Y225266D01*
X468984Y225394D01*
X468923Y225510D01*
X468856Y225604D01*
X468784Y225688D01*
X468723Y225754D01*
X468673Y225799D01*
X468634Y225827D01*
X468628Y225838D01*
X468623D01*
X468506Y225910D01*
X468379Y225965D01*
X468257Y226004D01*
X468140Y226026D01*
X468035Y226043D01*
X467990Y226048D01*
X467951D01*
X467924Y226054D01*
X467879D01*
X467740Y226048D01*
X467613Y226026D01*
X467507Y225993D01*
X467413Y225960D01*
X467341Y225921D01*
X467285Y225893D01*
X467252Y225871D01*
X467241Y225860D01*
X467152Y225777D01*
X467069Y225682D01*
X467002Y225582D01*
X466947Y225482D01*
X466902Y225394D01*
X466886Y225349D01*
X466875Y225316D01*
X466863Y225288D01*
X466852Y225266D01*
X466847Y225255D01*
Y225249D01*
X466347Y225366D01*
X466381Y225466D01*
X466414Y225554D01*
X466458Y225638D01*
X466497Y225721D01*
X466542Y225793D01*
X466592Y225860D01*
X466636Y225926D01*
X466680Y225982D01*
X466725Y226026D01*
X466764Y226071D01*
X466803Y226110D01*
X466830Y226137D01*
X466858Y226165D01*
X466880Y226182D01*
X466891Y226187D01*
X466897Y226193D01*
X466974Y226243D01*
X467052Y226293D01*
X467130Y226331D01*
X467213Y226365D01*
X467380Y226415D01*
X467529Y226448D01*
X467602Y226465D01*
X467663Y226470D01*
X467724Y226476D01*
X467774Y226481D01*
X467813Y226487D01*
X467868D01*
X468051Y226476D01*
D02*
G37*
G36*
X464688Y226431D02*
X464777Y226426D01*
X464932Y226393D01*
X465004Y226370D01*
X465071Y226348D01*
X465132Y226320D01*
X465187Y226293D01*
X465232Y226265D01*
X465276Y226237D01*
X465315Y226215D01*
X465343Y226193D01*
X465365Y226176D01*
X465382Y226160D01*
X465393Y226154D01*
X465398Y226148D01*
X465448Y226093D01*
X465498Y226037D01*
X465537Y225976D01*
X465570Y225915D01*
X465626Y225799D01*
X465659Y225688D01*
X465681Y225593D01*
X465687Y225549D01*
X465693Y225516D01*
X465698Y225482D01*
Y225460D01*
Y225449D01*
Y225444D01*
X465693Y225344D01*
X465676Y225249D01*
X465654Y225166D01*
X465626Y225094D01*
X465604Y225038D01*
X465582Y224994D01*
X465565Y224972D01*
X465559Y224961D01*
X465498Y224894D01*
X465432Y224833D01*
X465359Y224778D01*
X465287Y224733D01*
X465221Y224700D01*
X465171Y224678D01*
X465149Y224667D01*
X465132Y224661D01*
X465126Y224655D01*
X465121D01*
X465248Y224617D01*
X465354Y224567D01*
X465448Y224505D01*
X465526Y224450D01*
X465587Y224394D01*
X465631Y224350D01*
X465654Y224322D01*
X465665Y224317D01*
Y224311D01*
X465726Y224211D01*
X465776Y224106D01*
X465809Y224006D01*
X465831Y223906D01*
X465842Y223817D01*
X465848Y223779D01*
Y223745D01*
X465853Y223723D01*
Y223701D01*
Y223690D01*
Y223684D01*
X465848Y223595D01*
X465837Y223507D01*
X465820Y223423D01*
X465798Y223340D01*
X465742Y223201D01*
X465715Y223135D01*
X465681Y223079D01*
X465648Y223024D01*
X465620Y222979D01*
X465587Y222940D01*
X465565Y222907D01*
X465543Y222879D01*
X465526Y222863D01*
X465515Y222852D01*
X465509Y222846D01*
X465443Y222785D01*
X465371Y222735D01*
X465293Y222691D01*
X465215Y222652D01*
X465143Y222624D01*
X465065Y222596D01*
X464916Y222557D01*
X464849Y222541D01*
X464788Y222530D01*
X464732Y222524D01*
X464682Y222519D01*
X464643Y222513D01*
X464588D01*
X464483Y222519D01*
X464388Y222530D01*
X464294Y222546D01*
X464205Y222563D01*
X464127Y222591D01*
X464050Y222619D01*
X463977Y222646D01*
X463916Y222680D01*
X463861Y222713D01*
X463811Y222741D01*
X463772Y222768D01*
X463733Y222796D01*
X463706Y222813D01*
X463689Y222829D01*
X463678Y222840D01*
X463672Y222846D01*
X463611Y222913D01*
X463556Y222979D01*
X463511Y223046D01*
X463473Y223118D01*
X463434Y223185D01*
X463406Y223257D01*
X463367Y223384D01*
X463350Y223446D01*
X463339Y223501D01*
X463334Y223551D01*
X463328Y223590D01*
X463323Y223623D01*
Y223651D01*
Y223668D01*
Y223673D01*
X463328Y223801D01*
X463350Y223917D01*
X463384Y224023D01*
X463417Y224112D01*
X463450Y224184D01*
X463484Y224239D01*
X463506Y224272D01*
X463511Y224278D01*
Y224284D01*
X463589Y224372D01*
X463672Y224450D01*
X463761Y224511D01*
X463844Y224567D01*
X463922Y224605D01*
X463989Y224633D01*
X464011Y224644D01*
X464028Y224650D01*
X464039Y224655D01*
X464044D01*
X463944Y224700D01*
X463861Y224750D01*
X463789Y224800D01*
X463728Y224850D01*
X463683Y224894D01*
X463650Y224927D01*
X463628Y224950D01*
X463622Y224961D01*
X463572Y225038D01*
X463539Y225116D01*
X463511Y225194D01*
X463495Y225272D01*
X463484Y225332D01*
X463478Y225382D01*
Y225416D01*
Y225421D01*
Y225427D01*
X463484Y225505D01*
X463489Y225577D01*
X463528Y225715D01*
X463578Y225838D01*
X463633Y225943D01*
X463689Y226026D01*
X463717Y226060D01*
X463739Y226093D01*
X463761Y226115D01*
X463778Y226132D01*
X463783Y226137D01*
X463789Y226143D01*
X463850Y226193D01*
X463911Y226243D01*
X463977Y226282D01*
X464044Y226315D01*
X464177Y226365D01*
X464311Y226398D01*
X464366Y226415D01*
X464422Y226420D01*
X464471Y226426D01*
X464516Y226431D01*
X464549Y226437D01*
X464599D01*
X464688Y226431D01*
D02*
G37*
G36*
X477574Y251096D02*
X477751Y251068D01*
X477907Y251035D01*
X477979Y251013D01*
X478046Y250991D01*
X478107Y250968D01*
X478162Y250946D01*
X478206Y250930D01*
X478251Y250913D01*
X478279Y250896D01*
X478301Y250885D01*
X478318Y250880D01*
X478323Y250874D01*
X478473Y250780D01*
X478601Y250669D01*
X478712Y250558D01*
X478806Y250447D01*
X478878Y250347D01*
X478906Y250302D01*
X478928Y250264D01*
X478950Y250236D01*
X478961Y250214D01*
X478967Y250197D01*
X478972Y250191D01*
X479050Y250019D01*
X479106Y249842D01*
X479144Y249664D01*
X479172Y249503D01*
X479183Y249431D01*
X479189Y249359D01*
X479194Y249304D01*
Y249248D01*
X479200Y249209D01*
Y249176D01*
Y249154D01*
Y249148D01*
X479189Y248948D01*
X479167Y248754D01*
X479139Y248582D01*
X479117Y248499D01*
X479100Y248427D01*
X479083Y248360D01*
X479061Y248299D01*
X479045Y248243D01*
X479034Y248199D01*
X479017Y248166D01*
X479011Y248138D01*
X479000Y248121D01*
Y248116D01*
X478917Y247949D01*
X478823Y247799D01*
X478723Y247672D01*
X478673Y247622D01*
X478628Y247572D01*
X478584Y247527D01*
X478540Y247489D01*
X478501Y247455D01*
X478467Y247433D01*
X478445Y247411D01*
X478423Y247394D01*
X478412Y247389D01*
X478406Y247383D01*
X478329Y247339D01*
X478251Y247300D01*
X478085Y247239D01*
X477918Y247195D01*
X477757Y247167D01*
X477679Y247156D01*
X477613Y247145D01*
X477552Y247139D01*
X477502D01*
X477457Y247133D01*
X477396D01*
X477285Y247139D01*
X477180Y247150D01*
X477080Y247161D01*
X476986Y247183D01*
X476897Y247211D01*
X476814Y247239D01*
X476736Y247267D01*
X476664Y247300D01*
X476603Y247328D01*
X476542Y247355D01*
X476497Y247383D01*
X476453Y247411D01*
X476425Y247433D01*
X476397Y247444D01*
X476386Y247455D01*
X476381Y247461D01*
X476303Y247527D01*
X476236Y247594D01*
X476175Y247672D01*
X476114Y247749D01*
X476014Y247905D01*
X475937Y248060D01*
X475903Y248132D01*
X475876Y248199D01*
X475853Y248260D01*
X475837Y248310D01*
X475820Y248354D01*
X475809Y248388D01*
X475803Y248410D01*
Y248415D01*
X476314Y248543D01*
X476336Y248454D01*
X476364Y248371D01*
X476392Y248293D01*
X476419Y248221D01*
X476453Y248155D01*
X476486Y248099D01*
X476525Y248044D01*
X476558Y247994D01*
X476586Y247949D01*
X476619Y247916D01*
X476647Y247883D01*
X476669Y247855D01*
X476691Y247838D01*
X476708Y247822D01*
X476714Y247816D01*
X476719Y247811D01*
X476775Y247766D01*
X476836Y247733D01*
X476958Y247672D01*
X477074Y247627D01*
X477191Y247600D01*
X477291Y247577D01*
X477330Y247572D01*
X477368D01*
X477402Y247566D01*
X477441D01*
X477568Y247572D01*
X477690Y247594D01*
X477801Y247622D01*
X477901Y247655D01*
X477979Y247688D01*
X478012Y247705D01*
X478040Y247716D01*
X478062Y247727D01*
X478079Y247738D01*
X478090Y247744D01*
X478096D01*
X478201Y247822D01*
X478290Y247905D01*
X478368Y247999D01*
X478429Y248088D01*
X478478Y248166D01*
X478512Y248232D01*
X478523Y248260D01*
X478534Y248277D01*
X478540Y248288D01*
Y248293D01*
X478584Y248438D01*
X478617Y248582D01*
X478645Y248726D01*
X478662Y248860D01*
X478667Y248920D01*
X478673Y248976D01*
Y249026D01*
X478678Y249065D01*
Y249098D01*
Y249126D01*
Y249143D01*
Y249148D01*
X478673Y249292D01*
X478662Y249426D01*
X478640Y249548D01*
X478617Y249659D01*
X478601Y249753D01*
X478589Y249792D01*
X478578Y249825D01*
X478573Y249853D01*
X478567Y249869D01*
X478562Y249881D01*
Y249886D01*
X478506Y250014D01*
X478445Y250130D01*
X478379Y250225D01*
X478306Y250308D01*
X478245Y250375D01*
X478195Y250419D01*
X478157Y250447D01*
X478151Y250458D01*
X478146D01*
X478029Y250530D01*
X477901Y250586D01*
X477779Y250624D01*
X477663Y250646D01*
X477557Y250663D01*
X477513Y250669D01*
X477474D01*
X477446Y250674D01*
X477402D01*
X477263Y250669D01*
X477135Y250646D01*
X477030Y250613D01*
X476936Y250580D01*
X476863Y250541D01*
X476808Y250513D01*
X476775Y250491D01*
X476764Y250480D01*
X476675Y250397D01*
X476591Y250302D01*
X476525Y250203D01*
X476469Y250103D01*
X476425Y250014D01*
X476408Y249970D01*
X476397Y249936D01*
X476386Y249908D01*
X476375Y249886D01*
X476369Y249875D01*
Y249869D01*
X475870Y249986D01*
X475903Y250086D01*
X475937Y250175D01*
X475981Y250258D01*
X476020Y250341D01*
X476064Y250413D01*
X476114Y250480D01*
X476159Y250547D01*
X476203Y250602D01*
X476247Y250646D01*
X476286Y250691D01*
X476325Y250730D01*
X476353Y250758D01*
X476381Y250785D01*
X476403Y250802D01*
X476414Y250807D01*
X476419Y250813D01*
X476497Y250863D01*
X476575Y250913D01*
X476652Y250952D01*
X476736Y250985D01*
X476902Y251035D01*
X477052Y251068D01*
X477124Y251085D01*
X477185Y251091D01*
X477246Y251096D01*
X477296Y251102D01*
X477335Y251107D01*
X477391D01*
X477574Y251096D01*
D02*
G37*
G36*
X475337Y250536D02*
X473456D01*
X473589Y250375D01*
X473717Y250203D01*
X473828Y250036D01*
X473933Y249875D01*
X473978Y249803D01*
X474016Y249736D01*
X474055Y249675D01*
X474083Y249625D01*
X474105Y249581D01*
X474122Y249553D01*
X474133Y249531D01*
X474138Y249525D01*
X474249Y249304D01*
X474349Y249081D01*
X474433Y248871D01*
X474466Y248776D01*
X474499Y248682D01*
X474532Y248599D01*
X474555Y248521D01*
X474577Y248454D01*
X474593Y248399D01*
X474610Y248349D01*
X474621Y248316D01*
X474627Y248293D01*
Y248288D01*
X474682Y248060D01*
X474705Y247949D01*
X474721Y247849D01*
X474738Y247755D01*
X474754Y247661D01*
X474765Y247583D01*
X474777Y247505D01*
X474782Y247439D01*
X474788Y247378D01*
X474793Y247322D01*
Y247278D01*
X474799Y247244D01*
Y247222D01*
Y247205D01*
Y247200D01*
X474316D01*
X474299Y247411D01*
X474272Y247605D01*
X474244Y247783D01*
X474227Y247866D01*
X474211Y247944D01*
X474199Y248010D01*
X474183Y248071D01*
X474172Y248127D01*
X474161Y248171D01*
X474150Y248205D01*
X474144Y248232D01*
X474138Y248249D01*
Y248254D01*
X474055Y248510D01*
X473966Y248748D01*
X473922Y248865D01*
X473877Y248976D01*
X473828Y249076D01*
X473783Y249176D01*
X473744Y249265D01*
X473705Y249342D01*
X473672Y249409D01*
X473644Y249470D01*
X473617Y249520D01*
X473600Y249553D01*
X473589Y249575D01*
X473583Y249581D01*
X473517Y249697D01*
X473450Y249814D01*
X473384Y249920D01*
X473317Y250019D01*
X473256Y250108D01*
X473195Y250197D01*
X473134Y250275D01*
X473084Y250341D01*
X473034Y250408D01*
X472990Y250463D01*
X472945Y250508D01*
X472912Y250547D01*
X472890Y250580D01*
X472867Y250602D01*
X472856Y250613D01*
X472851Y250619D01*
Y250991D01*
X475337D01*
Y250536D01*
D02*
G37*
G36*
X459622Y251052D02*
X459727Y251041D01*
X459827Y251018D01*
X459922Y250991D01*
X460005Y250952D01*
X460088Y250919D01*
X460160Y250874D01*
X460227Y250835D01*
X460282Y250796D01*
X460338Y250752D01*
X460382Y250719D01*
X460415Y250685D01*
X460443Y250652D01*
X460465Y250630D01*
X460476Y250619D01*
X460482Y250613D01*
X460554Y250513D01*
X460615Y250397D01*
X460671Y250275D01*
X460721Y250147D01*
X460759Y250014D01*
X460793Y249881D01*
X460821Y249742D01*
X460843Y249614D01*
X460859Y249487D01*
X460871Y249370D01*
X460882Y249265D01*
X460887Y249176D01*
Y249098D01*
X460893Y249043D01*
Y249020D01*
Y249004D01*
Y248998D01*
Y248993D01*
X460887Y248815D01*
X460876Y248649D01*
X460859Y248493D01*
X460832Y248349D01*
X460804Y248221D01*
X460776Y248105D01*
X460743Y247999D01*
X460704Y247905D01*
X460671Y247827D01*
X460637Y247755D01*
X460610Y247699D01*
X460576Y247650D01*
X460554Y247611D01*
X460537Y247588D01*
X460526Y247572D01*
X460521Y247566D01*
X460449Y247489D01*
X460371Y247422D01*
X460293Y247366D01*
X460216Y247317D01*
X460132Y247272D01*
X460055Y247239D01*
X459977Y247211D01*
X459899Y247189D01*
X459833Y247172D01*
X459766Y247156D01*
X459711Y247145D01*
X459661Y247139D01*
X459616D01*
X459588Y247133D01*
X459561D01*
X459433Y247139D01*
X459316Y247161D01*
X459211Y247183D01*
X459117Y247217D01*
X459045Y247244D01*
X458989Y247272D01*
X458967Y247278D01*
X458950Y247289D01*
X458945Y247294D01*
X458939D01*
X458845Y247361D01*
X458756Y247439D01*
X458684Y247516D01*
X458623Y247594D01*
X458573Y247666D01*
X458539Y247722D01*
X458528Y247744D01*
X458517Y247761D01*
X458512Y247766D01*
Y247772D01*
X458456Y247888D01*
X458417Y248010D01*
X458390Y248121D01*
X458373Y248227D01*
X458356Y248316D01*
Y248349D01*
X458351Y248382D01*
Y248410D01*
Y248427D01*
Y248438D01*
Y248443D01*
X458356Y248543D01*
X458367Y248637D01*
X458384Y248732D01*
X458401Y248815D01*
X458428Y248893D01*
X458456Y248970D01*
X458484Y249037D01*
X458517Y249098D01*
X458551Y249154D01*
X458578Y249203D01*
X458606Y249242D01*
X458634Y249281D01*
X458650Y249309D01*
X458667Y249326D01*
X458678Y249337D01*
X458684Y249342D01*
X458745Y249403D01*
X458811Y249459D01*
X458884Y249503D01*
X458950Y249542D01*
X459017Y249581D01*
X459083Y249609D01*
X459211Y249648D01*
X459267Y249664D01*
X459322Y249675D01*
X459366Y249681D01*
X459411Y249686D01*
X459444Y249692D01*
X459489D01*
X459588Y249686D01*
X459683Y249670D01*
X459772Y249653D01*
X459849Y249631D01*
X459916Y249603D01*
X459966Y249587D01*
X459999Y249570D01*
X460005Y249564D01*
X460010D01*
X460099Y249509D01*
X460177Y249448D01*
X460249Y249387D01*
X460304Y249320D01*
X460354Y249265D01*
X460393Y249220D01*
X460415Y249187D01*
X460421Y249181D01*
Y249281D01*
X460415Y249381D01*
X460410Y249470D01*
X460399Y249559D01*
X460393Y249637D01*
X460382Y249709D01*
X460371Y249775D01*
X460354Y249836D01*
X460343Y249892D01*
X460332Y249936D01*
X460321Y249975D01*
X460316Y250008D01*
X460304Y250030D01*
X460299Y250047D01*
X460293Y250058D01*
Y250064D01*
X460238Y250175D01*
X460182Y250275D01*
X460121Y250352D01*
X460066Y250419D01*
X460016Y250475D01*
X459977Y250513D01*
X459949Y250536D01*
X459938Y250541D01*
X459871Y250586D01*
X459805Y250613D01*
X459738Y250635D01*
X459672Y250652D01*
X459622Y250663D01*
X459577Y250669D01*
X459539D01*
X459439Y250658D01*
X459344Y250635D01*
X459267Y250602D01*
X459194Y250569D01*
X459139Y250530D01*
X459100Y250497D01*
X459078Y250475D01*
X459067Y250463D01*
X459028Y250413D01*
X458989Y250352D01*
X458956Y250286D01*
X458934Y250219D01*
X458911Y250158D01*
X458895Y250108D01*
X458889Y250075D01*
X458884Y250069D01*
Y250064D01*
X458412Y250103D01*
X458445Y250258D01*
X458495Y250397D01*
X458551Y250519D01*
X458612Y250619D01*
X458673Y250696D01*
X458695Y250730D01*
X458723Y250758D01*
X458739Y250774D01*
X458756Y250791D01*
X458762Y250796D01*
X458767Y250802D01*
X458822Y250846D01*
X458884Y250885D01*
X459006Y250952D01*
X459128Y250996D01*
X459244Y251024D01*
X459350Y251046D01*
X459394Y251052D01*
X459433D01*
X459466Y251057D01*
X459511D01*
X459622Y251052D01*
D02*
G37*
G36*
X463074Y251096D02*
X463251Y251068D01*
X463407Y251035D01*
X463479Y251013D01*
X463546Y250991D01*
X463607Y250968D01*
X463662Y250946D01*
X463706Y250930D01*
X463751Y250913D01*
X463779Y250896D01*
X463801Y250885D01*
X463818Y250880D01*
X463823Y250874D01*
X463973Y250780D01*
X464101Y250669D01*
X464212Y250558D01*
X464306Y250447D01*
X464378Y250347D01*
X464406Y250302D01*
X464428Y250264D01*
X464450Y250236D01*
X464461Y250214D01*
X464467Y250197D01*
X464472Y250191D01*
X464550Y250019D01*
X464606Y249842D01*
X464644Y249664D01*
X464672Y249503D01*
X464683Y249431D01*
X464689Y249359D01*
X464694Y249304D01*
Y249248D01*
X464700Y249209D01*
Y249176D01*
Y249154D01*
Y249148D01*
X464689Y248948D01*
X464667Y248754D01*
X464639Y248582D01*
X464617Y248499D01*
X464600Y248427D01*
X464583Y248360D01*
X464561Y248299D01*
X464545Y248243D01*
X464534Y248199D01*
X464517Y248166D01*
X464511Y248138D01*
X464500Y248121D01*
Y248116D01*
X464417Y247949D01*
X464323Y247799D01*
X464223Y247672D01*
X464173Y247622D01*
X464128Y247572D01*
X464084Y247527D01*
X464040Y247489D01*
X464001Y247455D01*
X463967Y247433D01*
X463945Y247411D01*
X463923Y247394D01*
X463912Y247389D01*
X463906Y247383D01*
X463829Y247339D01*
X463751Y247300D01*
X463585Y247239D01*
X463418Y247195D01*
X463257Y247167D01*
X463179Y247156D01*
X463113Y247145D01*
X463052Y247139D01*
X463002D01*
X462957Y247133D01*
X462896D01*
X462785Y247139D01*
X462680Y247150D01*
X462580Y247161D01*
X462486Y247183D01*
X462397Y247211D01*
X462314Y247239D01*
X462236Y247267D01*
X462164Y247300D01*
X462103Y247328D01*
X462042Y247355D01*
X461997Y247383D01*
X461953Y247411D01*
X461925Y247433D01*
X461897Y247444D01*
X461886Y247455D01*
X461881Y247461D01*
X461803Y247527D01*
X461736Y247594D01*
X461675Y247672D01*
X461614Y247749D01*
X461514Y247905D01*
X461437Y248060D01*
X461403Y248132D01*
X461376Y248199D01*
X461353Y248260D01*
X461337Y248310D01*
X461320Y248354D01*
X461309Y248388D01*
X461303Y248410D01*
Y248415D01*
X461814Y248543D01*
X461836Y248454D01*
X461864Y248371D01*
X461892Y248293D01*
X461919Y248221D01*
X461953Y248155D01*
X461986Y248099D01*
X462025Y248044D01*
X462058Y247994D01*
X462086Y247949D01*
X462119Y247916D01*
X462147Y247883D01*
X462169Y247855D01*
X462191Y247838D01*
X462208Y247822D01*
X462214Y247816D01*
X462219Y247811D01*
X462275Y247766D01*
X462336Y247733D01*
X462458Y247672D01*
X462574Y247627D01*
X462691Y247600D01*
X462791Y247577D01*
X462830Y247572D01*
X462868D01*
X462902Y247566D01*
X462941D01*
X463068Y247572D01*
X463190Y247594D01*
X463301Y247622D01*
X463401Y247655D01*
X463479Y247688D01*
X463512Y247705D01*
X463540Y247716D01*
X463562Y247727D01*
X463579Y247738D01*
X463590Y247744D01*
X463596D01*
X463701Y247822D01*
X463790Y247905D01*
X463868Y247999D01*
X463929Y248088D01*
X463978Y248166D01*
X464012Y248232D01*
X464023Y248260D01*
X464034Y248277D01*
X464040Y248288D01*
Y248293D01*
X464084Y248438D01*
X464117Y248582D01*
X464145Y248726D01*
X464162Y248860D01*
X464167Y248920D01*
X464173Y248976D01*
Y249026D01*
X464178Y249065D01*
Y249098D01*
Y249126D01*
Y249143D01*
Y249148D01*
X464173Y249292D01*
X464162Y249426D01*
X464140Y249548D01*
X464117Y249659D01*
X464101Y249753D01*
X464089Y249792D01*
X464078Y249825D01*
X464073Y249853D01*
X464067Y249869D01*
X464062Y249881D01*
Y249886D01*
X464006Y250014D01*
X463945Y250130D01*
X463879Y250225D01*
X463806Y250308D01*
X463745Y250375D01*
X463695Y250419D01*
X463657Y250447D01*
X463651Y250458D01*
X463646D01*
X463529Y250530D01*
X463401Y250586D01*
X463279Y250624D01*
X463163Y250646D01*
X463057Y250663D01*
X463013Y250669D01*
X462974D01*
X462946Y250674D01*
X462902D01*
X462763Y250669D01*
X462635Y250646D01*
X462530Y250613D01*
X462436Y250580D01*
X462363Y250541D01*
X462308Y250513D01*
X462275Y250491D01*
X462264Y250480D01*
X462175Y250397D01*
X462091Y250302D01*
X462025Y250203D01*
X461969Y250103D01*
X461925Y250014D01*
X461908Y249970D01*
X461897Y249936D01*
X461886Y249908D01*
X461875Y249886D01*
X461869Y249875D01*
Y249869D01*
X461370Y249986D01*
X461403Y250086D01*
X461437Y250175D01*
X461481Y250258D01*
X461520Y250341D01*
X461564Y250413D01*
X461614Y250480D01*
X461659Y250547D01*
X461703Y250602D01*
X461747Y250646D01*
X461786Y250691D01*
X461825Y250730D01*
X461853Y250758D01*
X461881Y250785D01*
X461903Y250802D01*
X461914Y250807D01*
X461919Y250813D01*
X461997Y250863D01*
X462075Y250913D01*
X462152Y250952D01*
X462236Y250985D01*
X462402Y251035D01*
X462552Y251068D01*
X462624Y251085D01*
X462685Y251091D01*
X462746Y251096D01*
X462796Y251102D01*
X462835Y251107D01*
X462891D01*
X463074Y251096D01*
D02*
G37*
%LPC*%
G36*
X391082Y228518D02*
X389872D01*
X389722Y228512D01*
X389595Y228490D01*
X389484Y228462D01*
X389400Y228429D01*
X389328Y228396D01*
X389284Y228368D01*
X389256Y228346D01*
X389245Y228340D01*
X389178Y228268D01*
X389128Y228196D01*
X389095Y228118D01*
X389067Y228052D01*
X389056Y227985D01*
X389051Y227935D01*
X389045Y227902D01*
Y227896D01*
Y227891D01*
X389051Y227824D01*
X389062Y227758D01*
X389078Y227702D01*
X389095Y227652D01*
X389117Y227608D01*
X389134Y227574D01*
X389145Y227552D01*
X389151Y227547D01*
X389190Y227491D01*
X389239Y227441D01*
X389289Y227402D01*
X389339Y227369D01*
X389384Y227347D01*
X389417Y227330D01*
X389439Y227319D01*
X389450Y227314D01*
X389528Y227291D01*
X389617Y227275D01*
X389706Y227264D01*
X389794Y227258D01*
X389872Y227253D01*
X389939Y227247D01*
X391082D01*
Y228518D01*
D02*
G37*
G36*
X383717Y228573D02*
X383673D01*
X383578Y228568D01*
X383490Y228546D01*
X383418Y228518D01*
X383351Y228485D01*
X383301Y228451D01*
X383262Y228424D01*
X383234Y228401D01*
X383229Y228396D01*
X383168Y228324D01*
X383123Y228252D01*
X383090Y228179D01*
X383068Y228113D01*
X383057Y228052D01*
X383046Y228002D01*
Y227969D01*
Y227963D01*
Y227957D01*
X383051Y227869D01*
X383073Y227785D01*
X383101Y227713D01*
X383134Y227652D01*
X383168Y227602D01*
X383195Y227569D01*
X383218Y227541D01*
X383223Y227536D01*
X383290Y227480D01*
X383367Y227436D01*
X383440Y227408D01*
X383512Y227386D01*
X383578Y227375D01*
X383628Y227369D01*
X383662Y227363D01*
X383673D01*
X383773Y227369D01*
X383861Y227391D01*
X383939Y227419D01*
X384006Y227452D01*
X384056Y227480D01*
X384095Y227508D01*
X384122Y227530D01*
X384128Y227536D01*
X384183Y227602D01*
X384228Y227680D01*
X384256Y227752D01*
X384278Y227824D01*
X384289Y227885D01*
X384294Y227935D01*
X384300Y227969D01*
Y227974D01*
Y227980D01*
X384294Y228068D01*
X384272Y228146D01*
X384244Y228218D01*
X384211Y228279D01*
X384183Y228329D01*
X384156Y228368D01*
X384133Y228390D01*
X384128Y228396D01*
X384056Y228457D01*
X383984Y228501D01*
X383906Y228529D01*
X383834Y228551D01*
X383767Y228562D01*
X383717Y228573D01*
D02*
G37*
G36*
X383723Y226981D02*
X383689D01*
X383567Y226970D01*
X383456Y226947D01*
X383356Y226908D01*
X383273Y226870D01*
X383207Y226825D01*
X383157Y226786D01*
X383129Y226764D01*
X383118Y226753D01*
X383040Y226664D01*
X382985Y226570D01*
X382946Y226476D01*
X382918Y226392D01*
X382901Y226309D01*
X382896Y226248D01*
X382890Y226226D01*
Y226209D01*
Y226198D01*
Y226192D01*
X382901Y226076D01*
X382924Y225965D01*
X382962Y225871D01*
X383001Y225793D01*
X383040Y225732D01*
X383079Y225682D01*
X383101Y225654D01*
X383112Y225643D01*
X383201Y225571D01*
X383290Y225515D01*
X383384Y225482D01*
X383473Y225454D01*
X383551Y225438D01*
X383617Y225432D01*
X383640Y225427D01*
X383673D01*
X383751Y225432D01*
X383828Y225443D01*
X383900Y225460D01*
X383961Y225477D01*
X384011Y225493D01*
X384050Y225510D01*
X384072Y225521D01*
X384084Y225526D01*
X384150Y225571D01*
X384206Y225615D01*
X384256Y225665D01*
X384294Y225715D01*
X384328Y225754D01*
X384350Y225787D01*
X384361Y225815D01*
X384366Y225821D01*
X384394Y225893D01*
X384417Y225959D01*
X384433Y226026D01*
X384444Y226087D01*
X384450Y226137D01*
X384455Y226176D01*
Y226198D01*
Y226209D01*
X384444Y226326D01*
X384422Y226431D01*
X384389Y226525D01*
X384344Y226609D01*
X384306Y226670D01*
X384272Y226720D01*
X384250Y226747D01*
X384239Y226759D01*
X384156Y226831D01*
X384061Y226886D01*
X383973Y226925D01*
X383884Y226953D01*
X383806Y226970D01*
X383745Y226975D01*
X383723Y226981D01*
D02*
G37*
G36*
X414896Y262736D02*
X413889D01*
X413764Y262731D01*
X413658Y262713D01*
X413565Y262690D01*
X413496Y262662D01*
X413436Y262634D01*
X413399Y262611D01*
X413376Y262593D01*
X413367Y262588D01*
X413311Y262528D01*
X413270Y262468D01*
X413242Y262403D01*
X413219Y262348D01*
X413209Y262292D01*
X413205Y262251D01*
X413200Y262223D01*
Y262218D01*
Y262214D01*
X413205Y262158D01*
X413214Y262103D01*
X413228Y262057D01*
X413242Y262015D01*
X413260Y261978D01*
X413274Y261950D01*
X413283Y261932D01*
X413288Y261927D01*
X413320Y261881D01*
X413362Y261840D01*
X413403Y261807D01*
X413445Y261779D01*
X413482Y261761D01*
X413510Y261747D01*
X413528Y261738D01*
X413537Y261733D01*
X413602Y261715D01*
X413676Y261701D01*
X413750Y261692D01*
X413824Y261687D01*
X413889Y261683D01*
X413944Y261678D01*
X414896D01*
Y262736D01*
D02*
G37*
G36*
X398676Y228680D02*
X398642D01*
X398526Y228669D01*
X398420Y228642D01*
X398331Y228608D01*
X398254Y228564D01*
X398193Y228519D01*
X398148Y228486D01*
X398121Y228458D01*
X398110Y228447D01*
X398037Y228353D01*
X397982Y228253D01*
X397943Y228148D01*
X397921Y228048D01*
X397904Y227959D01*
X397899Y227920D01*
Y227887D01*
X397893Y227859D01*
Y227837D01*
Y227826D01*
Y227820D01*
X397904Y227670D01*
X397926Y227543D01*
X397960Y227432D01*
X397998Y227337D01*
X398043Y227265D01*
X398076Y227210D01*
X398098Y227176D01*
X398110Y227171D01*
Y227165D01*
X398148Y227121D01*
X398193Y227087D01*
X398282Y227027D01*
X398370Y226988D01*
X398448Y226954D01*
X398520Y226938D01*
X398576Y226932D01*
X398598Y226927D01*
X398626D01*
X398703Y226932D01*
X398776Y226943D01*
X398842Y226965D01*
X398898Y226988D01*
X398948Y227004D01*
X398986Y227027D01*
X399009Y227038D01*
X399020Y227043D01*
X399086Y227093D01*
X399142Y227143D01*
X399192Y227204D01*
X399231Y227254D01*
X399264Y227304D01*
X399286Y227343D01*
X399303Y227371D01*
X399308Y227382D01*
X399342Y227465D01*
X399364Y227548D01*
X399386Y227626D01*
X399397Y227698D01*
X399403Y227759D01*
X399408Y227809D01*
Y227837D01*
Y227848D01*
X399397Y227981D01*
X399375Y228098D01*
X399336Y228203D01*
X399297Y228286D01*
X399258Y228359D01*
X399219Y228408D01*
X399197Y228436D01*
X399186Y228447D01*
X399097Y228525D01*
X399009Y228580D01*
X398914Y228625D01*
X398831Y228653D01*
X398753Y228669D01*
X398698Y228675D01*
X398676Y228680D01*
D02*
G37*
G36*
X406079Y230018D02*
X404869D01*
X404719Y230012D01*
X404592Y229990D01*
X404481Y229962D01*
X404398Y229929D01*
X404325Y229896D01*
X404281Y229868D01*
X404253Y229846D01*
X404242Y229840D01*
X404176Y229768D01*
X404126Y229696D01*
X404092Y229618D01*
X404065Y229552D01*
X404053Y229485D01*
X404048Y229435D01*
X404042Y229402D01*
Y229396D01*
Y229391D01*
X404048Y229324D01*
X404059Y229258D01*
X404076Y229202D01*
X404092Y229152D01*
X404115Y229108D01*
X404131Y229074D01*
X404142Y229052D01*
X404148Y229047D01*
X404187Y228991D01*
X404237Y228941D01*
X404287Y228902D01*
X404337Y228869D01*
X404381Y228847D01*
X404414Y228830D01*
X404436Y228819D01*
X404448Y228814D01*
X404525Y228791D01*
X404614Y228775D01*
X404703Y228764D01*
X404792Y228758D01*
X404869Y228752D01*
X404936Y228747D01*
X406079D01*
Y230018D01*
D02*
G37*
G36*
X362618Y265388D02*
X361731D01*
X361658Y265383D01*
X361586D01*
X361520Y265377D01*
X361409Y265360D01*
X361320Y265349D01*
X361248Y265333D01*
X361198Y265316D01*
X361170Y265311D01*
X361159Y265305D01*
X361059Y265255D01*
X360965Y265194D01*
X360881Y265122D01*
X360809Y265050D01*
X360754Y264983D01*
X360709Y264928D01*
X360698Y264905D01*
X360687Y264889D01*
X360676Y264878D01*
Y264872D01*
X360643Y264811D01*
X360609Y264739D01*
X360560Y264595D01*
X360526Y264439D01*
X360498Y264289D01*
X360493Y264223D01*
X360487Y264156D01*
X360482Y264101D01*
Y264051D01*
X360476Y264006D01*
Y263979D01*
Y263956D01*
Y263951D01*
X360482Y263795D01*
X360493Y263651D01*
X360509Y263523D01*
X360526Y263412D01*
X360537Y263368D01*
X360548Y263329D01*
X360560Y263290D01*
X360565Y263263D01*
X360571Y263240D01*
X360576Y263224D01*
X360582Y263213D01*
Y263207D01*
X360620Y263102D01*
X360665Y263007D01*
X360715Y262924D01*
X360759Y262852D01*
X360798Y262796D01*
X360831Y262757D01*
X360854Y262735D01*
X360859Y262724D01*
X360915Y262680D01*
X360970Y262641D01*
X361026Y262608D01*
X361081Y262574D01*
X361131Y262552D01*
X361170Y262536D01*
X361198Y262530D01*
X361209Y262524D01*
X361292Y262502D01*
X361392Y262486D01*
X361492Y262474D01*
X361586Y262469D01*
X361669Y262463D01*
X361708Y262458D01*
X362618D01*
Y265388D01*
D02*
G37*
G36*
X423069Y265169D02*
X423036D01*
X422975Y265163D01*
X422914Y265158D01*
X422858Y265141D01*
X422808Y265119D01*
X422714Y265069D01*
X422631Y265013D01*
X422570Y264952D01*
X422520Y264902D01*
X422503Y264880D01*
X422492Y264863D01*
X422481Y264858D01*
Y264852D01*
X422442Y264786D01*
X422409Y264708D01*
X422375Y264619D01*
X422353Y264525D01*
X422331Y264425D01*
X422314Y264320D01*
X422287Y264109D01*
X422275Y264003D01*
X422270Y263909D01*
X422264Y263820D01*
Y263748D01*
X422259Y263681D01*
Y263631D01*
Y263604D01*
Y263598D01*
Y263593D01*
Y263421D01*
X422270Y263265D01*
X422281Y263126D01*
X422292Y262993D01*
X422309Y262882D01*
X422331Y262777D01*
X422353Y262688D01*
X422370Y262605D01*
X422392Y262538D01*
X422414Y262483D01*
X422431Y262433D01*
X422453Y262394D01*
X422464Y262366D01*
X422475Y262349D01*
X422486Y262338D01*
Y262333D01*
X422531Y262277D01*
X422575Y262233D01*
X422620Y262188D01*
X422664Y262155D01*
X422758Y262100D01*
X422842Y262061D01*
X422919Y262038D01*
X422975Y262027D01*
X422997Y262022D01*
X423030D01*
X423091Y262027D01*
X423147Y262033D01*
X423252Y262072D01*
X423347Y262122D01*
X423430Y262177D01*
X423491Y262233D01*
X423541Y262283D01*
X423569Y262322D01*
X423580Y262327D01*
Y262333D01*
X423619Y262399D01*
X423652Y262477D01*
X423685Y262566D01*
X423707Y262660D01*
X423730Y262760D01*
X423746Y262865D01*
X423774Y263082D01*
X423785Y263182D01*
X423791Y263276D01*
X423796Y263365D01*
Y263437D01*
X423802Y263504D01*
Y263554D01*
Y263581D01*
Y263593D01*
X423796Y263765D01*
X423791Y263920D01*
X423780Y264064D01*
X423763Y264197D01*
X423746Y264314D01*
X423724Y264420D01*
X423702Y264514D01*
X423680Y264597D01*
X423657Y264669D01*
X423641Y264730D01*
X423619Y264780D01*
X423602Y264825D01*
X423585Y264852D01*
X423574Y264875D01*
X423563Y264886D01*
Y264891D01*
X423524Y264941D01*
X423485Y264986D01*
X423441Y265019D01*
X423397Y265052D01*
X423308Y265102D01*
X423224Y265135D01*
X423152Y265152D01*
X423091Y265163D01*
X423069Y265169D01*
D02*
G37*
G36*
X383616Y237049D02*
X383527D01*
X383471Y237037D01*
X383372Y237010D01*
X383283Y236971D01*
X383205Y236932D01*
X383144Y236888D01*
X383100Y236849D01*
X383072Y236821D01*
X383061Y236815D01*
Y236810D01*
X382989Y236716D01*
X382933Y236610D01*
X382894Y236499D01*
X382872Y236394D01*
X382855Y236305D01*
X382850Y236266D01*
Y236227D01*
X382844Y236199D01*
Y236177D01*
Y236166D01*
Y236160D01*
X382855Y236016D01*
X382878Y235889D01*
X382911Y235783D01*
X382950Y235694D01*
X382994Y235622D01*
X383028Y235572D01*
X383050Y235539D01*
X383061Y235528D01*
X383144Y235450D01*
X383233Y235395D01*
X383322Y235356D01*
X383410Y235328D01*
X383483Y235311D01*
X383544Y235306D01*
X383566Y235300D01*
X383599D01*
X383716Y235311D01*
X383821Y235333D01*
X383915Y235372D01*
X383999Y235417D01*
X384060Y235456D01*
X384110Y235494D01*
X384138Y235517D01*
X384149Y235528D01*
X384221Y235617D01*
X384276Y235716D01*
X384310Y235816D01*
X384337Y235911D01*
X384354Y235994D01*
X384360Y236027D01*
Y236061D01*
X384365Y236088D01*
Y236105D01*
Y236116D01*
Y236122D01*
X384354Y236266D01*
X384332Y236399D01*
X384293Y236516D01*
X384248Y236610D01*
X384210Y236688D01*
X384171Y236743D01*
X384160Y236760D01*
X384149Y236776D01*
X384138Y236782D01*
Y236788D01*
X384093Y236832D01*
X384049Y236876D01*
X383954Y236937D01*
X383860Y236987D01*
X383771Y237015D01*
X383699Y237037D01*
X383638Y237043D01*
X383616Y237049D01*
D02*
G37*
G36*
X464632Y226048D02*
X464588D01*
X464494Y226043D01*
X464405Y226021D01*
X464333Y225993D01*
X464266Y225960D01*
X464216Y225926D01*
X464177Y225899D01*
X464150Y225876D01*
X464144Y225871D01*
X464083Y225799D01*
X464039Y225727D01*
X464005Y225654D01*
X463983Y225588D01*
X463972Y225527D01*
X463961Y225477D01*
Y225444D01*
Y225438D01*
Y225432D01*
X463966Y225344D01*
X463989Y225260D01*
X464016Y225188D01*
X464050Y225127D01*
X464083Y225077D01*
X464111Y225044D01*
X464133Y225016D01*
X464139Y225011D01*
X464205Y224955D01*
X464283Y224911D01*
X464355Y224883D01*
X464427Y224861D01*
X464494Y224850D01*
X464544Y224844D01*
X464577Y224838D01*
X464588D01*
X464688Y224844D01*
X464777Y224866D01*
X464854Y224894D01*
X464921Y224927D01*
X464971Y224955D01*
X465010Y224983D01*
X465038Y225005D01*
X465043Y225011D01*
X465099Y225077D01*
X465143Y225155D01*
X465171Y225227D01*
X465193Y225299D01*
X465204Y225360D01*
X465210Y225410D01*
X465215Y225444D01*
Y225449D01*
Y225455D01*
X465210Y225543D01*
X465187Y225621D01*
X465160Y225693D01*
X465126Y225754D01*
X465099Y225804D01*
X465071Y225843D01*
X465049Y225865D01*
X465043Y225871D01*
X464971Y225932D01*
X464899Y225976D01*
X464821Y226004D01*
X464749Y226026D01*
X464682Y226037D01*
X464632Y226048D01*
D02*
G37*
G36*
X464638Y224456D02*
X464605D01*
X464483Y224445D01*
X464372Y224422D01*
X464272Y224383D01*
X464188Y224345D01*
X464122Y224300D01*
X464072Y224261D01*
X464044Y224239D01*
X464033Y224228D01*
X463955Y224139D01*
X463900Y224045D01*
X463861Y223951D01*
X463833Y223867D01*
X463817Y223784D01*
X463811Y223723D01*
X463805Y223701D01*
Y223684D01*
Y223673D01*
Y223668D01*
X463817Y223551D01*
X463839Y223440D01*
X463878Y223346D01*
X463916Y223268D01*
X463955Y223207D01*
X463994Y223157D01*
X464016Y223129D01*
X464028Y223118D01*
X464116Y223046D01*
X464205Y222990D01*
X464299Y222957D01*
X464388Y222929D01*
X464466Y222913D01*
X464533Y222907D01*
X464555Y222902D01*
X464588D01*
X464666Y222907D01*
X464743Y222918D01*
X464816Y222935D01*
X464877Y222952D01*
X464927Y222968D01*
X464965Y222985D01*
X464988Y222996D01*
X464999Y223002D01*
X465065Y223046D01*
X465121Y223090D01*
X465171Y223140D01*
X465210Y223190D01*
X465243Y223229D01*
X465265Y223262D01*
X465276Y223290D01*
X465282Y223296D01*
X465309Y223368D01*
X465332Y223434D01*
X465348Y223501D01*
X465359Y223562D01*
X465365Y223612D01*
X465371Y223651D01*
Y223673D01*
Y223684D01*
X465359Y223801D01*
X465337Y223906D01*
X465304Y224001D01*
X465260Y224084D01*
X465221Y224145D01*
X465187Y224195D01*
X465165Y224222D01*
X465154Y224234D01*
X465071Y224306D01*
X464977Y224361D01*
X464888Y224400D01*
X464799Y224428D01*
X464721Y224445D01*
X464660Y224450D01*
X464638Y224456D01*
D02*
G37*
G36*
X459616Y249276D02*
X459583D01*
X459466Y249265D01*
X459361Y249237D01*
X459272Y249203D01*
X459194Y249159D01*
X459133Y249115D01*
X459089Y249081D01*
X459061Y249054D01*
X459050Y249043D01*
X458978Y248948D01*
X458922Y248848D01*
X458884Y248743D01*
X458861Y248643D01*
X458845Y248554D01*
X458839Y248515D01*
Y248482D01*
X458834Y248454D01*
Y248432D01*
Y248421D01*
Y248415D01*
X458845Y248266D01*
X458867Y248138D01*
X458900Y248027D01*
X458939Y247933D01*
X458984Y247860D01*
X459017Y247805D01*
X459039Y247772D01*
X459050Y247766D01*
Y247761D01*
X459089Y247716D01*
X459133Y247683D01*
X459222Y247622D01*
X459311Y247583D01*
X459389Y247550D01*
X459461Y247533D01*
X459516Y247527D01*
X459539Y247522D01*
X459566D01*
X459644Y247527D01*
X459716Y247538D01*
X459783Y247561D01*
X459838Y247583D01*
X459888Y247600D01*
X459927Y247622D01*
X459949Y247633D01*
X459960Y247639D01*
X460027Y247688D01*
X460082Y247738D01*
X460132Y247799D01*
X460171Y247849D01*
X460205Y247899D01*
X460227Y247938D01*
X460243Y247966D01*
X460249Y247977D01*
X460282Y248060D01*
X460304Y248144D01*
X460327Y248221D01*
X460338Y248293D01*
X460343Y248354D01*
X460349Y248404D01*
Y248432D01*
Y248443D01*
X460338Y248576D01*
X460316Y248693D01*
X460277Y248798D01*
X460238Y248882D01*
X460199Y248954D01*
X460160Y249004D01*
X460138Y249031D01*
X460127Y249043D01*
X460038Y249120D01*
X459949Y249176D01*
X459855Y249220D01*
X459772Y249248D01*
X459694Y249265D01*
X459638Y249270D01*
X459616Y249276D01*
D02*
G37*
%LPD*%
D10*
X392598Y252224D02*
G03*
X392598Y252224I-394J0D01*
G01*
X441500Y271500D02*
X451500D01*
X465500D02*
X475500D01*
X441500Y289728D02*
Y294000D01*
Y271500D02*
Y280661D01*
X475500Y271500D02*
Y281000D01*
Y289728D02*
Y294000D01*
X441500D02*
X475500D01*
X368406Y236677D02*
Y254787D01*
X356594Y236677D02*
Y254787D01*
X367126Y236677D02*
X368406D01*
X367126Y254787D02*
X368406D01*
X356594Y236677D02*
X357874D01*
X356594Y254787D02*
X357874D01*
D12*
X453492Y270008D02*
G03*
X453492Y270008I-492J0D01*
G01*
X368209Y256618D02*
G03*
X368209Y256618I-492J0D01*
G01*
D13*
X472500Y229500D02*
X477500D01*
X478937Y222512D02*
Y236488D01*
X471063D02*
X478937D01*
X471063Y222512D02*
Y236488D01*
Y222512D02*
X478937D01*
X373500Y233000D02*
Y238000D01*
X366512Y239437D02*
X380488D01*
X366512Y231563D02*
Y239437D01*
Y231563D02*
X380488D01*
Y239437D01*
X399563Y256945D02*
X407437D01*
Y242969D02*
Y256945D01*
X399563Y242969D02*
X407437D01*
X399563D02*
Y256945D01*
X401000Y249957D02*
X406000D01*
X391063Y256988D02*
X398937D01*
Y243012D02*
Y256988D01*
X391063Y243012D02*
X398937D01*
X391063D02*
Y256988D01*
X392500Y250000D02*
X397500D01*
X345063Y233012D02*
X352937D01*
X345063D02*
Y246988D01*
X352937D01*
Y233012D02*
Y246988D01*
X346500Y240000D02*
X351500D01*
X472000Y238500D02*
Y243500D01*
X465012Y244937D02*
X478988D01*
X465012Y237063D02*
Y244937D01*
Y237063D02*
X478988D01*
Y244937D01*
X450512Y237063D02*
Y244937D01*
X464488D01*
Y237063D02*
Y244937D01*
X450512Y237063D02*
X464488D01*
X457500Y238500D02*
Y243500D01*
X430945Y251563D02*
Y259437D01*
X416968Y251563D02*
X430945D01*
X416968D02*
Y259437D01*
X430945D01*
X423957Y253000D02*
Y258000D01*
D15*
X366610Y223358D02*
Y230642D01*
X380390Y223358D02*
Y230642D01*
X366610Y223358D02*
X380390D01*
X366610Y230642D02*
X380390D01*
X409890Y231358D02*
Y238642D01*
X396110Y231358D02*
Y238642D01*
X409890D01*
X396110Y231358D02*
X409890D01*
X407858Y243110D02*
X415142D01*
X407858Y256890D02*
X415142D01*
Y243110D02*
Y256890D01*
X407858Y243110D02*
Y256890D01*
X379606Y253661D02*
X385906D01*
X379606Y241339D02*
X385906D01*
D72*
X370051Y275236D02*
G03*
X368870Y274055I0J-1181D01*
G01*
X388949Y254764D02*
G03*
X390130Y255945I0J1181D01*
G01*
Y274055D02*
G03*
X388949Y275236I-1181J0D01*
G01*
X368870Y255945D02*
G03*
X370051Y254764I1181J0D01*
G01*
D73*
X368870Y271693D02*
Y274055D01*
X390130Y255945D02*
Y258307D01*
Y271693D02*
Y274055D01*
X370051Y275236D02*
X388949D01*
X368870Y255945D02*
Y258307D01*
X370051Y254764D02*
X388949D01*
M02*
