G04*
G04 #@! TF.GenerationSoftware,Altium Limited,Altium Designer,23.0.1 (38)*
G04*
G04 Layer_Color=65535*
%FSLAX25Y25*%
%MOIN*%
G70*
G04*
G04 #@! TF.SameCoordinates,29F5B130-E819-45AE-A50E-1DD68B7551F0*
G04*
G04*
G04 #@! TF.FilePolarity,Positive*
G04*
G01*
G75*
%ADD10C,0.00787*%
%ADD11C,0.00945*%
%ADD12C,0.00984*%
%ADD13C,0.00500*%
%ADD14C,0.01000*%
%ADD15C,0.00394*%
D10*
X346189Y275402D02*
G03*
X346189Y275402I-394J0D01*
G01*
X434953Y233772D02*
Y257772D01*
X437315Y266831D02*
X476685D01*
X479047Y233772D02*
Y257772D01*
X434953Y211713D02*
Y223272D01*
Y211713D02*
X441000D01*
X473000D02*
X479047D01*
Y223272D01*
X333244Y247094D02*
X335213D01*
X333244D02*
Y250244D01*
Y258906D02*
X335213D01*
X333244Y255756D02*
Y258906D01*
X336787Y273406D02*
X338756D01*
Y270256D02*
Y273406D01*
X336787Y261595D02*
X338756D01*
Y264744D01*
X457287Y286906D02*
X459256D01*
Y283756D02*
Y286906D01*
X457287Y275095D02*
X459256D01*
Y278244D01*
X418169Y213516D02*
Y215484D01*
X426831Y213516D02*
Y215484D01*
X418169Y213516D02*
X426831D01*
X418169Y215484D02*
X426831D01*
D11*
X474272Y209173D02*
G03*
X474272Y209173I-472J0D01*
G01*
D12*
X417677Y210563D02*
G03*
X417677Y210563I-492J0D01*
G01*
D13*
X352095Y275992D02*
Y284260D01*
X363118D01*
X402882D02*
X413905D01*
Y275992D02*
Y284260D01*
X352095Y214968D02*
X363118D01*
X352095D02*
Y223236D01*
X402882Y214968D02*
X413905D01*
Y223236D01*
X419358Y273610D02*
X426642D01*
X419358Y287390D02*
X426642D01*
X419358Y273610D02*
Y287390D01*
X426642Y273610D02*
Y287390D01*
X342358Y206610D02*
X349642D01*
X342358Y220390D02*
X349642D01*
X342358Y206610D02*
Y220390D01*
X349642Y206610D02*
Y220390D01*
X399772Y210642D02*
X413551D01*
X399772Y203358D02*
X413551D01*
X399772D02*
Y210642D01*
X413551Y203358D02*
Y210642D01*
X329110Y274858D02*
X342890D01*
X329110Y282142D02*
X342890D01*
Y274858D02*
Y282142D01*
X329110Y274858D02*
Y282142D01*
Y284358D02*
Y291642D01*
X342890Y284358D02*
Y291642D01*
X329110D02*
X342890D01*
X329110Y284358D02*
X342890D01*
X372610Y203358D02*
Y210642D01*
X386390Y203358D02*
Y210642D01*
X372610D02*
X386390D01*
X372610Y203358D02*
X386390D01*
X404610Y293142D02*
X418390D01*
X404610Y285858D02*
X418390D01*
X404610D02*
Y293142D01*
X418390Y285858D02*
Y293142D01*
X420358Y226610D02*
X427642D01*
X420358Y240390D02*
X427642D01*
X420358Y226610D02*
Y240390D01*
X427642Y226610D02*
Y240390D01*
X325551Y288858D02*
Y296142D01*
X311772Y288858D02*
Y296142D01*
Y288858D02*
X325551D01*
X311772Y296142D02*
X325551D01*
X329272Y221858D02*
Y229142D01*
X343051Y221858D02*
Y229142D01*
X329272D02*
X343051D01*
X329272Y221858D02*
X343051D01*
X329110Y229858D02*
Y237142D01*
X342890Y229858D02*
Y237142D01*
X329110D02*
X342890D01*
X329110Y229858D02*
X342890D01*
X329110Y237858D02*
Y245142D01*
X342890Y237858D02*
Y245142D01*
X329110D02*
X342890D01*
X329110Y237858D02*
X342890D01*
X350110Y288858D02*
X363890D01*
X350110Y296142D02*
X363890D01*
Y288858D02*
Y296142D01*
X350110Y288858D02*
Y296142D01*
X379551Y288858D02*
Y296142D01*
X365772Y288858D02*
Y296142D01*
Y288858D02*
X379551D01*
X365772Y296142D02*
X379551D01*
X471858Y289051D02*
X479142D01*
X471858Y275272D02*
X479142D01*
Y289051D01*
X471858Y275272D02*
Y289051D01*
X431075Y287618D02*
X441311D01*
D14*
X322016Y212457D02*
X328315D01*
Y209701D02*
Y212457D01*
Y245921D02*
Y248677D01*
X322016Y245921D02*
X328315D01*
X298394Y209701D02*
Y248677D01*
Y209701D02*
X328315D01*
X298394Y248677D02*
X328315D01*
X322016Y244937D02*
Y245921D01*
Y212457D02*
Y213441D01*
X317094Y219346D02*
Y239032D01*
X299378D02*
X317094D01*
X299378Y219346D02*
X317094D01*
X315126Y241984D02*
Y245921D01*
X308236D02*
X315126D01*
X308236Y241984D02*
Y245921D01*
Y241984D02*
X315126D01*
X308236Y216394D02*
X315126D01*
X308236Y212457D02*
Y216394D01*
Y212457D02*
X315126D01*
Y216394D01*
Y252457D02*
Y256394D01*
X308236Y252457D02*
X315126D01*
X308236D02*
Y256394D01*
X315126D01*
X308236Y281984D02*
X315126D01*
X308236D02*
Y285921D01*
X315126D01*
Y281984D02*
Y285921D01*
X299378Y259347D02*
X317094D01*
X299378Y279031D02*
X317094D01*
Y259347D02*
Y279031D01*
X322016Y252457D02*
Y253441D01*
Y284937D02*
Y285921D01*
X298394Y288677D02*
X328315D01*
X298394Y249701D02*
X328315D01*
X298394Y249701D02*
Y288677D01*
X322016Y285921D02*
X328315D01*
Y288677D01*
Y249701D02*
Y252457D01*
X322016D02*
X328315D01*
D15*
X459500Y291000D02*
Y294000D01*
X448500Y290000D02*
X458500D01*
X448500Y295000D02*
X458500D01*
X448500Y290000D02*
Y295000D01*
M02*
