G04*
G04 #@! TF.GenerationSoftware,Altium Limited,Altium Designer,23.0.1 (38)*
G04*
G04 Layer_Color=8388736*
%FSLAX25Y25*%
%MOIN*%
G70*
G04*
G04 #@! TF.SameCoordinates,8F624F87-4904-4D54-B770-2945CE276165*
G04*
G04*
G04 #@! TF.FilePolarity,Negative*
G04*
G01*
G75*
%ADD26R,0.06706X0.05524*%
%ADD27R,0.04737X0.03162*%
%ADD28R,0.04934X0.06115*%
%ADD29R,0.11036X0.13005*%
%ADD30R,0.04343X0.05131*%
%ADD31R,0.05131X0.04343*%
%ADD32O,0.03162X0.07099*%
%ADD33O,0.07099X0.03162*%
%ADD34R,0.04934X0.05131*%
%ADD35R,0.05131X0.09658*%
%ADD36R,0.05918X0.07887*%
%ADD37R,0.04343X0.05524*%
%ADD38R,0.06115X0.04934*%
%ADD39R,0.03950X0.03950*%
%ADD40R,0.01981X0.03556*%
%ADD41C,0.06312*%
G04:AMPARAMS|DCode=42|XSize=63.12mil|YSize=63.12mil|CornerRadius=17.78mil|HoleSize=0mil|Usage=FLASHONLY|Rotation=90.000|XOffset=0mil|YOffset=0mil|HoleType=Round|Shape=RoundedRectangle|*
%AMROUNDEDRECTD42*
21,1,0.06312,0.02756,0,0,90.0*
21,1,0.02756,0.06312,0,0,90.0*
1,1,0.03556,0.01378,0.01378*
1,1,0.03556,0.01378,-0.01378*
1,1,0.03556,-0.01378,-0.01378*
1,1,0.03556,-0.01378,0.01378*
%
%ADD42ROUNDEDRECTD42*%
%ADD43C,0.02800*%
%ADD44C,0.03300*%
G36*
X377095Y256504D02*
X366071D01*
Y265441D01*
X370126Y269496D01*
X377095D01*
Y256504D01*
D02*
G37*
D26*
X305000Y274957D02*
D03*
Y282043D02*
D03*
D27*
X339937Y267500D02*
D03*
X332063Y263760D02*
D03*
Y271240D02*
D03*
Y253000D02*
D03*
X339937Y256740D02*
D03*
Y249260D02*
D03*
X460437Y281000D02*
D03*
X452563Y277260D02*
D03*
Y284740D02*
D03*
D28*
X339839Y278500D02*
D03*
X332161D02*
D03*
X332161Y241500D02*
D03*
X339839D02*
D03*
X332323Y225500D02*
D03*
X340000D02*
D03*
X332161Y233500D02*
D03*
X339839D02*
D03*
X332161Y288000D02*
D03*
X339839D02*
D03*
X322339Y289500D02*
D03*
X314661D02*
D03*
X410500Y207000D02*
D03*
X402823D02*
D03*
X383839D02*
D03*
X376161D02*
D03*
X415339Y289500D02*
D03*
X407661D02*
D03*
X353161Y292500D02*
D03*
X360839D02*
D03*
X368823D02*
D03*
X376500D02*
D03*
D29*
X383000Y263000D02*
D03*
X394417D02*
D03*
X371583Y249614D02*
D03*
X383000D02*
D03*
X394417D02*
D03*
X371583Y236228D02*
D03*
X383000D02*
D03*
X394417D02*
D03*
D30*
X366465Y274417D02*
D03*
X371976D02*
D03*
X377488D02*
D03*
X383000D02*
D03*
X388512D02*
D03*
X394024D02*
D03*
X399535Y224811D02*
D03*
X394024D02*
D03*
X388512D02*
D03*
X383000D02*
D03*
X377488D02*
D03*
X371976D02*
D03*
X366465D02*
D03*
D31*
X404063Y252370D02*
D03*
Y246858D02*
D03*
Y241347D02*
D03*
Y235835D02*
D03*
Y230323D02*
D03*
X361937D02*
D03*
Y235835D02*
D03*
Y241347D02*
D03*
Y246858D02*
D03*
Y252370D02*
D03*
Y257882D02*
D03*
Y263394D02*
D03*
Y268905D02*
D03*
D32*
X365677Y284260D02*
D03*
X370008D02*
D03*
X374339D02*
D03*
X378669D02*
D03*
X383000D02*
D03*
X387331D02*
D03*
X391661D02*
D03*
X395992D02*
D03*
X400323D02*
D03*
Y214968D02*
D03*
X395992D02*
D03*
X391661D02*
D03*
X387331D02*
D03*
X383000D02*
D03*
X378669D02*
D03*
X374339D02*
D03*
X370008D02*
D03*
X365677D02*
D03*
D33*
X413905Y273433D02*
D03*
Y269102D02*
D03*
Y264772D02*
D03*
Y260441D02*
D03*
Y256110D02*
D03*
Y251780D02*
D03*
Y247449D02*
D03*
Y243118D02*
D03*
Y238787D02*
D03*
Y234457D02*
D03*
Y230126D02*
D03*
Y225795D02*
D03*
X352095D02*
D03*
Y230126D02*
D03*
Y234457D02*
D03*
Y238787D02*
D03*
Y243118D02*
D03*
Y247449D02*
D03*
Y251780D02*
D03*
Y256110D02*
D03*
Y260441D02*
D03*
Y264772D02*
D03*
Y269102D02*
D03*
Y273433D02*
D03*
D34*
X436193Y276398D02*
D03*
D35*
X442000Y282500D02*
D03*
X430386D02*
D03*
D36*
X432787Y263287D02*
D03*
Y228642D02*
D03*
X481213Y263287D02*
D03*
Y228642D02*
D03*
D37*
X444500Y212500D02*
D03*
X454500D02*
D03*
X464500D02*
D03*
X449500D02*
D03*
X459500D02*
D03*
X469500D02*
D03*
D38*
X424500Y237339D02*
D03*
Y229661D02*
D03*
X475500Y278323D02*
D03*
Y286000D02*
D03*
D39*
X456953Y292500D02*
D03*
X451047D02*
D03*
D40*
X419941Y210563D02*
D03*
X422500D02*
D03*
X425059D02*
D03*
Y218437D02*
D03*
X422500D02*
D03*
X419941D02*
D03*
D41*
X322000Y261622D02*
D03*
Y253748D02*
D03*
Y245874D02*
D03*
D42*
Y238000D02*
D03*
D43*
X419273Y226727D02*
D03*
X429000Y242900D02*
D03*
X425500Y249500D02*
D03*
X435000Y269500D02*
D03*
X347500Y291500D02*
D03*
X318500Y283500D02*
D03*
X439700Y269409D02*
D03*
X439535Y240965D02*
D03*
X445047Y243547D02*
D03*
X312000Y215500D02*
D03*
X314000Y263000D02*
D03*
X411500Y212500D02*
D03*
X438500Y214500D02*
D03*
X357730Y215479D02*
D03*
X390500Y290423D02*
D03*
X387000Y290750D02*
D03*
X398327Y288750D02*
D03*
X357250Y290750D02*
D03*
X383250D02*
D03*
X344867Y286133D02*
D03*
X398000Y278500D02*
D03*
X312039Y280039D02*
D03*
X320286Y272785D02*
D03*
X431093Y250448D02*
D03*
X456468Y281000D02*
D03*
X344982Y265018D02*
D03*
X389500Y205000D02*
D03*
X389495Y210000D02*
D03*
X348167Y212333D02*
D03*
X341500Y209500D02*
D03*
X397176Y204969D02*
D03*
X477000Y255000D02*
D03*
X345354Y278146D02*
D03*
X371349Y279302D02*
D03*
X423000Y265000D02*
D03*
X420000Y207000D02*
D03*
X477000Y247500D02*
D03*
X459500Y218000D02*
D03*
X449500Y217500D02*
D03*
X462500Y230000D02*
D03*
D44*
X323500Y216000D02*
D03*
X473404Y266325D02*
D03*
M02*
