M48
;Layer_Color=9474304
;FILE_FORMAT=2:4
INCH,LZ
;TYPE=PLATED
T1F00S00C0.0100
T2F00S00C0.0315
%
T01
X047597Y0252
X04755Y0271
X0423Y0272
X0414Y0281
X0396Y0279
X03885Y02785
X037983
X037001Y027911
X03565Y0284
X0356Y0288
X0345Y0286
Y02785
Y02645
X03235Y025
X03335Y02165
X03365Y02095
X036638Y020974
X03665Y02065
X03895Y02095
X03935Y0205
X041385Y02125
X04135Y022111
X04385Y02145
X04495Y02175
X0459Y021787
X04625Y023
X040057Y02894
X0384Y02895
X0381
X03095Y02135
T02
X0323Y021738
Y022525
Y023313
Y0241
Y025738
Y026525
Y027313
Y0281
M30
