G04*
G04 #@! TF.GenerationSoftware,Altium Limited,Altium Designer,23.0.1 (38)*
G04*
G04 Layer_Color=8388736*
%FSLAX25Y25*%
%MOIN*%
G70*
G04*
G04 #@! TF.SameCoordinates,29F5B130-E819-45AE-A50E-1DD68B7551F0*
G04*
G04*
G04 #@! TF.FilePolarity,Negative*
G04*
G01*
G75*
%ADD25O,0.07099X0.03162*%
%ADD26O,0.03162X0.07099*%
%ADD27R,0.05131X0.04343*%
%ADD28R,0.04343X0.05131*%
%ADD29R,0.11036X0.13005*%
%ADD30R,0.06115X0.04934*%
%ADD31R,0.04934X0.06115*%
%ADD32R,0.05918X0.07887*%
%ADD33R,0.04343X0.05524*%
%ADD34R,0.04737X0.03162*%
%ADD35R,0.03950X0.03950*%
%ADD36R,0.05131X0.09658*%
%ADD37R,0.04934X0.05131*%
%ADD38R,0.01981X0.03556*%
%ADD39C,0.06312*%
G04:AMPARAMS|DCode=40|XSize=63.12mil|YSize=63.12mil|CornerRadius=17.78mil|HoleSize=0mil|Usage=FLASHONLY|Rotation=90.000|XOffset=0mil|YOffset=0mil|HoleType=Round|Shape=RoundedRectangle|*
%AMROUNDEDRECTD40*
21,1,0.06312,0.02756,0,0,90.0*
21,1,0.02756,0.06312,0,0,90.0*
1,1,0.03556,0.01378,0.01378*
1,1,0.03556,0.01378,-0.01378*
1,1,0.03556,-0.01378,-0.01378*
1,1,0.03556,-0.01378,0.01378*
%
%ADD40ROUNDEDRECTD40*%
%ADD41C,0.02800*%
%ADD42C,0.03300*%
G36*
X377095Y256504D02*
X366071D01*
Y265441D01*
X370126Y269496D01*
X377095D01*
Y256504D01*
D02*
G37*
D25*
X352095Y273433D02*
D03*
Y269102D02*
D03*
Y264772D02*
D03*
Y260441D02*
D03*
Y256110D02*
D03*
Y251780D02*
D03*
Y247449D02*
D03*
Y243118D02*
D03*
Y238787D02*
D03*
Y234457D02*
D03*
Y230126D02*
D03*
Y225795D02*
D03*
X413905D02*
D03*
Y230126D02*
D03*
Y234457D02*
D03*
Y238787D02*
D03*
Y243118D02*
D03*
Y247449D02*
D03*
Y251780D02*
D03*
Y256110D02*
D03*
Y260441D02*
D03*
Y264772D02*
D03*
Y269102D02*
D03*
Y273433D02*
D03*
D26*
X365677Y214968D02*
D03*
X370008D02*
D03*
X374339D02*
D03*
X378669D02*
D03*
X383000D02*
D03*
X387331D02*
D03*
X391661D02*
D03*
X395992D02*
D03*
X400323D02*
D03*
Y284260D02*
D03*
X395992D02*
D03*
X391661D02*
D03*
X387331D02*
D03*
X383000D02*
D03*
X378669D02*
D03*
X374339D02*
D03*
X370008D02*
D03*
X365677D02*
D03*
D27*
X361937Y268905D02*
D03*
Y263394D02*
D03*
Y257882D02*
D03*
Y252370D02*
D03*
Y246858D02*
D03*
Y241347D02*
D03*
Y235835D02*
D03*
Y230323D02*
D03*
X404063D02*
D03*
Y235835D02*
D03*
Y241347D02*
D03*
Y246858D02*
D03*
Y252370D02*
D03*
D28*
X366465Y224811D02*
D03*
X371976D02*
D03*
X377488D02*
D03*
X383000D02*
D03*
X388512D02*
D03*
X394024D02*
D03*
X399535D02*
D03*
X394024Y274417D02*
D03*
X388512D02*
D03*
X383000D02*
D03*
X377488D02*
D03*
X371976D02*
D03*
X366465D02*
D03*
D29*
X394417Y236228D02*
D03*
X383000D02*
D03*
X371583D02*
D03*
X394417Y249614D02*
D03*
X383000D02*
D03*
X371583D02*
D03*
X394417Y263000D02*
D03*
X383000D02*
D03*
D30*
X423000Y284339D02*
D03*
X346000Y217339D02*
D03*
X423000Y276661D02*
D03*
X346000Y209661D02*
D03*
X424000Y237339D02*
D03*
Y229661D02*
D03*
X475500Y278323D02*
D03*
Y286000D02*
D03*
D31*
X410500Y207000D02*
D03*
X402823D02*
D03*
X332161Y278500D02*
D03*
X339839D02*
D03*
Y288000D02*
D03*
X332161D02*
D03*
X383339Y207000D02*
D03*
X375661D02*
D03*
X415339Y289500D02*
D03*
X407661D02*
D03*
X314823Y292500D02*
D03*
X322500D02*
D03*
X340000Y225500D02*
D03*
X332323D02*
D03*
X339839Y233500D02*
D03*
X332161D02*
D03*
X339839Y241500D02*
D03*
X332161D02*
D03*
X353161Y292500D02*
D03*
X360839D02*
D03*
X368823D02*
D03*
X376500D02*
D03*
D32*
X432787Y263287D02*
D03*
Y228642D02*
D03*
X481213Y263287D02*
D03*
Y228642D02*
D03*
D33*
X444500Y212500D02*
D03*
X454500D02*
D03*
X464500D02*
D03*
X449500D02*
D03*
X459500D02*
D03*
X469500D02*
D03*
D34*
X339937Y249260D02*
D03*
Y256740D02*
D03*
X332063Y253000D02*
D03*
Y271240D02*
D03*
Y263760D02*
D03*
X339937Y267500D02*
D03*
X452563Y284740D02*
D03*
Y277260D02*
D03*
X460437Y281000D02*
D03*
D35*
X456953Y292500D02*
D03*
X451047D02*
D03*
D36*
X430386Y282500D02*
D03*
X442000D02*
D03*
D37*
X436193Y276398D02*
D03*
D38*
X419941Y210563D02*
D03*
X422500D02*
D03*
X425059D02*
D03*
Y218437D02*
D03*
X422500D02*
D03*
X419941D02*
D03*
D39*
X323000Y233126D02*
D03*
Y241000D02*
D03*
Y225252D02*
D03*
Y281000D02*
D03*
Y273126D02*
D03*
Y265252D02*
D03*
D40*
Y217378D02*
D03*
Y257378D02*
D03*
D41*
X459500Y218000D02*
D03*
X412060Y213577D02*
D03*
X397176Y204969D02*
D03*
X393640D02*
D03*
X389495Y210000D02*
D03*
X366382Y209736D02*
D03*
X379000Y278583D02*
D03*
X371349Y279302D02*
D03*
X414000Y279469D02*
D03*
X385500Y289750D02*
D03*
X392500D02*
D03*
X381500D02*
D03*
X400000Y290423D02*
D03*
X396008Y278571D02*
D03*
X423000Y265000D02*
D03*
X356323Y286475D02*
D03*
X357943Y289000D02*
D03*
X425000Y247500D02*
D03*
X423000Y272000D02*
D03*
X357500Y215000D02*
D03*
X336500Y209500D02*
D03*
X388500Y278500D02*
D03*
X420000Y207000D02*
D03*
X477000Y247500D02*
D03*
X345000Y288423D02*
D03*
X345354Y278146D02*
D03*
X438500Y214500D02*
D03*
X366500Y206500D02*
D03*
X323500Y250000D02*
D03*
X309500Y213500D02*
D03*
X333500Y216500D02*
D03*
X345000Y264500D02*
D03*
X413500Y221114D02*
D03*
X449500Y217500D02*
D03*
X462500Y230000D02*
D03*
D42*
X475500Y271000D02*
D03*
M02*
