G04*
G04 #@! TF.GenerationSoftware,Altium Limited,Altium Designer,23.0.1 (38)*
G04*
G04 Layer_Color=128*
%FSLAX25Y25*%
%MOIN*%
G70*
G04*
G04 #@! TF.SameCoordinates,8F624F87-4904-4D54-B770-2945CE276165*
G04*
G04*
G04 #@! TF.FilePolarity,Positive*
G04*
G01*
G75*
%ADD16R,0.05906X0.04724*%
%ADD18R,0.04134X0.05315*%
%ADD23R,0.05315X0.04134*%
%ADD59R,0.07087X0.07480*%
%ADD60R,0.01575X0.05315*%
%ADD61R,0.08268X0.06299*%
%ADD62R,0.07480X0.09843*%
%ADD63R,0.06102X0.09252*%
%ADD64R,0.04724X0.05906*%
G04:AMPARAMS|DCode=65|XSize=49.21mil|YSize=23.23mil|CornerRadius=2.9mil|HoleSize=0mil|Usage=FLASHONLY|Rotation=180.000|XOffset=0mil|YOffset=0mil|HoleType=Round|Shape=RoundedRectangle|*
%AMROUNDEDRECTD65*
21,1,0.04921,0.01742,0,0,180.0*
21,1,0.04341,0.02323,0,0,180.0*
1,1,0.00581,-0.02170,0.00871*
1,1,0.00581,0.02170,0.00871*
1,1,0.00581,0.02170,-0.00871*
1,1,0.00581,-0.02170,-0.00871*
%
%ADD65ROUNDEDRECTD65*%
D16*
X403500Y253500D02*
D03*
X395000Y253543D02*
D03*
X475000Y233043D02*
D03*
Y225957D02*
D03*
X403500Y246413D02*
D03*
X395000Y246457D02*
D03*
X349000Y236457D02*
D03*
Y243543D02*
D03*
D18*
X377339Y227000D02*
D03*
X369661D02*
D03*
X399161Y235000D02*
D03*
X406839D02*
D03*
D23*
X411500Y253839D02*
D03*
Y246161D02*
D03*
D59*
X474248Y285315D02*
D03*
X442752D02*
D03*
D60*
X453382Y274685D02*
D03*
X455941D02*
D03*
X458500D02*
D03*
X461059D02*
D03*
X463618D02*
D03*
D61*
X446295Y275276D02*
D03*
X470705Y275291D02*
D03*
D62*
X387571Y265000D02*
D03*
X371429D02*
D03*
D63*
X362500Y237465D02*
D03*
Y254000D02*
D03*
D64*
X369957Y235500D02*
D03*
X377043D02*
D03*
X468457Y241000D02*
D03*
X475543D02*
D03*
X453957D02*
D03*
X461043D02*
D03*
X427500Y255500D02*
D03*
X420413D02*
D03*
D65*
X387697Y251240D02*
D03*
Y247500D02*
D03*
Y243760D02*
D03*
X377815D02*
D03*
Y247500D02*
D03*
Y251240D02*
D03*
M02*
