G04*
G04 #@! TF.GenerationSoftware,Altium Limited,Altium Designer,23.0.1 (38)*
G04*
G04 Layer_Color=255*
%FSLAX25Y25*%
%MOIN*%
G70*
G04*
G04 #@! TF.SameCoordinates,8F8842E6-A163-4070-9E61-B2F925759E80*
G04*
G04*
G04 #@! TF.FilePolarity,Positive*
G04*
G01*
G75*
%ADD16R,0.04134X0.05315*%
%ADD17R,0.05906X0.04724*%
%ADD18R,0.05315X0.04134*%
G04:AMPARAMS|DCode=55|XSize=55.12mil|YSize=55.12mil|CornerRadius=13.78mil|HoleSize=0mil|Usage=FLASHONLY|Rotation=90.000|XOffset=0mil|YOffset=0mil|HoleType=Round|Shape=RoundedRectangle|*
%AMROUNDEDRECTD55*
21,1,0.05512,0.02756,0,0,90.0*
21,1,0.02756,0.05512,0,0,90.0*
1,1,0.02756,0.01378,0.01378*
1,1,0.02756,0.01378,-0.01378*
1,1,0.02756,-0.01378,-0.01378*
1,1,0.02756,-0.01378,0.01378*
%
%ADD55ROUNDEDRECTD55*%
%ADD56C,0.05512*%
%ADD59R,0.04724X0.05906*%
G04:AMPARAMS|DCode=60|XSize=77.56mil|YSize=23.62mil|CornerRadius=2.95mil|HoleSize=0mil|Usage=FLASHONLY|Rotation=90.000|XOffset=0mil|YOffset=0mil|HoleType=Round|Shape=RoundedRectangle|*
%AMROUNDEDRECTD60*
21,1,0.07756,0.01772,0,0,90.0*
21,1,0.07165,0.02362,0,0,90.0*
1,1,0.00591,0.00886,0.03583*
1,1,0.00591,0.00886,-0.03583*
1,1,0.00591,-0.00886,-0.03583*
1,1,0.00591,-0.00886,0.03583*
%
%ADD60ROUNDEDRECTD60*%
%ADD61R,0.12992X0.09488*%
%ADD62R,0.08268X0.06299*%
%ADD63R,0.01575X0.05315*%
%ADD64R,0.07087X0.07480*%
%ADD65R,0.07480X0.09843*%
D16*
X357339Y223500D02*
D03*
X349661D02*
D03*
X406839Y235000D02*
D03*
X399161D02*
D03*
D17*
X395000Y246457D02*
D03*
Y253543D02*
D03*
X403500Y246413D02*
D03*
Y253500D02*
D03*
X475000Y225957D02*
D03*
Y233043D02*
D03*
D18*
X413000Y246161D02*
D03*
Y253839D02*
D03*
D55*
X322000Y238000D02*
D03*
D56*
Y245874D02*
D03*
Y253748D02*
D03*
Y261622D02*
D03*
D59*
X354457Y234500D02*
D03*
X361543D02*
D03*
X361543Y270000D02*
D03*
X354457D02*
D03*
X400043Y226500D02*
D03*
X392957D02*
D03*
X420413Y255500D02*
D03*
X427500D02*
D03*
X373000Y223500D02*
D03*
X380087D02*
D03*
X475543Y241000D02*
D03*
X468457D02*
D03*
X461043D02*
D03*
X453957D02*
D03*
D60*
X384000Y235256D02*
D03*
X379000D02*
D03*
X374000D02*
D03*
X369000D02*
D03*
Y254744D02*
D03*
X374000D02*
D03*
X379000D02*
D03*
X384000D02*
D03*
D61*
X376500Y245000D02*
D03*
D62*
X470705Y275291D02*
D03*
X446295Y275276D02*
D03*
D63*
X463618Y274685D02*
D03*
X461059D02*
D03*
X458500D02*
D03*
X455941D02*
D03*
X453382D02*
D03*
D64*
X442752Y285315D02*
D03*
X474248D02*
D03*
D65*
X376429Y271000D02*
D03*
X392571D02*
D03*
M02*
