G04*
G04 #@! TF.GenerationSoftware,Altium Limited,Altium Designer,23.0.1 (38)*
G04*
G04 Layer_Color=8388736*
%FSLAX24Y24*%
%MOIN*%
G70*
G04*
G04 #@! TF.SameCoordinates,4B295FFD-E36D-49C0-9059-740962033B99*
G04*
G04*
G04 #@! TF.FilePolarity,Negative*
G04*
G01*
G75*
%ADD25R,0.0434X0.0552*%
%ADD26R,0.0592X0.0789*%
%ADD27R,0.0493X0.0611*%
%ADD28R,0.0611X0.0493*%
%ADD29R,0.1104X0.1300*%
%ADD30R,0.0434X0.0513*%
%ADD31R,0.0513X0.0434*%
%ADD32O,0.0316X0.0710*%
%ADD33O,0.0710X0.0316*%
%ADD34R,0.0474X0.0316*%
%ADD35R,0.0395X0.0395*%
%ADD36R,0.0513X0.0966*%
%ADD37R,0.0493X0.0513*%
%ADD38R,0.0198X0.0356*%
G04:AMPARAMS|DCode=39|XSize=63.1mil|YSize=63.1mil|CornerRadius=17.8mil|HoleSize=0mil|Usage=FLASHONLY|Rotation=90.000|XOffset=0mil|YOffset=0mil|HoleType=Round|Shape=RoundedRectangle|*
%AMROUNDEDRECTD39*
21,1,0.0631,0.0276,0,0,90.0*
21,1,0.0276,0.0631,0,0,90.0*
1,1,0.0356,0.0138,0.0138*
1,1,0.0356,0.0138,-0.0138*
1,1,0.0356,-0.0138,-0.0138*
1,1,0.0356,-0.0138,0.0138*
%
%ADD39ROUNDEDRECTD39*%
%ADD40C,0.0631*%
%ADD41C,0.0280*%
%ADD42C,0.0330*%
G36*
X37709Y25650D02*
X36607D01*
Y26544D01*
X37013Y26950D01*
X37709D01*
Y25650D01*
D02*
G37*
D25*
X46950Y21250D02*
D03*
X45950D02*
D03*
X44950D02*
D03*
X46450D02*
D03*
X45450D02*
D03*
X44450D02*
D03*
D26*
X48121Y22864D02*
D03*
Y26329D02*
D03*
X43279Y22864D02*
D03*
Y26329D02*
D03*
D27*
X33216Y27850D02*
D03*
X33984D02*
D03*
Y28800D02*
D03*
X33216D02*
D03*
X38334Y20700D02*
D03*
X37566D02*
D03*
X41534Y28950D02*
D03*
X40766D02*
D03*
X40282Y20700D02*
D03*
X41050D02*
D03*
X31482Y29250D02*
D03*
X32250D02*
D03*
X34000Y22550D02*
D03*
X33232D02*
D03*
X33984Y23350D02*
D03*
X33216D02*
D03*
X33984Y24150D02*
D03*
X33216D02*
D03*
X35316Y29250D02*
D03*
X36084D02*
D03*
X36882D02*
D03*
X37650D02*
D03*
D28*
X34600Y21734D02*
D03*
Y20966D02*
D03*
X42300Y28434D02*
D03*
Y27666D02*
D03*
X42400Y23734D02*
D03*
Y22966D02*
D03*
X47550Y27832D02*
D03*
Y28600D02*
D03*
D29*
X38300Y26300D02*
D03*
X39442D02*
D03*
X37158Y24961D02*
D03*
X38300D02*
D03*
X39442D02*
D03*
X37158Y23623D02*
D03*
X38300D02*
D03*
X39442D02*
D03*
D30*
X36646Y27442D02*
D03*
X37198D02*
D03*
X37749D02*
D03*
X38300D02*
D03*
X38851D02*
D03*
X39402D02*
D03*
X39954Y22481D02*
D03*
X39402D02*
D03*
X38851D02*
D03*
X38300D02*
D03*
X37749D02*
D03*
X37198D02*
D03*
X36646D02*
D03*
D31*
X40406Y25237D02*
D03*
Y24686D02*
D03*
Y24135D02*
D03*
Y23583D02*
D03*
Y23032D02*
D03*
X36194D02*
D03*
Y23583D02*
D03*
Y24135D02*
D03*
Y24686D02*
D03*
Y25237D02*
D03*
Y25788D02*
D03*
Y26339D02*
D03*
Y26891D02*
D03*
D32*
X36568Y28426D02*
D03*
X37001D02*
D03*
X37434D02*
D03*
X37867D02*
D03*
X38300D02*
D03*
X38733D02*
D03*
X39166D02*
D03*
X39599D02*
D03*
X40032D02*
D03*
Y21497D02*
D03*
X39599D02*
D03*
X39166D02*
D03*
X38733D02*
D03*
X38300D02*
D03*
X37867D02*
D03*
X37434D02*
D03*
X37001D02*
D03*
X36568D02*
D03*
D33*
X41391Y27343D02*
D03*
Y26910D02*
D03*
Y26477D02*
D03*
Y26044D02*
D03*
Y25611D02*
D03*
Y25178D02*
D03*
Y24745D02*
D03*
Y24312D02*
D03*
Y23879D02*
D03*
Y23446D02*
D03*
Y23013D02*
D03*
Y22580D02*
D03*
X35209D02*
D03*
Y23013D02*
D03*
Y23446D02*
D03*
Y23879D02*
D03*
Y24312D02*
D03*
Y24745D02*
D03*
Y25178D02*
D03*
Y25611D02*
D03*
Y26044D02*
D03*
Y26477D02*
D03*
Y26910D02*
D03*
Y27343D02*
D03*
D34*
X33994Y24926D02*
D03*
Y25674D02*
D03*
X33206Y25300D02*
D03*
Y27124D02*
D03*
Y26376D02*
D03*
X33994Y26750D02*
D03*
X45256Y28474D02*
D03*
Y27726D02*
D03*
X46044Y28100D02*
D03*
D35*
X45695Y29250D02*
D03*
X45105D02*
D03*
D36*
X43039Y28250D02*
D03*
X44200D02*
D03*
D37*
X43619Y27640D02*
D03*
D38*
X41994Y21056D02*
D03*
X42250D02*
D03*
X42506D02*
D03*
Y21844D02*
D03*
X42250D02*
D03*
X41994D02*
D03*
D39*
X32300Y21738D02*
D03*
Y25738D02*
D03*
D40*
Y22525D02*
D03*
Y23313D02*
D03*
Y24100D02*
D03*
Y28100D02*
D03*
Y27313D02*
D03*
Y26525D02*
D03*
D41*
X43850Y21450D02*
D03*
X41400Y28100D02*
D03*
X38400Y28950D02*
D03*
X33650Y20950D02*
D03*
X39600Y27900D02*
D03*
X38850Y27850D02*
D03*
X45900Y21787D02*
D03*
X38950Y20950D02*
D03*
X36638Y20974D02*
D03*
X39350Y20500D02*
D03*
X36650Y20650D02*
D03*
X34500Y28600D02*
D03*
X35600Y28800D02*
D03*
X35650Y28400D02*
D03*
X38100Y28950D02*
D03*
X37983Y27850D02*
D03*
X40057Y28940D02*
D03*
X37001Y27911D02*
D03*
X32350Y25000D02*
D03*
X30950Y21350D02*
D03*
X33350Y21650D02*
D03*
X34500Y26450D02*
D03*
X42300Y27200D02*
D03*
X47597Y25200D02*
D03*
X41350Y22111D02*
D03*
X41385Y21250D02*
D03*
X44950Y21750D02*
D03*
X46250Y23000D02*
D03*
X34500Y27850D02*
D03*
D42*
X47550Y27100D02*
D03*
M02*
