G04*
G04 #@! TF.GenerationSoftware,Altium Limited,Altium Designer,23.0.1 (38)*
G04*
G04 Layer_Color=128*
%FSLAX24Y24*%
%MOIN*%
G70*
G04*
G04 #@! TF.SameCoordinates,4B295FFD-E36D-49C0-9059-740962033B99*
G04*
G04*
G04 #@! TF.FilePolarity,Positive*
G04*
G01*
G75*
%ADD18R,0.0413X0.0531*%
%ADD19R,0.0531X0.0413*%
%ADD55R,0.0591X0.0472*%
%ADD56R,0.0472X0.0591*%
%ADD57R,0.0610X0.0925*%
%ADD58R,0.0748X0.0984*%
G04:AMPARAMS|DCode=59|XSize=49.2mil|YSize=23.2mil|CornerRadius=2.9mil|HoleSize=0mil|Usage=FLASHONLY|Rotation=180.000|XOffset=0mil|YOffset=0mil|HoleType=Round|Shape=RoundedRectangle|*
%AMROUNDEDRECTD59*
21,1,0.0492,0.0174,0,0,180.0*
21,1,0.0434,0.0232,0,0,180.0*
1,1,0.0058,-0.0217,0.0087*
1,1,0.0058,0.0217,0.0087*
1,1,0.0058,0.0217,-0.0087*
1,1,0.0058,-0.0217,-0.0087*
%
%ADD59ROUNDEDRECTD59*%
D18*
X37734Y22700D02*
D03*
X36966D02*
D03*
X39916Y23500D02*
D03*
X40684D02*
D03*
D19*
X41150Y25384D02*
D03*
Y24616D02*
D03*
D55*
X47500Y23304D02*
D03*
Y22596D02*
D03*
X40350Y25350D02*
D03*
Y24641D02*
D03*
X39500Y25354D02*
D03*
Y24646D02*
D03*
X34900Y23646D02*
D03*
Y24354D02*
D03*
D56*
X36996Y23550D02*
D03*
X37704D02*
D03*
X46846Y24100D02*
D03*
X47554D02*
D03*
X45396D02*
D03*
X46104D02*
D03*
X42750Y25550D02*
D03*
X42041D02*
D03*
D57*
X36250Y23746D02*
D03*
Y25400D02*
D03*
D58*
X37143Y26500D02*
D03*
X38757D02*
D03*
D59*
X38770Y25124D02*
D03*
Y24750D02*
D03*
Y24376D02*
D03*
X37782D02*
D03*
Y24750D02*
D03*
Y25124D02*
D03*
M02*
