G04*
G04 #@! TF.GenerationSoftware,Altium Limited,Altium Designer,23.0.1 (38)*
G04*
G04 Layer_Physical_Order=1*
G04 Layer_Color=255*
%FSLAX24Y24*%
%MOIN*%
G70*
G04*
G04 #@! TF.SameCoordinates,4B295FFD-E36D-49C0-9059-740962033B99*
G04*
G04*
G04 #@! TF.FilePolarity,Positive*
G04*
G01*
G75*
%ADD14C,0.0100*%
%ADD16R,0.0354X0.0472*%
%ADD17R,0.0512X0.0709*%
%ADD18R,0.0413X0.0531*%
%ADD19R,0.0531X0.0413*%
%ADD20R,0.0394X0.0236*%
%ADD21R,0.0315X0.0315*%
%ADD22R,0.0433X0.0886*%
%ADD23R,0.0413X0.0433*%
%ADD24R,0.0118X0.0276*%
%ADD43R,0.0394X0.0394*%
%ADD44R,0.1024X0.1220*%
%ADD45R,0.0354X0.0433*%
%ADD46R,0.0433X0.0354*%
%ADD47O,0.0236X0.0630*%
%ADD48O,0.0630X0.0236*%
%ADD49C,0.0200*%
%ADD50C,0.0150*%
G04:AMPARAMS|DCode=51|XSize=55.1mil|YSize=55.1mil|CornerRadius=13.8mil|HoleSize=0mil|Usage=FLASHONLY|Rotation=90.000|XOffset=0mil|YOffset=0mil|HoleType=Round|Shape=RoundedRectangle|*
%AMROUNDEDRECTD51*
21,1,0.0551,0.0276,0,0,90.0*
21,1,0.0276,0.0551,0,0,90.0*
1,1,0.0276,0.0138,0.0138*
1,1,0.0276,0.0138,-0.0138*
1,1,0.0276,-0.0138,-0.0138*
1,1,0.0276,-0.0138,0.0138*
%
%ADD51ROUNDEDRECTD51*%
%ADD52C,0.0551*%
%ADD53C,0.0200*%
%ADD54C,0.0250*%
G36*
X35009Y29028D02*
X34959Y29007D01*
X34608Y29358D01*
X34559Y29391D01*
X34500Y29403D01*
X33275D01*
X33216Y29391D01*
X33167Y29358D01*
X33108Y29300D01*
X33075Y29250D01*
X33063Y29191D01*
Y29166D01*
X32909D01*
Y28843D01*
X32859Y28828D01*
X32852Y28839D01*
X32557Y29134D01*
Y29543D01*
X35009D01*
Y29028D01*
D02*
G37*
G36*
X39864Y28995D02*
X39857Y28980D01*
Y28900D01*
X39887Y28827D01*
X39883Y28786D01*
X39875Y28780D01*
X39846Y28736D01*
X39786D01*
X39756Y28780D01*
X39684Y28828D01*
X39599Y28845D01*
X39514Y28828D01*
X39442Y28780D01*
X39413Y28736D01*
X39353D01*
X39323Y28780D01*
X39251Y28828D01*
X39216Y28835D01*
Y28426D01*
X39116D01*
Y28835D01*
X39081Y28828D01*
X39009Y28780D01*
X38980Y28736D01*
X38920D01*
X38890Y28780D01*
X38818Y28828D01*
X38783Y28835D01*
Y28426D01*
X38683D01*
Y28835D01*
X38648Y28828D01*
X38599Y28796D01*
X38568Y28835D01*
X38570Y28837D01*
X38600Y28910D01*
Y28934D01*
X38703Y29037D01*
X39836D01*
X39864Y28995D01*
D02*
G37*
G36*
X44847Y29507D02*
Y28993D01*
X45146D01*
X45400Y28738D01*
X45381Y28692D01*
X44959D01*
X44959Y28692D01*
Y28692D01*
X44912Y28704D01*
X44258Y29358D01*
X44209Y29391D01*
X44150Y29403D01*
X41982D01*
X41888Y29497D01*
X41907Y29543D01*
X44812D01*
X44847Y29507D01*
D02*
G37*
G36*
X47564Y29526D02*
X47757Y29467D01*
X47935Y29372D01*
X48092Y29244D01*
X48220Y29087D01*
X48315Y28909D01*
X48374Y28716D01*
X48393Y28524D01*
X48391Y28515D01*
Y26783D01*
X47765D01*
Y25874D01*
X48391D01*
Y23319D01*
X47765D01*
X47750Y23362D01*
Y25070D01*
X47767Y25087D01*
X47797Y25160D01*
Y25240D01*
X47767Y25313D01*
X47711Y25370D01*
X47637Y25400D01*
X47557D01*
X47484Y25370D01*
X47428Y25313D01*
X47397Y25240D01*
X47349Y25245D01*
Y26407D01*
X47341Y26446D01*
X47319Y26480D01*
X47286Y26502D01*
X47247Y26509D01*
X46287D01*
X46248Y26502D01*
X46215Y26480D01*
X46192Y26446D01*
X46185Y26407D01*
Y24951D01*
X46192Y24912D01*
X46215Y24879D01*
X46248Y24857D01*
X46287Y24849D01*
X47247D01*
X47286Y24857D01*
X47319Y24879D01*
X47341Y24912D01*
X47349Y24951D01*
Y25155D01*
X47397Y25160D01*
X47428Y25087D01*
X47444Y25070D01*
Y22020D01*
X47011Y21586D01*
X46603D01*
Y21874D01*
X46591Y21932D01*
X46558Y21982D01*
X46503Y22036D01*
X46505Y22048D01*
X46526Y22085D01*
X47023D01*
X47062Y22093D01*
X47095Y22115D01*
X47117Y22148D01*
X47125Y22187D01*
Y23644D01*
X47117Y23683D01*
X47095Y23716D01*
X47062Y23738D01*
X47023Y23746D01*
X46511D01*
X46472Y23738D01*
X46439Y23716D01*
X46417Y23683D01*
X46415Y23674D01*
X46362Y23664D01*
X46358Y23670D01*
X45670Y24358D01*
X45620Y24391D01*
X45562Y24403D01*
X44563D01*
X44353Y24613D01*
Y24831D01*
X44403Y24858D01*
X44405Y24857D01*
X44444Y24849D01*
X44956D01*
X44995Y24857D01*
X45028Y24879D01*
X45050Y24912D01*
X45058Y24951D01*
Y26407D01*
X45050Y26446D01*
X45028Y26480D01*
X44995Y26502D01*
X44956Y26509D01*
X44444D01*
X44405Y26502D01*
X44403Y26500D01*
X44353Y26527D01*
Y27707D01*
X44517D01*
Y27884D01*
X44563Y27903D01*
X44756Y27710D01*
X44756Y27710D01*
X44801Y27665D01*
X44851Y27632D01*
X44909Y27620D01*
X44959D01*
Y27508D01*
X45206D01*
Y27726D01*
Y27944D01*
X44959D01*
X44959Y27944D01*
Y27944D01*
X44924Y27975D01*
X44616Y28282D01*
X44566Y28316D01*
X44517Y28326D01*
Y28602D01*
X44563Y28621D01*
X44818Y28366D01*
X44867Y28333D01*
X44926Y28321D01*
X44959D01*
Y28256D01*
X45553D01*
Y28520D01*
X45599Y28539D01*
X45774Y28364D01*
X45755Y28318D01*
X45747D01*
Y27882D01*
X46341D01*
Y28318D01*
X46195D01*
X46185Y28370D01*
X46152Y28419D01*
X45625Y28946D01*
X45644Y28993D01*
X45953D01*
Y29072D01*
X46767D01*
X47184Y28654D01*
Y28293D01*
X47916D01*
Y28907D01*
X47437D01*
X46967Y29376D01*
X46909Y29415D01*
X46841Y29428D01*
X45953D01*
Y29507D01*
X45988Y29543D01*
X47363D01*
X47372Y29545D01*
X47564Y29526D01*
D02*
G37*
G36*
X36576Y28894D02*
X36573Y28880D01*
X36555Y28843D01*
X36483Y28828D01*
X36410Y28780D01*
X36362Y28708D01*
X36345Y28623D01*
Y28229D01*
X36362Y28144D01*
X36370Y28132D01*
X36346Y28088D01*
X35728D01*
X35662Y28154D01*
X35682Y28200D01*
X35690D01*
X35763Y28230D01*
X35820Y28287D01*
X35850Y28360D01*
Y28440D01*
X35820Y28513D01*
X35763Y28570D01*
X35759Y28571D01*
X35747Y28629D01*
X35769Y28652D01*
X36054D01*
X36113Y28664D01*
X36162Y28697D01*
X36221Y28756D01*
X36254Y28805D01*
X36266Y28864D01*
Y28884D01*
X36391D01*
Y29543D01*
X36576D01*
Y28894D01*
D02*
G37*
G36*
X34747Y28553D02*
Y28350D01*
X34759Y28291D01*
X34792Y28242D01*
X35426Y27607D01*
X35397Y27566D01*
X35013D01*
X34927Y27549D01*
X34855Y27501D01*
X34852Y27496D01*
X34291D01*
Y27697D01*
X34370D01*
X34387Y27680D01*
X34460Y27650D01*
X34540D01*
X34613Y27680D01*
X34670Y27737D01*
X34700Y27810D01*
Y27890D01*
X34670Y27963D01*
X34653Y27980D01*
Y28470D01*
X34670Y28487D01*
X34700Y28560D01*
X34747Y28553D01*
D02*
G37*
G36*
X40490Y28326D02*
X40539Y28293D01*
X40598Y28281D01*
X41227D01*
X41248Y28231D01*
X41230Y28213D01*
X41200Y28140D01*
Y28060D01*
X41230Y27987D01*
X41287Y27930D01*
X41360Y27900D01*
X41440D01*
X41513Y27930D01*
X41530Y27947D01*
X41744D01*
X41934Y27757D01*
Y27524D01*
X41896Y27493D01*
X41877Y27496D01*
X41748D01*
X41745Y27501D01*
X41673Y27549D01*
X41587Y27566D01*
X41441D01*
Y27343D01*
X41341D01*
Y27566D01*
X41194D01*
X41129Y27553D01*
X41079Y27585D01*
Y27954D01*
X41071Y27993D01*
X41049Y28026D01*
X41016Y28048D01*
X40977Y28056D01*
X40239D01*
X40212Y28105D01*
X40238Y28144D01*
X40255Y28229D01*
Y28490D01*
X40305Y28511D01*
X40490Y28326D01*
D02*
G37*
G36*
X36369Y27758D02*
Y27168D01*
X35877D01*
X35853Y27208D01*
Y27550D01*
X35841Y27609D01*
X35808Y27658D01*
X35730Y27736D01*
X35749Y27782D01*
X36329D01*
X36369Y27758D01*
D02*
G37*
G36*
X39875Y28072D02*
X39947Y28024D01*
X39994Y28014D01*
X40032Y27995D01*
X40030Y27960D01*
X40029Y27954D01*
Y27010D01*
X39555D01*
Y27125D01*
X39680D01*
Y27392D01*
X39402D01*
Y27492D01*
X39680D01*
Y27716D01*
X39713Y27730D01*
X39770Y27787D01*
X39800Y27860D01*
Y27940D01*
X39770Y28013D01*
X39759Y28024D01*
X39756Y28072D01*
X39786Y28116D01*
X39846D01*
X39875Y28072D01*
D02*
G37*
G36*
X44047Y24550D02*
X44059Y24491D01*
X44092Y24442D01*
X44392Y24142D01*
X44441Y24109D01*
X44500Y24097D01*
X45498D01*
X45804Y23792D01*
X45784Y23746D01*
X45444D01*
X45405Y23738D01*
X45372Y23716D01*
X45350Y23683D01*
X45342Y23644D01*
Y22187D01*
X45350Y22148D01*
X45372Y22115D01*
X45405Y22093D01*
X45444Y22085D01*
X45956D01*
X45995Y22093D01*
X46028Y22115D01*
X46089Y22116D01*
X46097Y22110D01*
Y22074D01*
X46109Y22015D01*
X46142Y21965D01*
X46297Y21810D01*
Y21586D01*
X46103D01*
Y21787D01*
X46100Y21802D01*
Y21827D01*
X46070Y21900D01*
X46013Y21957D01*
X45940Y21987D01*
X45915D01*
X45900Y21990D01*
X45304D01*
X45149Y22145D01*
X45100Y22178D01*
X45058Y22187D01*
X45058Y22187D01*
Y23644D01*
X45050Y23683D01*
X45028Y23716D01*
X44995Y23738D01*
X44956Y23746D01*
X44444D01*
X44405Y23738D01*
X44372Y23716D01*
X44350Y23683D01*
X44342Y23644D01*
Y22358D01*
X44296Y22339D01*
X44196Y22440D01*
X44146Y22473D01*
X44087Y22484D01*
X43635D01*
Y23319D01*
X42923D01*
Y22484D01*
X42347D01*
X42337Y22497D01*
Y22659D01*
X42766D01*
Y23273D01*
X42568D01*
X42541Y23323D01*
X42541Y23323D01*
X42553Y23381D01*
Y23427D01*
X42766D01*
Y24041D01*
X42034D01*
Y23468D01*
X42014Y23464D01*
X41964Y23431D01*
X41751Y23218D01*
X41736Y23219D01*
X41733Y23221D01*
X41728Y23277D01*
X41745Y23288D01*
X41793Y23361D01*
X41810Y23446D01*
X41793Y23531D01*
X41745Y23603D01*
X41701Y23632D01*
Y23692D01*
X41745Y23721D01*
X41793Y23794D01*
X41810Y23879D01*
X41793Y23964D01*
X41745Y24036D01*
X41701Y24065D01*
Y24125D01*
X41745Y24155D01*
X41793Y24227D01*
X41810Y24312D01*
X41793Y24397D01*
X41745Y24469D01*
X41701Y24498D01*
Y24558D01*
X41745Y24588D01*
X41748Y24592D01*
X41986D01*
X42045Y24604D01*
X42094Y24637D01*
X42153Y24695D01*
X42186Y24745D01*
X42198Y24803D01*
Y26441D01*
X42186Y26500D01*
X42153Y26550D01*
X42094Y26608D01*
X42045Y26641D01*
X41986Y26653D01*
X41717D01*
X41701Y26664D01*
Y26724D01*
X41745Y26753D01*
X41748Y26757D01*
X42900D01*
X42923Y26738D01*
Y25874D01*
X43635D01*
Y26783D01*
X43059D01*
X43039Y26833D01*
X43529Y27323D01*
X43926D01*
Y27707D01*
X44047D01*
Y24550D01*
D02*
G37*
G36*
X37670Y25690D02*
X36646D01*
Y26505D01*
X37052Y26910D01*
X37670D01*
Y25690D01*
D02*
G37*
G36*
X32909Y26158D02*
X33053D01*
Y25934D01*
X33065Y25876D01*
X33098Y25826D01*
X33360Y25564D01*
X33341Y25518D01*
X33162D01*
X32834Y25846D01*
X32784Y25879D01*
X32726Y25891D01*
X32677D01*
X32662Y25968D01*
X32609Y26047D01*
X32531Y26100D01*
X32438Y26118D01*
X32425D01*
X32418Y26168D01*
X32445Y26175D01*
X32531Y26225D01*
X32601Y26295D01*
X32645Y26372D01*
X32909D01*
Y26158D01*
D02*
G37*
G36*
X34299Y26491D02*
X34300Y26486D01*
Y26410D01*
X34330Y26337D01*
X34387Y26280D01*
X34388Y26280D01*
Y25341D01*
X34341Y25322D01*
X34253Y25410D01*
X34272Y25456D01*
X34291D01*
Y25892D01*
X33980D01*
X33955Y25929D01*
X33753Y26131D01*
Y26532D01*
X34263D01*
X34299Y26491D01*
D02*
G37*
G36*
X35877Y27005D02*
Y26613D01*
Y26062D01*
Y25838D01*
X36194D01*
Y25738D01*
X35877D01*
Y25727D01*
X35853Y25703D01*
X35807Y25672D01*
X35719Y25584D01*
X35686Y25535D01*
X35674Y25476D01*
Y25205D01*
X35624Y25200D01*
X35612Y25263D01*
X35564Y25335D01*
X35520Y25364D01*
Y25425D01*
X35564Y25454D01*
X35612Y25526D01*
X35629Y25611D01*
X35612Y25696D01*
X35564Y25768D01*
X35520Y25797D01*
Y25858D01*
X35564Y25887D01*
X35612Y25959D01*
X35629Y26044D01*
X35612Y26129D01*
X35564Y26201D01*
X35520Y26231D01*
Y26291D01*
X35564Y26320D01*
X35612Y26392D01*
X35629Y26477D01*
X35612Y26562D01*
X35564Y26634D01*
X35520Y26664D01*
Y26724D01*
X35564Y26753D01*
X35591Y26794D01*
X35595Y26795D01*
X35644Y26828D01*
X35808Y26992D01*
X35827Y27020D01*
X35877Y27005D01*
D02*
G37*
G36*
X31926Y26579D02*
X31924Y26575D01*
Y26476D01*
X31950Y26380D01*
X31999Y26295D01*
X32069Y26225D01*
X32155Y26175D01*
X32182Y26168D01*
X32175Y26118D01*
X32162D01*
X32069Y26100D01*
X31991Y26047D01*
X31938Y25968D01*
X31920Y25876D01*
Y25600D01*
X31938Y25507D01*
X31991Y25429D01*
X32069Y25376D01*
X32162Y25358D01*
X32438D01*
X32531Y25376D01*
X32609Y25429D01*
X32662Y25507D01*
X32664Y25520D01*
X32712Y25535D01*
X32909Y25338D01*
Y25082D01*
X33053D01*
Y24952D01*
X32751Y24650D01*
X32718Y24601D01*
X32707Y24542D01*
Y24227D01*
X32657Y24221D01*
X32650Y24245D01*
X32601Y24331D01*
X32531Y24401D01*
X32445Y24450D01*
X32350Y24475D01*
Y24100D01*
X32300D01*
Y24050D01*
X31925D01*
X31950Y23955D01*
X31999Y23869D01*
X32069Y23799D01*
X32155Y23750D01*
X32222Y23732D01*
Y23680D01*
X32155Y23663D01*
X32069Y23613D01*
X31999Y23543D01*
X31996Y23543D01*
X31654Y23884D01*
Y26378D01*
X31881Y26605D01*
X31926Y26579D01*
D02*
G37*
G36*
X39492Y22913D02*
X40054D01*
X40090Y22879D01*
Y22798D01*
X36510D01*
Y22879D01*
X36546Y22913D01*
X37108D01*
Y23623D01*
X37208D01*
Y22913D01*
X38250D01*
Y23623D01*
X38350D01*
Y22913D01*
X39392D01*
Y23623D01*
X39492D01*
Y22913D01*
D02*
G37*
G36*
X38129Y22118D02*
X37917Y21906D01*
X37867Y21916D01*
X37782Y21899D01*
X37710Y21851D01*
X37680Y21807D01*
X37620D01*
X37591Y21851D01*
X37519Y21899D01*
X37434Y21916D01*
X37349Y21899D01*
X37277Y21851D01*
X37247Y21807D01*
X37187D01*
X37158Y21851D01*
X37086Y21899D01*
X37001Y21916D01*
X36916Y21899D01*
X36844Y21851D01*
X36814Y21807D01*
X36754D01*
X36725Y21851D01*
X36653Y21899D01*
X36568Y21916D01*
X36563Y21915D01*
X36359Y22119D01*
X36384Y22165D01*
X38110D01*
X38129Y22118D01*
D02*
G37*
G36*
X32707Y23973D02*
Y23766D01*
X32718Y23707D01*
X32751Y23658D01*
X32909Y23499D01*
Y22984D01*
X33291D01*
X33316Y22934D01*
X33302Y22916D01*
X32926D01*
Y22184D01*
X33539D01*
Y22699D01*
X33647Y22808D01*
X33693Y22788D01*
Y22184D01*
X33847D01*
Y21913D01*
X33601Y21668D01*
X33589Y21668D01*
X33550Y21687D01*
Y21690D01*
X33542Y21708D01*
X33538Y21728D01*
X33527Y21745D01*
X33520Y21763D01*
X33505Y21777D01*
X33494Y21794D01*
X33477Y21805D01*
X33463Y21820D01*
X33445Y21827D01*
X33428Y21838D01*
X33408Y21842D01*
X33390Y21850D01*
X33370D01*
X33350Y21854D01*
X33330Y21850D01*
X33310D01*
X33292Y21842D01*
X33272Y21838D01*
X33255Y21827D01*
X33237Y21820D01*
X33223Y21805D01*
X33206Y21794D01*
X32866Y21454D01*
X32679D01*
X32656Y21498D01*
X32662Y21507D01*
X32680Y21600D01*
Y21876D01*
X32662Y21968D01*
X32609Y22047D01*
X32531Y22100D01*
X32438Y22118D01*
X32425D01*
X32418Y22168D01*
X32445Y22175D01*
X32531Y22225D01*
X32601Y22295D01*
X32650Y22380D01*
X32676Y22476D01*
Y22575D01*
X32650Y22670D01*
X32601Y22756D01*
X32531Y22826D01*
X32445Y22875D01*
X32378Y22893D01*
Y22945D01*
X32445Y22963D01*
X32531Y23012D01*
X32601Y23082D01*
X32650Y23168D01*
X32676Y23263D01*
Y23362D01*
X32650Y23458D01*
X32601Y23543D01*
X32531Y23613D01*
X32445Y23663D01*
X32378Y23680D01*
Y23732D01*
X32445Y23750D01*
X32531Y23799D01*
X32601Y23869D01*
X32650Y23955D01*
X32657Y23979D01*
X32707Y23973D01*
D02*
G37*
G36*
X31789Y23173D02*
X31855Y23129D01*
X31933Y23113D01*
X31981D01*
X31999Y23082D01*
X32069Y23012D01*
X32155Y22963D01*
X32222Y22945D01*
Y22893D01*
X32155Y22875D01*
X32069Y22826D01*
X31999Y22756D01*
X31950Y22670D01*
X31924Y22575D01*
Y22476D01*
X31950Y22380D01*
X31999Y22295D01*
X32069Y22225D01*
X32155Y22175D01*
X32182Y22168D01*
X32175Y22118D01*
X32162D01*
X32069Y22100D01*
X31991Y22047D01*
X31938Y21968D01*
X31920Y21876D01*
Y21600D01*
X31938Y21507D01*
X31944Y21498D01*
X31921Y21454D01*
X31834D01*
X31654Y21634D01*
Y23242D01*
X31700Y23261D01*
X31789Y23173D01*
D02*
G37*
G36*
X40972Y24750D02*
X40971Y24745D01*
X40988Y24660D01*
X41036Y24588D01*
X41080Y24558D01*
Y24498D01*
X41036Y24469D01*
X40988Y24397D01*
X40971Y24312D01*
X40988Y24227D01*
X41036Y24155D01*
X41080Y24125D01*
Y24065D01*
X41036Y24036D01*
X40988Y23964D01*
X40971Y23879D01*
X40988Y23794D01*
X41036Y23721D01*
X41080Y23692D01*
Y23632D01*
X41036Y23603D01*
X40988Y23531D01*
X40971Y23446D01*
X40988Y23361D01*
X41036Y23288D01*
X41080Y23259D01*
Y23199D01*
X41036Y23170D01*
X40988Y23098D01*
X40971Y23013D01*
X40988Y22927D01*
X41036Y22855D01*
X41080Y22826D01*
Y22766D01*
X41036Y22737D01*
X40988Y22665D01*
X40971Y22580D01*
X40988Y22494D01*
X41036Y22422D01*
X41109Y22374D01*
X41194Y22357D01*
X41290D01*
X41300Y22307D01*
X41237Y22281D01*
X41180Y22225D01*
X41150Y22151D01*
Y22072D01*
X41180Y21998D01*
X41237Y21942D01*
X41310Y21911D01*
X41390D01*
X41463Y21942D01*
X41491Y21970D01*
X41510D01*
X41568Y21982D01*
X41582Y21991D01*
X41632Y21964D01*
Y21644D01*
X41644Y21585D01*
X41677Y21536D01*
X41763Y21450D01*
X41677Y21364D01*
X41644Y21315D01*
X41635Y21271D01*
X41585Y21276D01*
Y21290D01*
X41555Y21363D01*
X41498Y21420D01*
X41425Y21450D01*
X41345D01*
X41272Y21420D01*
X41215Y21363D01*
X41185Y21290D01*
Y21210D01*
X41215Y21137D01*
X41236Y21116D01*
X41216Y21066D01*
X40743D01*
Y20400D01*
X40589D01*
Y21066D01*
X40512D01*
Y21941D01*
X40500Y22000D01*
X40467Y22049D01*
X40308Y22208D01*
X40259Y22241D01*
X40231Y22247D01*
Y22755D01*
X40723D01*
Y23306D01*
Y23857D01*
Y24409D01*
Y24929D01*
X40773Y24949D01*
X40972Y24750D01*
D02*
G37*
G36*
X43788Y21641D02*
X43737Y21620D01*
X43680Y21563D01*
X43650Y21490D01*
Y21410D01*
X43680Y21337D01*
X43737Y21280D01*
X43810Y21250D01*
X43834D01*
X43942Y21142D01*
X43991Y21109D01*
X44050Y21097D01*
X44173D01*
Y21017D01*
X43585D01*
X43149Y21452D01*
X43099Y21485D01*
X43041Y21497D01*
X42594D01*
X42575Y21543D01*
X42605Y21573D01*
X42627Y21606D01*
X42665D01*
Y21691D01*
X43778D01*
X43788Y21641D01*
D02*
G37*
G36*
X48391Y21428D02*
X48393Y21418D01*
X48374Y21227D01*
X48315Y21033D01*
X48220Y20855D01*
X48092Y20699D01*
X47935Y20571D01*
X47757Y20475D01*
X47564Y20417D01*
X47412Y20402D01*
X47363Y20400D01*
X47363Y20400D01*
X47313Y20400D01*
X46507D01*
X46488Y20446D01*
X46931Y20889D01*
X46947Y20914D01*
X47227D01*
Y21370D01*
X47705Y21848D01*
X47739Y21898D01*
X47750Y21956D01*
Y22366D01*
X47765Y22410D01*
X48391D01*
Y21428D01*
D02*
G37*
G36*
X30827Y29543D02*
X31176D01*
Y28884D01*
X31657D01*
X31945Y28596D01*
X31994Y28563D01*
X32053Y28551D01*
X32267D01*
X32288Y28525D01*
X32266Y28476D01*
X32251D01*
X32155Y28450D01*
X32069Y28401D01*
X31999Y28331D01*
X31950Y28245D01*
X31925Y28150D01*
X32300D01*
Y28050D01*
X31925D01*
X31950Y27955D01*
X31999Y27869D01*
X32069Y27799D01*
X32155Y27750D01*
X32222Y27732D01*
Y27680D01*
X32155Y27663D01*
X32069Y27613D01*
X31999Y27543D01*
X31950Y27458D01*
X31924Y27362D01*
Y27263D01*
X31932Y27233D01*
X31306Y26607D01*
X31262Y26541D01*
X31246Y26463D01*
Y23800D01*
Y21550D01*
X31262Y21472D01*
X31306Y21406D01*
X31606Y21106D01*
X31610Y21103D01*
X31595Y21053D01*
X31434D01*
X31150Y21337D01*
Y21390D01*
X31120Y21463D01*
X31063Y21520D01*
X30990Y21550D01*
X30910D01*
X30837Y21520D01*
X30780Y21463D01*
X30750Y21390D01*
Y21310D01*
X30780Y21237D01*
X30837Y21180D01*
X30900Y21154D01*
X31263Y20792D01*
X31312Y20759D01*
X31371Y20747D01*
X33050D01*
X33109Y20759D01*
X33158Y20792D01*
X33424Y21058D01*
X33466Y21029D01*
X33450Y20990D01*
Y20910D01*
X33480Y20837D01*
X33537Y20780D01*
X33610Y20750D01*
X33690D01*
X33763Y20780D01*
X33796Y20813D01*
X34234D01*
Y20659D01*
X34966D01*
Y21273D01*
X34234D01*
Y21119D01*
X33764D01*
X33763Y21120D01*
X33690Y21150D01*
X33610D01*
X33571Y21134D01*
X33542Y21176D01*
X34108Y21742D01*
X34141Y21791D01*
X34153Y21850D01*
Y22184D01*
X34307D01*
Y22916D01*
X34137D01*
Y22984D01*
X34291D01*
Y23716D01*
X33751D01*
Y23784D01*
X34291D01*
Y24038D01*
X34338Y24047D01*
X34346Y24048D01*
X34388Y24022D01*
Y22041D01*
X34234D01*
Y21427D01*
X34966D01*
Y22041D01*
X34693D01*
Y24448D01*
Y26341D01*
X34686Y26377D01*
X34700Y26410D01*
Y26490D01*
X34676Y26547D01*
X34701Y26597D01*
X34770D01*
X34780Y26587D01*
X34804Y26547D01*
X34790Y26477D01*
X34807Y26392D01*
X34855Y26320D01*
X34899Y26291D01*
Y26231D01*
X34855Y26201D01*
X34807Y26129D01*
X34790Y26044D01*
X34807Y25959D01*
X34855Y25887D01*
X34899Y25858D01*
Y25797D01*
X34855Y25768D01*
X34807Y25696D01*
X34790Y25611D01*
X34807Y25526D01*
X34855Y25454D01*
X34899Y25425D01*
Y25364D01*
X34855Y25335D01*
X34807Y25263D01*
X34790Y25178D01*
X34807Y25093D01*
X34855Y25021D01*
X34899Y24991D01*
Y24931D01*
X34855Y24902D01*
X34807Y24830D01*
X34790Y24745D01*
X34807Y24660D01*
X34855Y24588D01*
X34899Y24558D01*
Y24498D01*
X34855Y24469D01*
X34807Y24397D01*
X34800Y24362D01*
X35209D01*
Y24262D01*
X34800D01*
X34807Y24227D01*
X34855Y24155D01*
X34899Y24125D01*
Y24065D01*
X34855Y24036D01*
X34807Y23964D01*
X34790Y23879D01*
X34807Y23794D01*
X34855Y23721D01*
X34899Y23692D01*
Y23632D01*
X34855Y23603D01*
X34807Y23531D01*
X34790Y23446D01*
X34807Y23361D01*
X34855Y23288D01*
X34899Y23259D01*
Y23199D01*
X34855Y23170D01*
X34807Y23098D01*
X34790Y23013D01*
X34807Y22927D01*
X34855Y22855D01*
X34899Y22826D01*
Y22766D01*
X34855Y22737D01*
X34807Y22665D01*
X34790Y22580D01*
X34807Y22494D01*
X34855Y22422D01*
X34927Y22374D01*
X35013Y22357D01*
X35406D01*
X35491Y22374D01*
X35564Y22422D01*
X35612Y22494D01*
X35624Y22557D01*
X35674Y22552D01*
Y22434D01*
X35686Y22376D01*
X35719Y22326D01*
X36346Y21699D01*
X36345Y21694D01*
Y21547D01*
X36568D01*
Y21447D01*
X36345D01*
Y21300D01*
X36362Y21215D01*
X36410Y21143D01*
X36467Y21105D01*
X36469Y21087D01*
X36438Y21013D01*
Y20934D01*
X36469Y20860D01*
X36523Y20806D01*
X36480Y20763D01*
X36450Y20690D01*
Y20610D01*
X36480Y20537D01*
X36537Y20480D01*
X36610Y20450D01*
X36690D01*
X36763Y20480D01*
X36780Y20497D01*
X37259D01*
Y20400D01*
X30827D01*
X30817Y20398D01*
X30626Y20417D01*
X30433Y20475D01*
X30254Y20571D01*
X30098Y20699D01*
X29970Y20855D01*
X29875Y21033D01*
X29816Y21227D01*
X29801Y21379D01*
X29799Y21428D01*
X29799Y21428D01*
X29799Y21477D01*
Y28515D01*
X29797Y28524D01*
X29816Y28716D01*
X29875Y28909D01*
X29970Y29087D01*
X30098Y29244D01*
X30254Y29372D01*
X30433Y29467D01*
X30626Y29526D01*
X30817Y29545D01*
X30827Y29543D01*
D02*
G37*
%LPC*%
G36*
X45553Y27944D02*
X45306D01*
Y27776D01*
X45553D01*
Y27944D01*
D02*
G37*
G36*
Y27676D02*
X45306D01*
Y27508D01*
X45553D01*
Y27676D01*
D02*
G37*
G36*
X47916Y28139D02*
X47184D01*
Y27526D01*
X47346D01*
Y27196D01*
X47325Y27145D01*
Y27055D01*
X47359Y26973D01*
X47423Y26909D01*
X47505Y26875D01*
X47595D01*
X47677Y26909D01*
X47741Y26973D01*
X47775Y27055D01*
Y27145D01*
X47754Y27196D01*
Y27526D01*
X47916D01*
Y28139D01*
D02*
G37*
G36*
X45956Y26509D02*
X45444D01*
X45405Y26502D01*
X45372Y26480D01*
X45350Y26446D01*
X45342Y26407D01*
Y24951D01*
X45350Y24912D01*
X45372Y24879D01*
X45405Y24857D01*
X45444Y24849D01*
X45956D01*
X45995Y24857D01*
X46028Y24879D01*
X46050Y24912D01*
X46058Y24951D01*
Y26407D01*
X46050Y26446D01*
X46028Y26480D01*
X45995Y26502D01*
X45956Y26509D01*
D02*
G37*
G36*
X32390Y25200D02*
X32310D01*
X32237Y25170D01*
X32180Y25113D01*
X32150Y25040D01*
Y24960D01*
X32180Y24887D01*
X32237Y24830D01*
X32310Y24800D01*
X32390D01*
X32463Y24830D01*
X32520Y24887D01*
X32550Y24960D01*
Y25040D01*
X32520Y25113D01*
X32463Y25170D01*
X32390Y25200D01*
D02*
G37*
G36*
X32250Y24475D02*
X32155Y24450D01*
X32069Y24401D01*
X31999Y24331D01*
X31950Y24245D01*
X31925Y24150D01*
X32250D01*
Y24475D01*
D02*
G37*
%LPD*%
D14*
X39442Y23623D02*
Y24961D01*
X43850Y21450D02*
X44050Y21250D01*
X44450D01*
X41413Y26500D02*
X41986D01*
X41391Y24745D02*
X41986D01*
X42045Y24803D01*
Y26441D01*
X41986Y26500D02*
X42045Y26441D01*
X39993Y25650D02*
X40750D01*
X40850Y25550D01*
Y25089D02*
X41194Y24745D01*
X40850Y25089D02*
Y25550D01*
X39442Y26202D02*
X39993Y25650D01*
X39442Y26202D02*
Y26300D01*
X39402Y26339D02*
X39442Y26300D01*
X41194Y24745D02*
X41391D01*
X41400Y28100D02*
X41807D01*
X40598Y28434D02*
X42300D01*
X40371Y28661D02*
X40598Y28434D01*
X40371Y28661D02*
Y28664D01*
X40113Y28921D02*
X40371Y28664D01*
X40076Y28921D02*
X40113D01*
X40057Y28940D02*
X40076Y28921D01*
X41391Y26477D02*
X41413Y26500D01*
X38400Y28950D02*
X38640Y29190D01*
X44926Y28474D02*
X45256D01*
X38640Y29190D02*
X40569D01*
X44150Y29250D02*
X44926Y28474D01*
X38279Y29496D02*
X41673D01*
X38100Y28950D02*
X38119Y28969D01*
X41673Y29496D02*
X41918Y29250D01*
X38119Y28969D02*
Y29336D01*
X41918Y29250D02*
X44150D01*
X38119Y29336D02*
X38279Y29496D01*
X33666Y20966D02*
X34600D01*
X33650Y20950D02*
X33666Y20966D01*
X37106Y20974D02*
X37434Y21301D01*
X36638Y20974D02*
X37106D01*
X37516Y20650D02*
X37566Y20700D01*
X36650Y20650D02*
X37516D01*
X47597Y21956D02*
Y25200D01*
X46950Y21309D02*
X47597Y21956D01*
X41877Y27343D02*
X42020Y27200D01*
X41391Y27343D02*
X41877D01*
X42020Y27200D02*
X42300D01*
X41391Y26044D02*
Y26477D01*
X38733Y28426D02*
X39166D01*
X39275Y27569D02*
Y28083D01*
Y27569D02*
X39402Y27442D01*
X39166Y28192D02*
X39275Y28083D01*
X39166Y28192D02*
Y28426D01*
X38300Y26300D02*
X39402D01*
X39166Y26576D02*
X39402Y26339D01*
X37749Y26950D02*
X38300Y26398D01*
Y26300D02*
Y26398D01*
X37749Y26950D02*
Y27442D01*
X39600Y27900D02*
X39600Y27900D01*
X39600Y28230D02*
X39626Y28256D01*
X39600Y27900D02*
Y28230D01*
X39626Y28426D02*
X40032D01*
X39626Y28256D02*
Y28426D01*
X38850Y27443D02*
Y27850D01*
Y27443D02*
X38851Y27442D01*
X39636Y20904D02*
X40032Y21300D01*
X39350Y20904D02*
X39636D01*
X40032Y21300D02*
Y21497D01*
X39350Y20500D02*
Y20904D01*
X39166Y21087D02*
Y21497D01*
Y21087D02*
X39350Y20904D01*
X41050Y20700D02*
X41401D01*
X40282D02*
X40359Y20776D01*
X39650Y22100D02*
X40200D01*
X38327D02*
X39650D01*
Y22123D02*
X39678Y22151D01*
X39650Y22100D02*
Y22123D01*
X40200Y22100D02*
X40359Y21941D01*
X37983Y21756D02*
X38327Y22100D01*
X40359Y20776D02*
Y21941D01*
X45900Y21837D02*
X45950Y21787D01*
X45241Y21837D02*
X45900D01*
X38733Y21032D02*
X38796Y20969D01*
X38931D02*
X38950Y20950D01*
X38733Y21032D02*
Y21497D01*
X38796Y20969D02*
X38931D01*
X37966Y21756D02*
X37983D01*
X37867Y21497D02*
Y21657D01*
X37966Y21756D01*
X35827Y25476D02*
X35915Y25564D01*
X35827Y23891D02*
Y25476D01*
X36154Y25788D02*
X36194D01*
X35930Y25564D02*
X36154Y25788D01*
X35915Y25564D02*
X35930D01*
X35209Y24312D02*
X35406D01*
X35827Y23891D01*
Y22434D02*
Y23891D01*
Y22434D02*
X36568Y21694D01*
Y21497D02*
Y21694D01*
X38300Y23623D02*
X39442D01*
X37158D02*
X38300D01*
X37158Y24961D02*
Y26300D01*
X38300Y24961D02*
X39442D01*
X37158D02*
X38300D01*
X39402Y26339D02*
Y27442D01*
X37158Y26300D02*
X38300D01*
X36646Y25788D02*
X37158Y26300D01*
X36194Y25788D02*
X36646D01*
X37198Y26339D02*
Y27442D01*
X37158Y26300D02*
X37198Y26339D01*
X44276Y28174D02*
X44508D01*
X44124Y28326D02*
X44276Y28174D01*
X44864Y27818D02*
Y27818D01*
X44508Y28174D02*
X44864Y27818D01*
Y27818D02*
X44909Y27773D01*
X45209D01*
X44124Y28326D02*
Y28765D01*
X44200Y24550D02*
Y28250D01*
X45209Y27773D02*
X45256Y27726D01*
X46044Y28100D02*
Y28311D01*
X45105Y29250D02*
X46044Y28311D01*
X34541Y21793D02*
Y24448D01*
Y21793D02*
X34600Y21734D01*
X31371Y20900D02*
X33050D01*
X34000Y21850D01*
Y22550D01*
X34500Y28600D02*
X34508Y28592D01*
X34300Y28800D02*
X34500Y28600D01*
X33984Y28800D02*
X34300D01*
X34500Y27850D02*
Y28600D01*
X35600Y28800D02*
X35605Y28805D01*
X36054D02*
X36113Y28864D01*
X35605Y28805D02*
X36054D01*
X35350Y28400D02*
X35650D01*
X37650Y29191D02*
X37850Y28991D01*
Y28443D02*
Y28991D01*
Y28443D02*
X37867Y28426D01*
X37650Y29191D02*
Y29250D01*
X40569Y29190D02*
X40594Y29166D01*
X40609D01*
X37983Y27850D02*
X37991Y27858D01*
X38241D01*
X40609Y29166D02*
X40766Y29009D01*
X39599Y28426D02*
X40032D01*
X40766Y28950D02*
Y29009D01*
X41534Y28950D02*
X42565D01*
X41807Y28100D02*
X42241Y27666D01*
X42300D01*
X38241Y27858D02*
X38300Y27800D01*
Y27442D02*
Y27800D01*
X37135Y27930D02*
X37434Y28229D01*
Y28426D01*
X34500Y26450D02*
X34519Y26431D01*
Y26363D02*
X34541Y26341D01*
X34519Y26363D02*
Y26431D01*
X42872Y27322D02*
Y28083D01*
X42750Y27200D02*
X42872Y27322D01*
X42300Y27200D02*
X42750D01*
X42872Y28083D02*
X43039Y28250D01*
Y28476D01*
X35300Y28400D02*
Y28450D01*
Y28300D02*
X35665Y27935D01*
X35300Y28300D02*
Y28400D01*
X35665Y27935D02*
X36672D01*
X37001Y28265D01*
Y28426D01*
X37001Y27911D02*
X37020Y27930D01*
X37135D01*
X30959Y21312D02*
X31371Y20900D01*
X35300Y28450D02*
Y29234D01*
Y28450D02*
X35350Y28400D01*
X32859Y23766D02*
X33216Y23409D01*
X32859Y23766D02*
Y24542D01*
X44200Y24550D02*
X44500Y24250D01*
X45562D01*
X46250Y22074D02*
Y23000D01*
Y22074D02*
X46450Y21874D01*
X45562Y24250D02*
X46250Y23562D01*
Y23000D02*
Y23562D01*
X42250Y21056D02*
X42259Y21047D01*
Y20894D02*
Y21047D01*
Y20894D02*
X42489Y20664D01*
X45989D01*
X46323Y20997D01*
Y21123D01*
X46450Y21250D01*
Y21874D01*
X34976Y26910D02*
X35209D01*
X34815Y26750D02*
X34976Y26910D01*
X34541Y24448D02*
Y26341D01*
X33994Y26750D02*
X34815D01*
X43939Y28950D02*
X44124Y28765D01*
X42565Y28950D02*
X43939D01*
X42565D02*
X43039Y28476D01*
X41391Y26910D02*
X42900D01*
X43619Y27630D01*
X32053Y28704D02*
X32344D01*
X31566Y29191D02*
X32053Y28704D01*
X31566Y29191D02*
Y29250D01*
X32344Y28704D02*
X32811Y28238D01*
Y26992D02*
Y28238D01*
Y26992D02*
X33053Y26750D01*
X33541D02*
X33600Y26691D01*
Y26068D02*
X33847Y25821D01*
X33053Y26750D02*
X33541D01*
X33600Y26068D02*
Y26691D01*
X33847Y25742D02*
Y25821D01*
Y25742D02*
X33915Y25674D01*
X33994D01*
X34060Y27343D02*
X35209D01*
X33541Y26750D02*
Y26825D01*
X34060Y27343D01*
X33216Y29191D02*
X33275Y29250D01*
X34500D01*
X33216Y28800D02*
Y29191D01*
X35236Y26936D02*
X35536D01*
X35209Y26910D02*
X35236Y26936D01*
X35536D02*
X35700Y27100D01*
X34500Y29250D02*
X34900Y28850D01*
Y28350D02*
Y28850D01*
X35700Y27100D02*
Y27550D01*
X34900Y28350D02*
X35700Y27550D01*
X46823Y21123D02*
X46950Y21250D01*
X46823Y20997D02*
Y21123D01*
X46950Y21250D02*
Y21309D01*
X46289Y20464D02*
X46823Y20997D01*
X42003Y20867D02*
Y21047D01*
X42407Y20464D02*
X46289D01*
X41994Y21056D02*
X42003Y21047D01*
Y20867D02*
X42407Y20464D01*
X43619Y27630D02*
Y27640D01*
X38300Y20734D02*
X38334Y20700D01*
X38300Y20734D02*
Y21497D01*
X42341Y23323D02*
X42400Y23381D01*
Y23734D01*
X41350Y22111D02*
X41361Y22123D01*
X41510D01*
X41856Y22468D01*
X37434Y21301D02*
Y21497D01*
X42072Y23323D02*
X42341D01*
X41856Y23106D02*
X42072Y23323D01*
X41856Y22468D02*
Y23106D01*
X36882Y28883D02*
Y29250D01*
X36568Y28426D02*
Y28586D01*
X36631Y28649D01*
X36648D01*
X36882Y28883D01*
X35300Y29234D02*
X35316Y29250D01*
X36113Y28864D02*
Y29221D01*
X36084Y29250D02*
X36113Y29221D01*
X33216Y24150D02*
X33373Y24307D01*
Y24773D02*
X33526Y24926D01*
X33373Y24307D02*
Y24773D01*
X33526Y24926D02*
X33994D01*
X33206Y27124D02*
Y27840D01*
X33216Y27850D01*
X41994Y21844D02*
X42003Y21853D01*
Y22033D01*
X42302Y22332D01*
X44087D01*
X44382Y22037D01*
X45041D01*
X45241Y21837D01*
X45950Y21250D02*
Y21787D01*
X42250Y21844D02*
X42259Y21853D01*
Y22006D01*
X42385Y22132D01*
X44823Y21377D02*
X44950Y21250D01*
X44823Y21123D02*
X44950Y21250D01*
X44689Y20864D02*
X44823Y20997D01*
Y21123D01*
X43521Y20864D02*
X44689D01*
X44823Y21377D02*
Y21503D01*
X42385Y22132D02*
X44005D01*
X44319Y21817D01*
X44508D01*
X44823Y21503D01*
X44950Y21250D02*
Y21750D01*
X41873Y21344D02*
X43041D01*
X43521Y20864D01*
X41785Y21084D02*
Y21256D01*
X41873Y21344D01*
X41401Y20700D02*
X41785Y21084D01*
X42341Y22966D02*
X42400D01*
X42497Y21835D02*
X42506Y21844D01*
X42184Y22809D02*
X42341Y22966D01*
X42184Y22497D02*
Y22809D01*
X41785Y22097D02*
X42184Y22497D01*
X42371Y21556D02*
X42497Y21682D01*
Y21835D01*
X44450Y21250D02*
Y21273D01*
X42506Y21844D02*
X43879D01*
X44450Y21273D01*
X41873Y21556D02*
X42371D01*
X41785Y21644D02*
X41873Y21556D01*
X41785Y21644D02*
Y22097D01*
X33128Y25300D02*
X33206D01*
X33059Y25368D02*
Y25404D01*
X32726Y25738D02*
X33059Y25404D01*
X32300Y25738D02*
X32726D01*
X33059Y25368D02*
X33128Y25300D01*
X33206Y24889D02*
Y25300D01*
X32859Y24542D02*
X33206Y24889D01*
X33216Y23350D02*
Y23409D01*
X32978Y26525D02*
X33128Y26376D01*
X32300Y26525D02*
X32978D01*
X33128Y26376D02*
X33206D01*
X34041Y25406D02*
X34341Y25106D01*
Y24746D02*
Y25106D01*
X33232Y22550D02*
Y22609D01*
X33598Y24449D02*
X33747Y24597D01*
X34192D02*
X34341Y24746D01*
X33747Y24597D02*
X34192D01*
X33735Y25406D02*
X34041D01*
X33206Y25934D02*
X33735Y25406D01*
X33206Y25934D02*
Y26376D01*
X33598Y22975D02*
Y24449D01*
X33232Y22609D02*
X33598Y22975D01*
X33984Y22566D02*
X34000Y22550D01*
X33984Y22566D02*
Y23350D01*
X33984Y24150D02*
X34023Y24189D01*
X34282D01*
X32384Y29091D02*
Y29150D01*
X33984Y27850D02*
Y27909D01*
X33566Y28327D02*
X33984Y27909D01*
X32384Y29091D02*
X32744Y28731D01*
Y28588D02*
Y28731D01*
Y28588D02*
X33005Y28327D01*
X33566D01*
X34282Y24189D02*
X34541Y24448D01*
X33984Y27850D02*
X34500D01*
D16*
X46950Y21250D02*
D03*
X45950D02*
D03*
X44950D02*
D03*
X46450D02*
D03*
X45450D02*
D03*
X44450D02*
D03*
D17*
X48121Y22864D02*
D03*
Y26329D02*
D03*
X43279Y22864D02*
D03*
Y26329D02*
D03*
D18*
X33216Y27850D02*
D03*
X33984D02*
D03*
Y28800D02*
D03*
X33216D02*
D03*
X38334Y20700D02*
D03*
X37566D02*
D03*
X41534Y28950D02*
D03*
X40766D02*
D03*
X40282Y20700D02*
D03*
X41050D02*
D03*
X31482Y29250D02*
D03*
X32250D02*
D03*
X34000Y22550D02*
D03*
X33232D02*
D03*
X33984Y23350D02*
D03*
X33216D02*
D03*
X33984Y24150D02*
D03*
X33216D02*
D03*
X35316Y29250D02*
D03*
X36084D02*
D03*
X36882D02*
D03*
X37650D02*
D03*
D19*
X34600Y21734D02*
D03*
Y20966D02*
D03*
X42300Y28434D02*
D03*
Y27666D02*
D03*
X42400Y23734D02*
D03*
Y22966D02*
D03*
X47550Y27832D02*
D03*
Y28600D02*
D03*
D20*
X33994Y24926D02*
D03*
Y25674D02*
D03*
X33206Y25300D02*
D03*
Y27124D02*
D03*
Y26376D02*
D03*
X33994Y26750D02*
D03*
X45256Y28474D02*
D03*
Y27726D02*
D03*
X46044Y28100D02*
D03*
D21*
X45695Y29250D02*
D03*
X45105D02*
D03*
D22*
X43039Y28250D02*
D03*
X44200D02*
D03*
D23*
X43619Y27640D02*
D03*
D24*
X41994Y21056D02*
D03*
X42250D02*
D03*
X42506D02*
D03*
Y21844D02*
D03*
X42250D02*
D03*
X41994D02*
D03*
D43*
X37158Y26300D02*
D03*
D44*
X38300D02*
D03*
X39442D02*
D03*
X37158Y24961D02*
D03*
X38300D02*
D03*
X39442D02*
D03*
X37158Y23623D02*
D03*
X38300D02*
D03*
X39442D02*
D03*
D45*
X36646Y27442D02*
D03*
X37198D02*
D03*
X37749D02*
D03*
X38300D02*
D03*
X38851D02*
D03*
X39402D02*
D03*
X39954Y22481D02*
D03*
X39402D02*
D03*
X38851D02*
D03*
X38300D02*
D03*
X37749D02*
D03*
X37198D02*
D03*
X36646D02*
D03*
D46*
X40406Y25237D02*
D03*
Y24686D02*
D03*
Y24135D02*
D03*
Y23583D02*
D03*
Y23032D02*
D03*
X36194D02*
D03*
Y23583D02*
D03*
Y24135D02*
D03*
Y24686D02*
D03*
Y25237D02*
D03*
Y25788D02*
D03*
Y26339D02*
D03*
Y26891D02*
D03*
D47*
X36568Y28426D02*
D03*
X37001D02*
D03*
X37434D02*
D03*
X37867D02*
D03*
X38300D02*
D03*
X38733D02*
D03*
X39166D02*
D03*
X39599D02*
D03*
X40032D02*
D03*
Y21497D02*
D03*
X39599D02*
D03*
X39166D02*
D03*
X38733D02*
D03*
X38300D02*
D03*
X37867D02*
D03*
X37434D02*
D03*
X37001D02*
D03*
X36568D02*
D03*
D48*
X41391Y27343D02*
D03*
Y26910D02*
D03*
Y26477D02*
D03*
Y26044D02*
D03*
Y25611D02*
D03*
Y25178D02*
D03*
Y24745D02*
D03*
Y24312D02*
D03*
Y23879D02*
D03*
Y23446D02*
D03*
Y23013D02*
D03*
Y22580D02*
D03*
X35209D02*
D03*
Y23013D02*
D03*
Y23446D02*
D03*
Y23879D02*
D03*
Y24312D02*
D03*
Y24745D02*
D03*
Y25178D02*
D03*
Y25611D02*
D03*
Y26044D02*
D03*
Y26477D02*
D03*
Y26910D02*
D03*
Y27343D02*
D03*
D49*
X31450Y23800D02*
Y26463D01*
X32300Y27313D01*
X31450Y21550D02*
Y23800D01*
X31933Y23317D01*
X31450Y21550D02*
X31750Y21250D01*
X32950D01*
X33350Y21650D01*
X32296Y23317D02*
X32300Y23313D01*
X31933Y23317D02*
X32296D01*
X47550Y27100D02*
Y27832D01*
D50*
X47491Y28600D02*
X47550D01*
X45695Y29250D02*
X46841D01*
X47491Y28600D01*
D51*
X32300Y21738D02*
D03*
Y25738D02*
D03*
D52*
Y22525D02*
D03*
Y23313D02*
D03*
Y24100D02*
D03*
Y28100D02*
D03*
Y27313D02*
D03*
Y26525D02*
D03*
D53*
X43850Y21450D02*
D03*
X41400Y28100D02*
D03*
X38400Y28950D02*
D03*
X33650Y20950D02*
D03*
X39600Y27900D02*
D03*
X38850Y27850D02*
D03*
X45900Y21787D02*
D03*
X38950Y20950D02*
D03*
X36638Y20974D02*
D03*
X39350Y20500D02*
D03*
X36650Y20650D02*
D03*
X34500Y28600D02*
D03*
X35600Y28800D02*
D03*
X35650Y28400D02*
D03*
X38100Y28950D02*
D03*
X37983Y27850D02*
D03*
X40057Y28940D02*
D03*
X37001Y27911D02*
D03*
X32350Y25000D02*
D03*
X30950Y21350D02*
D03*
X33350Y21650D02*
D03*
X34500Y26450D02*
D03*
X42300Y27200D02*
D03*
X47597Y25200D02*
D03*
X41350Y22111D02*
D03*
X41385Y21250D02*
D03*
X44950Y21750D02*
D03*
X46250Y23000D02*
D03*
X34500Y27850D02*
D03*
D54*
X47550Y27100D02*
D03*
M02*
