G04*
G04 #@! TF.GenerationSoftware,Altium Limited,Altium Designer,23.0.1 (38)*
G04*
G04 Layer_Color=16711935*
%FSLAX24Y24*%
%MOIN*%
G70*
G04*
G04 #@! TF.SameCoordinates,4B295FFD-E36D-49C0-9059-740962033B99*
G04*
G04*
G04 #@! TF.FilePolarity,Negative*
G04*
G01*
G75*
%ADD27R,0.0493X0.0611*%
%ADD28R,0.0611X0.0493*%
G04:AMPARAMS|DCode=39|XSize=63.1mil|YSize=63.1mil|CornerRadius=17.8mil|HoleSize=0mil|Usage=FLASHONLY|Rotation=90.000|XOffset=0mil|YOffset=0mil|HoleType=Round|Shape=RoundedRectangle|*
%AMROUNDEDRECTD39*
21,1,0.0631,0.0276,0,0,90.0*
21,1,0.0276,0.0631,0,0,90.0*
1,1,0.0356,0.0138,0.0138*
1,1,0.0356,0.0138,-0.0138*
1,1,0.0356,-0.0138,-0.0138*
1,1,0.0356,-0.0138,0.0138*
%
%ADD39ROUNDEDRECTD39*%
%ADD40C,0.0631*%
%ADD41C,0.0280*%
%ADD42C,0.0330*%
%ADD58R,0.0748X0.0984*%
%ADD60R,0.0671X0.0552*%
%ADD61R,0.0552X0.0671*%
%ADD62R,0.0690X0.1005*%
G04:AMPARAMS|DCode=63|XSize=57.2mil|YSize=31.2mil|CornerRadius=6.9mil|HoleSize=0mil|Usage=FLASHONLY|Rotation=180.000|XOffset=0mil|YOffset=0mil|HoleType=Round|Shape=RoundedRectangle|*
%AMROUNDEDRECTD63*
21,1,0.0572,0.0174,0,0,180.0*
21,1,0.0434,0.0312,0,0,180.0*
1,1,0.0138,-0.0217,0.0087*
1,1,0.0138,0.0217,0.0087*
1,1,0.0138,0.0217,-0.0087*
1,1,0.0138,-0.0217,-0.0087*
%
%ADD63ROUNDEDRECTD63*%
D27*
X37734Y22700D02*
D03*
X36966D02*
D03*
X39916Y23500D02*
D03*
X40684D02*
D03*
D28*
X41150Y25384D02*
D03*
Y24616D02*
D03*
D39*
X32300Y21738D02*
D03*
Y25738D02*
D03*
D40*
Y22525D02*
D03*
Y23313D02*
D03*
Y24100D02*
D03*
Y28100D02*
D03*
Y27313D02*
D03*
Y26525D02*
D03*
D41*
X43850Y21450D02*
D03*
X41400Y28100D02*
D03*
X38400Y28950D02*
D03*
X33650Y20950D02*
D03*
X39600Y27900D02*
D03*
X38850Y27850D02*
D03*
X45900Y21787D02*
D03*
X38950Y20950D02*
D03*
X36638Y20974D02*
D03*
X39350Y20500D02*
D03*
X36650Y20650D02*
D03*
X34500Y28600D02*
D03*
X35600Y28800D02*
D03*
X35650Y28400D02*
D03*
X38100Y28950D02*
D03*
X37983Y27850D02*
D03*
X40057Y28940D02*
D03*
X37001Y27911D02*
D03*
X32350Y25000D02*
D03*
X30950Y21350D02*
D03*
X33350Y21650D02*
D03*
X34500Y26450D02*
D03*
X42300Y27200D02*
D03*
X47597Y25200D02*
D03*
X41350Y22111D02*
D03*
X41385Y21250D02*
D03*
X44950Y21750D02*
D03*
X46250Y23000D02*
D03*
X34500Y27850D02*
D03*
D42*
X47550Y27100D02*
D03*
D58*
X37143Y26500D02*
D03*
X38757D02*
D03*
D60*
X47500Y23304D02*
D03*
Y22596D02*
D03*
X40350Y25350D02*
D03*
Y24641D02*
D03*
X39500Y25354D02*
D03*
Y24646D02*
D03*
X34900Y23646D02*
D03*
Y24354D02*
D03*
D61*
X36996Y23550D02*
D03*
X37704D02*
D03*
X46846Y24100D02*
D03*
X47554D02*
D03*
X45396D02*
D03*
X46104D02*
D03*
X42750Y25550D02*
D03*
X42041D02*
D03*
D62*
X36250Y23746D02*
D03*
Y25400D02*
D03*
D63*
X38770Y25124D02*
D03*
Y24750D02*
D03*
Y24376D02*
D03*
X37782D02*
D03*
Y24750D02*
D03*
Y25124D02*
D03*
M02*
