G04*
G04 #@! TF.GenerationSoftware,Altium Limited,Altium Designer,23.0.1 (38)*
G04*
G04 Layer_Color=2752767*
%FSLAX25Y25*%
%MOIN*%
G70*
G04*
G04 #@! TF.SameCoordinates,8F8842E6-A163-4070-9E61-B2F925759E80*
G04*
G04*
G04 #@! TF.FilePolarity,Positive*
G04*
G01*
G75*
%ADD13C,0.00500*%
%ADD76C,0.00667*%
D13*
X320000Y236000D02*
Y240000D01*
X324000D01*
Y236000D01*
X320000D01*
Y243874D02*
Y247874D01*
X324000D01*
Y243874D01*
X320000D01*
Y251748D02*
Y255748D01*
X324000D01*
Y251748D01*
X320000D01*
Y259622D02*
Y263622D01*
X324000D01*
Y259622D01*
X320000D01*
D76*
X392000Y208800D02*
G03*
X392000Y208800I-2000J0D01*
G01*
X393500Y290623D02*
G03*
X393500Y290623I-2000J0D01*
G01*
X367955Y267084D02*
G03*
X367955Y267084I-2000J0D01*
G01*
X371368Y270637D02*
G03*
X371368Y270637I-2000J0D01*
G01*
X395150Y204768D02*
G03*
X395150Y204768I-2000J0D01*
G01*
X325000Y207500D02*
G03*
X325000Y207500I-2000J0D01*
G01*
X422000Y207000D02*
G03*
X422000Y207000I-2000J0D01*
G01*
X321337Y271837D02*
G03*
X321337Y271837I-2000J0D01*
G01*
X322593Y283260D02*
G03*
X322593Y283260I-2000J0D01*
G01*
X400500Y279500D02*
G03*
X400500Y279500I-2000J0D01*
G01*
X401102Y274398D02*
G03*
X401102Y274398I-2000J0D01*
G01*
X360000Y244500D02*
G03*
X360000Y244500I-2000J0D01*
G01*
X354835Y217835D02*
G03*
X354835Y217835I-2000J0D01*
G01*
X425000Y265000D02*
G03*
X425000Y265000I-2000J0D01*
G01*
X457500Y279500D02*
G03*
X457500Y279500I-2000J0D01*
G01*
X441740Y240760D02*
G03*
X441740Y240760I-2000J0D01*
G01*
X433093Y250448D02*
G03*
X433093Y250448I-2000J0D01*
G01*
X431000Y242900D02*
G03*
X431000Y242900I-2000J0D01*
G01*
X373349Y279207D02*
G03*
X373349Y279207I-2000J0D01*
G01*
X387730Y278945D02*
G03*
X387730Y278945I-2000J0D01*
G01*
X359000Y262000D02*
G03*
X359000Y262000I-2000J0D01*
G01*
X347500Y265000D02*
G03*
X347500Y265000I-2000J0D01*
G01*
X359250Y290750D02*
G03*
X359250Y290750I-2000J0D01*
G01*
X408000Y225251D02*
G03*
X408000Y225251I-2000J0D01*
G01*
X361487Y211885D02*
G03*
X361487Y211885I-2000J0D01*
G01*
X399176Y204969D02*
G03*
X399176Y204969I-2000J0D01*
G01*
X415500Y220000D02*
G03*
X415500Y220000I-2000J0D01*
G01*
X413500Y212500D02*
G03*
X413500Y212500I-2000J0D01*
G01*
X365704Y220850D02*
G03*
X365704Y220850I-2000J0D01*
G01*
X326000Y217000D02*
G03*
X326000Y217000I-2000J0D01*
G01*
X421273Y226727D02*
G03*
X421273Y226727I-2000J0D01*
G01*
X350167Y212333D02*
G03*
X350167Y212333I-2000J0D01*
G01*
X427500Y249500D02*
G03*
X427500Y249500I-2000J0D01*
G01*
X437000Y269500D02*
G03*
X437000Y269500I-2000J0D01*
G01*
X349500Y291500D02*
G03*
X349500Y291500I-2000J0D01*
G01*
X441700Y269409D02*
G03*
X441700Y269409I-2000J0D01*
G01*
X447047Y243547D02*
G03*
X447047Y243547I-2000J0D01*
G01*
X316000Y263000D02*
G03*
X316000Y263000I-2000J0D01*
G01*
X440500Y214500D02*
G03*
X440500Y214500I-2000J0D01*
G01*
X389000Y290750D02*
G03*
X389000Y290750I-2000J0D01*
G01*
X385250D02*
G03*
X385250Y290750I-2000J0D01*
G01*
X314039Y280039D02*
G03*
X314039Y280039I-2000J0D01*
G01*
X343500Y209500D02*
G03*
X343500Y209500I-2000J0D01*
G01*
X479000Y255000D02*
G03*
X479000Y255000I-2000J0D01*
G01*
X475404Y266325D02*
G03*
X475404Y266325I-2000J0D01*
G01*
X347354Y278146D02*
G03*
X347354Y278146I-2000J0D01*
G01*
X479000Y247500D02*
G03*
X479000Y247500I-2000J0D01*
G01*
X461500Y218000D02*
G03*
X461500Y218000I-2000J0D01*
G01*
X451500Y217500D02*
G03*
X451500Y217500I-2000J0D01*
G01*
X464500Y230000D02*
G03*
X464500Y230000I-2000J0D01*
G01*
M02*
