G04*
G04 #@! TF.GenerationSoftware,Altium Limited,Altium Designer,23.0.1 (38)*
G04*
G04 Layer_Physical_Order=1*
G04 Layer_Color=255*
%FSLAX25Y25*%
%MOIN*%
G70*
G04*
G04 #@! TF.SameCoordinates,C317ACD7-2F99-4A28-9CC3-B5CC64B43C24*
G04*
G04*
G04 #@! TF.FilePolarity,Positive*
G04*
G01*
G75*
%ADD16C,0.01000*%
%ADD17R,0.04134X0.05315*%
%ADD18O,0.08661X0.02362*%
%ADD19R,0.02362X0.03937*%
%ADD20R,0.04724X0.05906*%
%ADD21R,0.03583X0.04500*%
G04:AMPARAMS|DCode=22|XSize=49.21mil|YSize=23.23mil|CornerRadius=2.9mil|HoleSize=0mil|Usage=FLASHONLY|Rotation=180.000|XOffset=0mil|YOffset=0mil|HoleType=Round|Shape=RoundedRectangle|*
%AMROUNDEDRECTD22*
21,1,0.04921,0.01742,0,0,180.0*
21,1,0.04341,0.02323,0,0,180.0*
1,1,0.00581,-0.02170,0.00871*
1,1,0.00581,0.02170,0.00871*
1,1,0.00581,0.02170,-0.00871*
1,1,0.00581,-0.02170,-0.00871*
%
%ADD22ROUNDEDRECTD22*%
%ADD23R,0.04500X0.03583*%
%ADD24R,0.20866X0.07874*%
%ADD38C,0.01500*%
%ADD39C,0.03000*%
%ADD40C,0.02000*%
%ADD41O,0.12000X0.11000*%
%ADD42R,0.12000X0.11000*%
%ADD43C,0.05512*%
G04:AMPARAMS|DCode=44|XSize=55.12mil|YSize=55.12mil|CornerRadius=13.78mil|HoleSize=0mil|Usage=FLASHONLY|Rotation=90.000|XOffset=0mil|YOffset=0mil|HoleType=Round|Shape=RoundedRectangle|*
%AMROUNDEDRECTD44*
21,1,0.05512,0.02756,0,0,90.0*
21,1,0.02756,0.05512,0,0,90.0*
1,1,0.02756,0.01378,0.01378*
1,1,0.02756,0.01378,-0.01378*
1,1,0.02756,-0.01378,-0.01378*
1,1,0.02756,-0.01378,0.01378*
%
%ADD44ROUNDEDRECTD44*%
%ADD45C,0.05000*%
G36*
X356471Y451405D02*
X355819D01*
Y445469D01*
X356471D01*
Y444019D01*
X356441Y443532D01*
X353727D01*
X353579Y443561D01*
X353425D01*
X346664Y450322D01*
X346168Y450653D01*
X345583Y450770D01*
X331417D01*
X330832Y450653D01*
X330336Y450322D01*
X325190Y445176D01*
X325096Y445157D01*
X320610D01*
Y439115D01*
X320148Y438924D01*
X319067Y440005D01*
Y445157D01*
X313722D01*
X313530Y445619D01*
X320381Y452471D01*
X356471D01*
Y451405D01*
D02*
G37*
G36*
X448599Y445238D02*
X448536Y445162D01*
X447933Y444033D01*
X447561Y442807D01*
X447534Y442529D01*
X439641D01*
X439404Y443029D01*
X439761Y443649D01*
X440000Y444539D01*
Y445461D01*
X439761Y446351D01*
X439301Y447149D01*
X438649Y447801D01*
X437851Y448261D01*
X436961Y448500D01*
X436039D01*
X435632Y448391D01*
X431553Y452471D01*
X431760Y452971D01*
X440867D01*
X448599Y445238D01*
D02*
G37*
G36*
X433109Y445868D02*
X433000Y445461D01*
Y444539D01*
X433239Y443649D01*
X433596Y443029D01*
X433359Y442529D01*
X429067D01*
Y443500D01*
X426000D01*
Y444500D01*
X429067D01*
Y447657D01*
X427529D01*
Y448158D01*
X427413Y448743D01*
X427097Y449216D01*
X427142Y449436D01*
X427258Y449716D01*
X429261D01*
X433109Y445868D01*
D02*
G37*
G36*
X463501Y457017D02*
Y457017D01*
X463993Y456998D01*
X465513Y456848D01*
X467447Y456261D01*
X469230Y455308D01*
X470792Y454026D01*
X472074Y452464D01*
X473027Y450681D01*
X473614Y448747D01*
X473803Y446833D01*
X473783Y446735D01*
Y436587D01*
X473283Y436380D01*
X467048Y442615D01*
X466552Y442946D01*
X465967Y443062D01*
X461295D01*
X461001Y444033D01*
X460398Y445162D01*
X459585Y446151D01*
X458596Y446964D01*
X457466Y447567D01*
X456241Y447939D01*
X454967Y448065D01*
D01*
Y441533D01*
X453967D01*
Y448065D01*
X452693Y447939D01*
X451467Y447567D01*
X450899Y447264D01*
X442581Y455581D01*
X442085Y455913D01*
X441500Y456029D01*
X384910D01*
X384324Y455913D01*
X383828Y455582D01*
X377199Y448953D01*
X376500D01*
Y445000D01*
Y441047D01*
X379224D01*
X379362Y441047D01*
Y441047D01*
X379724D01*
Y441047D01*
X381302D01*
Y439227D01*
X371359Y429284D01*
X369354D01*
X368949Y429555D01*
X368098Y429724D01*
X361799D01*
X360948Y429555D01*
X360227Y429073D01*
X359745Y428351D01*
X359575Y427500D01*
X359745Y426649D01*
X360227Y425927D01*
X360948Y425445D01*
X361799Y425276D01*
X368098D01*
X368949Y425445D01*
X369354Y425716D01*
X372098D01*
X372781Y425851D01*
X373360Y426238D01*
X384348Y437226D01*
X384348Y437226D01*
X384735Y437805D01*
X384871Y438488D01*
Y441047D01*
X386449D01*
Y446429D01*
X389735Y449716D01*
X414150D01*
X414341Y449254D01*
X403919Y438831D01*
X403587Y438335D01*
X403471Y437750D01*
Y437250D01*
X402209D01*
Y434500D01*
X407791D01*
Y437250D01*
X407316D01*
X407125Y437712D01*
X414794Y445381D01*
X415256Y445190D01*
Y442866D01*
X410238Y437848D01*
X409852Y437269D01*
X409716Y436587D01*
Y428913D01*
X409852Y428231D01*
X410238Y427652D01*
X414644Y423246D01*
X414453Y422784D01*
X407791D01*
Y424250D01*
X406784D01*
Y426500D01*
X406784Y426500D01*
X406648Y427183D01*
X406262Y427762D01*
X403735Y430288D01*
X403927Y430750D01*
X404500D01*
Y433500D01*
X402209D01*
Y432468D01*
X401747Y432277D01*
X399220Y434803D01*
X398641Y435190D01*
X397959Y435326D01*
X394878D01*
Y437250D01*
X389295D01*
Y435784D01*
X385500D01*
X385500Y435784D01*
X384817Y435648D01*
X384238Y435262D01*
X384238Y435262D01*
X373261Y424284D01*
X369354D01*
X368949Y424555D01*
X368098Y424724D01*
X361799D01*
X360948Y424555D01*
X360227Y424073D01*
X359745Y423351D01*
X359575Y422500D01*
X359745Y421649D01*
X360227Y420927D01*
X360948Y420445D01*
X361799Y420276D01*
X368098D01*
X368949Y420445D01*
X369354Y420716D01*
X374000D01*
X374683Y420852D01*
X375262Y421238D01*
X386239Y432216D01*
X389295D01*
Y430750D01*
X394878D01*
Y431757D01*
X397220D01*
X403216Y425761D01*
Y424250D01*
X402209D01*
Y417750D01*
X407791D01*
Y419216D01*
X415256D01*
Y417842D01*
X421390D01*
Y423416D01*
X421415Y423439D01*
X421890Y423637D01*
X422011Y423556D01*
X422933Y422634D01*
Y417842D01*
X423166D01*
X423357Y417381D01*
X422374Y416398D01*
X393871D01*
Y417750D01*
X394878D01*
Y424250D01*
X389295D01*
Y423784D01*
X380000D01*
X379317Y423649D01*
X378738Y423262D01*
X374761Y419284D01*
X369354D01*
X368949Y419555D01*
X368098Y419724D01*
X361799D01*
X360948Y419555D01*
X360227Y419072D01*
X359745Y418351D01*
X359575Y417500D01*
X359745Y416649D01*
X360227Y415928D01*
X360948Y415445D01*
X361799Y415276D01*
X368098D01*
X368949Y415445D01*
X369354Y415716D01*
X375500D01*
X376183Y415851D01*
X376762Y416238D01*
X380739Y420216D01*
X389295D01*
Y417750D01*
X390302D01*
Y414614D01*
Y411750D01*
X389252D01*
Y405250D01*
X388843Y405029D01*
X384633D01*
X376081Y413581D01*
X375585Y413913D01*
X375000Y414029D01*
X369700D01*
X369671Y414073D01*
X368949Y414555D01*
X368098Y414724D01*
X365449D01*
Y412500D01*
Y410276D01*
X368098D01*
X368949Y410445D01*
X369671Y410927D01*
X369700Y410971D01*
X373514D01*
Y406453D01*
X371681D01*
Y406453D01*
X371319D01*
Y406453D01*
X364595D01*
Y404284D01*
X357933D01*
Y407327D01*
X335067D01*
Y404174D01*
X332890D01*
X332207Y404038D01*
X331628Y403651D01*
X313738Y385762D01*
X313351Y385183D01*
X313216Y384500D01*
Y368593D01*
X310431D01*
X306347Y372676D01*
Y414653D01*
X309693D01*
X309995Y414131D01*
X310694Y413432D01*
X311550Y412937D01*
X312215Y412759D01*
Y412241D01*
X311550Y412063D01*
X310694Y411568D01*
X309995Y410869D01*
X309500Y410013D01*
X309244Y409058D01*
Y408069D01*
X309500Y407113D01*
X309995Y406257D01*
X310694Y405557D01*
X311550Y405063D01*
X311818Y404991D01*
X311752Y404492D01*
X311622D01*
X310694Y404307D01*
X309908Y403781D01*
X309382Y402995D01*
X309197Y402067D01*
Y399311D01*
X309382Y398383D01*
X309908Y397597D01*
X310694Y397071D01*
X311622Y396886D01*
X314378D01*
X315306Y397071D01*
X316092Y397597D01*
X316618Y398383D01*
X316772Y399160D01*
X321689D01*
X322274Y399276D01*
X322770Y399607D01*
X332581Y409419D01*
X332913Y409915D01*
X333029Y410500D01*
Y437843D01*
X335228D01*
Y445157D01*
X330151D01*
X329960Y445619D01*
X332051Y447711D01*
X344949D01*
X351710Y440950D01*
X352079Y440704D01*
Y437595D01*
X355278D01*
X355470Y437133D01*
X352419Y434081D01*
X352087Y433585D01*
X351971Y433000D01*
Y425633D01*
X350555Y424218D01*
X350052Y424555D01*
X349201Y424724D01*
X342902D01*
X342051Y424555D01*
X341329Y424073D01*
X340847Y423351D01*
X340678Y422500D01*
X340847Y421649D01*
X341329Y420927D01*
X342051Y420445D01*
X342902Y420276D01*
X344522D01*
Y419724D01*
X342902D01*
X342051Y419555D01*
X341329Y419072D01*
X340847Y418351D01*
X340678Y417500D01*
X340847Y416649D01*
X341329Y415928D01*
X342051Y415445D01*
X342902Y415276D01*
X349201D01*
X350052Y415445D01*
X350773Y415928D01*
X351255Y416649D01*
X351425Y417500D01*
X351255Y418351D01*
X350773Y419072D01*
X350052Y419555D01*
X349201Y419724D01*
X347581D01*
Y420276D01*
X349201D01*
X350052Y420445D01*
X350773Y420927D01*
X350802Y420971D01*
X351000D01*
X351585Y421087D01*
X352081Y421419D01*
X354581Y423919D01*
X354913Y424415D01*
X354971Y424705D01*
X355471Y424655D01*
Y414029D01*
X350802D01*
X350773Y414073D01*
X350052Y414555D01*
X349201Y414724D01*
X346551D01*
Y412500D01*
Y410276D01*
X349201D01*
X350052Y410445D01*
X350773Y410927D01*
X350802Y410971D01*
X360198D01*
X360227Y410927D01*
X360948Y410445D01*
X361799Y410276D01*
X364449D01*
Y412500D01*
Y414724D01*
X361799D01*
X360948Y414555D01*
X360227Y414073D01*
X360198Y414029D01*
X358529D01*
Y431867D01*
X362822Y436159D01*
X363153Y436655D01*
X363269Y437240D01*
Y437595D01*
X363921D01*
Y440063D01*
X361740D01*
Y441063D01*
X363921D01*
Y443258D01*
X364134Y443471D01*
X372638D01*
Y441047D01*
X375500D01*
Y445000D01*
Y448953D01*
X372638D01*
Y446529D01*
X363500D01*
X362915Y446413D01*
X362419Y446081D01*
X360864Y444527D01*
X360533Y444031D01*
X360433Y443532D01*
X359559D01*
X359529Y444019D01*
Y445469D01*
X360181D01*
Y451405D01*
X359529D01*
Y453414D01*
X359413Y454000D01*
X359081Y454496D01*
X358496Y455082D01*
X357999Y455413D01*
X357414Y455529D01*
X319748D01*
X319163Y455413D01*
X318667Y455082D01*
X308743Y445157D01*
X304772D01*
Y437843D01*
X310906D01*
Y442995D01*
X312471Y444560D01*
X312933Y444369D01*
Y437843D01*
X316904D01*
X324971Y429776D01*
Y415133D01*
X319930Y410092D01*
X316454D01*
X316005Y410869D01*
X315306Y411568D01*
X314450Y412063D01*
X313785Y412241D01*
Y412759D01*
X314450Y412937D01*
X315306Y413432D01*
X316005Y414131D01*
X316500Y414987D01*
X316756Y415942D01*
Y416931D01*
X316500Y417887D01*
X316005Y418743D01*
X315306Y419443D01*
X314450Y419937D01*
X313785Y420115D01*
Y420633D01*
X314450Y420811D01*
X315306Y421306D01*
X316005Y422005D01*
X316500Y422861D01*
X316754Y423811D01*
X313000D01*
X309246D01*
X309500Y422861D01*
X309995Y422005D01*
X310694Y421306D01*
X311550Y420811D01*
X312215Y420633D01*
Y420115D01*
X311550Y419937D01*
X310694Y419443D01*
X309995Y418743D01*
X309693Y418221D01*
X305302D01*
X301946Y421578D01*
Y437843D01*
X303228D01*
Y445157D01*
X297094D01*
Y437843D01*
X298377D01*
Y420839D01*
X298513Y420156D01*
X298900Y419577D01*
X302779Y415698D01*
Y371937D01*
X302915Y371254D01*
X303301Y370675D01*
X307927Y366050D01*
X307736Y365587D01*
X298209Y365587D01*
X297709Y365588D01*
X297218Y365609D01*
X295784Y365750D01*
X293932Y366312D01*
X292226Y367224D01*
X290730Y368452D01*
X289502Y369948D01*
X288590Y371654D01*
X288028Y373506D01*
X287887Y374940D01*
X287865Y375432D01*
D01*
X287865Y375928D01*
Y446735D01*
X287865Y446735D01*
X287865D01*
X287885Y447227D01*
X288035Y448747D01*
X288621Y450681D01*
X289574Y452464D01*
X290856Y454026D01*
X292419Y455308D01*
X294201Y456261D01*
X296136Y456848D01*
X297655Y456998D01*
X298147Y457017D01*
Y457017D01*
X298147Y457017D01*
X463501D01*
X463501Y457017D01*
D02*
G37*
G36*
X447933Y439034D02*
X448536Y437904D01*
X449348Y436915D01*
X450338Y436102D01*
X451467Y435499D01*
X452175Y435284D01*
X452101Y434784D01*
X444239D01*
X440015Y439009D01*
X440206Y439471D01*
X447800D01*
X447933Y439034D01*
D02*
G37*
G36*
X470971Y434367D02*
Y433581D01*
X470537Y433355D01*
X470471Y433363D01*
X470262Y433676D01*
X470262Y433676D01*
X469676Y434262D01*
X469097Y434649D01*
X468414Y434784D01*
X456833D01*
X456759Y435284D01*
X457466Y435499D01*
X458596Y436102D01*
X459585Y436915D01*
X460398Y437904D01*
X461001Y439034D01*
X461295Y440004D01*
X465333D01*
X470971Y434367D01*
D02*
G37*
G36*
X421971Y437238D02*
X422549Y436852D01*
X422933Y436657D01*
Y429343D01*
X429067D01*
Y430914D01*
X433435D01*
X433525Y430757D01*
X434177Y430106D01*
X434975Y429645D01*
X435322Y429552D01*
X435471Y428994D01*
X429761Y423284D01*
X429067D01*
Y425157D01*
X425456D01*
X424352Y426262D01*
X424079Y426444D01*
X421598Y428925D01*
X421390Y429343D01*
X421390D01*
X421390Y429343D01*
Y436657D01*
X415256D01*
Y429343D01*
X416805D01*
X416923Y428746D01*
X417310Y428167D01*
X419857Y425619D01*
X419666Y425157D01*
X417779D01*
X413284Y429653D01*
Y435848D01*
X417779Y440343D01*
X418866D01*
X421971Y437238D01*
D02*
G37*
G36*
X467216Y396727D02*
X458744Y388256D01*
X458570Y387994D01*
X447506D01*
Y374994D01*
X461506D01*
Y385589D01*
X461655Y385811D01*
X461731Y386195D01*
X470262Y394726D01*
X470262Y394726D01*
X470471Y395039D01*
X470971Y394887D01*
Y381633D01*
X460366Y371029D01*
X428133D01*
X419986Y379177D01*
Y386047D01*
X421819D01*
Y386047D01*
X422181D01*
Y386047D01*
X428905D01*
Y393953D01*
X428092D01*
Y396547D01*
X428905D01*
Y404453D01*
X428092D01*
Y405487D01*
X441556Y418951D01*
X447992D01*
X448569Y417871D01*
X449382Y416882D01*
X450371Y416069D01*
X451501Y415466D01*
X452726Y415094D01*
X454000Y414968D01*
X455000D01*
X456274Y415094D01*
X457500Y415466D01*
X458629Y416069D01*
X459618Y416882D01*
X460431Y417871D01*
X461034Y419000D01*
X461406Y420226D01*
X461531Y421500D01*
X461406Y422774D01*
X461034Y424000D01*
X460431Y425129D01*
X459618Y426118D01*
X458891Y426716D01*
X459069Y427216D01*
X460761D01*
X462216Y425761D01*
Y404764D01*
X460628D01*
X460437Y405123D01*
X459625Y406112D01*
X458635Y406924D01*
X457506Y407528D01*
X456280Y407900D01*
X455006Y408025D01*
X454006D01*
X452732Y407900D01*
X451507Y407528D01*
X450378Y406924D01*
X449388Y406112D01*
X448575Y405123D01*
X447972Y403993D01*
X447600Y402768D01*
X447475Y401494D01*
X447600Y400220D01*
X447972Y398994D01*
X448575Y397865D01*
X449388Y396875D01*
X450378Y396063D01*
X451507Y395460D01*
X452732Y395088D01*
X454006Y394962D01*
X455006D01*
X456280Y395088D01*
X457506Y395460D01*
X458635Y396063D01*
X459625Y396875D01*
X460437Y397865D01*
X461040Y398994D01*
X461412Y400220D01*
X461508Y401196D01*
X463121D01*
X463804Y401332D01*
X464383Y401718D01*
X465262Y402597D01*
X465649Y403176D01*
X465784Y403859D01*
Y426500D01*
X465649Y427183D01*
X465262Y427762D01*
X465262Y427762D01*
X462762Y430262D01*
X462183Y430649D01*
X461845Y430716D01*
X461894Y431216D01*
X467216D01*
Y396727D01*
D02*
G37*
G36*
X450109Y426716D02*
X449382Y426118D01*
X448569Y425129D01*
X447992Y424049D01*
X440500D01*
X439525Y423855D01*
X438698Y423302D01*
X423741Y408346D01*
X423188Y407519D01*
X422994Y406543D01*
Y404453D01*
X422181D01*
Y404453D01*
X421819D01*
Y404453D01*
X418957D01*
Y400500D01*
X418457D01*
Y400000D01*
X415095D01*
Y396547D01*
X416927D01*
Y393953D01*
X415095D01*
Y390500D01*
X418457D01*
Y389500D01*
X415095D01*
Y386047D01*
X416927D01*
Y378543D01*
X417044Y377958D01*
X417375Y377462D01*
X426419Y368419D01*
X426915Y368087D01*
X427500Y367971D01*
X461000D01*
X461585Y368087D01*
X462081Y368419D01*
X473283Y379620D01*
X473783Y379413D01*
Y375869D01*
X473803Y375771D01*
X473614Y373858D01*
X473267Y372714D01*
X472589Y371533D01*
X471130Y369626D01*
X469432Y367928D01*
X467525Y366469D01*
X467149Y366253D01*
X465513Y365757D01*
X463599Y365568D01*
X463501Y365588D01*
X365264Y365588D01*
X365073Y366050D01*
X367085Y368061D01*
X367085Y368061D01*
X367471Y368640D01*
X367607Y369323D01*
Y370843D01*
X368890D01*
Y378157D01*
X369260Y378471D01*
X370063D01*
X370433Y378157D01*
Y370843D01*
X374404D01*
X378328Y366919D01*
X378824Y366587D01*
X379410Y366471D01*
X412000D01*
X412585Y366587D01*
X413081Y366919D01*
X414081Y367919D01*
X414413Y368415D01*
X414529Y369000D01*
Y389394D01*
X414413Y389980D01*
X414081Y390476D01*
X413496Y391062D01*
X412999Y391393D01*
X412414Y391510D01*
X407282D01*
X407101Y391782D01*
X406674Y392067D01*
X406170Y392167D01*
X401830D01*
X401326Y392067D01*
X401029Y391868D01*
X400597Y392033D01*
X400529Y392090D01*
Y401971D01*
X404371D01*
X404956Y402087D01*
X405452Y402419D01*
X406038Y403004D01*
X406370Y403501D01*
X406486Y404086D01*
Y405250D01*
X407748D01*
Y408000D01*
X404957D01*
X402165D01*
Y405250D01*
X401757Y405029D01*
X395243D01*
X394835Y405250D01*
Y411750D01*
X393871D01*
Y412829D01*
X423114D01*
X423797Y412965D01*
X424375Y413352D01*
X427262Y416238D01*
X427262Y416238D01*
X427648Y416817D01*
X427784Y417500D01*
Y417842D01*
X429067D01*
Y419716D01*
X430500D01*
X431183Y419851D01*
X431762Y420238D01*
X438739Y427216D01*
X449930D01*
X450109Y426716D01*
D02*
G37*
G36*
X329095Y444101D02*
Y437843D01*
X329971D01*
Y411133D01*
X321056Y402218D01*
X316772D01*
X316618Y402995D01*
X316092Y403781D01*
X315306Y404307D01*
X314378Y404492D01*
X314248D01*
X314182Y404991D01*
X314450Y405063D01*
X315306Y405557D01*
X316005Y406257D01*
X316454Y407034D01*
X320563D01*
X321148Y407150D01*
X321644Y407482D01*
X327581Y413419D01*
X327913Y413915D01*
X328029Y414500D01*
Y430409D01*
X327913Y430995D01*
X327581Y431491D01*
X321692Y437381D01*
X321883Y437843D01*
X326744D01*
Y442461D01*
X326916Y442576D01*
X328632Y444292D01*
X329095Y444101D01*
D02*
G37*
G36*
X364595Y398547D02*
X366172D01*
Y395453D01*
X364595D01*
Y389823D01*
X364132Y389632D01*
X357683Y396081D01*
X357187Y396413D01*
X356602Y396529D01*
X334000D01*
X333415Y396413D01*
X332919Y396081D01*
X327581Y390744D01*
X327249Y390248D01*
X327150Y389748D01*
X325250D01*
Y387457D01*
X328500D01*
X331750D01*
Y389748D01*
X331564D01*
X331373Y390210D01*
X334567Y393404D01*
X335067Y393310D01*
Y383673D01*
X345014D01*
Y379677D01*
X340866Y375529D01*
X331750D01*
Y376835D01*
X325250D01*
Y371252D01*
X324818Y371088D01*
X323029D01*
Y379782D01*
X327413Y384165D01*
X328000D01*
Y386457D01*
X325250D01*
Y386328D01*
X320419Y381497D01*
X320087Y381001D01*
X319971Y380415D01*
Y370144D01*
X320087Y369559D01*
X320399Y369093D01*
X320351Y368871D01*
X320235Y368593D01*
X316784D01*
Y383761D01*
X333629Y400605D01*
X335067D01*
Y397453D01*
X357933D01*
Y400716D01*
X364595D01*
Y398547D01*
D02*
G37*
G36*
X389772Y394843D02*
X391309D01*
Y391976D01*
X391018Y391782D01*
X390732Y391355D01*
X390632Y390851D01*
Y389180D01*
X390465Y389054D01*
X390154Y388951D01*
X388500Y390605D01*
Y390961D01*
X388262Y391851D01*
X387801Y392649D01*
X387549Y392901D01*
Y394843D01*
X388228D01*
Y401971D01*
X389772D01*
Y394843D01*
D02*
G37*
G36*
X382680Y402658D02*
X382473Y402157D01*
X382095D01*
Y394843D01*
X382451D01*
Y392901D01*
X382199Y392649D01*
X381738Y391851D01*
X381500Y390961D01*
Y390039D01*
X381738Y389149D01*
X382199Y388351D01*
X382851Y387699D01*
X383649Y387239D01*
X384539Y387000D01*
X384895D01*
X387366Y384529D01*
X387267Y384029D01*
X370479D01*
X370429Y384529D01*
X370719Y384587D01*
X371215Y384919D01*
X373844Y387547D01*
X374543D01*
Y391500D01*
X375043D01*
Y392000D01*
X378405D01*
Y395453D01*
X376573D01*
Y398547D01*
X378405D01*
Y402000D01*
X375043D01*
Y403000D01*
X378405D01*
Y406224D01*
X378906Y406432D01*
X382680Y402658D01*
D02*
G37*
G36*
X364520Y384919D02*
X365016Y384587D01*
X365306Y384529D01*
X365257Y384029D01*
X359740D01*
X357933Y385836D01*
Y390852D01*
X358395Y391044D01*
X364520Y384919D01*
D02*
G37*
G36*
X400007Y386238D02*
X400503Y385906D01*
X400514Y385904D01*
Y385369D01*
X400614Y384866D01*
X400685Y384759D01*
X400867Y384370D01*
X400685Y383981D01*
X400614Y383875D01*
X400514Y383371D01*
Y381629D01*
X400614Y381125D01*
X400899Y380699D01*
X401326Y380414D01*
X401830Y380313D01*
X402471D01*
Y378453D01*
X399138D01*
Y378453D01*
X398776D01*
Y378453D01*
X396943D01*
Y380514D01*
X397219Y380699D01*
X397504Y381125D01*
X397604Y381629D01*
Y383371D01*
X397504Y383875D01*
X397433Y383981D01*
X397251Y384370D01*
X397433Y384759D01*
X397504Y384866D01*
X397604Y385369D01*
Y387111D01*
X397504Y387615D01*
X397433Y387721D01*
X397384Y387826D01*
X397518Y388038D01*
X397547Y388059D01*
X398131Y388113D01*
X400007Y386238D01*
D02*
G37*
G36*
X391018Y380699D02*
X391444Y380414D01*
X391948Y380313D01*
X393884D01*
Y378453D01*
X392051D01*
Y372852D01*
X391589Y372660D01*
X391244Y373005D01*
Y378157D01*
X385110D01*
Y370843D01*
X389081D01*
X389932Y369991D01*
X389741Y369529D01*
X380043D01*
X379192Y370381D01*
X379383Y370843D01*
X380000D01*
Y374500D01*
Y378157D01*
X379596D01*
X377245Y380509D01*
X377436Y380971D01*
X390836D01*
X391018Y380699D01*
D02*
G37*
G36*
X357452Y381991D02*
X357261Y381529D01*
X354000D01*
X353415Y381413D01*
X352919Y381081D01*
X342925Y371088D01*
X332182D01*
X331750Y371252D01*
Y372471D01*
X341500D01*
X342085Y372587D01*
X342581Y372919D01*
X347625Y377962D01*
X347956Y378458D01*
X348073Y379043D01*
Y383673D01*
X355770D01*
X357452Y381991D01*
D02*
G37*
G36*
X411471Y369634D02*
X411367Y369529D01*
X394720D01*
X394164Y370085D01*
X394356Y370547D01*
X398776D01*
Y370547D01*
X399138D01*
Y370547D01*
X405862D01*
Y378453D01*
X405529D01*
Y380313D01*
X406170D01*
X406674Y380414D01*
X407101Y380699D01*
X407386Y381125D01*
X407486Y381629D01*
Y383371D01*
X407386Y383875D01*
X407315Y383981D01*
X407133Y384370D01*
X407315Y384759D01*
X407386Y384866D01*
X407486Y385369D01*
Y385740D01*
X404000D01*
Y386740D01*
X407486D01*
Y387111D01*
X407386Y387615D01*
X407315Y387721D01*
X407165Y388041D01*
X407428Y388451D01*
X411471D01*
Y369634D01*
D02*
G37*
G36*
X362756Y378157D02*
Y370843D01*
X364038D01*
Y370062D01*
X362569Y368593D01*
X345409D01*
X345217Y369055D01*
X354633Y378471D01*
X362386D01*
X362756Y378157D01*
D02*
G37*
%LPC*%
G36*
X407791Y433500D02*
X405500D01*
Y430750D01*
X407791D01*
Y433500D01*
D02*
G37*
G36*
X342905Y445157D02*
X336772D01*
Y437843D01*
X338309D01*
Y435137D01*
X338426Y434552D01*
X338757Y434056D01*
X342633Y430180D01*
X342468Y429638D01*
X342051Y429555D01*
X341329Y429073D01*
X340847Y428351D01*
X340678Y427500D01*
X340847Y426649D01*
X341329Y425927D01*
X342051Y425445D01*
X342902Y425276D01*
X349201D01*
X350052Y425445D01*
X350773Y425927D01*
X351255Y426649D01*
X351425Y427500D01*
X351255Y428351D01*
X350773Y429073D01*
X350052Y429555D01*
X349201Y429724D01*
X346884D01*
X346793Y430181D01*
X346462Y430677D01*
X341368Y435771D01*
Y437843D01*
X342905D01*
Y445157D01*
D02*
G37*
G36*
X313500Y428065D02*
Y424811D01*
X316754D01*
X316500Y425761D01*
X316005Y426617D01*
X315306Y427317D01*
X314450Y427811D01*
X313500Y428065D01*
D02*
G37*
G36*
X312500D02*
X311550Y427811D01*
X310694Y427317D01*
X309995Y426617D01*
X309500Y425761D01*
X309246Y424811D01*
X312500D01*
Y428065D01*
D02*
G37*
G36*
X345551Y414724D02*
X342902D01*
X342051Y414555D01*
X341329Y414073D01*
X340847Y413351D01*
X340777Y413000D01*
X345551D01*
Y414724D01*
D02*
G37*
G36*
Y412000D02*
X340777D01*
X340847Y411649D01*
X341329Y410927D01*
X342051Y410445D01*
X342902Y410276D01*
X345551D01*
Y412000D01*
D02*
G37*
G36*
X407748Y411750D02*
X405457D01*
Y409000D01*
X407748D01*
Y411750D01*
D02*
G37*
G36*
X404457D02*
X402165D01*
Y409000D01*
X404457D01*
Y411750D01*
D02*
G37*
G36*
X417957Y404453D02*
X415095D01*
Y401000D01*
X417957D01*
Y404453D01*
D02*
G37*
G36*
X331750Y386457D02*
X329000D01*
Y384165D01*
X331750D01*
Y386457D01*
D02*
G37*
G36*
X378405Y391000D02*
X375543D01*
Y387547D01*
X378405D01*
Y391000D01*
D02*
G37*
G36*
X383567Y378157D02*
X381000D01*
Y375000D01*
X383567D01*
Y378157D01*
D02*
G37*
G36*
Y374000D02*
X381000D01*
Y370843D01*
X383567D01*
Y374000D01*
D02*
G37*
%LPD*%
D16*
X384910Y454500D02*
X441500D01*
X376000Y445590D02*
X384910Y454500D01*
X441500D02*
X454467Y441533D01*
X319748Y454000D02*
X357414D01*
X358000Y448437D02*
Y453414D01*
X307839Y442091D02*
X319748Y454000D01*
X357414D02*
X358000Y453414D01*
X453934Y441000D02*
X454467Y441533D01*
X426000Y443409D02*
Y448158D01*
X428409Y441000D02*
X453934D01*
X426000Y443409D02*
X428409Y441000D01*
X427500Y369500D02*
X461000D01*
X418457Y378543D02*
Y390000D01*
Y378543D02*
X427500Y369500D01*
X418457Y390000D02*
Y400500D01*
X321500Y380415D02*
X328041Y386957D01*
X321500Y370144D02*
Y380415D01*
X328500Y386957D02*
X328662Y387119D01*
X328041Y386957D02*
X328500D01*
X334000Y395000D02*
X356602D01*
X328662Y387119D02*
Y389662D01*
X334000Y395000D01*
X322086Y369558D02*
X343558D01*
X354000Y380000D01*
X380500Y374500D02*
Y375091D01*
X375590Y380000D02*
X380500Y375091D01*
X354000Y380000D02*
X375590D01*
X321500Y370144D02*
X322086Y369558D01*
X328397Y374000D02*
X341500D01*
X346543Y379043D02*
Y388567D01*
X341500Y374000D02*
X346543Y379043D01*
X472500Y381000D02*
Y435000D01*
X461000Y369500D02*
X472500Y381000D01*
X316000Y440909D02*
X326500Y430409D01*
X320563Y408563D02*
X326500Y414500D01*
Y430409D01*
X331500Y440839D02*
X332161Y441500D01*
X321689Y400689D02*
X331500Y410500D01*
Y440839D01*
X313000Y400689D02*
X321689D01*
X313000Y408563D02*
X320563D01*
X363500Y445000D02*
X376000D01*
X361946Y443446D02*
X363500Y445000D01*
X361946Y440768D02*
Y443446D01*
X361740Y437240D02*
Y440563D01*
X361946Y440768D01*
X359106Y382500D02*
X394752D01*
X352996Y388610D02*
X359106Y382500D01*
X395216Y374303D02*
X395413Y374500D01*
X356602Y395000D02*
X365602Y386000D01*
X346500Y388610D02*
X346543Y388567D01*
X454467Y441533D02*
X465967D01*
X370134Y386000D02*
X375043Y390910D01*
X365602Y386000D02*
X370134D01*
X375043Y390910D02*
Y391500D01*
X346500Y388610D02*
X352996D01*
X357000Y412500D02*
Y432500D01*
X361740Y437240D01*
X346051Y412500D02*
X357000D01*
X364949D01*
X405000Y437750D02*
X415993Y448743D01*
X405000Y434000D02*
Y437750D01*
X415993Y448743D02*
X425414D01*
X426000Y448158D01*
X375043Y412457D02*
X384000Y403500D01*
X375000Y412500D02*
X375043Y412457D01*
Y402500D02*
Y412457D01*
X392839Y390642D02*
X393500Y389980D01*
X394118D01*
X392839Y390642D02*
Y398500D01*
X399000Y403500D02*
X404371D01*
X384000D02*
X399000D01*
X401622Y387319D02*
X402701Y386240D01*
X404000D01*
X401088Y387319D02*
X401622D01*
X399000Y389407D02*
X401088Y387319D01*
X399000Y389407D02*
Y403500D01*
X373500Y373909D02*
X379410Y368000D01*
X394087D01*
X373500Y373909D02*
Y374500D01*
X413000Y369000D02*
Y389394D01*
X404000Y389980D02*
X412414D01*
X413000Y389394D01*
X412000Y368000D02*
X413000Y369000D01*
X394087Y368000D02*
X412000D01*
X388177Y373909D02*
Y374500D01*
Y373909D02*
X394087Y368000D01*
X395413Y374500D02*
Y381839D01*
X394752Y382500D02*
X395413Y381839D01*
X402500Y374500D02*
X404000Y376000D01*
Y382500D01*
X375043Y391500D02*
Y402500D01*
X384000Y403500D02*
Y403500D01*
X404371Y403500D02*
X404957Y404086D01*
Y408500D01*
X364949Y412500D02*
X375000D01*
X465967Y441533D02*
X472500Y435000D01*
X351000Y422500D02*
X353500Y425000D01*
X358000Y437500D02*
Y448437D01*
X353500Y425000D02*
Y433000D01*
X358000Y437500D01*
X346051Y422500D02*
X351000D01*
X352791Y442031D02*
X353579D01*
X345583Y449240D02*
X352791Y442031D01*
X331417Y449240D02*
X345583D01*
X354260Y440563D02*
Y441350D01*
X353579Y442031D02*
X354260Y441350D01*
X316000Y440909D02*
Y441500D01*
X325244Y443657D02*
X325835D01*
X331417Y449240D01*
X323677Y441500D02*
Y442091D01*
X325244Y443657D01*
X345380Y428129D02*
X346010Y427500D01*
X345380Y428129D02*
Y429595D01*
X346010Y427500D02*
X346051D01*
X339839Y435137D02*
X345380Y429595D01*
X339839Y435137D02*
Y441500D01*
X346051Y417500D02*
Y422500D01*
X307839Y441500D02*
Y442091D01*
X376000Y445000D02*
Y445590D01*
D17*
X426000Y421500D02*
D03*
X418323D02*
D03*
Y444000D02*
D03*
X426000D02*
D03*
Y433000D02*
D03*
X418323D02*
D03*
X385161Y398500D02*
D03*
X392839D02*
D03*
X365823Y374500D02*
D03*
X373500D02*
D03*
X300161Y441500D02*
D03*
X307839D02*
D03*
X332161D02*
D03*
X339839D02*
D03*
X323677D02*
D03*
X316000D02*
D03*
X388177Y374500D02*
D03*
X380500D02*
D03*
D18*
X346051Y427500D02*
D03*
Y422500D02*
D03*
Y417500D02*
D03*
Y412500D02*
D03*
X364949Y427500D02*
D03*
Y422500D02*
D03*
Y417500D02*
D03*
Y412500D02*
D03*
D19*
X358000Y448437D02*
D03*
X361740Y440563D02*
D03*
X354260D02*
D03*
D20*
X376000Y445000D02*
D03*
X383087D02*
D03*
X367957Y402500D02*
D03*
X375043D02*
D03*
X367957Y391500D02*
D03*
X375043D02*
D03*
X402500Y374500D02*
D03*
X395413D02*
D03*
X418457Y400500D02*
D03*
X425543D02*
D03*
X418457Y390000D02*
D03*
X425543D02*
D03*
D21*
X392087Y434000D02*
D03*
X405000D02*
D03*
X392087Y421000D02*
D03*
X405000D02*
D03*
X404957Y408500D02*
D03*
X392043D02*
D03*
D22*
X394118Y382500D02*
D03*
Y386240D02*
D03*
Y389980D02*
D03*
X404000D02*
D03*
Y386240D02*
D03*
Y382500D02*
D03*
D23*
X328500Y374043D02*
D03*
Y386957D02*
D03*
D24*
X346500Y402390D02*
D03*
Y388610D02*
D03*
D38*
X375500Y417500D02*
X380000Y422000D01*
X391295D01*
X364949Y417500D02*
X375500D01*
X364949Y422500D02*
X374000D01*
X385500Y434000D02*
X392087D01*
X374000Y422500D02*
X385500Y434000D01*
X426000Y421500D02*
X430500D01*
X426000Y417500D02*
Y421500D01*
X418572Y429428D02*
X423000Y425000D01*
X423091D02*
X426000Y422090D01*
X418572Y429428D02*
Y432751D01*
X418323Y433000D02*
X418572Y432751D01*
X423000Y425000D02*
X423091D01*
X426000Y421500D02*
Y422090D01*
X411500Y428913D02*
X418323Y422090D01*
X405000Y421000D02*
X417232D01*
X418323Y421500D02*
Y422090D01*
X417232Y421000D02*
X418028Y421795D01*
X423114Y414614D02*
X426000Y417500D01*
X392087Y414614D02*
Y421209D01*
Y414614D02*
X423114D01*
X430500Y421500D02*
X438000Y429000D01*
X461500D01*
X464000Y426500D01*
X469000Y395988D02*
Y432414D01*
X468414Y433000D02*
X469000Y432414D01*
X438000Y438500D02*
X443500Y433000D01*
X468414D01*
X392087Y408635D02*
Y414614D01*
X460006Y386994D02*
X469000Y395988D01*
X455993Y402980D02*
X463121D01*
X464000Y403859D02*
Y426500D01*
X463121Y402980D02*
X464000Y403859D01*
X315000Y366808D02*
Y384500D01*
X332890Y402390D02*
X346500D01*
X315000Y384500D02*
X332890Y402390D01*
X454506Y401494D02*
X455993Y402980D01*
X418323Y443409D02*
X423232Y438500D01*
X438000D01*
X391295Y422000D02*
X392087Y421209D01*
X383087Y438488D02*
Y445590D01*
X388996Y451500D02*
X430000D01*
X383087Y445590D02*
X388996Y451500D01*
X315000Y366808D02*
X363308D01*
X309692D02*
X315000D01*
X363308D02*
X365823Y369323D01*
X304563Y371937D02*
Y416437D01*
Y371937D02*
X309692Y366808D01*
X365823Y369323D02*
Y374500D01*
X430000Y451500D02*
X436500Y445000D01*
X418323Y443409D02*
Y444000D01*
X392087Y434000D02*
X392545Y433541D01*
X397959D02*
X405000Y426500D01*
Y421000D02*
Y426500D01*
X392545Y433541D02*
X397959D01*
X411500Y436587D02*
X418323Y443409D01*
X411500Y428913D02*
Y436587D01*
X346610Y402500D02*
X367957D01*
X346500Y402390D02*
X346610Y402500D01*
X367957Y391500D02*
Y402500D01*
X455006Y381494D02*
X460006Y386494D01*
Y386994D01*
X454506Y381494D02*
X455006D01*
X392043Y408592D02*
X392087Y408635D01*
X372098Y427500D02*
X383087Y438488D01*
X364949Y427500D02*
X372098D01*
X300161Y420839D02*
X304563Y416437D01*
X313000D01*
X300161Y420839D02*
Y441500D01*
D39*
X425543Y390000D02*
Y406543D01*
X440500Y421500D02*
X454500D01*
X425543Y406543D02*
X440500Y421500D01*
X385000Y390500D02*
X389238Y386262D01*
X392908D01*
X385000Y398339D02*
X385161Y398500D01*
X385000Y390500D02*
Y398339D01*
D40*
X436279Y432953D02*
X436326Y432906D01*
X426047Y432953D02*
X436279D01*
X426000Y433000D02*
X426047Y432953D01*
D41*
X454506Y401494D02*
D03*
X454500Y421500D02*
D03*
X454467Y441533D02*
D03*
D42*
X454506Y381494D02*
D03*
D43*
X313000Y424311D02*
D03*
Y416437D02*
D03*
Y408563D02*
D03*
D44*
Y400689D02*
D03*
D45*
X436326Y432906D02*
D03*
X436500Y445000D02*
D03*
X385000Y390500D02*
D03*
M02*
