G04*
G04 #@! TF.GenerationSoftware,Altium Limited,Altium Designer,23.0.1 (38)*
G04*
G04 Layer_Physical_Order=2*
G04 Layer_Color=16711680*
%FSLAX25Y25*%
%MOIN*%
G70*
G04*
G04 #@! TF.SameCoordinates,C317ACD7-2F99-4A28-9CC3-B5CC64B43C24*
G04*
G04*
G04 #@! TF.FilePolarity,Positive*
G04*
G01*
G75*
%ADD16C,0.01000*%
%ADD39C,0.03000*%
%ADD40C,0.02000*%
%ADD41O,0.12000X0.11000*%
%ADD42R,0.12000X0.11000*%
%ADD43C,0.05512*%
G04:AMPARAMS|DCode=44|XSize=55.12mil|YSize=55.12mil|CornerRadius=13.78mil|HoleSize=0mil|Usage=FLASHONLY|Rotation=90.000|XOffset=0mil|YOffset=0mil|HoleType=Round|Shape=RoundedRectangle|*
%AMROUNDEDRECTD44*
21,1,0.05512,0.02756,0,0,90.0*
21,1,0.02756,0.05512,0,0,90.0*
1,1,0.02756,0.01378,0.01378*
1,1,0.02756,0.01378,-0.01378*
1,1,0.02756,-0.01378,-0.01378*
1,1,0.02756,-0.01378,0.01378*
%
%ADD44ROUNDEDRECTD44*%
%ADD45C,0.05000*%
G36*
X466000Y457000D02*
X466695Y456676D01*
X468025Y455909D01*
X469282Y455029D01*
X470457Y454042D01*
X471543Y452957D01*
X472529Y451782D01*
X473409Y450525D01*
X474176Y449195D01*
X474500Y448500D01*
X474500D01*
X474500Y448500D01*
X474500Y375500D01*
X474233Y374618D01*
X473486Y372933D01*
X472539Y371352D01*
X471405Y369899D01*
X470101Y368595D01*
X468648Y367461D01*
X467067Y366514D01*
X465382Y365767D01*
X464500Y365500D01*
X297500D01*
X296268Y365500D01*
X295368Y365585D01*
X293637Y366104D01*
X292040Y366950D01*
X290638Y368091D01*
X289487Y369484D01*
X288629Y371075D01*
X288098Y372802D01*
X287915Y374600D01*
X288000Y375500D01*
X288000Y375500D01*
X288000Y447000D01*
Y447985D01*
X288384Y449917D01*
X289138Y451737D01*
X290232Y453375D01*
X291625Y454768D01*
X293263Y455862D01*
X295083Y456616D01*
X297015Y457000D01*
X298000Y457000D01*
X298000Y457000D01*
X466000Y457000D01*
D02*
G37*
%LPC*%
G36*
X454967Y448065D02*
D01*
Y442033D01*
X461449D01*
X461373Y442807D01*
X461001Y444033D01*
X460398Y445162D01*
X459585Y446151D01*
X458596Y446964D01*
X457466Y447567D01*
X456241Y447939D01*
X454967Y448065D01*
D02*
G37*
G36*
X461449Y441033D02*
X454967D01*
Y435002D01*
X456241Y435127D01*
X457466Y435499D01*
X458596Y436102D01*
X459585Y436915D01*
X460398Y437904D01*
X461001Y439034D01*
X461373Y440259D01*
X461449Y441033D01*
D02*
G37*
G36*
X437362Y451529D02*
X332177D01*
X331592Y451413D01*
X331096Y451081D01*
X311919Y431904D01*
X311587Y431408D01*
X311471Y430823D01*
Y427765D01*
X310694Y427317D01*
X309995Y426617D01*
X309500Y425761D01*
X309246Y424811D01*
X313000D01*
X316754D01*
X316500Y425761D01*
X316005Y426617D01*
X315306Y427317D01*
X314529Y427765D01*
Y430189D01*
X332811Y448471D01*
X434511D01*
X434645Y447971D01*
X434351Y447801D01*
X434089Y447539D01*
X342063D01*
X341283Y447384D01*
X340621Y446942D01*
X340621Y446942D01*
X317192Y423513D01*
X316744Y423772D01*
X316754Y423811D01*
X313000D01*
X309246D01*
X309500Y422861D01*
X309995Y422005D01*
X310694Y421306D01*
X311550Y420811D01*
X312215Y420633D01*
Y420115D01*
X311550Y419937D01*
X310694Y419443D01*
X309995Y418743D01*
X309500Y417887D01*
X309244Y416931D01*
Y415942D01*
X309500Y414987D01*
X309995Y414131D01*
X310694Y413432D01*
X311550Y412937D01*
X312215Y412759D01*
Y412241D01*
X311550Y412063D01*
X310694Y411568D01*
X309995Y410869D01*
X309500Y410013D01*
X309244Y409058D01*
Y408069D01*
X309500Y407113D01*
X309995Y406257D01*
X310694Y405557D01*
X311550Y405063D01*
X311818Y404991D01*
X311752Y404492D01*
X311622D01*
X310694Y404307D01*
X309908Y403781D01*
X309382Y402995D01*
X309197Y402067D01*
Y399311D01*
X309382Y398383D01*
X309908Y397597D01*
X310694Y397071D01*
X311622Y396886D01*
X314378D01*
X315306Y397071D01*
X316092Y397597D01*
X316618Y398383D01*
X316803Y399311D01*
Y402067D01*
X316618Y402995D01*
X316092Y403781D01*
X315306Y404307D01*
X314378Y404492D01*
X314248D01*
X314182Y404991D01*
X314450Y405063D01*
X315306Y405557D01*
X316005Y406257D01*
X316500Y407113D01*
X316756Y408069D01*
Y409058D01*
X316500Y410013D01*
X316005Y410869D01*
X315306Y411568D01*
X314450Y412063D01*
X313785Y412241D01*
Y412759D01*
X314450Y412937D01*
X315306Y413432D01*
X316005Y414131D01*
X316500Y414987D01*
X316756Y415942D01*
Y416931D01*
X316676Y417229D01*
X342908Y443461D01*
X433347D01*
X433699Y442851D01*
X434351Y442199D01*
X434374Y442186D01*
Y435821D01*
X434177Y435707D01*
X433525Y435055D01*
X433064Y434257D01*
X432826Y433367D01*
Y432446D01*
X433064Y431555D01*
X433525Y430757D01*
X434177Y430106D01*
X434975Y429645D01*
X435865Y429406D01*
X436787D01*
X437677Y429645D01*
X438475Y430106D01*
X439126Y430757D01*
X439587Y431555D01*
X439826Y432446D01*
Y433367D01*
X439587Y434257D01*
X439126Y435055D01*
X438475Y435707D01*
X438452Y435720D01*
Y442086D01*
X438649Y442199D01*
X439301Y442851D01*
X439761Y443649D01*
X439990Y444502D01*
X440224Y444639D01*
X440462Y444737D01*
X444747Y440452D01*
X445244Y440120D01*
X445829Y440004D01*
X447638D01*
X447933Y439034D01*
X448536Y437904D01*
X449348Y436915D01*
X450338Y436102D01*
X451467Y435499D01*
X452693Y435127D01*
X453967Y435002D01*
D01*
Y441533D01*
Y448065D01*
X452693Y447939D01*
X451467Y447567D01*
X450338Y446964D01*
X449348Y446151D01*
X448536Y445162D01*
X447933Y444033D01*
X447638Y443062D01*
X446462D01*
X438443Y451081D01*
X437947Y451413D01*
X437362Y451529D01*
D02*
G37*
G36*
X455000Y428031D02*
X454000D01*
X452726Y427906D01*
X451501Y427534D01*
X450371Y426931D01*
X449382Y426118D01*
X448569Y425129D01*
X447992Y424049D01*
X389500D01*
X388525Y423855D01*
X387698Y423302D01*
X378734Y414338D01*
X378181Y413511D01*
X377987Y412536D01*
Y394964D01*
X378181Y393988D01*
X378734Y393162D01*
X381500Y390395D01*
Y390039D01*
X381738Y389149D01*
X382199Y388351D01*
X382851Y387699D01*
X383649Y387239D01*
X384539Y387000D01*
X385461D01*
X386351Y387239D01*
X387149Y387699D01*
X387801Y388351D01*
X388262Y389149D01*
X388500Y390039D01*
Y390961D01*
X388262Y391851D01*
X387801Y392649D01*
X387149Y393301D01*
X386351Y393761D01*
X385461Y394000D01*
X385105D01*
X383085Y396020D01*
Y411480D01*
X390556Y418951D01*
X447992D01*
X448569Y417871D01*
X449382Y416882D01*
X450371Y416069D01*
X451501Y415466D01*
X452726Y415094D01*
X454000Y414968D01*
X455000D01*
X456274Y415094D01*
X457500Y415466D01*
X458629Y416069D01*
X459618Y416882D01*
X460431Y417871D01*
X461034Y419000D01*
X461406Y420226D01*
X461531Y421500D01*
X461406Y422774D01*
X461034Y424000D01*
X460431Y425129D01*
X459618Y426118D01*
X458629Y426931D01*
X457500Y427534D01*
X456274Y427906D01*
X455000Y428031D01*
D02*
G37*
G36*
X455006Y408025D02*
X454006D01*
X452732Y407900D01*
X451507Y407528D01*
X450378Y406924D01*
X449388Y406112D01*
X448575Y405123D01*
X447972Y403993D01*
X447600Y402768D01*
X447475Y401494D01*
X447600Y400220D01*
X447972Y398994D01*
X448575Y397865D01*
X449388Y396875D01*
X450378Y396063D01*
X451507Y395460D01*
X452732Y395088D01*
X454006Y394962D01*
X455006D01*
X456280Y395088D01*
X457506Y395460D01*
X458635Y396063D01*
X459625Y396875D01*
X460437Y397865D01*
X461040Y398994D01*
X461412Y400220D01*
X461538Y401494D01*
X461412Y402768D01*
X461040Y403993D01*
X460437Y405123D01*
X459625Y406112D01*
X458635Y406924D01*
X457506Y407528D01*
X456280Y407900D01*
X455006Y408025D01*
D02*
G37*
G36*
X461506Y387994D02*
X447506D01*
Y374994D01*
X461506D01*
Y387994D01*
D02*
G37*
%LPD*%
D16*
X445829Y441533D02*
X454467D01*
X437362Y450000D02*
X445829Y441533D01*
X332177Y450000D02*
X437362D01*
X313000Y430823D02*
X332177Y450000D01*
X313000Y424311D02*
Y430823D01*
D39*
X389500Y421500D02*
X454500D01*
X380536Y394964D02*
Y412536D01*
X389500Y421500D01*
X380536Y394964D02*
X385000Y390500D01*
D40*
X436326Y432906D02*
X436413Y432993D01*
Y444913D02*
X436500Y445000D01*
X436413Y432993D02*
Y444913D01*
X342063Y445500D02*
X436000D01*
X436500Y445000D01*
X313000Y416437D02*
X342063Y445500D01*
D41*
X454506Y401494D02*
D03*
X454500Y421500D02*
D03*
X454467Y441533D02*
D03*
D42*
X454506Y381494D02*
D03*
D43*
X313000Y424311D02*
D03*
Y416437D02*
D03*
Y408563D02*
D03*
D44*
Y400689D02*
D03*
D45*
X436326Y432906D02*
D03*
X436500Y445000D02*
D03*
X385000Y390500D02*
D03*
M02*
