G04*
G04 #@! TF.GenerationSoftware,Altium Limited,Altium Designer,23.0.1 (38)*
G04*
G04 Layer_Color=65535*
%FSLAX25Y25*%
%MOIN*%
G70*
G04*
G04 #@! TF.SameCoordinates,C317ACD7-2F99-4A28-9CC3-B5CC64B43C24*
G04*
G04*
G04 #@! TF.FilePolarity,Positive*
G04*
G01*
G75*
%ADD10C,0.00984*%
%ADD11C,0.02362*%
%ADD12C,0.00394*%
%ADD13C,0.00787*%
%ADD14C,0.00500*%
%ADD15C,0.00700*%
%ADD16C,0.01000*%
G36*
X452006Y411494D02*
X454506Y408994D01*
Y410494D01*
X457006D01*
Y412494D01*
X454506D01*
Y413994D01*
X452006Y411494D01*
D02*
G37*
G36*
X443239Y383172D02*
X443289Y383163D01*
X443347Y383155D01*
X443409Y383138D01*
X443476Y383117D01*
X443542Y383088D01*
X443551Y383084D01*
X443572Y383072D01*
X443601Y383055D01*
X443642Y383030D01*
X443684Y382997D01*
X443730Y382963D01*
X443775Y382922D01*
X443813Y382876D01*
X443817Y382872D01*
X443829Y382855D01*
X443846Y382826D01*
X443863Y382789D01*
X443888Y382743D01*
X443913Y382689D01*
X443933Y382631D01*
X443954Y382560D01*
Y382552D01*
X443963Y382527D01*
X443967Y382485D01*
X443975Y382431D01*
X443983Y382365D01*
X443992Y382285D01*
X443996Y382198D01*
X444000Y382098D01*
Y381000D01*
X441121D01*
Y382132D01*
X441125Y382161D01*
Y382194D01*
X441134Y382269D01*
X441142Y382352D01*
X441159Y382439D01*
X441180Y382527D01*
X441209Y382606D01*
Y382610D01*
X441213Y382614D01*
X441225Y382639D01*
X441246Y382677D01*
X441275Y382718D01*
X441313Y382768D01*
X441358Y382822D01*
X441417Y382872D01*
X441479Y382918D01*
X441487Y382922D01*
X441512Y382934D01*
X441546Y382955D01*
X441596Y382976D01*
X441654Y382997D01*
X441716Y383018D01*
X441787Y383030D01*
X441858Y383034D01*
X441866D01*
X441887D01*
X441924Y383030D01*
X441970Y383022D01*
X442024Y383009D01*
X442082Y382989D01*
X442140Y382963D01*
X442203Y382930D01*
X442211Y382926D01*
X442228Y382914D01*
X442261Y382889D01*
X442294Y382855D01*
X442336Y382814D01*
X442382Y382764D01*
X442423Y382701D01*
X442465Y382631D01*
Y382635D01*
X442469Y382643D01*
X442473Y382656D01*
X442482Y382672D01*
X442498Y382722D01*
X442527Y382781D01*
X442565Y382843D01*
X442611Y382914D01*
X442665Y382976D01*
X442731Y383034D01*
X442739Y383038D01*
X442765Y383055D01*
X442802Y383080D01*
X442852Y383105D01*
X442918Y383130D01*
X442989Y383155D01*
X443072Y383172D01*
X443164Y383176D01*
X443168D01*
X443172D01*
X443197D01*
X443239Y383172D01*
D02*
G37*
G36*
X444000Y403259D02*
X443126Y402922D01*
Y401716D01*
X444000Y401404D01*
Y401000D01*
X441121Y402098D01*
Y402514D01*
X444000Y403691D01*
Y403259D01*
D02*
G37*
G36*
X444500Y423066D02*
Y422667D01*
X441621Y421552D01*
Y421968D01*
X443714Y422717D01*
X443718D01*
X443726Y422721D01*
X443739Y422725D01*
X443755Y422733D01*
X443780Y422737D01*
X443805Y422746D01*
X443868Y422767D01*
X443938Y422791D01*
X444017Y422817D01*
X444184Y422866D01*
X444180D01*
X444171Y422871D01*
X444159Y422875D01*
X444142Y422879D01*
X444097Y422891D01*
X444034Y422912D01*
X443963Y422933D01*
X443884Y422958D01*
X443801Y422987D01*
X443714Y423020D01*
X441621Y423802D01*
Y424189D01*
X444500Y423066D01*
D02*
G37*
G36*
Y419418D02*
X444496D01*
X444479D01*
X444454D01*
X444421Y419422D01*
X444383Y419426D01*
X444342Y419434D01*
X444300Y419443D01*
X444255Y419459D01*
X444250D01*
X444246Y419463D01*
X444221Y419472D01*
X444184Y419488D01*
X444134Y419513D01*
X444076Y419547D01*
X444009Y419588D01*
X443943Y419634D01*
X443872Y419692D01*
X443868D01*
X443863Y419701D01*
X443839Y419721D01*
X443801Y419759D01*
X443747Y419813D01*
X443685Y419875D01*
X443610Y419954D01*
X443527Y420050D01*
X443439Y420154D01*
X443435Y420158D01*
X443423Y420175D01*
X443402Y420200D01*
X443377Y420229D01*
X443343Y420266D01*
X443306Y420312D01*
X443264Y420358D01*
X443219Y420412D01*
X443119Y420516D01*
X443019Y420620D01*
X442969Y420670D01*
X442919Y420716D01*
X442873Y420757D01*
X442828Y420791D01*
X442824D01*
X442819Y420799D01*
X442807Y420807D01*
X442790Y420816D01*
X442744Y420845D01*
X442690Y420878D01*
X442624Y420907D01*
X442553Y420936D01*
X442474Y420953D01*
X442399Y420961D01*
X442395D01*
X442391D01*
X442366Y420957D01*
X442324Y420953D01*
X442279Y420940D01*
X442220Y420924D01*
X442162Y420895D01*
X442104Y420857D01*
X442046Y420807D01*
X442037Y420799D01*
X442021Y420778D01*
X442000Y420749D01*
X441971Y420703D01*
X441946Y420645D01*
X441921Y420578D01*
X441904Y420499D01*
X441900Y420412D01*
Y420387D01*
X441904Y420370D01*
X441908Y420321D01*
X441921Y420262D01*
X441937Y420200D01*
X441967Y420129D01*
X442004Y420063D01*
X442054Y420000D01*
X442062Y419992D01*
X442083Y419975D01*
X442116Y419950D01*
X442166Y419925D01*
X442225Y419896D01*
X442299Y419871D01*
X442383Y419855D01*
X442478Y419846D01*
X442441Y419484D01*
X442437D01*
X442424Y419488D01*
X442403D01*
X442374Y419493D01*
X442341Y419501D01*
X442304Y419509D01*
X442258Y419522D01*
X442212Y419534D01*
X442112Y419567D01*
X442012Y419617D01*
X441962Y419647D01*
X441913Y419684D01*
X441867Y419721D01*
X441825Y419763D01*
X441821Y419767D01*
X441817Y419775D01*
X441804Y419788D01*
X441792Y419809D01*
X441775Y419834D01*
X441759Y419863D01*
X441738Y419896D01*
X441717Y419938D01*
X441696Y419983D01*
X441675Y420033D01*
X441659Y420087D01*
X441642Y420146D01*
X441630Y420208D01*
X441617Y420275D01*
X441613Y420345D01*
X441609Y420420D01*
Y420462D01*
X441613Y420491D01*
X441617Y420524D01*
X441621Y420566D01*
X441630Y420612D01*
X441638Y420657D01*
X441667Y420766D01*
X441709Y420874D01*
X441734Y420928D01*
X441763Y420982D01*
X441800Y421032D01*
X441842Y421078D01*
X441846Y421082D01*
X441850Y421090D01*
X441867Y421098D01*
X441883Y421115D01*
X441904Y421136D01*
X441933Y421157D01*
X441962Y421177D01*
X442000Y421202D01*
X442079Y421244D01*
X442179Y421286D01*
X442229Y421302D01*
X442287Y421311D01*
X442345Y421319D01*
X442408Y421323D01*
X442416D01*
X442437D01*
X442470Y421319D01*
X442516Y421315D01*
X442566Y421306D01*
X442624Y421290D01*
X442686Y421273D01*
X442749Y421248D01*
X442757Y421244D01*
X442778Y421236D01*
X442811Y421219D01*
X442857Y421194D01*
X442907Y421161D01*
X442969Y421119D01*
X443032Y421069D01*
X443102Y421011D01*
X443111Y421003D01*
X443135Y420982D01*
X443156Y420961D01*
X443177Y420940D01*
X443202Y420915D01*
X443235Y420882D01*
X443269Y420849D01*
X443306Y420807D01*
X443348Y420766D01*
X443393Y420716D01*
X443439Y420662D01*
X443493Y420603D01*
X443547Y420537D01*
X443606Y420470D01*
X443610Y420466D01*
X443618Y420458D01*
X443631Y420441D01*
X443647Y420420D01*
X443672Y420395D01*
X443697Y420366D01*
X443751Y420300D01*
X443814Y420229D01*
X443876Y420162D01*
X443930Y420104D01*
X443951Y420079D01*
X443972Y420058D01*
X443976Y420054D01*
X443988Y420042D01*
X444005Y420025D01*
X444030Y420004D01*
X444059Y419983D01*
X444088Y419959D01*
X444159Y419909D01*
Y421327D01*
X444500D01*
Y419418D01*
D02*
G37*
G36*
Y418207D02*
X442249D01*
X442254Y418203D01*
X442270Y418182D01*
X442295Y418157D01*
X442324Y418116D01*
X442362Y418070D01*
X442403Y418012D01*
X442449Y417945D01*
X442495Y417870D01*
Y417866D01*
X442499Y417862D01*
X442516Y417837D01*
X442536Y417795D01*
X442561Y417745D01*
X442591Y417687D01*
X442620Y417625D01*
X442649Y417562D01*
X442674Y417500D01*
X442333D01*
Y417504D01*
X442324Y417513D01*
X442320Y417529D01*
X442308Y417550D01*
X442295Y417575D01*
X442279Y417604D01*
X442237Y417675D01*
X442191Y417758D01*
X442133Y417841D01*
X442066Y417929D01*
X441996Y418016D01*
X441992Y418020D01*
X441987Y418024D01*
X441975Y418037D01*
X441962Y418053D01*
X441921Y418091D01*
X441871Y418141D01*
X441813Y418191D01*
X441746Y418245D01*
X441679Y418290D01*
X441609Y418332D01*
Y418561D01*
X444500D01*
Y418207D01*
D02*
G37*
G36*
X443081Y446007D02*
X443115D01*
X443194Y446003D01*
X443285Y445991D01*
X443381Y445978D01*
X443481Y445957D01*
X443581Y445932D01*
X443585D01*
X443593Y445928D01*
X443606Y445924D01*
X443622Y445920D01*
X443668Y445903D01*
X443726Y445878D01*
X443793Y445853D01*
X443859Y445820D01*
X443930Y445778D01*
X443997Y445737D01*
X444005Y445733D01*
X444026Y445716D01*
X444055Y445691D01*
X444092Y445658D01*
X444134Y445620D01*
X444175Y445575D01*
X444221Y445529D01*
X444259Y445475D01*
X444263Y445466D01*
X444275Y445450D01*
X444292Y445421D01*
X444313Y445379D01*
X444338Y445329D01*
X444359Y445271D01*
X444383Y445204D01*
X444404Y445129D01*
Y445121D01*
X444409Y445109D01*
X444413Y445096D01*
X444417Y445055D01*
X444425Y444996D01*
X444433Y444930D01*
X444442Y444851D01*
X444446Y444763D01*
X444450Y444668D01*
Y443632D01*
X441571D01*
Y444738D01*
X441575Y444813D01*
X441580Y444897D01*
X441588Y444980D01*
X441601Y445063D01*
X441613Y445134D01*
Y445138D01*
X441617Y445146D01*
Y445159D01*
X441625Y445175D01*
X441638Y445221D01*
X441659Y445279D01*
X441688Y445346D01*
X441725Y445416D01*
X441767Y445487D01*
X441821Y445554D01*
X441825Y445558D01*
X441829Y445562D01*
X441842Y445575D01*
X441854Y445591D01*
X441896Y445633D01*
X441954Y445683D01*
X442025Y445737D01*
X442108Y445795D01*
X442204Y445849D01*
X442312Y445895D01*
X442316D01*
X442324Y445899D01*
X442341Y445907D01*
X442366Y445912D01*
X442395Y445924D01*
X442428Y445932D01*
X442466Y445941D01*
X442512Y445953D01*
X442557Y445966D01*
X442611Y445974D01*
X442728Y445995D01*
X442857Y446007D01*
X442998Y446011D01*
X443002D01*
X443011D01*
X443032D01*
X443052D01*
X443081Y446007D01*
D02*
G37*
G36*
X444450Y442596D02*
X442191Y441090D01*
X444450D01*
Y440724D01*
X441571D01*
Y441115D01*
X443834Y442625D01*
X441571D01*
Y442991D01*
X444450D01*
Y442596D01*
D02*
G37*
G36*
X444055Y440162D02*
X444059Y440154D01*
X444071Y440137D01*
X444088Y440117D01*
X444105Y440092D01*
X444126Y440063D01*
X444151Y440025D01*
X444175Y439988D01*
X444230Y439900D01*
X444288Y439801D01*
X444342Y439697D01*
X444388Y439584D01*
Y439580D01*
X444392Y439572D01*
X444396Y439555D01*
X444404Y439534D01*
X444413Y439505D01*
X444425Y439472D01*
X444433Y439434D01*
X444442Y439397D01*
X444463Y439305D01*
X444483Y439201D01*
X444496Y439089D01*
X444500Y438973D01*
Y438931D01*
X444496Y438902D01*
Y438865D01*
X444492Y438819D01*
X444483Y438769D01*
X444479Y438715D01*
X444454Y438594D01*
X444425Y438465D01*
X444379Y438332D01*
X444354Y438265D01*
X444321Y438199D01*
X444317Y438195D01*
X444313Y438182D01*
X444300Y438166D01*
X444288Y438141D01*
X444267Y438111D01*
X444246Y438082D01*
X444188Y438003D01*
X444113Y437920D01*
X444022Y437833D01*
X443918Y437750D01*
X443797Y437675D01*
X443793D01*
X443780Y437666D01*
X443764Y437658D01*
X443735Y437646D01*
X443705Y437633D01*
X443664Y437621D01*
X443622Y437604D01*
X443572Y437587D01*
X443518Y437571D01*
X443456Y437554D01*
X443393Y437542D01*
X443327Y437529D01*
X443181Y437508D01*
X443027Y437500D01*
X443023D01*
X443007D01*
X442986D01*
X442957Y437504D01*
X442919D01*
X442873Y437508D01*
X442828Y437517D01*
X442774Y437521D01*
X442715Y437533D01*
X442653Y437542D01*
X442520Y437575D01*
X442383Y437616D01*
X442245Y437675D01*
X442241Y437679D01*
X442229Y437683D01*
X442212Y437691D01*
X442187Y437708D01*
X442154Y437725D01*
X442121Y437745D01*
X442041Y437804D01*
X441950Y437874D01*
X441863Y437962D01*
X441775Y438062D01*
X441738Y438120D01*
X441700Y438178D01*
X441696Y438182D01*
X441692Y438195D01*
X441684Y438211D01*
X441671Y438236D01*
X441659Y438270D01*
X441642Y438307D01*
X441625Y438349D01*
X441609Y438399D01*
X441592Y438453D01*
X441580Y438511D01*
X441563Y438573D01*
X441551Y438640D01*
X441530Y438785D01*
X441521Y438860D01*
Y438993D01*
X441526Y439018D01*
Y439052D01*
X441534Y439131D01*
X441546Y439218D01*
X441567Y439310D01*
X441592Y439409D01*
X441625Y439505D01*
Y439509D01*
X441630Y439518D01*
X441634Y439530D01*
X441642Y439547D01*
X441667Y439593D01*
X441696Y439651D01*
X441738Y439713D01*
X441788Y439780D01*
X441842Y439842D01*
X441908Y439900D01*
X441917Y439909D01*
X441942Y439925D01*
X441979Y439950D01*
X442033Y439984D01*
X442100Y440017D01*
X442183Y440054D01*
X442274Y440092D01*
X442378Y440121D01*
X442470Y439776D01*
X442466D01*
X442462Y439771D01*
X442449Y439767D01*
X442432Y439763D01*
X442395Y439751D01*
X442345Y439734D01*
X442287Y439709D01*
X442233Y439680D01*
X442175Y439651D01*
X442125Y439613D01*
X442121Y439609D01*
X442104Y439597D01*
X442083Y439572D01*
X442054Y439543D01*
X442021Y439505D01*
X441987Y439455D01*
X441954Y439401D01*
X441925Y439339D01*
X441921Y439330D01*
X441913Y439310D01*
X441900Y439272D01*
X441883Y439222D01*
X441871Y439164D01*
X441858Y439097D01*
X441850Y439023D01*
X441846Y438943D01*
Y438898D01*
X441850Y438877D01*
Y438852D01*
X441854Y438790D01*
X441867Y438719D01*
X441879Y438640D01*
X441900Y438565D01*
X441929Y438490D01*
X441933Y438482D01*
X441942Y438457D01*
X441962Y438423D01*
X441983Y438382D01*
X442017Y438332D01*
X442050Y438278D01*
X442091Y438228D01*
X442137Y438182D01*
X442141Y438178D01*
X442158Y438161D01*
X442187Y438141D01*
X442220Y438116D01*
X442262Y438087D01*
X442312Y438057D01*
X442366Y438028D01*
X442424Y437999D01*
X442428D01*
X442437Y437995D01*
X442449Y437991D01*
X442470Y437983D01*
X442495Y437974D01*
X442524Y437966D01*
X442557Y437953D01*
X442595Y437945D01*
X442682Y437924D01*
X442782Y437908D01*
X442886Y437895D01*
X443002Y437891D01*
X443007D01*
X443019D01*
X443040D01*
X443065Y437895D01*
X443098D01*
X443140Y437899D01*
X443181Y437903D01*
X443227Y437908D01*
X443331Y437924D01*
X443439Y437945D01*
X443547Y437978D01*
X443651Y438020D01*
X443655D01*
X443664Y438028D01*
X443676Y438032D01*
X443693Y438045D01*
X443739Y438074D01*
X443797Y438120D01*
X443859Y438174D01*
X443922Y438240D01*
X443980Y438319D01*
X444034Y438407D01*
Y438411D01*
X444038Y438419D01*
X444047Y438432D01*
X444055Y438453D01*
X444063Y438473D01*
X444071Y438503D01*
X444097Y438569D01*
X444117Y438652D01*
X444138Y438744D01*
X444155Y438844D01*
X444159Y438948D01*
Y438989D01*
X444155Y439014D01*
Y439039D01*
X444146Y439102D01*
X444138Y439177D01*
X444121Y439256D01*
X444097Y439343D01*
X444067Y439430D01*
Y439434D01*
X444063Y439443D01*
X444059Y439451D01*
X444051Y439468D01*
X444030Y439513D01*
X444005Y439563D01*
X443976Y439622D01*
X443943Y439684D01*
X443905Y439742D01*
X443863Y439792D01*
X443323D01*
Y438943D01*
X442982D01*
Y440167D01*
X444051D01*
X444055Y440162D01*
D02*
G37*
G36*
X323379Y401665D02*
X323375Y401631D01*
Y401594D01*
X323370Y401507D01*
X323358Y401415D01*
X323345Y401315D01*
X323325Y401224D01*
X323312Y401178D01*
X323300Y401140D01*
Y401136D01*
X323295Y401132D01*
X323283Y401107D01*
X323266Y401070D01*
X323237Y401024D01*
X323200Y400974D01*
X323150Y400920D01*
X323092Y400870D01*
X323025Y400820D01*
X323021D01*
X323017Y400816D01*
X322992Y400799D01*
X322950Y400783D01*
X322896Y400758D01*
X322834Y400737D01*
X322759Y400716D01*
X322680Y400704D01*
X322592Y400700D01*
X322588D01*
X322580D01*
X322563D01*
X322543Y400704D01*
X322513D01*
X322484Y400708D01*
X322414Y400725D01*
X322330Y400749D01*
X322243Y400783D01*
X322156Y400833D01*
X322114Y400866D01*
X322073Y400899D01*
X322068Y400903D01*
X322064Y400908D01*
X322052Y400920D01*
X322039Y400937D01*
X322023Y400957D01*
X322006Y400982D01*
X321985Y401016D01*
X321960Y401049D01*
X321939Y401091D01*
X321919Y401136D01*
X321894Y401186D01*
X321873Y401240D01*
X321856Y401303D01*
X321835Y401365D01*
X321823Y401436D01*
X321810Y401511D01*
X321806Y401502D01*
X321798Y401486D01*
X321781Y401461D01*
X321765Y401428D01*
X321719Y401353D01*
X321690Y401315D01*
X321665Y401282D01*
X321656Y401274D01*
X321636Y401253D01*
X321602Y401220D01*
X321561Y401178D01*
X321503Y401132D01*
X321440Y401078D01*
X321365Y401024D01*
X321282Y400966D01*
X320500Y400471D01*
Y400945D01*
X321099Y401324D01*
X321103D01*
X321111Y401332D01*
X321124Y401340D01*
X321141Y401353D01*
X321186Y401382D01*
X321245Y401419D01*
X321307Y401465D01*
X321374Y401511D01*
X321436Y401556D01*
X321494Y401598D01*
X321498Y401602D01*
X321515Y401615D01*
X321540Y401636D01*
X321569Y401665D01*
X321632Y401727D01*
X321661Y401760D01*
X321686Y401794D01*
X321690Y401798D01*
X321694Y401806D01*
X321702Y401823D01*
X321715Y401848D01*
X321727Y401873D01*
X321740Y401902D01*
X321761Y401968D01*
Y401972D01*
X321765Y401981D01*
Y401997D01*
X321769Y402018D01*
X321773Y402047D01*
Y402081D01*
X321777Y402126D01*
Y402617D01*
X320500D01*
Y403000D01*
X323379D01*
Y401665D01*
D02*
G37*
G36*
X321989Y399285D02*
X323379Y400267D01*
Y399813D01*
X322638Y399289D01*
X322634D01*
X322630Y399281D01*
X322617Y399273D01*
X322601Y399260D01*
X322559Y399235D01*
X322509Y399198D01*
X322451Y399160D01*
X322393Y399123D01*
X322339Y399090D01*
X322289Y399061D01*
X322297Y399056D01*
X322314Y399044D01*
X322347Y399023D01*
X322389Y398994D01*
X322434Y398961D01*
X322493Y398919D01*
X322551Y398877D01*
X322613Y398828D01*
X323379Y398253D01*
Y397837D01*
X322010Y398836D01*
X320500Y397758D01*
Y398229D01*
X321523Y398956D01*
X321528Y398961D01*
X321540Y398969D01*
X321557Y398977D01*
X321577Y398994D01*
X321636Y399031D01*
X321698Y399073D01*
X321694Y399077D01*
X321677Y399090D01*
X321652Y399106D01*
X321619Y399127D01*
X321552Y399173D01*
X321523Y399194D01*
X321498Y399210D01*
X320500Y399938D01*
Y400396D01*
X321989Y399285D01*
D02*
G37*
G36*
X323379Y409220D02*
X323038D01*
Y410169D01*
X320500D01*
Y410552D01*
X323038D01*
Y411500D01*
X323379D01*
Y409220D01*
D02*
G37*
G36*
X321989Y408010D02*
X323379Y408991D01*
Y408538D01*
X322638Y408014D01*
X322634D01*
X322630Y408006D01*
X322617Y407997D01*
X322601Y407985D01*
X322559Y407960D01*
X322509Y407922D01*
X322451Y407885D01*
X322393Y407847D01*
X322339Y407814D01*
X322289Y407785D01*
X322297Y407781D01*
X322314Y407768D01*
X322347Y407748D01*
X322389Y407719D01*
X322434Y407685D01*
X322493Y407644D01*
X322551Y407602D01*
X322613Y407552D01*
X323379Y406978D01*
Y406562D01*
X322010Y407560D01*
X320500Y406483D01*
Y406953D01*
X321523Y407681D01*
X321528Y407685D01*
X321540Y407694D01*
X321557Y407702D01*
X321577Y407719D01*
X321636Y407756D01*
X321698Y407798D01*
X321694Y407802D01*
X321677Y407814D01*
X321652Y407831D01*
X321619Y407852D01*
X321552Y407897D01*
X321523Y407918D01*
X321498Y407935D01*
X320500Y408663D01*
Y409121D01*
X321989Y408010D01*
D02*
G37*
G36*
X321332Y418630D02*
X321328D01*
X321320D01*
X321307Y418626D01*
X321286Y418621D01*
X321240Y418609D01*
X321178Y418592D01*
X321116Y418567D01*
X321045Y418534D01*
X320983Y418493D01*
X320924Y418443D01*
X320920Y418434D01*
X320903Y418418D01*
X320883Y418384D01*
X320858Y418339D01*
X320833Y418289D01*
X320812Y418226D01*
X320795Y418155D01*
X320791Y418077D01*
Y418051D01*
X320795Y418035D01*
X320799Y417985D01*
X320816Y417927D01*
X320837Y417856D01*
X320870Y417785D01*
X320920Y417710D01*
X320949Y417677D01*
X320983Y417644D01*
X320987Y417640D01*
X320991Y417635D01*
X321003Y417627D01*
X321016Y417615D01*
X321062Y417586D01*
X321120Y417552D01*
X321191Y417523D01*
X321278Y417494D01*
X321382Y417473D01*
X321436Y417465D01*
X321494D01*
X321498D01*
X321507D01*
X321523D01*
X321544Y417469D01*
X321569D01*
X321598Y417473D01*
X321665Y417486D01*
X321744Y417507D01*
X321823Y417536D01*
X321898Y417577D01*
X321969Y417635D01*
X321973D01*
X321977Y417644D01*
X321998Y417665D01*
X322027Y417702D01*
X322060Y417752D01*
X322089Y417819D01*
X322118Y417893D01*
X322139Y417981D01*
X322147Y418031D01*
Y418110D01*
X322143Y418143D01*
X322139Y418185D01*
X322127Y418235D01*
X322114Y418285D01*
X322093Y418339D01*
X322068Y418393D01*
X322064Y418397D01*
X322056Y418413D01*
X322035Y418438D01*
X322014Y418472D01*
X321985Y418505D01*
X321948Y418538D01*
X321910Y418576D01*
X321865Y418605D01*
X321910Y418938D01*
X323391Y418659D01*
Y417228D01*
X323054D01*
Y418380D01*
X322276Y418534D01*
X322281Y418530D01*
X322285Y418522D01*
X322293Y418509D01*
X322305Y418488D01*
X322318Y418463D01*
X322335Y418434D01*
X322368Y418368D01*
X322401Y418285D01*
X322430Y418193D01*
X322451Y418093D01*
X322459Y418043D01*
Y417952D01*
X322455Y417927D01*
X322451Y417893D01*
X322447Y417856D01*
X322439Y417814D01*
X322426Y417769D01*
X322397Y417669D01*
X322376Y417615D01*
X322347Y417561D01*
X322318Y417507D01*
X322285Y417452D01*
X322243Y417403D01*
X322197Y417353D01*
X322193Y417348D01*
X322185Y417340D01*
X322172Y417328D01*
X322151Y417311D01*
X322122Y417290D01*
X322093Y417269D01*
X322056Y417244D01*
X322014Y417219D01*
X321969Y417199D01*
X321919Y417174D01*
X321860Y417153D01*
X321802Y417132D01*
X321740Y417115D01*
X321669Y417103D01*
X321598Y417095D01*
X321523Y417091D01*
X321519D01*
X321507D01*
X321486D01*
X321457Y417095D01*
X321424Y417099D01*
X321386Y417103D01*
X321340Y417111D01*
X321295Y417120D01*
X321186Y417145D01*
X321074Y417186D01*
X321016Y417211D01*
X320962Y417244D01*
X320903Y417278D01*
X320849Y417319D01*
X320845Y417323D01*
X320833Y417332D01*
X320816Y417348D01*
X320795Y417369D01*
X320770Y417398D01*
X320737Y417432D01*
X320708Y417473D01*
X320675Y417519D01*
X320641Y417569D01*
X320612Y417627D01*
X320583Y417690D01*
X320554Y417756D01*
X320533Y417827D01*
X320517Y417906D01*
X320504Y417989D01*
X320500Y418077D01*
Y418114D01*
X320504Y418143D01*
X320508Y418176D01*
X320513Y418214D01*
X320517Y418259D01*
X320529Y418305D01*
X320554Y418409D01*
X320591Y418513D01*
X320617Y418567D01*
X320646Y418621D01*
X320679Y418671D01*
X320716Y418721D01*
X320721Y418725D01*
X320725Y418734D01*
X320741Y418742D01*
X320758Y418759D01*
X320779Y418780D01*
X320804Y418800D01*
X320837Y418825D01*
X320874Y418846D01*
X320912Y418871D01*
X320958Y418896D01*
X321057Y418942D01*
X321174Y418979D01*
X321236Y418992D01*
X321303Y419000D01*
X321332Y418630D01*
D02*
G37*
G36*
X323429Y416500D02*
X321336Y415751D01*
X321332D01*
X321324Y415747D01*
X321311Y415743D01*
X321295Y415734D01*
X321270Y415730D01*
X321245Y415722D01*
X321182Y415701D01*
X321111Y415676D01*
X321033Y415651D01*
X320866Y415601D01*
X320870D01*
X320879Y415597D01*
X320891Y415593D01*
X320908Y415589D01*
X320953Y415576D01*
X321016Y415555D01*
X321087Y415535D01*
X321166Y415510D01*
X321249Y415481D01*
X321336Y415447D01*
X323429Y414665D01*
Y414278D01*
X320550Y415402D01*
Y415801D01*
X323429Y416916D01*
Y416500D01*
D02*
G37*
G36*
X322043Y429996D02*
X322081D01*
X322127Y429992D01*
X322172Y429983D01*
X322226Y429979D01*
X322285Y429967D01*
X322347Y429958D01*
X322480Y429925D01*
X322617Y429883D01*
X322755Y429825D01*
X322759Y429821D01*
X322771Y429817D01*
X322788Y429809D01*
X322813Y429792D01*
X322846Y429775D01*
X322880Y429755D01*
X322959Y429696D01*
X323050Y429626D01*
X323137Y429538D01*
X323225Y429438D01*
X323262Y429380D01*
X323300Y429322D01*
X323304Y429318D01*
X323308Y429305D01*
X323316Y429289D01*
X323329Y429264D01*
X323341Y429230D01*
X323358Y429193D01*
X323375Y429151D01*
X323391Y429101D01*
X323408Y429047D01*
X323420Y428989D01*
X323437Y428927D01*
X323449Y428860D01*
X323470Y428715D01*
X323479Y428640D01*
Y428507D01*
X323474Y428482D01*
Y428448D01*
X323466Y428369D01*
X323454Y428282D01*
X323433Y428190D01*
X323408Y428091D01*
X323375Y427995D01*
Y427991D01*
X323370Y427982D01*
X323366Y427970D01*
X323358Y427953D01*
X323333Y427908D01*
X323304Y427849D01*
X323262Y427787D01*
X323212Y427720D01*
X323158Y427658D01*
X323092Y427600D01*
X323083Y427591D01*
X323058Y427575D01*
X323021Y427550D01*
X322967Y427517D01*
X322900Y427483D01*
X322817Y427446D01*
X322726Y427408D01*
X322622Y427379D01*
X322530Y427725D01*
X322534D01*
X322538Y427729D01*
X322551Y427733D01*
X322568Y427737D01*
X322605Y427749D01*
X322655Y427766D01*
X322713Y427791D01*
X322767Y427820D01*
X322825Y427849D01*
X322875Y427887D01*
X322880Y427891D01*
X322896Y427903D01*
X322917Y427928D01*
X322946Y427957D01*
X322979Y427995D01*
X323013Y428045D01*
X323046Y428099D01*
X323075Y428161D01*
X323079Y428170D01*
X323088Y428190D01*
X323100Y428228D01*
X323117Y428278D01*
X323129Y428336D01*
X323142Y428403D01*
X323150Y428477D01*
X323154Y428556D01*
Y428602D01*
X323150Y428623D01*
Y428648D01*
X323146Y428710D01*
X323133Y428781D01*
X323121Y428860D01*
X323100Y428935D01*
X323071Y429010D01*
X323067Y429018D01*
X323058Y429043D01*
X323038Y429076D01*
X323017Y429118D01*
X322984Y429168D01*
X322950Y429222D01*
X322909Y429272D01*
X322863Y429318D01*
X322859Y429322D01*
X322842Y429339D01*
X322813Y429359D01*
X322780Y429384D01*
X322738Y429413D01*
X322688Y429443D01*
X322634Y429472D01*
X322576Y429501D01*
X322572D01*
X322563Y429505D01*
X322551Y429509D01*
X322530Y429517D01*
X322505Y429526D01*
X322476Y429534D01*
X322443Y429547D01*
X322405Y429555D01*
X322318Y429576D01*
X322218Y429592D01*
X322114Y429605D01*
X321998Y429609D01*
X321993D01*
X321981D01*
X321960D01*
X321935Y429605D01*
X321902D01*
X321860Y429601D01*
X321819Y429597D01*
X321773Y429592D01*
X321669Y429576D01*
X321561Y429555D01*
X321453Y429522D01*
X321349Y429480D01*
X321344D01*
X321336Y429472D01*
X321324Y429467D01*
X321307Y429455D01*
X321261Y429426D01*
X321203Y429380D01*
X321141Y429326D01*
X321078Y429259D01*
X321020Y429180D01*
X320966Y429093D01*
Y429089D01*
X320962Y429081D01*
X320953Y429068D01*
X320945Y429047D01*
X320937Y429027D01*
X320929Y428997D01*
X320903Y428931D01*
X320883Y428848D01*
X320862Y428756D01*
X320845Y428656D01*
X320841Y428552D01*
Y428511D01*
X320845Y428486D01*
Y428461D01*
X320854Y428398D01*
X320862Y428324D01*
X320879Y428244D01*
X320903Y428157D01*
X320933Y428070D01*
Y428066D01*
X320937Y428057D01*
X320941Y428049D01*
X320949Y428032D01*
X320970Y427987D01*
X320995Y427937D01*
X321024Y427878D01*
X321057Y427816D01*
X321095Y427758D01*
X321136Y427708D01*
X321677D01*
Y428556D01*
X322018D01*
Y427333D01*
X320949D01*
X320945Y427338D01*
X320941Y427346D01*
X320929Y427363D01*
X320912Y427383D01*
X320895Y427408D01*
X320874Y427437D01*
X320849Y427475D01*
X320825Y427512D01*
X320770Y427600D01*
X320712Y427700D01*
X320658Y427804D01*
X320612Y427916D01*
Y427920D01*
X320608Y427928D01*
X320604Y427945D01*
X320596Y427966D01*
X320587Y427995D01*
X320575Y428028D01*
X320567Y428066D01*
X320558Y428103D01*
X320537Y428195D01*
X320517Y428299D01*
X320504Y428411D01*
X320500Y428527D01*
Y428569D01*
X320504Y428598D01*
Y428636D01*
X320508Y428681D01*
X320517Y428731D01*
X320521Y428785D01*
X320546Y428906D01*
X320575Y429035D01*
X320621Y429168D01*
X320646Y429235D01*
X320679Y429301D01*
X320683Y429305D01*
X320687Y429318D01*
X320700Y429334D01*
X320712Y429359D01*
X320733Y429389D01*
X320754Y429418D01*
X320812Y429497D01*
X320887Y429580D01*
X320978Y429667D01*
X321082Y429750D01*
X321203Y429825D01*
X321207D01*
X321220Y429834D01*
X321236Y429842D01*
X321265Y429854D01*
X321295Y429867D01*
X321336Y429879D01*
X321378Y429896D01*
X321428Y429913D01*
X321482Y429929D01*
X321544Y429946D01*
X321607Y429958D01*
X321673Y429971D01*
X321819Y429992D01*
X321973Y430000D01*
X321977D01*
X321993D01*
X322014D01*
X322043Y429996D01*
D02*
G37*
G36*
X323429Y426385D02*
X321166Y424875D01*
X323429D01*
Y424509D01*
X320550D01*
Y424904D01*
X322809Y426410D01*
X320550D01*
Y426776D01*
X323429D01*
Y426385D01*
D02*
G37*
G36*
Y422762D02*
X323425Y422687D01*
X323420Y422604D01*
X323412Y422520D01*
X323399Y422437D01*
X323387Y422366D01*
Y422362D01*
X323383Y422354D01*
Y422341D01*
X323375Y422325D01*
X323362Y422279D01*
X323341Y422221D01*
X323312Y422154D01*
X323275Y422084D01*
X323233Y422013D01*
X323179Y421946D01*
X323175Y421942D01*
X323171Y421938D01*
X323158Y421925D01*
X323146Y421909D01*
X323104Y421867D01*
X323046Y421817D01*
X322975Y421763D01*
X322892Y421705D01*
X322796Y421651D01*
X322688Y421605D01*
X322684D01*
X322676Y421601D01*
X322659Y421593D01*
X322634Y421589D01*
X322605Y421576D01*
X322572Y421568D01*
X322534Y421559D01*
X322488Y421547D01*
X322443Y421534D01*
X322389Y421526D01*
X322272Y421505D01*
X322143Y421493D01*
X322002Y421489D01*
X321998D01*
X321989D01*
X321969D01*
X321948D01*
X321919Y421493D01*
X321885D01*
X321806Y421497D01*
X321715Y421509D01*
X321619Y421522D01*
X321519Y421543D01*
X321419Y421568D01*
X321415D01*
X321407Y421572D01*
X321394Y421576D01*
X321378Y421580D01*
X321332Y421597D01*
X321274Y421622D01*
X321207Y421647D01*
X321141Y421680D01*
X321070Y421722D01*
X321003Y421763D01*
X320995Y421767D01*
X320974Y421784D01*
X320945Y421809D01*
X320908Y421842D01*
X320866Y421880D01*
X320825Y421925D01*
X320779Y421971D01*
X320741Y422025D01*
X320737Y422034D01*
X320725Y422050D01*
X320708Y422079D01*
X320687Y422121D01*
X320662Y422171D01*
X320641Y422229D01*
X320617Y422296D01*
X320596Y422371D01*
Y422379D01*
X320591Y422391D01*
X320587Y422404D01*
X320583Y422445D01*
X320575Y422504D01*
X320567Y422570D01*
X320558Y422649D01*
X320554Y422737D01*
X320550Y422832D01*
Y423868D01*
X323429D01*
Y422762D01*
D02*
G37*
G36*
X345442Y434725D02*
Y434720D01*
Y434697D01*
Y434670D01*
Y434631D01*
X345436Y434581D01*
Y434525D01*
X345431Y434459D01*
X345425Y434392D01*
X345408Y434242D01*
X345386Y434087D01*
X345353Y433937D01*
X345331Y433865D01*
X345308Y433798D01*
Y433793D01*
X345303Y433782D01*
X345292Y433765D01*
X345281Y433743D01*
X345248Y433682D01*
X345198Y433604D01*
X345131Y433515D01*
X345053Y433427D01*
X344953Y433332D01*
X344831Y433249D01*
X344826D01*
X344815Y433238D01*
X344798Y433232D01*
X344770Y433216D01*
X344737Y433199D01*
X344692Y433182D01*
X344648Y433166D01*
X344593Y433144D01*
X344531Y433121D01*
X344465Y433105D01*
X344393Y433088D01*
X344309Y433071D01*
X344226Y433060D01*
X344138Y433049D01*
X343938Y433038D01*
X343888D01*
X343849Y433044D01*
X343805D01*
X343749Y433049D01*
X343688Y433055D01*
X343627Y433060D01*
X343488Y433082D01*
X343338Y433116D01*
X343194Y433160D01*
X343055Y433221D01*
X343050D01*
X343039Y433232D01*
X343022Y433243D01*
X343000Y433254D01*
X342939Y433299D01*
X342866Y433360D01*
X342783Y433438D01*
X342706Y433527D01*
X342628Y433638D01*
X342567Y433760D01*
Y433765D01*
X342561Y433776D01*
X342556Y433798D01*
X342545Y433826D01*
X342533Y433859D01*
X342522Y433904D01*
X342506Y433954D01*
X342495Y434015D01*
X342484Y434082D01*
X342467Y434154D01*
X342456Y434231D01*
X342445Y434315D01*
X342434Y434409D01*
X342428Y434509D01*
X342423Y434614D01*
Y434725D01*
Y436945D01*
X342933D01*
Y434725D01*
Y434720D01*
Y434703D01*
Y434675D01*
Y434642D01*
X342939Y434603D01*
Y434553D01*
X342944Y434448D01*
X342955Y434326D01*
X342972Y434204D01*
X342994Y434087D01*
X343005Y434037D01*
X343022Y433987D01*
X343027Y433976D01*
X343039Y433948D01*
X343066Y433909D01*
X343100Y433854D01*
X343139Y433798D01*
X343194Y433737D01*
X343261Y433676D01*
X343338Y433626D01*
X343349Y433621D01*
X343377Y433604D01*
X343427Y433588D01*
X343494Y433565D01*
X343571Y433538D01*
X343671Y433521D01*
X343777Y433504D01*
X343893Y433499D01*
X343949D01*
X343982Y433504D01*
X344032D01*
X344082Y433510D01*
X344204Y433532D01*
X344337Y433560D01*
X344465Y433604D01*
X344587Y433665D01*
X344642Y433704D01*
X344692Y433748D01*
X344698Y433754D01*
X344704Y433760D01*
X344715Y433776D01*
X344731Y433798D01*
X344748Y433832D01*
X344770Y433865D01*
X344792Y433915D01*
X344815Y433965D01*
X344837Y434026D01*
X344853Y434098D01*
X344876Y434181D01*
X344892Y434270D01*
X344909Y434370D01*
X344920Y434476D01*
X344931Y434598D01*
Y434725D01*
Y436945D01*
X345442D01*
Y434725D01*
D02*
G37*
G36*
X347462Y436956D02*
X347506Y436951D01*
X347562Y436945D01*
X347623Y436934D01*
X347684Y436923D01*
X347828Y436884D01*
X347972Y436829D01*
X348045Y436795D01*
X348117Y436757D01*
X348183Y436707D01*
X348245Y436651D01*
X348250Y436646D01*
X348261Y436640D01*
X348272Y436618D01*
X348294Y436596D01*
X348322Y436568D01*
X348350Y436529D01*
X348378Y436490D01*
X348411Y436440D01*
X348466Y436335D01*
X348522Y436202D01*
X348544Y436135D01*
X348555Y436057D01*
X348566Y435980D01*
X348572Y435896D01*
Y435885D01*
Y435857D01*
X348566Y435813D01*
X348561Y435752D01*
X348550Y435685D01*
X348528Y435608D01*
X348505Y435525D01*
X348472Y435441D01*
X348466Y435430D01*
X348455Y435402D01*
X348433Y435358D01*
X348400Y435297D01*
X348356Y435230D01*
X348300Y435147D01*
X348233Y435064D01*
X348156Y434970D01*
X348145Y434958D01*
X348117Y434925D01*
X348089Y434897D01*
X348061Y434870D01*
X348028Y434836D01*
X347984Y434792D01*
X347939Y434748D01*
X347884Y434697D01*
X347828Y434642D01*
X347762Y434581D01*
X347690Y434520D01*
X347612Y434448D01*
X347523Y434376D01*
X347434Y434298D01*
X347429Y434292D01*
X347417Y434281D01*
X347395Y434265D01*
X347368Y434242D01*
X347334Y434209D01*
X347295Y434176D01*
X347207Y434104D01*
X347112Y434020D01*
X347024Y433937D01*
X346946Y433865D01*
X346913Y433837D01*
X346885Y433810D01*
X346879Y433804D01*
X346863Y433787D01*
X346840Y433765D01*
X346813Y433732D01*
X346785Y433693D01*
X346751Y433654D01*
X346685Y433560D01*
X348577D01*
Y433105D01*
X346030D01*
Y433110D01*
Y433132D01*
Y433166D01*
X346036Y433210D01*
X346041Y433260D01*
X346052Y433316D01*
X346063Y433371D01*
X346086Y433432D01*
Y433438D01*
X346091Y433443D01*
X346102Y433476D01*
X346124Y433527D01*
X346158Y433593D01*
X346202Y433671D01*
X346258Y433760D01*
X346319Y433848D01*
X346396Y433943D01*
Y433948D01*
X346407Y433954D01*
X346435Y433987D01*
X346485Y434037D01*
X346557Y434109D01*
X346640Y434193D01*
X346746Y434292D01*
X346874Y434403D01*
X347012Y434520D01*
X347018Y434525D01*
X347040Y434542D01*
X347073Y434570D01*
X347112Y434603D01*
X347162Y434648D01*
X347223Y434697D01*
X347284Y434753D01*
X347357Y434814D01*
X347495Y434947D01*
X347634Y435080D01*
X347701Y435147D01*
X347762Y435214D01*
X347817Y435275D01*
X347862Y435336D01*
Y435341D01*
X347873Y435347D01*
X347884Y435363D01*
X347895Y435386D01*
X347934Y435447D01*
X347978Y435519D01*
X348017Y435608D01*
X348056Y435702D01*
X348078Y435808D01*
X348089Y435907D01*
Y435913D01*
Y435919D01*
X348083Y435952D01*
X348078Y436007D01*
X348061Y436068D01*
X348039Y436146D01*
X348000Y436224D01*
X347950Y436302D01*
X347884Y436379D01*
X347873Y436390D01*
X347845Y436412D01*
X347806Y436440D01*
X347745Y436479D01*
X347667Y436512D01*
X347579Y436546D01*
X347473Y436568D01*
X347357Y436573D01*
X347323D01*
X347301Y436568D01*
X347234Y436562D01*
X347157Y436546D01*
X347073Y436523D01*
X346979Y436485D01*
X346890Y436435D01*
X346807Y436368D01*
X346796Y436357D01*
X346774Y436329D01*
X346740Y436285D01*
X346707Y436218D01*
X346668Y436140D01*
X346635Y436041D01*
X346613Y435930D01*
X346602Y435802D01*
X346119Y435852D01*
Y435857D01*
X346124Y435874D01*
Y435902D01*
X346130Y435941D01*
X346141Y435985D01*
X346152Y436035D01*
X346169Y436096D01*
X346185Y436157D01*
X346230Y436290D01*
X346296Y436424D01*
X346335Y436490D01*
X346385Y436557D01*
X346435Y436618D01*
X346491Y436673D01*
X346496Y436679D01*
X346507Y436684D01*
X346524Y436701D01*
X346552Y436718D01*
X346585Y436740D01*
X346624Y436762D01*
X346668Y436790D01*
X346724Y436818D01*
X346785Y436845D01*
X346851Y436873D01*
X346924Y436895D01*
X347001Y436917D01*
X347084Y436934D01*
X347173Y436951D01*
X347268Y436956D01*
X347368Y436962D01*
X347423D01*
X347462Y436956D01*
D02*
G37*
G36*
X403794Y395725D02*
Y395720D01*
Y395697D01*
Y395670D01*
Y395631D01*
X403789Y395581D01*
Y395526D01*
X403783Y395459D01*
X403778Y395392D01*
X403761Y395242D01*
X403739Y395087D01*
X403705Y394937D01*
X403683Y394865D01*
X403661Y394798D01*
Y394793D01*
X403655Y394782D01*
X403644Y394765D01*
X403633Y394743D01*
X403600Y394682D01*
X403550Y394604D01*
X403483Y394515D01*
X403406Y394427D01*
X403306Y394332D01*
X403184Y394249D01*
X403178D01*
X403167Y394238D01*
X403150Y394232D01*
X403123Y394216D01*
X403089Y394199D01*
X403045Y394182D01*
X403000Y394166D01*
X402945Y394144D01*
X402884Y394121D01*
X402817Y394105D01*
X402745Y394088D01*
X402662Y394071D01*
X402579Y394060D01*
X402490Y394049D01*
X402290Y394038D01*
X402240D01*
X402201Y394044D01*
X402157D01*
X402101Y394049D01*
X402040Y394055D01*
X401979Y394060D01*
X401840Y394082D01*
X401691Y394116D01*
X401546Y394160D01*
X401408Y394221D01*
X401402D01*
X401391Y394232D01*
X401374Y394243D01*
X401352Y394254D01*
X401291Y394299D01*
X401219Y394360D01*
X401136Y394438D01*
X401058Y394527D01*
X400980Y394637D01*
X400919Y394760D01*
Y394765D01*
X400914Y394776D01*
X400908Y394798D01*
X400897Y394826D01*
X400886Y394860D01*
X400875Y394904D01*
X400858Y394954D01*
X400847Y395015D01*
X400836Y395081D01*
X400819Y395154D01*
X400808Y395231D01*
X400797Y395315D01*
X400786Y395409D01*
X400780Y395509D01*
X400775Y395614D01*
Y395725D01*
Y397945D01*
X401286D01*
Y395725D01*
Y395720D01*
Y395703D01*
Y395675D01*
Y395642D01*
X401291Y395603D01*
Y395553D01*
X401297Y395448D01*
X401308Y395326D01*
X401324Y395204D01*
X401347Y395087D01*
X401358Y395037D01*
X401374Y394987D01*
X401380Y394976D01*
X401391Y394948D01*
X401419Y394909D01*
X401452Y394854D01*
X401491Y394798D01*
X401546Y394737D01*
X401613Y394676D01*
X401691Y394626D01*
X401702Y394621D01*
X401730Y394604D01*
X401780Y394587D01*
X401846Y394565D01*
X401924Y394538D01*
X402024Y394521D01*
X402129Y394504D01*
X402246Y394499D01*
X402301D01*
X402334Y394504D01*
X402385D01*
X402434Y394510D01*
X402557Y394532D01*
X402690Y394560D01*
X402817Y394604D01*
X402939Y394665D01*
X402995Y394704D01*
X403045Y394748D01*
X403051Y394754D01*
X403056Y394760D01*
X403067Y394776D01*
X403084Y394798D01*
X403100Y394832D01*
X403123Y394865D01*
X403145Y394915D01*
X403167Y394965D01*
X403189Y395026D01*
X403206Y395098D01*
X403228Y395181D01*
X403245Y395270D01*
X403261Y395370D01*
X403272Y395476D01*
X403284Y395598D01*
Y395725D01*
Y397945D01*
X403794D01*
Y395725D01*
D02*
G37*
G36*
X406225Y394105D02*
X405753D01*
Y397107D01*
X405748Y397102D01*
X405720Y397079D01*
X405687Y397046D01*
X405631Y397007D01*
X405570Y396957D01*
X405492Y396902D01*
X405404Y396841D01*
X405304Y396780D01*
X405298D01*
X405293Y396774D01*
X405259Y396752D01*
X405204Y396724D01*
X405137Y396691D01*
X405059Y396652D01*
X404976Y396613D01*
X404893Y396574D01*
X404810Y396541D01*
Y396996D01*
X404815D01*
X404826Y397007D01*
X404849Y397013D01*
X404876Y397029D01*
X404910Y397046D01*
X404949Y397068D01*
X405043Y397124D01*
X405154Y397185D01*
X405265Y397263D01*
X405381Y397351D01*
X405498Y397446D01*
X405504Y397451D01*
X405509Y397457D01*
X405526Y397474D01*
X405548Y397490D01*
X405598Y397546D01*
X405664Y397612D01*
X405731Y397690D01*
X405803Y397779D01*
X405864Y397868D01*
X405920Y397962D01*
X406225D01*
Y394105D01*
D02*
G37*
G36*
X382145Y384352D02*
X382173D01*
X382212Y384346D01*
X382306Y384330D01*
X382412Y384307D01*
X382528Y384268D01*
X382645Y384219D01*
X382761Y384152D01*
X382767D01*
X382772Y384141D01*
X382789Y384130D01*
X382811Y384113D01*
X382867Y384069D01*
X382939Y384008D01*
X383011Y383924D01*
X383094Y383824D01*
X383166Y383708D01*
X383233Y383575D01*
Y383569D01*
X383238Y383558D01*
X383249Y383536D01*
X383261Y383508D01*
X383272Y383469D01*
X383288Y383419D01*
X383299Y383364D01*
X383316Y383303D01*
X383333Y383231D01*
X383349Y383147D01*
X383361Y383059D01*
X383372Y382964D01*
X383383Y382859D01*
X383394Y382748D01*
X383399Y382626D01*
Y382498D01*
Y382492D01*
Y382465D01*
Y382426D01*
Y382376D01*
X383394Y382315D01*
Y382243D01*
X383388Y382159D01*
X383377Y382076D01*
X383361Y381888D01*
X383333Y381688D01*
X383294Y381499D01*
X383266Y381405D01*
X383238Y381321D01*
Y381316D01*
X383233Y381305D01*
X383222Y381282D01*
X383211Y381249D01*
X383194Y381216D01*
X383172Y381171D01*
X383116Y381077D01*
X383050Y380972D01*
X382972Y380861D01*
X382872Y380755D01*
X382761Y380661D01*
X382755D01*
X382745Y380650D01*
X382728Y380639D01*
X382706Y380628D01*
X382672Y380611D01*
X382639Y380589D01*
X382595Y380567D01*
X382550Y380550D01*
X382445Y380505D01*
X382317Y380467D01*
X382178Y380445D01*
X382023Y380433D01*
X381979D01*
X381951Y380439D01*
X381912D01*
X381868Y380445D01*
X381762Y380467D01*
X381646Y380494D01*
X381523Y380539D01*
X381401Y380600D01*
X381340Y380639D01*
X381285Y380683D01*
X381279Y380689D01*
X381274Y380694D01*
X381257Y380711D01*
X381240Y380728D01*
X381218Y380755D01*
X381190Y380789D01*
X381135Y380866D01*
X381079Y380966D01*
X381024Y381088D01*
X380980Y381227D01*
X380946Y381388D01*
X381401Y381427D01*
Y381421D01*
X381407Y381410D01*
Y381399D01*
X381412Y381377D01*
X381429Y381316D01*
X381451Y381249D01*
X381479Y381171D01*
X381518Y381094D01*
X381562Y381022D01*
X381618Y380961D01*
X381623Y380955D01*
X381646Y380939D01*
X381684Y380916D01*
X381729Y380894D01*
X381790Y380866D01*
X381862Y380844D01*
X381945Y380827D01*
X382034Y380822D01*
X382073D01*
X382112Y380827D01*
X382162Y380833D01*
X382223Y380844D01*
X382284Y380861D01*
X382350Y380883D01*
X382412Y380916D01*
X382417Y380922D01*
X382439Y380933D01*
X382472Y380955D01*
X382506Y380988D01*
X382550Y381027D01*
X382595Y381072D01*
X382639Y381122D01*
X382683Y381183D01*
X382689Y381188D01*
X382700Y381216D01*
X382722Y381255D01*
X382745Y381305D01*
X382772Y381371D01*
X382800Y381449D01*
X382828Y381538D01*
X382856Y381638D01*
Y381643D01*
X382861Y381649D01*
Y381665D01*
X382867Y381688D01*
X382878Y381743D01*
X382894Y381815D01*
X382905Y381904D01*
X382916Y381998D01*
X382922Y382104D01*
X382928Y382215D01*
Y382221D01*
Y382237D01*
Y382265D01*
Y382309D01*
X382922Y382298D01*
X382900Y382270D01*
X382867Y382232D01*
X382828Y382176D01*
X382772Y382121D01*
X382706Y382060D01*
X382628Y381998D01*
X382539Y381943D01*
X382528Y381937D01*
X382495Y381921D01*
X382445Y381899D01*
X382384Y381876D01*
X382300Y381849D01*
X382212Y381826D01*
X382112Y381810D01*
X382006Y381804D01*
X381962D01*
X381929Y381810D01*
X381884Y381815D01*
X381840Y381821D01*
X381784Y381832D01*
X381729Y381849D01*
X381601Y381888D01*
X381535Y381915D01*
X381468Y381948D01*
X381396Y381987D01*
X381329Y382037D01*
X381263Y382087D01*
X381202Y382148D01*
X381196Y382154D01*
X381185Y382165D01*
X381174Y382182D01*
X381152Y382209D01*
X381124Y382248D01*
X381096Y382287D01*
X381068Y382337D01*
X381041Y382393D01*
X381007Y382454D01*
X380980Y382520D01*
X380952Y382598D01*
X380924Y382676D01*
X380902Y382764D01*
X380891Y382859D01*
X380880Y382953D01*
X380874Y383059D01*
Y383064D01*
Y383086D01*
Y383114D01*
X380880Y383153D01*
X380885Y383203D01*
X380891Y383264D01*
X380902Y383325D01*
X380919Y383397D01*
X380957Y383541D01*
X380985Y383619D01*
X381018Y383702D01*
X381057Y383780D01*
X381107Y383852D01*
X381157Y383930D01*
X381218Y383997D01*
X381224Y384002D01*
X381235Y384013D01*
X381252Y384030D01*
X381279Y384052D01*
X381313Y384080D01*
X381357Y384113D01*
X381401Y384141D01*
X381457Y384180D01*
X381512Y384213D01*
X381579Y384241D01*
X381729Y384302D01*
X381806Y384324D01*
X381895Y384341D01*
X381984Y384352D01*
X382079Y384357D01*
X382117D01*
X382145Y384352D01*
D02*
G37*
G36*
X379026Y384335D02*
X379076D01*
X379192Y384330D01*
X379315Y384313D01*
X379448Y384296D01*
X379570Y384268D01*
X379631Y384252D01*
X379681Y384235D01*
X379686D01*
X379692Y384230D01*
X379725Y384213D01*
X379775Y384191D01*
X379836Y384152D01*
X379903Y384102D01*
X379975Y384035D01*
X380042Y383958D01*
X380108Y383869D01*
Y383863D01*
X380114Y383858D01*
X380136Y383824D01*
X380158Y383769D01*
X380191Y383697D01*
X380219Y383613D01*
X380247Y383514D01*
X380264Y383408D01*
X380269Y383292D01*
Y383286D01*
Y383275D01*
Y383253D01*
X380264Y383225D01*
Y383186D01*
X380258Y383147D01*
X380236Y383053D01*
X380203Y382942D01*
X380158Y382825D01*
X380092Y382709D01*
X380047Y382653D01*
X380003Y382598D01*
X379997Y382592D01*
X379992Y382587D01*
X379975Y382570D01*
X379953Y382554D01*
X379925Y382531D01*
X379892Y382509D01*
X379847Y382481D01*
X379803Y382448D01*
X379747Y382420D01*
X379686Y382393D01*
X379620Y382359D01*
X379548Y382331D01*
X379464Y382309D01*
X379381Y382282D01*
X379287Y382265D01*
X379187Y382248D01*
X379198Y382243D01*
X379220Y382232D01*
X379254Y382209D01*
X379298Y382187D01*
X379398Y382126D01*
X379448Y382087D01*
X379492Y382054D01*
X379503Y382043D01*
X379531Y382015D01*
X379575Y381971D01*
X379631Y381915D01*
X379692Y381838D01*
X379764Y381754D01*
X379836Y381654D01*
X379914Y381543D01*
X380574Y380500D01*
X379942D01*
X379437Y381299D01*
Y381305D01*
X379426Y381316D01*
X379414Y381332D01*
X379398Y381355D01*
X379359Y381416D01*
X379309Y381493D01*
X379248Y381577D01*
X379187Y381665D01*
X379126Y381749D01*
X379070Y381826D01*
X379065Y381832D01*
X379048Y381854D01*
X379020Y381888D01*
X378982Y381926D01*
X378898Y382010D01*
X378854Y382049D01*
X378809Y382082D01*
X378804Y382087D01*
X378793Y382093D01*
X378771Y382104D01*
X378737Y382121D01*
X378704Y382137D01*
X378665Y382154D01*
X378576Y382182D01*
X378571D01*
X378560Y382187D01*
X378538D01*
X378510Y382193D01*
X378471Y382198D01*
X378427D01*
X378365Y382204D01*
X377711D01*
Y380500D01*
X377200D01*
Y384341D01*
X378982D01*
X379026Y384335D01*
D02*
G37*
G36*
X364326D02*
X364376D01*
X364493Y384330D01*
X364615Y384313D01*
X364748Y384296D01*
X364870Y384268D01*
X364931Y384252D01*
X364981Y384235D01*
X364986D01*
X364992Y384230D01*
X365025Y384213D01*
X365075Y384191D01*
X365136Y384152D01*
X365203Y384102D01*
X365275Y384035D01*
X365342Y383958D01*
X365408Y383869D01*
Y383863D01*
X365414Y383858D01*
X365436Y383824D01*
X365458Y383769D01*
X365491Y383697D01*
X365519Y383613D01*
X365547Y383514D01*
X365564Y383408D01*
X365569Y383292D01*
Y383286D01*
Y383275D01*
Y383253D01*
X365564Y383225D01*
Y383186D01*
X365558Y383147D01*
X365536Y383053D01*
X365503Y382942D01*
X365458Y382825D01*
X365392Y382709D01*
X365347Y382653D01*
X365303Y382598D01*
X365297Y382592D01*
X365292Y382587D01*
X365275Y382570D01*
X365253Y382554D01*
X365225Y382531D01*
X365192Y382509D01*
X365147Y382481D01*
X365103Y382448D01*
X365047Y382420D01*
X364986Y382393D01*
X364920Y382359D01*
X364848Y382331D01*
X364764Y382309D01*
X364681Y382282D01*
X364587Y382265D01*
X364487Y382248D01*
X364498Y382243D01*
X364520Y382232D01*
X364553Y382209D01*
X364598Y382187D01*
X364698Y382126D01*
X364748Y382087D01*
X364792Y382054D01*
X364803Y382043D01*
X364831Y382015D01*
X364875Y381971D01*
X364931Y381915D01*
X364992Y381838D01*
X365064Y381754D01*
X365136Y381654D01*
X365214Y381543D01*
X365874Y380500D01*
X365242D01*
X364737Y381299D01*
Y381305D01*
X364726Y381316D01*
X364714Y381332D01*
X364698Y381355D01*
X364659Y381416D01*
X364609Y381493D01*
X364548Y381577D01*
X364487Y381665D01*
X364426Y381749D01*
X364370Y381826D01*
X364365Y381832D01*
X364348Y381854D01*
X364320Y381888D01*
X364282Y381926D01*
X364198Y382010D01*
X364154Y382049D01*
X364109Y382082D01*
X364104Y382087D01*
X364093Y382093D01*
X364071Y382104D01*
X364037Y382121D01*
X364004Y382137D01*
X363965Y382154D01*
X363876Y382182D01*
X363871D01*
X363860Y382187D01*
X363838D01*
X363810Y382193D01*
X363771Y382198D01*
X363726D01*
X363666Y382204D01*
X363011D01*
Y380500D01*
X362500D01*
Y384341D01*
X364282D01*
X364326Y384335D01*
D02*
G37*
G36*
X367506Y384352D02*
X367550Y384346D01*
X367600Y384341D01*
X367656Y384335D01*
X367711Y384318D01*
X367845Y384285D01*
X367978Y384235D01*
X368044Y384202D01*
X368111Y384163D01*
X368172Y384113D01*
X368233Y384063D01*
X368239Y384057D01*
X368244Y384052D01*
X368261Y384035D01*
X368283Y384013D01*
X368305Y383980D01*
X368333Y383946D01*
X368389Y383863D01*
X368444Y383758D01*
X368494Y383636D01*
X368533Y383497D01*
X368538Y383425D01*
X368544Y383347D01*
Y383342D01*
Y383336D01*
Y383303D01*
X368538Y383253D01*
X368527Y383192D01*
X368511Y383114D01*
X368483Y383036D01*
X368450Y382959D01*
X368400Y382881D01*
X368394Y382870D01*
X368372Y382848D01*
X368339Y382814D01*
X368294Y382770D01*
X368233Y382720D01*
X368161Y382670D01*
X368078Y382620D01*
X367978Y382576D01*
X367983D01*
X367994Y382570D01*
X368011Y382565D01*
X368033Y382554D01*
X368100Y382526D01*
X368178Y382487D01*
X368261Y382431D01*
X368350Y382370D01*
X368433Y382293D01*
X368511Y382204D01*
Y382198D01*
X368516Y382193D01*
X368538Y382159D01*
X368572Y382104D01*
X368605Y382032D01*
X368638Y381943D01*
X368672Y381838D01*
X368694Y381721D01*
X368699Y381593D01*
Y381588D01*
Y381571D01*
Y381543D01*
X368694Y381510D01*
X368688Y381471D01*
X368683Y381421D01*
X368672Y381366D01*
X368655Y381305D01*
X368616Y381177D01*
X368588Y381105D01*
X368549Y381038D01*
X368511Y380966D01*
X368466Y380900D01*
X368411Y380833D01*
X368350Y380766D01*
X368344Y380761D01*
X368333Y380750D01*
X368316Y380733D01*
X368289Y380716D01*
X368250Y380689D01*
X368211Y380661D01*
X368161Y380633D01*
X368106Y380600D01*
X368044Y380567D01*
X367972Y380539D01*
X367895Y380511D01*
X367817Y380483D01*
X367728Y380467D01*
X367634Y380450D01*
X367539Y380439D01*
X367434Y380433D01*
X367378D01*
X367340Y380439D01*
X367290Y380445D01*
X367234Y380450D01*
X367173Y380461D01*
X367107Y380478D01*
X366957Y380517D01*
X366879Y380544D01*
X366807Y380572D01*
X366729Y380611D01*
X366651Y380655D01*
X366579Y380705D01*
X366513Y380766D01*
X366507Y380772D01*
X366496Y380783D01*
X366479Y380800D01*
X366457Y380827D01*
X366435Y380861D01*
X366402Y380900D01*
X366374Y380944D01*
X366341Y380999D01*
X366307Y381055D01*
X366280Y381122D01*
X366224Y381260D01*
X366202Y381344D01*
X366185Y381427D01*
X366174Y381516D01*
X366169Y381604D01*
Y381610D01*
Y381621D01*
Y381643D01*
X366174Y381665D01*
Y381699D01*
X366180Y381738D01*
X366191Y381826D01*
X366213Y381926D01*
X366246Y382026D01*
X366296Y382132D01*
X366357Y382232D01*
Y382237D01*
X366368Y382243D01*
X366390Y382270D01*
X366435Y382315D01*
X366496Y382370D01*
X366574Y382426D01*
X366668Y382487D01*
X366774Y382537D01*
X366901Y382576D01*
X366896D01*
X366890Y382581D01*
X366873Y382587D01*
X366851Y382598D01*
X366801Y382620D01*
X366735Y382653D01*
X366663Y382698D01*
X366590Y382753D01*
X366524Y382814D01*
X366463Y382881D01*
X366457Y382892D01*
X366441Y382914D01*
X366418Y382959D01*
X366396Y383014D01*
X366368Y383086D01*
X366346Y383170D01*
X366330Y383264D01*
X366324Y383364D01*
Y383369D01*
Y383381D01*
Y383403D01*
X366330Y383436D01*
X366335Y383469D01*
X366341Y383514D01*
X366363Y383608D01*
X366396Y383719D01*
X366452Y383836D01*
X366485Y383897D01*
X366524Y383958D01*
X366574Y384013D01*
X366624Y384069D01*
X366629Y384074D01*
X366640Y384080D01*
X366657Y384096D01*
X366679Y384113D01*
X366707Y384135D01*
X366746Y384157D01*
X366790Y384185D01*
X366834Y384213D01*
X366890Y384241D01*
X366951Y384268D01*
X367018Y384291D01*
X367090Y384313D01*
X367245Y384346D01*
X367334Y384352D01*
X367423Y384357D01*
X367473D01*
X367506Y384352D01*
D02*
G37*
G36*
X387097Y406998D02*
X387091Y406993D01*
X387080Y406982D01*
X387058Y406960D01*
X387036Y406926D01*
X387003Y406887D01*
X386958Y406843D01*
X386914Y406788D01*
X386864Y406721D01*
X386814Y406654D01*
X386753Y406577D01*
X386692Y406488D01*
X386631Y406399D01*
X386564Y406299D01*
X386497Y406194D01*
X386431Y406077D01*
X386364Y405961D01*
X386359Y405955D01*
X386348Y405933D01*
X386331Y405900D01*
X386303Y405850D01*
X386276Y405789D01*
X386242Y405722D01*
X386203Y405644D01*
X386164Y405555D01*
X386120Y405456D01*
X386070Y405356D01*
X386026Y405245D01*
X385981Y405128D01*
X385893Y404889D01*
X385809Y404634D01*
Y404629D01*
X385804Y404612D01*
X385798Y404584D01*
X385787Y404551D01*
X385776Y404507D01*
X385765Y404451D01*
X385748Y404390D01*
X385737Y404323D01*
X385720Y404246D01*
X385704Y404162D01*
X385676Y403985D01*
X385648Y403791D01*
X385632Y403580D01*
X385149D01*
Y403585D01*
Y403602D01*
Y403624D01*
X385154Y403657D01*
Y403702D01*
X385160Y403757D01*
X385166Y403818D01*
X385171Y403885D01*
X385182Y403963D01*
X385193Y404040D01*
X385210Y404135D01*
X385226Y404229D01*
X385243Y404329D01*
X385265Y404440D01*
X385321Y404668D01*
Y404673D01*
X385327Y404695D01*
X385338Y404729D01*
X385354Y404778D01*
X385371Y404834D01*
X385393Y404901D01*
X385415Y404978D01*
X385449Y405061D01*
X385482Y405156D01*
X385515Y405250D01*
X385598Y405461D01*
X385698Y405683D01*
X385809Y405905D01*
X385815Y405911D01*
X385826Y405933D01*
X385843Y405961D01*
X385865Y406005D01*
X385893Y406055D01*
X385931Y406116D01*
X385970Y406183D01*
X386015Y406255D01*
X386120Y406416D01*
X386231Y406582D01*
X386359Y406754D01*
X386492Y406915D01*
X384611D01*
Y407370D01*
X387097D01*
Y406998D01*
D02*
G37*
G36*
X382729Y407415D02*
X382779D01*
X382896Y407409D01*
X383018Y407393D01*
X383151Y407376D01*
X383273Y407348D01*
X383334Y407332D01*
X383384Y407315D01*
X383389D01*
X383395Y407309D01*
X383428Y407293D01*
X383478Y407270D01*
X383539Y407232D01*
X383606Y407182D01*
X383678Y407115D01*
X383745Y407037D01*
X383811Y406949D01*
Y406943D01*
X383817Y406937D01*
X383839Y406904D01*
X383861Y406849D01*
X383894Y406777D01*
X383922Y406693D01*
X383950Y406593D01*
X383967Y406488D01*
X383972Y406371D01*
Y406366D01*
Y406355D01*
Y406332D01*
X383967Y406305D01*
Y406266D01*
X383961Y406227D01*
X383939Y406133D01*
X383906Y406022D01*
X383861Y405905D01*
X383795Y405789D01*
X383750Y405733D01*
X383706Y405678D01*
X383700Y405672D01*
X383695Y405666D01*
X383678Y405650D01*
X383656Y405633D01*
X383628Y405611D01*
X383595Y405589D01*
X383551Y405561D01*
X383506Y405528D01*
X383451Y405500D01*
X383389Y405472D01*
X383323Y405439D01*
X383251Y405411D01*
X383168Y405389D01*
X383084Y405361D01*
X382990Y405345D01*
X382890Y405328D01*
X382901Y405322D01*
X382923Y405311D01*
X382957Y405289D01*
X383001Y405267D01*
X383101Y405206D01*
X383151Y405167D01*
X383195Y405134D01*
X383206Y405123D01*
X383234Y405095D01*
X383278Y405051D01*
X383334Y404995D01*
X383395Y404917D01*
X383467Y404834D01*
X383539Y404734D01*
X383617Y404623D01*
X384278Y403580D01*
X383645D01*
X383140Y404379D01*
Y404385D01*
X383129Y404396D01*
X383118Y404412D01*
X383101Y404434D01*
X383062Y404495D01*
X383012Y404573D01*
X382951Y404656D01*
X382890Y404745D01*
X382829Y404829D01*
X382773Y404906D01*
X382768Y404912D01*
X382751Y404934D01*
X382723Y404967D01*
X382685Y405006D01*
X382601Y405089D01*
X382557Y405128D01*
X382513Y405162D01*
X382507Y405167D01*
X382496Y405173D01*
X382474Y405184D01*
X382440Y405200D01*
X382407Y405217D01*
X382368Y405234D01*
X382279Y405261D01*
X382274D01*
X382263Y405267D01*
X382241D01*
X382213Y405272D01*
X382174Y405278D01*
X382130D01*
X382069Y405284D01*
X381414D01*
Y403580D01*
X380903D01*
Y407420D01*
X382685D01*
X382729Y407415D01*
D02*
G37*
G36*
X435515Y439956D02*
X435554D01*
X435598Y439951D01*
X435703Y439929D01*
X435820Y439901D01*
X435942Y439856D01*
X436064Y439790D01*
X436125Y439751D01*
X436181Y439707D01*
X436186Y439701D01*
X436192Y439696D01*
X436208Y439679D01*
X436225Y439662D01*
X436253Y439635D01*
X436275Y439601D01*
X436336Y439524D01*
X436397Y439424D01*
X436453Y439301D01*
X436503Y439163D01*
X436536Y439007D01*
X436064Y438969D01*
Y438974D01*
X436059Y438980D01*
X436053Y439013D01*
X436036Y439063D01*
X436014Y439124D01*
X435992Y439190D01*
X435959Y439257D01*
X435920Y439318D01*
X435881Y439368D01*
X435870Y439379D01*
X435848Y439401D01*
X435809Y439435D01*
X435753Y439473D01*
X435681Y439507D01*
X435603Y439540D01*
X435509Y439562D01*
X435409Y439573D01*
X435370D01*
X435326Y439568D01*
X435276Y439557D01*
X435209Y439540D01*
X435143Y439518D01*
X435076Y439490D01*
X435010Y439446D01*
X434999Y439440D01*
X434971Y439418D01*
X434932Y439379D01*
X434882Y439324D01*
X434827Y439257D01*
X434765Y439179D01*
X434710Y439080D01*
X434654Y438969D01*
Y438963D01*
X434649Y438952D01*
X434643Y438935D01*
X434632Y438913D01*
X434627Y438880D01*
X434616Y438841D01*
X434604Y438796D01*
X434593Y438741D01*
X434577Y438680D01*
X434566Y438613D01*
X434554Y438541D01*
X434549Y438463D01*
X434538Y438375D01*
X434532Y438286D01*
X434527Y438186D01*
Y438086D01*
X434532Y438092D01*
X434554Y438125D01*
X434593Y438169D01*
X434643Y438225D01*
X434699Y438291D01*
X434771Y438352D01*
X434849Y438413D01*
X434937Y438469D01*
X434943D01*
X434948Y438475D01*
X434982Y438491D01*
X435032Y438508D01*
X435098Y438536D01*
X435176Y438558D01*
X435265Y438574D01*
X435359Y438591D01*
X435459Y438597D01*
X435503D01*
X435537Y438591D01*
X435581Y438586D01*
X435626Y438580D01*
X435681Y438569D01*
X435737Y438552D01*
X435864Y438513D01*
X435931Y438486D01*
X435997Y438447D01*
X436064Y438408D01*
X436136Y438364D01*
X436203Y438308D01*
X436264Y438247D01*
X436269Y438241D01*
X436281Y438230D01*
X436297Y438214D01*
X436314Y438186D01*
X436342Y438147D01*
X436369Y438108D01*
X436397Y438058D01*
X436430Y438003D01*
X436464Y437942D01*
X436491Y437875D01*
X436519Y437797D01*
X436547Y437720D01*
X436564Y437637D01*
X436580Y437542D01*
X436591Y437448D01*
X436597Y437348D01*
Y437342D01*
Y437331D01*
Y437315D01*
Y437287D01*
X436591Y437254D01*
Y437220D01*
X436575Y437131D01*
X436558Y437026D01*
X436530Y436915D01*
X436491Y436793D01*
X436436Y436676D01*
Y436671D01*
X436430Y436665D01*
X436419Y436649D01*
X436408Y436626D01*
X436375Y436571D01*
X436325Y436499D01*
X436264Y436421D01*
X436192Y436343D01*
X436103Y436266D01*
X436009Y436199D01*
X436003D01*
X435997Y436194D01*
X435981Y436182D01*
X435959Y436177D01*
X435903Y436149D01*
X435831Y436121D01*
X435737Y436088D01*
X435631Y436066D01*
X435515Y436044D01*
X435387Y436038D01*
X435359D01*
X435331Y436044D01*
X435287D01*
X435237Y436049D01*
X435182Y436060D01*
X435115Y436077D01*
X435048Y436094D01*
X434971Y436116D01*
X434893Y436143D01*
X434815Y436177D01*
X434732Y436221D01*
X434654Y436271D01*
X434577Y436327D01*
X434499Y436393D01*
X434427Y436471D01*
X434421Y436477D01*
X434410Y436493D01*
X434394Y436515D01*
X434371Y436554D01*
X434338Y436604D01*
X434310Y436660D01*
X434277Y436732D01*
X434244Y436809D01*
X434205Y436904D01*
X434172Y437009D01*
X434144Y437126D01*
X434116Y437254D01*
X434088Y437398D01*
X434072Y437553D01*
X434060Y437720D01*
X434055Y437897D01*
Y437903D01*
Y437908D01*
Y437925D01*
Y437947D01*
X434060Y438003D01*
Y438081D01*
X434066Y438169D01*
X434077Y438275D01*
X434088Y438391D01*
X434105Y438519D01*
X434127Y438647D01*
X434155Y438785D01*
X434188Y438918D01*
X434227Y439052D01*
X434277Y439179D01*
X434333Y439301D01*
X434394Y439418D01*
X434466Y439518D01*
X434471Y439524D01*
X434482Y439535D01*
X434505Y439557D01*
X434532Y439590D01*
X434566Y439623D01*
X434610Y439657D01*
X434665Y439701D01*
X434721Y439740D01*
X434788Y439779D01*
X434860Y439823D01*
X434943Y439856D01*
X435026Y439895D01*
X435121Y439923D01*
X435220Y439945D01*
X435326Y439956D01*
X435437Y439962D01*
X435481D01*
X435515Y439956D01*
D02*
G37*
G36*
X432229Y439940D02*
X432279D01*
X432396Y439934D01*
X432518Y439918D01*
X432651Y439901D01*
X432773Y439873D01*
X432834Y439856D01*
X432884Y439840D01*
X432890D01*
X432895Y439834D01*
X432928Y439818D01*
X432978Y439795D01*
X433039Y439757D01*
X433106Y439707D01*
X433178Y439640D01*
X433245Y439562D01*
X433311Y439473D01*
Y439468D01*
X433317Y439462D01*
X433339Y439429D01*
X433361Y439374D01*
X433394Y439301D01*
X433422Y439218D01*
X433450Y439118D01*
X433467Y439013D01*
X433472Y438896D01*
Y438891D01*
Y438880D01*
Y438858D01*
X433467Y438830D01*
Y438791D01*
X433461Y438752D01*
X433439Y438658D01*
X433406Y438547D01*
X433361Y438430D01*
X433295Y438314D01*
X433250Y438258D01*
X433206Y438203D01*
X433200Y438197D01*
X433195Y438192D01*
X433178Y438175D01*
X433156Y438158D01*
X433128Y438136D01*
X433095Y438114D01*
X433050Y438086D01*
X433006Y438053D01*
X432951Y438025D01*
X432890Y437997D01*
X432823Y437964D01*
X432751Y437936D01*
X432667Y437914D01*
X432584Y437886D01*
X432490Y437870D01*
X432390Y437853D01*
X432401Y437847D01*
X432423Y437836D01*
X432457Y437814D01*
X432501Y437792D01*
X432601Y437731D01*
X432651Y437692D01*
X432695Y437659D01*
X432706Y437648D01*
X432734Y437620D01*
X432779Y437575D01*
X432834Y437520D01*
X432895Y437442D01*
X432967Y437359D01*
X433039Y437259D01*
X433117Y437148D01*
X433778Y436105D01*
X433145D01*
X432640Y436904D01*
Y436909D01*
X432629Y436920D01*
X432618Y436937D01*
X432601Y436959D01*
X432562Y437020D01*
X432512Y437098D01*
X432451Y437181D01*
X432390Y437270D01*
X432329Y437353D01*
X432273Y437431D01*
X432268Y437437D01*
X432251Y437459D01*
X432224Y437492D01*
X432185Y437531D01*
X432101Y437614D01*
X432057Y437653D01*
X432013Y437686D01*
X432007Y437692D01*
X431996Y437698D01*
X431974Y437709D01*
X431940Y437725D01*
X431907Y437742D01*
X431868Y437759D01*
X431779Y437786D01*
X431774D01*
X431763Y437792D01*
X431741D01*
X431713Y437797D01*
X431674Y437803D01*
X431630D01*
X431569Y437809D01*
X430914D01*
Y436105D01*
X430403D01*
Y439945D01*
X432185D01*
X432229Y439940D01*
D02*
G37*
G36*
X318738Y450841D02*
X317201D01*
X316996Y449803D01*
X317001Y449809D01*
X317012Y449814D01*
X317029Y449825D01*
X317057Y449842D01*
X317090Y449859D01*
X317129Y449881D01*
X317218Y449925D01*
X317329Y449970D01*
X317451Y450009D01*
X317584Y450036D01*
X317651Y450047D01*
X317773D01*
X317806Y450042D01*
X317850Y450036D01*
X317900Y450031D01*
X317956Y450020D01*
X318017Y450003D01*
X318150Y449964D01*
X318222Y449936D01*
X318294Y449898D01*
X318367Y449859D01*
X318439Y449814D01*
X318505Y449759D01*
X318572Y449698D01*
X318577Y449692D01*
X318588Y449681D01*
X318605Y449664D01*
X318627Y449637D01*
X318655Y449598D01*
X318683Y449559D01*
X318716Y449509D01*
X318749Y449454D01*
X318777Y449393D01*
X318811Y449326D01*
X318838Y449248D01*
X318866Y449171D01*
X318888Y449087D01*
X318905Y448993D01*
X318916Y448899D01*
X318921Y448799D01*
Y448793D01*
Y448776D01*
Y448749D01*
X318916Y448710D01*
X318910Y448666D01*
X318905Y448616D01*
X318894Y448555D01*
X318883Y448493D01*
X318849Y448349D01*
X318794Y448199D01*
X318761Y448122D01*
X318716Y448049D01*
X318672Y447972D01*
X318616Y447900D01*
X318611Y447894D01*
X318600Y447877D01*
X318577Y447855D01*
X318550Y447827D01*
X318511Y447794D01*
X318466Y447750D01*
X318411Y447711D01*
X318350Y447667D01*
X318283Y447622D01*
X318206Y447583D01*
X318122Y447544D01*
X318034Y447506D01*
X317939Y447478D01*
X317834Y447456D01*
X317723Y447439D01*
X317606Y447433D01*
X317556D01*
X317517Y447439D01*
X317473Y447444D01*
X317423Y447450D01*
X317362Y447456D01*
X317301Y447472D01*
X317162Y447506D01*
X317023Y447555D01*
X316951Y447589D01*
X316879Y447628D01*
X316813Y447672D01*
X316746Y447722D01*
X316740Y447727D01*
X316729Y447733D01*
X316718Y447755D01*
X316696Y447778D01*
X316668Y447805D01*
X316640Y447839D01*
X316607Y447883D01*
X316579Y447933D01*
X316546Y447983D01*
X316513Y448044D01*
X316452Y448177D01*
X316402Y448333D01*
X316385Y448416D01*
X316374Y448505D01*
X316868Y448543D01*
Y448538D01*
Y448527D01*
X316874Y448510D01*
X316879Y448482D01*
X316896Y448421D01*
X316918Y448338D01*
X316951Y448255D01*
X316996Y448161D01*
X317051Y448077D01*
X317118Y447999D01*
X317129Y447994D01*
X317151Y447972D01*
X317196Y447944D01*
X317257Y447911D01*
X317323Y447877D01*
X317406Y447850D01*
X317501Y447827D01*
X317606Y447822D01*
X317639D01*
X317662Y447827D01*
X317728Y447833D01*
X317806Y447855D01*
X317900Y447883D01*
X317995Y447927D01*
X318095Y447994D01*
X318139Y448033D01*
X318183Y448077D01*
X318189Y448083D01*
X318195Y448088D01*
X318206Y448105D01*
X318222Y448122D01*
X318261Y448183D01*
X318305Y448260D01*
X318344Y448355D01*
X318383Y448471D01*
X318411Y448610D01*
X318422Y448682D01*
Y448760D01*
Y448765D01*
Y448776D01*
Y448799D01*
X318417Y448827D01*
Y448860D01*
X318411Y448899D01*
X318394Y448987D01*
X318367Y449093D01*
X318328Y449198D01*
X318272Y449298D01*
X318195Y449393D01*
Y449398D01*
X318183Y449404D01*
X318156Y449431D01*
X318106Y449470D01*
X318039Y449515D01*
X317950Y449553D01*
X317850Y449592D01*
X317734Y449620D01*
X317667Y449631D01*
X317562D01*
X317517Y449626D01*
X317462Y449620D01*
X317395Y449603D01*
X317329Y449587D01*
X317257Y449559D01*
X317184Y449526D01*
X317179Y449520D01*
X317157Y449509D01*
X317123Y449481D01*
X317079Y449454D01*
X317035Y449415D01*
X316990Y449365D01*
X316940Y449315D01*
X316901Y449254D01*
X316457Y449315D01*
X316829Y451291D01*
X318738D01*
Y450841D01*
D02*
G37*
G36*
X314526Y451335D02*
X314576D01*
X314692Y451330D01*
X314815Y451313D01*
X314948Y451296D01*
X315070Y451268D01*
X315131Y451252D01*
X315181Y451235D01*
X315186D01*
X315192Y451230D01*
X315225Y451213D01*
X315275Y451191D01*
X315336Y451152D01*
X315403Y451102D01*
X315475Y451035D01*
X315542Y450958D01*
X315608Y450869D01*
Y450863D01*
X315614Y450858D01*
X315636Y450824D01*
X315658Y450769D01*
X315691Y450697D01*
X315719Y450614D01*
X315747Y450514D01*
X315764Y450408D01*
X315769Y450292D01*
Y450286D01*
Y450275D01*
Y450253D01*
X315764Y450225D01*
Y450186D01*
X315758Y450147D01*
X315736Y450053D01*
X315703Y449942D01*
X315658Y449825D01*
X315592Y449709D01*
X315547Y449653D01*
X315503Y449598D01*
X315497Y449592D01*
X315492Y449587D01*
X315475Y449570D01*
X315453Y449553D01*
X315425Y449531D01*
X315392Y449509D01*
X315347Y449481D01*
X315303Y449448D01*
X315247Y449420D01*
X315186Y449393D01*
X315120Y449359D01*
X315048Y449332D01*
X314964Y449309D01*
X314881Y449282D01*
X314787Y449265D01*
X314687Y449248D01*
X314698Y449243D01*
X314720Y449232D01*
X314754Y449209D01*
X314798Y449187D01*
X314898Y449126D01*
X314948Y449087D01*
X314992Y449054D01*
X315003Y449043D01*
X315031Y449015D01*
X315075Y448971D01*
X315131Y448915D01*
X315192Y448838D01*
X315264Y448754D01*
X315336Y448654D01*
X315414Y448543D01*
X316074Y447500D01*
X315442D01*
X314937Y448299D01*
Y448305D01*
X314926Y448316D01*
X314914Y448333D01*
X314898Y448355D01*
X314859Y448416D01*
X314809Y448493D01*
X314748Y448577D01*
X314687Y448666D01*
X314626Y448749D01*
X314570Y448827D01*
X314565Y448832D01*
X314548Y448854D01*
X314520Y448887D01*
X314482Y448926D01*
X314398Y449010D01*
X314354Y449048D01*
X314310Y449082D01*
X314304Y449087D01*
X314293Y449093D01*
X314271Y449104D01*
X314237Y449121D01*
X314204Y449137D01*
X314165Y449154D01*
X314076Y449182D01*
X314071D01*
X314060Y449187D01*
X314038D01*
X314010Y449193D01*
X313971Y449198D01*
X313927D01*
X313865Y449204D01*
X313211D01*
Y447500D01*
X312700D01*
Y451341D01*
X314482D01*
X314526Y451335D01*
D02*
G37*
G36*
X436067Y424934D02*
X436589D01*
Y424501D01*
X436067D01*
Y423580D01*
X435595D01*
Y424501D01*
X433925D01*
Y424934D01*
X435684Y427420D01*
X436067D01*
Y424934D01*
D02*
G37*
G36*
X432237Y427415D02*
X432287D01*
X432404Y427409D01*
X432526Y427393D01*
X432659Y427376D01*
X432781Y427348D01*
X432842Y427331D01*
X432892Y427315D01*
X432898D01*
X432903Y427309D01*
X432937Y427293D01*
X432987Y427270D01*
X433048Y427232D01*
X433114Y427182D01*
X433186Y427115D01*
X433253Y427037D01*
X433320Y426948D01*
Y426943D01*
X433325Y426937D01*
X433347Y426904D01*
X433370Y426849D01*
X433403Y426777D01*
X433431Y426693D01*
X433458Y426593D01*
X433475Y426488D01*
X433481Y426371D01*
Y426366D01*
Y426355D01*
Y426333D01*
X433475Y426305D01*
Y426266D01*
X433469Y426227D01*
X433447Y426133D01*
X433414Y426022D01*
X433370Y425905D01*
X433303Y425789D01*
X433259Y425733D01*
X433214Y425678D01*
X433209Y425672D01*
X433203Y425667D01*
X433186Y425650D01*
X433164Y425633D01*
X433137Y425611D01*
X433103Y425589D01*
X433059Y425561D01*
X433014Y425528D01*
X432959Y425500D01*
X432898Y425472D01*
X432831Y425439D01*
X432759Y425411D01*
X432676Y425389D01*
X432593Y425361D01*
X432498Y425345D01*
X432398Y425328D01*
X432409Y425322D01*
X432432Y425311D01*
X432465Y425289D01*
X432509Y425267D01*
X432609Y425206D01*
X432659Y425167D01*
X432704Y425134D01*
X432715Y425123D01*
X432742Y425095D01*
X432787Y425050D01*
X432842Y424995D01*
X432903Y424917D01*
X432975Y424834D01*
X433048Y424734D01*
X433125Y424623D01*
X433786Y423580D01*
X433153D01*
X432648Y424379D01*
Y424384D01*
X432637Y424396D01*
X432626Y424412D01*
X432609Y424434D01*
X432570Y424495D01*
X432520Y424573D01*
X432459Y424656D01*
X432398Y424745D01*
X432337Y424828D01*
X432282Y424906D01*
X432276Y424912D01*
X432260Y424934D01*
X432232Y424967D01*
X432193Y425006D01*
X432110Y425089D01*
X432065Y425128D01*
X432021Y425161D01*
X432015Y425167D01*
X432004Y425173D01*
X431982Y425184D01*
X431949Y425200D01*
X431916Y425217D01*
X431877Y425234D01*
X431788Y425261D01*
X431782D01*
X431771Y425267D01*
X431749D01*
X431721Y425273D01*
X431682Y425278D01*
X431638D01*
X431577Y425284D01*
X430922D01*
Y423580D01*
X430411D01*
Y427420D01*
X432193D01*
X432237Y427415D01*
D02*
G37*
G36*
X301895Y451352D02*
X301967Y451341D01*
X302056Y451324D01*
X302156Y451296D01*
X302256Y451263D01*
X302356Y451219D01*
X302361D01*
X302367Y451213D01*
X302400Y451196D01*
X302450Y451163D01*
X302505Y451124D01*
X302572Y451069D01*
X302639Y451008D01*
X302705Y450936D01*
X302761Y450852D01*
X302766Y450841D01*
X302783Y450813D01*
X302805Y450763D01*
X302833Y450702D01*
X302861Y450630D01*
X302883Y450547D01*
X302900Y450453D01*
X302905Y450358D01*
Y450347D01*
Y450314D01*
X302900Y450269D01*
X302888Y450208D01*
X302872Y450136D01*
X302844Y450059D01*
X302811Y449981D01*
X302766Y449903D01*
X302761Y449892D01*
X302744Y449870D01*
X302711Y449831D01*
X302666Y449787D01*
X302611Y449737D01*
X302544Y449681D01*
X302467Y449631D01*
X302372Y449581D01*
X302378D01*
X302389Y449576D01*
X302406Y449570D01*
X302428Y449565D01*
X302489Y449542D01*
X302567Y449509D01*
X302655Y449465D01*
X302744Y449409D01*
X302827Y449337D01*
X302905Y449254D01*
X302911Y449243D01*
X302933Y449209D01*
X302966Y449154D01*
X302999Y449082D01*
X303033Y448993D01*
X303066Y448887D01*
X303088Y448765D01*
X303094Y448632D01*
Y448627D01*
Y448610D01*
Y448582D01*
X303088Y448549D01*
X303083Y448505D01*
X303072Y448455D01*
X303061Y448399D01*
X303049Y448338D01*
X303005Y448205D01*
X302972Y448133D01*
X302938Y448066D01*
X302894Y447994D01*
X302844Y447922D01*
X302788Y447850D01*
X302722Y447783D01*
X302716Y447778D01*
X302705Y447766D01*
X302683Y447750D01*
X302655Y447727D01*
X302622Y447700D01*
X302578Y447672D01*
X302528Y447639D01*
X302467Y447611D01*
X302406Y447578D01*
X302333Y447544D01*
X302261Y447517D01*
X302178Y447489D01*
X302089Y447467D01*
X301995Y447450D01*
X301901Y447439D01*
X301795Y447433D01*
X301745D01*
X301712Y447439D01*
X301667Y447444D01*
X301618Y447450D01*
X301562Y447461D01*
X301501Y447472D01*
X301368Y447506D01*
X301229Y447561D01*
X301157Y447594D01*
X301090Y447633D01*
X301024Y447683D01*
X300957Y447733D01*
X300952Y447739D01*
X300940Y447750D01*
X300924Y447766D01*
X300907Y447789D01*
X300879Y447816D01*
X300852Y447855D01*
X300818Y447894D01*
X300785Y447944D01*
X300752Y447999D01*
X300718Y448055D01*
X300657Y448188D01*
X300607Y448344D01*
X300591Y448427D01*
X300580Y448516D01*
X301051Y448577D01*
Y448571D01*
X301057Y448560D01*
X301062Y448538D01*
X301068Y448510D01*
X301074Y448477D01*
X301085Y448438D01*
X301112Y448355D01*
X301151Y448255D01*
X301201Y448161D01*
X301257Y448072D01*
X301323Y447994D01*
X301335Y447988D01*
X301357Y447966D01*
X301401Y447938D01*
X301457Y447911D01*
X301523Y447877D01*
X301606Y447850D01*
X301701Y447827D01*
X301801Y447822D01*
X301834D01*
X301856Y447827D01*
X301917Y447833D01*
X301995Y447850D01*
X302084Y447877D01*
X302178Y447916D01*
X302272Y447972D01*
X302361Y448049D01*
X302372Y448061D01*
X302400Y448094D01*
X302433Y448144D01*
X302478Y448210D01*
X302522Y448294D01*
X302555Y448388D01*
X302583Y448499D01*
X302594Y448621D01*
Y448627D01*
Y448638D01*
Y448654D01*
X302589Y448677D01*
X302583Y448738D01*
X302567Y448810D01*
X302544Y448899D01*
X302505Y448987D01*
X302450Y449076D01*
X302378Y449159D01*
X302367Y449171D01*
X302339Y449193D01*
X302295Y449226D01*
X302234Y449265D01*
X302156Y449304D01*
X302062Y449337D01*
X301956Y449359D01*
X301839Y449370D01*
X301790D01*
X301751Y449365D01*
X301701Y449359D01*
X301645Y449348D01*
X301579Y449337D01*
X301506Y449320D01*
X301562Y449737D01*
X301590D01*
X301612Y449731D01*
X301684D01*
X301745Y449742D01*
X301817Y449753D01*
X301901Y449770D01*
X301995Y449798D01*
X302084Y449836D01*
X302178Y449887D01*
X302184D01*
X302189Y449892D01*
X302217Y449914D01*
X302256Y449953D01*
X302300Y450003D01*
X302344Y450075D01*
X302383Y450158D01*
X302411Y450253D01*
X302422Y450308D01*
Y450369D01*
Y450375D01*
Y450381D01*
Y450414D01*
X302411Y450458D01*
X302400Y450519D01*
X302378Y450586D01*
X302350Y450658D01*
X302306Y450730D01*
X302245Y450797D01*
X302239Y450802D01*
X302211Y450824D01*
X302172Y450852D01*
X302123Y450885D01*
X302056Y450913D01*
X301978Y450941D01*
X301889Y450963D01*
X301790Y450969D01*
X301745D01*
X301695Y450958D01*
X301629Y450947D01*
X301556Y450924D01*
X301484Y450897D01*
X301407Y450852D01*
X301335Y450797D01*
X301329Y450791D01*
X301307Y450763D01*
X301273Y450725D01*
X301235Y450669D01*
X301196Y450597D01*
X301157Y450508D01*
X301123Y450403D01*
X301101Y450281D01*
X300630Y450364D01*
Y450369D01*
X300635Y450386D01*
X300641Y450408D01*
X300646Y450442D01*
X300657Y450480D01*
X300674Y450525D01*
X300707Y450630D01*
X300763Y450752D01*
X300829Y450874D01*
X300913Y450991D01*
X301018Y451096D01*
X301024Y451102D01*
X301035Y451108D01*
X301051Y451119D01*
X301074Y451135D01*
X301101Y451157D01*
X301140Y451180D01*
X301179Y451202D01*
X301229Y451230D01*
X301340Y451274D01*
X301468Y451318D01*
X301618Y451346D01*
X301695Y451357D01*
X301834D01*
X301895Y451352D01*
D02*
G37*
G36*
X298726Y451335D02*
X298776D01*
X298892Y451330D01*
X299015Y451313D01*
X299148Y451296D01*
X299270Y451268D01*
X299331Y451252D01*
X299381Y451235D01*
X299386D01*
X299392Y451230D01*
X299425Y451213D01*
X299475Y451191D01*
X299536Y451152D01*
X299603Y451102D01*
X299675Y451035D01*
X299742Y450958D01*
X299808Y450869D01*
Y450863D01*
X299814Y450858D01*
X299836Y450824D01*
X299858Y450769D01*
X299891Y450697D01*
X299919Y450614D01*
X299947Y450514D01*
X299964Y450408D01*
X299969Y450292D01*
Y450286D01*
Y450275D01*
Y450253D01*
X299964Y450225D01*
Y450186D01*
X299958Y450147D01*
X299936Y450053D01*
X299903Y449942D01*
X299858Y449825D01*
X299792Y449709D01*
X299747Y449653D01*
X299703Y449598D01*
X299697Y449592D01*
X299692Y449587D01*
X299675Y449570D01*
X299653Y449553D01*
X299625Y449531D01*
X299592Y449509D01*
X299547Y449481D01*
X299503Y449448D01*
X299447Y449420D01*
X299386Y449393D01*
X299320Y449359D01*
X299248Y449332D01*
X299164Y449309D01*
X299081Y449282D01*
X298987Y449265D01*
X298887Y449248D01*
X298898Y449243D01*
X298920Y449232D01*
X298954Y449209D01*
X298998Y449187D01*
X299098Y449126D01*
X299148Y449087D01*
X299192Y449054D01*
X299203Y449043D01*
X299231Y449015D01*
X299275Y448971D01*
X299331Y448915D01*
X299392Y448838D01*
X299464Y448754D01*
X299536Y448654D01*
X299614Y448543D01*
X300274Y447500D01*
X299642D01*
X299137Y448299D01*
Y448305D01*
X299126Y448316D01*
X299114Y448333D01*
X299098Y448355D01*
X299059Y448416D01*
X299009Y448493D01*
X298948Y448577D01*
X298887Y448666D01*
X298826Y448749D01*
X298770Y448827D01*
X298765Y448832D01*
X298748Y448854D01*
X298720Y448887D01*
X298682Y448926D01*
X298598Y449010D01*
X298554Y449048D01*
X298510Y449082D01*
X298504Y449087D01*
X298493Y449093D01*
X298471Y449104D01*
X298437Y449121D01*
X298404Y449137D01*
X298365Y449154D01*
X298276Y449182D01*
X298271D01*
X298260Y449187D01*
X298238D01*
X298210Y449193D01*
X298171Y449198D01*
X298127D01*
X298065Y449204D01*
X297411D01*
Y447500D01*
X296900D01*
Y451341D01*
X298682D01*
X298726Y451335D01*
D02*
G37*
G36*
X333939Y451252D02*
X333984Y451246D01*
X334039Y451241D01*
X334100Y451229D01*
X334161Y451218D01*
X334306Y451180D01*
X334450Y451124D01*
X334522Y451091D01*
X334594Y451052D01*
X334661Y451002D01*
X334722Y450947D01*
X334728Y450941D01*
X334739Y450935D01*
X334750Y450913D01*
X334772Y450891D01*
X334800Y450863D01*
X334827Y450824D01*
X334855Y450785D01*
X334889Y450736D01*
X334944Y450630D01*
X334999Y450497D01*
X335022Y450430D01*
X335033Y450353D01*
X335044Y450275D01*
X335049Y450192D01*
Y450181D01*
Y450153D01*
X335044Y450108D01*
X335038Y450047D01*
X335027Y449981D01*
X335005Y449903D01*
X334983Y449820D01*
X334949Y449736D01*
X334944Y449725D01*
X334933Y449698D01*
X334911Y449653D01*
X334877Y449592D01*
X334833Y449526D01*
X334777Y449442D01*
X334711Y449359D01*
X334633Y449265D01*
X334622Y449254D01*
X334594Y449220D01*
X334567Y449193D01*
X334539Y449165D01*
X334506Y449132D01*
X334461Y449087D01*
X334417Y449043D01*
X334361Y448993D01*
X334306Y448937D01*
X334239Y448876D01*
X334167Y448815D01*
X334089Y448743D01*
X334000Y448671D01*
X333912Y448593D01*
X333906Y448588D01*
X333895Y448577D01*
X333873Y448560D01*
X333845Y448538D01*
X333812Y448504D01*
X333773Y448471D01*
X333684Y448399D01*
X333590Y448316D01*
X333501Y448233D01*
X333423Y448160D01*
X333390Y448133D01*
X333362Y448105D01*
X333357Y448099D01*
X333340Y448083D01*
X333318Y448061D01*
X333290Y448027D01*
X333262Y447988D01*
X333229Y447949D01*
X333162Y447855D01*
X335055D01*
Y447400D01*
X332507D01*
Y447406D01*
Y447428D01*
Y447461D01*
X332513Y447506D01*
X332519Y447555D01*
X332530Y447611D01*
X332541Y447666D01*
X332563Y447727D01*
Y447733D01*
X332569Y447739D01*
X332580Y447772D01*
X332602Y447822D01*
X332635Y447888D01*
X332680Y447966D01*
X332735Y448055D01*
X332796Y448144D01*
X332874Y448238D01*
Y448244D01*
X332885Y448249D01*
X332913Y448282D01*
X332963Y448332D01*
X333035Y448405D01*
X333118Y448488D01*
X333224Y448588D01*
X333351Y448699D01*
X333490Y448815D01*
X333495Y448821D01*
X333518Y448837D01*
X333551Y448865D01*
X333590Y448899D01*
X333640Y448943D01*
X333701Y448993D01*
X333762Y449048D01*
X333834Y449109D01*
X333973Y449243D01*
X334111Y449376D01*
X334178Y449442D01*
X334239Y449509D01*
X334295Y449570D01*
X334339Y449631D01*
Y449637D01*
X334350Y449642D01*
X334361Y449659D01*
X334372Y449681D01*
X334411Y449742D01*
X334455Y449814D01*
X334494Y449903D01*
X334533Y449997D01*
X334556Y450103D01*
X334567Y450203D01*
Y450208D01*
Y450214D01*
X334561Y450247D01*
X334556Y450303D01*
X334539Y450364D01*
X334517Y450441D01*
X334478Y450519D01*
X334428Y450597D01*
X334361Y450674D01*
X334350Y450686D01*
X334322Y450708D01*
X334283Y450736D01*
X334222Y450774D01*
X334145Y450808D01*
X334056Y450841D01*
X333950Y450863D01*
X333834Y450869D01*
X333801D01*
X333779Y450863D01*
X333712Y450858D01*
X333634Y450841D01*
X333551Y450819D01*
X333457Y450780D01*
X333368Y450730D01*
X333284Y450663D01*
X333273Y450652D01*
X333251Y450625D01*
X333218Y450580D01*
X333185Y450514D01*
X333146Y450436D01*
X333112Y450336D01*
X333090Y450225D01*
X333079Y450097D01*
X332596Y450147D01*
Y450153D01*
X332602Y450169D01*
Y450197D01*
X332607Y450236D01*
X332618Y450281D01*
X332630Y450330D01*
X332646Y450391D01*
X332663Y450453D01*
X332707Y450586D01*
X332774Y450719D01*
X332813Y450785D01*
X332863Y450852D01*
X332913Y450913D01*
X332968Y450969D01*
X332974Y450974D01*
X332985Y450980D01*
X333001Y450996D01*
X333029Y451013D01*
X333063Y451035D01*
X333101Y451057D01*
X333146Y451085D01*
X333201Y451113D01*
X333262Y451141D01*
X333329Y451168D01*
X333401Y451191D01*
X333479Y451213D01*
X333562Y451229D01*
X333651Y451246D01*
X333745Y451252D01*
X333845Y451257D01*
X333901D01*
X333939Y451252D01*
D02*
G37*
G36*
X330726Y451235D02*
X330776D01*
X330892Y451229D01*
X331015Y451213D01*
X331148Y451196D01*
X331270Y451168D01*
X331331Y451152D01*
X331381Y451135D01*
X331386D01*
X331392Y451130D01*
X331425Y451113D01*
X331475Y451091D01*
X331536Y451052D01*
X331603Y451002D01*
X331675Y450935D01*
X331742Y450858D01*
X331808Y450769D01*
Y450763D01*
X331814Y450758D01*
X331836Y450724D01*
X331858Y450669D01*
X331891Y450597D01*
X331919Y450514D01*
X331947Y450414D01*
X331964Y450308D01*
X331969Y450192D01*
Y450186D01*
Y450175D01*
Y450153D01*
X331964Y450125D01*
Y450086D01*
X331958Y450047D01*
X331936Y449953D01*
X331903Y449842D01*
X331858Y449725D01*
X331792Y449609D01*
X331747Y449553D01*
X331703Y449498D01*
X331697Y449492D01*
X331692Y449487D01*
X331675Y449470D01*
X331653Y449453D01*
X331625Y449431D01*
X331592Y449409D01*
X331547Y449381D01*
X331503Y449348D01*
X331447Y449320D01*
X331386Y449293D01*
X331320Y449259D01*
X331248Y449231D01*
X331164Y449209D01*
X331081Y449182D01*
X330987Y449165D01*
X330887Y449148D01*
X330898Y449143D01*
X330920Y449132D01*
X330954Y449109D01*
X330998Y449087D01*
X331098Y449026D01*
X331148Y448987D01*
X331192Y448954D01*
X331203Y448943D01*
X331231Y448915D01*
X331275Y448871D01*
X331331Y448815D01*
X331392Y448738D01*
X331464Y448654D01*
X331536Y448554D01*
X331614Y448443D01*
X332274Y447400D01*
X331642D01*
X331137Y448199D01*
Y448205D01*
X331126Y448216D01*
X331114Y448233D01*
X331098Y448255D01*
X331059Y448316D01*
X331009Y448393D01*
X330948Y448477D01*
X330887Y448565D01*
X330826Y448649D01*
X330770Y448727D01*
X330765Y448732D01*
X330748Y448754D01*
X330720Y448787D01*
X330682Y448826D01*
X330598Y448910D01*
X330554Y448948D01*
X330509Y448982D01*
X330504Y448987D01*
X330493Y448993D01*
X330471Y449004D01*
X330437Y449021D01*
X330404Y449037D01*
X330365Y449054D01*
X330276Y449082D01*
X330271D01*
X330260Y449087D01*
X330238D01*
X330210Y449093D01*
X330171Y449098D01*
X330127D01*
X330065Y449104D01*
X329411D01*
Y447400D01*
X328900D01*
Y451241D01*
X330682D01*
X330726Y451235D01*
D02*
G37*
G36*
X424725Y448571D02*
X424253D01*
Y451574D01*
X424248Y451568D01*
X424220Y451546D01*
X424187Y451513D01*
X424131Y451474D01*
X424070Y451424D01*
X423992Y451369D01*
X423904Y451307D01*
X423804Y451247D01*
X423798D01*
X423793Y451241D01*
X423759Y451219D01*
X423704Y451191D01*
X423637Y451158D01*
X423560Y451119D01*
X423476Y451080D01*
X423393Y451041D01*
X423310Y451008D01*
Y451463D01*
X423315D01*
X423326Y451474D01*
X423349Y451480D01*
X423376Y451496D01*
X423410Y451513D01*
X423449Y451535D01*
X423543Y451591D01*
X423654Y451652D01*
X423765Y451729D01*
X423881Y451818D01*
X423998Y451912D01*
X424004Y451918D01*
X424009Y451924D01*
X424026Y451940D01*
X424048Y451957D01*
X424098Y452012D01*
X424164Y452079D01*
X424231Y452157D01*
X424303Y452246D01*
X424364Y452334D01*
X424420Y452429D01*
X424725D01*
Y448571D01*
D02*
G37*
G36*
X421101Y452406D02*
X421151D01*
X421267Y452401D01*
X421389Y452384D01*
X421523Y452368D01*
X421645Y452340D01*
X421706Y452323D01*
X421756Y452307D01*
X421761D01*
X421767Y452301D01*
X421800Y452284D01*
X421850Y452262D01*
X421911Y452223D01*
X421978Y452173D01*
X422050Y452107D01*
X422117Y452029D01*
X422183Y451940D01*
Y451935D01*
X422189Y451929D01*
X422211Y451896D01*
X422233Y451840D01*
X422266Y451768D01*
X422294Y451685D01*
X422322Y451585D01*
X422339Y451480D01*
X422344Y451363D01*
Y451358D01*
Y451346D01*
Y451324D01*
X422339Y451296D01*
Y451258D01*
X422333Y451219D01*
X422311Y451124D01*
X422277Y451013D01*
X422233Y450897D01*
X422166Y450780D01*
X422122Y450725D01*
X422078Y450669D01*
X422072Y450664D01*
X422067Y450658D01*
X422050Y450641D01*
X422028Y450625D01*
X422000Y450603D01*
X421967Y450581D01*
X421922Y450553D01*
X421878Y450519D01*
X421822Y450492D01*
X421761Y450464D01*
X421695Y450431D01*
X421623Y450403D01*
X421539Y450381D01*
X421456Y450353D01*
X421362Y450336D01*
X421262Y450320D01*
X421273Y450314D01*
X421295Y450303D01*
X421328Y450281D01*
X421373Y450259D01*
X421473Y450198D01*
X421523Y450159D01*
X421567Y450125D01*
X421578Y450114D01*
X421606Y450086D01*
X421650Y450042D01*
X421706Y449987D01*
X421767Y449909D01*
X421839Y449826D01*
X421911Y449726D01*
X421989Y449615D01*
X422649Y448571D01*
X422017D01*
X421512Y449371D01*
Y449376D01*
X421500Y449387D01*
X421489Y449404D01*
X421473Y449426D01*
X421434Y449487D01*
X421384Y449565D01*
X421323Y449648D01*
X421262Y449737D01*
X421201Y449820D01*
X421145Y449898D01*
X421140Y449903D01*
X421123Y449926D01*
X421095Y449959D01*
X421057Y449998D01*
X420973Y450081D01*
X420929Y450120D01*
X420885Y450153D01*
X420879Y450159D01*
X420868Y450164D01*
X420846Y450175D01*
X420812Y450192D01*
X420779Y450209D01*
X420740Y450225D01*
X420651Y450253D01*
X420646D01*
X420635Y450259D01*
X420612D01*
X420585Y450264D01*
X420546Y450270D01*
X420502D01*
X420440Y450275D01*
X419785D01*
Y448571D01*
X419275D01*
Y452412D01*
X421057D01*
X421101Y452406D01*
D02*
G37*
G36*
X357469Y451196D02*
X356997D01*
Y454199D01*
X356992Y454193D01*
X356964Y454171D01*
X356931Y454138D01*
X356875Y454099D01*
X356814Y454049D01*
X356737Y453994D01*
X356648Y453932D01*
X356548Y453871D01*
X356542D01*
X356537Y453866D01*
X356504Y453844D01*
X356448Y453816D01*
X356381Y453783D01*
X356304Y453744D01*
X356221Y453705D01*
X356137Y453666D01*
X356054Y453633D01*
Y454088D01*
X356060D01*
X356071Y454099D01*
X356093Y454104D01*
X356121Y454121D01*
X356154Y454138D01*
X356193Y454160D01*
X356287Y454215D01*
X356398Y454277D01*
X356509Y454354D01*
X356626Y454443D01*
X356742Y454537D01*
X356748Y454543D01*
X356753Y454548D01*
X356770Y454565D01*
X356792Y454582D01*
X356842Y454637D01*
X356909Y454704D01*
X356975Y454781D01*
X357047Y454870D01*
X357108Y454959D01*
X357164Y455054D01*
X357469D01*
Y451196D01*
D02*
G37*
G36*
X353457Y455098D02*
X353507D01*
X353556Y455092D01*
X353623Y455081D01*
X353690Y455070D01*
X353834Y455042D01*
X354000Y454998D01*
X354162Y454931D01*
X354245Y454893D01*
X354328Y454848D01*
X354333Y454843D01*
X354345Y454837D01*
X354367Y454820D01*
X354400Y454804D01*
X354433Y454776D01*
X354478Y454743D01*
X354572Y454665D01*
X354672Y454565D01*
X354783Y454443D01*
X354889Y454299D01*
X354977Y454138D01*
Y454132D01*
X354988Y454115D01*
X354999Y454093D01*
X355011Y454060D01*
X355033Y454016D01*
X355049Y453966D01*
X355072Y453905D01*
X355094Y453838D01*
X355111Y453766D01*
X355133Y453688D01*
X355155Y453605D01*
X355171Y453516D01*
X355194Y453322D01*
X355205Y453117D01*
Y453111D01*
Y453094D01*
Y453072D01*
Y453039D01*
X355199Y452994D01*
Y452945D01*
X355194Y452889D01*
X355188Y452834D01*
X355171Y452700D01*
X355144Y452556D01*
X355111Y452406D01*
X355061Y452262D01*
Y452256D01*
X355055Y452245D01*
X355044Y452223D01*
X355033Y452201D01*
X355016Y452168D01*
X354999Y452129D01*
X354955Y452040D01*
X354894Y451934D01*
X354816Y451823D01*
X354728Y451712D01*
X354628Y451601D01*
X354633D01*
X354644Y451590D01*
X354661Y451579D01*
X354689Y451563D01*
X354716Y451540D01*
X354755Y451518D01*
X354838Y451468D01*
X354939Y451407D01*
X355049Y451346D01*
X355166Y451296D01*
X355277Y451246D01*
X355127Y450897D01*
X355122D01*
X355111Y450902D01*
X355088Y450913D01*
X355055Y450924D01*
X355016Y450941D01*
X354972Y450963D01*
X354922Y450985D01*
X354866Y451013D01*
X354744Y451080D01*
X354606Y451157D01*
X354456Y451257D01*
X354300Y451368D01*
X354295D01*
X354284Y451357D01*
X354256Y451346D01*
X354228Y451329D01*
X354184Y451313D01*
X354139Y451291D01*
X354084Y451274D01*
X354023Y451252D01*
X353956Y451230D01*
X353884Y451207D01*
X353723Y451168D01*
X353545Y451141D01*
X353451Y451135D01*
X353357Y451130D01*
X353307D01*
X353268Y451135D01*
X353223D01*
X353168Y451141D01*
X353107Y451152D01*
X353040Y451163D01*
X352896Y451191D01*
X352735Y451235D01*
X352569Y451296D01*
X352491Y451335D01*
X352408Y451379D01*
X352402Y451385D01*
X352391Y451391D01*
X352369Y451407D01*
X352341Y451424D01*
X352302Y451452D01*
X352263Y451485D01*
X352169Y451563D01*
X352063Y451662D01*
X351958Y451785D01*
X351853Y451923D01*
X351758Y452084D01*
Y452090D01*
X351747Y452107D01*
X351736Y452129D01*
X351725Y452162D01*
X351708Y452206D01*
X351686Y452256D01*
X351664Y452317D01*
X351647Y452384D01*
X351625Y452456D01*
X351603Y452534D01*
X351586Y452617D01*
X351564Y452711D01*
X351542Y452906D01*
X351531Y453111D01*
Y453117D01*
Y453139D01*
Y453166D01*
X351536Y453205D01*
Y453255D01*
X351542Y453316D01*
X351547Y453383D01*
X351558Y453455D01*
X351586Y453616D01*
X351625Y453788D01*
X351681Y453971D01*
X351758Y454149D01*
X351764Y454154D01*
X351769Y454171D01*
X351781Y454193D01*
X351803Y454227D01*
X351825Y454265D01*
X351853Y454310D01*
X351930Y454415D01*
X352019Y454526D01*
X352136Y454643D01*
X352263Y454759D01*
X352413Y454859D01*
X352419Y454865D01*
X352435Y454870D01*
X352458Y454881D01*
X352491Y454898D01*
X352530Y454915D01*
X352574Y454937D01*
X352630Y454959D01*
X352691Y454981D01*
X352763Y455003D01*
X352835Y455026D01*
X352996Y455065D01*
X353173Y455092D01*
X353268Y455103D01*
X353418D01*
X353457Y455098D01*
D02*
G37*
G36*
X329461Y392754D02*
X329983D01*
Y392321D01*
X329461D01*
Y391400D01*
X328989D01*
Y392321D01*
X327319D01*
Y392754D01*
X329078Y395241D01*
X329461D01*
Y392754D01*
D02*
G37*
G36*
X325376Y395235D02*
X325487Y395230D01*
X325598Y395218D01*
X325709Y395202D01*
X325803Y395185D01*
X325809D01*
X325820Y395180D01*
X325837D01*
X325859Y395168D01*
X325920Y395152D01*
X325998Y395124D01*
X326087Y395085D01*
X326181Y395035D01*
X326275Y394980D01*
X326364Y394908D01*
X326370Y394902D01*
X326375Y394897D01*
X326392Y394880D01*
X326414Y394863D01*
X326469Y394808D01*
X326536Y394730D01*
X326608Y394636D01*
X326686Y394525D01*
X326758Y394397D01*
X326819Y394253D01*
Y394247D01*
X326825Y394236D01*
X326836Y394214D01*
X326841Y394180D01*
X326858Y394142D01*
X326869Y394097D01*
X326880Y394047D01*
X326897Y393986D01*
X326913Y393925D01*
X326925Y393853D01*
X326952Y393698D01*
X326969Y393526D01*
X326975Y393337D01*
Y393331D01*
Y393320D01*
Y393292D01*
Y393265D01*
X326969Y393226D01*
Y393182D01*
X326963Y393076D01*
X326947Y392954D01*
X326930Y392826D01*
X326902Y392693D01*
X326869Y392560D01*
Y392554D01*
X326864Y392543D01*
X326858Y392527D01*
X326852Y392504D01*
X326830Y392443D01*
X326797Y392366D01*
X326764Y392277D01*
X326719Y392188D01*
X326664Y392094D01*
X326608Y392005D01*
X326603Y391994D01*
X326581Y391966D01*
X326547Y391927D01*
X326503Y391877D01*
X326453Y391822D01*
X326392Y391766D01*
X326331Y391705D01*
X326259Y391655D01*
X326248Y391650D01*
X326225Y391633D01*
X326186Y391611D01*
X326131Y391583D01*
X326064Y391550D01*
X325987Y391522D01*
X325898Y391489D01*
X325798Y391461D01*
X325787D01*
X325770Y391456D01*
X325754Y391450D01*
X325698Y391444D01*
X325620Y391433D01*
X325532Y391422D01*
X325426Y391411D01*
X325310Y391406D01*
X325182Y391400D01*
X323800D01*
Y395241D01*
X325276D01*
X325376Y395235D01*
D02*
G37*
G36*
X387901Y414956D02*
X387973Y414945D01*
X388062Y414929D01*
X388162Y414901D01*
X388262Y414868D01*
X388362Y414823D01*
X388367D01*
X388373Y414818D01*
X388406Y414801D01*
X388456Y414768D01*
X388511Y414729D01*
X388578Y414673D01*
X388645Y414612D01*
X388711Y414540D01*
X388767Y414457D01*
X388772Y414446D01*
X388789Y414418D01*
X388811Y414368D01*
X388839Y414307D01*
X388867Y414235D01*
X388889Y414152D01*
X388905Y414057D01*
X388911Y413963D01*
Y413952D01*
Y413918D01*
X388905Y413874D01*
X388894Y413813D01*
X388878Y413741D01*
X388850Y413663D01*
X388817Y413586D01*
X388772Y413508D01*
X388767Y413497D01*
X388750Y413475D01*
X388717Y413436D01*
X388672Y413391D01*
X388617Y413341D01*
X388550Y413286D01*
X388473Y413236D01*
X388378Y413186D01*
X388384D01*
X388395Y413180D01*
X388411Y413175D01*
X388434Y413169D01*
X388495Y413147D01*
X388572Y413114D01*
X388661Y413069D01*
X388750Y413014D01*
X388833Y412942D01*
X388911Y412858D01*
X388916Y412847D01*
X388939Y412814D01*
X388972Y412759D01*
X389005Y412686D01*
X389039Y412598D01*
X389072Y412492D01*
X389094Y412370D01*
X389100Y412237D01*
Y412231D01*
Y412215D01*
Y412187D01*
X389094Y412154D01*
X389089Y412109D01*
X389077Y412059D01*
X389066Y412004D01*
X389055Y411943D01*
X389011Y411809D01*
X388978Y411737D01*
X388944Y411671D01*
X388900Y411599D01*
X388850Y411526D01*
X388794Y411454D01*
X388728Y411388D01*
X388722Y411382D01*
X388711Y411371D01*
X388689Y411354D01*
X388661Y411332D01*
X388628Y411305D01*
X388583Y411277D01*
X388534Y411243D01*
X388473Y411216D01*
X388411Y411182D01*
X388339Y411149D01*
X388267Y411121D01*
X388184Y411094D01*
X388095Y411071D01*
X388001Y411055D01*
X387906Y411044D01*
X387801Y411038D01*
X387751D01*
X387718Y411044D01*
X387673Y411049D01*
X387623Y411055D01*
X387568Y411066D01*
X387507Y411077D01*
X387374Y411110D01*
X387235Y411166D01*
X387163Y411199D01*
X387096Y411238D01*
X387030Y411288D01*
X386963Y411338D01*
X386957Y411343D01*
X386946Y411354D01*
X386930Y411371D01*
X386913Y411393D01*
X386885Y411421D01*
X386858Y411460D01*
X386824Y411499D01*
X386791Y411549D01*
X386758Y411604D01*
X386724Y411660D01*
X386663Y411793D01*
X386613Y411948D01*
X386597Y412032D01*
X386585Y412120D01*
X387057Y412181D01*
Y412176D01*
X387063Y412165D01*
X387068Y412143D01*
X387074Y412115D01*
X387080Y412081D01*
X387091Y412043D01*
X387118Y411959D01*
X387157Y411860D01*
X387207Y411765D01*
X387263Y411676D01*
X387329Y411599D01*
X387340Y411593D01*
X387363Y411571D01*
X387407Y411543D01*
X387462Y411515D01*
X387529Y411482D01*
X387612Y411454D01*
X387707Y411432D01*
X387807Y411427D01*
X387840D01*
X387862Y411432D01*
X387923Y411438D01*
X388001Y411454D01*
X388090Y411482D01*
X388184Y411521D01*
X388278Y411576D01*
X388367Y411654D01*
X388378Y411665D01*
X388406Y411698D01*
X388439Y411749D01*
X388484Y411815D01*
X388528Y411898D01*
X388561Y411993D01*
X388589Y412104D01*
X388600Y412226D01*
Y412231D01*
Y412242D01*
Y412259D01*
X388595Y412281D01*
X388589Y412342D01*
X388572Y412415D01*
X388550Y412503D01*
X388511Y412592D01*
X388456Y412681D01*
X388384Y412764D01*
X388373Y412775D01*
X388345Y412797D01*
X388300Y412831D01*
X388239Y412870D01*
X388162Y412908D01*
X388067Y412942D01*
X387962Y412964D01*
X387845Y412975D01*
X387795D01*
X387757Y412969D01*
X387707Y412964D01*
X387651Y412953D01*
X387584Y412942D01*
X387512Y412925D01*
X387568Y413341D01*
X387596D01*
X387618Y413336D01*
X387690D01*
X387751Y413347D01*
X387823Y413358D01*
X387906Y413375D01*
X388001Y413402D01*
X388090Y413441D01*
X388184Y413491D01*
X388190D01*
X388195Y413497D01*
X388223Y413519D01*
X388262Y413558D01*
X388306Y413608D01*
X388350Y413680D01*
X388389Y413763D01*
X388417Y413858D01*
X388428Y413913D01*
Y413974D01*
Y413980D01*
Y413985D01*
Y414018D01*
X388417Y414063D01*
X388406Y414124D01*
X388384Y414190D01*
X388356Y414263D01*
X388312Y414335D01*
X388250Y414401D01*
X388245Y414407D01*
X388217Y414429D01*
X388178Y414457D01*
X388128Y414490D01*
X388062Y414518D01*
X387984Y414546D01*
X387895Y414568D01*
X387795Y414573D01*
X387751D01*
X387701Y414562D01*
X387634Y414551D01*
X387562Y414529D01*
X387490Y414501D01*
X387413Y414457D01*
X387340Y414401D01*
X387335Y414396D01*
X387313Y414368D01*
X387279Y414329D01*
X387240Y414274D01*
X387202Y414202D01*
X387163Y414113D01*
X387129Y414007D01*
X387107Y413885D01*
X386635Y413969D01*
Y413974D01*
X386641Y413991D01*
X386647Y414013D01*
X386652Y414046D01*
X386663Y414085D01*
X386680Y414129D01*
X386713Y414235D01*
X386769Y414357D01*
X386835Y414479D01*
X386918Y414596D01*
X387024Y414701D01*
X387030Y414707D01*
X387041Y414712D01*
X387057Y414723D01*
X387080Y414740D01*
X387107Y414762D01*
X387146Y414784D01*
X387185Y414807D01*
X387235Y414834D01*
X387346Y414879D01*
X387474Y414923D01*
X387623Y414951D01*
X387701Y414962D01*
X387840D01*
X387901Y414956D01*
D02*
G37*
G36*
X384476Y414940D02*
X384588Y414934D01*
X384699Y414923D01*
X384809Y414906D01*
X384904Y414890D01*
X384909D01*
X384921Y414884D01*
X384937D01*
X384959Y414873D01*
X385020Y414856D01*
X385098Y414829D01*
X385187Y414790D01*
X385281Y414740D01*
X385376Y414684D01*
X385464Y414612D01*
X385470Y414607D01*
X385475Y414601D01*
X385492Y414584D01*
X385514Y414568D01*
X385570Y414512D01*
X385636Y414435D01*
X385709Y414340D01*
X385786Y414229D01*
X385858Y414102D01*
X385919Y413957D01*
Y413952D01*
X385925Y413941D01*
X385936Y413918D01*
X385942Y413885D01*
X385958Y413846D01*
X385969Y413802D01*
X385981Y413752D01*
X385997Y413691D01*
X386014Y413630D01*
X386025Y413558D01*
X386053Y413402D01*
X386069Y413230D01*
X386075Y413042D01*
Y413036D01*
Y413025D01*
Y412997D01*
Y412969D01*
X386069Y412931D01*
Y412886D01*
X386064Y412781D01*
X386047Y412659D01*
X386031Y412531D01*
X386003Y412398D01*
X385969Y412265D01*
Y412259D01*
X385964Y412248D01*
X385958Y412231D01*
X385953Y412209D01*
X385931Y412148D01*
X385897Y412070D01*
X385864Y411982D01*
X385820Y411893D01*
X385764Y411798D01*
X385709Y411710D01*
X385703Y411698D01*
X385681Y411671D01*
X385648Y411632D01*
X385603Y411582D01*
X385553Y411526D01*
X385492Y411471D01*
X385431Y411410D01*
X385359Y411360D01*
X385348Y411354D01*
X385326Y411338D01*
X385287Y411316D01*
X385231Y411288D01*
X385165Y411255D01*
X385087Y411227D01*
X384998Y411194D01*
X384898Y411166D01*
X384887D01*
X384871Y411160D01*
X384854Y411155D01*
X384798Y411149D01*
X384721Y411138D01*
X384632Y411127D01*
X384526Y411116D01*
X384410Y411110D01*
X384282Y411105D01*
X382900D01*
Y414945D01*
X384377D01*
X384476Y414940D01*
D02*
G37*
G36*
X387965Y422923D02*
X388009Y422918D01*
X388065Y422912D01*
X388126Y422901D01*
X388187Y422890D01*
X388331Y422851D01*
X388475Y422795D01*
X388547Y422762D01*
X388620Y422723D01*
X388686Y422673D01*
X388747Y422618D01*
X388753Y422612D01*
X388764Y422607D01*
X388775Y422584D01*
X388797Y422562D01*
X388825Y422535D01*
X388853Y422496D01*
X388880Y422457D01*
X388914Y422407D01*
X388969Y422301D01*
X389025Y422168D01*
X389047Y422102D01*
X389058Y422024D01*
X389069Y421946D01*
X389075Y421863D01*
Y421852D01*
Y421824D01*
X389069Y421780D01*
X389064Y421719D01*
X389053Y421652D01*
X389030Y421574D01*
X389008Y421491D01*
X388975Y421408D01*
X388969Y421397D01*
X388958Y421369D01*
X388936Y421325D01*
X388903Y421264D01*
X388858Y421197D01*
X388803Y421114D01*
X388736Y421031D01*
X388658Y420936D01*
X388647Y420925D01*
X388620Y420892D01*
X388592Y420864D01*
X388564Y420836D01*
X388531Y420803D01*
X388486Y420759D01*
X388442Y420714D01*
X388387Y420664D01*
X388331Y420609D01*
X388264Y420548D01*
X388192Y420487D01*
X388115Y420414D01*
X388026Y420342D01*
X387937Y420265D01*
X387931Y420259D01*
X387920Y420248D01*
X387898Y420231D01*
X387870Y420209D01*
X387837Y420176D01*
X387798Y420143D01*
X387709Y420070D01*
X387615Y419987D01*
X387526Y419904D01*
X387449Y419832D01*
X387415Y419804D01*
X387387Y419776D01*
X387382Y419771D01*
X387365Y419754D01*
X387343Y419732D01*
X387315Y419698D01*
X387288Y419660D01*
X387254Y419621D01*
X387188Y419526D01*
X389080D01*
Y419071D01*
X386533D01*
Y419077D01*
Y419099D01*
Y419132D01*
X386538Y419177D01*
X386544Y419227D01*
X386555Y419282D01*
X386566Y419338D01*
X386588Y419399D01*
Y419404D01*
X386594Y419410D01*
X386605Y419443D01*
X386627Y419493D01*
X386660Y419560D01*
X386705Y419637D01*
X386760Y419726D01*
X386821Y419815D01*
X386899Y419909D01*
Y419915D01*
X386910Y419920D01*
X386938Y419954D01*
X386988Y420004D01*
X387060Y420076D01*
X387143Y420159D01*
X387249Y420259D01*
X387376Y420370D01*
X387515Y420487D01*
X387521Y420492D01*
X387543Y420509D01*
X387576Y420537D01*
X387615Y420570D01*
X387665Y420614D01*
X387726Y420664D01*
X387787Y420720D01*
X387859Y420781D01*
X387998Y420914D01*
X388137Y421047D01*
X388203Y421114D01*
X388264Y421180D01*
X388320Y421241D01*
X388364Y421303D01*
Y421308D01*
X388375Y421314D01*
X388387Y421330D01*
X388398Y421352D01*
X388437Y421414D01*
X388481Y421486D01*
X388520Y421574D01*
X388559Y421669D01*
X388581Y421774D01*
X388592Y421874D01*
Y421880D01*
Y421885D01*
X388586Y421918D01*
X388581Y421974D01*
X388564Y422035D01*
X388542Y422113D01*
X388503Y422191D01*
X388453Y422268D01*
X388387Y422346D01*
X388375Y422357D01*
X388348Y422379D01*
X388309Y422407D01*
X388248Y422446D01*
X388170Y422479D01*
X388081Y422512D01*
X387976Y422535D01*
X387859Y422540D01*
X387826D01*
X387804Y422535D01*
X387737Y422529D01*
X387660Y422512D01*
X387576Y422490D01*
X387482Y422451D01*
X387393Y422401D01*
X387310Y422335D01*
X387299Y422324D01*
X387277Y422296D01*
X387243Y422252D01*
X387210Y422185D01*
X387171Y422107D01*
X387138Y422007D01*
X387116Y421896D01*
X387104Y421769D01*
X386622Y421819D01*
Y421824D01*
X386627Y421841D01*
Y421869D01*
X386633Y421907D01*
X386644Y421952D01*
X386655Y422002D01*
X386671Y422063D01*
X386688Y422124D01*
X386733Y422257D01*
X386799Y422390D01*
X386838Y422457D01*
X386888Y422523D01*
X386938Y422584D01*
X386993Y422640D01*
X386999Y422646D01*
X387010Y422651D01*
X387027Y422668D01*
X387054Y422684D01*
X387088Y422707D01*
X387127Y422729D01*
X387171Y422757D01*
X387227Y422784D01*
X387288Y422812D01*
X387354Y422840D01*
X387426Y422862D01*
X387504Y422884D01*
X387587Y422901D01*
X387676Y422918D01*
X387770Y422923D01*
X387870Y422929D01*
X387926D01*
X387965Y422923D01*
D02*
G37*
G36*
X384496Y422906D02*
X384607Y422901D01*
X384718Y422890D01*
X384829Y422873D01*
X384923Y422857D01*
X384929D01*
X384940Y422851D01*
X384957D01*
X384979Y422840D01*
X385040Y422823D01*
X385118Y422795D01*
X385206Y422757D01*
X385301Y422707D01*
X385395Y422651D01*
X385484Y422579D01*
X385489Y422573D01*
X385495Y422568D01*
X385512Y422551D01*
X385534Y422535D01*
X385589Y422479D01*
X385656Y422401D01*
X385728Y422307D01*
X385806Y422196D01*
X385878Y422068D01*
X385939Y421924D01*
Y421918D01*
X385945Y421907D01*
X385956Y421885D01*
X385961Y421852D01*
X385978Y421813D01*
X385989Y421769D01*
X386000Y421719D01*
X386017Y421658D01*
X386033Y421597D01*
X386044Y421524D01*
X386072Y421369D01*
X386089Y421197D01*
X386094Y421008D01*
Y421003D01*
Y420992D01*
Y420964D01*
Y420936D01*
X386089Y420897D01*
Y420853D01*
X386083Y420748D01*
X386067Y420625D01*
X386050Y420498D01*
X386022Y420365D01*
X385989Y420231D01*
Y420226D01*
X385983Y420215D01*
X385978Y420198D01*
X385972Y420176D01*
X385950Y420115D01*
X385917Y420037D01*
X385883Y419948D01*
X385839Y419860D01*
X385784Y419765D01*
X385728Y419676D01*
X385722Y419665D01*
X385700Y419637D01*
X385667Y419599D01*
X385623Y419549D01*
X385573Y419493D01*
X385512Y419438D01*
X385451Y419377D01*
X385378Y419327D01*
X385367Y419321D01*
X385345Y419305D01*
X385306Y419282D01*
X385251Y419254D01*
X385184Y419221D01*
X385106Y419194D01*
X385018Y419160D01*
X384918Y419132D01*
X384907D01*
X384890Y419127D01*
X384873Y419121D01*
X384818Y419116D01*
X384740Y419105D01*
X384651Y419094D01*
X384546Y419082D01*
X384429Y419077D01*
X384302Y419071D01*
X382920D01*
Y422912D01*
X384396D01*
X384496Y422906D01*
D02*
G37*
G36*
X389228Y433571D02*
X388756D01*
Y436574D01*
X388751Y436568D01*
X388723Y436546D01*
X388689Y436513D01*
X388634Y436474D01*
X388573Y436424D01*
X388495Y436369D01*
X388406Y436307D01*
X388306Y436246D01*
X388301D01*
X388295Y436241D01*
X388262Y436219D01*
X388207Y436191D01*
X388140Y436158D01*
X388062Y436119D01*
X387979Y436080D01*
X387896Y436041D01*
X387813Y436008D01*
Y436463D01*
X387818D01*
X387829Y436474D01*
X387851Y436480D01*
X387879Y436496D01*
X387913Y436513D01*
X387951Y436535D01*
X388046Y436591D01*
X388157Y436652D01*
X388268Y436729D01*
X388384Y436818D01*
X388501Y436912D01*
X388506Y436918D01*
X388512Y436924D01*
X388528Y436940D01*
X388551Y436957D01*
X388601Y437012D01*
X388667Y437079D01*
X388734Y437157D01*
X388806Y437246D01*
X388867Y437334D01*
X388923Y437429D01*
X389228D01*
Y433571D01*
D02*
G37*
G36*
X385348Y437406D02*
X385459Y437401D01*
X385570Y437390D01*
X385681Y437373D01*
X385776Y437357D01*
X385781D01*
X385792Y437351D01*
X385809D01*
X385831Y437340D01*
X385892Y437323D01*
X385970Y437295D01*
X386059Y437257D01*
X386153Y437207D01*
X386247Y437151D01*
X386336Y437079D01*
X386342Y437073D01*
X386347Y437068D01*
X386364Y437051D01*
X386386Y437035D01*
X386442Y436979D01*
X386508Y436901D01*
X386580Y436807D01*
X386658Y436696D01*
X386730Y436568D01*
X386791Y436424D01*
Y436418D01*
X386797Y436407D01*
X386808Y436385D01*
X386814Y436352D01*
X386830Y436313D01*
X386841Y436269D01*
X386852Y436219D01*
X386869Y436158D01*
X386886Y436097D01*
X386897Y436025D01*
X386925Y435869D01*
X386941Y435697D01*
X386947Y435508D01*
Y435503D01*
Y435492D01*
Y435464D01*
Y435436D01*
X386941Y435397D01*
Y435353D01*
X386936Y435248D01*
X386919Y435125D01*
X386902Y434998D01*
X386875Y434865D01*
X386841Y434731D01*
Y434726D01*
X386836Y434715D01*
X386830Y434698D01*
X386825Y434676D01*
X386803Y434615D01*
X386769Y434537D01*
X386736Y434448D01*
X386691Y434360D01*
X386636Y434265D01*
X386580Y434176D01*
X386575Y434165D01*
X386553Y434137D01*
X386519Y434099D01*
X386475Y434049D01*
X386425Y433993D01*
X386364Y433938D01*
X386303Y433877D01*
X386231Y433827D01*
X386220Y433821D01*
X386197Y433805D01*
X386159Y433782D01*
X386103Y433754D01*
X386037Y433721D01*
X385959Y433694D01*
X385870Y433660D01*
X385770Y433632D01*
X385759D01*
X385742Y433627D01*
X385726Y433621D01*
X385670Y433616D01*
X385593Y433605D01*
X385504Y433594D01*
X385398Y433582D01*
X385282Y433577D01*
X385154Y433571D01*
X383772D01*
Y437412D01*
X385248D01*
X385348Y437406D01*
D02*
G37*
G36*
X377092Y411931D02*
X377131D01*
X377176Y411926D01*
X377281Y411904D01*
X377398Y411876D01*
X377520Y411832D01*
X377642Y411765D01*
X377703Y411726D01*
X377758Y411682D01*
X377764Y411676D01*
X377769Y411671D01*
X377786Y411654D01*
X377803Y411637D01*
X377831Y411610D01*
X377853Y411576D01*
X377914Y411498D01*
X377975Y411399D01*
X378030Y411276D01*
X378080Y411138D01*
X378114Y410982D01*
X377642Y410944D01*
Y410949D01*
X377636Y410955D01*
X377631Y410988D01*
X377614Y411038D01*
X377592Y411099D01*
X377570Y411166D01*
X377536Y411232D01*
X377498Y411293D01*
X377459Y411343D01*
X377448Y411354D01*
X377425Y411376D01*
X377386Y411410D01*
X377331Y411448D01*
X377259Y411482D01*
X377181Y411515D01*
X377087Y411537D01*
X376987Y411548D01*
X376948D01*
X376904Y411543D01*
X376854Y411532D01*
X376787Y411515D01*
X376720Y411493D01*
X376654Y411465D01*
X376587Y411421D01*
X376576Y411415D01*
X376549Y411393D01*
X376510Y411354D01*
X376460Y411299D01*
X376404Y411232D01*
X376343Y411154D01*
X376288Y411055D01*
X376232Y410944D01*
Y410938D01*
X376226Y410927D01*
X376221Y410910D01*
X376210Y410888D01*
X376204Y410855D01*
X376193Y410816D01*
X376182Y410772D01*
X376171Y410716D01*
X376154Y410655D01*
X376143Y410588D01*
X376132Y410516D01*
X376127Y410438D01*
X376115Y410350D01*
X376110Y410261D01*
X376104Y410161D01*
Y410061D01*
X376110Y410067D01*
X376132Y410100D01*
X376171Y410144D01*
X376221Y410200D01*
X376276Y410266D01*
X376349Y410327D01*
X376426Y410389D01*
X376515Y410444D01*
X376521D01*
X376526Y410450D01*
X376559Y410466D01*
X376609Y410483D01*
X376676Y410511D01*
X376754Y410533D01*
X376843Y410549D01*
X376937Y410566D01*
X377037Y410572D01*
X377081D01*
X377115Y410566D01*
X377159Y410561D01*
X377203Y410555D01*
X377259Y410544D01*
X377314Y410527D01*
X377442Y410488D01*
X377509Y410461D01*
X377575Y410422D01*
X377642Y410383D01*
X377714Y410339D01*
X377781Y410283D01*
X377842Y410222D01*
X377847Y410216D01*
X377858Y410205D01*
X377875Y410189D01*
X377892Y410161D01*
X377919Y410122D01*
X377947Y410083D01*
X377975Y410033D01*
X378008Y409978D01*
X378041Y409917D01*
X378069Y409850D01*
X378097Y409772D01*
X378125Y409695D01*
X378141Y409612D01*
X378158Y409517D01*
X378169Y409423D01*
X378175Y409323D01*
Y409317D01*
Y409306D01*
Y409290D01*
Y409262D01*
X378169Y409229D01*
Y409195D01*
X378152Y409106D01*
X378136Y409001D01*
X378108Y408890D01*
X378069Y408768D01*
X378014Y408651D01*
Y408646D01*
X378008Y408640D01*
X377997Y408624D01*
X377986Y408601D01*
X377953Y408546D01*
X377903Y408474D01*
X377842Y408396D01*
X377769Y408318D01*
X377681Y408241D01*
X377586Y408174D01*
X377581D01*
X377575Y408169D01*
X377559Y408157D01*
X377536Y408152D01*
X377481Y408124D01*
X377409Y408096D01*
X377314Y408063D01*
X377209Y408041D01*
X377092Y408019D01*
X376965Y408013D01*
X376937D01*
X376909Y408019D01*
X376865D01*
X376815Y408024D01*
X376759Y408035D01*
X376693Y408052D01*
X376626Y408069D01*
X376549Y408091D01*
X376471Y408119D01*
X376393Y408152D01*
X376310Y408196D01*
X376232Y408246D01*
X376154Y408302D01*
X376077Y408368D01*
X376005Y408446D01*
X375999Y408452D01*
X375988Y408468D01*
X375971Y408490D01*
X375949Y408529D01*
X375916Y408579D01*
X375888Y408635D01*
X375855Y408707D01*
X375821Y408784D01*
X375782Y408879D01*
X375749Y408984D01*
X375722Y409101D01*
X375694Y409229D01*
X375666Y409373D01*
X375649Y409528D01*
X375638Y409695D01*
X375633Y409872D01*
Y409878D01*
Y409883D01*
Y409900D01*
Y409922D01*
X375638Y409978D01*
Y410055D01*
X375644Y410144D01*
X375655Y410250D01*
X375666Y410366D01*
X375683Y410494D01*
X375705Y410622D01*
X375733Y410760D01*
X375766Y410893D01*
X375805Y411027D01*
X375855Y411154D01*
X375910Y411276D01*
X375971Y411393D01*
X376043Y411493D01*
X376049Y411498D01*
X376060Y411510D01*
X376082Y411532D01*
X376110Y411565D01*
X376143Y411598D01*
X376188Y411632D01*
X376243Y411676D01*
X376299Y411715D01*
X376365Y411754D01*
X376437Y411798D01*
X376521Y411832D01*
X376604Y411870D01*
X376698Y411898D01*
X376798Y411920D01*
X376904Y411931D01*
X377015Y411937D01*
X377059D01*
X377092Y411931D01*
D02*
G37*
G36*
X373729Y411981D02*
X373779Y411976D01*
X373840Y411970D01*
X373901Y411965D01*
X373973Y411948D01*
X374123Y411915D01*
X374290Y411865D01*
X374373Y411832D01*
X374451Y411793D01*
X374528Y411743D01*
X374606Y411693D01*
X374611Y411687D01*
X374623Y411682D01*
X374645Y411665D01*
X374673Y411637D01*
X374700Y411610D01*
X374739Y411571D01*
X374778Y411526D01*
X374822Y411482D01*
X374867Y411426D01*
X374911Y411360D01*
X374961Y411293D01*
X375006Y411221D01*
X375044Y411138D01*
X375089Y411055D01*
X375122Y410966D01*
X375155Y410866D01*
X374656Y410749D01*
Y410755D01*
X374650Y410766D01*
X374639Y410788D01*
X374628Y410816D01*
X374617Y410849D01*
X374600Y410893D01*
X374556Y410982D01*
X374500Y411082D01*
X374434Y411182D01*
X374351Y411276D01*
X374262Y411360D01*
X374251Y411371D01*
X374218Y411393D01*
X374162Y411421D01*
X374090Y411460D01*
X373995Y411493D01*
X373890Y411526D01*
X373762Y411548D01*
X373624Y411554D01*
X373579D01*
X373552Y411548D01*
X373513D01*
X373468Y411543D01*
X373363Y411526D01*
X373246Y411504D01*
X373124Y411465D01*
X372996Y411410D01*
X372880Y411338D01*
X372874D01*
X372869Y411327D01*
X372830Y411299D01*
X372780Y411254D01*
X372719Y411188D01*
X372647Y411104D01*
X372580Y411010D01*
X372519Y410893D01*
X372464Y410766D01*
Y410760D01*
X372458Y410749D01*
X372453Y410733D01*
X372447Y410705D01*
X372436Y410672D01*
X372425Y410633D01*
X372408Y410538D01*
X372386Y410427D01*
X372364Y410305D01*
X372353Y410172D01*
X372347Y410028D01*
Y410022D01*
Y410006D01*
Y409978D01*
Y409944D01*
X372353Y409906D01*
Y409856D01*
X372358Y409800D01*
X372364Y409739D01*
X372380Y409606D01*
X372408Y409462D01*
X372441Y409317D01*
X372486Y409173D01*
Y409167D01*
X372491Y409156D01*
X372502Y409140D01*
X372514Y409112D01*
X372547Y409045D01*
X372597Y408968D01*
X372658Y408879D01*
X372736Y408784D01*
X372824Y408701D01*
X372930Y408624D01*
X372935D01*
X372947Y408618D01*
X372963Y408607D01*
X372985Y408596D01*
X373013Y408585D01*
X373046Y408568D01*
X373124Y408535D01*
X373224Y408501D01*
X373335Y408474D01*
X373457Y408452D01*
X373585Y408446D01*
X373624D01*
X373657Y408452D01*
X373696D01*
X373735Y408457D01*
X373834Y408479D01*
X373951Y408507D01*
X374068Y408552D01*
X374190Y408612D01*
X374251Y408646D01*
X374306Y408690D01*
X374312Y408696D01*
X374317Y408701D01*
X374334Y408718D01*
X374356Y408735D01*
X374378Y408762D01*
X374406Y408796D01*
X374439Y408829D01*
X374467Y408873D01*
X374500Y408923D01*
X374539Y408979D01*
X374573Y409034D01*
X374606Y409101D01*
X374634Y409173D01*
X374661Y409251D01*
X374689Y409334D01*
X374711Y409423D01*
X375222Y409295D01*
Y409290D01*
X375216Y409267D01*
X375205Y409234D01*
X375189Y409190D01*
X375172Y409140D01*
X375150Y409079D01*
X375122Y409012D01*
X375089Y408940D01*
X375011Y408784D01*
X374911Y408629D01*
X374850Y408552D01*
X374789Y408474D01*
X374723Y408407D01*
X374645Y408341D01*
X374639Y408335D01*
X374628Y408324D01*
X374600Y408313D01*
X374573Y408291D01*
X374528Y408263D01*
X374484Y408235D01*
X374423Y408207D01*
X374362Y408180D01*
X374290Y408146D01*
X374212Y408119D01*
X374129Y408091D01*
X374040Y408063D01*
X373945Y408041D01*
X373846Y408030D01*
X373740Y408019D01*
X373629Y408013D01*
X373568D01*
X373524Y408019D01*
X373474D01*
X373413Y408024D01*
X373346Y408035D01*
X373268Y408046D01*
X373108Y408074D01*
X372941Y408119D01*
X372774Y408180D01*
X372697Y408218D01*
X372619Y408263D01*
X372614Y408268D01*
X372602Y408274D01*
X372580Y408291D01*
X372558Y408313D01*
X372525Y408335D01*
X372486Y408368D01*
X372441Y408407D01*
X372397Y408452D01*
X372353Y408501D01*
X372303Y408552D01*
X372203Y408679D01*
X372108Y408829D01*
X372025Y408995D01*
Y409001D01*
X372014Y409018D01*
X372009Y409045D01*
X371992Y409079D01*
X371981Y409123D01*
X371964Y409179D01*
X371942Y409240D01*
X371925Y409306D01*
X371909Y409378D01*
X371886Y409462D01*
X371859Y409634D01*
X371836Y409828D01*
X371825Y410028D01*
Y410033D01*
Y410055D01*
Y410089D01*
X371831Y410128D01*
Y410183D01*
X371836Y410239D01*
X371842Y410311D01*
X371853Y410383D01*
X371881Y410544D01*
X371920Y410721D01*
X371975Y410899D01*
X372053Y411071D01*
X372059Y411077D01*
X372064Y411093D01*
X372075Y411116D01*
X372097Y411143D01*
X372119Y411182D01*
X372147Y411227D01*
X372219Y411327D01*
X372314Y411437D01*
X372425Y411548D01*
X372552Y411659D01*
X372702Y411754D01*
X372708Y411759D01*
X372725Y411765D01*
X372747Y411776D01*
X372774Y411793D01*
X372819Y411809D01*
X372863Y411826D01*
X372919Y411848D01*
X372980Y411870D01*
X373046Y411893D01*
X373119Y411915D01*
X373274Y411948D01*
X373451Y411976D01*
X373635Y411987D01*
X373690D01*
X373729Y411981D01*
D02*
G37*
G36*
X359431Y397149D02*
X359472Y397145D01*
X359523Y397140D01*
X359574Y397135D01*
X359634Y397122D01*
X359758Y397094D01*
X359897Y397052D01*
X359966Y397025D01*
X360031Y396992D01*
X360096Y396951D01*
X360160Y396909D01*
X360165Y396904D01*
X360174Y396900D01*
X360193Y396886D01*
X360216Y396863D01*
X360239Y396840D01*
X360271Y396808D01*
X360304Y396771D01*
X360341Y396733D01*
X360378Y396687D01*
X360415Y396632D01*
X360456Y396576D01*
X360493Y396516D01*
X360525Y396447D01*
X360562Y396378D01*
X360590Y396304D01*
X360618Y396221D01*
X360202Y396124D01*
Y396128D01*
X360197Y396138D01*
X360188Y396156D01*
X360179Y396179D01*
X360170Y396207D01*
X360156Y396244D01*
X360119Y396318D01*
X360073Y396401D01*
X360017Y396484D01*
X359948Y396563D01*
X359874Y396632D01*
X359865Y396641D01*
X359837Y396660D01*
X359791Y396683D01*
X359731Y396715D01*
X359652Y396743D01*
X359564Y396771D01*
X359458Y396789D01*
X359343Y396794D01*
X359306D01*
X359283Y396789D01*
X359250D01*
X359213Y396784D01*
X359126Y396771D01*
X359029Y396752D01*
X358927Y396720D01*
X358821Y396673D01*
X358724Y396613D01*
X358719D01*
X358714Y396604D01*
X358682Y396581D01*
X358641Y396544D01*
X358590Y396489D01*
X358530Y396419D01*
X358474Y396341D01*
X358423Y396244D01*
X358377Y396138D01*
Y396133D01*
X358372Y396124D01*
X358368Y396110D01*
X358363Y396087D01*
X358354Y396059D01*
X358345Y396027D01*
X358331Y395948D01*
X358312Y395856D01*
X358294Y395754D01*
X358285Y395643D01*
X358280Y395523D01*
Y395518D01*
Y395505D01*
Y395481D01*
Y395454D01*
X358285Y395422D01*
Y395380D01*
X358289Y395334D01*
X358294Y395283D01*
X358308Y395172D01*
X358331Y395052D01*
X358359Y394932D01*
X358396Y394812D01*
Y394807D01*
X358400Y394798D01*
X358410Y394784D01*
X358419Y394761D01*
X358446Y394705D01*
X358488Y394641D01*
X358539Y394567D01*
X358604Y394488D01*
X358677Y394419D01*
X358765Y394354D01*
X358770D01*
X358779Y394350D01*
X358793Y394340D01*
X358811Y394331D01*
X358835Y394322D01*
X358862Y394308D01*
X358927Y394280D01*
X359010Y394253D01*
X359102Y394230D01*
X359204Y394211D01*
X359310Y394206D01*
X359343D01*
X359370Y394211D01*
X359403D01*
X359435Y394216D01*
X359518Y394234D01*
X359615Y394257D01*
X359712Y394294D01*
X359814Y394345D01*
X359865Y394373D01*
X359911Y394410D01*
X359916Y394414D01*
X359920Y394419D01*
X359934Y394433D01*
X359952Y394447D01*
X359971Y394470D01*
X359994Y394497D01*
X360022Y394525D01*
X360045Y394562D01*
X360073Y394604D01*
X360105Y394650D01*
X360133Y394696D01*
X360160Y394752D01*
X360184Y394812D01*
X360207Y394876D01*
X360230Y394946D01*
X360248Y395020D01*
X360673Y394913D01*
Y394909D01*
X360669Y394890D01*
X360659Y394862D01*
X360646Y394826D01*
X360632Y394784D01*
X360613Y394733D01*
X360590Y394678D01*
X360562Y394618D01*
X360498Y394488D01*
X360415Y394359D01*
X360364Y394294D01*
X360313Y394230D01*
X360258Y394174D01*
X360193Y394119D01*
X360188Y394114D01*
X360179Y394105D01*
X360156Y394095D01*
X360133Y394077D01*
X360096Y394054D01*
X360059Y394031D01*
X360008Y394008D01*
X359957Y393985D01*
X359897Y393957D01*
X359832Y393934D01*
X359763Y393911D01*
X359689Y393888D01*
X359611Y393869D01*
X359527Y393860D01*
X359440Y393851D01*
X359347Y393846D01*
X359296D01*
X359260Y393851D01*
X359218D01*
X359167Y393855D01*
X359112Y393864D01*
X359047Y393874D01*
X358913Y393897D01*
X358774Y393934D01*
X358636Y393985D01*
X358571Y394017D01*
X358506Y394054D01*
X358502Y394059D01*
X358493Y394063D01*
X358474Y394077D01*
X358456Y394095D01*
X358428Y394114D01*
X358396Y394142D01*
X358359Y394174D01*
X358322Y394211D01*
X358285Y394253D01*
X358243Y394294D01*
X358160Y394400D01*
X358081Y394525D01*
X358012Y394664D01*
Y394668D01*
X358003Y394682D01*
X357998Y394705D01*
X357984Y394733D01*
X357975Y394770D01*
X357961Y394816D01*
X357943Y394867D01*
X357929Y394922D01*
X357915Y394983D01*
X357897Y395052D01*
X357874Y395195D01*
X357855Y395357D01*
X357846Y395523D01*
Y395528D01*
Y395546D01*
Y395574D01*
X357850Y395606D01*
Y395653D01*
X357855Y395699D01*
X357860Y395759D01*
X357869Y395819D01*
X357892Y395953D01*
X357924Y396101D01*
X357971Y396248D01*
X358035Y396392D01*
X358040Y396396D01*
X358045Y396410D01*
X358054Y396429D01*
X358072Y396452D01*
X358091Y396484D01*
X358114Y396521D01*
X358174Y396604D01*
X358252Y396697D01*
X358345Y396789D01*
X358451Y396881D01*
X358576Y396960D01*
X358580Y396965D01*
X358594Y396969D01*
X358613Y396978D01*
X358636Y396992D01*
X358673Y397006D01*
X358710Y397020D01*
X358756Y397039D01*
X358807Y397057D01*
X358862Y397075D01*
X358922Y397094D01*
X359052Y397122D01*
X359200Y397145D01*
X359352Y397154D01*
X359398D01*
X359431Y397149D01*
D02*
G37*
G36*
X363002Y396683D02*
X361722D01*
X361551Y395819D01*
X361556Y395823D01*
X361565Y395828D01*
X361579Y395837D01*
X361602Y395851D01*
X361630Y395865D01*
X361662Y395883D01*
X361736Y395920D01*
X361828Y395957D01*
X361930Y395990D01*
X362041Y396013D01*
X362096Y396022D01*
X362198D01*
X362226Y396017D01*
X362263Y396013D01*
X362304Y396008D01*
X362350Y395999D01*
X362401Y395985D01*
X362512Y395953D01*
X362572Y395930D01*
X362632Y395897D01*
X362692Y395865D01*
X362752Y395828D01*
X362808Y395782D01*
X362863Y395731D01*
X362868Y395726D01*
X362877Y395717D01*
X362891Y395703D01*
X362909Y395680D01*
X362932Y395648D01*
X362955Y395616D01*
X362983Y395574D01*
X363011Y395528D01*
X363034Y395477D01*
X363062Y395422D01*
X363085Y395357D01*
X363108Y395292D01*
X363126Y395223D01*
X363140Y395144D01*
X363150Y395066D01*
X363154Y394983D01*
Y394978D01*
Y394964D01*
Y394941D01*
X363150Y394909D01*
X363145Y394872D01*
X363140Y394830D01*
X363131Y394779D01*
X363122Y394728D01*
X363094Y394608D01*
X363048Y394484D01*
X363020Y394419D01*
X362983Y394359D01*
X362946Y394294D01*
X362900Y394234D01*
X362895Y394230D01*
X362886Y394216D01*
X362868Y394197D01*
X362845Y394174D01*
X362812Y394146D01*
X362775Y394109D01*
X362729Y394077D01*
X362678Y394040D01*
X362623Y394003D01*
X362558Y393971D01*
X362489Y393938D01*
X362415Y393906D01*
X362336Y393883D01*
X362249Y393864D01*
X362156Y393851D01*
X362059Y393846D01*
X362018D01*
X361985Y393851D01*
X361948Y393855D01*
X361907Y393860D01*
X361856Y393864D01*
X361805Y393878D01*
X361690Y393906D01*
X361574Y393948D01*
X361514Y393975D01*
X361454Y394008D01*
X361399Y394045D01*
X361343Y394086D01*
X361338Y394091D01*
X361329Y394095D01*
X361320Y394114D01*
X361302Y394132D01*
X361279Y394156D01*
X361255Y394183D01*
X361228Y394220D01*
X361205Y394262D01*
X361177Y394303D01*
X361149Y394354D01*
X361098Y394465D01*
X361057Y394595D01*
X361043Y394664D01*
X361034Y394738D01*
X361445Y394770D01*
Y394765D01*
Y394756D01*
X361449Y394742D01*
X361454Y394719D01*
X361468Y394668D01*
X361486Y394599D01*
X361514Y394530D01*
X361551Y394451D01*
X361597Y394382D01*
X361653Y394317D01*
X361662Y394313D01*
X361680Y394294D01*
X361717Y394271D01*
X361768Y394243D01*
X361824Y394216D01*
X361893Y394193D01*
X361971Y394174D01*
X362059Y394169D01*
X362087D01*
X362105Y394174D01*
X362161Y394179D01*
X362226Y394197D01*
X362304Y394220D01*
X362383Y394257D01*
X362466Y394313D01*
X362503Y394345D01*
X362540Y394382D01*
X362544Y394387D01*
X362549Y394391D01*
X362558Y394405D01*
X362572Y394419D01*
X362604Y394470D01*
X362641Y394534D01*
X362674Y394613D01*
X362706Y394710D01*
X362729Y394826D01*
X362738Y394885D01*
Y394950D01*
Y394955D01*
Y394964D01*
Y394983D01*
X362734Y395006D01*
Y395033D01*
X362729Y395066D01*
X362715Y395140D01*
X362692Y395227D01*
X362660Y395315D01*
X362614Y395398D01*
X362549Y395477D01*
Y395481D01*
X362540Y395486D01*
X362517Y395509D01*
X362475Y395542D01*
X362420Y395579D01*
X362346Y395611D01*
X362263Y395643D01*
X362165Y395666D01*
X362110Y395676D01*
X362022D01*
X361985Y395671D01*
X361939Y395666D01*
X361884Y395653D01*
X361828Y395639D01*
X361768Y395616D01*
X361708Y395588D01*
X361703Y395583D01*
X361685Y395574D01*
X361657Y395551D01*
X361620Y395528D01*
X361583Y395495D01*
X361546Y395454D01*
X361505Y395412D01*
X361473Y395361D01*
X361103Y395412D01*
X361412Y397057D01*
X363002D01*
Y396683D01*
D02*
G37*
G36*
X420237Y409481D02*
X420287Y409476D01*
X420348Y409470D01*
X420409Y409465D01*
X420482Y409448D01*
X420631Y409415D01*
X420798Y409365D01*
X420881Y409332D01*
X420959Y409293D01*
X421037Y409243D01*
X421114Y409193D01*
X421120Y409187D01*
X421131Y409182D01*
X421153Y409165D01*
X421181Y409137D01*
X421209Y409109D01*
X421247Y409071D01*
X421286Y409026D01*
X421331Y408982D01*
X421375Y408926D01*
X421419Y408860D01*
X421469Y408793D01*
X421514Y408721D01*
X421553Y408638D01*
X421597Y408555D01*
X421630Y408466D01*
X421664Y408366D01*
X421164Y408249D01*
Y408255D01*
X421159Y408266D01*
X421148Y408288D01*
X421137Y408316D01*
X421125Y408349D01*
X421109Y408394D01*
X421064Y408482D01*
X421009Y408582D01*
X420942Y408682D01*
X420859Y408777D01*
X420770Y408860D01*
X420759Y408871D01*
X420726Y408893D01*
X420670Y408921D01*
X420598Y408960D01*
X420504Y408993D01*
X420398Y409026D01*
X420271Y409049D01*
X420132Y409054D01*
X420087D01*
X420060Y409049D01*
X420021D01*
X419977Y409043D01*
X419871Y409026D01*
X419755Y409004D01*
X419632Y408965D01*
X419505Y408910D01*
X419388Y408838D01*
X419383D01*
X419377Y408826D01*
X419338Y408799D01*
X419288Y408754D01*
X419227Y408688D01*
X419155Y408604D01*
X419089Y408510D01*
X419028Y408394D01*
X418972Y408266D01*
Y408260D01*
X418966Y408249D01*
X418961Y408233D01*
X418955Y408205D01*
X418944Y408172D01*
X418933Y408133D01*
X418917Y408038D01*
X418894Y407927D01*
X418872Y407805D01*
X418861Y407672D01*
X418855Y407528D01*
Y407522D01*
Y407506D01*
Y407478D01*
Y407444D01*
X418861Y407406D01*
Y407356D01*
X418866Y407300D01*
X418872Y407239D01*
X418889Y407106D01*
X418917Y406962D01*
X418950Y406817D01*
X418994Y406673D01*
Y406668D01*
X419000Y406656D01*
X419011Y406640D01*
X419022Y406612D01*
X419055Y406545D01*
X419105Y406468D01*
X419166Y406379D01*
X419244Y406285D01*
X419333Y406201D01*
X419438Y406124D01*
X419444D01*
X419455Y406118D01*
X419472Y406107D01*
X419494Y406096D01*
X419521Y406085D01*
X419555Y406068D01*
X419632Y406035D01*
X419732Y406002D01*
X419843Y405974D01*
X419965Y405951D01*
X420093Y405946D01*
X420132D01*
X420165Y405951D01*
X420204D01*
X420243Y405957D01*
X420343Y405979D01*
X420459Y406007D01*
X420576Y406051D01*
X420698Y406112D01*
X420759Y406146D01*
X420815Y406190D01*
X420820Y406196D01*
X420826Y406201D01*
X420842Y406218D01*
X420864Y406235D01*
X420887Y406262D01*
X420915Y406296D01*
X420948Y406329D01*
X420975Y406373D01*
X421009Y406423D01*
X421048Y406479D01*
X421081Y406534D01*
X421114Y406601D01*
X421142Y406673D01*
X421170Y406751D01*
X421198Y406834D01*
X421220Y406923D01*
X421730Y406795D01*
Y406790D01*
X421725Y406767D01*
X421714Y406734D01*
X421697Y406690D01*
X421680Y406640D01*
X421658Y406579D01*
X421630Y406512D01*
X421597Y406440D01*
X421519Y406285D01*
X421419Y406129D01*
X421358Y406051D01*
X421297Y405974D01*
X421231Y405907D01*
X421153Y405840D01*
X421148Y405835D01*
X421137Y405824D01*
X421109Y405813D01*
X421081Y405791D01*
X421037Y405763D01*
X420992Y405735D01*
X420931Y405707D01*
X420870Y405680D01*
X420798Y405646D01*
X420720Y405619D01*
X420637Y405591D01*
X420548Y405563D01*
X420454Y405541D01*
X420354Y405530D01*
X420249Y405519D01*
X420138Y405513D01*
X420076D01*
X420032Y405519D01*
X419982D01*
X419921Y405524D01*
X419854Y405535D01*
X419777Y405546D01*
X419616Y405574D01*
X419449Y405619D01*
X419283Y405680D01*
X419205Y405718D01*
X419127Y405763D01*
X419122Y405768D01*
X419111Y405774D01*
X419089Y405791D01*
X419066Y405813D01*
X419033Y405835D01*
X418994Y405868D01*
X418950Y405907D01*
X418905Y405951D01*
X418861Y406002D01*
X418811Y406051D01*
X418711Y406179D01*
X418617Y406329D01*
X418534Y406495D01*
Y406501D01*
X418522Y406518D01*
X418517Y406545D01*
X418500Y406579D01*
X418489Y406623D01*
X418472Y406679D01*
X418450Y406740D01*
X418434Y406806D01*
X418417Y406878D01*
X418395Y406962D01*
X418367Y407134D01*
X418345Y407328D01*
X418334Y407528D01*
Y407533D01*
Y407555D01*
Y407589D01*
X418339Y407628D01*
Y407683D01*
X418345Y407739D01*
X418350Y407811D01*
X418362Y407883D01*
X418389Y408044D01*
X418428Y408221D01*
X418484Y408399D01*
X418561Y408571D01*
X418567Y408577D01*
X418572Y408593D01*
X418583Y408615D01*
X418606Y408643D01*
X418628Y408682D01*
X418656Y408727D01*
X418728Y408826D01*
X418822Y408937D01*
X418933Y409049D01*
X419061Y409160D01*
X419211Y409254D01*
X419216Y409259D01*
X419233Y409265D01*
X419255Y409276D01*
X419283Y409293D01*
X419327Y409309D01*
X419372Y409326D01*
X419427Y409348D01*
X419488Y409370D01*
X419555Y409392D01*
X419627Y409415D01*
X419782Y409448D01*
X419960Y409476D01*
X420143Y409487D01*
X420198D01*
X420237Y409481D01*
D02*
G37*
G36*
X424145Y406934D02*
X424666D01*
Y406501D01*
X424145D01*
Y405580D01*
X423673D01*
Y406501D01*
X422002D01*
Y406934D01*
X423762Y409420D01*
X424145D01*
Y406934D01*
D02*
G37*
G36*
X421229Y384481D02*
X421279Y384476D01*
X421340Y384470D01*
X421401Y384465D01*
X421473Y384448D01*
X421623Y384415D01*
X421790Y384365D01*
X421873Y384331D01*
X421951Y384293D01*
X422028Y384243D01*
X422106Y384193D01*
X422112Y384187D01*
X422123Y384182D01*
X422145Y384165D01*
X422172Y384137D01*
X422200Y384109D01*
X422239Y384071D01*
X422278Y384026D01*
X422322Y383982D01*
X422367Y383926D01*
X422411Y383860D01*
X422461Y383793D01*
X422506Y383721D01*
X422544Y383638D01*
X422589Y383555D01*
X422622Y383466D01*
X422655Y383366D01*
X422156Y383249D01*
Y383255D01*
X422150Y383266D01*
X422139Y383288D01*
X422128Y383316D01*
X422117Y383349D01*
X422100Y383394D01*
X422056Y383482D01*
X422001Y383582D01*
X421934Y383682D01*
X421851Y383776D01*
X421762Y383860D01*
X421751Y383871D01*
X421718Y383893D01*
X421662Y383921D01*
X421590Y383960D01*
X421495Y383993D01*
X421390Y384026D01*
X421262Y384049D01*
X421124Y384054D01*
X421079D01*
X421052Y384049D01*
X421013D01*
X420968Y384043D01*
X420863Y384026D01*
X420746Y384004D01*
X420624Y383965D01*
X420497Y383910D01*
X420380Y383838D01*
X420374D01*
X420369Y383826D01*
X420330Y383799D01*
X420280Y383754D01*
X420219Y383688D01*
X420147Y383604D01*
X420080Y383510D01*
X420019Y383394D01*
X419964Y383266D01*
Y383260D01*
X419958Y383249D01*
X419952Y383233D01*
X419947Y383205D01*
X419936Y383172D01*
X419925Y383133D01*
X419908Y383038D01*
X419886Y382927D01*
X419864Y382805D01*
X419853Y382672D01*
X419847Y382528D01*
Y382522D01*
Y382505D01*
Y382478D01*
Y382445D01*
X419853Y382406D01*
Y382356D01*
X419858Y382300D01*
X419864Y382239D01*
X419880Y382106D01*
X419908Y381962D01*
X419941Y381817D01*
X419986Y381673D01*
Y381667D01*
X419991Y381656D01*
X420003Y381640D01*
X420014Y381612D01*
X420047Y381545D01*
X420097Y381468D01*
X420158Y381379D01*
X420236Y381284D01*
X420324Y381201D01*
X420430Y381124D01*
X420435D01*
X420446Y381118D01*
X420463Y381107D01*
X420485Y381096D01*
X420513Y381085D01*
X420546Y381068D01*
X420624Y381035D01*
X420724Y381001D01*
X420835Y380974D01*
X420957Y380951D01*
X421085Y380946D01*
X421124D01*
X421157Y380951D01*
X421196D01*
X421235Y380957D01*
X421335Y380979D01*
X421451Y381007D01*
X421568Y381051D01*
X421690Y381113D01*
X421751Y381146D01*
X421806Y381190D01*
X421812Y381196D01*
X421817Y381201D01*
X421834Y381218D01*
X421856Y381235D01*
X421878Y381262D01*
X421906Y381296D01*
X421940Y381329D01*
X421967Y381373D01*
X422001Y381423D01*
X422039Y381479D01*
X422073Y381534D01*
X422106Y381601D01*
X422134Y381673D01*
X422161Y381751D01*
X422189Y381834D01*
X422211Y381923D01*
X422722Y381795D01*
Y381790D01*
X422716Y381767D01*
X422705Y381734D01*
X422689Y381690D01*
X422672Y381640D01*
X422650Y381579D01*
X422622Y381512D01*
X422589Y381440D01*
X422511Y381284D01*
X422411Y381129D01*
X422350Y381051D01*
X422289Y380974D01*
X422223Y380907D01*
X422145Y380840D01*
X422139Y380835D01*
X422128Y380824D01*
X422100Y380813D01*
X422073Y380791D01*
X422028Y380763D01*
X421984Y380735D01*
X421923Y380707D01*
X421862Y380680D01*
X421790Y380646D01*
X421712Y380619D01*
X421629Y380591D01*
X421540Y380563D01*
X421446Y380541D01*
X421346Y380530D01*
X421240Y380519D01*
X421129Y380513D01*
X421068D01*
X421024Y380519D01*
X420974D01*
X420913Y380524D01*
X420846Y380535D01*
X420768Y380546D01*
X420607Y380574D01*
X420441Y380619D01*
X420274Y380680D01*
X420197Y380718D01*
X420119Y380763D01*
X420114Y380768D01*
X420102Y380774D01*
X420080Y380791D01*
X420058Y380813D01*
X420025Y380835D01*
X419986Y380868D01*
X419941Y380907D01*
X419897Y380951D01*
X419853Y381001D01*
X419803Y381051D01*
X419703Y381179D01*
X419608Y381329D01*
X419525Y381495D01*
Y381501D01*
X419514Y381518D01*
X419509Y381545D01*
X419492Y381579D01*
X419481Y381623D01*
X419464Y381679D01*
X419442Y381740D01*
X419425Y381806D01*
X419409Y381878D01*
X419386Y381962D01*
X419359Y382134D01*
X419337Y382328D01*
X419325Y382528D01*
Y382533D01*
Y382556D01*
Y382589D01*
X419331Y382628D01*
Y382683D01*
X419337Y382739D01*
X419342Y382811D01*
X419353Y382883D01*
X419381Y383044D01*
X419420Y383222D01*
X419475Y383399D01*
X419553Y383571D01*
X419558Y383577D01*
X419564Y383593D01*
X419575Y383615D01*
X419597Y383643D01*
X419620Y383682D01*
X419647Y383727D01*
X419719Y383826D01*
X419814Y383937D01*
X419925Y384049D01*
X420052Y384159D01*
X420202Y384254D01*
X420208Y384259D01*
X420225Y384265D01*
X420247Y384276D01*
X420274Y384293D01*
X420319Y384309D01*
X420363Y384326D01*
X420419Y384348D01*
X420480Y384370D01*
X420546Y384392D01*
X420618Y384415D01*
X420774Y384448D01*
X420952Y384476D01*
X421135Y384487D01*
X421190D01*
X421229Y384481D01*
D02*
G37*
G36*
X424476Y384431D02*
X424548Y384420D01*
X424637Y384404D01*
X424737Y384376D01*
X424836Y384343D01*
X424936Y384298D01*
X424942D01*
X424948Y384293D01*
X424981Y384276D01*
X425031Y384243D01*
X425086Y384204D01*
X425153Y384148D01*
X425219Y384087D01*
X425286Y384015D01*
X425342Y383932D01*
X425347Y383921D01*
X425364Y383893D01*
X425386Y383843D01*
X425414Y383782D01*
X425442Y383710D01*
X425464Y383627D01*
X425480Y383532D01*
X425486Y383438D01*
Y383427D01*
Y383394D01*
X425480Y383349D01*
X425469Y383288D01*
X425453Y383216D01*
X425425Y383138D01*
X425392Y383061D01*
X425347Y382983D01*
X425342Y382972D01*
X425325Y382949D01*
X425292Y382911D01*
X425247Y382866D01*
X425192Y382816D01*
X425125Y382761D01*
X425047Y382711D01*
X424953Y382661D01*
X424959D01*
X424970Y382655D01*
X424986Y382650D01*
X425009Y382644D01*
X425070Y382622D01*
X425147Y382589D01*
X425236Y382544D01*
X425325Y382489D01*
X425408Y382417D01*
X425486Y382333D01*
X425491Y382322D01*
X425514Y382289D01*
X425547Y382234D01*
X425580Y382161D01*
X425614Y382073D01*
X425647Y381967D01*
X425669Y381845D01*
X425675Y381712D01*
Y381706D01*
Y381690D01*
Y381662D01*
X425669Y381629D01*
X425664Y381584D01*
X425652Y381534D01*
X425641Y381479D01*
X425630Y381418D01*
X425586Y381284D01*
X425553Y381212D01*
X425519Y381146D01*
X425475Y381074D01*
X425425Y381001D01*
X425369Y380929D01*
X425303Y380863D01*
X425297Y380857D01*
X425286Y380846D01*
X425264Y380829D01*
X425236Y380807D01*
X425203Y380780D01*
X425158Y380752D01*
X425108Y380718D01*
X425047Y380691D01*
X424986Y380657D01*
X424914Y380624D01*
X424842Y380596D01*
X424759Y380569D01*
X424670Y380546D01*
X424576Y380530D01*
X424481Y380519D01*
X424376Y380513D01*
X424326D01*
X424293Y380519D01*
X424248Y380524D01*
X424198Y380530D01*
X424143Y380541D01*
X424082Y380552D01*
X423948Y380585D01*
X423810Y380641D01*
X423738Y380674D01*
X423671Y380713D01*
X423604Y380763D01*
X423538Y380813D01*
X423532Y380818D01*
X423521Y380829D01*
X423505Y380846D01*
X423488Y380868D01*
X423460Y380896D01*
X423432Y380935D01*
X423399Y380974D01*
X423366Y381024D01*
X423333Y381079D01*
X423299Y381135D01*
X423238Y381268D01*
X423188Y381423D01*
X423172Y381507D01*
X423161Y381595D01*
X423632Y381656D01*
Y381651D01*
X423638Y381640D01*
X423643Y381617D01*
X423649Y381590D01*
X423654Y381557D01*
X423666Y381518D01*
X423693Y381434D01*
X423732Y381334D01*
X423782Y381240D01*
X423838Y381151D01*
X423904Y381074D01*
X423915Y381068D01*
X423937Y381046D01*
X423982Y381018D01*
X424037Y380990D01*
X424104Y380957D01*
X424187Y380929D01*
X424282Y380907D01*
X424381Y380902D01*
X424415D01*
X424437Y380907D01*
X424498Y380913D01*
X424576Y380929D01*
X424664Y380957D01*
X424759Y380996D01*
X424853Y381051D01*
X424942Y381129D01*
X424953Y381140D01*
X424981Y381173D01*
X425014Y381224D01*
X425059Y381290D01*
X425103Y381373D01*
X425136Y381468D01*
X425164Y381579D01*
X425175Y381701D01*
Y381706D01*
Y381717D01*
Y381734D01*
X425170Y381756D01*
X425164Y381817D01*
X425147Y381890D01*
X425125Y381978D01*
X425086Y382067D01*
X425031Y382156D01*
X424959Y382239D01*
X424948Y382250D01*
X424920Y382272D01*
X424875Y382306D01*
X424814Y382345D01*
X424737Y382383D01*
X424642Y382417D01*
X424537Y382439D01*
X424420Y382450D01*
X424370D01*
X424332Y382445D01*
X424282Y382439D01*
X424226Y382428D01*
X424159Y382417D01*
X424087Y382400D01*
X424143Y382816D01*
X424171D01*
X424193Y382811D01*
X424265D01*
X424326Y382822D01*
X424398Y382833D01*
X424481Y382850D01*
X424576Y382877D01*
X424664Y382916D01*
X424759Y382966D01*
X424764D01*
X424770Y382972D01*
X424798Y382994D01*
X424836Y383033D01*
X424881Y383083D01*
X424925Y383155D01*
X424964Y383238D01*
X424992Y383332D01*
X425003Y383388D01*
Y383449D01*
Y383455D01*
Y383460D01*
Y383493D01*
X424992Y383538D01*
X424981Y383599D01*
X424959Y383665D01*
X424931Y383738D01*
X424887Y383810D01*
X424825Y383876D01*
X424820Y383882D01*
X424792Y383904D01*
X424753Y383932D01*
X424703Y383965D01*
X424637Y383993D01*
X424559Y384021D01*
X424470Y384043D01*
X424370Y384049D01*
X424326D01*
X424276Y384037D01*
X424209Y384026D01*
X424137Y384004D01*
X424065Y383976D01*
X423987Y383932D01*
X423915Y383876D01*
X423910Y383871D01*
X423887Y383843D01*
X423854Y383804D01*
X423815Y383749D01*
X423776Y383677D01*
X423738Y383588D01*
X423704Y383482D01*
X423682Y383360D01*
X423210Y383443D01*
Y383449D01*
X423216Y383466D01*
X423221Y383488D01*
X423227Y383521D01*
X423238Y383560D01*
X423255Y383604D01*
X423288Y383710D01*
X423344Y383832D01*
X423410Y383954D01*
X423493Y384071D01*
X423599Y384176D01*
X423604Y384182D01*
X423616Y384187D01*
X423632Y384198D01*
X423654Y384215D01*
X423682Y384237D01*
X423721Y384259D01*
X423760Y384282D01*
X423810Y384309D01*
X423921Y384354D01*
X424048Y384398D01*
X424198Y384426D01*
X424276Y384437D01*
X424415D01*
X424476Y384431D01*
D02*
G37*
G36*
X409248Y376481D02*
X409298Y376476D01*
X409360Y376470D01*
X409420Y376465D01*
X409493Y376448D01*
X409643Y376415D01*
X409809Y376365D01*
X409892Y376331D01*
X409970Y376293D01*
X410048Y376243D01*
X410125Y376193D01*
X410131Y376187D01*
X410142Y376182D01*
X410164Y376165D01*
X410192Y376137D01*
X410220Y376110D01*
X410259Y376071D01*
X410297Y376026D01*
X410342Y375982D01*
X410386Y375926D01*
X410431Y375860D01*
X410481Y375793D01*
X410525Y375721D01*
X410564Y375638D01*
X410608Y375554D01*
X410641Y375466D01*
X410675Y375366D01*
X410175Y375249D01*
Y375255D01*
X410170Y375266D01*
X410159Y375288D01*
X410148Y375316D01*
X410137Y375349D01*
X410120Y375394D01*
X410075Y375482D01*
X410020Y375582D01*
X409953Y375682D01*
X409870Y375777D01*
X409781Y375860D01*
X409770Y375871D01*
X409737Y375893D01*
X409681Y375921D01*
X409609Y375960D01*
X409515Y375993D01*
X409409Y376026D01*
X409282Y376048D01*
X409143Y376054D01*
X409099D01*
X409071Y376048D01*
X409032D01*
X408988Y376043D01*
X408882Y376026D01*
X408766Y376004D01*
X408643Y375965D01*
X408516Y375910D01*
X408399Y375838D01*
X408394D01*
X408388Y375827D01*
X408349Y375799D01*
X408299Y375754D01*
X408238Y375688D01*
X408166Y375604D01*
X408100Y375510D01*
X408039Y375394D01*
X407983Y375266D01*
Y375260D01*
X407977Y375249D01*
X407972Y375233D01*
X407966Y375205D01*
X407955Y375171D01*
X407944Y375133D01*
X407928Y375038D01*
X407905Y374927D01*
X407883Y374805D01*
X407872Y374672D01*
X407866Y374528D01*
Y374522D01*
Y374505D01*
Y374478D01*
Y374445D01*
X407872Y374406D01*
Y374356D01*
X407878Y374300D01*
X407883Y374239D01*
X407900Y374106D01*
X407928Y373962D01*
X407961Y373817D01*
X408005Y373673D01*
Y373668D01*
X408011Y373656D01*
X408022Y373640D01*
X408033Y373612D01*
X408066Y373545D01*
X408116Y373468D01*
X408177Y373379D01*
X408255Y373285D01*
X408344Y373201D01*
X408449Y373124D01*
X408455D01*
X408466Y373118D01*
X408483Y373107D01*
X408505Y373096D01*
X408532Y373085D01*
X408566Y373068D01*
X408643Y373035D01*
X408743Y373002D01*
X408854Y372974D01*
X408977Y372952D01*
X409104Y372946D01*
X409143D01*
X409176Y372952D01*
X409215D01*
X409254Y372957D01*
X409354Y372979D01*
X409471Y373007D01*
X409587Y373052D01*
X409709Y373113D01*
X409770Y373146D01*
X409826Y373190D01*
X409831Y373196D01*
X409837Y373201D01*
X409853Y373218D01*
X409876Y373235D01*
X409898Y373262D01*
X409926Y373296D01*
X409959Y373329D01*
X409987Y373373D01*
X410020Y373423D01*
X410059Y373479D01*
X410092Y373534D01*
X410125Y373601D01*
X410153Y373673D01*
X410181Y373751D01*
X410209Y373834D01*
X410231Y373923D01*
X410741Y373795D01*
Y373790D01*
X410736Y373767D01*
X410725Y373734D01*
X410708Y373690D01*
X410691Y373640D01*
X410669Y373579D01*
X410641Y373512D01*
X410608Y373440D01*
X410531Y373285D01*
X410431Y373129D01*
X410370Y373052D01*
X410309Y372974D01*
X410242Y372907D01*
X410164Y372840D01*
X410159Y372835D01*
X410148Y372824D01*
X410120Y372813D01*
X410092Y372791D01*
X410048Y372763D01*
X410003Y372735D01*
X409942Y372707D01*
X409881Y372680D01*
X409809Y372646D01*
X409731Y372619D01*
X409648Y372591D01*
X409559Y372563D01*
X409465Y372541D01*
X409365Y372530D01*
X409260Y372519D01*
X409149Y372513D01*
X409088D01*
X409043Y372519D01*
X408993D01*
X408932Y372524D01*
X408865Y372535D01*
X408788Y372546D01*
X408627Y372574D01*
X408460Y372619D01*
X408294Y372680D01*
X408216Y372718D01*
X408139Y372763D01*
X408133Y372768D01*
X408122Y372774D01*
X408100Y372791D01*
X408077Y372813D01*
X408044Y372835D01*
X408005Y372868D01*
X407961Y372907D01*
X407916Y372952D01*
X407872Y373002D01*
X407822Y373052D01*
X407722Y373179D01*
X407628Y373329D01*
X407545Y373495D01*
Y373501D01*
X407534Y373518D01*
X407528Y373545D01*
X407511Y373579D01*
X407500Y373623D01*
X407484Y373679D01*
X407461Y373740D01*
X407445Y373806D01*
X407428Y373878D01*
X407406Y373962D01*
X407378Y374134D01*
X407356Y374328D01*
X407345Y374528D01*
Y374533D01*
Y374555D01*
Y374589D01*
X407350Y374628D01*
Y374683D01*
X407356Y374739D01*
X407362Y374811D01*
X407373Y374883D01*
X407400Y375044D01*
X407439Y375221D01*
X407495Y375399D01*
X407572Y375571D01*
X407578Y375577D01*
X407584Y375593D01*
X407595Y375616D01*
X407617Y375643D01*
X407639Y375682D01*
X407667Y375727D01*
X407739Y375827D01*
X407833Y375937D01*
X407944Y376048D01*
X408072Y376160D01*
X408222Y376254D01*
X408227Y376259D01*
X408244Y376265D01*
X408266Y376276D01*
X408294Y376293D01*
X408338Y376309D01*
X408383Y376326D01*
X408438Y376348D01*
X408499Y376370D01*
X408566Y376393D01*
X408638Y376415D01*
X408793Y376448D01*
X408971Y376476D01*
X409154Y376487D01*
X409210D01*
X409248Y376481D01*
D02*
G37*
G36*
X412540Y376431D02*
X412584Y376426D01*
X412640Y376420D01*
X412701Y376409D01*
X412762Y376398D01*
X412906Y376359D01*
X413050Y376304D01*
X413122Y376270D01*
X413195Y376232D01*
X413261Y376182D01*
X413322Y376126D01*
X413328Y376121D01*
X413339Y376115D01*
X413350Y376093D01*
X413372Y376071D01*
X413400Y376043D01*
X413428Y376004D01*
X413455Y375965D01*
X413489Y375915D01*
X413544Y375810D01*
X413600Y375677D01*
X413622Y375610D01*
X413633Y375532D01*
X413644Y375455D01*
X413650Y375371D01*
Y375360D01*
Y375332D01*
X413644Y375288D01*
X413638Y375227D01*
X413627Y375160D01*
X413605Y375083D01*
X413583Y374999D01*
X413550Y374916D01*
X413544Y374905D01*
X413533Y374877D01*
X413511Y374833D01*
X413478Y374772D01*
X413433Y374705D01*
X413378Y374622D01*
X413311Y374539D01*
X413233Y374445D01*
X413222Y374433D01*
X413195Y374400D01*
X413167Y374372D01*
X413139Y374345D01*
X413106Y374311D01*
X413061Y374267D01*
X413017Y374222D01*
X412961Y374173D01*
X412906Y374117D01*
X412839Y374056D01*
X412767Y373995D01*
X412689Y373923D01*
X412601Y373851D01*
X412512Y373773D01*
X412506Y373767D01*
X412495Y373756D01*
X412473Y373740D01*
X412445Y373717D01*
X412412Y373684D01*
X412373Y373651D01*
X412284Y373579D01*
X412190Y373495D01*
X412101Y373412D01*
X412023Y373340D01*
X411990Y373312D01*
X411962Y373285D01*
X411957Y373279D01*
X411940Y373262D01*
X411918Y373240D01*
X411890Y373207D01*
X411863Y373168D01*
X411829Y373129D01*
X411763Y373035D01*
X413655D01*
Y372580D01*
X411108D01*
Y372585D01*
Y372607D01*
Y372641D01*
X411113Y372685D01*
X411119Y372735D01*
X411130Y372791D01*
X411141Y372846D01*
X411163Y372907D01*
Y372913D01*
X411169Y372918D01*
X411180Y372952D01*
X411202Y373002D01*
X411235Y373068D01*
X411280Y373146D01*
X411335Y373235D01*
X411396Y373323D01*
X411474Y373418D01*
Y373423D01*
X411485Y373429D01*
X411513Y373462D01*
X411563Y373512D01*
X411635Y373584D01*
X411718Y373668D01*
X411824Y373767D01*
X411951Y373878D01*
X412090Y373995D01*
X412096Y374001D01*
X412118Y374017D01*
X412151Y374045D01*
X412190Y374078D01*
X412240Y374123D01*
X412301Y374173D01*
X412362Y374228D01*
X412434Y374289D01*
X412573Y374422D01*
X412712Y374555D01*
X412778Y374622D01*
X412839Y374689D01*
X412895Y374750D01*
X412939Y374811D01*
Y374816D01*
X412950Y374822D01*
X412961Y374838D01*
X412972Y374861D01*
X413011Y374922D01*
X413056Y374994D01*
X413095Y375083D01*
X413133Y375177D01*
X413156Y375283D01*
X413167Y375382D01*
Y375388D01*
Y375394D01*
X413161Y375427D01*
X413156Y375482D01*
X413139Y375543D01*
X413117Y375621D01*
X413078Y375699D01*
X413028Y375777D01*
X412961Y375854D01*
X412950Y375865D01*
X412923Y375887D01*
X412884Y375915D01*
X412823Y375954D01*
X412745Y375987D01*
X412656Y376021D01*
X412551Y376043D01*
X412434Y376048D01*
X412401D01*
X412379Y376043D01*
X412312Y376037D01*
X412234Y376021D01*
X412151Y375998D01*
X412057Y375960D01*
X411968Y375910D01*
X411885Y375843D01*
X411874Y375832D01*
X411851Y375804D01*
X411818Y375760D01*
X411785Y375693D01*
X411746Y375616D01*
X411713Y375516D01*
X411691Y375405D01*
X411679Y375277D01*
X411197Y375327D01*
Y375332D01*
X411202Y375349D01*
Y375377D01*
X411208Y375416D01*
X411219Y375460D01*
X411230Y375510D01*
X411246Y375571D01*
X411263Y375632D01*
X411307Y375765D01*
X411374Y375899D01*
X411413Y375965D01*
X411463Y376032D01*
X411513Y376093D01*
X411568Y376148D01*
X411574Y376154D01*
X411585Y376160D01*
X411602Y376176D01*
X411629Y376193D01*
X411663Y376215D01*
X411702Y376237D01*
X411746Y376265D01*
X411801Y376293D01*
X411863Y376320D01*
X411929Y376348D01*
X412001Y376370D01*
X412079Y376393D01*
X412162Y376409D01*
X412251Y376426D01*
X412345Y376431D01*
X412445Y376437D01*
X412501D01*
X412540Y376431D01*
D02*
G37*
G36*
X378101Y453981D02*
X378151Y453976D01*
X378212Y453970D01*
X378273Y453965D01*
X378345Y453948D01*
X378495Y453915D01*
X378661Y453865D01*
X378745Y453831D01*
X378822Y453793D01*
X378900Y453743D01*
X378978Y453693D01*
X378983Y453687D01*
X378994Y453682D01*
X379017Y453665D01*
X379044Y453637D01*
X379072Y453610D01*
X379111Y453571D01*
X379150Y453526D01*
X379194Y453482D01*
X379239Y453426D01*
X379283Y453360D01*
X379333Y453293D01*
X379377Y453221D01*
X379416Y453138D01*
X379461Y453055D01*
X379494Y452966D01*
X379527Y452866D01*
X379028Y452749D01*
Y452755D01*
X379022Y452766D01*
X379011Y452788D01*
X379000Y452816D01*
X378989Y452849D01*
X378972Y452893D01*
X378928Y452982D01*
X378872Y453082D01*
X378806Y453182D01*
X378723Y453276D01*
X378634Y453360D01*
X378623Y453371D01*
X378589Y453393D01*
X378534Y453421D01*
X378462Y453460D01*
X378367Y453493D01*
X378262Y453526D01*
X378134Y453548D01*
X377995Y453554D01*
X377951D01*
X377923Y453548D01*
X377885D01*
X377840Y453543D01*
X377735Y453526D01*
X377618Y453504D01*
X377496Y453465D01*
X377368Y453410D01*
X377252Y453338D01*
X377246D01*
X377241Y453327D01*
X377202Y453299D01*
X377152Y453254D01*
X377091Y453188D01*
X377019Y453104D01*
X376952Y453010D01*
X376891Y452893D01*
X376835Y452766D01*
Y452760D01*
X376830Y452749D01*
X376824Y452733D01*
X376819Y452705D01*
X376808Y452672D01*
X376797Y452633D01*
X376780Y452538D01*
X376758Y452427D01*
X376736Y452305D01*
X376725Y452172D01*
X376719Y452028D01*
Y452022D01*
Y452006D01*
Y451978D01*
Y451944D01*
X376725Y451906D01*
Y451856D01*
X376730Y451800D01*
X376736Y451739D01*
X376752Y451606D01*
X376780Y451462D01*
X376813Y451317D01*
X376858Y451173D01*
Y451167D01*
X376863Y451156D01*
X376874Y451140D01*
X376885Y451112D01*
X376919Y451045D01*
X376969Y450968D01*
X377030Y450879D01*
X377108Y450785D01*
X377196Y450701D01*
X377302Y450624D01*
X377307D01*
X377318Y450618D01*
X377335Y450607D01*
X377357Y450596D01*
X377385Y450585D01*
X377418Y450568D01*
X377496Y450535D01*
X377596Y450501D01*
X377707Y450474D01*
X377829Y450452D01*
X377957Y450446D01*
X377995D01*
X378029Y450452D01*
X378068D01*
X378106Y450457D01*
X378206Y450479D01*
X378323Y450507D01*
X378439Y450552D01*
X378561Y450612D01*
X378623Y450646D01*
X378678Y450690D01*
X378684Y450696D01*
X378689Y450701D01*
X378706Y450718D01*
X378728Y450735D01*
X378750Y450762D01*
X378778Y450796D01*
X378811Y450829D01*
X378839Y450873D01*
X378872Y450923D01*
X378911Y450979D01*
X378944Y451034D01*
X378978Y451101D01*
X379006Y451173D01*
X379033Y451251D01*
X379061Y451334D01*
X379083Y451423D01*
X379594Y451295D01*
Y451290D01*
X379588Y451267D01*
X379577Y451234D01*
X379561Y451190D01*
X379544Y451140D01*
X379522Y451079D01*
X379494Y451012D01*
X379461Y450940D01*
X379383Y450785D01*
X379283Y450629D01*
X379222Y450552D01*
X379161Y450474D01*
X379094Y450407D01*
X379017Y450341D01*
X379011Y450335D01*
X379000Y450324D01*
X378972Y450313D01*
X378944Y450291D01*
X378900Y450263D01*
X378856Y450235D01*
X378795Y450207D01*
X378734Y450180D01*
X378661Y450146D01*
X378584Y450118D01*
X378501Y450091D01*
X378412Y450063D01*
X378317Y450041D01*
X378218Y450030D01*
X378112Y450019D01*
X378001Y450013D01*
X377940D01*
X377896Y450019D01*
X377846D01*
X377784Y450024D01*
X377718Y450035D01*
X377640Y450046D01*
X377479Y450074D01*
X377313Y450118D01*
X377146Y450180D01*
X377069Y450218D01*
X376991Y450263D01*
X376985Y450268D01*
X376974Y450274D01*
X376952Y450291D01*
X376930Y450313D01*
X376897Y450335D01*
X376858Y450368D01*
X376813Y450407D01*
X376769Y450452D01*
X376725Y450501D01*
X376675Y450552D01*
X376575Y450679D01*
X376480Y450829D01*
X376397Y450995D01*
Y451001D01*
X376386Y451018D01*
X376380Y451045D01*
X376364Y451079D01*
X376353Y451123D01*
X376336Y451179D01*
X376314Y451240D01*
X376297Y451306D01*
X376280Y451378D01*
X376258Y451462D01*
X376231Y451634D01*
X376208Y451828D01*
X376197Y452028D01*
Y452033D01*
Y452056D01*
Y452089D01*
X376203Y452128D01*
Y452183D01*
X376208Y452239D01*
X376214Y452311D01*
X376225Y452383D01*
X376253Y452544D01*
X376292Y452722D01*
X376347Y452899D01*
X376425Y453071D01*
X376430Y453077D01*
X376436Y453093D01*
X376447Y453116D01*
X376469Y453143D01*
X376491Y453182D01*
X376519Y453227D01*
X376591Y453327D01*
X376686Y453437D01*
X376797Y453548D01*
X376924Y453659D01*
X377074Y453754D01*
X377080Y453759D01*
X377096Y453765D01*
X377119Y453776D01*
X377146Y453793D01*
X377191Y453809D01*
X377235Y453826D01*
X377291Y453848D01*
X377352Y453870D01*
X377418Y453893D01*
X377490Y453915D01*
X377646Y453948D01*
X377823Y453976D01*
X378007Y453987D01*
X378062D01*
X378101Y453981D01*
D02*
G37*
G36*
X381803Y450080D02*
X381331D01*
Y453082D01*
X381326Y453077D01*
X381298Y453055D01*
X381264Y453021D01*
X381209Y452982D01*
X381148Y452932D01*
X381070Y452877D01*
X380981Y452816D01*
X380881Y452755D01*
X380876D01*
X380870Y452749D01*
X380837Y452727D01*
X380782Y452699D01*
X380715Y452666D01*
X380637Y452627D01*
X380554Y452588D01*
X380471Y452549D01*
X380387Y452516D01*
Y452971D01*
X380393D01*
X380404Y452982D01*
X380426Y452988D01*
X380454Y453005D01*
X380487Y453021D01*
X380526Y453043D01*
X380621Y453099D01*
X380732Y453160D01*
X380843Y453238D01*
X380959Y453327D01*
X381076Y453421D01*
X381081Y453426D01*
X381087Y453432D01*
X381103Y453448D01*
X381126Y453465D01*
X381176Y453521D01*
X381242Y453587D01*
X381309Y453665D01*
X381381Y453754D01*
X381442Y453843D01*
X381498Y453937D01*
X381803D01*
Y450080D01*
D02*
G37*
%LPC*%
G36*
X443164Y382785D02*
X443155D01*
X443139D01*
X443106Y382781D01*
X443068Y382772D01*
X443027Y382764D01*
X442981Y382747D01*
X442935Y382726D01*
X442889Y382697D01*
X442885Y382693D01*
X442869Y382681D01*
X442848Y382664D01*
X442823Y382639D01*
X442794Y382606D01*
X442765Y382564D01*
X442739Y382518D01*
X442719Y382464D01*
X442715Y382456D01*
X442710Y382439D01*
X442702Y382402D01*
X442694Y382356D01*
X442685Y382298D01*
X442677Y382227D01*
X442669Y382140D01*
Y381383D01*
X443659D01*
Y382202D01*
X443655Y382290D01*
X443651Y382327D01*
X443646Y382360D01*
Y382365D01*
X443642Y382381D01*
X443638Y382406D01*
X443630Y382435D01*
X443605Y382506D01*
X443572Y382577D01*
X443567Y382581D01*
X443559Y382593D01*
X443547Y382610D01*
X443530Y382631D01*
X443505Y382651D01*
X443480Y382681D01*
X443447Y382701D01*
X443409Y382726D01*
X443405Y382731D01*
X443393Y382735D01*
X443368Y382743D01*
X443339Y382755D01*
X443305Y382768D01*
X443264Y382776D01*
X443214Y382781D01*
X443164Y382785D01*
D02*
G37*
G36*
X441903Y382660D02*
X441895D01*
X441878D01*
X441853Y382656D01*
X441820Y382651D01*
X441779Y382643D01*
X441737Y382631D01*
X441695Y382614D01*
X441654Y382589D01*
X441650Y382585D01*
X441637Y382577D01*
X441616Y382560D01*
X441596Y382539D01*
X441571Y382510D01*
X441546Y382477D01*
X441521Y382435D01*
X441504Y382389D01*
Y382385D01*
X441496Y382365D01*
X441492Y382335D01*
X441483Y382290D01*
X441475Y382227D01*
X441471Y382156D01*
X441462Y382065D01*
Y381383D01*
X442328D01*
Y382090D01*
X442323Y382144D01*
X442319Y382202D01*
X442315Y382260D01*
X442307Y382319D01*
X442299Y382365D01*
X442294Y382373D01*
X442290Y382389D01*
X442278Y382414D01*
X442261Y382448D01*
X442244Y382481D01*
X442219Y382518D01*
X442186Y382556D01*
X442153Y382585D01*
X442149Y382589D01*
X442136Y382597D01*
X442111Y382610D01*
X442082Y382622D01*
X442049Y382635D01*
X442007Y382647D01*
X441957Y382656D01*
X441903Y382660D01*
D02*
G37*
G36*
X442814Y402801D02*
X442024Y402502D01*
X442020D01*
X442007Y402498D01*
X441987Y402489D01*
X441962Y402481D01*
X441932Y402468D01*
X441895Y402456D01*
X441853Y402444D01*
X441812Y402427D01*
X441716Y402394D01*
X441616Y402360D01*
X441516Y402327D01*
X441421Y402298D01*
X441425D01*
X441433Y402294D01*
X441450D01*
X441467Y402285D01*
X441496Y402281D01*
X441525Y402273D01*
X441596Y402256D01*
X441679Y402236D01*
X441770Y402206D01*
X441870Y402177D01*
X441974Y402140D01*
X442814Y401828D01*
Y402801D01*
D02*
G37*
G36*
X442990Y445620D02*
X442986D01*
X442969D01*
X442948D01*
X442915Y445616D01*
X442878D01*
X442836Y445612D01*
X442786Y445608D01*
X442736Y445604D01*
X442624Y445583D01*
X442507Y445558D01*
X442399Y445520D01*
X442345Y445496D01*
X442299Y445471D01*
X442295D01*
X442287Y445462D01*
X442274Y445454D01*
X442258Y445446D01*
X442216Y445412D01*
X442166Y445371D01*
X442112Y445317D01*
X442058Y445254D01*
X442012Y445184D01*
X441975Y445109D01*
X441971Y445100D01*
X441967Y445080D01*
X441954Y445042D01*
X441942Y444988D01*
X441933Y444921D01*
X441921Y444838D01*
X441917Y444788D01*
Y444734D01*
X441913Y444680D01*
Y444015D01*
X444109D01*
Y444697D01*
X444105Y444726D01*
X444101Y444788D01*
X444097Y444859D01*
X444088Y444934D01*
X444076Y445009D01*
X444059Y445071D01*
X444055Y445080D01*
X444051Y445100D01*
X444038Y445129D01*
X444022Y445167D01*
X443997Y445209D01*
X443972Y445250D01*
X443943Y445292D01*
X443909Y445333D01*
X443901Y445337D01*
X443884Y445354D01*
X443855Y445379D01*
X443814Y445408D01*
X443759Y445441D01*
X443697Y445479D01*
X443626Y445512D01*
X443547Y445541D01*
X443543D01*
X443535Y445545D01*
X443522Y445550D01*
X443506Y445554D01*
X443485Y445558D01*
X443456Y445566D01*
X443427Y445575D01*
X443393Y445583D01*
X443310Y445595D01*
X443215Y445608D01*
X443106Y445616D01*
X442990Y445620D01*
D02*
G37*
G36*
X323058Y402617D02*
X322106D01*
Y401760D01*
X322110Y401710D01*
X322114Y401652D01*
X322118Y401586D01*
X322127Y401519D01*
X322139Y401452D01*
X322156Y401394D01*
X322160Y401386D01*
X322168Y401369D01*
X322181Y401344D01*
X322197Y401311D01*
X322222Y401274D01*
X322251Y401236D01*
X322289Y401199D01*
X322330Y401170D01*
X322335Y401165D01*
X322351Y401157D01*
X322376Y401145D01*
X322409Y401128D01*
X322447Y401116D01*
X322488Y401103D01*
X322538Y401095D01*
X322588Y401091D01*
X322592D01*
X322597D01*
X322622Y401095D01*
X322659Y401099D01*
X322709Y401107D01*
X322759Y401128D01*
X322817Y401153D01*
X322871Y401190D01*
X322925Y401240D01*
X322929Y401249D01*
X322946Y401269D01*
X322967Y401303D01*
X322992Y401357D01*
X323017Y401419D01*
X323038Y401502D01*
X323054Y401598D01*
X323058Y401710D01*
Y402617D01*
D02*
G37*
G36*
X323088Y423485D02*
X320891D01*
Y422803D01*
X320895Y422774D01*
X320899Y422712D01*
X320903Y422641D01*
X320912Y422566D01*
X320924Y422491D01*
X320941Y422429D01*
X320945Y422421D01*
X320949Y422400D01*
X320962Y422371D01*
X320978Y422333D01*
X321003Y422292D01*
X321028Y422250D01*
X321057Y422208D01*
X321091Y422167D01*
X321099Y422163D01*
X321116Y422146D01*
X321145Y422121D01*
X321186Y422092D01*
X321240Y422059D01*
X321303Y422021D01*
X321374Y421988D01*
X321453Y421959D01*
X321457D01*
X321465Y421955D01*
X321478Y421950D01*
X321494Y421946D01*
X321515Y421942D01*
X321544Y421934D01*
X321573Y421925D01*
X321607Y421917D01*
X321690Y421905D01*
X321785Y421892D01*
X321894Y421884D01*
X322010Y421880D01*
X322014D01*
X322031D01*
X322052D01*
X322085Y421884D01*
X322122D01*
X322164Y421888D01*
X322214Y421892D01*
X322264Y421896D01*
X322376Y421917D01*
X322493Y421942D01*
X322601Y421980D01*
X322655Y422005D01*
X322701Y422029D01*
X322705D01*
X322713Y422038D01*
X322726Y422046D01*
X322742Y422054D01*
X322784Y422088D01*
X322834Y422129D01*
X322888Y422183D01*
X322942Y422246D01*
X322988Y422317D01*
X323025Y422391D01*
X323029Y422400D01*
X323033Y422421D01*
X323046Y422458D01*
X323058Y422512D01*
X323067Y422579D01*
X323079Y422662D01*
X323083Y422712D01*
Y422766D01*
X323088Y422820D01*
Y423485D01*
D02*
G37*
G36*
X382195Y383969D02*
X382106D01*
X382084Y383963D01*
X382023Y383958D01*
X381951Y383935D01*
X381862Y383908D01*
X381768Y383858D01*
X381673Y383797D01*
X381629Y383752D01*
X381585Y383708D01*
Y383702D01*
X381573Y383697D01*
X381562Y383680D01*
X381551Y383664D01*
X381512Y383608D01*
X381473Y383530D01*
X381429Y383436D01*
X381390Y383319D01*
X381368Y383186D01*
X381357Y383042D01*
Y383036D01*
Y383025D01*
Y383009D01*
X381363Y382981D01*
Y382948D01*
X381368Y382914D01*
X381385Y382831D01*
X381412Y382737D01*
X381446Y382637D01*
X381501Y382537D01*
X381573Y382448D01*
X381585Y382437D01*
X381612Y382415D01*
X381662Y382376D01*
X381723Y382337D01*
X381806Y382293D01*
X381901Y382254D01*
X382006Y382232D01*
X382123Y382221D01*
X382156D01*
X382178Y382226D01*
X382239Y382232D01*
X382312Y382248D01*
X382400Y382276D01*
X382489Y382315D01*
X382578Y382370D01*
X382661Y382448D01*
X382672Y382459D01*
X382695Y382492D01*
X382728Y382542D01*
X382772Y382615D01*
X382811Y382703D01*
X382844Y382809D01*
X382867Y382937D01*
X382878Y383081D01*
Y383086D01*
Y383097D01*
Y383120D01*
X382872Y383147D01*
Y383186D01*
X382867Y383225D01*
X382850Y383314D01*
X382828Y383419D01*
X382789Y383530D01*
X382733Y383636D01*
X382661Y383730D01*
Y383736D01*
X382650Y383741D01*
X382622Y383769D01*
X382578Y383808D01*
X382517Y383852D01*
X382439Y383891D01*
X382350Y383930D01*
X382250Y383958D01*
X382195Y383969D01*
D02*
G37*
G36*
X378921Y383913D02*
X377711D01*
Y382642D01*
X378854D01*
X378921Y382648D01*
X378998Y382653D01*
X379087Y382659D01*
X379176Y382670D01*
X379265Y382687D01*
X379342Y382709D01*
X379353Y382714D01*
X379376Y382726D01*
X379409Y382742D01*
X379453Y382764D01*
X379503Y382798D01*
X379553Y382837D01*
X379603Y382887D01*
X379642Y382942D01*
X379648Y382948D01*
X379659Y382970D01*
X379675Y383003D01*
X379697Y383047D01*
X379714Y383097D01*
X379731Y383153D01*
X379742Y383220D01*
X379747Y383286D01*
Y383292D01*
Y383297D01*
X379742Y383330D01*
X379736Y383381D01*
X379725Y383447D01*
X379697Y383514D01*
X379664Y383591D01*
X379614Y383664D01*
X379548Y383736D01*
X379537Y383741D01*
X379509Y383763D01*
X379464Y383791D01*
X379392Y383824D01*
X379309Y383858D01*
X379198Y383886D01*
X379070Y383908D01*
X378921Y383913D01*
D02*
G37*
G36*
X364220D02*
X363011D01*
Y382642D01*
X364154D01*
X364220Y382648D01*
X364298Y382653D01*
X364387Y382659D01*
X364476Y382670D01*
X364565Y382687D01*
X364642Y382709D01*
X364653Y382714D01*
X364676Y382726D01*
X364709Y382742D01*
X364753Y382764D01*
X364803Y382798D01*
X364853Y382837D01*
X364903Y382887D01*
X364942Y382942D01*
X364948Y382948D01*
X364959Y382970D01*
X364975Y383003D01*
X364998Y383047D01*
X365014Y383097D01*
X365031Y383153D01*
X365042Y383220D01*
X365047Y383286D01*
Y383292D01*
Y383297D01*
X365042Y383330D01*
X365036Y383381D01*
X365025Y383447D01*
X364998Y383514D01*
X364964Y383591D01*
X364914Y383664D01*
X364848Y383736D01*
X364837Y383741D01*
X364809Y383763D01*
X364764Y383791D01*
X364692Y383824D01*
X364609Y383858D01*
X364498Y383886D01*
X364370Y383908D01*
X364220Y383913D01*
D02*
G37*
G36*
X367434Y383969D02*
X367390D01*
X367340Y383958D01*
X367273Y383946D01*
X367201Y383924D01*
X367123Y383897D01*
X367051Y383852D01*
X366979Y383791D01*
X366973Y383786D01*
X366951Y383763D01*
X366923Y383724D01*
X366896Y383675D01*
X366862Y383613D01*
X366834Y383541D01*
X366812Y383464D01*
X366807Y383375D01*
Y383369D01*
Y383364D01*
X366812Y383330D01*
X366818Y383280D01*
X366829Y383220D01*
X366851Y383147D01*
X366879Y383075D01*
X366923Y382997D01*
X366979Y382931D01*
X366984Y382925D01*
X367012Y382903D01*
X367051Y382875D01*
X367101Y382848D01*
X367167Y382814D01*
X367245Y382787D01*
X367334Y382764D01*
X367434Y382759D01*
X367445D01*
X367478Y382764D01*
X367528Y382770D01*
X367595Y382781D01*
X367667Y382803D01*
X367739Y382831D01*
X367817Y382875D01*
X367883Y382931D01*
X367889Y382937D01*
X367911Y382964D01*
X367939Y382997D01*
X367972Y383047D01*
X368006Y383108D01*
X368033Y383181D01*
X368056Y383264D01*
X368061Y383353D01*
Y383358D01*
Y383364D01*
Y383397D01*
X368050Y383447D01*
X368039Y383508D01*
X368017Y383575D01*
X367983Y383647D01*
X367939Y383719D01*
X367878Y383791D01*
X367872Y383797D01*
X367845Y383819D01*
X367806Y383847D01*
X367756Y383880D01*
X367689Y383913D01*
X367617Y383941D01*
X367528Y383963D01*
X367434Y383969D01*
D02*
G37*
G36*
X367417Y382376D02*
X367384D01*
X367362Y382370D01*
X367301Y382365D01*
X367223Y382348D01*
X367134Y382320D01*
X367045Y382282D01*
X366951Y382226D01*
X366868Y382154D01*
X366857Y382143D01*
X366834Y382115D01*
X366801Y382065D01*
X366762Y382004D01*
X366718Y381921D01*
X366685Y381826D01*
X366663Y381721D01*
X366651Y381604D01*
Y381593D01*
Y381571D01*
X366657Y381532D01*
X366663Y381482D01*
X366674Y381421D01*
X366690Y381355D01*
X366712Y381288D01*
X366740Y381216D01*
X366746Y381210D01*
X366757Y381183D01*
X366779Y381149D01*
X366812Y381111D01*
X366851Y381061D01*
X366901Y381011D01*
X366957Y380966D01*
X367023Y380922D01*
X367034Y380916D01*
X367057Y380905D01*
X367095Y380889D01*
X367145Y380872D01*
X367206Y380855D01*
X367279Y380838D01*
X367356Y380827D01*
X367434Y380822D01*
X367467D01*
X367489Y380827D01*
X367556Y380833D01*
X367634Y380850D01*
X367723Y380877D01*
X367817Y380911D01*
X367906Y380966D01*
X367994Y381038D01*
X368006Y381049D01*
X368028Y381077D01*
X368067Y381127D01*
X368106Y381188D01*
X368144Y381266D01*
X368183Y381360D01*
X368205Y381471D01*
X368216Y381588D01*
Y381593D01*
Y381604D01*
Y381621D01*
X368211Y381643D01*
X368205Y381704D01*
X368189Y381788D01*
X368161Y381871D01*
X368122Y381965D01*
X368067Y382060D01*
X367989Y382148D01*
X367978Y382159D01*
X367950Y382182D01*
X367900Y382221D01*
X367834Y382265D01*
X367750Y382304D01*
X367650Y382343D01*
X367539Y382365D01*
X367417Y382376D01*
D02*
G37*
G36*
X382624Y406993D02*
X381414D01*
Y405722D01*
X382557D01*
X382624Y405728D01*
X382701Y405733D01*
X382790Y405739D01*
X382879Y405750D01*
X382968Y405766D01*
X383045Y405789D01*
X383056Y405794D01*
X383079Y405805D01*
X383112Y405822D01*
X383156Y405844D01*
X383206Y405877D01*
X383256Y405916D01*
X383306Y405966D01*
X383345Y406022D01*
X383351Y406027D01*
X383362Y406049D01*
X383378Y406083D01*
X383401Y406127D01*
X383417Y406177D01*
X383434Y406233D01*
X383445Y406299D01*
X383451Y406366D01*
Y406371D01*
Y406377D01*
X383445Y406410D01*
X383439Y406460D01*
X383428Y406527D01*
X383401Y406593D01*
X383367Y406671D01*
X383317Y406743D01*
X383251Y406815D01*
X383240Y406821D01*
X383212Y406843D01*
X383168Y406871D01*
X383095Y406904D01*
X383012Y406937D01*
X382901Y406965D01*
X382773Y406987D01*
X382624Y406993D01*
D02*
G37*
G36*
X435365Y438180D02*
X435331D01*
X435309Y438175D01*
X435254Y438169D01*
X435176Y438153D01*
X435093Y438125D01*
X434999Y438081D01*
X434910Y438025D01*
X434821Y437947D01*
X434810Y437936D01*
X434788Y437908D01*
X434749Y437858D01*
X434710Y437786D01*
X434671Y437703D01*
X434632Y437598D01*
X434610Y437481D01*
X434599Y437348D01*
Y437337D01*
Y437309D01*
X434604Y437259D01*
X434610Y437198D01*
X434621Y437126D01*
X434643Y437048D01*
X434665Y436965D01*
X434699Y436882D01*
X434704Y436871D01*
X434721Y436843D01*
X434743Y436804D01*
X434776Y436754D01*
X434815Y436704D01*
X434865Y436643D01*
X434921Y436593D01*
X434987Y436543D01*
X434999Y436538D01*
X435021Y436526D01*
X435060Y436504D01*
X435110Y436488D01*
X435165Y436465D01*
X435232Y436443D01*
X435304Y436432D01*
X435382Y436427D01*
X435409D01*
X435431Y436432D01*
X435487Y436438D01*
X435559Y436454D01*
X435637Y436488D01*
X435726Y436526D01*
X435814Y436587D01*
X435859Y436621D01*
X435898Y436665D01*
Y436671D01*
X435909Y436676D01*
X435931Y436710D01*
X435964Y436765D01*
X436009Y436837D01*
X436048Y436932D01*
X436081Y437043D01*
X436103Y437170D01*
X436114Y437320D01*
Y437326D01*
Y437337D01*
Y437359D01*
X436108Y437387D01*
Y437420D01*
X436103Y437459D01*
X436086Y437548D01*
X436064Y437648D01*
X436025Y437753D01*
X435970Y437853D01*
X435898Y437947D01*
X435886Y437958D01*
X435859Y437986D01*
X435814Y438019D01*
X435753Y438064D01*
X435676Y438108D01*
X435587Y438141D01*
X435481Y438169D01*
X435365Y438180D01*
D02*
G37*
G36*
X432124Y439518D02*
X430914D01*
Y438247D01*
X432057D01*
X432124Y438252D01*
X432201Y438258D01*
X432290Y438264D01*
X432379Y438275D01*
X432468Y438291D01*
X432545Y438314D01*
X432556Y438319D01*
X432579Y438330D01*
X432612Y438347D01*
X432656Y438369D01*
X432706Y438402D01*
X432756Y438441D01*
X432806Y438491D01*
X432845Y438547D01*
X432851Y438552D01*
X432862Y438574D01*
X432878Y438608D01*
X432901Y438652D01*
X432917Y438702D01*
X432934Y438758D01*
X432945Y438824D01*
X432951Y438891D01*
Y438896D01*
Y438902D01*
X432945Y438935D01*
X432939Y438985D01*
X432928Y439052D01*
X432901Y439118D01*
X432867Y439196D01*
X432817Y439268D01*
X432751Y439340D01*
X432740Y439346D01*
X432712Y439368D01*
X432667Y439396D01*
X432595Y439429D01*
X432512Y439462D01*
X432401Y439490D01*
X432273Y439512D01*
X432124Y439518D01*
D02*
G37*
G36*
X314421Y450913D02*
X313211D01*
Y449642D01*
X314354D01*
X314421Y449648D01*
X314498Y449653D01*
X314587Y449659D01*
X314676Y449670D01*
X314765Y449687D01*
X314842Y449709D01*
X314853Y449715D01*
X314876Y449726D01*
X314909Y449742D01*
X314953Y449764D01*
X315003Y449798D01*
X315053Y449836D01*
X315103Y449887D01*
X315142Y449942D01*
X315148Y449948D01*
X315159Y449970D01*
X315175Y450003D01*
X315197Y450047D01*
X315214Y450097D01*
X315231Y450153D01*
X315242Y450219D01*
X315247Y450286D01*
Y450292D01*
Y450297D01*
X315242Y450330D01*
X315236Y450381D01*
X315225Y450447D01*
X315197Y450514D01*
X315164Y450591D01*
X315114Y450664D01*
X315048Y450736D01*
X315037Y450741D01*
X315009Y450763D01*
X314964Y450791D01*
X314892Y450824D01*
X314809Y450858D01*
X314698Y450885D01*
X314570Y450908D01*
X314421Y450913D01*
D02*
G37*
G36*
X435595Y426654D02*
X434385Y424934D01*
X435595D01*
Y426654D01*
D02*
G37*
G36*
X432132Y426993D02*
X430922D01*
Y425722D01*
X432065D01*
X432132Y425728D01*
X432210Y425733D01*
X432298Y425739D01*
X432387Y425750D01*
X432476Y425766D01*
X432554Y425789D01*
X432565Y425794D01*
X432587Y425805D01*
X432620Y425822D01*
X432665Y425844D01*
X432715Y425877D01*
X432765Y425916D01*
X432815Y425966D01*
X432853Y426022D01*
X432859Y426027D01*
X432870Y426049D01*
X432887Y426083D01*
X432909Y426127D01*
X432926Y426177D01*
X432942Y426233D01*
X432953Y426299D01*
X432959Y426366D01*
Y426371D01*
Y426377D01*
X432953Y426410D01*
X432948Y426460D01*
X432937Y426527D01*
X432909Y426593D01*
X432876Y426671D01*
X432826Y426743D01*
X432759Y426815D01*
X432748Y426821D01*
X432720Y426843D01*
X432676Y426871D01*
X432604Y426904D01*
X432520Y426937D01*
X432409Y426965D01*
X432282Y426987D01*
X432132Y426993D01*
D02*
G37*
G36*
X298621Y450913D02*
X297411D01*
Y449642D01*
X298554D01*
X298621Y449648D01*
X298698Y449653D01*
X298787Y449659D01*
X298876Y449670D01*
X298965Y449687D01*
X299042Y449709D01*
X299053Y449715D01*
X299076Y449726D01*
X299109Y449742D01*
X299153Y449764D01*
X299203Y449798D01*
X299253Y449836D01*
X299303Y449887D01*
X299342Y449942D01*
X299348Y449948D01*
X299359Y449970D01*
X299375Y450003D01*
X299397Y450047D01*
X299414Y450097D01*
X299431Y450153D01*
X299442Y450219D01*
X299447Y450286D01*
Y450292D01*
Y450297D01*
X299442Y450330D01*
X299436Y450381D01*
X299425Y450447D01*
X299397Y450514D01*
X299364Y450591D01*
X299314Y450664D01*
X299248Y450736D01*
X299236Y450741D01*
X299209Y450763D01*
X299164Y450791D01*
X299092Y450824D01*
X299009Y450858D01*
X298898Y450885D01*
X298770Y450908D01*
X298621Y450913D01*
D02*
G37*
G36*
X330621Y450813D02*
X329411D01*
Y449542D01*
X330554D01*
X330621Y449548D01*
X330698Y449553D01*
X330787Y449559D01*
X330876Y449570D01*
X330965Y449587D01*
X331042Y449609D01*
X331053Y449614D01*
X331076Y449626D01*
X331109Y449642D01*
X331153Y449664D01*
X331203Y449698D01*
X331253Y449736D01*
X331303Y449787D01*
X331342Y449842D01*
X331348Y449848D01*
X331359Y449870D01*
X331375Y449903D01*
X331398Y449948D01*
X331414Y449997D01*
X331431Y450053D01*
X331442Y450119D01*
X331447Y450186D01*
Y450192D01*
Y450197D01*
X331442Y450231D01*
X331436Y450281D01*
X331425Y450347D01*
X331398Y450414D01*
X331364Y450491D01*
X331314Y450563D01*
X331248Y450636D01*
X331237Y450641D01*
X331209Y450663D01*
X331164Y450691D01*
X331092Y450724D01*
X331009Y450758D01*
X330898Y450785D01*
X330770Y450808D01*
X330621Y450813D01*
D02*
G37*
G36*
X420995Y451985D02*
X419785D01*
Y450714D01*
X420929D01*
X420995Y450719D01*
X421073Y450725D01*
X421162Y450730D01*
X421251Y450741D01*
X421340Y450758D01*
X421417Y450780D01*
X421428Y450786D01*
X421451Y450797D01*
X421484Y450814D01*
X421528Y450836D01*
X421578Y450869D01*
X421628Y450908D01*
X421678Y450958D01*
X421717Y451013D01*
X421723Y451019D01*
X421734Y451041D01*
X421750Y451074D01*
X421772Y451119D01*
X421789Y451169D01*
X421806Y451224D01*
X421817Y451291D01*
X421822Y451358D01*
Y451363D01*
Y451369D01*
X421817Y451402D01*
X421811Y451452D01*
X421800Y451518D01*
X421772Y451585D01*
X421739Y451663D01*
X421689Y451735D01*
X421623Y451807D01*
X421611Y451813D01*
X421584Y451835D01*
X421539Y451862D01*
X421467Y451896D01*
X421384Y451929D01*
X421273Y451957D01*
X421145Y451979D01*
X420995Y451985D01*
D02*
G37*
G36*
X353368Y454665D02*
X353312D01*
X353274Y454660D01*
X353223Y454654D01*
X353168Y454643D01*
X353107Y454632D01*
X353040Y454615D01*
X352963Y454593D01*
X352890Y454571D01*
X352813Y454537D01*
X352730Y454498D01*
X352652Y454454D01*
X352574Y454399D01*
X352497Y454343D01*
X352424Y454271D01*
X352419Y454265D01*
X352408Y454254D01*
X352391Y454232D01*
X352369Y454199D01*
X352336Y454160D01*
X352308Y454110D01*
X352274Y454049D01*
X352241Y453982D01*
X352202Y453905D01*
X352169Y453816D01*
X352141Y453722D01*
X352114Y453616D01*
X352086Y453505D01*
X352069Y453383D01*
X352058Y453250D01*
X352052Y453111D01*
Y453100D01*
Y453078D01*
Y453039D01*
X352058Y452989D01*
X352063Y452928D01*
X352075Y452856D01*
X352086Y452773D01*
X352097Y452689D01*
X352141Y452500D01*
X352169Y452406D01*
X352208Y452312D01*
X352247Y452217D01*
X352297Y452129D01*
X352352Y452040D01*
X352419Y451962D01*
X352424Y451957D01*
X352435Y451945D01*
X352458Y451923D01*
X352485Y451901D01*
X352524Y451868D01*
X352569Y451834D01*
X352619Y451801D01*
X352680Y451762D01*
X352741Y451723D01*
X352813Y451690D01*
X352890Y451657D01*
X352974Y451624D01*
X353068Y451601D01*
X353162Y451579D01*
X353262Y451568D01*
X353368Y451563D01*
X353418D01*
X353468Y451568D01*
X353534Y451574D01*
X353618Y451585D01*
X353701Y451607D01*
X353795Y451629D01*
X353884Y451662D01*
X353873Y451668D01*
X353845Y451690D01*
X353795Y451718D01*
X353734Y451751D01*
X353656Y451785D01*
X353573Y451823D01*
X353479Y451857D01*
X353379Y451885D01*
X353507Y452251D01*
X353512D01*
X353529Y452245D01*
X353551Y452240D01*
X353579Y452228D01*
X353618Y452217D01*
X353662Y452201D01*
X353762Y452162D01*
X353878Y452107D01*
X354000Y452045D01*
X354117Y451973D01*
X354234Y451885D01*
X354239Y451890D01*
X354256Y451901D01*
X354278Y451929D01*
X354306Y451962D01*
X354339Y452006D01*
X354378Y452057D01*
X354417Y452118D01*
X354461Y452190D01*
X354500Y452273D01*
X354539Y452367D01*
X354578Y452467D01*
X354611Y452573D01*
X354644Y452695D01*
X354666Y452822D01*
X354678Y452961D01*
X354683Y453111D01*
Y453117D01*
Y453133D01*
Y453155D01*
Y453189D01*
X354678Y453233D01*
Y453277D01*
X354672Y453333D01*
X354661Y453389D01*
X354644Y453516D01*
X354617Y453655D01*
X354578Y453794D01*
X354522Y453927D01*
Y453932D01*
X354517Y453943D01*
X354505Y453960D01*
X354495Y453982D01*
X354456Y454049D01*
X354406Y454127D01*
X354339Y454215D01*
X354256Y454304D01*
X354162Y454393D01*
X354056Y454471D01*
X354050D01*
X354045Y454482D01*
X354028Y454487D01*
X354000Y454504D01*
X353973Y454515D01*
X353939Y454532D01*
X353856Y454571D01*
X353756Y454604D01*
X353640Y454637D01*
X353507Y454660D01*
X353368Y454665D01*
D02*
G37*
G36*
X328989Y394475D02*
X327779Y392754D01*
X328989D01*
Y394475D01*
D02*
G37*
G36*
X325199Y394785D02*
X324311D01*
Y391855D01*
X325221D01*
X325260Y391861D01*
X325343Y391866D01*
X325437Y391872D01*
X325537Y391883D01*
X325637Y391899D01*
X325720Y391922D01*
X325731Y391927D01*
X325759Y391933D01*
X325798Y391949D01*
X325848Y391972D01*
X325904Y392005D01*
X325959Y392038D01*
X326014Y392077D01*
X326070Y392122D01*
X326076Y392133D01*
X326098Y392155D01*
X326131Y392194D01*
X326170Y392249D01*
X326214Y392321D01*
X326264Y392405D01*
X326309Y392499D01*
X326347Y392604D01*
Y392610D01*
X326353Y392621D01*
X326359Y392638D01*
X326364Y392660D01*
X326370Y392688D01*
X326381Y392726D01*
X326392Y392765D01*
X326403Y392810D01*
X326420Y392921D01*
X326436Y393048D01*
X326447Y393193D01*
X326453Y393348D01*
Y393354D01*
Y393376D01*
Y393404D01*
X326447Y393448D01*
Y393498D01*
X326442Y393553D01*
X326436Y393620D01*
X326431Y393687D01*
X326403Y393836D01*
X326370Y393992D01*
X326320Y394136D01*
X326286Y394208D01*
X326253Y394269D01*
Y394275D01*
X326242Y394286D01*
X326231Y394303D01*
X326220Y394325D01*
X326175Y394380D01*
X326120Y394447D01*
X326048Y394519D01*
X325964Y394591D01*
X325870Y394652D01*
X325770Y394702D01*
X325759Y394708D01*
X325731Y394713D01*
X325681Y394730D01*
X325609Y394747D01*
X325520Y394758D01*
X325410Y394774D01*
X325343Y394780D01*
X325271D01*
X325199Y394785D01*
D02*
G37*
G36*
X384299Y414490D02*
X383411D01*
Y411560D01*
X384321D01*
X384360Y411565D01*
X384443Y411571D01*
X384538Y411576D01*
X384637Y411587D01*
X384737Y411604D01*
X384821Y411626D01*
X384832Y411632D01*
X384859Y411637D01*
X384898Y411654D01*
X384948Y411676D01*
X385004Y411710D01*
X385059Y411743D01*
X385115Y411782D01*
X385170Y411826D01*
X385176Y411837D01*
X385198Y411860D01*
X385231Y411898D01*
X385270Y411954D01*
X385315Y412026D01*
X385365Y412109D01*
X385409Y412204D01*
X385448Y412309D01*
Y412315D01*
X385453Y412326D01*
X385459Y412342D01*
X385464Y412364D01*
X385470Y412392D01*
X385481Y412431D01*
X385492Y412470D01*
X385503Y412514D01*
X385520Y412625D01*
X385537Y412753D01*
X385548Y412897D01*
X385553Y413053D01*
Y413058D01*
Y413081D01*
Y413108D01*
X385548Y413153D01*
Y413203D01*
X385542Y413258D01*
X385537Y413325D01*
X385531Y413391D01*
X385503Y413541D01*
X385470Y413696D01*
X385420Y413841D01*
X385387Y413913D01*
X385353Y413974D01*
Y413980D01*
X385342Y413991D01*
X385331Y414007D01*
X385320Y414030D01*
X385276Y414085D01*
X385220Y414152D01*
X385148Y414224D01*
X385065Y414296D01*
X384970Y414357D01*
X384871Y414407D01*
X384859Y414412D01*
X384832Y414418D01*
X384782Y414435D01*
X384710Y414451D01*
X384621Y414462D01*
X384510Y414479D01*
X384443Y414485D01*
X384371D01*
X384299Y414490D01*
D02*
G37*
G36*
X384318Y422457D02*
X383430D01*
Y419526D01*
X384341D01*
X384379Y419532D01*
X384463Y419538D01*
X384557Y419543D01*
X384657Y419554D01*
X384757Y419571D01*
X384840Y419593D01*
X384851Y419599D01*
X384879Y419604D01*
X384918Y419621D01*
X384968Y419643D01*
X385023Y419676D01*
X385079Y419710D01*
X385134Y419748D01*
X385190Y419793D01*
X385195Y419804D01*
X385217Y419826D01*
X385251Y419865D01*
X385290Y419920D01*
X385334Y419993D01*
X385384Y420076D01*
X385428Y420170D01*
X385467Y420276D01*
Y420281D01*
X385473Y420292D01*
X385478Y420309D01*
X385484Y420331D01*
X385489Y420359D01*
X385501Y420398D01*
X385512Y420437D01*
X385523Y420481D01*
X385539Y420592D01*
X385556Y420720D01*
X385567Y420864D01*
X385573Y421019D01*
Y421025D01*
Y421047D01*
Y421075D01*
X385567Y421119D01*
Y421169D01*
X385561Y421225D01*
X385556Y421291D01*
X385550Y421358D01*
X385523Y421508D01*
X385489Y421663D01*
X385439Y421807D01*
X385406Y421880D01*
X385373Y421941D01*
Y421946D01*
X385362Y421957D01*
X385351Y421974D01*
X385340Y421996D01*
X385295Y422052D01*
X385240Y422118D01*
X385168Y422191D01*
X385084Y422263D01*
X384990Y422324D01*
X384890Y422374D01*
X384879Y422379D01*
X384851Y422385D01*
X384801Y422401D01*
X384729Y422418D01*
X384640Y422429D01*
X384529Y422446D01*
X384463Y422451D01*
X384390D01*
X384318Y422457D01*
D02*
G37*
G36*
X385171Y436957D02*
X384283D01*
Y434026D01*
X385193D01*
X385232Y434032D01*
X385315Y434038D01*
X385409Y434043D01*
X385509Y434054D01*
X385609Y434071D01*
X385693Y434093D01*
X385704Y434099D01*
X385731Y434104D01*
X385770Y434121D01*
X385820Y434143D01*
X385876Y434176D01*
X385931Y434210D01*
X385987Y434248D01*
X386042Y434293D01*
X386048Y434304D01*
X386070Y434326D01*
X386103Y434365D01*
X386142Y434420D01*
X386186Y434493D01*
X386236Y434576D01*
X386281Y434670D01*
X386320Y434776D01*
Y434781D01*
X386325Y434792D01*
X386331Y434809D01*
X386336Y434831D01*
X386342Y434859D01*
X386353Y434898D01*
X386364Y434937D01*
X386375Y434981D01*
X386392Y435092D01*
X386408Y435220D01*
X386420Y435364D01*
X386425Y435519D01*
Y435525D01*
Y435547D01*
Y435575D01*
X386420Y435619D01*
Y435669D01*
X386414Y435725D01*
X386408Y435791D01*
X386403Y435858D01*
X386375Y436008D01*
X386342Y436163D01*
X386292Y436307D01*
X386259Y436380D01*
X386225Y436441D01*
Y436446D01*
X386214Y436457D01*
X386203Y436474D01*
X386192Y436496D01*
X386148Y436552D01*
X386092Y436618D01*
X386020Y436691D01*
X385937Y436763D01*
X385842Y436824D01*
X385742Y436874D01*
X385731Y436879D01*
X385704Y436885D01*
X385654Y436901D01*
X385581Y436918D01*
X385493Y436929D01*
X385382Y436946D01*
X385315Y436951D01*
X385243D01*
X385171Y436957D01*
D02*
G37*
G36*
X376942Y410155D02*
X376909D01*
X376887Y410150D01*
X376832Y410144D01*
X376754Y410128D01*
X376671Y410100D01*
X376576Y410055D01*
X376487Y410000D01*
X376399Y409922D01*
X376388Y409911D01*
X376365Y409883D01*
X376326Y409833D01*
X376288Y409761D01*
X376249Y409678D01*
X376210Y409573D01*
X376188Y409456D01*
X376177Y409323D01*
Y409312D01*
Y409284D01*
X376182Y409234D01*
X376188Y409173D01*
X376199Y409101D01*
X376221Y409023D01*
X376243Y408940D01*
X376276Y408857D01*
X376282Y408846D01*
X376299Y408818D01*
X376321Y408779D01*
X376354Y408729D01*
X376393Y408679D01*
X376443Y408618D01*
X376499Y408568D01*
X376565Y408518D01*
X376576Y408513D01*
X376598Y408501D01*
X376637Y408479D01*
X376687Y408463D01*
X376743Y408440D01*
X376809Y408418D01*
X376881Y408407D01*
X376959Y408402D01*
X376987D01*
X377009Y408407D01*
X377065Y408413D01*
X377137Y408429D01*
X377214Y408463D01*
X377303Y408501D01*
X377392Y408563D01*
X377436Y408596D01*
X377475Y408640D01*
Y408646D01*
X377486Y408651D01*
X377509Y408685D01*
X377542Y408740D01*
X377586Y408812D01*
X377625Y408907D01*
X377658Y409018D01*
X377681Y409145D01*
X377692Y409295D01*
Y409301D01*
Y409312D01*
Y409334D01*
X377686Y409362D01*
Y409395D01*
X377681Y409434D01*
X377664Y409523D01*
X377642Y409623D01*
X377603Y409728D01*
X377547Y409828D01*
X377475Y409922D01*
X377464Y409933D01*
X377436Y409961D01*
X377392Y409994D01*
X377331Y410039D01*
X377253Y410083D01*
X377165Y410117D01*
X377059Y410144D01*
X376942Y410155D01*
D02*
G37*
G36*
X423673Y408654D02*
X422463Y406934D01*
X423673D01*
Y408654D01*
D02*
G37*
%LPD*%
D10*
X346543Y430847D02*
G03*
X346543Y430847I-492J0D01*
G01*
D11*
X357075Y425906D02*
G03*
X357075Y425906I-1181J0D01*
G01*
D12*
X406024Y437051D02*
G03*
X406024Y437051I-197J0D01*
G01*
Y424051D02*
G03*
X406024Y424051I-197J0D01*
G01*
X391413Y405449D02*
G03*
X391413Y405449I-197J0D01*
G01*
X331748Y373217D02*
G03*
X331748Y373217I-197J0D01*
G01*
X372555Y441063D02*
Y448937D01*
Y441063D02*
X386531D01*
Y448937D01*
X372555D02*
X386531D01*
X379543Y442500D02*
Y447500D01*
X364512Y398563D02*
Y406437D01*
Y398563D02*
X378488D01*
Y406437D01*
X364512D02*
X378488D01*
X371500Y400000D02*
Y405000D01*
X364512Y387563D02*
Y395437D01*
Y387563D02*
X378488D01*
Y395437D01*
X364512D02*
X378488D01*
X371500Y389000D02*
Y394000D01*
X405945Y370563D02*
Y378437D01*
X391968D02*
X405945D01*
X391968Y370563D02*
Y378437D01*
Y370563D02*
X405945D01*
X398957Y372000D02*
Y377000D01*
X422000Y398000D02*
Y403000D01*
X415012Y396563D02*
X428988D01*
X415012D02*
Y404437D01*
X428988D01*
Y396563D02*
Y404437D01*
X422000Y387500D02*
Y392500D01*
X415012Y386063D02*
X428988D01*
X415012D02*
Y393937D01*
X428988D01*
Y386063D02*
Y393937D01*
D13*
X408902Y381516D02*
G03*
X408902Y381516I-394J0D01*
G01*
X351957Y410157D02*
Y429843D01*
X359043Y410157D02*
Y429843D01*
X351957D02*
X359043D01*
X351957Y410157D02*
X359043D01*
X360756Y447256D02*
X363906D01*
Y445287D02*
Y447256D01*
X352095D02*
X355244D01*
X352095Y445287D02*
Y447256D01*
X404252Y437051D02*
Y437543D01*
Y430457D02*
Y430949D01*
X392835Y430457D02*
Y430949D01*
Y437051D02*
Y437543D01*
Y430457D02*
X404252D01*
X392835Y437543D02*
X404252D01*
X401043Y430500D02*
Y437500D01*
X404252Y424051D02*
Y424543D01*
Y417457D02*
Y417949D01*
X392835Y417457D02*
Y417949D01*
Y424051D02*
Y424543D01*
Y417457D02*
X404252D01*
X392835Y424543D02*
X404252D01*
X401043Y417500D02*
Y424500D01*
X392791Y404957D02*
Y405449D01*
Y411551D02*
Y412043D01*
X404209Y411551D02*
Y412043D01*
Y404957D02*
Y405449D01*
X392791Y412043D02*
X404209D01*
X392791Y404957D02*
X404209D01*
X396000Y405000D02*
Y412000D01*
X325000Y378000D02*
X332000D01*
X332043Y374791D02*
Y386209D01*
X324957Y374791D02*
Y386209D01*
X331551D02*
X332043D01*
X324957D02*
X325449D01*
X324957Y374791D02*
X325449D01*
X331551D02*
X332043D01*
D14*
X415272Y425142D02*
X429051D01*
X415272Y417858D02*
X429051D01*
X415272D02*
Y425142D01*
X429051Y417858D02*
Y425142D01*
X415272Y440358D02*
X429051D01*
X415272Y447642D02*
X429051D01*
Y440358D02*
Y447642D01*
X415272Y440358D02*
Y447642D01*
Y436642D02*
X429051D01*
X415272Y429358D02*
X429051D01*
X415272D02*
Y436642D01*
X429051Y429358D02*
Y436642D01*
X382110Y394858D02*
X395890D01*
X382110Y402142D02*
X395890D01*
Y394858D02*
Y402142D01*
X382110Y394858D02*
Y402142D01*
X395910Y392402D02*
X402209D01*
X395910Y380079D02*
X402209D01*
X376551Y370858D02*
Y378142D01*
X362772Y370858D02*
Y378142D01*
Y370858D02*
X376551D01*
X362772Y378142D02*
X376551D01*
X310890Y437858D02*
Y445142D01*
X297110Y437858D02*
Y445142D01*
Y437858D02*
X310890D01*
X297110Y445142D02*
X310890D01*
X342890Y437858D02*
Y445142D01*
X329110Y437858D02*
Y445142D01*
Y437858D02*
X342890D01*
X329110Y445142D02*
X342890D01*
X312949Y437858D02*
Y445142D01*
X326728Y437858D02*
Y445142D01*
X312949D02*
X326728D01*
X312949Y437858D02*
X326728D01*
X377449Y370858D02*
Y378142D01*
X391228Y370858D02*
Y378142D01*
X377449D02*
X391228D01*
X377449Y370858D02*
X391228D01*
D15*
X447006Y451494D02*
X453006D01*
X494506Y371494D02*
Y451494D01*
X456006D02*
X494506D01*
X447006Y371494D02*
X494506D01*
X447006D02*
Y451494D01*
X489006Y378494D02*
X494506D01*
X489006D02*
Y383994D01*
X494506D01*
X489006Y398494D02*
X494506D01*
X489006D02*
Y403994D01*
X494506D01*
X489006Y418494D02*
X494506D01*
X489006D02*
Y423994D01*
X494506D01*
X488506Y438494D02*
X494006D01*
X488506D02*
Y443994D01*
X494006D01*
X456006Y450494D02*
Y451494D01*
X453006Y450494D02*
X456006D01*
X453006D02*
Y451494D01*
Y370994D02*
X456006D01*
D16*
X305126Y395768D02*
Y399705D01*
X298236Y395768D02*
X305126D01*
X298236D02*
Y399705D01*
X305126D01*
X298236Y425295D02*
X305126D01*
X298236D02*
Y429232D01*
X305126D01*
Y425295D02*
Y429232D01*
X289378Y402658D02*
X307095D01*
X289378Y422342D02*
X307095D01*
Y402658D02*
Y422342D01*
X312016Y395768D02*
Y396752D01*
Y428248D02*
Y429232D01*
X288394Y431988D02*
X318315D01*
X288394Y393012D02*
X318315D01*
X288394Y393012D02*
Y431988D01*
X312016Y429232D02*
X318315D01*
Y431988D01*
Y393012D02*
Y395768D01*
X312016D02*
X318315D01*
X355949Y393925D02*
Y397075D01*
X337051Y393925D02*
Y397075D01*
M02*
