G04*
G04 #@! TF.GenerationSoftware,Altium Limited,Altium Designer,23.0.1 (38)*
G04*
G04 Layer_Physical_Order=1*
G04 Layer_Color=255*
%FSLAX25Y25*%
%MOIN*%
G70*
G04*
G04 #@! TF.SameCoordinates,1BC4FD92-A1BF-4EFC-BBB9-C4C69C01024F*
G04*
G04*
G04 #@! TF.FilePolarity,Positive*
G04*
G01*
G75*
%ADD10C,0.01000*%
G04:AMPARAMS|DCode=15|XSize=39.37mil|YSize=137.8mil|CornerRadius=9.84mil|HoleSize=0mil|Usage=FLASHONLY|Rotation=0.000|XOffset=0mil|YOffset=0mil|HoleType=Round|Shape=RoundedRectangle|*
%AMROUNDEDRECTD15*
21,1,0.03937,0.11811,0,0,0.0*
21,1,0.01968,0.13780,0,0,0.0*
1,1,0.01968,0.00984,-0.05906*
1,1,0.01968,-0.00984,-0.05906*
1,1,0.01968,-0.00984,0.05906*
1,1,0.01968,0.00984,0.05906*
%
%ADD15ROUNDEDRECTD15*%
G04:AMPARAMS|DCode=16|XSize=59.06mil|YSize=133.86mil|CornerRadius=7.38mil|HoleSize=0mil|Usage=FLASHONLY|Rotation=0.000|XOffset=0mil|YOffset=0mil|HoleType=Round|Shape=RoundedRectangle|*
%AMROUNDEDRECTD16*
21,1,0.05906,0.11909,0,0,0.0*
21,1,0.04429,0.13386,0,0,0.0*
1,1,0.01476,0.02215,-0.05955*
1,1,0.01476,-0.02215,-0.05955*
1,1,0.01476,-0.02215,0.05955*
1,1,0.01476,0.02215,0.05955*
%
%ADD16ROUNDEDRECTD16*%
%ADD17R,0.05315X0.04134*%
%ADD24C,0.03000*%
%ADD25O,0.05000X0.03347*%
%ADD26C,0.07087*%
%ADD27C,0.05000*%
G36*
X304314Y247839D02*
X306065Y247308D01*
X307680Y246445D01*
X309095Y245284D01*
X310256Y243869D01*
X311119Y242254D01*
X311650Y240503D01*
X311781Y239179D01*
X311786Y238681D01*
D01*
X311786Y238187D01*
Y73327D01*
X311815Y73181D01*
X311650Y71505D01*
X311119Y69753D01*
X310256Y68139D01*
X309095Y66724D01*
X307680Y65563D01*
X306065Y64700D01*
X304314Y64169D01*
X302990Y64038D01*
X302492Y64033D01*
D01*
X301997Y64033D01*
X231626D01*
X231480Y64004D01*
X229804Y64169D01*
X228053Y64700D01*
X226438Y65563D01*
X225023Y66724D01*
X223862Y68139D01*
X222999Y69753D01*
X222468Y71505D01*
X222303Y73181D01*
X222332Y73327D01*
Y238681D01*
X222303Y238827D01*
X222468Y240503D01*
X222999Y242254D01*
X223862Y243869D01*
X225023Y245284D01*
X226438Y246445D01*
X228053Y247308D01*
X229804Y247839D01*
X231480Y248004D01*
X231626Y247975D01*
X238624D01*
X238642Y247955D01*
Y238785D01*
X238142Y238346D01*
X237672Y238408D01*
X235969D01*
X235626Y238751D01*
Y241874D01*
X226374D01*
Y233803D01*
Y226126D01*
X228483D01*
Y219374D01*
X226374D01*
Y214862D01*
X224720Y213209D01*
X224175Y212392D01*
X223983Y211429D01*
Y87000D01*
X224175Y86037D01*
X224720Y85220D01*
X229720Y80220D01*
X230537Y79675D01*
X231500Y79483D01*
X251589D01*
X252090Y78616D01*
X253116Y77589D01*
X254373Y76864D01*
X255774Y76488D01*
X257226D01*
X258628Y76864D01*
X259884Y77589D01*
X260911Y78616D01*
X260915Y78623D01*
X261381Y78430D01*
X261185Y77700D01*
Y76300D01*
X261547Y74949D01*
X262247Y73737D01*
X263236Y72747D01*
X264448Y72047D01*
X265800Y71685D01*
X267200D01*
X268551Y72047D01*
X269763Y72747D01*
X270753Y73737D01*
X271453Y74949D01*
X271815Y76300D01*
Y77700D01*
X271453Y79052D01*
X270753Y80264D01*
X269763Y81253D01*
X268551Y81953D01*
X267200Y82315D01*
X265800D01*
X264448Y81953D01*
X263236Y81253D01*
X262247Y80264D01*
X261803Y80494D01*
X262012Y81274D01*
Y82726D01*
X261636Y84127D01*
X260911Y85384D01*
X259884Y86410D01*
X258628Y87136D01*
X257226Y87512D01*
X255774D01*
X254373Y87136D01*
X253116Y86410D01*
X252090Y85384D01*
X251589Y84517D01*
X232542D01*
X229017Y88042D01*
Y204413D01*
X230410D01*
Y207661D01*
X231591D01*
Y204413D01*
X234839D01*
Y204483D01*
X238958D01*
X239983Y203457D01*
Y180978D01*
X240175Y180015D01*
X240720Y179198D01*
X242068Y177851D01*
X241939Y177387D01*
X241870D01*
X240907Y177195D01*
X240090Y176650D01*
X238220Y174780D01*
X237675Y173963D01*
X237483Y173000D01*
Y113500D01*
X237675Y112537D01*
X238220Y111720D01*
X241890Y108050D01*
X241776Y107622D01*
Y107591D01*
X245910D01*
Y111724D01*
X245878D01*
X245450Y111610D01*
X242517Y114542D01*
Y171958D01*
X242913Y172353D01*
X243465D01*
X243599Y172220D01*
X244676Y171598D01*
X245878Y171276D01*
X245910D01*
Y176000D01*
Y181128D01*
X245017Y182020D01*
Y204500D01*
X244825Y205463D01*
X244280Y206280D01*
X241780Y208780D01*
X240963Y209325D01*
X240000Y209517D01*
X234839D01*
Y210909D01*
X235095Y211303D01*
X235626D01*
Y212822D01*
X238339D01*
X239302Y213013D01*
X240118Y213559D01*
X248808Y222249D01*
X249270Y222057D01*
Y213457D01*
X249371Y212686D01*
X249669Y211968D01*
X250142Y211351D01*
X250715Y210911D01*
Y179058D01*
X250215Y178966D01*
X249401Y179780D01*
X248323Y180402D01*
X247122Y180724D01*
X247091D01*
Y176000D01*
Y171276D01*
X247122D01*
X248323Y171598D01*
X249401Y172220D01*
X250215Y173034D01*
X250715Y172942D01*
Y155249D01*
X250907Y154286D01*
X251453Y153469D01*
X251521Y153400D01*
X251364Y153128D01*
X250988Y151726D01*
Y150274D01*
X251364Y148872D01*
X252090Y147616D01*
X253116Y146590D01*
X253983Y146089D01*
Y133500D01*
X254175Y132537D01*
X254720Y131720D01*
X256723Y129718D01*
X257220Y129220D01*
X258037Y128675D01*
X259000Y128483D01*
X278500D01*
X279463Y128675D01*
X280280Y129220D01*
X288280Y137220D01*
X288825Y138037D01*
X289017Y139000D01*
Y175000D01*
X288825Y175963D01*
X288280Y176780D01*
X275517Y189542D01*
Y207770D01*
X275979Y207962D01*
X277059Y206882D01*
X277875Y206336D01*
X278839Y206145D01*
X298661D01*
Y205413D01*
X299983D01*
Y113042D01*
X297458Y110517D01*
X249664D01*
X249401Y110781D01*
X248323Y111402D01*
X247122Y111724D01*
X247091D01*
Y107000D01*
Y102276D01*
X247122D01*
X248323Y102598D01*
X249401Y103219D01*
X250280Y104099D01*
X250902Y105176D01*
X250985Y105483D01*
X260661D01*
X260806Y105005D01*
X260241Y104627D01*
X258873Y103259D01*
X257799Y101651D01*
X257058Y99864D01*
X256681Y97967D01*
Y96033D01*
X257058Y94136D01*
X257799Y92349D01*
X258873Y90741D01*
X260241Y89373D01*
X261849Y88299D01*
X263636Y87558D01*
X265533Y87181D01*
X267467D01*
X269364Y87558D01*
X271151Y88299D01*
X272759Y89373D01*
X274127Y90741D01*
X275201Y92349D01*
X275942Y94136D01*
X276319Y96033D01*
Y97967D01*
X275942Y99864D01*
X275201Y101651D01*
X274127Y103259D01*
X272759Y104627D01*
X272194Y105005D01*
X272339Y105483D01*
X298500D01*
X299463Y105675D01*
X300280Y106220D01*
X304280Y110220D01*
X304825Y111037D01*
X305017Y112000D01*
Y205413D01*
X306339D01*
Y208071D01*
X302500D01*
Y209252D01*
X306339D01*
Y211909D01*
X306595Y212303D01*
X307126D01*
Y220374D01*
X305017D01*
Y226126D01*
X307126D01*
Y233803D01*
Y241874D01*
X297874D01*
Y241124D01*
X297625D01*
X296720Y241004D01*
X295876Y240655D01*
X295151Y240099D01*
X291907Y236854D01*
X291445Y237045D01*
Y247955D01*
X291463Y247975D01*
X302492D01*
X302638Y248004D01*
X304314Y247839D01*
D02*
G37*
G36*
X281555Y247955D02*
Y236045D01*
X281578Y235874D01*
X281248Y235498D01*
X248838D01*
X248509Y235874D01*
X248531Y236045D01*
Y247955D01*
X248549Y247975D01*
X281537D01*
X281555Y247955D01*
D02*
G37*
G36*
X297874Y232273D02*
Y226126D01*
X299983D01*
Y220374D01*
X297874D01*
Y218856D01*
X294466D01*
X285282Y228040D01*
X285473Y228502D01*
X292000D01*
X292453Y228561D01*
X292905Y228621D01*
X293749Y228970D01*
X294474Y229526D01*
X297412Y232465D01*
X297874Y232273D01*
D02*
G37*
G36*
X238108Y229526D02*
X238832Y228970D01*
X239676Y228621D01*
X240582Y228502D01*
X247289D01*
X247480Y228040D01*
X237296Y217856D01*
X235626D01*
Y219374D01*
X233517D01*
Y226126D01*
X235626D01*
Y231411D01*
X236223D01*
X238108Y229526D01*
D02*
G37*
G36*
X291644Y214559D02*
X292460Y214013D01*
X293423Y213822D01*
X297874D01*
Y212303D01*
X298405D01*
X298661Y211909D01*
Y211178D01*
X279881D01*
X279607Y211452D01*
X279400Y211896D01*
X279878Y212612D01*
X280046Y213457D01*
Y218772D01*
X276854D01*
Y219953D01*
X280046D01*
Y225268D01*
X280211Y225469D01*
X280718Y225484D01*
X291644Y214559D01*
D02*
G37*
G36*
X265417Y211968D02*
X265890Y211351D01*
X266507Y210877D01*
X267225Y210580D01*
X267996Y210478D01*
X269965D01*
X270107Y210497D01*
X270483Y210168D01*
Y190187D01*
X270021Y189995D01*
X269763Y190253D01*
X268551Y190953D01*
X267200Y191315D01*
X265800D01*
X264448Y190953D01*
X263236Y190253D01*
X262247Y189263D01*
X261547Y188051D01*
X261185Y186700D01*
Y185300D01*
X261547Y183949D01*
X262247Y182737D01*
X263236Y181747D01*
X264448Y181047D01*
X265800Y180685D01*
X267200D01*
X268551Y181047D01*
X269763Y181747D01*
X270753Y182737D01*
X271453Y183949D01*
X271815Y185300D01*
Y185472D01*
X272277Y185664D01*
X283983Y173958D01*
Y140042D01*
X277457Y133517D01*
X260043D01*
X259017Y134543D01*
Y146089D01*
X259884Y146590D01*
X260911Y147616D01*
X260915Y147623D01*
X261381Y147430D01*
X261185Y146700D01*
Y145300D01*
X261547Y143948D01*
X262247Y142737D01*
X263236Y141747D01*
X264448Y141047D01*
X265800Y140685D01*
X267200D01*
X268551Y141047D01*
X269763Y141747D01*
X270753Y142737D01*
X271453Y143948D01*
X271815Y145300D01*
Y146700D01*
X271453Y148052D01*
X270753Y149263D01*
X269763Y150253D01*
X268551Y150953D01*
X267200Y151315D01*
X265800D01*
X264448Y150953D01*
X263236Y150253D01*
X262247Y149264D01*
X261803Y149494D01*
X262012Y150274D01*
Y151726D01*
X261636Y153128D01*
X260911Y154384D01*
X259884Y155411D01*
X258628Y156136D01*
X257226Y156512D01*
X255774D01*
X255749Y156531D01*
Y210911D01*
X256323Y211351D01*
X256796Y211968D01*
X256899Y212216D01*
X257440D01*
X257543Y211968D01*
X258016Y211351D01*
X258633Y210877D01*
X259351Y210580D01*
X260122Y210478D01*
X262090D01*
X262861Y210580D01*
X263580Y210877D01*
X264196Y211351D01*
X264670Y211968D01*
X264773Y212216D01*
X265314D01*
X265417Y211968D01*
D02*
G37*
%LPC*%
G36*
X267200Y122315D02*
X265800D01*
X264448Y121953D01*
X263236Y121253D01*
X262247Y120263D01*
X261547Y119052D01*
X261185Y117700D01*
Y116300D01*
X261547Y114948D01*
X262247Y113737D01*
X263236Y112747D01*
X264448Y112047D01*
X265800Y111685D01*
X267200D01*
X268551Y112047D01*
X269763Y112747D01*
X270753Y113737D01*
X271453Y114948D01*
X271815Y116300D01*
Y117700D01*
X271453Y119052D01*
X270753Y120263D01*
X269763Y121253D01*
X268551Y121953D01*
X267200Y122315D01*
D02*
G37*
G36*
X245910Y106409D02*
X241776D01*
Y106378D01*
X242098Y105176D01*
X242720Y104099D01*
X243599Y103219D01*
X244676Y102598D01*
X245878Y102276D01*
X245910D01*
Y106409D01*
D02*
G37*
G36*
X267467Y175819D02*
X265533D01*
X263636Y175442D01*
X261849Y174701D01*
X260241Y173627D01*
X258873Y172259D01*
X257799Y170651D01*
X257058Y168864D01*
X256681Y166967D01*
Y165033D01*
X257058Y163136D01*
X257799Y161349D01*
X258873Y159741D01*
X260241Y158373D01*
X261849Y157299D01*
X263636Y156558D01*
X265533Y156181D01*
X267467D01*
X269364Y156558D01*
X271151Y157299D01*
X272759Y158373D01*
X274127Y159741D01*
X275201Y161349D01*
X275942Y163136D01*
X276319Y165033D01*
Y166967D01*
X275942Y168864D01*
X275201Y170651D01*
X274127Y172259D01*
X272759Y173627D01*
X271151Y174701D01*
X269364Y175442D01*
X267467Y175819D01*
D02*
G37*
%LPD*%
D10*
X273000Y188500D02*
X286500Y175000D01*
Y139000D02*
Y175000D01*
X273000Y188500D02*
Y226295D01*
X278500Y131000D02*
X286500Y139000D01*
X247500Y108000D02*
X298500D01*
X302500Y112000D02*
Y208661D01*
X298500Y108000D02*
X302500Y112000D01*
X246500Y107000D02*
X247500Y108000D01*
X278839Y208661D02*
X302500D01*
X231661Y207000D02*
X240000D01*
X242500Y180978D02*
Y204500D01*
X240000Y207000D02*
X242500Y204500D01*
X261106Y219362D02*
Y227808D01*
X260414Y228500D02*
X261106Y227808D01*
X238339Y215339D02*
X251500Y228500D01*
X231000Y230161D02*
X231591D01*
X251500Y228500D02*
X260414D01*
X274728Y228024D02*
X281738D01*
X293423Y216339D01*
X273000Y226295D02*
X274728Y228024D01*
X226500Y87000D02*
X231500Y82000D01*
X226500Y211429D02*
X230410Y215339D01*
X226500Y87000D02*
Y211429D01*
X276854Y210646D02*
Y219362D01*
Y210646D02*
X278839Y208661D01*
X293423Y216339D02*
X302500D01*
X253232Y155249D02*
Y219362D01*
Y155249D02*
X256500Y151981D01*
Y151000D02*
Y151981D01*
X231500Y82000D02*
X256500D01*
X230410Y215339D02*
X231000D01*
X240000Y113500D02*
X246500Y107000D01*
X231000Y215339D02*
X238339D01*
X245370Y174870D02*
X246500Y176000D01*
X241870Y174870D02*
X245370D01*
X240000Y173000D02*
X241870Y174870D01*
X240000Y113500D02*
Y173000D01*
X256500Y133500D02*
Y151000D01*
X258503Y131498D02*
X259000Y131000D01*
X256500Y133500D02*
X258503Y131498D01*
X259000Y131000D02*
X278500D01*
X302500Y216339D02*
Y230161D01*
X246500Y176000D02*
Y176978D01*
X242500Y180978D02*
X246500Y176978D01*
X231000Y207661D02*
X231661Y207000D01*
X231000Y215339D02*
Y230161D01*
D15*
X253232Y219362D02*
D03*
X261106D02*
D03*
X268980D02*
D03*
X276854D02*
D03*
D16*
X243587Y242000D02*
D03*
X286500D02*
D03*
D17*
X231000Y207661D02*
D03*
Y215339D02*
D03*
Y230161D02*
D03*
Y237839D02*
D03*
X302500Y208661D02*
D03*
Y216339D02*
D03*
Y230161D02*
D03*
Y237839D02*
D03*
D24*
X237672Y234910D02*
X240582Y232000D01*
X232157Y237272D02*
X234520Y234910D01*
X240582Y232000D02*
X268928D01*
X231000Y237839D02*
X231567Y237272D01*
X232157D01*
X234520Y234910D02*
X237672D01*
X292000Y232000D02*
X297625Y237625D01*
X302287D02*
X302500Y237839D01*
X268928Y232000D02*
X292000D01*
X297625Y237625D02*
X302287D01*
X268928Y219415D02*
Y232000D01*
D25*
X266500Y117000D02*
D03*
Y186000D02*
D03*
D26*
X246500Y107000D02*
D03*
X256500Y82000D02*
D03*
X246500Y176000D02*
D03*
X256500Y151000D02*
D03*
D27*
X266500Y77000D02*
D03*
Y97000D02*
D03*
Y146000D02*
D03*
Y166000D02*
D03*
M02*
