M48
;Layer_Color=9474304
;FILE_FORMAT=2:4
INCH,LZ
;TYPE=PLATED
T1F00S00C0.0100
T2F00S00C0.0315
%
T01
X04805Y0248
X0477Y0255
X04725Y02665
X04397Y026941
X0435Y02695
X043109Y025045
X04255Y02535
X0429Y02429
X0439Y0241
X04425Y02385
X044505Y024355
X04545Y02182
X04623Y021813
X0436Y0215
X041463Y021837
X04055Y02185
X0408Y0215
X040892Y022897
X04195Y02245
X042Y0205
X0397Y020755
X03935Y0205
X038977Y020477
X03675Y0207
X0356Y021478
X035283Y021783
X036052Y022313
X0325Y0217
X0318Y02735
X0314Y02835
X03235
X034535Y027815
X03475Y0288
X0356Y028595
X037135Y027921
X03825Y0291
X0387Y029075
X03915Y02909
X039682Y027873
X03455Y0265
X0312Y0259
Y02155
T02
X0322Y0238
Y024587
Y025375
Y026162
M30
