G04*
G04 #@! TF.GenerationSoftware,Altium Limited,Altium Designer,23.0.1 (38)*
G04*
G04 Layer_Color=255*
%FSLAX25Y25*%
%MOIN*%
G70*
G04*
G04 #@! TF.SameCoordinates,7EA281D9-4360-43E8-82A8-E858FA6B50C7*
G04*
G04*
G04 #@! TF.FilePolarity,Positive*
G04*
G01*
G75*
%ADD20R,0.04134X0.05315*%
%ADD21R,0.05906X0.04724*%
G04:AMPARAMS|DCode=56|XSize=55.12mil|YSize=55.12mil|CornerRadius=13.78mil|HoleSize=0mil|Usage=FLASHONLY|Rotation=90.000|XOffset=0mil|YOffset=0mil|HoleType=Round|Shape=RoundedRectangle|*
%AMROUNDEDRECTD56*
21,1,0.05512,0.02756,0,0,90.0*
21,1,0.02756,0.05512,0,0,90.0*
1,1,0.02756,0.01378,0.01378*
1,1,0.02756,0.01378,-0.01378*
1,1,0.02756,-0.01378,-0.01378*
1,1,0.02756,-0.01378,0.01378*
%
%ADD56ROUNDEDRECTD56*%
%ADD57C,0.05512*%
%ADD61R,0.08268X0.06299*%
%ADD62R,0.01575X0.05315*%
%ADD63R,0.07087X0.07480*%
%ADD64R,0.04724X0.05906*%
%ADD65R,0.07480X0.09843*%
%ADD66R,0.01102X0.01988*%
%ADD67R,0.04724X0.03150*%
D20*
X355161Y244500D02*
D03*
X362839D02*
D03*
X355161Y234500D02*
D03*
X362839D02*
D03*
D21*
X475000Y225957D02*
D03*
X401500Y239457D02*
D03*
Y246543D02*
D03*
X393000Y239457D02*
D03*
Y246543D02*
D03*
X475000Y233043D02*
D03*
D56*
X322000Y238000D02*
D03*
D57*
Y245874D02*
D03*
Y253748D02*
D03*
Y261622D02*
D03*
D61*
X470705Y275291D02*
D03*
X446295Y275276D02*
D03*
D62*
X463618Y274685D02*
D03*
X461059D02*
D03*
X458500D02*
D03*
X455941D02*
D03*
X453382D02*
D03*
D63*
X442752Y285315D02*
D03*
X474248D02*
D03*
D64*
X461043Y241000D02*
D03*
X453957D02*
D03*
X468457D02*
D03*
X475543D02*
D03*
X400547Y229047D02*
D03*
X393461D02*
D03*
X380913Y257500D02*
D03*
X388000D02*
D03*
D65*
X371071Y262000D02*
D03*
X354929D02*
D03*
D66*
X381953Y239348D02*
D03*
X379984D02*
D03*
X378016D02*
D03*
X376047D02*
D03*
Y246652D02*
D03*
X378016D02*
D03*
X379984D02*
D03*
X381953D02*
D03*
D67*
X379000Y243000D02*
D03*
M02*
