G04*
G04 #@! TF.GenerationSoftware,Altium Limited,Altium Designer,23.0.1 (38)*
G04*
G04 Layer_Physical_Order=1*
G04 Layer_Color=255*
%FSLAX25Y25*%
%MOIN*%
G70*
G04*
G04 #@! TF.SameCoordinates,7EA281D9-4360-43E8-82A8-E858FA6B50C7*
G04*
G04*
G04 #@! TF.FilePolarity,Positive*
G04*
G01*
G75*
%ADD15C,0.01000*%
%ADD16R,0.05118X0.07087*%
%ADD17R,0.03543X0.04724*%
%ADD18R,0.01181X0.02756*%
%ADD19R,0.05315X0.04134*%
%ADD20R,0.04134X0.05315*%
%ADD21R,0.05906X0.04724*%
%ADD22R,0.03937X0.02362*%
%ADD23R,0.03150X0.03150*%
%ADD24R,0.04331X0.08858*%
%ADD25R,0.04134X0.04331*%
%ADD46R,0.03937X0.03937*%
%ADD47R,0.10236X0.12205*%
%ADD48R,0.03543X0.04331*%
%ADD49R,0.04331X0.03543*%
%ADD50O,0.02362X0.06299*%
%ADD51O,0.06299X0.02362*%
%ADD52C,0.01500*%
%ADD53C,0.02500*%
%ADD54C,0.02000*%
%ADD55C,0.03000*%
G04:AMPARAMS|DCode=56|XSize=55.12mil|YSize=55.12mil|CornerRadius=13.78mil|HoleSize=0mil|Usage=FLASHONLY|Rotation=90.000|XOffset=0mil|YOffset=0mil|HoleType=Round|Shape=RoundedRectangle|*
%AMROUNDEDRECTD56*
21,1,0.05512,0.02756,0,0,90.0*
21,1,0.02756,0.05512,0,0,90.0*
1,1,0.02756,0.01378,0.01378*
1,1,0.02756,0.01378,-0.01378*
1,1,0.02756,-0.01378,-0.01378*
1,1,0.02756,-0.01378,0.01378*
%
%ADD56ROUNDEDRECTD56*%
%ADD57C,0.05512*%
%ADD58C,0.02000*%
%ADD59C,0.03000*%
%ADD60C,0.02500*%
G36*
X308272Y295631D02*
X350294D01*
Y293843D01*
X349594D01*
X349087Y293742D01*
X348657Y293455D01*
X346639Y291437D01*
X346482Y291201D01*
X346435Y291170D01*
X345953Y291100D01*
X345871Y291119D01*
X343373Y293618D01*
X342860Y293960D01*
X342255Y294080D01*
X332747D01*
X332142Y293960D01*
X331630Y293618D01*
X331044Y293032D01*
X330701Y292519D01*
X330581Y291914D01*
Y291458D01*
X329294D01*
Y285335D01*
X323500D01*
X323323Y285300D01*
X323142D01*
X322975Y285231D01*
X322798Y285196D01*
X322647Y285095D01*
X322480Y285026D01*
X322353Y284898D01*
X322202Y284798D01*
X322102Y284647D01*
X321974Y284520D01*
X321905Y284353D01*
X321804Y284202D01*
X321769Y284025D01*
X321700Y283858D01*
Y283677D01*
X321665Y283500D01*
X321700Y283323D01*
Y283142D01*
X321769Y282975D01*
X321804Y282798D01*
X321905Y282647D01*
X321974Y282480D01*
X322102Y282353D01*
X322202Y282202D01*
X322353Y282102D01*
X322480Y281974D01*
X322647Y281905D01*
X322798Y281804D01*
X322975Y281769D01*
X323142Y281700D01*
X323323D01*
X323500Y281665D01*
X329294D01*
Y275043D01*
X330737D01*
Y273221D01*
X329294D01*
Y271555D01*
X328833Y271364D01*
X326666Y273531D01*
Y275622D01*
X326546Y276227D01*
X326203Y276740D01*
X321080Y281862D01*
Y287543D01*
X322367D01*
Y294458D01*
X316633D01*
Y287543D01*
X317920D01*
Y281208D01*
X318040Y280603D01*
X318383Y280090D01*
X319419Y279054D01*
X319227Y278592D01*
X314221D01*
X313714Y278491D01*
X313284Y278204D01*
X311362Y276282D01*
X308953D01*
Y278319D01*
X305500D01*
Y274957D01*
Y271595D01*
X308953D01*
Y273631D01*
X311911D01*
X312419Y273732D01*
X312848Y274019D01*
X314770Y275941D01*
X316577D01*
X316687Y275490D01*
X316688Y275441D01*
X316050Y274803D01*
X315918Y274484D01*
X303022Y261588D01*
X302569Y260910D01*
X302410Y260110D01*
X302410Y260110D01*
Y229500D01*
X302410Y229500D01*
X302569Y228700D01*
X303022Y228022D01*
X312876Y218168D01*
X312593Y217744D01*
X312457Y217800D01*
X311543D01*
X310697Y217450D01*
X310050Y216803D01*
X309700Y215957D01*
Y215042D01*
X310050Y214197D01*
X310697Y213550D01*
X311204Y213340D01*
X314022Y210522D01*
X314022Y210522D01*
X314700Y210069D01*
X315500Y209910D01*
X315500Y209910D01*
X333596D01*
X333596Y209910D01*
X334396Y210069D01*
X335074Y210522D01*
X341478Y216926D01*
X341478Y216926D01*
X341931Y217604D01*
X342090Y218404D01*
Y222042D01*
X342867D01*
Y228958D01*
X342090D01*
Y230043D01*
X342705D01*
Y236958D01*
X336972D01*
Y230043D01*
X337910D01*
Y228958D01*
X337133D01*
Y222042D01*
X337910D01*
Y219270D01*
X332730Y214090D01*
X316366D01*
X315562Y214894D01*
X315881Y215282D01*
X316200Y215069D01*
X317000Y214910D01*
X317000Y214910D01*
X324036D01*
X324542Y214700D01*
X325458D01*
X326303Y215050D01*
X326950Y215697D01*
X327300Y216543D01*
Y217458D01*
X326950Y218303D01*
X326303Y218950D01*
X325458Y219300D01*
X324542D01*
X324036Y219090D01*
X317866D01*
X306590Y230366D01*
Y259244D01*
X318608Y271263D01*
X319303Y271550D01*
X319950Y272197D01*
X320300Y273042D01*
Y273957D01*
X319950Y274803D01*
X319312Y275441D01*
X319313Y275490D01*
X319423Y275941D01*
X319993D01*
X321710Y274224D01*
Y265378D01*
X321505D01*
X320550Y265122D01*
X319694Y264628D01*
X318994Y263928D01*
X318500Y263072D01*
X318246Y262122D01*
X322000D01*
X325754D01*
X325500Y263072D01*
X325006Y263928D01*
X324361Y264573D01*
Y270712D01*
X324823Y270904D01*
X329344Y266383D01*
X329556Y266241D01*
X329404Y265741D01*
X329294D01*
Y264014D01*
X326883Y261602D01*
X326540Y261089D01*
X326420Y260484D01*
Y251155D01*
X324057Y248792D01*
X323373Y249188D01*
X322468Y249430D01*
X321532D01*
X320627Y249188D01*
X319817Y248720D01*
X319155Y248057D01*
X318686Y247247D01*
X318444Y246342D01*
Y245406D01*
X318624Y244733D01*
X315882Y241991D01*
X315540Y241479D01*
X315420Y240874D01*
Y231000D01*
X315540Y230395D01*
X315882Y229883D01*
X321382Y224382D01*
X321895Y224040D01*
X322500Y223920D01*
X329456D01*
Y222042D01*
X335190D01*
Y228958D01*
X329456D01*
Y227080D01*
X323155D01*
X318580Y231655D01*
Y234909D01*
X318771Y234967D01*
X319080Y235033D01*
X319772Y234571D01*
X320622Y234401D01*
X323364D01*
X325382Y232382D01*
X325895Y232040D01*
X326500Y231920D01*
X327105Y232040D01*
X327306Y232174D01*
X329294D01*
Y230043D01*
X335028D01*
Y236958D01*
X329294D01*
Y234825D01*
X327410D01*
X325599Y236636D01*
Y239364D01*
X328795Y242560D01*
X329294Y242352D01*
Y238042D01*
X335028D01*
Y244957D01*
X333487D01*
Y245612D01*
X335809Y247934D01*
X337169D01*
Y247279D01*
X342315D01*
X342522Y246779D01*
X340701Y244957D01*
X336972D01*
Y238042D01*
X342705D01*
Y241801D01*
X342794Y241860D01*
X347636Y246702D01*
X347720Y246827D01*
X348251Y246722D01*
X348260Y246676D01*
X348698Y246021D01*
X349220Y245672D01*
X349247Y245428D01*
X349227Y245195D01*
X349205Y245126D01*
X348553Y244691D01*
X348071Y243969D01*
X348002Y243618D01*
X356187D01*
X356118Y243969D01*
X355635Y244691D01*
X354984Y245126D01*
X354962Y245195D01*
X354942Y245428D01*
X354969Y245672D01*
X355491Y246021D01*
X355929Y246676D01*
X356083Y247449D01*
X355929Y248222D01*
X355491Y248877D01*
X354836Y249315D01*
X354613Y249359D01*
Y249869D01*
X354836Y249913D01*
X355491Y250351D01*
X355929Y251007D01*
X356083Y251780D01*
X355929Y252553D01*
X355491Y253208D01*
X354836Y253646D01*
X354613Y253690D01*
Y254200D01*
X354836Y254244D01*
X355491Y254682D01*
X355929Y255337D01*
X356083Y256110D01*
X355929Y256883D01*
X355491Y257539D01*
X354836Y257976D01*
X354613Y258021D01*
Y258530D01*
X354836Y258575D01*
X355491Y259013D01*
X355929Y259668D01*
X356083Y260441D01*
X355929Y261214D01*
X355491Y261869D01*
X354836Y262307D01*
X354613Y262351D01*
Y262861D01*
X354836Y262906D01*
X355491Y263343D01*
X355929Y263999D01*
X356083Y264772D01*
X355929Y265545D01*
X355491Y266200D01*
X354836Y266638D01*
X354613Y266682D01*
Y267192D01*
X354836Y267236D01*
X355491Y267674D01*
X355595Y267829D01*
X355968Y267903D01*
X356481Y268246D01*
X358118Y269882D01*
X358460Y270395D01*
X358472Y270454D01*
X358972Y270404D01*
Y266465D01*
X358972Y266334D01*
Y265965D01*
X358972Y265834D01*
Y260953D01*
X358972Y260822D01*
Y260454D01*
X358972Y260322D01*
Y255442D01*
X358972Y255310D01*
Y254942D01*
X358972Y254810D01*
Y249930D01*
X358972Y249798D01*
Y249430D01*
X358972Y249298D01*
Y244418D01*
X358972Y244287D01*
Y243918D01*
X358972Y243787D01*
Y238906D01*
X358972Y238775D01*
Y238406D01*
X358972Y238275D01*
Y233395D01*
X358972Y233263D01*
Y232894D01*
X358972Y232763D01*
Y227751D01*
X363893D01*
Y221846D01*
X368905D01*
X369036Y221846D01*
X369405D01*
X369536Y221846D01*
X374416D01*
X374548Y221846D01*
X374917D01*
X375048Y221846D01*
X379928D01*
X380060Y221846D01*
X380428D01*
X380560Y221846D01*
X381050D01*
X381241Y221384D01*
X378791Y218933D01*
X378669Y218957D01*
X377896Y218803D01*
X377241Y218365D01*
X376803Y217710D01*
X376759Y217487D01*
X376249D01*
X376205Y217710D01*
X375767Y218365D01*
X375112Y218803D01*
X374339Y218957D01*
X373566Y218803D01*
X372910Y218365D01*
X372472Y217710D01*
X372428Y217487D01*
X371918D01*
X371874Y217710D01*
X371436Y218365D01*
X370781Y218803D01*
X370008Y218957D01*
X369235Y218803D01*
X368580Y218365D01*
X368231Y217843D01*
X367987Y217816D01*
X367754Y217836D01*
X367685Y217858D01*
X367250Y218510D01*
X366528Y218992D01*
X366177Y219061D01*
Y214968D01*
Y210876D01*
X366528Y210945D01*
X367250Y211427D01*
X367685Y212079D01*
X367754Y212101D01*
X367987Y212121D01*
X368231Y212094D01*
X368580Y211572D01*
X369235Y211134D01*
X370008Y210980D01*
X370781Y211134D01*
X371436Y211572D01*
X371874Y212227D01*
X371918Y212450D01*
X372428D01*
X372472Y212227D01*
X372752Y211808D01*
Y210627D01*
X370451Y208326D01*
X368720D01*
X368520Y208526D01*
X367858Y208800D01*
X367142D01*
X366480Y208526D01*
X365974Y208020D01*
X365700Y207358D01*
Y206642D01*
X365974Y205980D01*
X366480Y205474D01*
X367142Y205200D01*
X367858D01*
X368520Y205474D01*
X368720Y205675D01*
X371000D01*
X371507Y205775D01*
X371937Y206063D01*
X374332Y208458D01*
X374795Y208267D01*
Y203794D01*
X308272D01*
X308243Y203788D01*
X306630Y203915D01*
X305029Y204300D01*
X303508Y204930D01*
X302104Y205790D01*
X300852Y206860D01*
X299782Y208112D01*
X298922Y209516D01*
X298292Y211037D01*
X297907Y212638D01*
X297817Y213789D01*
X297786Y214280D01*
X297786Y214280D01*
X297786Y214773D01*
Y285146D01*
X297780Y285174D01*
X297907Y286787D01*
X298292Y288388D01*
X298922Y289910D01*
X298942Y289942D01*
X303476Y294476D01*
X303508Y294495D01*
X305029Y295126D01*
X306630Y295510D01*
X308243Y295637D01*
X308272Y295631D01*
D02*
G37*
G36*
X383654Y295169D02*
X383168Y294684D01*
X382881Y294254D01*
X382780Y293746D01*
Y293425D01*
X382155Y292800D01*
X382142D01*
X381480Y292526D01*
X380974Y292020D01*
X380700Y291358D01*
Y290642D01*
X380974Y289980D01*
X381480Y289474D01*
X382142Y289200D01*
X382858D01*
X383520Y289474D01*
X384026Y289980D01*
X384300Y290642D01*
Y291196D01*
X385043Y291939D01*
X385418Y291634D01*
X385200Y291108D01*
Y290392D01*
X385474Y289730D01*
X385980Y289224D01*
X386642Y288950D01*
X387358D01*
X388020Y289224D01*
X388526Y289730D01*
X388800Y290392D01*
Y290422D01*
X389000Y290571D01*
X389144Y290551D01*
X389558Y290363D01*
X389805Y289767D01*
X390323Y289248D01*
Y287958D01*
X390089Y287801D01*
X389797Y287364D01*
X389195D01*
X388903Y287801D01*
X388182Y288283D01*
X387831Y288353D01*
Y284260D01*
Y280167D01*
X388182Y280237D01*
X388903Y280719D01*
X389195Y281156D01*
X389797D01*
X390089Y280719D01*
X390810Y280237D01*
X391161Y280167D01*
Y284260D01*
X392161D01*
Y280167D01*
X392512Y280237D01*
X393234Y280719D01*
X393471Y281074D01*
X393971Y280922D01*
Y279618D01*
X393971Y279618D01*
X394130Y278818D01*
X394552Y278187D01*
X394678Y277883D01*
X394344Y277383D01*
X391583D01*
X391452Y277383D01*
X391084D01*
X390952Y277383D01*
X386072D01*
X385940Y277383D01*
X385572D01*
X385440Y277383D01*
X380560D01*
X380428Y277383D01*
X380060D01*
X379928Y277383D01*
X375048D01*
X374917Y277383D01*
X374548D01*
X374340Y277383D01*
X374189Y277883D01*
X374370Y278004D01*
X375567Y279201D01*
X375965Y279796D01*
X376104Y280499D01*
Y281368D01*
X376205Y281518D01*
X376249Y281741D01*
X376759D01*
X376803Y281518D01*
X377241Y280863D01*
X377896Y280425D01*
X378669Y280271D01*
X379442Y280425D01*
X380098Y280863D01*
X380535Y281518D01*
X380580Y281741D01*
X381089D01*
X381134Y281518D01*
X381572Y280863D01*
X382227Y280425D01*
X383000Y280271D01*
X383773Y280425D01*
X384428Y280863D01*
X384777Y281385D01*
X385021Y281412D01*
X385254Y281393D01*
X385323Y281370D01*
X385758Y280719D01*
X386480Y280237D01*
X386831Y280167D01*
Y284260D01*
Y288353D01*
X386480Y288283D01*
X385758Y287801D01*
X385323Y287149D01*
X385254Y287127D01*
X385021Y287107D01*
X384777Y287134D01*
X384428Y287657D01*
X383773Y288094D01*
X383000Y288248D01*
X382227Y288094D01*
X381572Y287657D01*
X381134Y287001D01*
X381089Y286779D01*
X380580D01*
X380535Y287001D01*
X380098Y287657D01*
X379995Y287725D01*
Y289740D01*
X379894Y290247D01*
X379607Y290677D01*
X379367Y290917D01*
Y295631D01*
X383463D01*
X383654Y295169D01*
D02*
G37*
G36*
X365956Y289042D02*
X366503D01*
X366694Y288581D01*
X366248Y288135D01*
X365677Y288248D01*
X364904Y288094D01*
X364249Y287657D01*
X363811Y287001D01*
X363657Y286228D01*
Y282291D01*
X363811Y281518D01*
X364037Y281180D01*
X363770Y280680D01*
X356695D01*
X349300Y288074D01*
Y288358D01*
X349026Y289020D01*
X348902Y289143D01*
Y289951D01*
X349795Y290843D01*
X350294Y290636D01*
Y289042D01*
X356028D01*
Y295631D01*
X357972D01*
Y289351D01*
X357594Y289276D01*
X357164Y288989D01*
X355925Y287750D01*
X355642D01*
X354980Y287476D01*
X354474Y286970D01*
X354200Y286308D01*
Y285592D01*
X354474Y284930D01*
X354980Y284424D01*
X355642Y284150D01*
X356358D01*
X357020Y284424D01*
X357526Y284930D01*
X357800Y285592D01*
Y285876D01*
X358651Y286726D01*
X360542D01*
X361050Y286827D01*
X361480Y287114D01*
X362066Y287700D01*
X362353Y288130D01*
X362454Y288637D01*
Y289042D01*
X363705D01*
Y295631D01*
X365956D01*
Y289042D01*
D02*
G37*
G36*
X475268Y295510D02*
X476869Y295126D01*
X478390Y294495D01*
X479794Y293635D01*
X480282Y293218D01*
X481699Y291801D01*
X482115Y291314D01*
X482976Y289910D01*
X483606Y288388D01*
X483990Y286787D01*
X484117Y285174D01*
X484111Y285146D01*
Y267631D01*
X477853D01*
Y258944D01*
X484111D01*
Y232985D01*
X477853D01*
Y224298D01*
X484111D01*
Y214280D01*
X484117Y214251D01*
X483990Y212638D01*
X483606Y211037D01*
X482976Y209516D01*
X482115Y208112D01*
X481046Y206860D01*
X479794Y205790D01*
X478390Y204930D01*
X476869Y204300D01*
X475268Y203915D01*
X474117Y203825D01*
X473626Y203794D01*
X473626Y203794D01*
X473134Y203794D01*
X467736D01*
X467529Y204294D01*
X470617Y207382D01*
X470960Y207895D01*
X471080Y208500D01*
Y209338D01*
X472072D01*
Y213427D01*
X476666Y218021D01*
X477008Y218534D01*
X477129Y219139D01*
Y241159D01*
X481522Y245552D01*
X481864Y246065D01*
X481985Y246669D01*
Y246939D01*
X482026Y246980D01*
X482300Y247642D01*
Y248358D01*
X482026Y249020D01*
X481520Y249526D01*
X480858Y249800D01*
X480142D01*
X479480Y249526D01*
X478974Y249020D01*
X478700Y248358D01*
Y247642D01*
X478824Y247343D01*
Y247324D01*
X474431Y242931D01*
X474088Y242418D01*
X473968Y241813D01*
Y219793D01*
X469837Y215662D01*
X467272D01*
Y215862D01*
X465699D01*
X465615Y216284D01*
X465328Y216714D01*
X464408Y217633D01*
X460347D01*
X460609Y217000D01*
X461172Y216437D01*
X461177Y216435D01*
X461374Y215823D01*
X461270Y215662D01*
X460579D01*
Y215776D01*
X460478Y216284D01*
X460190Y216714D01*
X457958Y218946D01*
X457528Y219233D01*
X457021Y219334D01*
X455911D01*
X455520Y219726D01*
X454858Y220000D01*
X454142D01*
X453480Y219726D01*
X452974Y219220D01*
X452700Y218558D01*
Y217842D01*
X452974Y217180D01*
X453480Y216674D01*
X454142Y216400D01*
X454858D01*
X455520Y216674D01*
X455529Y216683D01*
X456472D01*
X457031Y216124D01*
X456840Y215662D01*
X443803D01*
X438528Y220937D01*
X438098Y221225D01*
X437591Y221325D01*
X430549D01*
X425826Y226049D01*
Y226795D01*
X427957D01*
Y232528D01*
X421987D01*
X421796Y232990D01*
X423278Y234472D01*
X427957D01*
Y237175D01*
X441280D01*
X441480Y236974D01*
X442142Y236700D01*
X442858D01*
X443196Y236840D01*
X443634Y236480D01*
X443625Y236437D01*
Y221870D01*
X443687Y221558D01*
X443864Y221293D01*
X444129Y221116D01*
X444441Y221054D01*
X449559D01*
X449871Y221116D01*
X450136Y221293D01*
X450313Y221558D01*
X450375Y221870D01*
Y236437D01*
X450313Y236749D01*
X450136Y237014D01*
X449871Y237191D01*
X449559Y237253D01*
X444441D01*
X444116Y237698D01*
X444300Y238142D01*
Y238858D01*
X444066Y239422D01*
X444277Y239922D01*
X458313D01*
X460979Y237256D01*
Y219636D01*
X460609Y219266D01*
X460347Y218633D01*
X464262D01*
X464000Y219266D01*
X463630Y219636D01*
Y237805D01*
X463529Y238312D01*
X463242Y238742D01*
X459799Y242184D01*
X459369Y242472D01*
X458862Y242573D01*
X447042D01*
X446764Y242988D01*
X446847Y243189D01*
Y243578D01*
X447944Y244674D01*
X474000D01*
X474507Y244775D01*
X474937Y245063D01*
X476612Y246737D01*
X476899Y247167D01*
X477000Y247674D01*
Y251500D01*
X477937Y252437D01*
X478225Y252867D01*
X478326Y253375D01*
Y253780D01*
X478526Y253980D01*
X478800Y254642D01*
Y255358D01*
X478526Y256020D01*
X478020Y256526D01*
X477358Y256800D01*
X476642D01*
X475980Y256526D01*
X475474Y256020D01*
X475200Y255358D01*
Y254642D01*
X475474Y253980D01*
X475603Y253852D01*
X474737Y252986D01*
X474450Y252556D01*
X474349Y252049D01*
Y248224D01*
X473451Y247325D01*
X447395D01*
X446887Y247225D01*
X446457Y246937D01*
X444867Y245347D01*
X444689D01*
X444028Y245073D01*
X443825Y244871D01*
X443326Y245078D01*
Y248837D01*
X443825Y248989D01*
X443864Y248931D01*
X444129Y248754D01*
X444441Y248692D01*
X449559D01*
X449871Y248754D01*
X450136Y248931D01*
X450313Y249196D01*
X450375Y249508D01*
Y264075D01*
X450313Y264387D01*
X450136Y264652D01*
X449871Y264828D01*
X449559Y264891D01*
X444441D01*
X444129Y264828D01*
X443864Y264652D01*
X443825Y264594D01*
X443326Y264745D01*
Y277071D01*
X445165D01*
X445165Y277071D01*
X445634Y276995D01*
X446052Y276716D01*
X446559Y276616D01*
X449594D01*
Y275079D01*
X452063D01*
Y277260D01*
Y279441D01*
X449594D01*
Y279266D01*
X447108D01*
X446017Y280358D01*
X445587Y280645D01*
X445165Y280729D01*
Y282000D01*
X442000D01*
Y283000D01*
X445165D01*
Y287929D01*
X442506D01*
X442461Y288156D01*
X442173Y288586D01*
X440322Y290437D01*
X439892Y290725D01*
X439385Y290826D01*
X418405D01*
Y293158D01*
X415839D01*
Y289500D01*
Y285842D01*
X418405D01*
Y288175D01*
X425101D01*
X427220Y286055D01*
Y283825D01*
X427000D01*
X426493Y283725D01*
X426063Y283437D01*
X417615Y274989D01*
X417447Y275006D01*
X416725Y275488D01*
X415874Y275657D01*
X415231D01*
Y279095D01*
X415130Y279602D01*
X414843Y280032D01*
X409546Y285329D01*
X409226Y285542D01*
X409340Y286042D01*
X410528D01*
Y292957D01*
X406812D01*
X406643Y293175D01*
X406888Y293674D01*
X440951D01*
X449794Y284831D01*
Y282759D01*
X455332D01*
Y285688D01*
X455793Y285879D01*
X458230Y283443D01*
X458038Y282981D01*
X457668D01*
Y279019D01*
X463205D01*
Y282981D01*
X461763D01*
Y283110D01*
X461662Y283617D01*
X461374Y284048D01*
X455758Y289663D01*
X455950Y290125D01*
X459328D01*
Y290920D01*
X467755D01*
X472043Y286632D01*
Y283133D01*
X478958D01*
Y288867D01*
X474277D01*
X469527Y293618D01*
X469014Y293960D01*
X468409Y294080D01*
X459328D01*
Y294875D01*
X454578D01*
Y291497D01*
X454116Y291306D01*
X453422Y292000D01*
Y294875D01*
X448672D01*
Y290409D01*
X448172Y290202D01*
X443205Y295169D01*
X443397Y295631D01*
X473626D01*
X473654Y295637D01*
X475268Y295510D01*
D02*
G37*
G36*
X405270Y283454D02*
X405700Y283167D01*
X406207Y283066D01*
X408059D01*
X410540Y280586D01*
X410221Y280197D01*
X410084Y280289D01*
X409772Y280351D01*
X401885D01*
X401733Y280851D01*
X401751Y280863D01*
X402189Y281518D01*
X402343Y282291D01*
Y283907D01*
X402413Y284260D01*
X402343Y284613D01*
Y285674D01*
X402843Y285881D01*
X405270Y283454D01*
D02*
G37*
G36*
X369182Y279893D02*
X369559Y279591D01*
X369549Y279565D01*
Y279385D01*
X369514Y279207D01*
X369549Y279030D01*
Y278849D01*
X369618Y278682D01*
X369653Y278505D01*
X369754Y278355D01*
X369823Y278188D01*
X369951Y278060D01*
X370051Y277910D01*
X370091Y277883D01*
X370008Y277515D01*
X369921Y277383D01*
X369036Y277383D01*
X368905Y277383D01*
X363893D01*
Y271477D01*
X359080D01*
X358972Y271477D01*
X358580Y271740D01*
Y274500D01*
X358460Y275105D01*
X358118Y275618D01*
X356206Y277529D01*
X356413Y278029D01*
X366716D01*
X367223Y278130D01*
X367653Y278417D01*
X369143Y279907D01*
X369182Y279893D01*
D02*
G37*
G36*
X430886Y277071D02*
X432941D01*
X433148Y276571D01*
X428025Y271447D01*
X418101D01*
X417829Y271947D01*
X417923Y272093D01*
X417967Y272114D01*
X418440Y272208D01*
X418870Y272496D01*
X426758Y280384D01*
X427220Y280193D01*
Y277071D01*
X429886D01*
Y282500D01*
X430886D01*
Y277071D01*
D02*
G37*
G36*
X353350Y275915D02*
X353159Y275453D01*
X350126D01*
X349353Y275299D01*
X348925Y275013D01*
X343194D01*
X342705Y275043D01*
Y276665D01*
X344290D01*
X344334Y276621D01*
X344501Y276551D01*
X344651Y276451D01*
X344829Y276416D01*
X344995Y276346D01*
X345176D01*
X345354Y276311D01*
X345531Y276346D01*
X345712D01*
X345879Y276416D01*
X346056Y276451D01*
X346206Y276551D01*
X346373Y276621D01*
X346501Y276748D01*
X346651Y276849D01*
X346752Y276999D01*
X346880Y277127D01*
X346949Y277294D01*
X347049Y277444D01*
X347084Y277621D01*
X347153Y277788D01*
Y277969D01*
X347189Y278146D01*
Y281369D01*
X347689Y281576D01*
X353350Y275915D01*
D02*
G37*
G36*
X398895Y280863D02*
X399550Y280425D01*
X400246Y280287D01*
X400465Y279974D01*
X400545Y279806D01*
X400491Y279535D01*
Y270338D01*
X400335Y269902D01*
X399991Y269902D01*
X377082D01*
X377082Y269902D01*
X376701Y269918D01*
X376588Y269918D01*
X370520D01*
X370520Y269918D01*
X370208Y269856D01*
X369943Y269679D01*
X369943Y269679D01*
X365888Y265624D01*
X365711Y265359D01*
X365649Y265047D01*
X365649Y265047D01*
Y257010D01*
X365649Y256898D01*
X365665Y256517D01*
X365665Y256517D01*
Y242712D01*
Y229326D01*
X400335D01*
Y242712D01*
Y256098D01*
Y257801D01*
X400464Y257896D01*
X400835Y258022D01*
X400995Y257916D01*
X401307Y257854D01*
X409772D01*
X410084Y257916D01*
X410348Y258092D01*
X410670Y258071D01*
X410619Y257612D01*
X410509Y257539D01*
X410071Y256883D01*
X409917Y256110D01*
X410071Y255337D01*
X410509Y254682D01*
X411164Y254244D01*
X411387Y254200D01*
Y253690D01*
X411164Y253646D01*
X410509Y253208D01*
X410071Y252553D01*
X409917Y251780D01*
X410071Y251007D01*
X410509Y250351D01*
X411031Y250002D01*
X411058Y249759D01*
X411038Y249525D01*
X411016Y249457D01*
X410364Y249021D01*
X409882Y248300D01*
X409813Y247949D01*
X413905D01*
Y246949D01*
X409813D01*
X409882Y246598D01*
X410364Y245876D01*
X411016Y245441D01*
X411038Y245372D01*
X411058Y245139D01*
X411031Y244895D01*
X410509Y244546D01*
X410071Y243891D01*
X409917Y243118D01*
X410071Y242345D01*
X410509Y241690D01*
X411164Y241252D01*
X411387Y241208D01*
Y240698D01*
X411164Y240653D01*
X410509Y240216D01*
X410071Y239560D01*
X409917Y238787D01*
X410071Y238014D01*
X410509Y237359D01*
X411164Y236921D01*
X411387Y236877D01*
Y236367D01*
X411164Y236323D01*
X410509Y235885D01*
X410071Y235230D01*
X409917Y234457D01*
X410071Y233684D01*
X410509Y233028D01*
X411164Y232591D01*
X411387Y232546D01*
Y232036D01*
X411164Y231992D01*
X410509Y231554D01*
X410071Y230899D01*
X409873Y230793D01*
X409328Y231019D01*
X408512D01*
X407759Y230707D01*
X407528Y230477D01*
X407028Y230684D01*
Y232763D01*
X407028Y232894D01*
Y233263D01*
X407028Y233395D01*
Y238275D01*
X407028Y238406D01*
Y238775D01*
X407028Y238906D01*
Y243787D01*
X407028Y243918D01*
Y244287D01*
X407028Y244418D01*
Y249298D01*
X407028Y249430D01*
Y249798D01*
X407028Y249930D01*
Y254942D01*
X401098D01*
Y249930D01*
X401098Y249798D01*
Y249430D01*
X401098Y249298D01*
Y244418D01*
X401098Y244287D01*
Y243918D01*
X401098Y243787D01*
Y238906D01*
X401098Y238775D01*
Y238406D01*
X401098Y238275D01*
Y233395D01*
X401098Y233263D01*
Y232894D01*
X401098Y232763D01*
Y227776D01*
X396964D01*
Y227776D01*
X396595D01*
Y227776D01*
X391452D01*
Y227776D01*
X391083D01*
Y227776D01*
X385940D01*
Y227776D01*
X385572D01*
Y227776D01*
X380560D01*
X380428Y227776D01*
X380060D01*
X379928Y227776D01*
X375048D01*
X374917Y227776D01*
X374548D01*
X374416Y227776D01*
X369536D01*
X369405Y227776D01*
X369036D01*
X368905Y227776D01*
X364902D01*
Y232763D01*
X364902Y232894D01*
Y233263D01*
X364902Y233395D01*
Y238275D01*
X364902Y238406D01*
Y238775D01*
X364902Y238906D01*
Y243787D01*
X364902Y243918D01*
Y244287D01*
X364902Y244418D01*
Y249298D01*
X364902Y249430D01*
Y249798D01*
X364902Y249930D01*
Y254810D01*
X364902Y254942D01*
Y255310D01*
X364902Y255442D01*
Y260322D01*
X364902Y260454D01*
Y260822D01*
X364902Y260953D01*
Y265834D01*
X364902Y265965D01*
Y266334D01*
X364902Y266465D01*
Y271452D01*
X368905D01*
X369036Y271452D01*
X369405D01*
X369536Y271452D01*
X374416D01*
X374548Y271452D01*
X374917D01*
X375048Y271452D01*
X379928D01*
X380060Y271452D01*
X380428D01*
X380560Y271452D01*
X385440D01*
X385572Y271452D01*
X385940D01*
X386072Y271452D01*
X390952D01*
X391084Y271452D01*
X391452D01*
X391583Y271452D01*
X396595D01*
Y276426D01*
X397276D01*
X398121Y276776D01*
X398768Y277423D01*
X399118Y278268D01*
Y279183D01*
X398768Y280029D01*
X398190Y280607D01*
X398233Y280965D01*
X398726Y281115D01*
X398895Y280863D01*
D02*
G37*
G36*
X349353Y267236D02*
X349576Y267192D01*
Y266682D01*
X349353Y266638D01*
X348698Y266200D01*
X348260Y265545D01*
X348242Y265453D01*
X347711Y265348D01*
X347636Y265459D01*
X346798Y266298D01*
X346647Y266398D01*
X346520Y266526D01*
X346353Y266595D01*
X346202Y266696D01*
X346025Y266731D01*
X345858Y266800D01*
X345677D01*
X345500Y266835D01*
X345323Y266800D01*
X345142D01*
X344975Y266731D01*
X344798Y266696D01*
X344647Y266595D01*
X344480Y266526D01*
X344353Y266398D01*
X344202Y266298D01*
X344102Y266147D01*
X343974Y266020D01*
X343905Y265853D01*
X343804Y265702D01*
X343769Y265525D01*
X343700Y265358D01*
Y265177D01*
X343665Y265000D01*
X343700Y264823D01*
Y264642D01*
X343769Y264475D01*
X343804Y264298D01*
X343905Y264147D01*
X343974Y263980D01*
X344102Y263853D01*
X344202Y263702D01*
X344503Y263401D01*
Y248760D01*
X343205Y247462D01*
X342705Y247670D01*
Y251241D01*
X337169D01*
Y250585D01*
X335260D01*
X334753Y250484D01*
X334323Y250197D01*
X331224Y247099D01*
X330937Y246669D01*
X330836Y246161D01*
Y244957D01*
X329580D01*
Y246345D01*
X332565Y249330D01*
X332908Y249843D01*
X333028Y250448D01*
Y251019D01*
X334832D01*
Y254981D01*
X329580D01*
Y259830D01*
X331529Y261779D01*
X334832D01*
Y263728D01*
X335293Y263919D01*
X338357Y260856D01*
Y258721D01*
X337169D01*
Y254759D01*
X342705D01*
Y258721D01*
X341517D01*
Y261510D01*
X341397Y262115D01*
X341055Y262628D01*
X338625Y265057D01*
X338817Y265519D01*
X342705D01*
Y267522D01*
X348925D01*
X349353Y267236D01*
D02*
G37*
G36*
X376701Y256898D02*
X366465D01*
Y265047D01*
X370520Y269102D01*
X376701D01*
Y256898D01*
D02*
G37*
G36*
X429428Y266449D02*
Y258944D01*
X435766D01*
Y255693D01*
X432101Y252029D01*
X431981D01*
X431451Y252248D01*
X430735D01*
X430073Y251974D01*
X429567Y251468D01*
X429293Y250806D01*
Y250090D01*
X429567Y249429D01*
X430073Y248922D01*
X430307Y248826D01*
X430207Y248325D01*
X424353D01*
X424162Y248787D01*
X426419Y251045D01*
X426707Y251475D01*
X426807Y251978D01*
X427196Y252367D01*
X427458Y253000D01*
X423542D01*
X423805Y252367D01*
X423899Y252273D01*
X420400Y248774D01*
X417612D01*
X417447Y249021D01*
X416795Y249457D01*
X416773Y249525D01*
X416753Y249759D01*
X416780Y250002D01*
X417302Y250351D01*
X417740Y251007D01*
X417894Y251780D01*
X417740Y252553D01*
X417302Y253208D01*
X416647Y253646D01*
X416424Y253690D01*
Y254200D01*
X416647Y254244D01*
X417302Y254682D01*
X417740Y255337D01*
X417894Y256110D01*
X417740Y256883D01*
X417302Y257539D01*
X416780Y257888D01*
X416753Y258131D01*
X416773Y258364D01*
X416795Y258433D01*
X417447Y258868D01*
X417612Y259116D01*
X421510D01*
X424174Y256451D01*
Y255003D01*
X423805Y254633D01*
X423542Y254000D01*
X427458D01*
X427196Y254633D01*
X426826Y255003D01*
Y257000D01*
X426725Y257507D01*
X426437Y257937D01*
X422996Y261378D01*
X422566Y261666D01*
X422059Y261766D01*
X417612D01*
X417447Y262013D01*
X417009Y262306D01*
Y262907D01*
X417447Y263199D01*
X417929Y263921D01*
X417998Y264272D01*
X413905D01*
Y265272D01*
X417998D01*
X417929Y265623D01*
X417505Y266257D01*
X417660Y266757D01*
X428996D01*
X429042Y266766D01*
X429428Y266449D01*
D02*
G37*
G36*
X440674Y247936D02*
Y242578D01*
X440174Y242371D01*
X440020Y242526D01*
X439358Y242800D01*
X438642D01*
X437980Y242526D01*
X437745Y242290D01*
X435343D01*
X432420Y245213D01*
X432611Y245674D01*
X437157D01*
X437664Y245775D01*
X438094Y246063D01*
X440174Y248143D01*
X440674Y247936D01*
D02*
G37*
G36*
X407444Y227547D02*
X407759Y227231D01*
X408512Y226919D01*
X409328D01*
X409848Y227135D01*
X410180Y226731D01*
X410071Y226568D01*
X409917Y225795D01*
X410071Y225022D01*
X410509Y224367D01*
X411164Y223929D01*
X411937Y223775D01*
X415874D01*
X416647Y223929D01*
X417200Y224299D01*
X417595Y224175D01*
X417720Y224093D01*
X417974Y223480D01*
X418283Y223171D01*
X418076Y222671D01*
X402107D01*
Y227751D01*
X407028D01*
X407444Y227547D01*
D02*
G37*
G36*
X429063Y219063D02*
X429493Y218775D01*
X430000Y218674D01*
X437042D01*
X441928Y213788D01*
Y210163D01*
X435562D01*
X432509Y213215D01*
X432717Y213716D01*
X434739D01*
X434980Y213474D01*
X435642Y213200D01*
X436358D01*
X437020Y213474D01*
X437526Y213980D01*
X437800Y214642D01*
Y215358D01*
X437526Y216020D01*
X437020Y216526D01*
X436358Y216800D01*
X435642D01*
X434980Y216526D01*
X434821Y216366D01*
X426450D01*
Y220615D01*
X426384D01*
Y221088D01*
X426847Y221279D01*
X429063Y219063D01*
D02*
G37*
G36*
X413017Y217555D02*
X413100Y217354D01*
X413607Y216848D01*
X414268Y216574D01*
X414984D01*
X415646Y216848D01*
X415878Y217080D01*
X418550D01*
Y216259D01*
X418615D01*
Y216059D01*
X418716Y215552D01*
X419004Y215122D01*
X419097Y215028D01*
X418906Y214566D01*
X418812D01*
X418305Y214465D01*
X417875Y214178D01*
X413829Y210132D01*
X413367Y210324D01*
Y210457D01*
X407633D01*
Y203794D01*
X405690D01*
Y210457D01*
X405690D01*
X405536Y210829D01*
X407907Y213200D01*
X408358D01*
X409020Y213474D01*
X409526Y213980D01*
X409800Y214642D01*
Y214926D01*
X412527Y217652D01*
X413017Y217555D01*
D02*
G37*
%LPC*%
G36*
X314690Y294458D02*
X308956D01*
Y291876D01*
X308010D01*
X307210Y291716D01*
X306532Y291263D01*
X304380Y289112D01*
X303927Y288434D01*
X303768Y287634D01*
X303768Y287634D01*
Y285206D01*
X301247D01*
Y278881D01*
X308753D01*
Y279750D01*
X312340D01*
X312340Y279750D01*
X313140Y279909D01*
X313818Y280362D01*
X315478Y282022D01*
X315931Y282700D01*
X316090Y283500D01*
X315931Y284300D01*
X315478Y284978D01*
X314800Y285431D01*
X314000Y285590D01*
X313200Y285431D01*
X312522Y284978D01*
X311475Y283931D01*
X308753D01*
Y285206D01*
X307948D01*
Y286768D01*
X308534Y287354D01*
X308956Y287543D01*
X314690D01*
Y294458D01*
D02*
G37*
G36*
X304500Y278319D02*
X301047D01*
Y275457D01*
X304500D01*
Y278319D01*
D02*
G37*
G36*
Y274457D02*
X301047D01*
Y271595D01*
X304500D01*
Y274457D01*
D02*
G37*
G36*
X321500Y261122D02*
X318246D01*
X318500Y260172D01*
X318994Y259316D01*
X319694Y258617D01*
X320550Y258122D01*
X321500Y257868D01*
Y261122D01*
D02*
G37*
G36*
X325754D02*
X322500D01*
Y257868D01*
X323450Y258122D01*
X324306Y258617D01*
X325006Y259316D01*
X325500Y260172D01*
X325754Y261122D01*
D02*
G37*
G36*
X312457Y261300D02*
X311543D01*
X310697Y260950D01*
X310050Y260303D01*
X309700Y259457D01*
Y258542D01*
X310050Y257697D01*
X310697Y257050D01*
X311543Y256700D01*
X312457D01*
X313303Y257050D01*
X313950Y257697D01*
X314300Y258542D01*
Y259457D01*
X313950Y260303D01*
X313303Y260950D01*
X312457Y261300D01*
D02*
G37*
G36*
X322468Y257304D02*
X321532D01*
X320627Y257062D01*
X319817Y256593D01*
X319155Y255931D01*
X318686Y255121D01*
X318444Y254216D01*
Y253280D01*
X318686Y252376D01*
X319155Y251565D01*
X319817Y250903D01*
X320627Y250434D01*
X321532Y250192D01*
X322468D01*
X323373Y250434D01*
X324183Y250903D01*
X324845Y251565D01*
X325314Y252376D01*
X325556Y253280D01*
Y254216D01*
X325314Y255121D01*
X324845Y255931D01*
X324183Y256593D01*
X323373Y257062D01*
X322468Y257304D01*
D02*
G37*
G36*
X356187Y242618D02*
X347751D01*
X345063Y239929D01*
X344775Y239499D01*
X344674Y238992D01*
Y218500D01*
X344775Y217993D01*
X345063Y217563D01*
X348778Y213847D01*
X349208Y213560D01*
X349715Y213459D01*
X349715Y213459D01*
X354497D01*
X354867Y213089D01*
X355500Y212827D01*
Y214785D01*
X356500D01*
Y212827D01*
X357133Y213089D01*
X357503Y213459D01*
X363453D01*
Y213000D01*
X363623Y212149D01*
X364105Y211427D01*
X364826Y210945D01*
X365177Y210876D01*
Y214968D01*
Y219061D01*
X364826Y218992D01*
X364105Y218510D01*
X363623Y217788D01*
X363453Y216937D01*
Y216110D01*
X357503D01*
X357398Y216215D01*
X357362Y216885D01*
X362001Y221524D01*
X362454Y222202D01*
X362543Y222648D01*
X362573Y222721D01*
Y222800D01*
X362613Y223002D01*
X362613Y223002D01*
Y223129D01*
X362573Y223331D01*
Y223537D01*
X362494Y223727D01*
X362454Y223929D01*
X362339Y224100D01*
X362261Y224290D01*
X362115Y224436D01*
X362001Y224607D01*
X361830Y224721D01*
X361684Y224867D01*
X361494Y224946D01*
X361323Y225060D01*
X361121Y225100D01*
X360931Y225179D01*
X360725D01*
X360523Y225219D01*
X360321Y225179D01*
X360115D01*
X359925Y225100D01*
X359723Y225060D01*
X359552Y224946D01*
X359362Y224867D01*
X359216Y224721D01*
X359045Y224607D01*
X358930Y224436D01*
X358785Y224290D01*
X358735Y224171D01*
X354489Y219925D01*
X352835D01*
X352633Y219885D01*
X352427D01*
X352237Y219806D01*
X352035Y219766D01*
X351864Y219651D01*
X351674Y219573D01*
X351528Y219427D01*
X351357Y219313D01*
X351242Y219142D01*
X351097Y218996D01*
X351018Y218806D01*
X350904Y218635D01*
X350864Y218433D01*
X350785Y218243D01*
Y218037D01*
X350745Y217835D01*
X350785Y217633D01*
Y217427D01*
X350864Y217237D01*
X350904Y217035D01*
X351018Y216864D01*
X351097Y216673D01*
X351160Y216610D01*
X351097Y216340D01*
X350920Y216110D01*
X350264D01*
X347325Y219049D01*
Y238394D01*
X347710Y238711D01*
X348152Y238556D01*
X348260Y238014D01*
X348698Y237359D01*
X349353Y236921D01*
X349576Y236877D01*
Y236367D01*
X349353Y236323D01*
X348698Y235885D01*
X348260Y235230D01*
X348106Y234457D01*
X348260Y233684D01*
X348698Y233028D01*
X349353Y232591D01*
X349576Y232546D01*
Y232036D01*
X349353Y231992D01*
X348698Y231554D01*
X348260Y230899D01*
X348106Y230126D01*
X348260Y229353D01*
X348698Y228698D01*
X349353Y228260D01*
X349576Y228216D01*
Y227706D01*
X349353Y227661D01*
X348698Y227224D01*
X348260Y226568D01*
X348106Y225795D01*
X348260Y225022D01*
X348698Y224367D01*
X349353Y223929D01*
X350126Y223775D01*
X354063D01*
X354836Y223929D01*
X355491Y224367D01*
X355929Y225022D01*
X356083Y225795D01*
X355929Y226568D01*
X355491Y227224D01*
X354836Y227661D01*
X354613Y227706D01*
Y228216D01*
X354836Y228260D01*
X355491Y228698D01*
X355929Y229353D01*
X356083Y230126D01*
X355929Y230899D01*
X355491Y231554D01*
X354836Y231992D01*
X354613Y232036D01*
Y232546D01*
X354836Y232591D01*
X355491Y233028D01*
X355929Y233684D01*
X356083Y234457D01*
X355929Y235230D01*
X355491Y235885D01*
X354836Y236323D01*
X354613Y236367D01*
Y236877D01*
X354836Y236921D01*
X355491Y237359D01*
X355929Y238014D01*
X356083Y238787D01*
X355929Y239560D01*
X355491Y240216D01*
X354969Y240565D01*
X354942Y240808D01*
X354962Y241041D01*
X354984Y241110D01*
X355635Y241546D01*
X356118Y242267D01*
X356187Y242618D01*
D02*
G37*
G36*
X414839Y293158D02*
X412272D01*
Y290000D01*
X414839D01*
Y293158D01*
D02*
G37*
G36*
Y289000D02*
X412272D01*
Y285842D01*
X414839D01*
Y289000D01*
D02*
G37*
G36*
X455532Y279441D02*
X453063D01*
Y277760D01*
X455532D01*
Y279441D01*
D02*
G37*
G36*
Y276760D02*
X453063D01*
Y275079D01*
X455532D01*
Y276760D01*
D02*
G37*
G36*
X478958Y281190D02*
X472043D01*
Y275456D01*
X473410D01*
Y270366D01*
X471022Y267978D01*
X470908Y267807D01*
X470762Y267661D01*
X470683Y267471D01*
X470569Y267300D01*
X470529Y267098D01*
X470450Y266908D01*
Y266702D01*
X470410Y266500D01*
X470450Y266298D01*
Y266092D01*
X470529Y265902D01*
X470569Y265700D01*
X470683Y265529D01*
X470741Y265390D01*
X470651Y265147D01*
X470503Y264891D01*
X462866D01*
X462554Y264828D01*
X462289Y264652D01*
X462113Y264387D01*
X462050Y264075D01*
Y249508D01*
X462113Y249196D01*
X462289Y248931D01*
X462554Y248754D01*
X462866Y248692D01*
X472472D01*
X472785Y248754D01*
X473049Y248931D01*
X473226Y249196D01*
X473288Y249508D01*
Y264075D01*
X473226Y264387D01*
X473595Y264735D01*
X473661Y264762D01*
X473807Y264908D01*
X473978Y265022D01*
X476978Y268022D01*
X477431Y268700D01*
X477590Y269500D01*
Y275456D01*
X478958D01*
Y281190D01*
D02*
G37*
G36*
X459559Y264891D02*
X454441D01*
X454129Y264828D01*
X453864Y264652D01*
X453687Y264387D01*
X453625Y264075D01*
Y249508D01*
X453687Y249196D01*
X453864Y248931D01*
X454129Y248754D01*
X454441Y248692D01*
X459559D01*
X459871Y248754D01*
X460136Y248931D01*
X460313Y249196D01*
X460375Y249508D01*
Y264075D01*
X460313Y264387D01*
X460136Y264652D01*
X459871Y264828D01*
X459559Y264891D01*
D02*
G37*
G36*
X436146Y232985D02*
X429428D01*
Y224298D01*
X436146D01*
Y232985D01*
D02*
G37*
G36*
X470228Y237253D02*
X465110D01*
X464798Y237191D01*
X464534Y237014D01*
X464357Y236749D01*
X464295Y236437D01*
Y221870D01*
X464357Y221558D01*
X464534Y221293D01*
X464798Y221116D01*
X465110Y221054D01*
X470228D01*
X470541Y221116D01*
X470805Y221293D01*
X470982Y221558D01*
X471044Y221870D01*
Y236437D01*
X470982Y236749D01*
X470805Y237014D01*
X470541Y237191D01*
X470228Y237253D01*
D02*
G37*
G36*
X459559D02*
X454441D01*
X454129Y237191D01*
X453864Y237014D01*
X453687Y236749D01*
X453625Y236437D01*
Y221870D01*
X453687Y221558D01*
X453864Y221293D01*
X454129Y221116D01*
X454441Y221054D01*
X459559D01*
X459871Y221116D01*
X460136Y221293D01*
X460313Y221558D01*
X460375Y221870D01*
Y236437D01*
X460313Y236749D01*
X460136Y237014D01*
X459871Y237191D01*
X459559Y237253D01*
D02*
G37*
%LPD*%
D15*
X475674Y247674D02*
Y252049D01*
X447395Y246000D02*
X474000D01*
X475674Y247674D01*
Y252049D02*
X477000Y253375D01*
Y255000D01*
X382500Y291271D02*
X384105Y292876D01*
Y293746D01*
X385359Y295000D01*
X382500Y291000D02*
Y291271D01*
X385359Y295000D02*
X441500D01*
X305000Y274957D02*
X311911D01*
X314221Y277267D01*
X377661Y207591D02*
X379228Y209157D01*
X382739Y214708D02*
X383000Y214968D01*
X379228Y209157D02*
X379819D01*
X382739Y212078D01*
X383000Y214968D02*
Y216937D01*
X377661Y207000D02*
Y207591D01*
X382739Y212078D02*
Y214708D01*
X391661Y212944D02*
Y214968D01*
X396741Y207741D02*
Y207864D01*
X391661Y212944D02*
X396741Y207864D01*
X386906Y204842D02*
X389698D01*
X389772Y204768D01*
X397249Y207955D02*
X399456Y210162D01*
X397045Y207955D02*
X397249D01*
X397000Y208000D02*
X397045Y207955D01*
X396741Y207741D02*
X397000Y208000D01*
X399456Y210196D02*
X400157Y210897D01*
X399456Y210162D02*
Y210196D01*
X385339Y206410D02*
X386906Y204842D01*
X385339Y206410D02*
Y207000D01*
X442875Y241247D02*
X458862D01*
X462304Y218133D02*
Y237805D01*
X458862Y241247D02*
X462304Y237805D01*
X445047Y243547D02*
Y243653D01*
X447395Y246000D01*
X410500Y207000D02*
X411410Y207910D01*
X413481D01*
X418812Y213241D01*
X426188D01*
X424532Y207000D02*
X460500D01*
X463228Y209728D01*
X442000Y281086D02*
Y282500D01*
X422590Y208942D02*
X424532Y207000D01*
X422590Y208942D02*
Y210472D01*
X422500Y210563D02*
X422590Y210472D01*
X391835Y290565D02*
X392000Y290729D01*
X442000Y242122D02*
Y282500D01*
X463228Y211228D02*
X465000Y213000D01*
X462304Y217862D02*
X464390Y215776D01*
Y213200D02*
Y215776D01*
Y213200D02*
X464591Y213000D01*
X465000D01*
X454691Y218009D02*
X457021D01*
X459253Y212747D02*
Y215776D01*
Y212747D02*
X459500Y212500D01*
X457021Y218009D02*
X459253Y215776D01*
X454500Y218200D02*
X454691Y218009D01*
X442000Y281086D02*
X443665Y279420D01*
X446559Y277941D02*
X451882D01*
X443665Y279420D02*
X445080D01*
X446559Y277941D01*
X314221Y277267D02*
X320542D01*
X323036Y274773D01*
Y264464D02*
Y274773D01*
X425500Y253500D02*
Y257000D01*
X422059Y260441D02*
X425500Y257000D01*
X413905Y260441D02*
X422059D01*
X421663Y243072D02*
X423791Y245200D01*
X430558D01*
X415874Y243118D02*
X418405Y245649D01*
X421694D01*
X420159Y243072D02*
X421663D01*
X415874Y238787D02*
X420159Y243072D01*
X413905Y238787D02*
X415874D01*
X421694Y245649D02*
X423046Y247000D01*
X425482Y253482D02*
X425500Y253500D01*
X425482Y251982D02*
Y253482D01*
X423046Y247000D02*
X437157D01*
X413905Y247449D02*
X420949D01*
X425482Y251982D01*
X430558Y245200D02*
X434794Y240965D01*
X322863Y264292D02*
X323036Y264464D01*
X322863Y262485D02*
Y264292D01*
X322000Y261622D02*
X322863Y262485D01*
X400157Y210897D02*
Y214802D01*
X400323Y214968D01*
X434794Y240965D02*
X438965D01*
X439000Y241000D01*
X424500Y237339D02*
X425661Y238500D01*
X442500D01*
X356000Y214785D02*
X365493D01*
X365677Y214968D01*
X414346Y221346D02*
X421172D01*
X422409Y220108D01*
X405332Y218500D02*
X405500D01*
X385481Y219418D02*
X404414D01*
X405332Y218500D01*
X346000D02*
Y238992D01*
X349715Y214785D02*
X356000D01*
X346000Y218500D02*
X349715Y214785D01*
X346000Y238992D02*
X350126Y243118D01*
X352095D01*
X408608Y284392D02*
X413905Y279095D01*
X406207Y284392D02*
X408608D01*
X413905Y273433D02*
Y279095D01*
X399698Y290900D02*
X406207Y284392D01*
X391500Y290900D02*
X399698D01*
X413905Y273433D02*
X417933D01*
X404552Y293200D02*
X407661Y290090D01*
X389450Y293200D02*
X404552D01*
X391649Y284272D02*
Y290378D01*
Y284272D02*
X391661Y284260D01*
X451882Y285421D02*
X452563Y284740D01*
X441500Y295000D02*
X451079Y285421D01*
X451882D01*
X387000Y290750D02*
X389450Y293200D01*
X378669Y284260D02*
Y289740D01*
X376500Y291910D02*
X378669Y289740D01*
X376500Y291910D02*
Y292500D01*
X374078Y210078D02*
Y214708D01*
X367500Y207000D02*
X371000D01*
X374078Y210078D01*
X408000Y215000D02*
X414346Y221346D01*
X383078D02*
X414346D01*
X374078Y214708D02*
X374339Y214968D01*
X463228Y209728D02*
Y211228D01*
X431150Y212700D02*
X435013Y208838D01*
X446810D02*
X448228Y210256D01*
Y211228D01*
X435013Y208838D02*
X446810D01*
X448228Y211228D02*
X449500Y212500D01*
X437591Y220000D02*
X444500Y213090D01*
Y212500D02*
Y213090D01*
X435959Y215041D02*
X436000Y215000D01*
X420959Y215041D02*
X435959D01*
X419941Y216059D02*
X420959Y215041D01*
X419941Y216059D02*
Y218437D01*
X426188Y213241D02*
X426729Y212700D01*
X431150D01*
X430000Y220000D02*
X437591D01*
X424500Y225500D02*
X430000Y220000D01*
X424500Y225500D02*
Y229661D01*
X414658Y218405D02*
X419909D01*
X419941Y218437D01*
X414626Y218374D02*
X414658Y218405D01*
X407833Y215000D02*
X408000D01*
X403405Y207582D02*
Y210572D01*
X407833Y215000D01*
X402823Y207000D02*
X403405Y207582D01*
X383000Y216937D02*
X385481Y219418D01*
X378669Y216937D02*
X383078Y221346D01*
X378669Y214968D02*
Y216937D01*
X419500Y224500D02*
X422500D01*
X425059Y221941D01*
Y218437D02*
Y221941D01*
X422409Y218528D02*
Y220108D01*
Y218528D02*
X422500Y218437D01*
X417933Y273433D02*
X427000Y282500D01*
X430386D01*
Y284764D01*
X347500Y288000D02*
X356146Y279354D01*
X366716D01*
X347577Y290500D02*
X349594Y292518D01*
X347500Y288000D02*
X347577Y288077D01*
Y290500D01*
X349594Y292518D02*
X353144D01*
X353161Y292500D01*
X356000Y285950D02*
X358102Y288052D01*
X360542D01*
X361128Y288637D01*
Y292210D01*
X360839Y292500D02*
X361128Y292210D01*
X451882Y277941D02*
X452563Y277260D01*
X413905Y264772D02*
X414020Y264886D01*
X326500Y233500D02*
X332161D01*
X437157Y247000D02*
X439700Y249543D01*
Y269409D01*
X442000Y242122D02*
X442875Y241247D01*
X460437Y281000D02*
Y283110D01*
X451047Y292500D02*
X460437Y283110D01*
X413905Y243118D02*
X415874D01*
X335260Y249260D02*
X339937D01*
X332161Y241500D02*
Y246161D01*
X335260Y249260D01*
X368823Y288835D02*
Y292500D01*
X365677Y284260D02*
Y285860D01*
X366306Y286489D01*
X366477D01*
X368823Y288835D01*
X366716Y279354D02*
X370008Y282647D01*
Y284260D01*
X407661Y289500D02*
Y290090D01*
X332063Y271240D02*
Y278402D01*
X332161Y278500D01*
X387331Y284260D02*
X391661D01*
X413905Y260441D02*
Y264772D01*
X415339Y289500D02*
X425650D01*
X430386Y284764D01*
X425650Y289500D02*
X439385D01*
X441236Y287649D01*
Y283264D02*
Y287649D01*
Y283264D02*
X442000Y282500D01*
D16*
X432787Y263287D02*
D03*
Y228642D02*
D03*
X481213Y263287D02*
D03*
Y228642D02*
D03*
D17*
X444500Y212500D02*
D03*
X454500D02*
D03*
X464500D02*
D03*
X449500D02*
D03*
X459500D02*
D03*
X469500D02*
D03*
D18*
X425059Y218437D02*
D03*
X422500D02*
D03*
X419941D02*
D03*
Y210563D02*
D03*
X422500D02*
D03*
X425059D02*
D03*
D19*
X424500Y229661D02*
D03*
Y237339D02*
D03*
X475500Y286000D02*
D03*
Y278323D02*
D03*
D20*
X410500Y207000D02*
D03*
X385339D02*
D03*
X319500Y291000D02*
D03*
X311823D02*
D03*
X332161Y233500D02*
D03*
X339839D02*
D03*
X339839Y241500D02*
D03*
X332161D02*
D03*
X339839Y288000D02*
D03*
X332161D02*
D03*
X340000Y225500D02*
D03*
X332323D02*
D03*
X332161Y278500D02*
D03*
X339839D02*
D03*
X377661Y207000D02*
D03*
X402823D02*
D03*
X376500Y292500D02*
D03*
X368823D02*
D03*
X360839D02*
D03*
X353161D02*
D03*
X407661Y289500D02*
D03*
X415339D02*
D03*
D21*
X305000Y282043D02*
D03*
Y274957D02*
D03*
D22*
X452563Y284740D02*
D03*
Y277260D02*
D03*
X460437Y281000D02*
D03*
X339937Y249260D02*
D03*
Y256740D02*
D03*
X332063Y253000D02*
D03*
Y271240D02*
D03*
Y263760D02*
D03*
X339937Y267500D02*
D03*
D23*
X451047Y292500D02*
D03*
X456953D02*
D03*
D24*
X430386Y282500D02*
D03*
X442000D02*
D03*
D25*
X436193Y276398D02*
D03*
D46*
X371583Y263000D02*
D03*
D47*
X383000D02*
D03*
X394417D02*
D03*
X371583Y249614D02*
D03*
X383000D02*
D03*
X394417D02*
D03*
X371583Y236228D02*
D03*
X383000D02*
D03*
X394417D02*
D03*
D48*
X366465Y274417D02*
D03*
X371976D02*
D03*
X377488D02*
D03*
X383000D02*
D03*
X388512D02*
D03*
X394024D02*
D03*
X399535Y224811D02*
D03*
X394024D02*
D03*
X388512D02*
D03*
X383000D02*
D03*
X377488D02*
D03*
X371976D02*
D03*
X366465D02*
D03*
D49*
X404063Y252370D02*
D03*
Y246858D02*
D03*
Y241347D02*
D03*
Y235835D02*
D03*
Y230323D02*
D03*
X361937D02*
D03*
Y235835D02*
D03*
Y241347D02*
D03*
Y246858D02*
D03*
Y252370D02*
D03*
Y257882D02*
D03*
Y263394D02*
D03*
Y268905D02*
D03*
D50*
X365677Y284260D02*
D03*
X370008D02*
D03*
X374339D02*
D03*
X378669D02*
D03*
X383000D02*
D03*
X387331D02*
D03*
X391661D02*
D03*
X395992D02*
D03*
X400323D02*
D03*
Y214968D02*
D03*
X395992D02*
D03*
X391661D02*
D03*
X387331D02*
D03*
X383000D02*
D03*
X378669D02*
D03*
X374339D02*
D03*
X370008D02*
D03*
X365677D02*
D03*
D51*
X413905Y273433D02*
D03*
Y269102D02*
D03*
Y264772D02*
D03*
Y260441D02*
D03*
Y256110D02*
D03*
Y251780D02*
D03*
Y247449D02*
D03*
Y243118D02*
D03*
Y238787D02*
D03*
Y234457D02*
D03*
Y230126D02*
D03*
Y225795D02*
D03*
X352095D02*
D03*
Y230126D02*
D03*
Y234457D02*
D03*
Y238787D02*
D03*
Y243118D02*
D03*
Y247449D02*
D03*
Y251780D02*
D03*
Y256110D02*
D03*
Y260441D02*
D03*
Y264772D02*
D03*
Y269102D02*
D03*
Y273433D02*
D03*
D52*
X475548Y219139D02*
Y241813D01*
X480404Y246669D01*
Y247904D01*
X480500Y248000D01*
X420050Y204950D02*
X465950D01*
X419971Y205030D02*
X420050Y204950D01*
X419971Y205030D02*
Y210533D01*
X419941Y210563D02*
X419971Y210533D01*
X469500Y213090D02*
X475548Y219139D01*
X469500Y212500D02*
Y213090D01*
Y208500D02*
Y212500D01*
X465950Y204950D02*
X469500Y208500D01*
X319500Y281208D02*
X325085Y275622D01*
X319500Y281208D02*
Y291000D01*
X325085Y272876D02*
Y275622D01*
X330462Y267500D02*
X334130D01*
X325085Y272876D02*
X330462Y267500D01*
X419293Y239049D02*
X421267Y241022D01*
X422512D02*
X424486Y242996D01*
X419293Y236529D02*
Y239049D01*
X421267Y241022D02*
X422512D01*
X424486Y242996D02*
X428904D01*
X429000Y242900D01*
X328000Y250500D02*
Y260484D01*
X324727Y247227D02*
X328000Y250500D01*
Y260484D02*
X331276Y263760D01*
X322000Y245874D02*
X323086D01*
X324438Y247227D02*
X324727D01*
X323086Y245874D02*
X324438Y247227D01*
X328000Y247000D02*
X331448Y250448D01*
X331879Y253000D02*
X332063D01*
X331448Y250448D02*
Y252569D01*
X328000Y244000D02*
Y247000D01*
X331448Y252569D02*
X331879Y253000D01*
X317000Y240874D02*
X322000Y245874D01*
X339937Y267500D02*
X340724D01*
X341156Y267931D02*
Y268224D01*
X340724Y267500D02*
X341156Y267931D01*
Y268224D02*
X342034Y269102D01*
X352095D01*
X339937Y256740D02*
Y261510D01*
X334130Y267317D02*
X339937Y261510D01*
X413905Y234457D02*
X414071Y234622D01*
X417386D02*
X419293Y236529D01*
X414071Y234622D02*
X417386D01*
X419500Y224500D02*
Y232929D01*
X423910Y237339D01*
X424500D01*
X357000Y271000D02*
Y274500D01*
X344950Y286550D02*
X357000Y274500D01*
X344950Y286550D02*
Y289805D01*
X332747Y292500D02*
X342255D01*
X344950Y289805D01*
X432756Y250448D02*
X437347Y255039D01*
X431093Y250448D02*
X432756D01*
X435000Y269500D02*
X437347Y267154D01*
Y255039D02*
Y267154D01*
X334130Y267500D02*
X340063Y273433D01*
X352095D01*
X322500Y225500D02*
X332323D01*
X317000Y231000D02*
X322500Y225500D01*
X317000Y231000D02*
Y240874D01*
X334130Y267317D02*
Y267500D01*
X322000Y238000D02*
X328000Y244000D01*
X331276Y263760D02*
X332063D01*
X322000Y238000D02*
X326500Y233500D01*
X332161Y291914D02*
X332747Y292500D01*
X332161Y288000D02*
Y291914D01*
X352355Y269363D02*
X355363D01*
X352095Y269102D02*
X352355Y269363D01*
X355363D02*
X357000Y271000D01*
X474909Y286000D02*
X475500D01*
X456953Y292500D02*
X468409D01*
X474909Y286000D01*
D53*
X304500Y260110D02*
X317890Y273500D01*
X318000D01*
X304500Y229500D02*
Y260110D01*
X312340Y281840D02*
X314000Y283500D01*
X305203Y281840D02*
X312340D01*
X396061Y279618D02*
X396818Y278861D01*
X396061Y279618D02*
Y284322D01*
X396818Y278726D02*
Y278861D01*
X315500Y212000D02*
X333596D01*
X340000Y218404D01*
X312000Y215500D02*
X315500Y212000D01*
X352835Y217835D02*
X355355D01*
X360523Y223002D02*
Y223129D01*
X355355Y217835D02*
X360523Y223002D01*
X304500Y229500D02*
X317000Y217000D01*
X325000D01*
X472500Y266500D02*
X475500Y269500D01*
Y278323D01*
X339839Y233500D02*
X340000Y233339D01*
Y225500D02*
Y233339D01*
X311823Y290602D02*
Y291000D01*
X308010Y289785D02*
X311006D01*
X305858Y282902D02*
Y287634D01*
X311006Y289785D02*
X311823Y290602D01*
X305000Y282043D02*
X305858Y282902D01*
Y287634D02*
X308010Y289785D01*
X305000Y282043D02*
X305203Y281840D01*
X436193Y276299D02*
Y276398D01*
X340000Y218404D02*
Y225500D01*
X396159Y284260D02*
X400323D01*
D54*
X387400Y212833D02*
X390150Y210082D01*
X393500Y205000D02*
Y206733D01*
X390150Y210082D02*
Y210082D01*
Y210082D02*
X393500Y206733D01*
X387400Y212833D02*
Y212931D01*
X323500Y283500D02*
X335429D01*
X339839Y287409D02*
X345354Y281894D01*
Y278146D02*
Y281894D01*
X335429Y283500D02*
X339839Y279090D01*
X339839Y241500D02*
Y242091D01*
X345500Y265000D02*
X346339Y264161D01*
X340905Y243158D02*
X341496D01*
X339839Y242091D02*
X340905Y243158D01*
X346339Y248000D02*
Y264161D01*
X341496Y243158D02*
X346339Y248000D01*
X371349Y279207D02*
X371443Y279302D01*
X373072D01*
X339839Y287409D02*
Y288000D01*
X345000Y278500D02*
X345354Y278147D01*
Y278146D02*
Y278147D01*
X339839Y278500D02*
X345000D01*
X374269Y280499D02*
Y284191D01*
X373072Y279302D02*
X374269Y280499D01*
Y284191D02*
X374339Y284260D01*
X339839Y278500D02*
Y279090D01*
D55*
X413905Y269102D02*
X428996D01*
X436193Y276299D01*
D56*
X322000Y238000D02*
D03*
D57*
Y245874D02*
D03*
Y253748D02*
D03*
Y261622D02*
D03*
D58*
X480500Y248000D02*
D03*
X420000Y205000D02*
D03*
X382500Y291000D02*
D03*
X389772Y204768D02*
D03*
X397000Y207550D02*
D03*
X393500Y205000D02*
D03*
X445047Y243547D02*
D03*
X462304Y218133D02*
D03*
X454500Y218200D02*
D03*
X323500Y283500D02*
D03*
X314000D02*
D03*
X429000Y242900D02*
D03*
X439000Y241000D02*
D03*
X391500Y290900D02*
D03*
X367500Y207000D02*
D03*
X436000Y215000D02*
D03*
X414626Y218374D02*
D03*
X408000Y215000D02*
D03*
X405500Y218500D02*
D03*
X419500Y224500D02*
D03*
X356000Y214785D02*
D03*
X442500Y238500D02*
D03*
X347500Y288000D02*
D03*
X356000Y285950D02*
D03*
X387000Y290750D02*
D03*
X425500Y253500D02*
D03*
X435000Y269500D02*
D03*
X431093Y250448D02*
D03*
X371349Y279207D02*
D03*
X345500Y265000D02*
D03*
X439700Y269409D02*
D03*
X477000Y255000D02*
D03*
X345354Y278146D02*
D03*
D59*
X312000Y259000D02*
D03*
X318000Y273500D02*
D03*
X396818Y278726D02*
D03*
X325000Y217000D02*
D03*
X312000Y215500D02*
D03*
D60*
X352835Y217835D02*
D03*
X408920Y228969D02*
D03*
X360523Y223129D02*
D03*
X472500Y266500D02*
D03*
M02*
