G04*
G04 #@! TF.GenerationSoftware,Altium Limited,Altium Designer,23.0.1 (38)*
G04*
G04 Layer_Color=2752767*
%FSLAX25Y25*%
%MOIN*%
G70*
G04*
G04 #@! TF.SameCoordinates,7EA281D9-4360-43E8-82A8-E858FA6B50C7*
G04*
G04*
G04 #@! TF.FilePolarity,Positive*
G04*
G01*
G75*
%ADD13C,0.00500*%
%ADD78C,0.00667*%
D13*
X320000Y236000D02*
Y240000D01*
X324000D01*
Y236000D01*
X320000D01*
Y243874D02*
Y247874D01*
X324000D01*
Y243874D01*
X320000D01*
Y251748D02*
Y255748D01*
X324000D01*
Y251748D01*
X320000D01*
Y259622D02*
Y263622D01*
X324000D01*
Y259622D01*
X320000D01*
D78*
X482500Y248000D02*
G03*
X482500Y248000I-2000J0D01*
G01*
X422000Y205000D02*
G03*
X422000Y205000I-2000J0D01*
G01*
X384500Y291000D02*
G03*
X384500Y291000I-2000J0D01*
G01*
X314000Y259000D02*
G03*
X314000Y259000I-2000J0D01*
G01*
X320000Y273500D02*
G03*
X320000Y273500I-2000J0D01*
G01*
X391772Y204768D02*
G03*
X391772Y204768I-2000J0D01*
G01*
X399000Y207550D02*
G03*
X399000Y207550I-2000J0D01*
G01*
X395500Y205000D02*
G03*
X395500Y205000I-2000J0D01*
G01*
X447047Y243547D02*
G03*
X447047Y243547I-2000J0D01*
G01*
X464304Y218133D02*
G03*
X464304Y218133I-2000J0D01*
G01*
X456500Y218200D02*
G03*
X456500Y218200I-2000J0D01*
G01*
X325500Y283500D02*
G03*
X325500Y283500I-2000J0D01*
G01*
X316000D02*
G03*
X316000Y283500I-2000J0D01*
G01*
X398818Y278726D02*
G03*
X398818Y278726I-2000J0D01*
G01*
X431000Y242900D02*
G03*
X431000Y242900I-2000J0D01*
G01*
X441000Y241000D02*
G03*
X441000Y241000I-2000J0D01*
G01*
X354835Y217835D02*
G03*
X354835Y217835I-2000J0D01*
G01*
X393500Y290900D02*
G03*
X393500Y290900I-2000J0D01*
G01*
X369500Y207000D02*
G03*
X369500Y207000I-2000J0D01*
G01*
X438000Y215000D02*
G03*
X438000Y215000I-2000J0D01*
G01*
X416626Y218374D02*
G03*
X416626Y218374I-2000J0D01*
G01*
X410000Y215000D02*
G03*
X410000Y215000I-2000J0D01*
G01*
X407500Y218500D02*
G03*
X407500Y218500I-2000J0D01*
G01*
X421500Y224500D02*
G03*
X421500Y224500I-2000J0D01*
G01*
X410920Y228969D02*
G03*
X410920Y228969I-2000J0D01*
G01*
X362523Y223129D02*
G03*
X362523Y223129I-2000J0D01*
G01*
X358000Y214785D02*
G03*
X358000Y214785I-2000J0D01*
G01*
X444500Y238500D02*
G03*
X444500Y238500I-2000J0D01*
G01*
X327000Y217000D02*
G03*
X327000Y217000I-2000J0D01*
G01*
X349500Y288000D02*
G03*
X349500Y288000I-2000J0D01*
G01*
X358000Y285950D02*
G03*
X358000Y285950I-2000J0D01*
G01*
X389000Y290750D02*
G03*
X389000Y290750I-2000J0D01*
G01*
X474500Y266500D02*
G03*
X474500Y266500I-2000J0D01*
G01*
X427500Y253500D02*
G03*
X427500Y253500I-2000J0D01*
G01*
X437000Y269500D02*
G03*
X437000Y269500I-2000J0D01*
G01*
X433093Y250448D02*
G03*
X433093Y250448I-2000J0D01*
G01*
X373349Y279207D02*
G03*
X373349Y279207I-2000J0D01*
G01*
X347500Y265000D02*
G03*
X347500Y265000I-2000J0D01*
G01*
X314000Y215500D02*
G03*
X314000Y215500I-2000J0D01*
G01*
X441700Y269409D02*
G03*
X441700Y269409I-2000J0D01*
G01*
X479000Y255000D02*
G03*
X479000Y255000I-2000J0D01*
G01*
X347354Y278146D02*
G03*
X347354Y278146I-2000J0D01*
G01*
M02*
