G04*
G04 #@! TF.GenerationSoftware,Altium Limited,Altium Designer,23.0.1 (38)*
G04*
G04 Layer_Color=8388736*
%FSLAX25Y25*%
%MOIN*%
G70*
G04*
G04 #@! TF.SameCoordinates,4768A386-72EE-4230-A5FA-DA0B4273AB17*
G04*
G04*
G04 #@! TF.FilePolarity,Negative*
G04*
G01*
G75*
%ADD26R,0.04934X0.06115*%
%ADD27O,0.07099X0.03162*%
%ADD28O,0.03162X0.07099*%
%ADD29R,0.05131X0.04343*%
%ADD30R,0.04343X0.05131*%
%ADD31R,0.11036X0.13005*%
%ADD32R,0.05918X0.07887*%
%ADD33R,0.04343X0.05524*%
%ADD34R,0.01981X0.03556*%
%ADD35R,0.06115X0.04934*%
%ADD36R,0.06706X0.05524*%
%ADD37R,0.04737X0.03162*%
%ADD38R,0.03950X0.03950*%
%ADD39R,0.05131X0.09658*%
%ADD40R,0.04934X0.05131*%
G04:AMPARAMS|DCode=41|XSize=63.12mil|YSize=63.12mil|CornerRadius=17.78mil|HoleSize=0mil|Usage=FLASHONLY|Rotation=90.000|XOffset=0mil|YOffset=0mil|HoleType=Round|Shape=RoundedRectangle|*
%AMROUNDEDRECTD41*
21,1,0.06312,0.02756,0,0,90.0*
21,1,0.02756,0.06312,0,0,90.0*
1,1,0.03556,0.01378,0.01378*
1,1,0.03556,0.01378,-0.01378*
1,1,0.03556,-0.01378,-0.01378*
1,1,0.03556,-0.01378,0.01378*
%
%ADD41ROUNDEDRECTD41*%
%ADD42C,0.06312*%
%ADD43C,0.02800*%
%ADD44C,0.03800*%
%ADD45C,0.03300*%
G36*
X377095Y256504D02*
X366071D01*
Y265441D01*
X370126Y269496D01*
X377095D01*
Y256504D01*
D02*
G37*
D26*
X339839Y278500D02*
D03*
X332161D02*
D03*
X410500Y207000D02*
D03*
X385339D02*
D03*
X319500Y291000D02*
D03*
X311823D02*
D03*
X332161Y233500D02*
D03*
X339839D02*
D03*
X339839Y241500D02*
D03*
X332161D02*
D03*
X339839Y288000D02*
D03*
X332161D02*
D03*
X340000Y225500D02*
D03*
X332323D02*
D03*
X377661Y207000D02*
D03*
X402823D02*
D03*
X376500Y292500D02*
D03*
X368823D02*
D03*
X360839D02*
D03*
X353161D02*
D03*
X407661Y289500D02*
D03*
X415339D02*
D03*
D27*
X352095Y273433D02*
D03*
Y269102D02*
D03*
Y264772D02*
D03*
Y260441D02*
D03*
Y256110D02*
D03*
Y251780D02*
D03*
Y247449D02*
D03*
Y243118D02*
D03*
Y238787D02*
D03*
Y234457D02*
D03*
Y230126D02*
D03*
Y225795D02*
D03*
X413905D02*
D03*
Y230126D02*
D03*
Y234457D02*
D03*
Y238787D02*
D03*
Y243118D02*
D03*
Y247449D02*
D03*
Y251780D02*
D03*
Y256110D02*
D03*
Y260441D02*
D03*
Y264772D02*
D03*
Y269102D02*
D03*
Y273433D02*
D03*
D28*
X365677Y214968D02*
D03*
X370008D02*
D03*
X374339D02*
D03*
X378669D02*
D03*
X383000D02*
D03*
X387331D02*
D03*
X391661D02*
D03*
X395992D02*
D03*
X400323D02*
D03*
Y284260D02*
D03*
X395992D02*
D03*
X391661D02*
D03*
X387331D02*
D03*
X383000D02*
D03*
X378669D02*
D03*
X374339D02*
D03*
X370008D02*
D03*
X365677D02*
D03*
D29*
X361937Y268905D02*
D03*
Y263394D02*
D03*
Y257882D02*
D03*
Y252370D02*
D03*
Y246858D02*
D03*
Y241347D02*
D03*
Y235835D02*
D03*
Y230323D02*
D03*
X404063D02*
D03*
Y235835D02*
D03*
Y241347D02*
D03*
Y246858D02*
D03*
Y252370D02*
D03*
D30*
X366465Y224811D02*
D03*
X371976D02*
D03*
X377488D02*
D03*
X383000D02*
D03*
X388512D02*
D03*
X394024D02*
D03*
X399535D02*
D03*
X394024Y274417D02*
D03*
X388512D02*
D03*
X383000D02*
D03*
X377488D02*
D03*
X371976D02*
D03*
X366465D02*
D03*
D31*
X394417Y236228D02*
D03*
X383000D02*
D03*
X371583D02*
D03*
X394417Y249614D02*
D03*
X383000D02*
D03*
X371583D02*
D03*
X394417Y263000D02*
D03*
X383000D02*
D03*
D32*
X432787Y263287D02*
D03*
Y228642D02*
D03*
X481213Y263287D02*
D03*
Y228642D02*
D03*
D33*
X444500Y212500D02*
D03*
X454500D02*
D03*
X464500D02*
D03*
X449500D02*
D03*
X459500D02*
D03*
X469500D02*
D03*
D34*
X425059Y218437D02*
D03*
X422500D02*
D03*
X419941D02*
D03*
Y210563D02*
D03*
X422500D02*
D03*
X425059D02*
D03*
D35*
X424500Y229661D02*
D03*
Y237339D02*
D03*
X475500Y286000D02*
D03*
Y278323D02*
D03*
D36*
X305000Y282043D02*
D03*
Y274957D02*
D03*
D37*
X452563Y284740D02*
D03*
Y277260D02*
D03*
X460437Y281000D02*
D03*
X339937Y249260D02*
D03*
Y256740D02*
D03*
X332063Y253000D02*
D03*
Y271240D02*
D03*
Y263760D02*
D03*
X339937Y267500D02*
D03*
D38*
X451047Y292500D02*
D03*
X456953D02*
D03*
D39*
X430386Y282500D02*
D03*
X442000D02*
D03*
D40*
X436193Y276398D02*
D03*
D41*
X322000Y238000D02*
D03*
D42*
Y245874D02*
D03*
Y253748D02*
D03*
Y261622D02*
D03*
D43*
X426635Y259428D02*
D03*
X478526Y256020D02*
D03*
X387000Y289550D02*
D03*
X357000Y214500D02*
D03*
X439000Y241000D02*
D03*
X439700Y269409D02*
D03*
X435000Y269500D02*
D03*
X391500Y289550D02*
D03*
X382500D02*
D03*
X350300Y288250D02*
D03*
X349000Y277500D02*
D03*
X414626Y218200D02*
D03*
X405500D02*
D03*
X431093Y253386D02*
D03*
X322843Y284157D02*
D03*
X480500Y248000D02*
D03*
X420000Y205000D02*
D03*
X389772Y204768D02*
D03*
X397000Y207550D02*
D03*
X393500Y205000D02*
D03*
X445047Y243547D02*
D03*
X462304Y218133D02*
D03*
X454500Y218200D02*
D03*
X314000Y283500D02*
D03*
X429000Y242900D02*
D03*
X367500Y207000D02*
D03*
X436000Y215000D02*
D03*
X408000D02*
D03*
X419500Y224500D02*
D03*
X442500Y238500D02*
D03*
X356000Y285950D02*
D03*
X371349Y279207D02*
D03*
X345500Y265000D02*
D03*
D44*
X335500Y214000D02*
D03*
X396000Y279000D02*
D03*
D45*
X472500Y266500D02*
D03*
M02*
