G04*
G04 #@! TF.GenerationSoftware,Altium Limited,Altium Designer,23.0.1 (38)*
G04*
G04 Layer_Color=32896*
%FSLAX25Y25*%
%MOIN*%
G70*
G04*
G04 #@! TF.SameCoordinates,7EA281D9-4360-43E8-82A8-E858FA6B50C7*
G04*
G04*
G04 #@! TF.FilePolarity,Positive*
G04*
G01*
G75*
%ADD11C,0.00787*%
%ADD12C,0.00984*%
%ADD13C,0.00500*%
%ADD14C,0.00394*%
%ADD75C,0.00598*%
%ADD76C,0.00591*%
%ADD77C,0.00600*%
G36*
X459622Y251052D02*
X459727Y251041D01*
X459827Y251018D01*
X459922Y250991D01*
X460005Y250952D01*
X460088Y250919D01*
X460160Y250874D01*
X460227Y250835D01*
X460282Y250796D01*
X460338Y250752D01*
X460382Y250719D01*
X460415Y250685D01*
X460443Y250652D01*
X460465Y250630D01*
X460476Y250619D01*
X460482Y250613D01*
X460554Y250513D01*
X460615Y250397D01*
X460671Y250275D01*
X460721Y250147D01*
X460759Y250014D01*
X460793Y249881D01*
X460821Y249742D01*
X460843Y249614D01*
X460859Y249487D01*
X460871Y249370D01*
X460882Y249265D01*
X460887Y249176D01*
Y249098D01*
X460893Y249043D01*
Y249020D01*
Y249004D01*
Y248998D01*
Y248993D01*
X460887Y248815D01*
X460876Y248649D01*
X460859Y248493D01*
X460832Y248349D01*
X460804Y248221D01*
X460776Y248105D01*
X460743Y247999D01*
X460704Y247905D01*
X460671Y247827D01*
X460637Y247755D01*
X460610Y247699D01*
X460576Y247650D01*
X460554Y247611D01*
X460537Y247588D01*
X460526Y247572D01*
X460521Y247566D01*
X460449Y247489D01*
X460371Y247422D01*
X460293Y247366D01*
X460216Y247317D01*
X460132Y247272D01*
X460055Y247239D01*
X459977Y247211D01*
X459899Y247189D01*
X459833Y247172D01*
X459766Y247156D01*
X459711Y247145D01*
X459661Y247139D01*
X459616D01*
X459588Y247133D01*
X459561D01*
X459433Y247139D01*
X459316Y247161D01*
X459211Y247183D01*
X459117Y247217D01*
X459045Y247244D01*
X458989Y247272D01*
X458967Y247278D01*
X458950Y247289D01*
X458945Y247294D01*
X458939D01*
X458845Y247361D01*
X458756Y247439D01*
X458684Y247516D01*
X458623Y247594D01*
X458573Y247666D01*
X458539Y247722D01*
X458528Y247744D01*
X458517Y247761D01*
X458512Y247766D01*
Y247772D01*
X458456Y247888D01*
X458417Y248010D01*
X458390Y248121D01*
X458373Y248227D01*
X458356Y248316D01*
Y248349D01*
X458351Y248382D01*
Y248410D01*
Y248427D01*
Y248438D01*
Y248443D01*
X458356Y248543D01*
X458367Y248637D01*
X458384Y248732D01*
X458401Y248815D01*
X458428Y248893D01*
X458456Y248970D01*
X458484Y249037D01*
X458517Y249098D01*
X458551Y249154D01*
X458578Y249203D01*
X458606Y249242D01*
X458634Y249281D01*
X458650Y249309D01*
X458667Y249326D01*
X458678Y249337D01*
X458684Y249342D01*
X458745Y249403D01*
X458811Y249459D01*
X458884Y249503D01*
X458950Y249542D01*
X459017Y249581D01*
X459083Y249609D01*
X459211Y249648D01*
X459267Y249664D01*
X459322Y249675D01*
X459366Y249681D01*
X459411Y249686D01*
X459444Y249692D01*
X459489D01*
X459588Y249686D01*
X459683Y249670D01*
X459772Y249653D01*
X459849Y249631D01*
X459916Y249603D01*
X459966Y249587D01*
X459999Y249570D01*
X460005Y249564D01*
X460010D01*
X460099Y249509D01*
X460177Y249448D01*
X460249Y249387D01*
X460304Y249320D01*
X460354Y249265D01*
X460393Y249220D01*
X460415Y249187D01*
X460421Y249181D01*
Y249281D01*
X460415Y249381D01*
X460410Y249470D01*
X460399Y249559D01*
X460393Y249637D01*
X460382Y249709D01*
X460371Y249775D01*
X460354Y249836D01*
X460343Y249892D01*
X460332Y249936D01*
X460321Y249975D01*
X460316Y250008D01*
X460304Y250030D01*
X460299Y250047D01*
X460293Y250058D01*
Y250064D01*
X460238Y250175D01*
X460182Y250275D01*
X460121Y250352D01*
X460066Y250419D01*
X460016Y250475D01*
X459977Y250513D01*
X459949Y250536D01*
X459938Y250541D01*
X459871Y250586D01*
X459805Y250613D01*
X459738Y250635D01*
X459672Y250652D01*
X459622Y250663D01*
X459577Y250669D01*
X459539D01*
X459439Y250658D01*
X459344Y250635D01*
X459267Y250602D01*
X459194Y250569D01*
X459139Y250530D01*
X459100Y250497D01*
X459078Y250475D01*
X459067Y250463D01*
X459028Y250413D01*
X458989Y250352D01*
X458956Y250286D01*
X458934Y250219D01*
X458911Y250158D01*
X458895Y250108D01*
X458889Y250075D01*
X458884Y250069D01*
Y250064D01*
X458412Y250103D01*
X458445Y250258D01*
X458495Y250397D01*
X458551Y250519D01*
X458612Y250619D01*
X458673Y250696D01*
X458695Y250730D01*
X458723Y250758D01*
X458739Y250774D01*
X458756Y250791D01*
X458762Y250796D01*
X458767Y250802D01*
X458822Y250846D01*
X458884Y250885D01*
X459006Y250952D01*
X459128Y250996D01*
X459244Y251024D01*
X459350Y251046D01*
X459394Y251052D01*
X459433D01*
X459466Y251057D01*
X459511D01*
X459622Y251052D01*
D02*
G37*
G36*
X463074Y251096D02*
X463251Y251068D01*
X463407Y251035D01*
X463479Y251013D01*
X463546Y250991D01*
X463607Y250968D01*
X463662Y250946D01*
X463706Y250930D01*
X463751Y250913D01*
X463779Y250896D01*
X463801Y250885D01*
X463818Y250880D01*
X463823Y250874D01*
X463973Y250780D01*
X464101Y250669D01*
X464212Y250558D01*
X464306Y250447D01*
X464378Y250347D01*
X464406Y250302D01*
X464428Y250264D01*
X464450Y250236D01*
X464461Y250214D01*
X464467Y250197D01*
X464472Y250191D01*
X464550Y250019D01*
X464606Y249842D01*
X464644Y249664D01*
X464672Y249503D01*
X464683Y249431D01*
X464689Y249359D01*
X464694Y249304D01*
Y249248D01*
X464700Y249209D01*
Y249176D01*
Y249154D01*
Y249148D01*
X464689Y248948D01*
X464667Y248754D01*
X464639Y248582D01*
X464617Y248499D01*
X464600Y248427D01*
X464583Y248360D01*
X464561Y248299D01*
X464545Y248243D01*
X464534Y248199D01*
X464517Y248166D01*
X464511Y248138D01*
X464500Y248121D01*
Y248116D01*
X464417Y247949D01*
X464323Y247799D01*
X464223Y247672D01*
X464173Y247622D01*
X464128Y247572D01*
X464084Y247527D01*
X464040Y247489D01*
X464001Y247455D01*
X463967Y247433D01*
X463945Y247411D01*
X463923Y247394D01*
X463912Y247389D01*
X463906Y247383D01*
X463829Y247339D01*
X463751Y247300D01*
X463585Y247239D01*
X463418Y247195D01*
X463257Y247167D01*
X463179Y247156D01*
X463113Y247145D01*
X463052Y247139D01*
X463002D01*
X462957Y247133D01*
X462896D01*
X462785Y247139D01*
X462680Y247150D01*
X462580Y247161D01*
X462486Y247183D01*
X462397Y247211D01*
X462314Y247239D01*
X462236Y247267D01*
X462164Y247300D01*
X462103Y247328D01*
X462042Y247355D01*
X461997Y247383D01*
X461953Y247411D01*
X461925Y247433D01*
X461897Y247444D01*
X461886Y247455D01*
X461881Y247461D01*
X461803Y247527D01*
X461736Y247594D01*
X461675Y247672D01*
X461614Y247749D01*
X461514Y247905D01*
X461437Y248060D01*
X461403Y248132D01*
X461376Y248199D01*
X461353Y248260D01*
X461337Y248310D01*
X461320Y248354D01*
X461309Y248388D01*
X461303Y248410D01*
Y248415D01*
X461814Y248543D01*
X461836Y248454D01*
X461864Y248371D01*
X461892Y248293D01*
X461919Y248221D01*
X461953Y248155D01*
X461986Y248099D01*
X462025Y248044D01*
X462058Y247994D01*
X462086Y247949D01*
X462119Y247916D01*
X462147Y247883D01*
X462169Y247855D01*
X462191Y247838D01*
X462208Y247822D01*
X462214Y247816D01*
X462219Y247811D01*
X462275Y247766D01*
X462336Y247733D01*
X462458Y247672D01*
X462574Y247627D01*
X462691Y247600D01*
X462791Y247577D01*
X462830Y247572D01*
X462868D01*
X462902Y247566D01*
X462941D01*
X463068Y247572D01*
X463190Y247594D01*
X463301Y247622D01*
X463401Y247655D01*
X463479Y247688D01*
X463512Y247705D01*
X463540Y247716D01*
X463562Y247727D01*
X463579Y247738D01*
X463590Y247744D01*
X463596D01*
X463701Y247822D01*
X463790Y247905D01*
X463868Y247999D01*
X463929Y248088D01*
X463978Y248166D01*
X464012Y248232D01*
X464023Y248260D01*
X464034Y248277D01*
X464040Y248288D01*
Y248293D01*
X464084Y248438D01*
X464117Y248582D01*
X464145Y248726D01*
X464162Y248860D01*
X464167Y248920D01*
X464173Y248976D01*
Y249026D01*
X464178Y249065D01*
Y249098D01*
Y249126D01*
Y249143D01*
Y249148D01*
X464173Y249292D01*
X464162Y249426D01*
X464140Y249548D01*
X464117Y249659D01*
X464101Y249753D01*
X464089Y249792D01*
X464078Y249825D01*
X464073Y249853D01*
X464067Y249869D01*
X464062Y249881D01*
Y249886D01*
X464006Y250014D01*
X463945Y250130D01*
X463879Y250225D01*
X463806Y250308D01*
X463745Y250375D01*
X463695Y250419D01*
X463657Y250447D01*
X463651Y250458D01*
X463646D01*
X463529Y250530D01*
X463401Y250586D01*
X463279Y250624D01*
X463163Y250646D01*
X463057Y250663D01*
X463013Y250669D01*
X462974D01*
X462946Y250674D01*
X462902D01*
X462763Y250669D01*
X462635Y250646D01*
X462530Y250613D01*
X462436Y250580D01*
X462363Y250541D01*
X462308Y250513D01*
X462275Y250491D01*
X462264Y250480D01*
X462175Y250397D01*
X462091Y250302D01*
X462025Y250203D01*
X461969Y250103D01*
X461925Y250014D01*
X461908Y249970D01*
X461897Y249936D01*
X461886Y249908D01*
X461875Y249886D01*
X461869Y249875D01*
Y249869D01*
X461370Y249986D01*
X461403Y250086D01*
X461437Y250175D01*
X461481Y250258D01*
X461520Y250341D01*
X461564Y250413D01*
X461614Y250480D01*
X461659Y250547D01*
X461703Y250602D01*
X461747Y250646D01*
X461786Y250691D01*
X461825Y250730D01*
X461853Y250758D01*
X461881Y250785D01*
X461903Y250802D01*
X461914Y250807D01*
X461919Y250813D01*
X461997Y250863D01*
X462075Y250913D01*
X462152Y250952D01*
X462236Y250985D01*
X462402Y251035D01*
X462552Y251068D01*
X462624Y251085D01*
X462685Y251091D01*
X462746Y251096D01*
X462796Y251102D01*
X462835Y251107D01*
X462891D01*
X463074Y251096D01*
D02*
G37*
G36*
X477574D02*
X477751Y251068D01*
X477907Y251035D01*
X477979Y251013D01*
X478046Y250991D01*
X478107Y250968D01*
X478162Y250946D01*
X478206Y250930D01*
X478251Y250913D01*
X478279Y250896D01*
X478301Y250885D01*
X478318Y250880D01*
X478323Y250874D01*
X478473Y250780D01*
X478601Y250669D01*
X478712Y250558D01*
X478806Y250447D01*
X478878Y250347D01*
X478906Y250302D01*
X478928Y250264D01*
X478950Y250236D01*
X478961Y250214D01*
X478967Y250197D01*
X478972Y250191D01*
X479050Y250019D01*
X479106Y249842D01*
X479144Y249664D01*
X479172Y249503D01*
X479183Y249431D01*
X479189Y249359D01*
X479194Y249304D01*
Y249248D01*
X479200Y249209D01*
Y249176D01*
Y249154D01*
Y249148D01*
X479189Y248948D01*
X479167Y248754D01*
X479139Y248582D01*
X479117Y248499D01*
X479100Y248427D01*
X479083Y248360D01*
X479061Y248299D01*
X479045Y248243D01*
X479034Y248199D01*
X479017Y248166D01*
X479011Y248138D01*
X479000Y248121D01*
Y248116D01*
X478917Y247949D01*
X478823Y247799D01*
X478723Y247672D01*
X478673Y247622D01*
X478628Y247572D01*
X478584Y247527D01*
X478540Y247489D01*
X478501Y247455D01*
X478467Y247433D01*
X478445Y247411D01*
X478423Y247394D01*
X478412Y247389D01*
X478406Y247383D01*
X478329Y247339D01*
X478251Y247300D01*
X478085Y247239D01*
X477918Y247195D01*
X477757Y247167D01*
X477679Y247156D01*
X477613Y247145D01*
X477552Y247139D01*
X477502D01*
X477457Y247133D01*
X477396D01*
X477285Y247139D01*
X477180Y247150D01*
X477080Y247161D01*
X476986Y247183D01*
X476897Y247211D01*
X476814Y247239D01*
X476736Y247267D01*
X476664Y247300D01*
X476603Y247328D01*
X476542Y247355D01*
X476497Y247383D01*
X476453Y247411D01*
X476425Y247433D01*
X476397Y247444D01*
X476386Y247455D01*
X476381Y247461D01*
X476303Y247527D01*
X476236Y247594D01*
X476175Y247672D01*
X476114Y247749D01*
X476014Y247905D01*
X475937Y248060D01*
X475903Y248132D01*
X475876Y248199D01*
X475853Y248260D01*
X475837Y248310D01*
X475820Y248354D01*
X475809Y248388D01*
X475803Y248410D01*
Y248415D01*
X476314Y248543D01*
X476336Y248454D01*
X476364Y248371D01*
X476392Y248293D01*
X476419Y248221D01*
X476453Y248155D01*
X476486Y248099D01*
X476525Y248044D01*
X476558Y247994D01*
X476586Y247949D01*
X476619Y247916D01*
X476647Y247883D01*
X476669Y247855D01*
X476691Y247838D01*
X476708Y247822D01*
X476714Y247816D01*
X476719Y247811D01*
X476775Y247766D01*
X476836Y247733D01*
X476958Y247672D01*
X477074Y247627D01*
X477191Y247600D01*
X477291Y247577D01*
X477330Y247572D01*
X477368D01*
X477402Y247566D01*
X477441D01*
X477568Y247572D01*
X477690Y247594D01*
X477801Y247622D01*
X477901Y247655D01*
X477979Y247688D01*
X478012Y247705D01*
X478040Y247716D01*
X478062Y247727D01*
X478079Y247738D01*
X478090Y247744D01*
X478096D01*
X478201Y247822D01*
X478290Y247905D01*
X478368Y247999D01*
X478429Y248088D01*
X478478Y248166D01*
X478512Y248232D01*
X478523Y248260D01*
X478534Y248277D01*
X478540Y248288D01*
Y248293D01*
X478584Y248438D01*
X478617Y248582D01*
X478645Y248726D01*
X478662Y248860D01*
X478667Y248920D01*
X478673Y248976D01*
Y249026D01*
X478678Y249065D01*
Y249098D01*
Y249126D01*
Y249143D01*
Y249148D01*
X478673Y249292D01*
X478662Y249426D01*
X478640Y249548D01*
X478617Y249659D01*
X478601Y249753D01*
X478589Y249792D01*
X478578Y249825D01*
X478573Y249853D01*
X478567Y249869D01*
X478562Y249881D01*
Y249886D01*
X478506Y250014D01*
X478445Y250130D01*
X478379Y250225D01*
X478306Y250308D01*
X478245Y250375D01*
X478195Y250419D01*
X478157Y250447D01*
X478151Y250458D01*
X478146D01*
X478029Y250530D01*
X477901Y250586D01*
X477779Y250624D01*
X477663Y250646D01*
X477557Y250663D01*
X477513Y250669D01*
X477474D01*
X477446Y250674D01*
X477402D01*
X477263Y250669D01*
X477135Y250646D01*
X477030Y250613D01*
X476936Y250580D01*
X476863Y250541D01*
X476808Y250513D01*
X476775Y250491D01*
X476764Y250480D01*
X476675Y250397D01*
X476591Y250302D01*
X476525Y250203D01*
X476469Y250103D01*
X476425Y250014D01*
X476408Y249970D01*
X476397Y249936D01*
X476386Y249908D01*
X476375Y249886D01*
X476369Y249875D01*
Y249869D01*
X475870Y249986D01*
X475903Y250086D01*
X475937Y250175D01*
X475981Y250258D01*
X476020Y250341D01*
X476064Y250413D01*
X476114Y250480D01*
X476159Y250547D01*
X476203Y250602D01*
X476247Y250646D01*
X476286Y250691D01*
X476325Y250730D01*
X476353Y250758D01*
X476381Y250785D01*
X476403Y250802D01*
X476414Y250807D01*
X476419Y250813D01*
X476497Y250863D01*
X476575Y250913D01*
X476652Y250952D01*
X476736Y250985D01*
X476902Y251035D01*
X477052Y251068D01*
X477124Y251085D01*
X477185Y251091D01*
X477246Y251096D01*
X477296Y251102D01*
X477335Y251107D01*
X477391D01*
X477574Y251096D01*
D02*
G37*
G36*
X475337Y250536D02*
X473456D01*
X473589Y250375D01*
X473717Y250203D01*
X473828Y250036D01*
X473933Y249875D01*
X473978Y249803D01*
X474016Y249736D01*
X474055Y249675D01*
X474083Y249625D01*
X474105Y249581D01*
X474122Y249553D01*
X474133Y249531D01*
X474138Y249525D01*
X474249Y249304D01*
X474349Y249081D01*
X474433Y248871D01*
X474466Y248776D01*
X474499Y248682D01*
X474532Y248599D01*
X474555Y248521D01*
X474577Y248454D01*
X474593Y248399D01*
X474610Y248349D01*
X474621Y248316D01*
X474627Y248293D01*
Y248288D01*
X474682Y248060D01*
X474705Y247949D01*
X474721Y247849D01*
X474738Y247755D01*
X474754Y247661D01*
X474765Y247583D01*
X474777Y247505D01*
X474782Y247439D01*
X474788Y247378D01*
X474793Y247322D01*
Y247278D01*
X474799Y247244D01*
Y247222D01*
Y247205D01*
Y247200D01*
X474316D01*
X474299Y247411D01*
X474272Y247605D01*
X474244Y247783D01*
X474227Y247866D01*
X474211Y247944D01*
X474199Y248010D01*
X474183Y248071D01*
X474172Y248127D01*
X474161Y248171D01*
X474150Y248205D01*
X474144Y248232D01*
X474138Y248249D01*
Y248254D01*
X474055Y248510D01*
X473966Y248748D01*
X473922Y248865D01*
X473877Y248976D01*
X473828Y249076D01*
X473783Y249176D01*
X473744Y249265D01*
X473705Y249342D01*
X473672Y249409D01*
X473644Y249470D01*
X473617Y249520D01*
X473600Y249553D01*
X473589Y249575D01*
X473583Y249581D01*
X473517Y249697D01*
X473450Y249814D01*
X473384Y249920D01*
X473317Y250019D01*
X473256Y250108D01*
X473195Y250197D01*
X473134Y250275D01*
X473084Y250341D01*
X473034Y250408D01*
X472990Y250463D01*
X472945Y250508D01*
X472912Y250547D01*
X472890Y250580D01*
X472867Y250602D01*
X472856Y250613D01*
X472851Y250619D01*
Y250991D01*
X475337D01*
Y250536D01*
D02*
G37*
G36*
X396776Y221394D02*
X396332Y221334D01*
X396293Y221394D01*
X396243Y221445D01*
X396199Y221495D01*
X396154Y221533D01*
X396110Y221561D01*
X396076Y221589D01*
X396054Y221600D01*
X396049Y221605D01*
X395976Y221639D01*
X395904Y221667D01*
X395838Y221683D01*
X395771Y221700D01*
X395716Y221705D01*
X395671Y221711D01*
X395566D01*
X395499Y221700D01*
X395383Y221672D01*
X395283Y221633D01*
X395194Y221594D01*
X395127Y221550D01*
X395077Y221511D01*
X395050Y221483D01*
X395039Y221478D01*
Y221472D01*
X394961Y221378D01*
X394905Y221278D01*
X394866Y221173D01*
X394839Y221067D01*
X394822Y220978D01*
X394817Y220939D01*
Y220906D01*
X394811Y220878D01*
Y220856D01*
Y220845D01*
Y220840D01*
Y220762D01*
X394822Y220690D01*
X394850Y220551D01*
X394889Y220434D01*
X394928Y220340D01*
X394972Y220262D01*
X395011Y220201D01*
X395027Y220185D01*
X395039Y220168D01*
X395044Y220162D01*
X395050Y220157D01*
X395094Y220112D01*
X395139Y220074D01*
X395238Y220007D01*
X395333Y219963D01*
X395427Y219935D01*
X395505Y219913D01*
X395571Y219907D01*
X395594Y219902D01*
X395627D01*
X395732Y219907D01*
X395827Y219929D01*
X395910Y219957D01*
X395976Y219990D01*
X396038Y220024D01*
X396082Y220052D01*
X396104Y220074D01*
X396115Y220079D01*
X396182Y220157D01*
X396237Y220240D01*
X396282Y220335D01*
X396315Y220418D01*
X396337Y220501D01*
X396354Y220562D01*
X396359Y220590D01*
X396365Y220606D01*
Y220618D01*
Y220623D01*
X396859Y220584D01*
X396848Y220495D01*
X396831Y220412D01*
X396781Y220257D01*
X396720Y220124D01*
X396687Y220063D01*
X396654Y220013D01*
X396626Y219963D01*
X396593Y219918D01*
X396565Y219885D01*
X396537Y219857D01*
X396515Y219835D01*
X396504Y219813D01*
X396493Y219807D01*
X396487Y219802D01*
X396421Y219752D01*
X396354Y219707D01*
X396282Y219669D01*
X396210Y219635D01*
X396071Y219585D01*
X395932Y219552D01*
X395871Y219535D01*
X395810Y219530D01*
X395760Y219524D01*
X395716Y219519D01*
X395677Y219513D01*
X395627D01*
X395510Y219519D01*
X395399Y219535D01*
X395294Y219557D01*
X395199Y219585D01*
X395111Y219624D01*
X395027Y219663D01*
X394950Y219702D01*
X394883Y219746D01*
X394822Y219791D01*
X394767Y219829D01*
X394722Y219874D01*
X394683Y219907D01*
X394656Y219935D01*
X394633Y219957D01*
X394622Y219974D01*
X394617Y219979D01*
X394561Y220052D01*
X394517Y220129D01*
X394473Y220201D01*
X394439Y220279D01*
X394384Y220429D01*
X394350Y220573D01*
X394339Y220634D01*
X394328Y220695D01*
X394323Y220745D01*
X394317Y220790D01*
X394311Y220829D01*
Y220856D01*
Y220873D01*
Y220878D01*
X394317Y220978D01*
X394328Y221073D01*
X394345Y221167D01*
X394367Y221250D01*
X394395Y221328D01*
X394423Y221406D01*
X394456Y221472D01*
X394484Y221533D01*
X394517Y221589D01*
X394550Y221639D01*
X394578Y221678D01*
X394606Y221716D01*
X394628Y221744D01*
X394644Y221761D01*
X394656Y221772D01*
X394661Y221778D01*
X394728Y221838D01*
X394794Y221894D01*
X394866Y221938D01*
X394939Y221977D01*
X395011Y222016D01*
X395083Y222044D01*
X395216Y222083D01*
X395277Y222099D01*
X395333Y222111D01*
X395383Y222116D01*
X395427Y222122D01*
X395460Y222127D01*
X395583D01*
X395649Y222116D01*
X395782Y222088D01*
X395904Y222049D01*
X396015Y222005D01*
X396104Y221961D01*
X396143Y221938D01*
X396176Y221922D01*
X396204Y221905D01*
X396221Y221894D01*
X396232Y221888D01*
X396237Y221883D01*
X396032Y222921D01*
X394495D01*
Y223370D01*
X396404D01*
X396776Y221394D01*
D02*
G37*
G36*
X399062Y223476D02*
X399240Y223448D01*
X399395Y223415D01*
X399467Y223393D01*
X399534Y223370D01*
X399595Y223348D01*
X399651Y223326D01*
X399695Y223309D01*
X399739Y223293D01*
X399767Y223276D01*
X399789Y223265D01*
X399806Y223259D01*
X399812Y223254D01*
X399961Y223160D01*
X400089Y223048D01*
X400200Y222937D01*
X400294Y222827D01*
X400367Y222726D01*
X400394Y222682D01*
X400417Y222643D01*
X400439Y222616D01*
X400450Y222593D01*
X400455Y222577D01*
X400461Y222571D01*
X400539Y222399D01*
X400594Y222221D01*
X400633Y222044D01*
X400661Y221883D01*
X400672Y221811D01*
X400677Y221739D01*
X400683Y221683D01*
Y221628D01*
X400689Y221589D01*
Y221555D01*
Y221533D01*
Y221528D01*
X400677Y221328D01*
X400655Y221134D01*
X400627Y220962D01*
X400605Y220878D01*
X400589Y220806D01*
X400572Y220740D01*
X400550Y220679D01*
X400533Y220623D01*
X400522Y220579D01*
X400505Y220545D01*
X400500Y220518D01*
X400489Y220501D01*
Y220495D01*
X400405Y220329D01*
X400311Y220179D01*
X400211Y220052D01*
X400161Y220002D01*
X400117Y219952D01*
X400072Y219907D01*
X400028Y219868D01*
X399989Y219835D01*
X399956Y219813D01*
X399934Y219791D01*
X399911Y219774D01*
X399900Y219768D01*
X399895Y219763D01*
X399817Y219718D01*
X399739Y219680D01*
X399573Y219619D01*
X399406Y219574D01*
X399246Y219546D01*
X399168Y219535D01*
X399101Y219524D01*
X399040Y219519D01*
X398990D01*
X398946Y219513D01*
X398885D01*
X398774Y219519D01*
X398668Y219530D01*
X398568Y219541D01*
X398474Y219563D01*
X398385Y219591D01*
X398302Y219619D01*
X398224Y219646D01*
X398152Y219680D01*
X398091Y219707D01*
X398030Y219735D01*
X397986Y219763D01*
X397941Y219791D01*
X397914Y219813D01*
X397886Y219824D01*
X397875Y219835D01*
X397869Y219841D01*
X397791Y219907D01*
X397725Y219974D01*
X397664Y220052D01*
X397603Y220129D01*
X397503Y220285D01*
X397425Y220440D01*
X397392Y220512D01*
X397364Y220579D01*
X397342Y220640D01*
X397325Y220690D01*
X397308Y220734D01*
X397297Y220767D01*
X397292Y220790D01*
Y220795D01*
X397802Y220923D01*
X397825Y220834D01*
X397852Y220751D01*
X397880Y220673D01*
X397908Y220601D01*
X397941Y220534D01*
X397974Y220479D01*
X398013Y220423D01*
X398047Y220373D01*
X398074Y220329D01*
X398108Y220296D01*
X398135Y220262D01*
X398158Y220235D01*
X398180Y220218D01*
X398197Y220201D01*
X398202Y220196D01*
X398208Y220190D01*
X398263Y220146D01*
X398324Y220112D01*
X398446Y220052D01*
X398563Y220007D01*
X398679Y219979D01*
X398779Y219957D01*
X398818Y219952D01*
X398857D01*
X398890Y219946D01*
X398929D01*
X399057Y219952D01*
X399179Y219974D01*
X399290Y220002D01*
X399390Y220035D01*
X399467Y220068D01*
X399501Y220085D01*
X399529Y220096D01*
X399551Y220107D01*
X399567Y220118D01*
X399578Y220124D01*
X399584D01*
X399690Y220201D01*
X399778Y220285D01*
X399856Y220379D01*
X399917Y220468D01*
X399967Y220545D01*
X400000Y220612D01*
X400011Y220640D01*
X400023Y220656D01*
X400028Y220668D01*
Y220673D01*
X400072Y220817D01*
X400106Y220962D01*
X400134Y221106D01*
X400150Y221239D01*
X400156Y221300D01*
X400161Y221356D01*
Y221406D01*
X400167Y221445D01*
Y221478D01*
Y221505D01*
Y221522D01*
Y221528D01*
X400161Y221672D01*
X400150Y221805D01*
X400128Y221927D01*
X400106Y222038D01*
X400089Y222133D01*
X400078Y222171D01*
X400067Y222205D01*
X400061Y222233D01*
X400056Y222249D01*
X400050Y222260D01*
Y222266D01*
X399995Y222394D01*
X399934Y222510D01*
X399867Y222604D01*
X399795Y222688D01*
X399734Y222754D01*
X399684Y222799D01*
X399645Y222827D01*
X399640Y222838D01*
X399634D01*
X399517Y222910D01*
X399390Y222965D01*
X399268Y223004D01*
X399151Y223026D01*
X399046Y223043D01*
X399001Y223048D01*
X398962D01*
X398935Y223054D01*
X398890D01*
X398751Y223048D01*
X398624Y223026D01*
X398518Y222993D01*
X398424Y222960D01*
X398352Y222921D01*
X398296Y222893D01*
X398263Y222871D01*
X398252Y222860D01*
X398163Y222777D01*
X398080Y222682D01*
X398013Y222582D01*
X397958Y222482D01*
X397914Y222394D01*
X397897Y222349D01*
X397886Y222316D01*
X397875Y222288D01*
X397864Y222266D01*
X397858Y222255D01*
Y222249D01*
X397358Y222366D01*
X397392Y222466D01*
X397425Y222554D01*
X397469Y222638D01*
X397508Y222721D01*
X397553Y222793D01*
X397603Y222860D01*
X397647Y222926D01*
X397691Y222982D01*
X397736Y223026D01*
X397775Y223071D01*
X397814Y223110D01*
X397841Y223137D01*
X397869Y223165D01*
X397891Y223182D01*
X397902Y223187D01*
X397908Y223193D01*
X397986Y223243D01*
X398063Y223293D01*
X398141Y223331D01*
X398224Y223365D01*
X398391Y223415D01*
X398541Y223448D01*
X398613Y223465D01*
X398674Y223470D01*
X398735Y223476D01*
X398785Y223481D01*
X398824Y223487D01*
X398879D01*
X399062Y223476D01*
D02*
G37*
G36*
X345003Y236368D02*
X345064Y236279D01*
X345136Y236190D01*
X345203Y236112D01*
X345270Y236046D01*
X345320Y235990D01*
X345342Y235974D01*
X345358Y235957D01*
X345364Y235951D01*
X345370Y235946D01*
X345486Y235851D01*
X345603Y235763D01*
X345714Y235685D01*
X345825Y235624D01*
X345919Y235568D01*
X345958Y235546D01*
X345991Y235529D01*
X346019Y235513D01*
X346041Y235507D01*
X346052Y235496D01*
X346058D01*
Y235041D01*
X345974Y235074D01*
X345891Y235113D01*
X345808Y235152D01*
X345730Y235191D01*
X345664Y235224D01*
X345608Y235252D01*
X345575Y235274D01*
X345569Y235280D01*
X345564D01*
X345464Y235341D01*
X345375Y235402D01*
X345297Y235457D01*
X345236Y235507D01*
X345181Y235546D01*
X345148Y235579D01*
X345120Y235602D01*
X345114Y235607D01*
Y232605D01*
X344642D01*
Y236462D01*
X344948D01*
X345003Y236368D01*
D02*
G37*
G36*
X342323Y236456D02*
X342411Y236445D01*
X342500Y236429D01*
X342578Y236406D01*
X342728Y236345D01*
X342794Y236318D01*
X342850Y236284D01*
X342905Y236245D01*
X342950Y236218D01*
X342994Y236184D01*
X343027Y236157D01*
X343055Y236135D01*
X343072Y236118D01*
X343083Y236107D01*
X343089Y236101D01*
X343150Y236035D01*
X343199Y235957D01*
X343250Y235885D01*
X343288Y235807D01*
X343322Y235724D01*
X343349Y235646D01*
X343388Y235502D01*
X343405Y235430D01*
X343416Y235369D01*
X343422Y235308D01*
X343427Y235258D01*
X343433Y235219D01*
Y235191D01*
Y235169D01*
Y235163D01*
X343427Y235058D01*
X343416Y234963D01*
X343405Y234869D01*
X343383Y234780D01*
X343355Y234703D01*
X343327Y234625D01*
X343299Y234558D01*
X343266Y234497D01*
X343238Y234442D01*
X343211Y234392D01*
X343183Y234353D01*
X343155Y234314D01*
X343133Y234286D01*
X343122Y234270D01*
X343111Y234259D01*
X343105Y234253D01*
X343044Y234192D01*
X342977Y234142D01*
X342911Y234092D01*
X342839Y234053D01*
X342772Y234020D01*
X342706Y233992D01*
X342578Y233953D01*
X342522Y233937D01*
X342467Y233926D01*
X342423Y233920D01*
X342378Y233914D01*
X342345Y233909D01*
X342300D01*
X342195Y233914D01*
X342095Y233931D01*
X342006Y233953D01*
X341923Y233981D01*
X341862Y234003D01*
X341812Y234026D01*
X341779Y234042D01*
X341768Y234048D01*
X341679Y234103D01*
X341601Y234164D01*
X341534Y234225D01*
X341479Y234281D01*
X341440Y234336D01*
X341407Y234375D01*
X341385Y234403D01*
X341379Y234414D01*
Y234370D01*
Y234342D01*
Y234325D01*
Y234320D01*
X341385Y234209D01*
X341390Y234103D01*
X341401Y234009D01*
X341412Y233920D01*
X341429Y233848D01*
X341440Y233792D01*
X341446Y233770D01*
Y233753D01*
X341451Y233748D01*
Y233742D01*
X341479Y233643D01*
X341507Y233554D01*
X341534Y233476D01*
X341562Y233409D01*
X341584Y233360D01*
X341607Y233321D01*
X341618Y233293D01*
X341623Y233287D01*
X341668Y233226D01*
X341712Y233176D01*
X341757Y233132D01*
X341801Y233093D01*
X341834Y233060D01*
X341867Y233038D01*
X341890Y233027D01*
X341895Y233021D01*
X341956Y232988D01*
X342023Y232965D01*
X342084Y232949D01*
X342145Y232938D01*
X342195Y232932D01*
X342234Y232927D01*
X342273D01*
X342361Y232932D01*
X342445Y232949D01*
X342517Y232971D01*
X342578Y232999D01*
X342622Y233021D01*
X342661Y233043D01*
X342683Y233060D01*
X342689Y233065D01*
X342744Y233126D01*
X342789Y233198D01*
X342828Y233276D01*
X342855Y233354D01*
X342878Y233420D01*
X342894Y233482D01*
X342900Y233504D01*
Y233515D01*
X342905Y233526D01*
Y233531D01*
X343360Y233493D01*
X343327Y233332D01*
X343283Y233193D01*
X343227Y233071D01*
X343172Y232971D01*
X343116Y232893D01*
X343089Y232860D01*
X343066Y232832D01*
X343050Y232816D01*
X343033Y232799D01*
X343027Y232793D01*
X343022Y232788D01*
X342966Y232743D01*
X342905Y232705D01*
X342783Y232644D01*
X342661Y232599D01*
X342545Y232571D01*
X342439Y232549D01*
X342395Y232544D01*
X342356D01*
X342328Y232538D01*
X342284D01*
X342128Y232549D01*
X341990Y232571D01*
X341862Y232610D01*
X341757Y232655D01*
X341712Y232671D01*
X341668Y232694D01*
X341634Y232716D01*
X341601Y232732D01*
X341579Y232743D01*
X341562Y232754D01*
X341551Y232766D01*
X341546D01*
X341435Y232860D01*
X341335Y232965D01*
X341257Y233076D01*
X341190Y233182D01*
X341135Y233276D01*
X341113Y233321D01*
X341096Y233354D01*
X341085Y233387D01*
X341074Y233409D01*
X341068Y233420D01*
Y233426D01*
X341041Y233509D01*
X341013Y233604D01*
X340974Y233792D01*
X340946Y233992D01*
X340930Y234181D01*
X340918Y234264D01*
X340913Y234347D01*
Y234419D01*
X340907Y234481D01*
Y234530D01*
Y234569D01*
Y234597D01*
Y234603D01*
Y234730D01*
X340913Y234852D01*
X340924Y234963D01*
X340935Y235069D01*
X340946Y235163D01*
X340957Y235252D01*
X340974Y235335D01*
X340991Y235407D01*
X341007Y235469D01*
X341018Y235524D01*
X341035Y235574D01*
X341046Y235613D01*
X341057Y235641D01*
X341068Y235663D01*
X341074Y235674D01*
Y235679D01*
X341141Y235813D01*
X341213Y235929D01*
X341296Y236029D01*
X341368Y236112D01*
X341440Y236173D01*
X341496Y236218D01*
X341518Y236234D01*
X341534Y236245D01*
X341540Y236257D01*
X341546D01*
X341662Y236323D01*
X341779Y236373D01*
X341895Y236412D01*
X342001Y236434D01*
X342095Y236451D01*
X342134Y236456D01*
X342162D01*
X342189Y236462D01*
X342228D01*
X342323Y236456D01*
D02*
G37*
G36*
X350093Y232605D02*
X349582D01*
Y234309D01*
X348927D01*
X348866Y234303D01*
X348822D01*
X348783Y234297D01*
X348755Y234292D01*
X348733D01*
X348722Y234286D01*
X348716D01*
X348627Y234259D01*
X348589Y234242D01*
X348555Y234225D01*
X348522Y234209D01*
X348500Y234197D01*
X348489Y234192D01*
X348483Y234186D01*
X348439Y234153D01*
X348394Y234114D01*
X348311Y234031D01*
X348272Y233992D01*
X348245Y233959D01*
X348228Y233937D01*
X348222Y233931D01*
X348167Y233853D01*
X348106Y233770D01*
X348045Y233681D01*
X347984Y233598D01*
X347934Y233520D01*
X347895Y233459D01*
X347878Y233437D01*
X347867Y233420D01*
X347856Y233409D01*
Y233404D01*
X347351Y232605D01*
X346718D01*
X347379Y233648D01*
X347456Y233759D01*
X347529Y233859D01*
X347601Y233942D01*
X347662Y234020D01*
X347717Y234075D01*
X347762Y234120D01*
X347789Y234148D01*
X347800Y234159D01*
X347845Y234192D01*
X347895Y234231D01*
X347995Y234292D01*
X348039Y234314D01*
X348072Y234336D01*
X348095Y234347D01*
X348106Y234353D01*
X348006Y234370D01*
X347912Y234386D01*
X347828Y234414D01*
X347745Y234436D01*
X347673Y234464D01*
X347606Y234497D01*
X347545Y234525D01*
X347490Y234553D01*
X347445Y234586D01*
X347401Y234614D01*
X347368Y234636D01*
X347340Y234658D01*
X347318Y234675D01*
X347301Y234692D01*
X347295Y234697D01*
X347290Y234703D01*
X347246Y234758D01*
X347201Y234814D01*
X347134Y234930D01*
X347090Y235047D01*
X347057Y235158D01*
X347035Y235252D01*
X347029Y235291D01*
Y235330D01*
X347024Y235357D01*
Y235380D01*
Y235391D01*
Y235396D01*
X347029Y235513D01*
X347046Y235618D01*
X347073Y235718D01*
X347101Y235802D01*
X347134Y235874D01*
X347157Y235929D01*
X347179Y235962D01*
X347184Y235968D01*
Y235974D01*
X347251Y236062D01*
X347318Y236140D01*
X347390Y236207D01*
X347456Y236257D01*
X347517Y236295D01*
X347567Y236318D01*
X347601Y236334D01*
X347606Y236340D01*
X347612D01*
X347662Y236356D01*
X347723Y236373D01*
X347845Y236401D01*
X347978Y236418D01*
X348100Y236434D01*
X348217Y236440D01*
X348267D01*
X348311Y236445D01*
X350093D01*
Y232605D01*
D02*
G37*
G36*
X345003Y246368D02*
X345064Y246279D01*
X345136Y246190D01*
X345203Y246112D01*
X345270Y246046D01*
X345320Y245990D01*
X345342Y245973D01*
X345358Y245957D01*
X345364Y245951D01*
X345370Y245946D01*
X345486Y245851D01*
X345603Y245763D01*
X345714Y245685D01*
X345825Y245624D01*
X345919Y245568D01*
X345958Y245546D01*
X345991Y245530D01*
X346019Y245513D01*
X346041Y245507D01*
X346052Y245496D01*
X346058D01*
Y245041D01*
X345974Y245074D01*
X345891Y245113D01*
X345808Y245152D01*
X345730Y245191D01*
X345664Y245224D01*
X345608Y245252D01*
X345575Y245274D01*
X345569Y245280D01*
X345564D01*
X345464Y245341D01*
X345375Y245402D01*
X345297Y245457D01*
X345236Y245507D01*
X345181Y245546D01*
X345148Y245580D01*
X345120Y245602D01*
X345114Y245607D01*
Y242605D01*
X344642D01*
Y246462D01*
X344948D01*
X345003Y246368D01*
D02*
G37*
G36*
X350093Y242605D02*
X349582D01*
Y244308D01*
X348927D01*
X348866Y244303D01*
X348822D01*
X348783Y244297D01*
X348755Y244292D01*
X348733D01*
X348722Y244286D01*
X348716D01*
X348627Y244259D01*
X348589Y244242D01*
X348555Y244225D01*
X348522Y244209D01*
X348500Y244198D01*
X348489Y244192D01*
X348483Y244186D01*
X348439Y244153D01*
X348394Y244114D01*
X348311Y244031D01*
X348272Y243992D01*
X348245Y243959D01*
X348228Y243937D01*
X348222Y243931D01*
X348167Y243853D01*
X348106Y243770D01*
X348045Y243681D01*
X347984Y243598D01*
X347934Y243520D01*
X347895Y243459D01*
X347878Y243437D01*
X347867Y243421D01*
X347856Y243409D01*
Y243404D01*
X347351Y242605D01*
X346718D01*
X347379Y243648D01*
X347456Y243759D01*
X347529Y243859D01*
X347601Y243942D01*
X347662Y244020D01*
X347717Y244075D01*
X347762Y244120D01*
X347789Y244148D01*
X347800Y244159D01*
X347845Y244192D01*
X347895Y244231D01*
X347995Y244292D01*
X348039Y244314D01*
X348072Y244336D01*
X348095Y244347D01*
X348106Y244353D01*
X348006Y244370D01*
X347912Y244386D01*
X347828Y244414D01*
X347745Y244436D01*
X347673Y244464D01*
X347606Y244497D01*
X347545Y244525D01*
X347490Y244553D01*
X347445Y244586D01*
X347401Y244614D01*
X347368Y244636D01*
X347340Y244658D01*
X347318Y244675D01*
X347301Y244691D01*
X347295Y244697D01*
X347290Y244703D01*
X347246Y244758D01*
X347201Y244814D01*
X347134Y244930D01*
X347090Y245047D01*
X347057Y245158D01*
X347035Y245252D01*
X347029Y245291D01*
Y245330D01*
X347024Y245357D01*
Y245380D01*
Y245391D01*
Y245396D01*
X347029Y245513D01*
X347046Y245618D01*
X347073Y245718D01*
X347101Y245801D01*
X347134Y245874D01*
X347157Y245929D01*
X347179Y245962D01*
X347184Y245968D01*
Y245973D01*
X347251Y246062D01*
X347318Y246140D01*
X347390Y246207D01*
X347456Y246257D01*
X347517Y246295D01*
X347567Y246318D01*
X347601Y246334D01*
X347606Y246340D01*
X347612D01*
X347662Y246357D01*
X347723Y246373D01*
X347845Y246401D01*
X347978Y246417D01*
X348100Y246434D01*
X348217Y246440D01*
X348267D01*
X348311Y246445D01*
X350093D01*
Y242605D01*
D02*
G37*
G36*
X342273Y246456D02*
X342361Y246451D01*
X342517Y246417D01*
X342589Y246395D01*
X342656Y246373D01*
X342717Y246345D01*
X342772Y246318D01*
X342817Y246290D01*
X342861Y246262D01*
X342900Y246240D01*
X342928Y246218D01*
X342950Y246201D01*
X342966Y246184D01*
X342977Y246179D01*
X342983Y246173D01*
X343033Y246118D01*
X343083Y246062D01*
X343122Y246001D01*
X343155Y245940D01*
X343211Y245824D01*
X343244Y245713D01*
X343266Y245618D01*
X343272Y245574D01*
X343277Y245541D01*
X343283Y245507D01*
Y245485D01*
Y245474D01*
Y245468D01*
X343277Y245369D01*
X343261Y245274D01*
X343238Y245191D01*
X343211Y245119D01*
X343188Y245063D01*
X343166Y245019D01*
X343150Y244997D01*
X343144Y244986D01*
X343083Y244919D01*
X343016Y244858D01*
X342944Y244802D01*
X342872Y244758D01*
X342806Y244725D01*
X342756Y244703D01*
X342733Y244691D01*
X342717Y244686D01*
X342711Y244680D01*
X342706D01*
X342833Y244641D01*
X342939Y244592D01*
X343033Y244531D01*
X343111Y244475D01*
X343172Y244420D01*
X343216Y244375D01*
X343238Y244347D01*
X343250Y244342D01*
Y244336D01*
X343310Y244236D01*
X343360Y244131D01*
X343394Y244031D01*
X343416Y243931D01*
X343427Y243842D01*
X343433Y243804D01*
Y243770D01*
X343438Y243748D01*
Y243726D01*
Y243715D01*
Y243709D01*
X343433Y243620D01*
X343422Y243531D01*
X343405Y243448D01*
X343383Y243365D01*
X343327Y243226D01*
X343299Y243160D01*
X343266Y243104D01*
X343233Y243049D01*
X343205Y243004D01*
X343172Y242965D01*
X343150Y242932D01*
X343127Y242904D01*
X343111Y242888D01*
X343100Y242877D01*
X343094Y242871D01*
X343027Y242810D01*
X342955Y242760D01*
X342878Y242716D01*
X342800Y242677D01*
X342728Y242649D01*
X342650Y242621D01*
X342500Y242583D01*
X342434Y242566D01*
X342373Y242555D01*
X342317Y242549D01*
X342267Y242544D01*
X342228Y242538D01*
X342173D01*
X342067Y242544D01*
X341973Y242555D01*
X341879Y242571D01*
X341790Y242588D01*
X341712Y242616D01*
X341634Y242643D01*
X341562Y242671D01*
X341501Y242705D01*
X341446Y242738D01*
X341396Y242766D01*
X341357Y242793D01*
X341318Y242821D01*
X341290Y242838D01*
X341274Y242854D01*
X341263Y242865D01*
X341257Y242871D01*
X341196Y242938D01*
X341141Y243004D01*
X341096Y243071D01*
X341057Y243143D01*
X341018Y243210D01*
X340991Y243282D01*
X340952Y243409D01*
X340935Y243471D01*
X340924Y243526D01*
X340918Y243576D01*
X340913Y243615D01*
X340907Y243648D01*
Y243676D01*
Y243692D01*
Y243698D01*
X340913Y243826D01*
X340935Y243942D01*
X340968Y244048D01*
X341002Y244137D01*
X341035Y244209D01*
X341068Y244264D01*
X341090Y244297D01*
X341096Y244303D01*
Y244308D01*
X341174Y244397D01*
X341257Y244475D01*
X341346Y244536D01*
X341429Y244592D01*
X341507Y244630D01*
X341573Y244658D01*
X341596Y244669D01*
X341612Y244675D01*
X341623Y244680D01*
X341629D01*
X341529Y244725D01*
X341446Y244775D01*
X341374Y244825D01*
X341313Y244875D01*
X341268Y244919D01*
X341235Y244952D01*
X341213Y244974D01*
X341207Y244986D01*
X341157Y245063D01*
X341124Y245141D01*
X341096Y245219D01*
X341079Y245296D01*
X341068Y245357D01*
X341063Y245407D01*
Y245441D01*
Y245446D01*
Y245452D01*
X341068Y245530D01*
X341074Y245602D01*
X341113Y245740D01*
X341163Y245863D01*
X341218Y245968D01*
X341274Y246051D01*
X341301Y246084D01*
X341324Y246118D01*
X341346Y246140D01*
X341363Y246157D01*
X341368Y246162D01*
X341374Y246168D01*
X341435Y246218D01*
X341496Y246268D01*
X341562Y246306D01*
X341629Y246340D01*
X341762Y246390D01*
X341895Y246423D01*
X341951Y246440D01*
X342006Y246445D01*
X342056Y246451D01*
X342101Y246456D01*
X342134Y246462D01*
X342184D01*
X342273Y246456D01*
D02*
G37*
G36*
X394917Y255343D02*
X394978Y255254D01*
X395051Y255165D01*
X395117Y255087D01*
X395184Y255021D01*
X395234Y254965D01*
X395256Y254948D01*
X395272Y254932D01*
X395278Y254926D01*
X395284Y254921D01*
X395400Y254826D01*
X395517Y254738D01*
X395628Y254660D01*
X395739Y254599D01*
X395833Y254543D01*
X395872Y254521D01*
X395905Y254505D01*
X395933Y254488D01*
X395955Y254482D01*
X395966Y254471D01*
X395972D01*
Y254016D01*
X395888Y254049D01*
X395805Y254088D01*
X395722Y254127D01*
X395644Y254166D01*
X395578Y254199D01*
X395522Y254227D01*
X395489Y254249D01*
X395483Y254255D01*
X395478D01*
X395378Y254316D01*
X395289Y254377D01*
X395211Y254432D01*
X395150Y254482D01*
X395095Y254521D01*
X395061Y254555D01*
X395034Y254577D01*
X395028Y254582D01*
Y251580D01*
X394556D01*
Y255437D01*
X394862D01*
X394917Y255343D01*
D02*
G37*
G36*
X398536Y255476D02*
X398713Y255448D01*
X398869Y255415D01*
X398941Y255393D01*
X399008Y255370D01*
X399069Y255348D01*
X399124Y255326D01*
X399169Y255309D01*
X399213Y255293D01*
X399241Y255276D01*
X399263Y255265D01*
X399280Y255259D01*
X399285Y255254D01*
X399435Y255159D01*
X399563Y255048D01*
X399674Y254937D01*
X399768Y254826D01*
X399840Y254727D01*
X399868Y254682D01*
X399890Y254643D01*
X399912Y254615D01*
X399923Y254593D01*
X399929Y254577D01*
X399935Y254571D01*
X400012Y254399D01*
X400068Y254222D01*
X400106Y254044D01*
X400134Y253883D01*
X400145Y253811D01*
X400151Y253739D01*
X400156Y253683D01*
Y253628D01*
X400162Y253589D01*
Y253555D01*
Y253533D01*
Y253528D01*
X400151Y253328D01*
X400129Y253134D01*
X400101Y252962D01*
X400079Y252878D01*
X400062Y252806D01*
X400045Y252740D01*
X400023Y252679D01*
X400007Y252623D01*
X399995Y252579D01*
X399979Y252545D01*
X399973Y252518D01*
X399962Y252501D01*
Y252495D01*
X399879Y252329D01*
X399785Y252179D01*
X399685Y252051D01*
X399635Y252002D01*
X399590Y251952D01*
X399546Y251907D01*
X399501Y251868D01*
X399463Y251835D01*
X399429Y251813D01*
X399407Y251791D01*
X399385Y251774D01*
X399374Y251768D01*
X399368Y251763D01*
X399291Y251718D01*
X399213Y251680D01*
X399046Y251619D01*
X398880Y251574D01*
X398719Y251546D01*
X398641Y251535D01*
X398575Y251524D01*
X398514Y251519D01*
X398464D01*
X398419Y251513D01*
X398358D01*
X398247Y251519D01*
X398142Y251530D01*
X398042Y251541D01*
X397948Y251563D01*
X397859Y251591D01*
X397776Y251619D01*
X397698Y251646D01*
X397626Y251680D01*
X397565Y251707D01*
X397503Y251735D01*
X397459Y251763D01*
X397415Y251791D01*
X397387Y251813D01*
X397359Y251824D01*
X397348Y251835D01*
X397343Y251840D01*
X397265Y251907D01*
X397198Y251974D01*
X397137Y252051D01*
X397076Y252129D01*
X396976Y252285D01*
X396899Y252440D01*
X396865Y252512D01*
X396838Y252579D01*
X396815Y252640D01*
X396799Y252690D01*
X396782Y252734D01*
X396771Y252767D01*
X396765Y252790D01*
Y252795D01*
X397276Y252923D01*
X397298Y252834D01*
X397326Y252751D01*
X397354Y252673D01*
X397381Y252601D01*
X397415Y252534D01*
X397448Y252479D01*
X397487Y252423D01*
X397520Y252373D01*
X397548Y252329D01*
X397581Y252296D01*
X397609Y252262D01*
X397631Y252235D01*
X397653Y252218D01*
X397670Y252201D01*
X397676Y252196D01*
X397681Y252190D01*
X397737Y252146D01*
X397798Y252113D01*
X397920Y252051D01*
X398036Y252007D01*
X398153Y251979D01*
X398253Y251957D01*
X398292Y251952D01*
X398330D01*
X398364Y251946D01*
X398403D01*
X398530Y251952D01*
X398652Y251974D01*
X398763Y252002D01*
X398863Y252035D01*
X398941Y252068D01*
X398974Y252085D01*
X399002Y252096D01*
X399024Y252107D01*
X399041Y252118D01*
X399052Y252124D01*
X399058D01*
X399163Y252201D01*
X399252Y252285D01*
X399329Y252379D01*
X399391Y252468D01*
X399441Y252545D01*
X399474Y252612D01*
X399485Y252640D01*
X399496Y252656D01*
X399501Y252667D01*
Y252673D01*
X399546Y252817D01*
X399579Y252962D01*
X399607Y253106D01*
X399624Y253239D01*
X399629Y253300D01*
X399635Y253356D01*
Y253406D01*
X399640Y253445D01*
Y253478D01*
Y253505D01*
Y253522D01*
Y253528D01*
X399635Y253672D01*
X399624Y253805D01*
X399602Y253927D01*
X399579Y254038D01*
X399563Y254133D01*
X399552Y254171D01*
X399540Y254205D01*
X399535Y254233D01*
X399529Y254249D01*
X399524Y254260D01*
Y254266D01*
X399468Y254394D01*
X399407Y254510D01*
X399341Y254604D01*
X399268Y254688D01*
X399207Y254754D01*
X399158Y254799D01*
X399119Y254826D01*
X399113Y254838D01*
X399108D01*
X398991Y254910D01*
X398863Y254965D01*
X398741Y255004D01*
X398625Y255026D01*
X398519Y255043D01*
X398475Y255048D01*
X398436D01*
X398408Y255054D01*
X398364D01*
X398225Y255048D01*
X398097Y255026D01*
X397992Y254993D01*
X397898Y254960D01*
X397826Y254921D01*
X397770Y254893D01*
X397737Y254871D01*
X397726Y254860D01*
X397637Y254777D01*
X397553Y254682D01*
X397487Y254582D01*
X397431Y254482D01*
X397387Y254394D01*
X397370Y254349D01*
X397359Y254316D01*
X397348Y254288D01*
X397337Y254266D01*
X397332Y254255D01*
Y254249D01*
X396832Y254366D01*
X396865Y254466D01*
X396899Y254555D01*
X396943Y254638D01*
X396982Y254721D01*
X397026Y254793D01*
X397076Y254860D01*
X397121Y254926D01*
X397165Y254982D01*
X397209Y255026D01*
X397248Y255071D01*
X397287Y255110D01*
X397315Y255137D01*
X397343Y255165D01*
X397365Y255182D01*
X397376Y255187D01*
X397381Y255193D01*
X397459Y255243D01*
X397537Y255293D01*
X397615Y255331D01*
X397698Y255365D01*
X397864Y255415D01*
X398014Y255448D01*
X398086Y255465D01*
X398147Y255470D01*
X398208Y255476D01*
X398258Y255481D01*
X398297Y255487D01*
X398353D01*
X398536Y255476D01*
D02*
G37*
G36*
X392242Y255426D02*
X392381Y255404D01*
X392497Y255365D01*
X392597Y255326D01*
X392681Y255282D01*
X392714Y255265D01*
X392742Y255243D01*
X392764Y255232D01*
X392780Y255221D01*
X392786Y255209D01*
X392792D01*
X392892Y255121D01*
X392975Y255015D01*
X393047Y254910D01*
X393102Y254810D01*
X393147Y254715D01*
X393169Y254677D01*
X393180Y254638D01*
X393191Y254610D01*
X393202Y254588D01*
X393208Y254577D01*
Y254571D01*
X393230Y254488D01*
X393252Y254405D01*
X393286Y254222D01*
X393313Y254038D01*
X393330Y253866D01*
X393336Y253783D01*
X393341Y253711D01*
Y253644D01*
X393347Y253583D01*
Y253539D01*
Y253500D01*
Y253478D01*
Y253472D01*
X393341Y253278D01*
X393330Y253095D01*
X393313Y252928D01*
X393286Y252773D01*
X393258Y252629D01*
X393225Y252501D01*
X393191Y252384D01*
X393158Y252285D01*
X393125Y252196D01*
X393086Y252118D01*
X393058Y252051D01*
X393030Y252002D01*
X393003Y251957D01*
X392986Y251929D01*
X392975Y251913D01*
X392969Y251907D01*
X392908Y251840D01*
X392842Y251780D01*
X392769Y251724D01*
X392697Y251680D01*
X392625Y251641D01*
X392553Y251607D01*
X392481Y251585D01*
X392414Y251563D01*
X392348Y251546D01*
X392286Y251535D01*
X392231Y251524D01*
X392187Y251519D01*
X392148Y251513D01*
X392092D01*
X391943Y251524D01*
X391804Y251546D01*
X391687Y251585D01*
X391587Y251624D01*
X391504Y251663D01*
X391476Y251685D01*
X391448Y251702D01*
X391426Y251713D01*
X391410Y251724D01*
X391404Y251735D01*
X391399D01*
X391299Y251829D01*
X391215Y251929D01*
X391143Y252040D01*
X391088Y252140D01*
X391043Y252235D01*
X391021Y252274D01*
X391010Y252312D01*
X390999Y252340D01*
X390988Y252362D01*
X390982Y252373D01*
Y252379D01*
X390955Y252462D01*
X390932Y252545D01*
X390899Y252723D01*
X390871Y252906D01*
X390855Y253084D01*
X390849Y253162D01*
X390844Y253234D01*
Y253300D01*
X390838Y253361D01*
Y253406D01*
Y253445D01*
Y253467D01*
Y253472D01*
Y253578D01*
X390844Y253678D01*
Y253766D01*
X390849Y253855D01*
X390860Y253933D01*
X390866Y254011D01*
X390871Y254077D01*
X390882Y254138D01*
X390888Y254194D01*
X390899Y254244D01*
X390905Y254282D01*
X390910Y254316D01*
X390916Y254344D01*
X390921Y254360D01*
X390927Y254371D01*
Y254377D01*
X390960Y254499D01*
X390999Y254610D01*
X391043Y254704D01*
X391077Y254788D01*
X391115Y254860D01*
X391138Y254910D01*
X391160Y254937D01*
X391165Y254948D01*
X391227Y255032D01*
X391288Y255104D01*
X391354Y255165D01*
X391415Y255221D01*
X391471Y255259D01*
X391515Y255287D01*
X391543Y255304D01*
X391548Y255309D01*
X391554D01*
X391643Y255354D01*
X391737Y255381D01*
X391826Y255404D01*
X391909Y255420D01*
X391981Y255431D01*
X392042Y255437D01*
X392092D01*
X392242Y255426D01*
D02*
G37*
G36*
X381662Y266931D02*
X381756Y266926D01*
X381845Y266909D01*
X381928Y266893D01*
X382006Y266870D01*
X382078Y266848D01*
X382144Y266820D01*
X382206Y266793D01*
X382261Y266765D01*
X382306Y266737D01*
X382344Y266715D01*
X382378Y266693D01*
X382405Y266676D01*
X382422Y266659D01*
X382433Y266654D01*
X382439Y266648D01*
X382494Y266593D01*
X382544Y266532D01*
X382594Y266465D01*
X382633Y266399D01*
X382699Y266265D01*
X382744Y266132D01*
X382761Y266071D01*
X382777Y266010D01*
X382788Y265960D01*
X382799Y265916D01*
X382805Y265877D01*
Y265849D01*
X382810Y265832D01*
Y265827D01*
X382328Y265777D01*
X382317Y265905D01*
X382294Y266016D01*
X382261Y266115D01*
X382222Y266193D01*
X382189Y266260D01*
X382156Y266304D01*
X382133Y266332D01*
X382122Y266343D01*
X382039Y266410D01*
X381950Y266460D01*
X381856Y266498D01*
X381773Y266521D01*
X381695Y266537D01*
X381628Y266543D01*
X381606Y266548D01*
X381573D01*
X381456Y266543D01*
X381351Y266521D01*
X381262Y266487D01*
X381184Y266454D01*
X381123Y266415D01*
X381084Y266388D01*
X381057Y266365D01*
X381046Y266354D01*
X380979Y266277D01*
X380929Y266199D01*
X380890Y266121D01*
X380868Y266043D01*
X380851Y265982D01*
X380846Y265927D01*
X380840Y265894D01*
Y265888D01*
Y265882D01*
X380851Y265782D01*
X380874Y265677D01*
X380912Y265583D01*
X380951Y265494D01*
X380996Y265422D01*
X381034Y265361D01*
X381046Y265338D01*
X381057Y265322D01*
X381068Y265316D01*
Y265311D01*
X381112Y265250D01*
X381168Y265189D01*
X381229Y265122D01*
X381295Y265055D01*
X381434Y264922D01*
X381573Y264789D01*
X381645Y264728D01*
X381706Y264673D01*
X381767Y264623D01*
X381817Y264578D01*
X381856Y264545D01*
X381889Y264517D01*
X381911Y264500D01*
X381917Y264495D01*
X382056Y264378D01*
X382183Y264267D01*
X382289Y264167D01*
X382372Y264084D01*
X382444Y264012D01*
X382494Y263962D01*
X382522Y263929D01*
X382533Y263923D01*
Y263918D01*
X382611Y263823D01*
X382672Y263735D01*
X382727Y263646D01*
X382772Y263568D01*
X382805Y263502D01*
X382827Y263452D01*
X382838Y263418D01*
X382844Y263413D01*
Y263407D01*
X382866Y263346D01*
X382877Y263291D01*
X382888Y263235D01*
X382894Y263185D01*
X382899Y263141D01*
Y263107D01*
Y263085D01*
Y263080D01*
X380352D01*
Y263535D01*
X382244D01*
X382178Y263629D01*
X382144Y263668D01*
X382117Y263707D01*
X382089Y263740D01*
X382067Y263762D01*
X382050Y263779D01*
X382045Y263785D01*
X382017Y263812D01*
X381984Y263840D01*
X381906Y263912D01*
X381817Y263995D01*
X381723Y264079D01*
X381634Y264151D01*
X381595Y264184D01*
X381562Y264217D01*
X381534Y264240D01*
X381512Y264256D01*
X381501Y264267D01*
X381495Y264273D01*
X381406Y264351D01*
X381318Y264423D01*
X381240Y264495D01*
X381168Y264556D01*
X381101Y264617D01*
X381046Y264673D01*
X380990Y264722D01*
X380946Y264767D01*
X380901Y264811D01*
X380868Y264845D01*
X380840Y264872D01*
X380813Y264900D01*
X380785Y264933D01*
X380774Y264945D01*
X380696Y265039D01*
X380629Y265122D01*
X380574Y265205D01*
X380529Y265272D01*
X380496Y265333D01*
X380474Y265377D01*
X380463Y265405D01*
X380457Y265416D01*
X380424Y265499D01*
X380402Y265583D01*
X380380Y265660D01*
X380368Y265727D01*
X380363Y265788D01*
X380357Y265832D01*
Y265860D01*
Y265871D01*
X380363Y265955D01*
X380374Y266032D01*
X380385Y266110D01*
X380407Y266177D01*
X380463Y266310D01*
X380518Y266415D01*
X380552Y266465D01*
X380579Y266504D01*
X380607Y266543D01*
X380635Y266571D01*
X380657Y266593D01*
X380668Y266615D01*
X380679Y266621D01*
X380685Y266626D01*
X380746Y266682D01*
X380813Y266732D01*
X380885Y266770D01*
X380957Y266804D01*
X381101Y266859D01*
X381245Y266898D01*
X381307Y266909D01*
X381367Y266920D01*
X381423Y266926D01*
X381467Y266931D01*
X381506Y266937D01*
X381562D01*
X381662Y266931D01*
D02*
G37*
G36*
X384403Y266843D02*
X384464Y266754D01*
X384537Y266665D01*
X384603Y266587D01*
X384670Y266521D01*
X384720Y266465D01*
X384742Y266448D01*
X384759Y266432D01*
X384764Y266426D01*
X384770Y266421D01*
X384886Y266326D01*
X385003Y266238D01*
X385114Y266160D01*
X385225Y266099D01*
X385319Y266043D01*
X385358Y266021D01*
X385391Y266005D01*
X385419Y265988D01*
X385441Y265982D01*
X385452Y265971D01*
X385458D01*
Y265516D01*
X385375Y265549D01*
X385291Y265588D01*
X385208Y265627D01*
X385130Y265666D01*
X385064Y265699D01*
X385008Y265727D01*
X384975Y265749D01*
X384969Y265755D01*
X384964D01*
X384864Y265816D01*
X384775Y265877D01*
X384698Y265932D01*
X384636Y265982D01*
X384581Y266021D01*
X384548Y266055D01*
X384520Y266077D01*
X384514Y266082D01*
Y263080D01*
X384043D01*
Y266937D01*
X384348D01*
X384403Y266843D01*
D02*
G37*
G36*
X388022Y266976D02*
X388200Y266948D01*
X388355Y266915D01*
X388427Y266893D01*
X388494Y266870D01*
X388555Y266848D01*
X388610Y266826D01*
X388655Y266809D01*
X388699Y266793D01*
X388727Y266776D01*
X388749Y266765D01*
X388766Y266759D01*
X388771Y266754D01*
X388921Y266659D01*
X389049Y266548D01*
X389160Y266437D01*
X389254Y266326D01*
X389326Y266227D01*
X389354Y266182D01*
X389376Y266143D01*
X389398Y266115D01*
X389409Y266093D01*
X389415Y266077D01*
X389421Y266071D01*
X389498Y265899D01*
X389554Y265722D01*
X389593Y265544D01*
X389620Y265383D01*
X389632Y265311D01*
X389637Y265239D01*
X389643Y265183D01*
Y265128D01*
X389648Y265089D01*
Y265055D01*
Y265033D01*
Y265028D01*
X389637Y264828D01*
X389615Y264634D01*
X389587Y264462D01*
X389565Y264378D01*
X389548Y264306D01*
X389532Y264240D01*
X389509Y264179D01*
X389493Y264123D01*
X389482Y264079D01*
X389465Y264045D01*
X389459Y264018D01*
X389448Y264001D01*
Y263995D01*
X389365Y263829D01*
X389271Y263679D01*
X389171Y263551D01*
X389121Y263502D01*
X389076Y263452D01*
X389032Y263407D01*
X388988Y263368D01*
X388949Y263335D01*
X388915Y263313D01*
X388893Y263291D01*
X388871Y263274D01*
X388860Y263268D01*
X388855Y263263D01*
X388777Y263218D01*
X388699Y263180D01*
X388533Y263119D01*
X388366Y263074D01*
X388205Y263046D01*
X388127Y263035D01*
X388061Y263024D01*
X388000Y263019D01*
X387950D01*
X387905Y263013D01*
X387844D01*
X387733Y263019D01*
X387628Y263030D01*
X387528Y263041D01*
X387434Y263063D01*
X387345Y263091D01*
X387262Y263119D01*
X387184Y263146D01*
X387112Y263180D01*
X387051Y263207D01*
X386990Y263235D01*
X386945Y263263D01*
X386901Y263291D01*
X386873Y263313D01*
X386845Y263324D01*
X386834Y263335D01*
X386829Y263340D01*
X386751Y263407D01*
X386684Y263474D01*
X386623Y263551D01*
X386562Y263629D01*
X386462Y263785D01*
X386385Y263940D01*
X386351Y264012D01*
X386324Y264079D01*
X386301Y264140D01*
X386285Y264190D01*
X386268Y264234D01*
X386257Y264267D01*
X386251Y264290D01*
Y264295D01*
X386762Y264423D01*
X386784Y264334D01*
X386812Y264251D01*
X386840Y264173D01*
X386868Y264101D01*
X386901Y264034D01*
X386934Y263979D01*
X386973Y263923D01*
X387006Y263873D01*
X387034Y263829D01*
X387067Y263796D01*
X387095Y263762D01*
X387117Y263735D01*
X387140Y263718D01*
X387156Y263701D01*
X387162Y263696D01*
X387167Y263690D01*
X387223Y263646D01*
X387284Y263613D01*
X387406Y263551D01*
X387523Y263507D01*
X387639Y263479D01*
X387739Y263457D01*
X387778Y263452D01*
X387817D01*
X387850Y263446D01*
X387889D01*
X388016Y263452D01*
X388139Y263474D01*
X388249Y263502D01*
X388349Y263535D01*
X388427Y263568D01*
X388460Y263585D01*
X388488Y263596D01*
X388510Y263607D01*
X388527Y263618D01*
X388538Y263624D01*
X388544D01*
X388649Y263701D01*
X388738Y263785D01*
X388816Y263879D01*
X388877Y263968D01*
X388927Y264045D01*
X388960Y264112D01*
X388971Y264140D01*
X388982Y264156D01*
X388988Y264167D01*
Y264173D01*
X389032Y264317D01*
X389065Y264462D01*
X389093Y264606D01*
X389110Y264739D01*
X389115Y264800D01*
X389121Y264856D01*
Y264906D01*
X389126Y264945D01*
Y264978D01*
Y265005D01*
Y265022D01*
Y265028D01*
X389121Y265172D01*
X389110Y265305D01*
X389088Y265427D01*
X389065Y265538D01*
X389049Y265633D01*
X389038Y265671D01*
X389026Y265705D01*
X389021Y265733D01*
X389015Y265749D01*
X389010Y265760D01*
Y265766D01*
X388954Y265894D01*
X388893Y266010D01*
X388827Y266104D01*
X388755Y266188D01*
X388693Y266254D01*
X388644Y266299D01*
X388605Y266326D01*
X388599Y266338D01*
X388594D01*
X388477Y266410D01*
X388349Y266465D01*
X388227Y266504D01*
X388111Y266526D01*
X388005Y266543D01*
X387961Y266548D01*
X387922D01*
X387894Y266554D01*
X387850D01*
X387711Y266548D01*
X387583Y266526D01*
X387478Y266493D01*
X387384Y266460D01*
X387312Y266421D01*
X387256Y266393D01*
X387223Y266371D01*
X387212Y266360D01*
X387123Y266277D01*
X387040Y266182D01*
X386973Y266082D01*
X386917Y265982D01*
X386873Y265894D01*
X386857Y265849D01*
X386845Y265816D01*
X386834Y265788D01*
X386823Y265766D01*
X386818Y265755D01*
Y265749D01*
X386318Y265866D01*
X386351Y265966D01*
X386385Y266055D01*
X386429Y266138D01*
X386468Y266221D01*
X386512Y266293D01*
X386562Y266360D01*
X386607Y266426D01*
X386651Y266482D01*
X386696Y266526D01*
X386734Y266571D01*
X386773Y266610D01*
X386801Y266637D01*
X386829Y266665D01*
X386851Y266682D01*
X386862Y266687D01*
X386868Y266693D01*
X386945Y266743D01*
X387023Y266793D01*
X387101Y266831D01*
X387184Y266865D01*
X387350Y266915D01*
X387500Y266948D01*
X387572Y266965D01*
X387633Y266970D01*
X387695Y266976D01*
X387744Y266981D01*
X387783Y266987D01*
X387839D01*
X388022Y266976D01*
D02*
G37*
G36*
X409172Y247285D02*
X409366Y247262D01*
X409538Y247235D01*
X409622Y247212D01*
X409694Y247196D01*
X409760Y247179D01*
X409821Y247157D01*
X409877Y247140D01*
X409921Y247129D01*
X409955Y247113D01*
X409982Y247107D01*
X409999Y247096D01*
X410005D01*
X410171Y247013D01*
X410321Y246918D01*
X410449Y246818D01*
X410499Y246768D01*
X410548Y246724D01*
X410593Y246680D01*
X410632Y246635D01*
X410665Y246596D01*
X410687Y246563D01*
X410709Y246541D01*
X410726Y246519D01*
X410732Y246508D01*
X410737Y246502D01*
X410781Y246424D01*
X410820Y246347D01*
X410882Y246180D01*
X410926Y246014D01*
X410954Y245853D01*
X410965Y245775D01*
X410976Y245708D01*
X410981Y245647D01*
Y245597D01*
X410987Y245553D01*
Y245492D01*
X410981Y245381D01*
X410970Y245275D01*
X410959Y245176D01*
X410937Y245081D01*
X410909Y244992D01*
X410882Y244909D01*
X410854Y244831D01*
X410820Y244759D01*
X410793Y244698D01*
X410765Y244637D01*
X410737Y244593D01*
X410709Y244549D01*
X410687Y244521D01*
X410676Y244493D01*
X410665Y244482D01*
X410660Y244476D01*
X410593Y244399D01*
X410526Y244332D01*
X410449Y244271D01*
X410371Y244210D01*
X410215Y244110D01*
X410060Y244032D01*
X409988Y243999D01*
X409921Y243971D01*
X409860Y243949D01*
X409810Y243932D01*
X409766Y243916D01*
X409733Y243905D01*
X409710Y243899D01*
X409705D01*
X409577Y244410D01*
X409666Y244432D01*
X409749Y244460D01*
X409827Y244487D01*
X409899Y244515D01*
X409966Y244549D01*
X410021Y244582D01*
X410077Y244621D01*
X410127Y244654D01*
X410171Y244682D01*
X410204Y244715D01*
X410238Y244743D01*
X410265Y244765D01*
X410282Y244787D01*
X410299Y244804D01*
X410304Y244809D01*
X410310Y244815D01*
X410354Y244870D01*
X410388Y244931D01*
X410449Y245054D01*
X410493Y245170D01*
X410521Y245287D01*
X410543Y245387D01*
X410548Y245425D01*
Y245464D01*
X410554Y245497D01*
Y245536D01*
X410548Y245664D01*
X410526Y245786D01*
X410499Y245897D01*
X410465Y245997D01*
X410432Y246075D01*
X410415Y246108D01*
X410404Y246136D01*
X410393Y246158D01*
X410382Y246175D01*
X410376Y246186D01*
Y246191D01*
X410299Y246297D01*
X410215Y246386D01*
X410121Y246463D01*
X410032Y246524D01*
X409955Y246574D01*
X409888Y246607D01*
X409860Y246619D01*
X409844Y246630D01*
X409832Y246635D01*
X409827D01*
X409683Y246680D01*
X409538Y246713D01*
X409394Y246741D01*
X409261Y246757D01*
X409200Y246763D01*
X409144Y246768D01*
X409094D01*
X409056Y246774D01*
X409022D01*
X408994D01*
X408978D01*
X408972D01*
X408828Y246768D01*
X408695Y246757D01*
X408573Y246735D01*
X408462Y246713D01*
X408367Y246696D01*
X408328Y246685D01*
X408295Y246674D01*
X408267Y246669D01*
X408251Y246663D01*
X408240Y246657D01*
X408234D01*
X408106Y246602D01*
X407990Y246541D01*
X407896Y246474D01*
X407812Y246402D01*
X407746Y246341D01*
X407701Y246291D01*
X407674Y246252D01*
X407662Y246247D01*
Y246241D01*
X407590Y246125D01*
X407535Y245997D01*
X407496Y245875D01*
X407474Y245758D01*
X407457Y245653D01*
X407451Y245608D01*
Y245570D01*
X407446Y245542D01*
Y245497D01*
X407451Y245359D01*
X407474Y245231D01*
X407507Y245126D01*
X407540Y245031D01*
X407579Y244959D01*
X407607Y244904D01*
X407629Y244870D01*
X407640Y244859D01*
X407724Y244770D01*
X407818Y244687D01*
X407918Y244621D01*
X408018Y244565D01*
X408106Y244521D01*
X408151Y244504D01*
X408184Y244493D01*
X408212Y244482D01*
X408234Y244471D01*
X408245Y244465D01*
X408251D01*
X408134Y243966D01*
X408034Y243999D01*
X407945Y244032D01*
X407862Y244077D01*
X407779Y244115D01*
X407707Y244160D01*
X407640Y244210D01*
X407574Y244254D01*
X407518Y244299D01*
X407474Y244343D01*
X407429Y244382D01*
X407390Y244421D01*
X407363Y244448D01*
X407335Y244476D01*
X407318Y244498D01*
X407313Y244510D01*
X407307Y244515D01*
X407257Y244593D01*
X407207Y244671D01*
X407168Y244748D01*
X407135Y244831D01*
X407085Y244998D01*
X407052Y245148D01*
X407035Y245220D01*
X407030Y245281D01*
X407024Y245342D01*
X407019Y245392D01*
X407013Y245431D01*
Y245486D01*
X407024Y245670D01*
X407052Y245847D01*
X407085Y246003D01*
X407107Y246075D01*
X407130Y246141D01*
X407152Y246202D01*
X407174Y246258D01*
X407191Y246302D01*
X407207Y246347D01*
X407224Y246374D01*
X407235Y246397D01*
X407241Y246413D01*
X407246Y246419D01*
X407340Y246569D01*
X407451Y246696D01*
X407563Y246807D01*
X407674Y246902D01*
X407773Y246974D01*
X407818Y247002D01*
X407857Y247024D01*
X407885Y247046D01*
X407907Y247057D01*
X407923Y247063D01*
X407929Y247068D01*
X408101Y247146D01*
X408279Y247201D01*
X408456Y247240D01*
X408617Y247268D01*
X408689Y247279D01*
X408761Y247285D01*
X408817Y247290D01*
X408872D01*
X408911Y247296D01*
X408945D01*
X408967D01*
X408972D01*
X409172Y247285D01*
D02*
G37*
G36*
X408451Y243022D02*
X408412Y242939D01*
X408373Y242856D01*
X408334Y242778D01*
X408301Y242711D01*
X408273Y242656D01*
X408251Y242623D01*
X408245Y242617D01*
Y242612D01*
X408184Y242512D01*
X408123Y242423D01*
X408068Y242345D01*
X408018Y242284D01*
X407979Y242229D01*
X407945Y242195D01*
X407923Y242167D01*
X407918Y242162D01*
X410920D01*
Y241690D01*
X407063D01*
Y241995D01*
X407157Y242051D01*
X407246Y242112D01*
X407335Y242184D01*
X407413Y242251D01*
X407479Y242317D01*
X407535Y242367D01*
X407551Y242389D01*
X407568Y242406D01*
X407574Y242412D01*
X407579Y242417D01*
X407674Y242534D01*
X407762Y242650D01*
X407840Y242761D01*
X407901Y242872D01*
X407957Y242967D01*
X407979Y243005D01*
X407995Y243039D01*
X408012Y243067D01*
X408018Y243089D01*
X408029Y243100D01*
Y243106D01*
X408484D01*
X408451Y243022D01*
D02*
G37*
G36*
Y240036D02*
X408412Y239953D01*
X408373Y239870D01*
X408334Y239792D01*
X408301Y239725D01*
X408273Y239670D01*
X408251Y239637D01*
X408245Y239631D01*
Y239626D01*
X408184Y239526D01*
X408123Y239437D01*
X408068Y239359D01*
X408018Y239298D01*
X407979Y239243D01*
X407945Y239209D01*
X407923Y239182D01*
X407918Y239176D01*
X410920D01*
Y238704D01*
X407063D01*
Y239009D01*
X407157Y239065D01*
X407246Y239126D01*
X407335Y239198D01*
X407413Y239265D01*
X407479Y239331D01*
X407535Y239381D01*
X407551Y239404D01*
X407568Y239420D01*
X407574Y239426D01*
X407579Y239431D01*
X407674Y239548D01*
X407762Y239664D01*
X407840Y239775D01*
X407901Y239886D01*
X407957Y239981D01*
X407979Y240020D01*
X407995Y240053D01*
X408012Y240081D01*
X408018Y240103D01*
X408029Y240114D01*
Y240120D01*
X408484D01*
X408451Y240036D01*
D02*
G37*
G36*
X468051Y226476D02*
X468229Y226448D01*
X468384Y226415D01*
X468456Y226393D01*
X468523Y226370D01*
X468584Y226348D01*
X468640Y226326D01*
X468684Y226309D01*
X468728Y226293D01*
X468756Y226276D01*
X468778Y226265D01*
X468795Y226259D01*
X468800Y226254D01*
X468950Y226160D01*
X469078Y226048D01*
X469189Y225937D01*
X469283Y225827D01*
X469355Y225727D01*
X469383Y225682D01*
X469405Y225643D01*
X469428Y225616D01*
X469439Y225593D01*
X469444Y225577D01*
X469450Y225571D01*
X469527Y225399D01*
X469583Y225221D01*
X469622Y225044D01*
X469650Y224883D01*
X469661Y224811D01*
X469666Y224739D01*
X469672Y224683D01*
Y224628D01*
X469677Y224589D01*
Y224555D01*
Y224533D01*
Y224528D01*
X469666Y224328D01*
X469644Y224134D01*
X469616Y223962D01*
X469594Y223878D01*
X469578Y223806D01*
X469561Y223740D01*
X469539Y223679D01*
X469522Y223623D01*
X469511Y223579D01*
X469494Y223545D01*
X469489Y223518D01*
X469478Y223501D01*
Y223495D01*
X469394Y223329D01*
X469300Y223179D01*
X469200Y223052D01*
X469150Y223002D01*
X469106Y222952D01*
X469061Y222907D01*
X469017Y222868D01*
X468978Y222835D01*
X468945Y222813D01*
X468923Y222791D01*
X468900Y222774D01*
X468889Y222768D01*
X468884Y222763D01*
X468806Y222718D01*
X468728Y222680D01*
X468562Y222619D01*
X468395Y222574D01*
X468234Y222546D01*
X468157Y222535D01*
X468090Y222524D01*
X468029Y222519D01*
X467979D01*
X467935Y222513D01*
X467874D01*
X467763Y222519D01*
X467657Y222530D01*
X467557Y222541D01*
X467463Y222563D01*
X467374Y222591D01*
X467291Y222619D01*
X467213Y222646D01*
X467141Y222680D01*
X467080Y222707D01*
X467019Y222735D01*
X466974Y222763D01*
X466930Y222791D01*
X466902Y222813D01*
X466875Y222824D01*
X466863Y222835D01*
X466858Y222840D01*
X466780Y222907D01*
X466714Y222974D01*
X466653Y223052D01*
X466592Y223129D01*
X466492Y223285D01*
X466414Y223440D01*
X466381Y223512D01*
X466353Y223579D01*
X466331Y223640D01*
X466314Y223690D01*
X466297Y223734D01*
X466286Y223767D01*
X466281Y223790D01*
Y223795D01*
X466791Y223923D01*
X466814Y223834D01*
X466841Y223751D01*
X466869Y223673D01*
X466897Y223601D01*
X466930Y223534D01*
X466963Y223479D01*
X467002Y223423D01*
X467036Y223373D01*
X467063Y223329D01*
X467097Y223296D01*
X467124Y223262D01*
X467147Y223235D01*
X467169Y223218D01*
X467185Y223201D01*
X467191Y223196D01*
X467197Y223190D01*
X467252Y223146D01*
X467313Y223113D01*
X467435Y223052D01*
X467552Y223007D01*
X467668Y222979D01*
X467768Y222957D01*
X467807Y222952D01*
X467846D01*
X467879Y222946D01*
X467918D01*
X468046Y222952D01*
X468168Y222974D01*
X468279Y223002D01*
X468379Y223035D01*
X468456Y223068D01*
X468490Y223085D01*
X468517Y223096D01*
X468540Y223107D01*
X468556Y223118D01*
X468567Y223124D01*
X468573D01*
X468678Y223201D01*
X468767Y223285D01*
X468845Y223379D01*
X468906Y223468D01*
X468956Y223545D01*
X468989Y223612D01*
X469000Y223640D01*
X469011Y223656D01*
X469017Y223668D01*
Y223673D01*
X469061Y223817D01*
X469095Y223962D01*
X469122Y224106D01*
X469139Y224239D01*
X469145Y224300D01*
X469150Y224356D01*
Y224406D01*
X469156Y224445D01*
Y224478D01*
Y224505D01*
Y224522D01*
Y224528D01*
X469150Y224672D01*
X469139Y224805D01*
X469117Y224927D01*
X469095Y225038D01*
X469078Y225133D01*
X469067Y225171D01*
X469056Y225205D01*
X469050Y225233D01*
X469045Y225249D01*
X469039Y225260D01*
Y225266D01*
X468984Y225394D01*
X468923Y225510D01*
X468856Y225604D01*
X468784Y225688D01*
X468723Y225754D01*
X468673Y225799D01*
X468634Y225827D01*
X468628Y225838D01*
X468623D01*
X468506Y225910D01*
X468379Y225965D01*
X468257Y226004D01*
X468140Y226026D01*
X468035Y226043D01*
X467990Y226048D01*
X467951D01*
X467924Y226054D01*
X467879D01*
X467740Y226048D01*
X467613Y226026D01*
X467507Y225993D01*
X467413Y225960D01*
X467341Y225921D01*
X467285Y225893D01*
X467252Y225871D01*
X467241Y225860D01*
X467152Y225777D01*
X467069Y225682D01*
X467002Y225582D01*
X466947Y225482D01*
X466902Y225394D01*
X466886Y225349D01*
X466875Y225316D01*
X466863Y225288D01*
X466852Y225266D01*
X466847Y225255D01*
Y225249D01*
X466347Y225366D01*
X466381Y225466D01*
X466414Y225554D01*
X466458Y225638D01*
X466497Y225721D01*
X466542Y225793D01*
X466592Y225860D01*
X466636Y225926D01*
X466680Y225982D01*
X466725Y226026D01*
X466764Y226071D01*
X466803Y226110D01*
X466830Y226137D01*
X466858Y226165D01*
X466880Y226182D01*
X466891Y226187D01*
X466897Y226193D01*
X466974Y226243D01*
X467052Y226293D01*
X467130Y226331D01*
X467213Y226365D01*
X467380Y226415D01*
X467529Y226448D01*
X467602Y226465D01*
X467663Y226470D01*
X467724Y226476D01*
X467774Y226481D01*
X467813Y226487D01*
X467868D01*
X468051Y226476D01*
D02*
G37*
G36*
X464688Y226431D02*
X464777Y226426D01*
X464932Y226393D01*
X465004Y226370D01*
X465071Y226348D01*
X465132Y226320D01*
X465187Y226293D01*
X465232Y226265D01*
X465276Y226237D01*
X465315Y226215D01*
X465343Y226193D01*
X465365Y226176D01*
X465382Y226160D01*
X465393Y226154D01*
X465398Y226148D01*
X465448Y226093D01*
X465498Y226037D01*
X465537Y225976D01*
X465570Y225915D01*
X465626Y225799D01*
X465659Y225688D01*
X465681Y225593D01*
X465687Y225549D01*
X465693Y225516D01*
X465698Y225482D01*
Y225460D01*
Y225449D01*
Y225444D01*
X465693Y225344D01*
X465676Y225249D01*
X465654Y225166D01*
X465626Y225094D01*
X465604Y225038D01*
X465582Y224994D01*
X465565Y224972D01*
X465559Y224961D01*
X465498Y224894D01*
X465432Y224833D01*
X465359Y224778D01*
X465287Y224733D01*
X465221Y224700D01*
X465171Y224678D01*
X465149Y224667D01*
X465132Y224661D01*
X465126Y224655D01*
X465121D01*
X465248Y224617D01*
X465354Y224567D01*
X465448Y224505D01*
X465526Y224450D01*
X465587Y224394D01*
X465631Y224350D01*
X465654Y224322D01*
X465665Y224317D01*
Y224311D01*
X465726Y224211D01*
X465776Y224106D01*
X465809Y224006D01*
X465831Y223906D01*
X465842Y223817D01*
X465848Y223779D01*
Y223745D01*
X465853Y223723D01*
Y223701D01*
Y223690D01*
Y223684D01*
X465848Y223595D01*
X465837Y223507D01*
X465820Y223423D01*
X465798Y223340D01*
X465742Y223201D01*
X465715Y223135D01*
X465681Y223079D01*
X465648Y223024D01*
X465620Y222979D01*
X465587Y222940D01*
X465565Y222907D01*
X465543Y222879D01*
X465526Y222863D01*
X465515Y222852D01*
X465509Y222846D01*
X465443Y222785D01*
X465371Y222735D01*
X465293Y222691D01*
X465215Y222652D01*
X465143Y222624D01*
X465065Y222596D01*
X464916Y222557D01*
X464849Y222541D01*
X464788Y222530D01*
X464732Y222524D01*
X464682Y222519D01*
X464643Y222513D01*
X464588D01*
X464483Y222519D01*
X464388Y222530D01*
X464294Y222546D01*
X464205Y222563D01*
X464127Y222591D01*
X464050Y222619D01*
X463977Y222646D01*
X463916Y222680D01*
X463861Y222713D01*
X463811Y222741D01*
X463772Y222768D01*
X463733Y222796D01*
X463706Y222813D01*
X463689Y222829D01*
X463678Y222840D01*
X463672Y222846D01*
X463611Y222913D01*
X463556Y222979D01*
X463511Y223046D01*
X463473Y223118D01*
X463434Y223185D01*
X463406Y223257D01*
X463367Y223384D01*
X463350Y223446D01*
X463339Y223501D01*
X463334Y223551D01*
X463328Y223590D01*
X463323Y223623D01*
Y223651D01*
Y223668D01*
Y223673D01*
X463328Y223801D01*
X463350Y223917D01*
X463384Y224023D01*
X463417Y224112D01*
X463450Y224184D01*
X463484Y224239D01*
X463506Y224272D01*
X463511Y224278D01*
Y224284D01*
X463589Y224372D01*
X463672Y224450D01*
X463761Y224511D01*
X463844Y224567D01*
X463922Y224605D01*
X463989Y224633D01*
X464011Y224644D01*
X464028Y224650D01*
X464039Y224655D01*
X464044D01*
X463944Y224700D01*
X463861Y224750D01*
X463789Y224800D01*
X463728Y224850D01*
X463683Y224894D01*
X463650Y224927D01*
X463628Y224950D01*
X463622Y224961D01*
X463572Y225038D01*
X463539Y225116D01*
X463511Y225194D01*
X463495Y225272D01*
X463484Y225332D01*
X463478Y225382D01*
Y225416D01*
Y225421D01*
Y225427D01*
X463484Y225505D01*
X463489Y225577D01*
X463528Y225715D01*
X463578Y225838D01*
X463633Y225943D01*
X463689Y226026D01*
X463717Y226060D01*
X463739Y226093D01*
X463761Y226115D01*
X463778Y226132D01*
X463783Y226137D01*
X463789Y226143D01*
X463850Y226193D01*
X463911Y226243D01*
X463977Y226282D01*
X464044Y226315D01*
X464177Y226365D01*
X464311Y226398D01*
X464366Y226415D01*
X464422Y226420D01*
X464471Y226426D01*
X464516Y226431D01*
X464549Y226437D01*
X464599D01*
X464688Y226431D01*
D02*
G37*
%LPC*%
G36*
X459616Y249276D02*
X459583D01*
X459466Y249265D01*
X459361Y249237D01*
X459272Y249203D01*
X459194Y249159D01*
X459133Y249115D01*
X459089Y249081D01*
X459061Y249054D01*
X459050Y249043D01*
X458978Y248948D01*
X458922Y248848D01*
X458884Y248743D01*
X458861Y248643D01*
X458845Y248554D01*
X458839Y248515D01*
Y248482D01*
X458834Y248454D01*
Y248432D01*
Y248421D01*
Y248415D01*
X458845Y248266D01*
X458867Y248138D01*
X458900Y248027D01*
X458939Y247933D01*
X458984Y247860D01*
X459017Y247805D01*
X459039Y247772D01*
X459050Y247766D01*
Y247761D01*
X459089Y247716D01*
X459133Y247683D01*
X459222Y247622D01*
X459311Y247583D01*
X459389Y247550D01*
X459461Y247533D01*
X459516Y247527D01*
X459539Y247522D01*
X459566D01*
X459644Y247527D01*
X459716Y247538D01*
X459783Y247561D01*
X459838Y247583D01*
X459888Y247600D01*
X459927Y247622D01*
X459949Y247633D01*
X459960Y247639D01*
X460027Y247688D01*
X460082Y247738D01*
X460132Y247799D01*
X460171Y247849D01*
X460205Y247899D01*
X460227Y247938D01*
X460243Y247966D01*
X460249Y247977D01*
X460282Y248060D01*
X460304Y248144D01*
X460327Y248221D01*
X460338Y248293D01*
X460343Y248354D01*
X460349Y248404D01*
Y248432D01*
Y248443D01*
X460338Y248576D01*
X460316Y248693D01*
X460277Y248798D01*
X460238Y248882D01*
X460199Y248954D01*
X460160Y249004D01*
X460138Y249031D01*
X460127Y249043D01*
X460038Y249120D01*
X459949Y249176D01*
X459855Y249220D01*
X459772Y249248D01*
X459694Y249265D01*
X459638Y249270D01*
X459616Y249276D01*
D02*
G37*
G36*
X342200Y236073D02*
X342112D01*
X342056Y236062D01*
X341956Y236035D01*
X341867Y235996D01*
X341790Y235957D01*
X341729Y235912D01*
X341684Y235874D01*
X341657Y235846D01*
X341646Y235840D01*
Y235835D01*
X341573Y235740D01*
X341518Y235635D01*
X341479Y235524D01*
X341457Y235419D01*
X341440Y235330D01*
X341435Y235291D01*
Y235252D01*
X341429Y235224D01*
Y235202D01*
Y235191D01*
Y235185D01*
X341440Y235041D01*
X341462Y234913D01*
X341496Y234808D01*
X341534Y234719D01*
X341579Y234647D01*
X341612Y234597D01*
X341634Y234564D01*
X341646Y234553D01*
X341729Y234475D01*
X341818Y234419D01*
X341906Y234381D01*
X341995Y234353D01*
X342067Y234336D01*
X342128Y234331D01*
X342151Y234325D01*
X342184D01*
X342300Y234336D01*
X342406Y234359D01*
X342500Y234397D01*
X342583Y234442D01*
X342645Y234481D01*
X342694Y234519D01*
X342722Y234542D01*
X342733Y234553D01*
X342806Y234642D01*
X342861Y234741D01*
X342894Y234841D01*
X342922Y234936D01*
X342939Y235019D01*
X342944Y235052D01*
Y235086D01*
X342950Y235113D01*
Y235130D01*
Y235141D01*
Y235147D01*
X342939Y235291D01*
X342916Y235424D01*
X342878Y235541D01*
X342833Y235635D01*
X342794Y235713D01*
X342756Y235768D01*
X342744Y235785D01*
X342733Y235802D01*
X342722Y235807D01*
Y235813D01*
X342678Y235857D01*
X342633Y235901D01*
X342539Y235962D01*
X342445Y236012D01*
X342356Y236040D01*
X342284Y236062D01*
X342223Y236068D01*
X342200Y236073D01*
D02*
G37*
G36*
X349582Y236018D02*
X348372D01*
X348222Y236012D01*
X348095Y235990D01*
X347984Y235962D01*
X347900Y235929D01*
X347828Y235896D01*
X347784Y235868D01*
X347756Y235846D01*
X347745Y235840D01*
X347678Y235768D01*
X347628Y235696D01*
X347595Y235618D01*
X347567Y235552D01*
X347556Y235485D01*
X347551Y235435D01*
X347545Y235402D01*
Y235396D01*
Y235391D01*
X347551Y235324D01*
X347562Y235258D01*
X347579Y235202D01*
X347595Y235152D01*
X347617Y235108D01*
X347634Y235074D01*
X347645Y235052D01*
X347651Y235047D01*
X347690Y234991D01*
X347739Y234941D01*
X347789Y234902D01*
X347839Y234869D01*
X347884Y234847D01*
X347917Y234830D01*
X347939Y234819D01*
X347950Y234814D01*
X348028Y234791D01*
X348117Y234775D01*
X348206Y234764D01*
X348294Y234758D01*
X348372Y234752D01*
X348439Y234747D01*
X349582D01*
Y236018D01*
D02*
G37*
G36*
Y246018D02*
X348372D01*
X348222Y246012D01*
X348095Y245990D01*
X347984Y245962D01*
X347900Y245929D01*
X347828Y245896D01*
X347784Y245868D01*
X347756Y245846D01*
X347745Y245840D01*
X347678Y245768D01*
X347628Y245696D01*
X347595Y245618D01*
X347567Y245552D01*
X347556Y245485D01*
X347551Y245435D01*
X347545Y245402D01*
Y245396D01*
Y245391D01*
X347551Y245324D01*
X347562Y245258D01*
X347579Y245202D01*
X347595Y245152D01*
X347617Y245108D01*
X347634Y245074D01*
X347645Y245052D01*
X347651Y245047D01*
X347690Y244991D01*
X347739Y244941D01*
X347789Y244902D01*
X347839Y244869D01*
X347884Y244847D01*
X347917Y244830D01*
X347939Y244819D01*
X347950Y244814D01*
X348028Y244791D01*
X348117Y244775D01*
X348206Y244764D01*
X348294Y244758D01*
X348372Y244753D01*
X348439Y244747D01*
X349582D01*
Y246018D01*
D02*
G37*
G36*
X342217Y246073D02*
X342173D01*
X342078Y246068D01*
X341990Y246046D01*
X341917Y246018D01*
X341851Y245985D01*
X341801Y245951D01*
X341762Y245924D01*
X341734Y245901D01*
X341729Y245896D01*
X341668Y245824D01*
X341623Y245752D01*
X341590Y245679D01*
X341568Y245613D01*
X341557Y245552D01*
X341546Y245502D01*
Y245468D01*
Y245463D01*
Y245457D01*
X341551Y245369D01*
X341573Y245285D01*
X341601Y245213D01*
X341634Y245152D01*
X341668Y245102D01*
X341695Y245069D01*
X341718Y245041D01*
X341723Y245036D01*
X341790Y244980D01*
X341867Y244936D01*
X341940Y244908D01*
X342012Y244886D01*
X342078Y244875D01*
X342128Y244869D01*
X342162Y244864D01*
X342173D01*
X342273Y244869D01*
X342361Y244891D01*
X342439Y244919D01*
X342506Y244952D01*
X342556Y244980D01*
X342595Y245008D01*
X342622Y245030D01*
X342628Y245036D01*
X342683Y245102D01*
X342728Y245180D01*
X342756Y245252D01*
X342778Y245324D01*
X342789Y245385D01*
X342794Y245435D01*
X342800Y245468D01*
Y245474D01*
Y245480D01*
X342794Y245568D01*
X342772Y245646D01*
X342744Y245718D01*
X342711Y245779D01*
X342683Y245829D01*
X342656Y245868D01*
X342633Y245890D01*
X342628Y245896D01*
X342556Y245957D01*
X342484Y246001D01*
X342406Y246029D01*
X342334Y246051D01*
X342267Y246062D01*
X342217Y246073D01*
D02*
G37*
G36*
X342223Y244481D02*
X342189D01*
X342067Y244469D01*
X341956Y244447D01*
X341856Y244408D01*
X341773Y244370D01*
X341707Y244325D01*
X341657Y244286D01*
X341629Y244264D01*
X341618Y244253D01*
X341540Y244164D01*
X341485Y244070D01*
X341446Y243975D01*
X341418Y243892D01*
X341401Y243809D01*
X341396Y243748D01*
X341390Y243726D01*
Y243709D01*
Y243698D01*
Y243692D01*
X341401Y243576D01*
X341424Y243465D01*
X341462Y243371D01*
X341501Y243293D01*
X341540Y243232D01*
X341579Y243182D01*
X341601Y243154D01*
X341612Y243143D01*
X341701Y243071D01*
X341790Y243015D01*
X341884Y242982D01*
X341973Y242954D01*
X342051Y242938D01*
X342117Y242932D01*
X342140Y242927D01*
X342173D01*
X342250Y242932D01*
X342328Y242943D01*
X342400Y242960D01*
X342461Y242976D01*
X342511Y242993D01*
X342550Y243010D01*
X342572Y243021D01*
X342583Y243026D01*
X342650Y243071D01*
X342706Y243115D01*
X342756Y243165D01*
X342794Y243215D01*
X342828Y243254D01*
X342850Y243287D01*
X342861Y243315D01*
X342866Y243321D01*
X342894Y243393D01*
X342916Y243459D01*
X342933Y243526D01*
X342944Y243587D01*
X342950Y243637D01*
X342955Y243676D01*
Y243698D01*
Y243709D01*
X342944Y243826D01*
X342922Y243931D01*
X342889Y244025D01*
X342844Y244109D01*
X342806Y244170D01*
X342772Y244220D01*
X342750Y244248D01*
X342739Y244259D01*
X342656Y244331D01*
X342561Y244386D01*
X342473Y244425D01*
X342384Y244453D01*
X342306Y244469D01*
X342245Y244475D01*
X342223Y244481D01*
D02*
G37*
G36*
X392131Y255048D02*
X392098D01*
X392037Y255043D01*
X391976Y255037D01*
X391920Y255021D01*
X391870Y254998D01*
X391776Y254948D01*
X391693Y254893D01*
X391632Y254832D01*
X391582Y254782D01*
X391565Y254760D01*
X391554Y254743D01*
X391543Y254738D01*
Y254732D01*
X391504Y254665D01*
X391471Y254588D01*
X391437Y254499D01*
X391415Y254405D01*
X391393Y254305D01*
X391376Y254199D01*
X391349Y253988D01*
X391337Y253883D01*
X391332Y253789D01*
X391326Y253700D01*
Y253628D01*
X391321Y253561D01*
Y253511D01*
Y253483D01*
Y253478D01*
Y253472D01*
Y253300D01*
X391332Y253145D01*
X391343Y253006D01*
X391354Y252873D01*
X391371Y252762D01*
X391393Y252656D01*
X391415Y252568D01*
X391432Y252484D01*
X391454Y252418D01*
X391476Y252362D01*
X391493Y252312D01*
X391515Y252274D01*
X391526Y252246D01*
X391537Y252229D01*
X391548Y252218D01*
Y252212D01*
X391593Y252157D01*
X391637Y252113D01*
X391682Y252068D01*
X391726Y252035D01*
X391820Y251979D01*
X391904Y251940D01*
X391981Y251918D01*
X392037Y251907D01*
X392059Y251902D01*
X392092D01*
X392153Y251907D01*
X392209Y251913D01*
X392314Y251952D01*
X392409Y252002D01*
X392492Y252057D01*
X392553Y252113D01*
X392603Y252162D01*
X392631Y252201D01*
X392642Y252207D01*
Y252212D01*
X392681Y252279D01*
X392714Y252357D01*
X392747Y252446D01*
X392769Y252540D01*
X392792Y252640D01*
X392808Y252745D01*
X392836Y252962D01*
X392847Y253062D01*
X392853Y253156D01*
X392858Y253245D01*
Y253317D01*
X392864Y253383D01*
Y253433D01*
Y253461D01*
Y253472D01*
X392858Y253644D01*
X392853Y253800D01*
X392842Y253944D01*
X392825Y254077D01*
X392808Y254194D01*
X392786Y254299D01*
X392764Y254394D01*
X392742Y254477D01*
X392720Y254549D01*
X392703Y254610D01*
X392681Y254660D01*
X392664Y254704D01*
X392647Y254732D01*
X392636Y254754D01*
X392625Y254765D01*
Y254771D01*
X392586Y254821D01*
X392547Y254865D01*
X392503Y254899D01*
X392459Y254932D01*
X392370Y254982D01*
X392286Y255015D01*
X392214Y255032D01*
X392153Y255043D01*
X392131Y255048D01*
D02*
G37*
G36*
X464632Y226048D02*
X464588D01*
X464494Y226043D01*
X464405Y226021D01*
X464333Y225993D01*
X464266Y225960D01*
X464216Y225926D01*
X464177Y225899D01*
X464150Y225876D01*
X464144Y225871D01*
X464083Y225799D01*
X464039Y225727D01*
X464005Y225654D01*
X463983Y225588D01*
X463972Y225527D01*
X463961Y225477D01*
Y225444D01*
Y225438D01*
Y225432D01*
X463966Y225344D01*
X463989Y225260D01*
X464016Y225188D01*
X464050Y225127D01*
X464083Y225077D01*
X464111Y225044D01*
X464133Y225016D01*
X464139Y225011D01*
X464205Y224955D01*
X464283Y224911D01*
X464355Y224883D01*
X464427Y224861D01*
X464494Y224850D01*
X464544Y224844D01*
X464577Y224838D01*
X464588D01*
X464688Y224844D01*
X464777Y224866D01*
X464854Y224894D01*
X464921Y224927D01*
X464971Y224955D01*
X465010Y224983D01*
X465038Y225005D01*
X465043Y225011D01*
X465099Y225077D01*
X465143Y225155D01*
X465171Y225227D01*
X465193Y225299D01*
X465204Y225360D01*
X465210Y225410D01*
X465215Y225444D01*
Y225449D01*
Y225455D01*
X465210Y225543D01*
X465187Y225621D01*
X465160Y225693D01*
X465126Y225754D01*
X465099Y225804D01*
X465071Y225843D01*
X465049Y225865D01*
X465043Y225871D01*
X464971Y225932D01*
X464899Y225976D01*
X464821Y226004D01*
X464749Y226026D01*
X464682Y226037D01*
X464632Y226048D01*
D02*
G37*
G36*
X464638Y224456D02*
X464605D01*
X464483Y224445D01*
X464372Y224422D01*
X464272Y224383D01*
X464188Y224345D01*
X464122Y224300D01*
X464072Y224261D01*
X464044Y224239D01*
X464033Y224228D01*
X463955Y224139D01*
X463900Y224045D01*
X463861Y223951D01*
X463833Y223867D01*
X463817Y223784D01*
X463811Y223723D01*
X463805Y223701D01*
Y223684D01*
Y223673D01*
Y223668D01*
X463817Y223551D01*
X463839Y223440D01*
X463878Y223346D01*
X463916Y223268D01*
X463955Y223207D01*
X463994Y223157D01*
X464016Y223129D01*
X464028Y223118D01*
X464116Y223046D01*
X464205Y222990D01*
X464299Y222957D01*
X464388Y222929D01*
X464466Y222913D01*
X464533Y222907D01*
X464555Y222902D01*
X464588D01*
X464666Y222907D01*
X464743Y222918D01*
X464816Y222935D01*
X464877Y222952D01*
X464927Y222968D01*
X464965Y222985D01*
X464988Y222996D01*
X464999Y223002D01*
X465065Y223046D01*
X465121Y223090D01*
X465171Y223140D01*
X465210Y223190D01*
X465243Y223229D01*
X465265Y223262D01*
X465276Y223290D01*
X465282Y223296D01*
X465309Y223368D01*
X465332Y223434D01*
X465348Y223501D01*
X465359Y223562D01*
X465365Y223612D01*
X465371Y223651D01*
Y223673D01*
Y223684D01*
X465359Y223801D01*
X465337Y223906D01*
X465304Y224001D01*
X465260Y224084D01*
X465221Y224145D01*
X465187Y224195D01*
X465165Y224222D01*
X465154Y224234D01*
X465071Y224306D01*
X464977Y224361D01*
X464888Y224400D01*
X464799Y224428D01*
X464721Y224445D01*
X464660Y224450D01*
X464638Y224456D01*
D02*
G37*
%LPD*%
D11*
X441500Y294000D02*
X475500D01*
Y289728D02*
Y294000D01*
Y271500D02*
Y281000D01*
X441500Y271500D02*
Y280661D01*
Y289728D02*
Y294000D01*
X465500Y271500D02*
X475500D01*
X441500D02*
X451500D01*
D12*
X453492Y270008D02*
G03*
X453492Y270008I-492J0D01*
G01*
D13*
X365890Y240858D02*
Y248142D01*
X352110Y240858D02*
Y248142D01*
X365890D01*
X352110Y240858D02*
X365890D01*
Y230858D02*
Y238142D01*
X352110Y230858D02*
Y238142D01*
X365890D01*
X352110Y230858D02*
X365890D01*
D14*
X457500Y238500D02*
Y243500D01*
X450512Y237063D02*
X464488D01*
Y244937D01*
X450512D02*
X464488D01*
X450512Y237063D02*
Y244937D01*
X472000Y238500D02*
Y243500D01*
X465012Y244937D02*
X478988D01*
X465012Y237063D02*
Y244937D01*
Y237063D02*
X478988D01*
Y244937D01*
X403992Y225110D02*
Y232984D01*
X390016Y225110D02*
X403992D01*
X390016D02*
Y232984D01*
X403992D01*
X397004Y226547D02*
Y231547D01*
X384457Y255000D02*
Y260000D01*
X377468Y261437D02*
X391445D01*
X377468Y253563D02*
Y261437D01*
Y253563D02*
X391445D01*
Y261437D01*
X399000Y243000D02*
X404000D01*
X397563Y236012D02*
Y249988D01*
Y236012D02*
X405437D01*
Y249988D01*
X397563D02*
X405437D01*
X390500Y243000D02*
X395500D01*
X389063Y236012D02*
Y249988D01*
Y236012D02*
X396937D01*
Y249988D01*
X389063D02*
X396937D01*
X471063Y222512D02*
X478937D01*
X471063D02*
Y236488D01*
X478937D01*
Y222512D02*
Y236488D01*
X472500Y229500D02*
X477500D01*
D75*
X372449Y251764D02*
G03*
X373630Y252945I0J1181D01*
G01*
X353551Y272236D02*
G03*
X352370Y271055I0J-1181D01*
G01*
Y252945D02*
G03*
X353551Y251764I1181J0D01*
G01*
X373630Y271055D02*
G03*
X372449Y272236I-1181J0D01*
G01*
D76*
X382248Y237173D02*
G03*
X382248Y237173I-295J0D01*
G01*
D77*
X373630Y252945D02*
Y255307D01*
X352370Y268693D02*
Y271055D01*
Y252945D02*
Y255307D01*
X353551Y251764D02*
X372449D01*
X373630Y268693D02*
Y271055D01*
X353551Y272236D02*
X372449D01*
X383237Y238763D02*
Y247237D01*
X374763Y238763D02*
Y247237D01*
M02*
