G04*
G04 #@! TF.GenerationSoftware,Altium Limited,Altium Designer,23.0.1 (38)*
G04*
G04 Layer_Color=128*
%FSLAX25Y25*%
%MOIN*%
G70*
G04*
G04 #@! TF.SameCoordinates,7EA281D9-4360-43E8-82A8-E858FA6B50C7*
G04*
G04*
G04 #@! TF.FilePolarity,Positive*
G04*
G01*
G75*
%ADD13C,0.00500*%
D13*
X320425Y238000D02*
X323575D01*
X322000Y236425D02*
Y239575D01*
X320425Y245874D02*
X323575D01*
X322000Y244299D02*
Y247449D01*
X320425Y253748D02*
X323575D01*
X322000Y252173D02*
Y255323D01*
X320425Y261622D02*
X323575D01*
X322000Y260047D02*
Y263197D01*
X480000Y248000D02*
X481000D01*
X480500Y247500D02*
Y248500D01*
X419500Y205000D02*
X420500D01*
X420000Y204500D02*
Y205500D01*
X382000Y291000D02*
X383000D01*
X382500Y290500D02*
Y291500D01*
X311500Y259000D02*
X312500D01*
X312000Y258500D02*
Y259500D01*
X317500Y273500D02*
X318500D01*
X318000Y273000D02*
Y274000D01*
X389272Y204768D02*
X390272D01*
X389772Y204269D02*
Y205269D01*
X396500Y207550D02*
X397500D01*
X397000Y207050D02*
Y208050D01*
X393000Y205000D02*
X394000D01*
X393500Y204500D02*
Y205500D01*
X444547Y243547D02*
X445547D01*
X445047Y243047D02*
Y244047D01*
X461804Y218133D02*
X462805D01*
X462304Y217633D02*
Y218633D01*
X454000Y218200D02*
X455000D01*
X454500Y217700D02*
Y218700D01*
X323000Y283500D02*
X324000D01*
X323500Y283000D02*
Y284000D01*
X313500Y283500D02*
X314500D01*
X314000Y283000D02*
Y284000D01*
X396318Y278726D02*
X397318D01*
X396818Y278226D02*
Y279226D01*
X428500Y242900D02*
X429500D01*
X429000Y242400D02*
Y243400D01*
X438500Y241000D02*
X439500D01*
X439000Y240500D02*
Y241500D01*
X352335Y217835D02*
X353335D01*
X352835Y217335D02*
Y218335D01*
X391000Y290900D02*
X392000D01*
X391500Y290400D02*
Y291400D01*
X367000Y207000D02*
X368000D01*
X367500Y206500D02*
Y207500D01*
X435500Y215000D02*
X436500D01*
X436000Y214500D02*
Y215500D01*
X414126Y218374D02*
X415126D01*
X414626Y217874D02*
Y218874D01*
X407500Y215000D02*
X408500D01*
X408000Y214500D02*
Y215500D01*
X405000Y218500D02*
X406000D01*
X405500Y218000D02*
Y219000D01*
X419000Y224500D02*
X420000D01*
X419500Y224000D02*
Y225000D01*
X408420Y228969D02*
X409420D01*
X408920Y228469D02*
Y229469D01*
X360023Y223129D02*
X361023D01*
X360523Y222629D02*
Y223629D01*
X355500Y214785D02*
X356500D01*
X356000Y214285D02*
Y215285D01*
X442000Y238500D02*
X443000D01*
X442500Y238000D02*
Y239000D01*
X324500Y217000D02*
X325500D01*
X325000Y216500D02*
Y217500D01*
X347000Y288000D02*
X348000D01*
X347500Y287500D02*
Y288500D01*
X355500Y285950D02*
X356500D01*
X356000Y285450D02*
Y286450D01*
X386500Y290750D02*
X387500D01*
X387000Y290250D02*
Y291250D01*
X472000Y266500D02*
X473000D01*
X472500Y266000D02*
Y267000D01*
X425000Y253500D02*
X426000D01*
X425500Y253000D02*
Y254000D01*
X434500Y269500D02*
X435500D01*
X435000Y269000D02*
Y270000D01*
X430593Y250448D02*
X431593D01*
X431093Y249948D02*
Y250948D01*
X370849Y279207D02*
X371849D01*
X371349Y278707D02*
Y279707D01*
X345000Y265000D02*
X346000D01*
X345500Y264500D02*
Y265500D01*
X311500Y215500D02*
X312500D01*
X312000Y215000D02*
Y216000D01*
X439200Y269409D02*
X440200D01*
X439700Y268909D02*
Y269909D01*
X476500Y255000D02*
X477500D01*
X477000Y254500D02*
Y255500D01*
X344853Y278146D02*
X345853D01*
X345354Y277646D02*
Y278646D01*
M02*
