G04*
G04 #@! TF.GenerationSoftware,Altium Limited,Altium Designer,23.0.1 (38)*
G04*
G04 Layer_Color=16711935*
%FSLAX25Y25*%
%MOIN*%
G70*
G04*
G04 #@! TF.SameCoordinates,4768A386-72EE-4230-A5FA-DA0B4273AB17*
G04*
G04*
G04 #@! TF.FilePolarity,Positive*
G04*
G01*
G75*
%ADD14C,0.00394*%
%ADD71C,0.00118*%
D14*
X442949Y291024D02*
X474051D01*
D71*
X443000Y292500D02*
Y291516D01*
X443492D01*
X443656Y291680D01*
Y292008D01*
X443492Y292172D01*
X443000D01*
X444640Y291680D02*
X444476Y291516D01*
X444148D01*
X443984Y291680D01*
Y292336D01*
X444148Y292500D01*
X444476D01*
X444640Y292336D01*
X444968Y291516D02*
Y292500D01*
X445460D01*
X445624Y292336D01*
Y292172D01*
X445460Y292008D01*
X444968D01*
X445460D01*
X445624Y291844D01*
Y291680D01*
X445460Y291516D01*
X444968D01*
X447592D02*
X446936D01*
Y292500D01*
X447592D01*
X446936Y292008D02*
X447264D01*
X448576Y291516D02*
Y292500D01*
X448084D01*
X447920Y292336D01*
Y292008D01*
X448084Y291844D01*
X448576D01*
X449232Y292828D02*
X449396D01*
X449559Y292664D01*
Y291844D01*
X449068D01*
X448904Y292008D01*
Y292336D01*
X449068Y292500D01*
X449559D01*
X450380D02*
X450051D01*
X449888Y292336D01*
Y292008D01*
X450051Y291844D01*
X450380D01*
X450543Y292008D01*
Y292172D01*
X449888D01*
M02*
