G04*
G04 #@! TF.GenerationSoftware,Altium Limited,Altium Designer,23.0.1 (38)*
G04*
G04 Layer_Color=16711935*
%FSLAX25Y25*%
%MOIN*%
G70*
G04*
G04 #@! TF.SameCoordinates,7EA281D9-4360-43E8-82A8-E858FA6B50C7*
G04*
G04*
G04 #@! TF.FilePolarity,Negative*
G04*
G01*
G75*
%ADD35R,0.04934X0.06115*%
%ADD36R,0.06706X0.05524*%
G04:AMPARAMS|DCode=41|XSize=63.12mil|YSize=63.12mil|CornerRadius=17.78mil|HoleSize=0mil|Usage=FLASHONLY|Rotation=90.000|XOffset=0mil|YOffset=0mil|HoleType=Round|Shape=RoundedRectangle|*
%AMROUNDEDRECTD41*
21,1,0.06312,0.02756,0,0,90.0*
21,1,0.02756,0.06312,0,0,90.0*
1,1,0.03556,0.01378,0.01378*
1,1,0.03556,0.01378,-0.01378*
1,1,0.03556,-0.01378,-0.01378*
1,1,0.03556,-0.01378,0.01378*
%
%ADD41ROUNDEDRECTD41*%
%ADD42C,0.06312*%
%ADD43C,0.02800*%
%ADD44C,0.03800*%
%ADD45C,0.03300*%
%ADD65R,0.07480X0.09843*%
%ADD69R,0.09068X0.07099*%
%ADD70R,0.02375X0.06115*%
%ADD71R,0.07887X0.08280*%
%ADD72R,0.05524X0.06706*%
%ADD73R,0.01502X0.02388*%
%ADD74R,0.05124X0.03550*%
D35*
X355161Y244500D02*
D03*
X362839D02*
D03*
X355161Y234500D02*
D03*
X362839D02*
D03*
D36*
X475000Y225957D02*
D03*
X401500Y239457D02*
D03*
Y246543D02*
D03*
X393000Y239457D02*
D03*
Y246543D02*
D03*
X475000Y233043D02*
D03*
D41*
X322000Y238000D02*
D03*
D42*
Y245874D02*
D03*
Y253748D02*
D03*
Y261622D02*
D03*
D43*
X480500Y248000D02*
D03*
X420000Y205000D02*
D03*
X382500Y291000D02*
D03*
X389772Y204768D02*
D03*
X397000Y207550D02*
D03*
X393500Y205000D02*
D03*
X445047Y243547D02*
D03*
X462304Y218133D02*
D03*
X454500Y218200D02*
D03*
X323500Y283500D02*
D03*
X314000D02*
D03*
X429000Y242900D02*
D03*
X439000Y241000D02*
D03*
X391500Y290900D02*
D03*
X367500Y207000D02*
D03*
X436000Y215000D02*
D03*
X414626Y218374D02*
D03*
X408000Y215000D02*
D03*
X405500Y218500D02*
D03*
X419500Y224500D02*
D03*
X356000Y214785D02*
D03*
X442500Y238500D02*
D03*
X347500Y288000D02*
D03*
X356000Y285950D02*
D03*
X387000Y290750D02*
D03*
X425500Y253500D02*
D03*
X435000Y269500D02*
D03*
X431093Y250448D02*
D03*
X371349Y279207D02*
D03*
X345500Y265000D02*
D03*
X439700Y269409D02*
D03*
X477000Y255000D02*
D03*
X345354Y278146D02*
D03*
D44*
X312000Y259000D02*
D03*
X318000Y273500D02*
D03*
X396818Y278726D02*
D03*
X325000Y217000D02*
D03*
X312000Y215500D02*
D03*
D45*
X352835Y217835D02*
D03*
X408920Y228969D02*
D03*
X360523Y223129D02*
D03*
X472500Y266500D02*
D03*
D65*
X371071Y262000D02*
D03*
X354929D02*
D03*
D69*
X470705Y275291D02*
D03*
X446295Y275276D02*
D03*
D70*
X463618Y274685D02*
D03*
X461059D02*
D03*
X458500D02*
D03*
X455941D02*
D03*
X453382D02*
D03*
D71*
X442752Y285315D02*
D03*
X474248D02*
D03*
D72*
X461043Y241000D02*
D03*
X453957D02*
D03*
X468457D02*
D03*
X475543D02*
D03*
X400547Y229047D02*
D03*
X393461D02*
D03*
X380913Y257500D02*
D03*
X388000D02*
D03*
D73*
X381953Y239348D02*
D03*
X379984D02*
D03*
X378016D02*
D03*
X376047D02*
D03*
Y246652D02*
D03*
X378016D02*
D03*
X379984D02*
D03*
X381953D02*
D03*
D74*
X379000Y243000D02*
D03*
M02*
