G04*
G04 #@! TF.GenerationSoftware,Altium Limited,Altium Designer,23.0.1 (38)*
G04*
G04 Layer_Color=32896*
%FSLAX25Y25*%
%MOIN*%
G70*
G04*
G04 #@! TF.SameCoordinates,4768A386-72EE-4230-A5FA-DA0B4273AB17*
G04*
G04*
G04 #@! TF.FilePolarity,Positive*
G04*
G01*
G75*
%ADD10C,0.00787*%
%ADD12C,0.00984*%
%ADD14C,0.00394*%
%ADD15C,0.01000*%
G36*
X332324Y285649D02*
X333378D01*
Y285205D01*
X332324D01*
Y284161D01*
X331885D01*
Y285205D01*
X330842D01*
Y285649D01*
X331885D01*
Y286692D01*
X332324D01*
Y285649D01*
D02*
G37*
G36*
X334000Y282902D02*
X330986Y280892D01*
X334000D01*
Y280404D01*
X330159D01*
Y280926D01*
X333179Y282941D01*
X330159D01*
Y283429D01*
X334000D01*
Y282902D01*
D02*
G37*
G36*
Y279000D02*
X330159D01*
Y279511D01*
X334000D01*
Y279000D01*
D02*
G37*
G36*
X425526Y290494D02*
X425592D01*
X425670Y290483D01*
X425764Y290472D01*
X425870Y290456D01*
X425981Y290433D01*
X426097Y290411D01*
X426220Y290378D01*
X426342Y290334D01*
X426469Y290283D01*
X426591Y290228D01*
X426714Y290156D01*
X426825Y290078D01*
X426930Y289989D01*
X426935Y289984D01*
X426952Y289967D01*
X426980Y289934D01*
X427013Y289895D01*
X427058Y289845D01*
X427102Y289784D01*
X427152Y289712D01*
X427202Y289629D01*
X427252Y289540D01*
X427302Y289440D01*
X427346Y289329D01*
X427391Y289212D01*
X427424Y289085D01*
X427452Y288951D01*
X427468Y288813D01*
X427474Y288663D01*
Y288613D01*
X427468Y288574D01*
Y288524D01*
X427463Y288474D01*
X427452Y288408D01*
X427441Y288341D01*
X427413Y288197D01*
X427368Y288030D01*
X427302Y287869D01*
X427263Y287786D01*
X427218Y287703D01*
X427213Y287697D01*
X427207Y287686D01*
X427191Y287664D01*
X427174Y287631D01*
X427146Y287597D01*
X427113Y287553D01*
X427035Y287459D01*
X426935Y287359D01*
X426813Y287248D01*
X426669Y287142D01*
X426508Y287053D01*
X426503D01*
X426486Y287042D01*
X426464Y287031D01*
X426430Y287020D01*
X426386Y286998D01*
X426336Y286981D01*
X426275Y286959D01*
X426208Y286937D01*
X426136Y286920D01*
X426059Y286898D01*
X425970Y286876D01*
X425881Y286859D01*
X425687Y286837D01*
X425476Y286826D01*
X425470D01*
X425448D01*
X425420D01*
X425376Y286831D01*
X425326D01*
X425265Y286837D01*
X425198Y286848D01*
X425126Y286854D01*
X424965Y286881D01*
X424788Y286926D01*
X424610Y286987D01*
X424521Y287020D01*
X424432Y287065D01*
X424427D01*
X424410Y287076D01*
X424388Y287087D01*
X424355Y287109D01*
X424316Y287131D01*
X424277Y287159D01*
X424172Y287237D01*
X424061Y287331D01*
X423944Y287442D01*
X423833Y287575D01*
X423733Y287731D01*
Y287736D01*
X423722Y287747D01*
X423711Y287775D01*
X423694Y287808D01*
X423678Y287847D01*
X423661Y287892D01*
X423639Y287947D01*
X423617Y288008D01*
X423594Y288075D01*
X423572Y288147D01*
X423539Y288308D01*
X423511Y288480D01*
X423500Y288663D01*
Y288718D01*
X423506Y288752D01*
Y288802D01*
X423517Y288857D01*
X423522Y288918D01*
X423533Y288990D01*
X423567Y289140D01*
X423611Y289301D01*
X423678Y289468D01*
X423716Y289551D01*
X423761Y289634D01*
X423766Y289640D01*
X423772Y289651D01*
X423789Y289673D01*
X423811Y289706D01*
X423833Y289740D01*
X423866Y289778D01*
X423950Y289873D01*
X424050Y289978D01*
X424172Y290089D01*
X424310Y290189D01*
X424471Y290283D01*
X424477D01*
X424494Y290295D01*
X424516Y290306D01*
X424549Y290317D01*
X424593Y290334D01*
X424643Y290350D01*
X424699Y290372D01*
X424760Y290389D01*
X424832Y290411D01*
X424904Y290433D01*
X425071Y290467D01*
X425243Y290489D01*
X425431Y290500D01*
X425437D01*
X425443D01*
X425476D01*
X425526Y290494D01*
D02*
G37*
G36*
X427407Y285655D02*
X425187D01*
X425182D01*
X425165D01*
X425137D01*
X425104D01*
X425065Y285649D01*
X425015D01*
X424910Y285644D01*
X424788Y285633D01*
X424665Y285616D01*
X424549Y285594D01*
X424499Y285583D01*
X424449Y285566D01*
X424438Y285560D01*
X424410Y285549D01*
X424371Y285522D01*
X424316Y285488D01*
X424260Y285450D01*
X424199Y285394D01*
X424138Y285327D01*
X424088Y285250D01*
X424083Y285239D01*
X424066Y285211D01*
X424050Y285161D01*
X424027Y285094D01*
X424000Y285017D01*
X423983Y284917D01*
X423966Y284811D01*
X423961Y284695D01*
Y284639D01*
X423966Y284606D01*
Y284556D01*
X423972Y284506D01*
X423994Y284384D01*
X424022Y284251D01*
X424066Y284123D01*
X424127Y284001D01*
X424166Y283945D01*
X424210Y283895D01*
X424216Y283890D01*
X424222Y283884D01*
X424238Y283873D01*
X424260Y283857D01*
X424294Y283840D01*
X424327Y283818D01*
X424377Y283796D01*
X424427Y283773D01*
X424488Y283751D01*
X424560Y283734D01*
X424643Y283712D01*
X424732Y283696D01*
X424832Y283679D01*
X424937Y283668D01*
X425060Y283657D01*
X425187D01*
X427407D01*
Y283146D01*
X425187D01*
X425182D01*
X425160D01*
X425132D01*
X425093D01*
X425043Y283152D01*
X424987D01*
X424921Y283157D01*
X424854Y283163D01*
X424704Y283179D01*
X424549Y283202D01*
X424399Y283235D01*
X424327Y283257D01*
X424260Y283279D01*
X424255D01*
X424244Y283285D01*
X424227Y283296D01*
X424205Y283307D01*
X424144Y283341D01*
X424066Y283390D01*
X423977Y283457D01*
X423888Y283535D01*
X423794Y283635D01*
X423711Y283757D01*
Y283762D01*
X423700Y283773D01*
X423694Y283790D01*
X423678Y283818D01*
X423661Y283851D01*
X423644Y283895D01*
X423628Y283940D01*
X423605Y283995D01*
X423583Y284056D01*
X423567Y284123D01*
X423550Y284195D01*
X423533Y284278D01*
X423522Y284362D01*
X423511Y284451D01*
X423500Y284650D01*
Y284700D01*
X423506Y284739D01*
Y284784D01*
X423511Y284839D01*
X423517Y284900D01*
X423522Y284961D01*
X423544Y285100D01*
X423578Y285250D01*
X423622Y285394D01*
X423683Y285533D01*
Y285538D01*
X423694Y285549D01*
X423705Y285566D01*
X423716Y285588D01*
X423761Y285649D01*
X423822Y285721D01*
X423900Y285805D01*
X423988Y285882D01*
X424099Y285960D01*
X424222Y286021D01*
X424227D01*
X424238Y286027D01*
X424260Y286032D01*
X424288Y286043D01*
X424321Y286054D01*
X424366Y286066D01*
X424416Y286082D01*
X424477Y286093D01*
X424543Y286104D01*
X424616Y286121D01*
X424693Y286132D01*
X424777Y286143D01*
X424871Y286154D01*
X424971Y286160D01*
X425076Y286165D01*
X425187D01*
X427407D01*
Y285655D01*
D02*
G37*
G36*
Y279544D02*
X426952D01*
Y280810D01*
X423567D01*
Y281320D01*
X426952D01*
Y282586D01*
X427407D01*
Y279544D01*
D02*
G37*
G36*
X425681Y278096D02*
X426725D01*
Y277652D01*
X425681D01*
Y276608D01*
X425243D01*
Y277652D01*
X424188D01*
Y278096D01*
X425243D01*
Y279139D01*
X425681D01*
Y278096D01*
D02*
G37*
G36*
X468051Y226476D02*
X468229Y226448D01*
X468384Y226415D01*
X468456Y226393D01*
X468523Y226370D01*
X468584Y226348D01*
X468640Y226326D01*
X468684Y226309D01*
X468728Y226293D01*
X468756Y226276D01*
X468778Y226265D01*
X468795Y226259D01*
X468800Y226254D01*
X468950Y226160D01*
X469078Y226048D01*
X469189Y225937D01*
X469283Y225827D01*
X469355Y225727D01*
X469383Y225682D01*
X469405Y225643D01*
X469428Y225616D01*
X469439Y225593D01*
X469444Y225577D01*
X469450Y225571D01*
X469527Y225399D01*
X469583Y225221D01*
X469622Y225044D01*
X469650Y224883D01*
X469661Y224811D01*
X469666Y224739D01*
X469672Y224683D01*
Y224628D01*
X469677Y224589D01*
Y224555D01*
Y224533D01*
Y224528D01*
X469666Y224328D01*
X469644Y224134D01*
X469616Y223962D01*
X469594Y223878D01*
X469578Y223806D01*
X469561Y223740D01*
X469539Y223679D01*
X469522Y223623D01*
X469511Y223579D01*
X469494Y223545D01*
X469489Y223518D01*
X469478Y223501D01*
Y223495D01*
X469394Y223329D01*
X469300Y223179D01*
X469200Y223052D01*
X469150Y223002D01*
X469106Y222952D01*
X469061Y222907D01*
X469017Y222868D01*
X468978Y222835D01*
X468945Y222813D01*
X468923Y222791D01*
X468900Y222774D01*
X468889Y222768D01*
X468884Y222763D01*
X468806Y222718D01*
X468728Y222680D01*
X468562Y222619D01*
X468395Y222574D01*
X468234Y222546D01*
X468157Y222535D01*
X468090Y222524D01*
X468029Y222519D01*
X467979D01*
X467935Y222513D01*
X467874D01*
X467763Y222519D01*
X467657Y222530D01*
X467557Y222541D01*
X467463Y222563D01*
X467374Y222591D01*
X467291Y222619D01*
X467213Y222646D01*
X467141Y222680D01*
X467080Y222707D01*
X467019Y222735D01*
X466974Y222763D01*
X466930Y222791D01*
X466902Y222813D01*
X466875Y222824D01*
X466863Y222835D01*
X466858Y222840D01*
X466780Y222907D01*
X466714Y222974D01*
X466653Y223052D01*
X466592Y223129D01*
X466492Y223285D01*
X466414Y223440D01*
X466381Y223512D01*
X466353Y223579D01*
X466331Y223640D01*
X466314Y223690D01*
X466297Y223734D01*
X466286Y223767D01*
X466281Y223790D01*
Y223795D01*
X466791Y223923D01*
X466814Y223834D01*
X466841Y223751D01*
X466869Y223673D01*
X466897Y223601D01*
X466930Y223534D01*
X466963Y223479D01*
X467002Y223423D01*
X467036Y223373D01*
X467063Y223329D01*
X467097Y223296D01*
X467124Y223262D01*
X467147Y223235D01*
X467169Y223218D01*
X467185Y223201D01*
X467191Y223196D01*
X467197Y223190D01*
X467252Y223146D01*
X467313Y223113D01*
X467435Y223052D01*
X467552Y223007D01*
X467668Y222979D01*
X467768Y222957D01*
X467807Y222952D01*
X467846D01*
X467879Y222946D01*
X467918D01*
X468046Y222952D01*
X468168Y222974D01*
X468279Y223002D01*
X468379Y223035D01*
X468456Y223068D01*
X468490Y223085D01*
X468517Y223096D01*
X468540Y223107D01*
X468556Y223118D01*
X468567Y223124D01*
X468573D01*
X468678Y223201D01*
X468767Y223285D01*
X468845Y223379D01*
X468906Y223468D01*
X468956Y223545D01*
X468989Y223612D01*
X469000Y223640D01*
X469011Y223656D01*
X469017Y223668D01*
Y223673D01*
X469061Y223817D01*
X469095Y223962D01*
X469122Y224106D01*
X469139Y224239D01*
X469145Y224300D01*
X469150Y224356D01*
Y224406D01*
X469156Y224445D01*
Y224478D01*
Y224505D01*
Y224522D01*
Y224528D01*
X469150Y224672D01*
X469139Y224805D01*
X469117Y224927D01*
X469095Y225038D01*
X469078Y225133D01*
X469067Y225171D01*
X469056Y225205D01*
X469050Y225233D01*
X469045Y225249D01*
X469039Y225260D01*
Y225266D01*
X468984Y225394D01*
X468923Y225510D01*
X468856Y225604D01*
X468784Y225688D01*
X468723Y225754D01*
X468673Y225799D01*
X468634Y225827D01*
X468628Y225838D01*
X468623D01*
X468506Y225910D01*
X468379Y225965D01*
X468257Y226004D01*
X468140Y226026D01*
X468035Y226043D01*
X467990Y226048D01*
X467951D01*
X467924Y226054D01*
X467879D01*
X467740Y226048D01*
X467613Y226026D01*
X467507Y225993D01*
X467413Y225960D01*
X467341Y225921D01*
X467285Y225893D01*
X467252Y225871D01*
X467241Y225860D01*
X467152Y225777D01*
X467069Y225682D01*
X467002Y225582D01*
X466947Y225482D01*
X466902Y225394D01*
X466886Y225349D01*
X466875Y225316D01*
X466863Y225288D01*
X466852Y225266D01*
X466847Y225255D01*
Y225249D01*
X466347Y225366D01*
X466381Y225466D01*
X466414Y225554D01*
X466458Y225638D01*
X466497Y225721D01*
X466542Y225793D01*
X466592Y225860D01*
X466636Y225926D01*
X466680Y225982D01*
X466725Y226026D01*
X466764Y226071D01*
X466803Y226110D01*
X466830Y226137D01*
X466858Y226165D01*
X466880Y226182D01*
X466891Y226187D01*
X466897Y226193D01*
X466974Y226243D01*
X467052Y226293D01*
X467130Y226331D01*
X467213Y226365D01*
X467380Y226415D01*
X467529Y226448D01*
X467602Y226465D01*
X467663Y226470D01*
X467724Y226476D01*
X467774Y226481D01*
X467813Y226487D01*
X467868D01*
X468051Y226476D01*
D02*
G37*
G36*
X464688Y226431D02*
X464777Y226426D01*
X464932Y226393D01*
X465004Y226370D01*
X465071Y226348D01*
X465132Y226320D01*
X465187Y226293D01*
X465232Y226265D01*
X465276Y226237D01*
X465315Y226215D01*
X465343Y226193D01*
X465365Y226176D01*
X465382Y226160D01*
X465393Y226154D01*
X465398Y226148D01*
X465448Y226093D01*
X465498Y226037D01*
X465537Y225976D01*
X465570Y225915D01*
X465626Y225799D01*
X465659Y225688D01*
X465681Y225593D01*
X465687Y225549D01*
X465693Y225516D01*
X465698Y225482D01*
Y225460D01*
Y225449D01*
Y225444D01*
X465693Y225344D01*
X465676Y225249D01*
X465654Y225166D01*
X465626Y225094D01*
X465604Y225038D01*
X465582Y224994D01*
X465565Y224972D01*
X465559Y224961D01*
X465498Y224894D01*
X465432Y224833D01*
X465359Y224778D01*
X465287Y224733D01*
X465221Y224700D01*
X465171Y224678D01*
X465149Y224667D01*
X465132Y224661D01*
X465126Y224655D01*
X465121D01*
X465248Y224617D01*
X465354Y224567D01*
X465448Y224505D01*
X465526Y224450D01*
X465587Y224394D01*
X465631Y224350D01*
X465654Y224322D01*
X465665Y224317D01*
Y224311D01*
X465726Y224211D01*
X465776Y224106D01*
X465809Y224006D01*
X465831Y223906D01*
X465842Y223817D01*
X465848Y223779D01*
Y223745D01*
X465853Y223723D01*
Y223701D01*
Y223690D01*
Y223684D01*
X465848Y223595D01*
X465837Y223507D01*
X465820Y223423D01*
X465798Y223340D01*
X465742Y223201D01*
X465715Y223135D01*
X465681Y223079D01*
X465648Y223024D01*
X465620Y222979D01*
X465587Y222940D01*
X465565Y222907D01*
X465543Y222879D01*
X465526Y222863D01*
X465515Y222852D01*
X465509Y222846D01*
X465443Y222785D01*
X465371Y222735D01*
X465293Y222691D01*
X465215Y222652D01*
X465143Y222624D01*
X465065Y222596D01*
X464916Y222557D01*
X464849Y222541D01*
X464788Y222530D01*
X464732Y222524D01*
X464682Y222519D01*
X464643Y222513D01*
X464588D01*
X464483Y222519D01*
X464388Y222530D01*
X464294Y222546D01*
X464205Y222563D01*
X464127Y222591D01*
X464050Y222619D01*
X463977Y222646D01*
X463916Y222680D01*
X463861Y222713D01*
X463811Y222741D01*
X463772Y222768D01*
X463733Y222796D01*
X463706Y222813D01*
X463689Y222829D01*
X463678Y222840D01*
X463672Y222846D01*
X463611Y222913D01*
X463556Y222979D01*
X463511Y223046D01*
X463473Y223118D01*
X463434Y223185D01*
X463406Y223257D01*
X463367Y223384D01*
X463350Y223446D01*
X463339Y223501D01*
X463334Y223551D01*
X463328Y223590D01*
X463323Y223623D01*
Y223651D01*
Y223668D01*
Y223673D01*
X463328Y223801D01*
X463350Y223917D01*
X463384Y224023D01*
X463417Y224112D01*
X463450Y224184D01*
X463484Y224239D01*
X463506Y224272D01*
X463511Y224278D01*
Y224284D01*
X463589Y224372D01*
X463672Y224450D01*
X463761Y224511D01*
X463844Y224567D01*
X463922Y224605D01*
X463989Y224633D01*
X464011Y224644D01*
X464028Y224650D01*
X464039Y224655D01*
X464044D01*
X463944Y224700D01*
X463861Y224750D01*
X463789Y224800D01*
X463728Y224850D01*
X463683Y224894D01*
X463650Y224927D01*
X463628Y224950D01*
X463622Y224961D01*
X463572Y225038D01*
X463539Y225116D01*
X463511Y225194D01*
X463495Y225272D01*
X463484Y225332D01*
X463478Y225382D01*
Y225416D01*
Y225421D01*
Y225427D01*
X463484Y225505D01*
X463489Y225577D01*
X463528Y225715D01*
X463578Y225838D01*
X463633Y225943D01*
X463689Y226026D01*
X463717Y226060D01*
X463739Y226093D01*
X463761Y226115D01*
X463778Y226132D01*
X463783Y226137D01*
X463789Y226143D01*
X463850Y226193D01*
X463911Y226243D01*
X463977Y226282D01*
X464044Y226315D01*
X464177Y226365D01*
X464311Y226398D01*
X464366Y226415D01*
X464422Y226420D01*
X464471Y226426D01*
X464516Y226431D01*
X464549Y226437D01*
X464599D01*
X464688Y226431D01*
D02*
G37*
G36*
X477574Y251096D02*
X477751Y251068D01*
X477907Y251035D01*
X477979Y251013D01*
X478046Y250991D01*
X478107Y250968D01*
X478162Y250946D01*
X478206Y250930D01*
X478251Y250913D01*
X478279Y250896D01*
X478301Y250885D01*
X478318Y250880D01*
X478323Y250874D01*
X478473Y250780D01*
X478601Y250669D01*
X478712Y250558D01*
X478806Y250447D01*
X478878Y250347D01*
X478906Y250302D01*
X478928Y250264D01*
X478950Y250236D01*
X478961Y250214D01*
X478967Y250197D01*
X478972Y250191D01*
X479050Y250019D01*
X479106Y249842D01*
X479144Y249664D01*
X479172Y249503D01*
X479183Y249431D01*
X479189Y249359D01*
X479194Y249304D01*
Y249248D01*
X479200Y249209D01*
Y249176D01*
Y249154D01*
Y249148D01*
X479189Y248948D01*
X479167Y248754D01*
X479139Y248582D01*
X479117Y248499D01*
X479100Y248427D01*
X479083Y248360D01*
X479061Y248299D01*
X479045Y248243D01*
X479034Y248199D01*
X479017Y248166D01*
X479011Y248138D01*
X479000Y248121D01*
Y248116D01*
X478917Y247949D01*
X478823Y247799D01*
X478723Y247672D01*
X478673Y247622D01*
X478628Y247572D01*
X478584Y247527D01*
X478540Y247489D01*
X478501Y247455D01*
X478467Y247433D01*
X478445Y247411D01*
X478423Y247394D01*
X478412Y247389D01*
X478406Y247383D01*
X478329Y247339D01*
X478251Y247300D01*
X478085Y247239D01*
X477918Y247195D01*
X477757Y247167D01*
X477679Y247156D01*
X477613Y247145D01*
X477552Y247139D01*
X477502D01*
X477457Y247133D01*
X477396D01*
X477285Y247139D01*
X477180Y247150D01*
X477080Y247161D01*
X476986Y247183D01*
X476897Y247211D01*
X476814Y247239D01*
X476736Y247267D01*
X476664Y247300D01*
X476603Y247328D01*
X476542Y247355D01*
X476497Y247383D01*
X476453Y247411D01*
X476425Y247433D01*
X476397Y247444D01*
X476386Y247455D01*
X476381Y247461D01*
X476303Y247527D01*
X476236Y247594D01*
X476175Y247672D01*
X476114Y247749D01*
X476014Y247905D01*
X475937Y248060D01*
X475903Y248132D01*
X475876Y248199D01*
X475853Y248260D01*
X475837Y248310D01*
X475820Y248354D01*
X475809Y248388D01*
X475803Y248410D01*
Y248415D01*
X476314Y248543D01*
X476336Y248454D01*
X476364Y248371D01*
X476392Y248293D01*
X476419Y248221D01*
X476453Y248155D01*
X476486Y248099D01*
X476525Y248044D01*
X476558Y247994D01*
X476586Y247949D01*
X476619Y247916D01*
X476647Y247883D01*
X476669Y247855D01*
X476691Y247838D01*
X476708Y247822D01*
X476714Y247816D01*
X476719Y247811D01*
X476775Y247766D01*
X476836Y247733D01*
X476958Y247672D01*
X477074Y247627D01*
X477191Y247600D01*
X477291Y247577D01*
X477330Y247572D01*
X477368D01*
X477402Y247566D01*
X477441D01*
X477568Y247572D01*
X477690Y247594D01*
X477801Y247622D01*
X477901Y247655D01*
X477979Y247688D01*
X478012Y247705D01*
X478040Y247716D01*
X478062Y247727D01*
X478079Y247738D01*
X478090Y247744D01*
X478096D01*
X478201Y247822D01*
X478290Y247905D01*
X478368Y247999D01*
X478429Y248088D01*
X478478Y248166D01*
X478512Y248232D01*
X478523Y248260D01*
X478534Y248277D01*
X478540Y248288D01*
Y248293D01*
X478584Y248438D01*
X478617Y248582D01*
X478645Y248726D01*
X478662Y248860D01*
X478667Y248920D01*
X478673Y248976D01*
Y249026D01*
X478678Y249065D01*
Y249098D01*
Y249126D01*
Y249143D01*
Y249148D01*
X478673Y249292D01*
X478662Y249426D01*
X478640Y249548D01*
X478617Y249659D01*
X478601Y249753D01*
X478589Y249792D01*
X478578Y249825D01*
X478573Y249853D01*
X478567Y249869D01*
X478562Y249881D01*
Y249886D01*
X478506Y250014D01*
X478445Y250130D01*
X478379Y250225D01*
X478306Y250308D01*
X478245Y250375D01*
X478195Y250419D01*
X478157Y250447D01*
X478151Y250458D01*
X478146D01*
X478029Y250530D01*
X477901Y250586D01*
X477779Y250624D01*
X477663Y250646D01*
X477557Y250663D01*
X477513Y250669D01*
X477474D01*
X477446Y250674D01*
X477402D01*
X477263Y250669D01*
X477135Y250646D01*
X477030Y250613D01*
X476936Y250580D01*
X476863Y250541D01*
X476808Y250513D01*
X476775Y250491D01*
X476764Y250480D01*
X476675Y250397D01*
X476591Y250302D01*
X476525Y250203D01*
X476469Y250103D01*
X476425Y250014D01*
X476408Y249970D01*
X476397Y249936D01*
X476386Y249908D01*
X476375Y249886D01*
X476369Y249875D01*
Y249869D01*
X475870Y249986D01*
X475903Y250086D01*
X475937Y250175D01*
X475981Y250258D01*
X476020Y250341D01*
X476064Y250413D01*
X476114Y250480D01*
X476159Y250547D01*
X476203Y250602D01*
X476247Y250646D01*
X476286Y250691D01*
X476325Y250730D01*
X476353Y250758D01*
X476381Y250785D01*
X476403Y250802D01*
X476414Y250807D01*
X476419Y250813D01*
X476497Y250863D01*
X476575Y250913D01*
X476652Y250952D01*
X476736Y250985D01*
X476902Y251035D01*
X477052Y251068D01*
X477124Y251085D01*
X477185Y251091D01*
X477246Y251096D01*
X477296Y251102D01*
X477335Y251107D01*
X477391D01*
X477574Y251096D01*
D02*
G37*
G36*
X475337Y250536D02*
X473456D01*
X473589Y250375D01*
X473717Y250203D01*
X473828Y250036D01*
X473933Y249875D01*
X473978Y249803D01*
X474016Y249736D01*
X474055Y249675D01*
X474083Y249625D01*
X474105Y249581D01*
X474122Y249553D01*
X474133Y249531D01*
X474138Y249525D01*
X474249Y249304D01*
X474349Y249081D01*
X474433Y248871D01*
X474466Y248776D01*
X474499Y248682D01*
X474532Y248599D01*
X474555Y248521D01*
X474577Y248454D01*
X474593Y248399D01*
X474610Y248349D01*
X474621Y248316D01*
X474627Y248293D01*
Y248288D01*
X474682Y248060D01*
X474705Y247949D01*
X474721Y247849D01*
X474738Y247755D01*
X474754Y247661D01*
X474765Y247583D01*
X474777Y247505D01*
X474782Y247439D01*
X474788Y247378D01*
X474793Y247322D01*
Y247278D01*
X474799Y247244D01*
Y247222D01*
Y247205D01*
Y247200D01*
X474316D01*
X474299Y247411D01*
X474272Y247605D01*
X474244Y247783D01*
X474227Y247866D01*
X474211Y247944D01*
X474199Y248010D01*
X474183Y248071D01*
X474172Y248127D01*
X474161Y248171D01*
X474150Y248205D01*
X474144Y248232D01*
X474138Y248249D01*
Y248254D01*
X474055Y248510D01*
X473966Y248748D01*
X473922Y248865D01*
X473877Y248976D01*
X473828Y249076D01*
X473783Y249176D01*
X473744Y249265D01*
X473705Y249342D01*
X473672Y249409D01*
X473644Y249470D01*
X473617Y249520D01*
X473600Y249553D01*
X473589Y249575D01*
X473583Y249581D01*
X473517Y249697D01*
X473450Y249814D01*
X473384Y249920D01*
X473317Y250019D01*
X473256Y250108D01*
X473195Y250197D01*
X473134Y250275D01*
X473084Y250341D01*
X473034Y250408D01*
X472990Y250463D01*
X472945Y250508D01*
X472912Y250547D01*
X472890Y250580D01*
X472867Y250602D01*
X472856Y250613D01*
X472851Y250619D01*
Y250991D01*
X475337D01*
Y250536D01*
D02*
G37*
G36*
X459622Y251052D02*
X459727Y251041D01*
X459827Y251018D01*
X459922Y250991D01*
X460005Y250952D01*
X460088Y250919D01*
X460160Y250874D01*
X460227Y250835D01*
X460282Y250796D01*
X460338Y250752D01*
X460382Y250719D01*
X460415Y250685D01*
X460443Y250652D01*
X460465Y250630D01*
X460476Y250619D01*
X460482Y250613D01*
X460554Y250513D01*
X460615Y250397D01*
X460671Y250275D01*
X460721Y250147D01*
X460759Y250014D01*
X460793Y249881D01*
X460821Y249742D01*
X460843Y249614D01*
X460859Y249487D01*
X460871Y249370D01*
X460882Y249265D01*
X460887Y249176D01*
Y249098D01*
X460893Y249043D01*
Y249020D01*
Y249004D01*
Y248998D01*
Y248993D01*
X460887Y248815D01*
X460876Y248649D01*
X460859Y248493D01*
X460832Y248349D01*
X460804Y248221D01*
X460776Y248105D01*
X460743Y247999D01*
X460704Y247905D01*
X460671Y247827D01*
X460637Y247755D01*
X460610Y247699D01*
X460576Y247650D01*
X460554Y247611D01*
X460537Y247588D01*
X460526Y247572D01*
X460521Y247566D01*
X460449Y247489D01*
X460371Y247422D01*
X460293Y247366D01*
X460216Y247317D01*
X460132Y247272D01*
X460055Y247239D01*
X459977Y247211D01*
X459899Y247189D01*
X459833Y247172D01*
X459766Y247156D01*
X459711Y247145D01*
X459661Y247139D01*
X459616D01*
X459588Y247133D01*
X459561D01*
X459433Y247139D01*
X459316Y247161D01*
X459211Y247183D01*
X459117Y247217D01*
X459045Y247244D01*
X458989Y247272D01*
X458967Y247278D01*
X458950Y247289D01*
X458945Y247294D01*
X458939D01*
X458845Y247361D01*
X458756Y247439D01*
X458684Y247516D01*
X458623Y247594D01*
X458573Y247666D01*
X458539Y247722D01*
X458528Y247744D01*
X458517Y247761D01*
X458512Y247766D01*
Y247772D01*
X458456Y247888D01*
X458417Y248010D01*
X458390Y248121D01*
X458373Y248227D01*
X458356Y248316D01*
Y248349D01*
X458351Y248382D01*
Y248410D01*
Y248427D01*
Y248438D01*
Y248443D01*
X458356Y248543D01*
X458367Y248637D01*
X458384Y248732D01*
X458401Y248815D01*
X458428Y248893D01*
X458456Y248970D01*
X458484Y249037D01*
X458517Y249098D01*
X458551Y249154D01*
X458578Y249203D01*
X458606Y249242D01*
X458634Y249281D01*
X458650Y249309D01*
X458667Y249326D01*
X458678Y249337D01*
X458684Y249342D01*
X458745Y249403D01*
X458811Y249459D01*
X458884Y249503D01*
X458950Y249542D01*
X459017Y249581D01*
X459083Y249609D01*
X459211Y249648D01*
X459267Y249664D01*
X459322Y249675D01*
X459366Y249681D01*
X459411Y249686D01*
X459444Y249692D01*
X459489D01*
X459588Y249686D01*
X459683Y249670D01*
X459772Y249653D01*
X459849Y249631D01*
X459916Y249603D01*
X459966Y249587D01*
X459999Y249570D01*
X460005Y249564D01*
X460010D01*
X460099Y249509D01*
X460177Y249448D01*
X460249Y249387D01*
X460304Y249320D01*
X460354Y249265D01*
X460393Y249220D01*
X460415Y249187D01*
X460421Y249181D01*
Y249281D01*
X460415Y249381D01*
X460410Y249470D01*
X460399Y249559D01*
X460393Y249637D01*
X460382Y249709D01*
X460371Y249775D01*
X460354Y249836D01*
X460343Y249892D01*
X460332Y249936D01*
X460321Y249975D01*
X460316Y250008D01*
X460304Y250030D01*
X460299Y250047D01*
X460293Y250058D01*
Y250064D01*
X460238Y250175D01*
X460182Y250275D01*
X460121Y250352D01*
X460066Y250419D01*
X460016Y250475D01*
X459977Y250513D01*
X459949Y250536D01*
X459938Y250541D01*
X459871Y250586D01*
X459805Y250613D01*
X459738Y250635D01*
X459672Y250652D01*
X459622Y250663D01*
X459577Y250669D01*
X459539D01*
X459439Y250658D01*
X459344Y250635D01*
X459267Y250602D01*
X459194Y250569D01*
X459139Y250530D01*
X459100Y250497D01*
X459078Y250475D01*
X459067Y250463D01*
X459028Y250413D01*
X458989Y250352D01*
X458956Y250286D01*
X458934Y250219D01*
X458911Y250158D01*
X458895Y250108D01*
X458889Y250075D01*
X458884Y250069D01*
Y250064D01*
X458412Y250103D01*
X458445Y250258D01*
X458495Y250397D01*
X458551Y250519D01*
X458612Y250619D01*
X458673Y250696D01*
X458695Y250730D01*
X458723Y250758D01*
X458739Y250774D01*
X458756Y250791D01*
X458762Y250796D01*
X458767Y250802D01*
X458822Y250846D01*
X458884Y250885D01*
X459006Y250952D01*
X459128Y250996D01*
X459244Y251024D01*
X459350Y251046D01*
X459394Y251052D01*
X459433D01*
X459466Y251057D01*
X459511D01*
X459622Y251052D01*
D02*
G37*
G36*
X463074Y251096D02*
X463251Y251068D01*
X463407Y251035D01*
X463479Y251013D01*
X463546Y250991D01*
X463607Y250968D01*
X463662Y250946D01*
X463706Y250930D01*
X463751Y250913D01*
X463779Y250896D01*
X463801Y250885D01*
X463818Y250880D01*
X463823Y250874D01*
X463973Y250780D01*
X464101Y250669D01*
X464212Y250558D01*
X464306Y250447D01*
X464378Y250347D01*
X464406Y250302D01*
X464428Y250264D01*
X464450Y250236D01*
X464461Y250214D01*
X464467Y250197D01*
X464472Y250191D01*
X464550Y250019D01*
X464606Y249842D01*
X464644Y249664D01*
X464672Y249503D01*
X464683Y249431D01*
X464689Y249359D01*
X464694Y249304D01*
Y249248D01*
X464700Y249209D01*
Y249176D01*
Y249154D01*
Y249148D01*
X464689Y248948D01*
X464667Y248754D01*
X464639Y248582D01*
X464617Y248499D01*
X464600Y248427D01*
X464583Y248360D01*
X464561Y248299D01*
X464545Y248243D01*
X464534Y248199D01*
X464517Y248166D01*
X464511Y248138D01*
X464500Y248121D01*
Y248116D01*
X464417Y247949D01*
X464323Y247799D01*
X464223Y247672D01*
X464173Y247622D01*
X464128Y247572D01*
X464084Y247527D01*
X464040Y247489D01*
X464001Y247455D01*
X463967Y247433D01*
X463945Y247411D01*
X463923Y247394D01*
X463912Y247389D01*
X463906Y247383D01*
X463829Y247339D01*
X463751Y247300D01*
X463585Y247239D01*
X463418Y247195D01*
X463257Y247167D01*
X463179Y247156D01*
X463113Y247145D01*
X463052Y247139D01*
X463002D01*
X462957Y247133D01*
X462896D01*
X462785Y247139D01*
X462680Y247150D01*
X462580Y247161D01*
X462486Y247183D01*
X462397Y247211D01*
X462314Y247239D01*
X462236Y247267D01*
X462164Y247300D01*
X462103Y247328D01*
X462042Y247355D01*
X461997Y247383D01*
X461953Y247411D01*
X461925Y247433D01*
X461897Y247444D01*
X461886Y247455D01*
X461881Y247461D01*
X461803Y247527D01*
X461736Y247594D01*
X461675Y247672D01*
X461614Y247749D01*
X461514Y247905D01*
X461437Y248060D01*
X461403Y248132D01*
X461376Y248199D01*
X461353Y248260D01*
X461337Y248310D01*
X461320Y248354D01*
X461309Y248388D01*
X461303Y248410D01*
Y248415D01*
X461814Y248543D01*
X461836Y248454D01*
X461864Y248371D01*
X461892Y248293D01*
X461919Y248221D01*
X461953Y248155D01*
X461986Y248099D01*
X462025Y248044D01*
X462058Y247994D01*
X462086Y247949D01*
X462119Y247916D01*
X462147Y247883D01*
X462169Y247855D01*
X462191Y247838D01*
X462208Y247822D01*
X462214Y247816D01*
X462219Y247811D01*
X462275Y247766D01*
X462336Y247733D01*
X462458Y247672D01*
X462574Y247627D01*
X462691Y247600D01*
X462791Y247577D01*
X462830Y247572D01*
X462868D01*
X462902Y247566D01*
X462941D01*
X463068Y247572D01*
X463190Y247594D01*
X463301Y247622D01*
X463401Y247655D01*
X463479Y247688D01*
X463512Y247705D01*
X463540Y247716D01*
X463562Y247727D01*
X463579Y247738D01*
X463590Y247744D01*
X463596D01*
X463701Y247822D01*
X463790Y247905D01*
X463868Y247999D01*
X463929Y248088D01*
X463978Y248166D01*
X464012Y248232D01*
X464023Y248260D01*
X464034Y248277D01*
X464040Y248288D01*
Y248293D01*
X464084Y248438D01*
X464117Y248582D01*
X464145Y248726D01*
X464162Y248860D01*
X464167Y248920D01*
X464173Y248976D01*
Y249026D01*
X464178Y249065D01*
Y249098D01*
Y249126D01*
Y249143D01*
Y249148D01*
X464173Y249292D01*
X464162Y249426D01*
X464140Y249548D01*
X464117Y249659D01*
X464101Y249753D01*
X464089Y249792D01*
X464078Y249825D01*
X464073Y249853D01*
X464067Y249869D01*
X464062Y249881D01*
Y249886D01*
X464006Y250014D01*
X463945Y250130D01*
X463879Y250225D01*
X463806Y250308D01*
X463745Y250375D01*
X463695Y250419D01*
X463657Y250447D01*
X463651Y250458D01*
X463646D01*
X463529Y250530D01*
X463401Y250586D01*
X463279Y250624D01*
X463163Y250646D01*
X463057Y250663D01*
X463013Y250669D01*
X462974D01*
X462946Y250674D01*
X462902D01*
X462763Y250669D01*
X462635Y250646D01*
X462530Y250613D01*
X462436Y250580D01*
X462363Y250541D01*
X462308Y250513D01*
X462275Y250491D01*
X462264Y250480D01*
X462175Y250397D01*
X462091Y250302D01*
X462025Y250203D01*
X461969Y250103D01*
X461925Y250014D01*
X461908Y249970D01*
X461897Y249936D01*
X461886Y249908D01*
X461875Y249886D01*
X461869Y249875D01*
Y249869D01*
X461370Y249986D01*
X461403Y250086D01*
X461437Y250175D01*
X461481Y250258D01*
X461520Y250341D01*
X461564Y250413D01*
X461614Y250480D01*
X461659Y250547D01*
X461703Y250602D01*
X461747Y250646D01*
X461786Y250691D01*
X461825Y250730D01*
X461853Y250758D01*
X461881Y250785D01*
X461903Y250802D01*
X461914Y250807D01*
X461919Y250813D01*
X461997Y250863D01*
X462075Y250913D01*
X462152Y250952D01*
X462236Y250985D01*
X462402Y251035D01*
X462552Y251068D01*
X462624Y251085D01*
X462685Y251091D01*
X462746Y251096D01*
X462796Y251102D01*
X462835Y251107D01*
X462891D01*
X463074Y251096D01*
D02*
G37*
%LPC*%
G36*
X425426Y289978D02*
X425420D01*
X425398D01*
X425359D01*
X425309Y289973D01*
X425254Y289967D01*
X425187Y289956D01*
X425109Y289945D01*
X425032Y289934D01*
X424854Y289890D01*
X424765Y289856D01*
X424671Y289823D01*
X424582Y289778D01*
X424494Y289728D01*
X424410Y289673D01*
X424333Y289606D01*
X424327Y289601D01*
X424316Y289590D01*
X424294Y289568D01*
X424271Y289540D01*
X424238Y289501D01*
X424205Y289457D01*
X424172Y289407D01*
X424133Y289351D01*
X424094Y289284D01*
X424061Y289212D01*
X424027Y289135D01*
X423994Y289051D01*
X423972Y288963D01*
X423950Y288874D01*
X423939Y288774D01*
X423933Y288668D01*
Y288641D01*
X423939Y288613D01*
Y288574D01*
X423944Y288524D01*
X423955Y288469D01*
X423966Y288402D01*
X423983Y288335D01*
X424005Y288258D01*
X424033Y288186D01*
X424061Y288102D01*
X424099Y288025D01*
X424149Y287947D01*
X424199Y287869D01*
X424260Y287792D01*
X424333Y287719D01*
X424338Y287714D01*
X424349Y287703D01*
X424377Y287686D01*
X424410Y287658D01*
X424449Y287631D01*
X424499Y287603D01*
X424560Y287570D01*
X424627Y287531D01*
X424704Y287497D01*
X424793Y287464D01*
X424888Y287436D01*
X424987Y287403D01*
X425098Y287381D01*
X425220Y287364D01*
X425348Y287353D01*
X425481Y287348D01*
X425487D01*
X425504D01*
X425526D01*
X425559D01*
X425598Y287353D01*
X425648D01*
X425698Y287359D01*
X425759Y287370D01*
X425886Y287386D01*
X426020Y287414D01*
X426164Y287453D01*
X426297Y287509D01*
X426303D01*
X426314Y287514D01*
X426331Y287525D01*
X426353Y287536D01*
X426419Y287575D01*
X426497Y287625D01*
X426586Y287692D01*
X426675Y287775D01*
X426763Y287869D01*
X426841Y287975D01*
Y287980D01*
X426852Y287986D01*
X426858Y288002D01*
X426874Y288030D01*
X426886Y288058D01*
X426902Y288091D01*
X426941Y288175D01*
X426974Y288274D01*
X427008Y288391D01*
X427030Y288524D01*
X427035Y288663D01*
Y288713D01*
X427030Y288752D01*
X427024Y288802D01*
X427013Y288852D01*
X427002Y288913D01*
X426991Y288979D01*
X426947Y289124D01*
X426913Y289201D01*
X426880Y289279D01*
X426836Y289362D01*
X426786Y289440D01*
X426730Y289518D01*
X426663Y289590D01*
X426658Y289595D01*
X426647Y289606D01*
X426625Y289623D01*
X426591Y289651D01*
X426552Y289679D01*
X426503Y289712D01*
X426441Y289745D01*
X426369Y289784D01*
X426292Y289817D01*
X426197Y289856D01*
X426097Y289890D01*
X425986Y289917D01*
X425864Y289945D01*
X425726Y289962D01*
X425581Y289973D01*
X425426Y289978D01*
D02*
G37*
G36*
X464632Y226048D02*
X464588D01*
X464494Y226043D01*
X464405Y226021D01*
X464333Y225993D01*
X464266Y225960D01*
X464216Y225926D01*
X464177Y225899D01*
X464150Y225876D01*
X464144Y225871D01*
X464083Y225799D01*
X464039Y225727D01*
X464005Y225654D01*
X463983Y225588D01*
X463972Y225527D01*
X463961Y225477D01*
Y225444D01*
Y225438D01*
Y225432D01*
X463966Y225344D01*
X463989Y225260D01*
X464016Y225188D01*
X464050Y225127D01*
X464083Y225077D01*
X464111Y225044D01*
X464133Y225016D01*
X464139Y225011D01*
X464205Y224955D01*
X464283Y224911D01*
X464355Y224883D01*
X464427Y224861D01*
X464494Y224850D01*
X464544Y224844D01*
X464577Y224838D01*
X464588D01*
X464688Y224844D01*
X464777Y224866D01*
X464854Y224894D01*
X464921Y224927D01*
X464971Y224955D01*
X465010Y224983D01*
X465038Y225005D01*
X465043Y225011D01*
X465099Y225077D01*
X465143Y225155D01*
X465171Y225227D01*
X465193Y225299D01*
X465204Y225360D01*
X465210Y225410D01*
X465215Y225444D01*
Y225449D01*
Y225455D01*
X465210Y225543D01*
X465187Y225621D01*
X465160Y225693D01*
X465126Y225754D01*
X465099Y225804D01*
X465071Y225843D01*
X465049Y225865D01*
X465043Y225871D01*
X464971Y225932D01*
X464899Y225976D01*
X464821Y226004D01*
X464749Y226026D01*
X464682Y226037D01*
X464632Y226048D01*
D02*
G37*
G36*
X464638Y224456D02*
X464605D01*
X464483Y224445D01*
X464372Y224422D01*
X464272Y224383D01*
X464188Y224345D01*
X464122Y224300D01*
X464072Y224261D01*
X464044Y224239D01*
X464033Y224228D01*
X463955Y224139D01*
X463900Y224045D01*
X463861Y223951D01*
X463833Y223867D01*
X463817Y223784D01*
X463811Y223723D01*
X463805Y223701D01*
Y223684D01*
Y223673D01*
Y223668D01*
X463817Y223551D01*
X463839Y223440D01*
X463878Y223346D01*
X463916Y223268D01*
X463955Y223207D01*
X463994Y223157D01*
X464016Y223129D01*
X464028Y223118D01*
X464116Y223046D01*
X464205Y222990D01*
X464299Y222957D01*
X464388Y222929D01*
X464466Y222913D01*
X464533Y222907D01*
X464555Y222902D01*
X464588D01*
X464666Y222907D01*
X464743Y222918D01*
X464816Y222935D01*
X464877Y222952D01*
X464927Y222968D01*
X464965Y222985D01*
X464988Y222996D01*
X464999Y223002D01*
X465065Y223046D01*
X465121Y223090D01*
X465171Y223140D01*
X465210Y223190D01*
X465243Y223229D01*
X465265Y223262D01*
X465276Y223290D01*
X465282Y223296D01*
X465309Y223368D01*
X465332Y223434D01*
X465348Y223501D01*
X465359Y223562D01*
X465365Y223612D01*
X465371Y223651D01*
Y223673D01*
Y223684D01*
X465359Y223801D01*
X465337Y223906D01*
X465304Y224001D01*
X465260Y224084D01*
X465221Y224145D01*
X465187Y224195D01*
X465165Y224222D01*
X465154Y224234D01*
X465071Y224306D01*
X464977Y224361D01*
X464888Y224400D01*
X464799Y224428D01*
X464721Y224445D01*
X464660Y224450D01*
X464638Y224456D01*
D02*
G37*
G36*
X459616Y249276D02*
X459583D01*
X459466Y249265D01*
X459361Y249237D01*
X459272Y249203D01*
X459194Y249159D01*
X459133Y249115D01*
X459089Y249081D01*
X459061Y249054D01*
X459050Y249043D01*
X458978Y248948D01*
X458922Y248848D01*
X458884Y248743D01*
X458861Y248643D01*
X458845Y248554D01*
X458839Y248515D01*
Y248482D01*
X458834Y248454D01*
Y248432D01*
Y248421D01*
Y248415D01*
X458845Y248266D01*
X458867Y248138D01*
X458900Y248027D01*
X458939Y247933D01*
X458984Y247860D01*
X459017Y247805D01*
X459039Y247772D01*
X459050Y247766D01*
Y247761D01*
X459089Y247716D01*
X459133Y247683D01*
X459222Y247622D01*
X459311Y247583D01*
X459389Y247550D01*
X459461Y247533D01*
X459516Y247527D01*
X459539Y247522D01*
X459566D01*
X459644Y247527D01*
X459716Y247538D01*
X459783Y247561D01*
X459838Y247583D01*
X459888Y247600D01*
X459927Y247622D01*
X459949Y247633D01*
X459960Y247639D01*
X460027Y247688D01*
X460082Y247738D01*
X460132Y247799D01*
X460171Y247849D01*
X460205Y247899D01*
X460227Y247938D01*
X460243Y247966D01*
X460249Y247977D01*
X460282Y248060D01*
X460304Y248144D01*
X460327Y248221D01*
X460338Y248293D01*
X460343Y248354D01*
X460349Y248404D01*
Y248432D01*
Y248443D01*
X460338Y248576D01*
X460316Y248693D01*
X460277Y248798D01*
X460238Y248882D01*
X460199Y248954D01*
X460160Y249004D01*
X460138Y249031D01*
X460127Y249043D01*
X460038Y249120D01*
X459949Y249176D01*
X459855Y249220D01*
X459772Y249248D01*
X459694Y249265D01*
X459638Y249270D01*
X459616Y249276D01*
D02*
G37*
%LPD*%
D10*
X441500Y294000D02*
X475500D01*
Y289728D02*
Y294000D01*
Y271500D02*
Y281000D01*
X441500Y271500D02*
Y280661D01*
Y289728D02*
Y294000D01*
X465500Y271500D02*
X475500D01*
X441500D02*
X451500D01*
D12*
X453492Y270008D02*
G03*
X453492Y270008I-492J0D01*
G01*
D14*
X457500Y238500D02*
Y243500D01*
X450512Y237063D02*
X464488D01*
Y244937D01*
X450512D02*
X464488D01*
X450512Y237063D02*
Y244937D01*
X472000Y238500D02*
Y243500D01*
X465012Y244937D02*
X478988D01*
X465012Y237063D02*
Y244937D01*
Y237063D02*
X478988D01*
Y244937D01*
X471063Y222512D02*
X478937D01*
X471063D02*
Y236488D01*
X478937D01*
Y222512D02*
Y236488D01*
X472500Y229500D02*
X477500D01*
D15*
X335500Y292000D02*
X422000D01*
X335500Y225000D02*
Y291929D01*
Y225000D02*
X422000D01*
Y291929D01*
M02*
