M48
;Layer_Color=9474304
;FILE_FORMAT=2:4
INCH,LZ
;TYPE=PLATED
T1F00S00C0.0100
T2F00S00C0.0315
%
T01
X04805Y0248
X047853Y025602
X04725Y02665
X04397Y026941
X0435Y02695
X042663Y025943
X043109Y025339
X0429Y02429
X0439Y0241
X04425Y02385
X044505Y024355
X04545Y02182
X04623Y021813
X0436Y0215
X041463Y02182
X04055
X0408Y0215
X0397Y020755
X03935Y0205
X038977Y020477
X03675Y0207
X0357Y02145
X03355Y0214
X03455Y0265
X0349Y02775
X03503Y028825
X0356Y028595
X037135Y027921
X03825Y028955
X0387
X03915
X0396Y0279
X04195Y02245
X042Y0205
X032284Y028416
X0314Y02835
T02
X0322Y0238
Y024587
Y025375
Y026162
M30
