G04*
G04 #@! TF.GenerationSoftware,Altium Limited,Altium Designer,23.0.1 (38)*
G04*
G04 Layer_Color=16711935*
<<<<<<< HEAD
%FSLAX24Y24*%
%MOIN*%
G70*
G04*
G04 #@! TF.SameCoordinates,BEEE6B11-5ECA-4AAD-BFAB-FF97A37F51A9*
=======
%FSLAX25Y25*%
%MOIN*%
G70*
G04*
G04 #@! TF.SameCoordinates,3E06254A-0F58-42D6-91FB-0DF0C2053515*
>>>>>>> 086f05f611e4eabd8aa2a084d90faab6d215b326
G04*
G04*
G04 #@! TF.FilePolarity,Negative*
G04*
G01*
G75*
<<<<<<< HEAD
%ADD33R,0.1180X0.1280*%
%ADD34O,0.1180X0.1280*%
%ADD35C,0.1024*%
%ADD36C,0.0631*%
G04:AMPARAMS|DCode=37|XSize=63.1mil|YSize=63.1mil|CornerRadius=17.8mil|HoleSize=0mil|Usage=FLASHONLY|Rotation=270.000|XOffset=0mil|YOffset=0mil|HoleType=Round|Shape=RoundedRectangle|*
%AMROUNDEDRECTD37*
21,1,0.0631,0.0276,0,0,270.0*
21,1,0.0276,0.0631,0,0,270.0*
1,1,0.0356,-0.0138,-0.0138*
1,1,0.0356,-0.0138,0.0138*
1,1,0.0356,0.0138,0.0138*
1,1,0.0356,0.0138,-0.0138*
%
%ADD37ROUNDEDRECTD37*%
%ADD38R,0.0631X0.0631*%
%ADD39C,0.0580*%
D33*
X60948Y44098D02*
D03*
X36496Y44096D02*
D03*
X52799Y44099D02*
D03*
X44649D02*
D03*
D34*
X66952Y44102D02*
D03*
X64949Y44099D02*
D03*
X62948Y44098D02*
D03*
X42500Y44100D02*
D03*
X40497Y44097D02*
D03*
X38496Y44096D02*
D03*
X58803Y44103D02*
D03*
X56800Y44100D02*
D03*
X54799Y44099D02*
D03*
X46649D02*
D03*
X48650Y44100D02*
D03*
X50653Y44103D02*
D03*
D35*
X60900Y48450D02*
D03*
X66900D02*
D03*
X65900Y45450D02*
D03*
X60900D02*
D03*
X36600Y45500D02*
D03*
X41600D02*
D03*
X42600Y48500D02*
D03*
X36600D02*
D03*
X44700D02*
D03*
X50700D02*
D03*
X49700Y45500D02*
D03*
X44700D02*
D03*
X52800Y48500D02*
D03*
X58800D02*
D03*
X57800Y45500D02*
D03*
X52800D02*
D03*
D36*
X75500Y44800D02*
D03*
Y45587D02*
D03*
Y46375D02*
D03*
X34650Y45300D02*
D03*
Y46088D02*
D03*
Y46875D02*
D03*
Y47663D02*
D03*
D37*
X75500Y47162D02*
D03*
D38*
X34650Y48450D02*
D03*
D39*
X41350Y49550D02*
D03*
X70200Y46850D02*
D03*
X77200Y43050D02*
D03*
X72304Y49075D02*
D03*
X71500Y49675D02*
D03*
X71504Y49075D02*
D03*
X72300Y49675D02*
D03*
X48050Y50450D02*
D03*
X55300Y50400D02*
D03*
X69900Y43900D02*
D03*
X73560Y48996D02*
D03*
X73566Y49607D02*
D03*
X71200Y43900D02*
=======
%ADD33R,0.11800X0.12800*%
%ADD34O,0.11800X0.12800*%
%ADD35C,0.10243*%
%ADD36C,0.06312*%
G04:AMPARAMS|DCode=37|XSize=63.12mil|YSize=63.12mil|CornerRadius=17.78mil|HoleSize=0mil|Usage=FLASHONLY|Rotation=270.000|XOffset=0mil|YOffset=0mil|HoleType=Round|Shape=RoundedRectangle|*
%AMROUNDEDRECTD37*
21,1,0.06312,0.02756,0,0,270.0*
21,1,0.02756,0.06312,0,0,270.0*
1,1,0.03556,-0.01378,-0.01378*
1,1,0.03556,-0.01378,0.01378*
1,1,0.03556,0.01378,0.01378*
1,1,0.03556,0.01378,-0.01378*
%
%ADD37ROUNDEDRECTD37*%
%ADD38R,0.06312X0.06312*%
%ADD39C,0.05800*%
D33*
X609480Y440980D02*
D03*
X364961Y440961D02*
D03*
X527994Y440994D02*
D03*
X446494D02*
D03*
D34*
X669520Y441020D02*
D03*
X649486Y440986D02*
D03*
X629480Y440980D02*
D03*
X425000Y441000D02*
D03*
X404967Y440967D02*
D03*
X384961Y440961D02*
D03*
X588033Y441033D02*
D03*
X568000Y441000D02*
D03*
X547994Y440994D02*
D03*
X466494D02*
D03*
X486500Y441000D02*
D03*
X506533Y441033D02*
D03*
D35*
X609000Y484500D02*
D03*
X669000D02*
D03*
X659000Y454500D02*
D03*
X609000D02*
D03*
X366000Y455000D02*
D03*
X416000D02*
D03*
X426000Y485000D02*
D03*
X366000D02*
D03*
X447000D02*
D03*
X507000D02*
D03*
X497000Y455000D02*
D03*
X447000D02*
D03*
X528000Y485000D02*
D03*
X588000D02*
D03*
X578000Y455000D02*
D03*
X528000D02*
D03*
D36*
X755000Y448000D02*
D03*
Y455874D02*
D03*
Y463748D02*
D03*
X346500Y453004D02*
D03*
Y460878D02*
D03*
Y468752D02*
D03*
Y476626D02*
D03*
D37*
X755000Y471622D02*
D03*
D38*
X346500Y484500D02*
D03*
D39*
X413500Y495500D02*
D03*
X702000Y468500D02*
D03*
X772000Y430500D02*
D03*
X723040Y490750D02*
D03*
X715000Y496750D02*
D03*
X715039Y490750D02*
D03*
X723000Y496750D02*
D03*
X480500Y504500D02*
D03*
X553000Y504000D02*
D03*
X699000Y439000D02*
D03*
X735602Y489963D02*
D03*
X735663Y496075D02*
D03*
X712000Y439000D02*
>>>>>>> 086f05f611e4eabd8aa2a084d90faab6d215b326
D03*
M02*
