G04*
G04 #@! TF.GenerationSoftware,Altium Limited,Altium Designer,23.0.1 (38)*
G04*
G04 Layer_Color=2752767*
%FSLAX25Y25*%
%MOIN*%
G70*
G04*
G04 #@! TF.SameCoordinates,3E06254A-0F58-42D6-91FB-0DF0C2053515*
G04*
G04*
G04 #@! TF.FilePolarity,Positive*
G04*
G01*
G75*
%ADD13C,0.00500*%
%ADD49C,0.00667*%
D13*
X609480Y438980D02*
X607480Y442980D01*
X611480D01*
X609480Y438980D01*
X669520Y439020D02*
X667520Y443020D01*
X671520D01*
X669520Y439020D01*
X649486Y438986D02*
X647486Y442986D01*
X651486D01*
X649486Y438986D01*
X629480Y438980D02*
X627480Y442980D01*
X631480D01*
X629480Y438980D01*
X607000Y482500D02*
Y486500D01*
X611000D01*
Y482500D01*
X607000D01*
X667000D02*
Y486500D01*
X671000D01*
Y482500D01*
X667000D01*
X657000Y452500D02*
Y456500D01*
X661000D01*
Y452500D01*
X657000D01*
X607000D02*
Y456500D01*
X611000D01*
Y452500D01*
X607000D01*
X364000Y453000D02*
Y457000D01*
X368000D01*
Y453000D01*
X364000D01*
X414000D02*
Y457000D01*
X418000D01*
Y453000D01*
X414000D01*
X424000Y483000D02*
Y487000D01*
X428000D01*
Y483000D01*
X424000D01*
X364000D02*
Y487000D01*
X368000D01*
Y483000D01*
X364000D01*
X364961Y438961D02*
X362961Y442961D01*
X366961D01*
X364961Y438961D01*
X425000Y439000D02*
X423000Y443000D01*
X427000D01*
X425000Y439000D01*
X404967Y438967D02*
X402967Y442967D01*
X406967D01*
X404967Y438967D01*
X384961Y438961D02*
X382961Y442961D01*
X386961D01*
X384961Y438961D01*
X527994Y438994D02*
X525994Y442994D01*
X529994D01*
X527994Y438994D01*
X588033Y439033D02*
X586033Y443033D01*
X590033D01*
X588033Y439033D01*
X568000Y439000D02*
X566000Y443000D01*
X570000D01*
X568000Y439000D01*
X547994Y438994D02*
X545994Y442994D01*
X549994D01*
X547994Y438994D01*
X445000Y483000D02*
Y487000D01*
X449000D01*
Y483000D01*
X445000D01*
X505000D02*
Y487000D01*
X509000D01*
Y483000D01*
X505000D01*
X495000Y453000D02*
Y457000D01*
X499000D01*
Y453000D01*
X495000D01*
X445000D02*
Y457000D01*
X449000D01*
Y453000D01*
X445000D01*
X526000Y483000D02*
Y487000D01*
X530000D01*
Y483000D01*
X526000D01*
X586000D02*
Y487000D01*
X590000D01*
Y483000D01*
X586000D01*
X576000Y453000D02*
Y457000D01*
X580000D01*
Y453000D01*
X576000D01*
X526000D02*
Y457000D01*
X530000D01*
Y453000D01*
X526000D01*
X755000Y446000D02*
X756000Y447000D01*
X757000D01*
X756000Y448000D01*
X757000Y449000D01*
X756000D01*
X755000Y450000D01*
X754000Y449000D01*
X753000D01*
X754000Y448000D01*
X753000Y447000D01*
X754000D01*
X755000Y446000D01*
Y453874D02*
X756000Y454874D01*
X757000D01*
X756000Y455874D01*
X757000Y456874D01*
X756000D01*
X755000Y457874D01*
X754000Y456874D01*
X753000D01*
X754000Y455874D01*
X753000Y454874D01*
X754000D01*
X755000Y453874D01*
Y461748D02*
X756000Y462748D01*
X757000D01*
X756000Y463748D01*
X757000Y464748D01*
X756000D01*
X755000Y465748D01*
X754000Y464748D01*
X753000D01*
X754000Y463748D01*
X753000Y462748D01*
X754000D01*
X755000Y461748D01*
Y469622D02*
X756000Y470622D01*
X757000D01*
X756000Y471622D01*
X757000Y472622D01*
X756000D01*
X755000Y473622D01*
X754000Y472622D01*
X753000D01*
X754000Y471622D01*
X753000Y470622D01*
X754000D01*
X755000Y469622D01*
X346500Y451004D02*
X347500Y452004D01*
X348500D01*
X347500Y453004D01*
X348500Y454004D01*
X347500D01*
X346500Y455004D01*
X345500Y454004D01*
X344500D01*
X345500Y453004D01*
X344500Y452004D01*
X345500D01*
X346500Y451004D01*
Y458878D02*
X347500Y459878D01*
X348500D01*
X347500Y460878D01*
X348500Y461878D01*
X347500D01*
X346500Y462878D01*
X345500Y461878D01*
X344500D01*
X345500Y460878D01*
X344500Y459878D01*
X345500D01*
X346500Y458878D01*
Y466752D02*
X347500Y467752D01*
X348500D01*
X347500Y468752D01*
X348500Y469752D01*
X347500D01*
X346500Y470752D01*
X345500Y469752D01*
X344500D01*
X345500Y468752D01*
X344500Y467752D01*
X345500D01*
X346500Y466752D01*
Y474626D02*
X347500Y475626D01*
X348500D01*
X347500Y476626D01*
X348500Y477626D01*
X347500D01*
X346500Y478626D01*
X345500Y477626D01*
X344500D01*
X345500Y476626D01*
X344500Y475626D01*
X345500D01*
X346500Y474626D01*
Y482500D02*
X347500Y483500D01*
X348500D01*
X347500Y484500D01*
X348500Y485500D01*
X347500D01*
X346500Y486500D01*
X345500Y485500D01*
X344500D01*
X345500Y484500D01*
X344500Y483500D01*
X345500D01*
X346500Y482500D01*
X466494Y438994D02*
X464494Y442994D01*
X468494D01*
X466494Y438994D01*
X486500Y439000D02*
X484500Y443000D01*
X488500D01*
X486500Y439000D01*
X506533Y439033D02*
X504533Y443033D01*
X508533D01*
X506533Y439033D01*
X446494Y438994D02*
X444494Y442994D01*
X448494D01*
X446494Y438994D01*
D49*
X415500Y495500D02*
G03*
X415500Y495500I-2000J0D01*
G01*
X704000Y468500D02*
G03*
X704000Y468500I-2000J0D01*
G01*
X774000Y430500D02*
G03*
X774000Y430500I-2000J0D01*
G01*
X725040Y490750D02*
G03*
X725040Y490750I-2000J0D01*
G01*
X717000Y496750D02*
G03*
X717000Y496750I-2000J0D01*
G01*
X717039Y490750D02*
G03*
X717039Y490750I-2000J0D01*
G01*
X725000Y496750D02*
G03*
X725000Y496750I-2000J0D01*
G01*
X482500Y504500D02*
G03*
X482500Y504500I-2000J0D01*
G01*
X555000Y504000D02*
G03*
X555000Y504000I-2000J0D01*
G01*
X701000Y439000D02*
G03*
X701000Y439000I-2000J0D01*
G01*
X737602Y489963D02*
G03*
X737602Y489963I-2000J0D01*
G01*
X737663Y496075D02*
G03*
X737663Y496075I-2000J0D01*
G01*
X714000Y439000D02*
G03*
X714000Y439000I-2000J0D01*
G01*
M02*
