G04*
G04 #@! TF.GenerationSoftware,Altium Limited,Altium Designer,23.0.1 (38)*
G04*
G04 Layer_Color=255*
%FSLAX24Y24*%
%MOIN*%
G70*
G04*
G04 #@! TF.SameCoordinates,BEEE6B11-5ECA-4AAD-BFAB-FF97A37F51A9*
G04*
G04*
G04 #@! TF.FilePolarity,Positive*
G04*
G01*
G75*
%ADD42R,0.1100X0.1200*%
%ADD43O,0.1100X0.1200*%
%ADD44C,0.0984*%
%ADD45C,0.0551*%
G04:AMPARAMS|DCode=46|XSize=55.1mil|YSize=55.1mil|CornerRadius=13.8mil|HoleSize=0mil|Usage=FLASHONLY|Rotation=270.000|XOffset=0mil|YOffset=0mil|HoleType=Round|Shape=RoundedRectangle|*
%AMROUNDEDRECTD46*
21,1,0.0551,0.0276,0,0,270.0*
21,1,0.0276,0.0551,0,0,270.0*
1,1,0.0276,-0.0138,-0.0138*
1,1,0.0276,-0.0138,0.0138*
1,1,0.0276,0.0138,0.0138*
1,1,0.0276,0.0138,-0.0138*
%
%ADD46ROUNDEDRECTD46*%
%ADD47R,0.0551X0.0551*%
D42*
X60948Y44098D02*
D03*
X36496Y44096D02*
D03*
X52799Y44099D02*
D03*
X44649D02*
D03*
D43*
X66952Y44102D02*
D03*
X64949Y44099D02*
D03*
X62948Y44098D02*
D03*
X42500Y44100D02*
D03*
X40497Y44097D02*
D03*
X38496Y44096D02*
D03*
X58803Y44103D02*
D03*
X56800Y44100D02*
D03*
X54799Y44099D02*
D03*
X46649D02*
D03*
X48650Y44100D02*
D03*
X50653Y44103D02*
D03*
D44*
X60900Y48450D02*
D03*
X66900D02*
D03*
X65900Y45450D02*
D03*
X60900D02*
D03*
X36600Y45500D02*
D03*
X41600D02*
D03*
X42600Y48500D02*
D03*
X36600D02*
D03*
X44700D02*
D03*
X50700D02*
D03*
X49700Y45500D02*
D03*
X44700D02*
D03*
X52800Y48500D02*
D03*
X58800D02*
D03*
X57800Y45500D02*
D03*
X52800D02*
D03*
D45*
X75500Y44800D02*
D03*
Y45587D02*
D03*
Y46375D02*
D03*
X34650Y45300D02*
D03*
Y46088D02*
D03*
Y46875D02*
D03*
Y47663D02*
D03*
D46*
X75500Y47162D02*
D03*
D47*
X34650Y48450D02*
D03*
M02*
