G04*
G04 #@! TF.GenerationSoftware,Altium Limited,Altium Designer,23.0.1 (38)*
G04*
G04 Layer_Physical_Order=2*
G04 Layer_Color=16711680*
<<<<<<< HEAD
%FSLAX24Y24*%
%MOIN*%
G70*
G04*
G04 #@! TF.SameCoordinates,BEEE6B11-5ECA-4AAD-BFAB-FF97A37F51A9*
=======
%FSLAX25Y25*%
%MOIN*%
G70*
G04*
G04 #@! TF.SameCoordinates,3E06254A-0F58-42D6-91FB-0DF0C2053515*
>>>>>>> 086f05f611e4eabd8aa2a084d90faab6d215b326
G04*
G04*
G04 #@! TF.FilePolarity,Positive*
G04*
G01*
G75*
<<<<<<< HEAD
%ADD10C,0.0100*%
%ADD40C,0.0250*%
%ADD41C,0.0150*%
%ADD42R,0.1100X0.1200*%
%ADD43O,0.1100X0.1200*%
%ADD44C,0.0984*%
%ADD45C,0.0551*%
G04:AMPARAMS|DCode=46|XSize=55.1mil|YSize=55.1mil|CornerRadius=13.8mil|HoleSize=0mil|Usage=FLASHONLY|Rotation=270.000|XOffset=0mil|YOffset=0mil|HoleType=Round|Shape=RoundedRectangle|*
%AMROUNDEDRECTD46*
21,1,0.0551,0.0276,0,0,270.0*
21,1,0.0276,0.0551,0,0,270.0*
1,1,0.0276,-0.0138,-0.0138*
1,1,0.0276,-0.0138,0.0138*
1,1,0.0276,0.0138,0.0138*
1,1,0.0276,0.0138,-0.0138*
%
%ADD46ROUNDEDRECTD46*%
%ADD47R,0.0551X0.0551*%
%ADD48C,0.0500*%
G36*
X55106Y50750D02*
X55120Y50700D01*
X55085Y50680D01*
X55020Y50615D01*
X54999Y50578D01*
X48378D01*
X48376Y50585D01*
X48330Y50665D01*
X48295Y50700D01*
X48316Y50750D01*
X55106D01*
D02*
G37*
G36*
X76441Y49807D02*
X76422Y49760D01*
X73882D01*
X73846Y49822D01*
X73797Y49872D01*
X73818Y49922D01*
X76326D01*
X76441Y49807D01*
D02*
G37*
G36*
X73335Y49872D02*
X73286Y49822D01*
X73240Y49743D01*
X73216Y49654D01*
Y49561D01*
X73240Y49472D01*
X73286Y49393D01*
X73345Y49334D01*
X73349Y49282D01*
X73343Y49274D01*
X73280Y49211D01*
X73234Y49131D01*
X73216Y49062D01*
X73163Y49044D01*
X72635Y49572D01*
X72650Y49629D01*
Y49721D01*
X72626Y49810D01*
X72591Y49872D01*
X72615Y49922D01*
X73315D01*
X73335Y49872D01*
D02*
G37*
G36*
X76174Y48710D02*
Y47540D01*
X75949Y47315D01*
X75877D01*
X75862Y47393D01*
X75809Y47471D01*
X75731Y47524D01*
X75638Y47542D01*
X75362D01*
X75269Y47524D01*
X75191Y47471D01*
X75138Y47393D01*
X75120Y47300D01*
Y47024D01*
X75138Y46932D01*
X75191Y46853D01*
X75269Y46800D01*
X75362Y46782D01*
X75375D01*
X75382Y46732D01*
X75355Y46725D01*
X75269Y46675D01*
X75199Y46605D01*
X75150Y46520D01*
X75124Y46424D01*
Y46325D01*
X75150Y46230D01*
X75199Y46144D01*
X75269Y46074D01*
X75355Y46025D01*
X75422Y46007D01*
Y45955D01*
X75355Y45937D01*
X75269Y45888D01*
X75199Y45818D01*
X75150Y45732D01*
X75124Y45637D01*
Y45538D01*
X75150Y45442D01*
X75199Y45357D01*
X75269Y45287D01*
X75355Y45237D01*
X75422Y45220D01*
Y45168D01*
X75355Y45150D01*
X75269Y45101D01*
X75199Y45031D01*
X75150Y44945D01*
X75125Y44850D01*
X75500D01*
Y44800D01*
X75550D01*
Y44425D01*
X75645Y44450D01*
X75722Y44495D01*
X75772Y44478D01*
Y44025D01*
X73576Y41828D01*
X70264D01*
X70243Y41878D01*
X70507Y42142D01*
X73358Y44993D01*
X73391Y45043D01*
X73403Y45101D01*
Y48629D01*
X73453Y48663D01*
X73514Y48646D01*
X73606D01*
X73695Y48670D01*
X73775Y48716D01*
X73840Y48781D01*
X73876Y48843D01*
X76040D01*
X76174Y48710D01*
D02*
G37*
G36*
X73097Y48677D02*
Y47985D01*
X73051Y47965D01*
X72504Y48512D01*
Y48786D01*
X72519Y48795D01*
X72584Y48860D01*
X72630Y48940D01*
X72654Y49029D01*
Y49055D01*
X72700Y49074D01*
X73097Y48677D01*
D02*
G37*
G36*
X76747Y49137D02*
Y47163D01*
X76111Y46528D01*
X75845D01*
X75801Y46605D01*
X75731Y46675D01*
X75645Y46725D01*
X75618Y46732D01*
X75625Y46782D01*
X75638D01*
X75731Y46800D01*
X75809Y46853D01*
X75862Y46932D01*
X75877Y47009D01*
X76012D01*
X76071Y47021D01*
X76120Y47054D01*
X76435Y47369D01*
X76468Y47418D01*
X76480Y47477D01*
Y48773D01*
X76468Y48832D01*
X76435Y48881D01*
X76212Y49104D01*
X76162Y49138D01*
X76104Y49149D01*
X73876D01*
X73840Y49211D01*
X73782Y49270D01*
X73778Y49322D01*
X73783Y49329D01*
X73846Y49393D01*
X73882Y49455D01*
X76429D01*
X76747Y49137D01*
D02*
G37*
G36*
X47784Y50750D02*
X47805Y50700D01*
X47770Y50665D01*
X47724Y50585D01*
X47700Y50496D01*
Y50404D01*
X47724Y50315D01*
X47770Y50235D01*
X47835Y50170D01*
X47915Y50124D01*
X48004Y50100D01*
X48096D01*
X48185Y50124D01*
X48265Y50170D01*
X48330Y50235D01*
X48351Y50272D01*
X54972D01*
X54974Y50265D01*
X55020Y50185D01*
X55085Y50120D01*
X55165Y50074D01*
X55254Y50050D01*
X55346D01*
X55435Y50074D01*
X55515Y50120D01*
X55580Y50185D01*
X55626Y50265D01*
X55650Y50354D01*
Y50446D01*
X55626Y50535D01*
X55580Y50615D01*
X55515Y50680D01*
X55480Y50700D01*
X55494Y50750D01*
X66779Y50750D01*
X66794Y50700D01*
X66738Y50662D01*
X61755Y45679D01*
X61446D01*
X61425Y45730D01*
X61360Y45827D01*
X61277Y45910D01*
X61180Y45975D01*
X61073Y46019D01*
X60958Y46042D01*
X60842D01*
X60727Y46019D01*
X60620Y45975D01*
X60523Y45910D01*
X60440Y45827D01*
X60375Y45730D01*
X60331Y45623D01*
X60308Y45508D01*
Y45392D01*
X60331Y45277D01*
X60375Y45170D01*
X60440Y45073D01*
X60523Y44990D01*
X60620Y44925D01*
X60727Y44881D01*
X60842Y44858D01*
X60958D01*
X61073Y44881D01*
X61180Y44925D01*
X61277Y44990D01*
X61360Y45073D01*
X61425Y45170D01*
X61446Y45221D01*
X61850D01*
X61938Y45238D01*
X62012Y45288D01*
X66995Y50271D01*
X70950D01*
X70965Y50244D01*
X70968Y50221D01*
X70724Y49976D01*
X70685Y49918D01*
X70672Y49850D01*
Y49350D01*
X70685Y49282D01*
X70724Y49224D01*
X70974Y48974D01*
X70974Y48974D01*
X71032Y48935D01*
X71100Y48922D01*
X71188D01*
X71224Y48860D01*
X71289Y48795D01*
X71325Y48774D01*
Y45578D01*
X69987Y44239D01*
X69946Y44250D01*
X69854D01*
X69765Y44226D01*
X69685Y44180D01*
X69620Y44115D01*
X69574Y44035D01*
X69550Y43946D01*
Y43854D01*
X69574Y43765D01*
X69620Y43685D01*
X69685Y43620D01*
X69765Y43574D01*
X69854Y43550D01*
X69946D01*
X70035Y43574D01*
X70115Y43620D01*
X70180Y43685D01*
X70226Y43765D01*
X70250Y43854D01*
Y43946D01*
X70239Y43987D01*
X71630Y45378D01*
X71669Y45436D01*
X71682Y45504D01*
X71682Y45504D01*
Y48738D01*
X71701Y48750D01*
X71751Y48722D01*
Y44667D01*
X71315Y44231D01*
X71246Y44250D01*
X71154D01*
X71065Y44226D01*
X70985Y44180D01*
X70920Y44115D01*
X70874Y44035D01*
X70850Y43946D01*
Y43854D01*
X70869Y43785D01*
X69737Y42653D01*
X35213D01*
X34153Y43713D01*
Y45935D01*
X34305D01*
X34349Y45857D01*
X34419Y45787D01*
X34505Y45738D01*
X34572Y45720D01*
Y45668D01*
X34505Y45650D01*
X34419Y45601D01*
X34349Y45531D01*
X34300Y45445D01*
X34275Y45350D01*
X34650D01*
X35025D01*
X35000Y45445D01*
X34951Y45531D01*
X34881Y45601D01*
X34795Y45650D01*
X34728Y45668D01*
Y45720D01*
X34795Y45738D01*
X34881Y45787D01*
X34951Y45857D01*
X35000Y45943D01*
X35026Y46038D01*
Y46137D01*
X35000Y46233D01*
X34951Y46318D01*
X34881Y46388D01*
X34795Y46438D01*
X34728Y46456D01*
Y46507D01*
X34795Y46525D01*
X34881Y46575D01*
X34951Y46645D01*
X35000Y46730D01*
X35026Y46826D01*
Y46925D01*
X35000Y47020D01*
X34951Y47106D01*
X34881Y47176D01*
X34795Y47225D01*
X34728Y47243D01*
Y47295D01*
X34795Y47313D01*
X34881Y47362D01*
X34951Y47432D01*
X35000Y47518D01*
X35026Y47613D01*
Y47712D01*
X35000Y47808D01*
X34951Y47893D01*
X34881Y47963D01*
X34795Y48013D01*
X34751Y48024D01*
X34757Y48074D01*
X35026D01*
Y48826D01*
X34274D01*
Y48327D01*
X33296Y47349D01*
X33250Y47368D01*
Y49900D01*
X33267Y49978D01*
X33322Y50127D01*
X33398Y50266D01*
X33494Y50394D01*
X33606Y50506D01*
X33734Y50602D01*
X33873Y50678D01*
X34022Y50733D01*
X34100Y50750D01*
X34100Y50750D01*
X47784Y50750D01*
D02*
G37*
G36*
X77072Y46997D02*
Y46022D01*
X75921Y44872D01*
X75866Y44887D01*
X75850Y44945D01*
X75801Y45031D01*
X75731Y45101D01*
X75645Y45150D01*
X75578Y45168D01*
Y45220D01*
X75645Y45237D01*
X75731Y45287D01*
X75801Y45357D01*
X75850Y45442D01*
X75876Y45538D01*
Y45637D01*
X75850Y45732D01*
X75801Y45818D01*
X75731Y45888D01*
X75645Y45937D01*
X75578Y45955D01*
Y46007D01*
X75645Y46025D01*
X75731Y46074D01*
X75801Y46144D01*
X75845Y46222D01*
X76175D01*
X76233Y46234D01*
X76283Y46267D01*
X77008Y46992D01*
X77022Y47012D01*
X77072Y46997D01*
D02*
G37*
G36*
X72169Y48749D02*
X72198Y48741D01*
Y48449D01*
X72210Y48390D01*
X72243Y48341D01*
X72897Y47687D01*
Y45248D01*
X71597Y43947D01*
X71545Y43966D01*
X71531Y44015D01*
X72012Y44496D01*
X72045Y44545D01*
X72057Y44604D01*
Y48761D01*
X72107Y48785D01*
X72169Y48749D01*
D02*
G37*
G36*
X77000Y50750D02*
X77088Y50735D01*
X77258Y50677D01*
X77417Y50595D01*
X77562Y50489D01*
X77689Y50362D01*
X77795Y50217D01*
X77877Y50058D01*
X77935Y49888D01*
X77950Y49800D01*
X77950D01*
X77950Y49800D01*
X77950Y42500D01*
X77935Y42412D01*
X77877Y42242D01*
X77795Y42083D01*
X77689Y41938D01*
X77562Y41811D01*
X77417Y41705D01*
X77258Y41623D01*
X77088Y41565D01*
X77000Y41550D01*
X77000Y41550D01*
X77000Y41550D01*
X73868D01*
X73849Y41596D01*
X76077Y43824D01*
X76115Y43882D01*
X76129Y43951D01*
X76129Y43951D01*
Y44575D01*
X77371Y45816D01*
X77394Y45813D01*
X77421Y45798D01*
Y43595D01*
X77226Y43400D01*
X77154D01*
X77065Y43376D01*
X76985Y43330D01*
X76920Y43265D01*
X76874Y43185D01*
X76850Y43096D01*
Y43004D01*
X76874Y42915D01*
X76920Y42835D01*
X76985Y42770D01*
X77065Y42724D01*
X77154Y42700D01*
X77246D01*
X77335Y42724D01*
X77415Y42770D01*
X77480Y42835D01*
X77526Y42915D01*
X77550Y43004D01*
Y43076D01*
X77812Y43338D01*
X77862Y43412D01*
X77879Y43500D01*
Y49600D01*
X77862Y49688D01*
X77812Y49762D01*
X76912Y50662D01*
X76856Y50700D01*
X76871Y50750D01*
X77000D01*
D02*
G37*
G36*
X34610Y41596D02*
X34591Y41550D01*
X34200D01*
X34112Y41565D01*
X33942Y41623D01*
X33783Y41705D01*
X33638Y41811D01*
X33511Y41938D01*
X33405Y42083D01*
X33323Y42242D01*
X33265Y42412D01*
X33250Y42500D01*
Y42891D01*
X33296Y42910D01*
X34610Y41596D01*
=======
%ADD10C,0.01000*%
%ADD40C,0.02500*%
%ADD41C,0.01500*%
%ADD42R,0.11000X0.12000*%
%ADD43O,0.11000X0.12000*%
%ADD44C,0.09843*%
%ADD45C,0.05512*%
G04:AMPARAMS|DCode=46|XSize=55.12mil|YSize=55.12mil|CornerRadius=13.78mil|HoleSize=0mil|Usage=FLASHONLY|Rotation=270.000|XOffset=0mil|YOffset=0mil|HoleType=Round|Shape=RoundedRectangle|*
%AMROUNDEDRECTD46*
21,1,0.05512,0.02756,0,0,270.0*
21,1,0.02756,0.05512,0,0,270.0*
1,1,0.02756,-0.01378,-0.01378*
1,1,0.02756,-0.01378,0.01378*
1,1,0.02756,0.01378,0.01378*
1,1,0.02756,0.01378,-0.01378*
%
%ADD46ROUNDEDRECTD46*%
%ADD47R,0.05512X0.05512*%
%ADD48C,0.05000*%
G36*
X551062Y507500D02*
X551196Y507000D01*
X550851Y506801D01*
X550199Y506149D01*
X549986Y505779D01*
X483781D01*
X483762Y505851D01*
X483301Y506649D01*
X482950Y507000D01*
X483157Y507500D01*
X551062D01*
D02*
G37*
G36*
X764410Y498066D02*
X764219Y497604D01*
X738822D01*
X738464Y498224D01*
X737972Y498716D01*
X738179Y499216D01*
X763261D01*
X764410Y498066D01*
D02*
G37*
G36*
X733354Y498716D02*
X732862Y498224D01*
X732402Y497426D01*
X732163Y496536D01*
Y495614D01*
X732402Y494724D01*
X732862Y493926D01*
X733449Y493339D01*
X733486Y492816D01*
X733433Y492744D01*
X732801Y492112D01*
X732340Y491314D01*
X732155Y490623D01*
X731634Y490437D01*
X726348Y495723D01*
X726500Y496289D01*
Y497211D01*
X726262Y498101D01*
X725907Y498716D01*
X726147Y499216D01*
X733147D01*
X733354Y498716D01*
D02*
G37*
G36*
X761737Y487100D02*
Y475400D01*
X759489Y473151D01*
X758772D01*
X758618Y473928D01*
X758092Y474714D01*
X757306Y475240D01*
X756378Y475424D01*
X753622D01*
X752694Y475240D01*
X751908Y474714D01*
X751382Y473928D01*
X751197Y473000D01*
Y470244D01*
X751382Y469316D01*
X751908Y468530D01*
X752694Y468004D01*
X753622Y467820D01*
X753752D01*
X753818Y467320D01*
X753550Y467248D01*
X752694Y466753D01*
X751995Y466054D01*
X751500Y465198D01*
X751244Y464243D01*
Y463254D01*
X751500Y462298D01*
X751995Y461442D01*
X752694Y460743D01*
X753550Y460248D01*
X754215Y460070D01*
Y459552D01*
X753550Y459374D01*
X752694Y458880D01*
X751995Y458180D01*
X751500Y457324D01*
X751244Y456368D01*
Y455380D01*
X751500Y454424D01*
X751995Y453568D01*
X752694Y452869D01*
X753550Y452374D01*
X754215Y452196D01*
Y451678D01*
X753550Y451500D01*
X752694Y451006D01*
X751995Y450306D01*
X751500Y449450D01*
X751246Y448500D01*
X755000D01*
Y448000D01*
X755500D01*
Y444246D01*
X756450Y444500D01*
X757222Y444946D01*
X757722Y444777D01*
Y440245D01*
X735761Y418284D01*
X702639D01*
X702432Y418784D01*
X705067Y421419D01*
X733581Y449933D01*
X733913Y450429D01*
X734029Y451015D01*
Y486290D01*
X734529Y486627D01*
X735141Y486463D01*
X736063D01*
X736953Y486702D01*
X737751Y487163D01*
X738403Y487814D01*
X738760Y488434D01*
X760403D01*
X761737Y487100D01*
D02*
G37*
G36*
X730971Y486775D02*
Y479846D01*
X730509Y479654D01*
X725039Y485123D01*
Y487863D01*
X725190Y487949D01*
X725841Y488601D01*
X726302Y489399D01*
X726541Y490289D01*
Y490552D01*
X727002Y490743D01*
X730971Y486775D01*
D02*
G37*
G36*
X767471Y491366D02*
Y471633D01*
X761115Y465277D01*
X758454D01*
X758006Y466054D01*
X757306Y466753D01*
X756450Y467248D01*
X756182Y467320D01*
X756248Y467820D01*
X756378D01*
X757306Y468004D01*
X758092Y468530D01*
X758618Y469316D01*
X758772Y470093D01*
X760122D01*
X760707Y470209D01*
X761203Y470541D01*
X764348Y473685D01*
X764679Y474181D01*
X764796Y474767D01*
Y487733D01*
X764679Y488319D01*
X764348Y488815D01*
X762118Y491045D01*
X761622Y491376D01*
X761037Y491493D01*
X738760D01*
X738403Y492112D01*
X737816Y492699D01*
X737779Y493222D01*
X737832Y493294D01*
X738464Y493926D01*
X738822Y494546D01*
X764292D01*
X767471Y491366D01*
D02*
G37*
G36*
X477843Y507500D02*
X478050Y507000D01*
X477699Y506649D01*
X477239Y505851D01*
X477000Y504961D01*
Y504039D01*
X477239Y503149D01*
X477699Y502351D01*
X478351Y501699D01*
X479149Y501238D01*
X480039Y501000D01*
X480961D01*
X481851Y501238D01*
X482649Y501699D01*
X483301Y502351D01*
X483514Y502721D01*
X549719D01*
X549739Y502649D01*
X550199Y501851D01*
X550851Y501199D01*
X551649Y500738D01*
X552539Y500500D01*
X553461D01*
X554351Y500738D01*
X555149Y501199D01*
X555801Y501851D01*
X556261Y502649D01*
X556500Y503539D01*
Y504461D01*
X556261Y505351D01*
X555801Y506149D01*
X555149Y506801D01*
X554804Y507000D01*
X554938Y507500D01*
X667792Y507500D01*
X667943Y507000D01*
X667378Y506622D01*
X617550Y456794D01*
X614459D01*
X614247Y457305D01*
X613599Y458275D01*
X612775Y459099D01*
X611805Y459747D01*
X610727Y460194D01*
X609583Y460421D01*
X608417D01*
X607273Y460194D01*
X606195Y459747D01*
X605225Y459099D01*
X604401Y458275D01*
X603753Y457305D01*
X603306Y456227D01*
X603079Y455083D01*
Y453917D01*
X603306Y452773D01*
X603753Y451695D01*
X604401Y450725D01*
X605225Y449901D01*
X606195Y449253D01*
X607273Y448806D01*
X608417Y448579D01*
X609583D01*
X610727Y448806D01*
X611805Y449253D01*
X612775Y449901D01*
X613599Y450725D01*
X614247Y451695D01*
X614459Y452206D01*
X618500D01*
X619378Y452381D01*
X620122Y452878D01*
X669950Y502706D01*
X709503D01*
X709646Y502435D01*
X709683Y502206D01*
X707238Y499762D01*
X706851Y499183D01*
X706716Y498500D01*
Y493500D01*
X706851Y492817D01*
X707238Y492238D01*
X709738Y489739D01*
X709738Y489738D01*
X710317Y489352D01*
X711000Y489216D01*
X711883D01*
X712238Y488601D01*
X712890Y487949D01*
X713255Y487739D01*
Y455778D01*
X699868Y442391D01*
X699461Y442500D01*
X698539D01*
X697649Y442262D01*
X696851Y441801D01*
X696199Y441149D01*
X695739Y440351D01*
X695500Y439461D01*
Y438539D01*
X695739Y437649D01*
X696199Y436851D01*
X696851Y436199D01*
X697649Y435739D01*
X698539Y435500D01*
X699461D01*
X700351Y435739D01*
X701149Y436199D01*
X701801Y436851D01*
X702261Y437649D01*
X702500Y438539D01*
Y439461D01*
X702391Y439868D01*
X716300Y453777D01*
X716687Y454356D01*
X716823Y455039D01*
X716823Y455039D01*
Y487381D01*
X717009Y487499D01*
X717510Y487224D01*
Y446672D01*
X713152Y442315D01*
X712461Y442500D01*
X711539D01*
X710649Y442262D01*
X709851Y441801D01*
X709199Y441149D01*
X708739Y440351D01*
X708500Y439461D01*
Y438539D01*
X708685Y437848D01*
X697367Y426529D01*
X352133D01*
X341529Y437134D01*
Y459349D01*
X343046D01*
X343495Y458572D01*
X344194Y457872D01*
X345050Y457378D01*
X345715Y457200D01*
Y456682D01*
X345050Y456504D01*
X344194Y456009D01*
X343495Y455310D01*
X343000Y454454D01*
X342746Y453504D01*
X346500D01*
X350254D01*
X350000Y454454D01*
X349505Y455310D01*
X348806Y456009D01*
X347950Y456504D01*
X347285Y456682D01*
Y457200D01*
X347950Y457378D01*
X348806Y457872D01*
X349505Y458572D01*
X350000Y459428D01*
X350256Y460384D01*
Y461373D01*
X350000Y462328D01*
X349505Y463184D01*
X348806Y463883D01*
X347950Y464378D01*
X347285Y464556D01*
Y465074D01*
X347950Y465252D01*
X348806Y465746D01*
X349505Y466446D01*
X350000Y467302D01*
X350256Y468258D01*
Y469246D01*
X350000Y470202D01*
X349505Y471058D01*
X348806Y471758D01*
X347950Y472252D01*
X347285Y472430D01*
Y472948D01*
X347950Y473126D01*
X348806Y473621D01*
X349505Y474320D01*
X350000Y475176D01*
X350256Y476131D01*
Y477120D01*
X350000Y478076D01*
X349505Y478932D01*
X348806Y479632D01*
X347950Y480126D01*
X347509Y480244D01*
X347575Y480744D01*
X350256D01*
Y488256D01*
X342744D01*
Y483267D01*
X332962Y473485D01*
X332500Y473677D01*
Y499000D01*
X332668Y499777D01*
X333223Y501268D01*
X333985Y502664D01*
X334938Y503938D01*
X336062Y505062D01*
X337336Y506015D01*
X338732Y506777D01*
X340223Y507332D01*
X341000Y507500D01*
X341000Y507500D01*
X477843Y507500D01*
D02*
G37*
G36*
X770716Y469968D02*
Y460220D01*
X759214Y448718D01*
X758656Y448868D01*
X758500Y449450D01*
X758006Y450306D01*
X757306Y451006D01*
X756450Y451500D01*
X755785Y451678D01*
Y452196D01*
X756450Y452374D01*
X757306Y452869D01*
X758006Y453568D01*
X758500Y454424D01*
X758756Y455380D01*
Y456368D01*
X758500Y457324D01*
X758006Y458180D01*
X757306Y458880D01*
X756450Y459374D01*
X755785Y459552D01*
Y460070D01*
X756450Y460248D01*
X757306Y460743D01*
X758006Y461442D01*
X758454Y462219D01*
X761748D01*
X762333Y462335D01*
X762829Y462667D01*
X770081Y469918D01*
X770216Y470119D01*
X770716Y469968D01*
D02*
G37*
G36*
X721690Y487489D02*
X721981Y487411D01*
Y484490D01*
X722097Y483905D01*
X722429Y483408D01*
X728971Y476866D01*
Y452477D01*
X715968Y439474D01*
X715447Y439660D01*
X715315Y440152D01*
X720120Y444957D01*
X720452Y445454D01*
X720568Y446039D01*
Y487612D01*
X721068Y487847D01*
X721690Y487489D01*
D02*
G37*
G36*
X770000Y507500D02*
X770883Y507346D01*
X772582Y506773D01*
X774173Y505947D01*
X775620Y504888D01*
X776888Y503620D01*
X777947Y502173D01*
X778773Y500582D01*
X779346Y498883D01*
X779500Y498000D01*
X779500D01*
X779500Y498000D01*
X779500Y425000D01*
X779346Y424117D01*
X778773Y422418D01*
X777947Y420827D01*
X776888Y419380D01*
X775620Y418112D01*
X774173Y417053D01*
X772582Y416227D01*
X770883Y415654D01*
X770000Y415500D01*
X770000Y415500D01*
X770000Y415500D01*
X738677D01*
X738485Y415962D01*
X760768Y438244D01*
X761154Y438823D01*
X761290Y439506D01*
X761290Y439506D01*
Y445748D01*
X773706Y458164D01*
X773935Y458128D01*
X774206Y457984D01*
Y435950D01*
X772256Y434000D01*
X771539D01*
X770649Y433762D01*
X769851Y433301D01*
X769199Y432649D01*
X768739Y431851D01*
X768500Y430961D01*
Y430039D01*
X768739Y429149D01*
X769199Y428351D01*
X769851Y427699D01*
X770649Y427239D01*
X771539Y427000D01*
X772461D01*
X773351Y427239D01*
X774149Y427699D01*
X774801Y428351D01*
X775261Y429149D01*
X775500Y430039D01*
Y430756D01*
X778122Y433378D01*
X778619Y434122D01*
X778794Y435000D01*
Y496000D01*
X778619Y496878D01*
X778122Y497622D01*
X769122Y506622D01*
X768557Y507000D01*
X768708Y507500D01*
X770000D01*
D02*
G37*
G36*
X346100Y415962D02*
X345909Y415500D01*
X342000D01*
X341117Y415654D01*
X339418Y416227D01*
X337827Y417053D01*
X336380Y418112D01*
X335112Y419380D01*
X334053Y420827D01*
X333227Y422418D01*
X332654Y424117D01*
X332500Y425000D01*
Y428909D01*
X332962Y429101D01*
X346100Y415962D01*
>>>>>>> 086f05f611e4eabd8aa2a084d90faab6d215b326
D02*
G37*
%LPC*%
G36*
<<<<<<< HEAD
X75450Y44750D02*
X75125D01*
X75150Y44655D01*
X75199Y44569D01*
X75269Y44499D01*
X75355Y44450D01*
X75450Y44425D01*
Y44750D01*
D02*
G37*
G36*
X42550Y49953D02*
X41600D01*
X41541Y49941D01*
X41492Y49908D01*
X41465Y49881D01*
X41396Y49900D01*
X41304D01*
X41215Y49876D01*
X41135Y49830D01*
X41070Y49765D01*
X41024Y49685D01*
X41000Y49596D01*
Y49504D01*
X41024Y49415D01*
X41070Y49335D01*
X41135Y49270D01*
X41215Y49224D01*
X41304Y49200D01*
X41396D01*
X41485Y49224D01*
X41565Y49270D01*
X41630Y49335D01*
X41676Y49415D01*
X41700Y49504D01*
Y49596D01*
X41697Y49607D01*
X41727Y49647D01*
X42487D01*
X43497Y48637D01*
Y43737D01*
X43509Y43678D01*
X43542Y43628D01*
X44128Y43042D01*
X44178Y43009D01*
X44237Y42997D01*
X67450D01*
X67509Y43009D01*
X67558Y43042D01*
X70258Y45742D01*
X70291Y45791D01*
X70303Y45850D01*
Y46515D01*
X70335Y46524D01*
X70415Y46570D01*
X70480Y46635D01*
X70526Y46715D01*
X70550Y46804D01*
Y46896D01*
X70526Y46985D01*
X70480Y47065D01*
X70415Y47130D01*
X70335Y47176D01*
X70246Y47200D01*
X70154D01*
X70065Y47176D01*
X69985Y47130D01*
X69920Y47065D01*
X69874Y46985D01*
X69850Y46896D01*
Y46804D01*
X69874Y46715D01*
X69920Y46635D01*
X69985Y46570D01*
X69997Y46563D01*
Y45913D01*
X67387Y43303D01*
X44300D01*
X44250Y43353D01*
X44269Y43399D01*
X45299D01*
Y44799D01*
X43999D01*
Y43669D01*
X43953Y43650D01*
X43803Y43800D01*
Y48700D01*
X43791Y48759D01*
X43758Y48808D01*
X42658Y49908D01*
X42609Y49941D01*
X42550Y49953D01*
D02*
G37*
G36*
X58858Y49092D02*
X58742D01*
X58627Y49069D01*
X58520Y49025D01*
X58423Y48960D01*
X58340Y48877D01*
X58275Y48780D01*
X58231Y48673D01*
X58208Y48558D01*
Y48442D01*
X58231Y48327D01*
X58252Y48276D01*
X56518Y46542D01*
X56468Y46468D01*
X56451Y46380D01*
Y44700D01*
X56437Y44693D01*
X56338Y44612D01*
X56257Y44513D01*
X56197Y44400D01*
X56159Y44277D01*
X56147Y44150D01*
Y44050D01*
X56159Y43923D01*
X56197Y43800D01*
X56257Y43687D01*
X56338Y43588D01*
X56437Y43507D01*
X56550Y43447D01*
X56673Y43409D01*
X56800Y43397D01*
X56927Y43409D01*
X57050Y43447D01*
X57163Y43507D01*
X57262Y43588D01*
X57343Y43687D01*
X57403Y43800D01*
X57441Y43923D01*
X57453Y44050D01*
Y44150D01*
X57441Y44277D01*
X57403Y44400D01*
X57343Y44513D01*
X57262Y44612D01*
X57163Y44693D01*
X57050Y44753D01*
X56927Y44791D01*
X56909Y44792D01*
Y46285D01*
X58576Y47952D01*
X58627Y47931D01*
X58742Y47908D01*
X58858D01*
X58973Y47931D01*
X59080Y47975D01*
X59177Y48040D01*
X59260Y48123D01*
X59325Y48220D01*
X59369Y48327D01*
X59392Y48442D01*
Y48558D01*
X59369Y48673D01*
X59325Y48780D01*
X59260Y48877D01*
X59177Y48960D01*
X59080Y49025D01*
X58973Y49069D01*
X58858Y49092D01*
D02*
G37*
G36*
X52858D02*
X52742D01*
X52627Y49069D01*
X52520Y49025D01*
X52423Y48960D01*
X52340Y48877D01*
X52275Y48780D01*
X52231Y48673D01*
X52208Y48558D01*
Y48442D01*
X52231Y48327D01*
X52275Y48220D01*
X52340Y48123D01*
X52423Y48040D01*
X52520Y47975D01*
X52627Y47931D01*
X52742Y47908D01*
X52858D01*
X52973Y47931D01*
X53080Y47975D01*
X53177Y48040D01*
X53260Y48123D01*
X53325Y48220D01*
X53369Y48327D01*
X53392Y48442D01*
Y48558D01*
X53369Y48673D01*
X53325Y48780D01*
X53260Y48877D01*
X53177Y48960D01*
X53080Y49025D01*
X52973Y49069D01*
X52858Y49092D01*
D02*
G37*
G36*
X50758D02*
X50642D01*
X50527Y49069D01*
X50420Y49025D01*
X50323Y48960D01*
X50240Y48877D01*
X50175Y48780D01*
X50131Y48673D01*
X50108Y48558D01*
Y48442D01*
X50131Y48327D01*
X50152Y48276D01*
X48488Y46612D01*
X48438Y46538D01*
X48421Y46450D01*
Y44760D01*
X48400Y44753D01*
X48287Y44693D01*
X48188Y44612D01*
X48107Y44513D01*
X48047Y44400D01*
X48009Y44277D01*
X47997Y44150D01*
Y44050D01*
X48009Y43923D01*
X48047Y43800D01*
X48107Y43687D01*
X48188Y43588D01*
X48287Y43507D01*
X48400Y43447D01*
X48523Y43409D01*
X48650Y43397D01*
X48777Y43409D01*
X48900Y43447D01*
X49013Y43507D01*
X49112Y43588D01*
X49193Y43687D01*
X49253Y43800D01*
X49291Y43923D01*
X49303Y44050D01*
Y44150D01*
X49291Y44277D01*
X49253Y44400D01*
X49193Y44513D01*
X49112Y44612D01*
X49013Y44693D01*
X48900Y44753D01*
X48879Y44760D01*
Y46355D01*
X50476Y47952D01*
X50527Y47931D01*
X50642Y47908D01*
X50758D01*
X50873Y47931D01*
X50980Y47975D01*
X51077Y48040D01*
X51160Y48123D01*
X51225Y48220D01*
X51269Y48327D01*
X51292Y48442D01*
Y48558D01*
X51269Y48673D01*
X51225Y48780D01*
X51160Y48877D01*
X51077Y48960D01*
X50980Y49025D01*
X50873Y49069D01*
X50758Y49092D01*
D02*
G37*
G36*
X44758D02*
X44642D01*
X44527Y49069D01*
X44420Y49025D01*
X44323Y48960D01*
X44240Y48877D01*
X44175Y48780D01*
X44131Y48673D01*
X44108Y48558D01*
Y48442D01*
X44131Y48327D01*
X44175Y48220D01*
X44240Y48123D01*
X44323Y48040D01*
X44420Y47975D01*
X44527Y47931D01*
X44642Y47908D01*
X44758D01*
X44873Y47931D01*
X44980Y47975D01*
X45077Y48040D01*
X45160Y48123D01*
X45225Y48220D01*
X45269Y48327D01*
X45292Y48442D01*
Y48558D01*
X45269Y48673D01*
X45225Y48780D01*
X45160Y48877D01*
X45077Y48960D01*
X44980Y49025D01*
X44873Y49069D01*
X44758Y49092D01*
D02*
G37*
G36*
X42658D02*
X42542D01*
X42427Y49069D01*
X42320Y49025D01*
X42223Y48960D01*
X42140Y48877D01*
X42075Y48780D01*
X42031Y48673D01*
X42008Y48558D01*
Y48442D01*
X42031Y48327D01*
X42052Y48276D01*
X40334Y46559D01*
X40285Y46484D01*
X40267Y46397D01*
Y44756D01*
X40247Y44750D01*
X40134Y44690D01*
X40035Y44609D01*
X39954Y44510D01*
X39893Y44397D01*
X39856Y44274D01*
X39844Y44147D01*
Y44047D01*
X39856Y43919D01*
X39893Y43797D01*
X39954Y43684D01*
X40035Y43585D01*
X40134Y43504D01*
X40247Y43443D01*
X40369Y43406D01*
X40497Y43394D01*
X40624Y43406D01*
X40747Y43443D01*
X40860Y43504D01*
X40959Y43585D01*
X41040Y43684D01*
X41100Y43797D01*
X41137Y43919D01*
X41150Y44047D01*
Y44147D01*
X41137Y44274D01*
X41100Y44397D01*
X41040Y44510D01*
X40959Y44609D01*
X40860Y44690D01*
X40747Y44750D01*
X40726Y44756D01*
Y46302D01*
X42376Y47952D01*
X42427Y47931D01*
X42542Y47908D01*
X42658D01*
X42773Y47931D01*
X42880Y47975D01*
X42977Y48040D01*
X43060Y48123D01*
X43125Y48220D01*
X43169Y48327D01*
X43192Y48442D01*
Y48558D01*
X43169Y48673D01*
X43125Y48780D01*
X43060Y48877D01*
X42977Y48960D01*
X42880Y49025D01*
X42773Y49069D01*
X42658Y49092D01*
D02*
G37*
G36*
X36658D02*
X36542D01*
X36427Y49069D01*
X36320Y49025D01*
X36223Y48960D01*
X36140Y48877D01*
X36075Y48780D01*
X36031Y48673D01*
X36008Y48558D01*
Y48442D01*
X36031Y48327D01*
X36075Y48220D01*
X36140Y48123D01*
X36223Y48040D01*
X36320Y47975D01*
X36427Y47931D01*
X36542Y47908D01*
X36658D01*
X36773Y47931D01*
X36880Y47975D01*
X36977Y48040D01*
X37060Y48123D01*
X37125Y48220D01*
X37169Y48327D01*
X37192Y48442D01*
Y48558D01*
X37169Y48673D01*
X37125Y48780D01*
X37060Y48877D01*
X36977Y48960D01*
X36880Y49025D01*
X36773Y49069D01*
X36658Y49092D01*
D02*
G37*
G36*
X66958Y49042D02*
X66842D01*
X66727Y49019D01*
X66620Y48975D01*
X66523Y48910D01*
X66440Y48827D01*
X66375Y48730D01*
X66331Y48623D01*
X66308Y48508D01*
Y48392D01*
X66331Y48277D01*
X66352Y48226D01*
X64688Y46562D01*
X64638Y46488D01*
X64621Y46400D01*
Y44710D01*
X64586Y44692D01*
X64487Y44611D01*
X64406Y44512D01*
X64345Y44399D01*
X64308Y44276D01*
X64296Y44149D01*
Y44049D01*
X64308Y43921D01*
X64345Y43799D01*
X64406Y43686D01*
X64487Y43587D01*
X64586Y43506D01*
X64699Y43445D01*
X64821Y43408D01*
X64949Y43396D01*
X65076Y43408D01*
X65199Y43445D01*
X65312Y43506D01*
X65410Y43587D01*
X65492Y43686D01*
X65552Y43799D01*
X65589Y43921D01*
X65602Y44049D01*
Y44149D01*
X65589Y44276D01*
X65552Y44399D01*
X65492Y44512D01*
X65410Y44611D01*
X65312Y44692D01*
X65199Y44752D01*
X65079Y44788D01*
Y46305D01*
X66676Y47902D01*
X66727Y47881D01*
X66842Y47858D01*
X66958D01*
X67073Y47881D01*
X67180Y47925D01*
X67277Y47990D01*
X67360Y48073D01*
X67425Y48170D01*
X67469Y48277D01*
X67492Y48392D01*
Y48508D01*
X67469Y48623D01*
X67425Y48730D01*
X67360Y48827D01*
X67277Y48910D01*
X67180Y48975D01*
X67073Y49019D01*
X66958Y49042D01*
D02*
G37*
G36*
X60958D02*
X60842D01*
X60727Y49019D01*
X60620Y48975D01*
X60523Y48910D01*
X60440Y48827D01*
X60375Y48730D01*
X60331Y48623D01*
X60308Y48508D01*
Y48392D01*
X60331Y48277D01*
X60375Y48170D01*
X60440Y48073D01*
X60523Y47990D01*
X60620Y47925D01*
X60727Y47881D01*
X60842Y47858D01*
X60958D01*
X61073Y47881D01*
X61180Y47925D01*
X61277Y47990D01*
X61360Y48073D01*
X61425Y48170D01*
X61469Y48277D01*
X61492Y48392D01*
Y48508D01*
X61469Y48623D01*
X61425Y48730D01*
X61360Y48827D01*
X61277Y48910D01*
X61180Y48975D01*
X61073Y49019D01*
X60958Y49042D01*
D02*
G37*
G36*
X35025Y45250D02*
X34700D01*
Y44925D01*
X34795Y44950D01*
X34881Y45000D01*
X34951Y45070D01*
X35000Y45155D01*
X35025Y45250D01*
D02*
G37*
G36*
X34600D02*
X34275D01*
X34300Y45155D01*
X34349Y45070D01*
X34419Y45000D01*
X34505Y44950D01*
X34600Y44925D01*
Y45250D01*
D02*
G37*
G36*
X57858Y46092D02*
X57742D01*
X57627Y46069D01*
X57520Y46025D01*
X57423Y45960D01*
X57340Y45877D01*
X57275Y45780D01*
X57231Y45673D01*
X57208Y45558D01*
Y45442D01*
X57231Y45327D01*
X57275Y45220D01*
X57340Y45123D01*
X57423Y45040D01*
X57520Y44975D01*
X57627Y44931D01*
X57742Y44908D01*
X57858D01*
X57973Y44931D01*
X58080Y44975D01*
X58177Y45040D01*
X58260Y45123D01*
X58325Y45220D01*
X58369Y45327D01*
X58392Y45442D01*
Y45558D01*
X58369Y45673D01*
X58325Y45780D01*
X58260Y45877D01*
X58177Y45960D01*
X58080Y46025D01*
X57973Y46069D01*
X57858Y46092D01*
D02*
G37*
G36*
X52858D02*
X52742D01*
X52627Y46069D01*
X52520Y46025D01*
X52423Y45960D01*
X52340Y45877D01*
X52275Y45780D01*
X52231Y45673D01*
X52208Y45558D01*
Y45442D01*
X52231Y45327D01*
X52275Y45220D01*
X52340Y45123D01*
X52423Y45040D01*
X52520Y44975D01*
X52627Y44931D01*
X52742Y44908D01*
X52858D01*
X52973Y44931D01*
X53080Y44975D01*
X53177Y45040D01*
X53260Y45123D01*
X53325Y45220D01*
X53369Y45327D01*
X53392Y45442D01*
Y45558D01*
X53369Y45673D01*
X53325Y45780D01*
X53260Y45877D01*
X53177Y45960D01*
X53080Y46025D01*
X52973Y46069D01*
X52858Y46092D01*
D02*
G37*
G36*
X49758D02*
X49642D01*
X49527Y46069D01*
X49420Y46025D01*
X49323Y45960D01*
X49240Y45877D01*
X49175Y45780D01*
X49131Y45673D01*
X49108Y45558D01*
Y45442D01*
X49131Y45327D01*
X49175Y45220D01*
X49240Y45123D01*
X49323Y45040D01*
X49420Y44975D01*
X49527Y44931D01*
X49642Y44908D01*
X49758D01*
X49873Y44931D01*
X49980Y44975D01*
X50077Y45040D01*
X50160Y45123D01*
X50225Y45220D01*
X50269Y45327D01*
X50292Y45442D01*
Y45558D01*
X50269Y45673D01*
X50225Y45780D01*
X50160Y45877D01*
X50077Y45960D01*
X49980Y46025D01*
X49873Y46069D01*
X49758Y46092D01*
D02*
G37*
G36*
X44758D02*
X44642D01*
X44527Y46069D01*
X44420Y46025D01*
X44323Y45960D01*
X44240Y45877D01*
X44175Y45780D01*
X44131Y45673D01*
X44108Y45558D01*
Y45442D01*
X44131Y45327D01*
X44175Y45220D01*
X44240Y45123D01*
X44323Y45040D01*
X44420Y44975D01*
X44527Y44931D01*
X44642Y44908D01*
X44758D01*
X44873Y44931D01*
X44980Y44975D01*
X45077Y45040D01*
X45160Y45123D01*
X45225Y45220D01*
X45269Y45327D01*
X45292Y45442D01*
Y45558D01*
X45269Y45673D01*
X45225Y45780D01*
X45160Y45877D01*
X45077Y45960D01*
X44980Y46025D01*
X44873Y46069D01*
X44758Y46092D01*
D02*
G37*
G36*
X41658D02*
X41542D01*
X41427Y46069D01*
X41320Y46025D01*
X41223Y45960D01*
X41140Y45877D01*
X41075Y45780D01*
X41031Y45673D01*
X41008Y45558D01*
Y45442D01*
X41031Y45327D01*
X41075Y45220D01*
X41140Y45123D01*
X41223Y45040D01*
X41320Y44975D01*
X41427Y44931D01*
X41542Y44908D01*
X41658D01*
X41773Y44931D01*
X41880Y44975D01*
X41977Y45040D01*
X42060Y45123D01*
X42125Y45220D01*
X42169Y45327D01*
X42192Y45442D01*
Y45558D01*
X42169Y45673D01*
X42125Y45780D01*
X42060Y45877D01*
X41977Y45960D01*
X41880Y46025D01*
X41773Y46069D01*
X41658Y46092D01*
D02*
G37*
G36*
X36658D02*
X36542D01*
X36427Y46069D01*
X36320Y46025D01*
X36223Y45960D01*
X36140Y45877D01*
X36075Y45780D01*
X36031Y45673D01*
X36008Y45558D01*
Y45442D01*
X36031Y45327D01*
X36075Y45220D01*
X36140Y45123D01*
X36223Y45040D01*
X36320Y44975D01*
X36427Y44931D01*
X36542Y44908D01*
X36658D01*
X36773Y44931D01*
X36880Y44975D01*
X36977Y45040D01*
X37060Y45123D01*
X37125Y45220D01*
X37169Y45327D01*
X37192Y45442D01*
Y45558D01*
X37169Y45673D01*
X37125Y45780D01*
X37060Y45877D01*
X36977Y45960D01*
X36880Y46025D01*
X36773Y46069D01*
X36658Y46092D01*
D02*
G37*
G36*
X65958Y46042D02*
X65842D01*
X65727Y46019D01*
X65620Y45975D01*
X65523Y45910D01*
X65440Y45827D01*
X65375Y45730D01*
X65331Y45623D01*
X65308Y45508D01*
Y45392D01*
X65331Y45277D01*
X65375Y45170D01*
X65440Y45073D01*
X65523Y44990D01*
X65620Y44925D01*
X65727Y44881D01*
X65842Y44858D01*
X65958D01*
X66073Y44881D01*
X66180Y44925D01*
X66277Y44990D01*
X66360Y45073D01*
X66425Y45170D01*
X66469Y45277D01*
X66492Y45392D01*
Y45508D01*
X66469Y45623D01*
X66425Y45730D01*
X66360Y45827D01*
X66277Y45910D01*
X66180Y45975D01*
X66073Y46019D01*
X65958Y46042D01*
D02*
G37*
G36*
X58803Y44806D02*
X58676Y44794D01*
X58553Y44757D01*
X58440Y44696D01*
X58341Y44615D01*
X58260Y44516D01*
X58200Y44403D01*
X58163Y44281D01*
X58150Y44153D01*
Y44053D01*
X58163Y43926D01*
X58200Y43803D01*
X58260Y43690D01*
X58341Y43591D01*
X58440Y43510D01*
X58553Y43450D01*
X58676Y43413D01*
X58803Y43400D01*
X58931Y43413D01*
X59053Y43450D01*
X59166Y43510D01*
X59265Y43591D01*
X59346Y43690D01*
X59407Y43803D01*
X59444Y43926D01*
X59456Y44053D01*
Y44153D01*
X59444Y44281D01*
X59407Y44403D01*
X59346Y44516D01*
X59265Y44615D01*
X59166Y44696D01*
X59053Y44757D01*
X58931Y44794D01*
X58803Y44806D01*
D02*
G37*
G36*
X50653D02*
X50526Y44794D01*
X50403Y44757D01*
X50290Y44696D01*
X50191Y44615D01*
X50110Y44516D01*
X50050Y44403D01*
X50013Y44281D01*
X50000Y44153D01*
Y44053D01*
X50013Y43926D01*
X50050Y43803D01*
X50110Y43690D01*
X50191Y43591D01*
X50290Y43510D01*
X50403Y43450D01*
X50526Y43413D01*
X50653Y43400D01*
X50781Y43413D01*
X50903Y43450D01*
X51016Y43510D01*
X51115Y43591D01*
X51196Y43690D01*
X51257Y43803D01*
X51294Y43926D01*
X51306Y44053D01*
Y44153D01*
X51294Y44281D01*
X51257Y44403D01*
X51196Y44516D01*
X51115Y44615D01*
X51016Y44696D01*
X50903Y44757D01*
X50781Y44794D01*
X50653Y44806D01*
D02*
G37*
G36*
X53449Y44799D02*
X52149D01*
Y43399D01*
X53449D01*
Y44799D01*
D02*
G37*
G36*
X66952Y44805D02*
X66825Y44793D01*
X66702Y44755D01*
X66589Y44695D01*
X66490Y44614D01*
X66409Y44515D01*
X66349Y44402D01*
X66311Y44279D01*
X66299Y44152D01*
Y44052D01*
X66311Y43925D01*
X66349Y43802D01*
X66409Y43689D01*
X66490Y43590D01*
X66589Y43509D01*
X66702Y43449D01*
X66825Y43411D01*
X66952Y43399D01*
X67079Y43411D01*
X67202Y43449D01*
X67315Y43509D01*
X67414Y43590D01*
X67495Y43689D01*
X67555Y43802D01*
X67593Y43925D01*
X67605Y44052D01*
Y44152D01*
X67593Y44279D01*
X67555Y44402D01*
X67495Y44515D01*
X67414Y44614D01*
X67315Y44695D01*
X67202Y44755D01*
X67079Y44793D01*
X66952Y44805D01*
D02*
G37*
G36*
X61598Y44798D02*
X60298D01*
Y43398D01*
X61598D01*
Y44798D01*
D02*
G37*
G36*
X42500Y44803D02*
X42373Y44791D01*
X42250Y44753D01*
X42137Y44693D01*
X42038Y44612D01*
X41957Y44513D01*
X41897Y44400D01*
X41859Y44277D01*
X41847Y44150D01*
Y44050D01*
X41859Y43923D01*
X41897Y43800D01*
X41957Y43687D01*
X42038Y43588D01*
X42137Y43507D01*
X42250Y43447D01*
X42373Y43409D01*
X42500Y43397D01*
X42627Y43409D01*
X42750Y43447D01*
X42863Y43507D01*
X42962Y43588D01*
X43043Y43687D01*
X43103Y43800D01*
X43141Y43923D01*
X43153Y44050D01*
Y44150D01*
X43141Y44277D01*
X43103Y44400D01*
X43043Y44513D01*
X42962Y44612D01*
X42863Y44693D01*
X42750Y44753D01*
X42627Y44791D01*
X42500Y44803D01*
D02*
G37*
G36*
X54799Y44803D02*
X54672Y44790D01*
X54549Y44753D01*
X54437Y44692D01*
X54338Y44611D01*
X54256Y44512D01*
X54196Y44399D01*
X54159Y44277D01*
X54146Y44149D01*
Y44049D01*
X54159Y43922D01*
X54196Y43799D01*
X54256Y43687D01*
X54338Y43588D01*
X54437Y43506D01*
X54549Y43446D01*
X54672Y43409D01*
X54799Y43396D01*
X54927Y43409D01*
X55049Y43446D01*
X55162Y43506D01*
X55261Y43588D01*
X55342Y43687D01*
X55403Y43799D01*
X55440Y43922D01*
X55453Y44049D01*
Y44149D01*
X55440Y44277D01*
X55403Y44399D01*
X55342Y44512D01*
X55261Y44611D01*
X55162Y44692D01*
X55049Y44753D01*
X54927Y44790D01*
X54799Y44803D01*
D02*
G37*
G36*
X46649D02*
X46522Y44790D01*
X46399Y44753D01*
X46287Y44692D01*
X46188Y44611D01*
X46106Y44512D01*
X46046Y44399D01*
X46009Y44277D01*
X45996Y44149D01*
Y44049D01*
X46009Y43922D01*
X46046Y43799D01*
X46106Y43687D01*
X46188Y43588D01*
X46287Y43506D01*
X46399Y43446D01*
X46522Y43409D01*
X46649Y43396D01*
X46777Y43409D01*
X46899Y43446D01*
X47012Y43506D01*
X47111Y43588D01*
X47192Y43687D01*
X47253Y43799D01*
X47290Y43922D01*
X47303Y44049D01*
Y44149D01*
X47290Y44277D01*
X47253Y44399D01*
X47192Y44512D01*
X47111Y44611D01*
X47012Y44692D01*
X46899Y44753D01*
X46777Y44790D01*
X46649Y44803D01*
D02*
G37*
G36*
X37146Y44796D02*
X35846D01*
Y43396D01*
X37146D01*
Y44796D01*
D02*
G37*
G36*
X62948Y44801D02*
X62821Y44789D01*
X62698Y44751D01*
X62585Y44691D01*
X62486Y44610D01*
X62405Y44511D01*
X62345Y44398D01*
X62307Y44275D01*
X62295Y44148D01*
Y44048D01*
X62307Y43921D01*
X62345Y43798D01*
X62405Y43685D01*
X62486Y43586D01*
X62585Y43505D01*
X62698Y43445D01*
X62821Y43407D01*
X62948Y43395D01*
X63075Y43407D01*
X63198Y43445D01*
X63311Y43505D01*
X63410Y43586D01*
X63491Y43685D01*
X63551Y43798D01*
X63589Y43921D01*
X63601Y44048D01*
Y44148D01*
X63589Y44275D01*
X63551Y44398D01*
X63491Y44511D01*
X63410Y44610D01*
X63311Y44691D01*
X63198Y44751D01*
X63075Y44789D01*
X62948Y44801D01*
D02*
G37*
G36*
X38496Y44799D02*
X38369Y44787D01*
X38246Y44749D01*
X38133Y44689D01*
X38034Y44608D01*
X37953Y44509D01*
X37893Y44396D01*
X37855Y44273D01*
X37843Y44146D01*
Y44046D01*
X37855Y43919D01*
X37893Y43796D01*
X37953Y43683D01*
X38034Y43584D01*
X38133Y43503D01*
X38246Y43443D01*
X38369Y43405D01*
X38496Y43393D01*
X38623Y43405D01*
X38746Y43443D01*
X38859Y43503D01*
X38958Y43584D01*
X39039Y43683D01*
X39100Y43796D01*
X39137Y43919D01*
X39149Y44046D01*
Y44146D01*
X39137Y44273D01*
X39100Y44396D01*
X39039Y44509D01*
X38958Y44608D01*
X38859Y44689D01*
X38746Y44749D01*
X38623Y44787D01*
X38496Y44799D01*
=======
X754500Y447500D02*
X751246D01*
X751500Y446550D01*
X751995Y445694D01*
X752694Y444994D01*
X753550Y444500D01*
X754500Y444246D01*
Y447500D01*
D02*
G37*
G36*
X425500Y499529D02*
X416000D01*
X415415Y499413D01*
X414919Y499081D01*
X414652Y498815D01*
X413961Y499000D01*
X413039D01*
X412149Y498762D01*
X411351Y498301D01*
X410699Y497649D01*
X410239Y496851D01*
X410000Y495961D01*
Y495039D01*
X410239Y494149D01*
X410699Y493351D01*
X411351Y492699D01*
X412149Y492239D01*
X413039Y492000D01*
X413961D01*
X414851Y492239D01*
X415649Y492699D01*
X416301Y493351D01*
X416761Y494149D01*
X417000Y495039D01*
Y495961D01*
X416970Y496074D01*
X417274Y496471D01*
X424866D01*
X434971Y486367D01*
Y437366D01*
X435087Y436781D01*
X435419Y436285D01*
X441285Y430419D01*
X441781Y430087D01*
X442366Y429971D01*
X674500D01*
X675085Y430087D01*
X675581Y430419D01*
X702581Y457418D01*
X702913Y457915D01*
X703029Y458500D01*
Y465152D01*
X703351Y465239D01*
X704149Y465699D01*
X704801Y466351D01*
X705262Y467149D01*
X705500Y468039D01*
Y468961D01*
X705262Y469851D01*
X704801Y470649D01*
X704149Y471301D01*
X703351Y471762D01*
X702461Y472000D01*
X701539D01*
X700649Y471762D01*
X699851Y471301D01*
X699199Y470649D01*
X698738Y469851D01*
X698500Y468961D01*
Y468039D01*
X698738Y467149D01*
X699199Y466351D01*
X699851Y465699D01*
X699971Y465630D01*
Y459133D01*
X673867Y433029D01*
X443000D01*
X442497Y433532D01*
X442689Y433994D01*
X452994D01*
Y447994D01*
X439994D01*
Y436689D01*
X439532Y436497D01*
X438029Y438000D01*
Y487000D01*
X437913Y487585D01*
X437581Y488082D01*
X426581Y499081D01*
X426085Y499413D01*
X425500Y499529D01*
D02*
G37*
G36*
X588583Y490921D02*
X587417D01*
X586273Y490694D01*
X585195Y490247D01*
X584225Y489599D01*
X583401Y488775D01*
X582753Y487805D01*
X582306Y486727D01*
X582079Y485583D01*
Y484417D01*
X582306Y483273D01*
X582518Y482762D01*
X565177Y465422D01*
X564680Y464677D01*
X564505Y463799D01*
Y447002D01*
X564371Y446931D01*
X563382Y446118D01*
X562569Y445129D01*
X561966Y443999D01*
X561594Y442774D01*
X561469Y441500D01*
Y440500D01*
X561594Y439226D01*
X561966Y438000D01*
X562569Y436871D01*
X563382Y435882D01*
X564371Y435069D01*
X565500Y434466D01*
X566726Y434094D01*
X568000Y433968D01*
X569274Y434094D01*
X570500Y434466D01*
X571629Y435069D01*
X572618Y435882D01*
X573431Y436871D01*
X574034Y438000D01*
X574406Y439226D01*
X574532Y440500D01*
Y441500D01*
X574406Y442774D01*
X574034Y443999D01*
X573431Y445129D01*
X572618Y446118D01*
X571629Y446931D01*
X570500Y447534D01*
X569274Y447906D01*
X569094Y447924D01*
Y462849D01*
X585762Y479518D01*
X586273Y479306D01*
X587417Y479079D01*
X588583D01*
X589727Y479306D01*
X590805Y479753D01*
X591775Y480401D01*
X592599Y481225D01*
X593247Y482195D01*
X593694Y483273D01*
X593921Y484417D01*
Y485583D01*
X593694Y486727D01*
X593247Y487805D01*
X592599Y488775D01*
X591775Y489599D01*
X590805Y490247D01*
X589727Y490694D01*
X588583Y490921D01*
D02*
G37*
G36*
X528583D02*
X527417D01*
X526273Y490694D01*
X525195Y490247D01*
X524225Y489599D01*
X523401Y488775D01*
X522753Y487805D01*
X522306Y486727D01*
X522079Y485583D01*
Y484417D01*
X522306Y483273D01*
X522753Y482195D01*
X523401Y481225D01*
X524225Y480401D01*
X525195Y479753D01*
X526273Y479306D01*
X527417Y479079D01*
X528583D01*
X529727Y479306D01*
X530805Y479753D01*
X531775Y480401D01*
X532599Y481225D01*
X533247Y482195D01*
X533694Y483273D01*
X533921Y484417D01*
Y485583D01*
X533694Y486727D01*
X533247Y487805D01*
X532599Y488775D01*
X531775Y489599D01*
X530805Y490247D01*
X529727Y490694D01*
X528583Y490921D01*
D02*
G37*
G36*
X507583D02*
X506417D01*
X505273Y490694D01*
X504195Y490247D01*
X503225Y489599D01*
X502401Y488775D01*
X501753Y487805D01*
X501306Y486727D01*
X501079Y485583D01*
Y484417D01*
X501306Y483273D01*
X501518Y482762D01*
X484878Y466122D01*
X484381Y465378D01*
X484206Y464500D01*
Y447597D01*
X484000Y447534D01*
X482871Y446931D01*
X481882Y446118D01*
X481069Y445129D01*
X480466Y443999D01*
X480094Y442774D01*
X479969Y441500D01*
Y440500D01*
X480094Y439226D01*
X480466Y438000D01*
X481069Y436871D01*
X481882Y435882D01*
X482871Y435069D01*
X484000Y434466D01*
X485226Y434094D01*
X486500Y433968D01*
X487774Y434094D01*
X489000Y434466D01*
X490129Y435069D01*
X491118Y435882D01*
X491931Y436871D01*
X492534Y438000D01*
X492906Y439226D01*
X493032Y440500D01*
Y441500D01*
X492906Y442774D01*
X492534Y443999D01*
X491931Y445129D01*
X491118Y446118D01*
X490129Y446931D01*
X489000Y447534D01*
X488794Y447597D01*
Y463550D01*
X504762Y479518D01*
X505273Y479306D01*
X506417Y479079D01*
X507583D01*
X508727Y479306D01*
X509805Y479753D01*
X510775Y480401D01*
X511599Y481225D01*
X512247Y482195D01*
X512694Y483273D01*
X512921Y484417D01*
Y485583D01*
X512694Y486727D01*
X512247Y487805D01*
X511599Y488775D01*
X510775Y489599D01*
X509805Y490247D01*
X508727Y490694D01*
X507583Y490921D01*
D02*
G37*
G36*
X447583D02*
X446417D01*
X445273Y490694D01*
X444195Y490247D01*
X443225Y489599D01*
X442401Y488775D01*
X441753Y487805D01*
X441306Y486727D01*
X441079Y485583D01*
Y484417D01*
X441306Y483273D01*
X441753Y482195D01*
X442401Y481225D01*
X443225Y480401D01*
X444195Y479753D01*
X445273Y479306D01*
X446417Y479079D01*
X447583D01*
X448727Y479306D01*
X449805Y479753D01*
X450775Y480401D01*
X451599Y481225D01*
X452247Y482195D01*
X452694Y483273D01*
X452921Y484417D01*
Y485583D01*
X452694Y486727D01*
X452247Y487805D01*
X451599Y488775D01*
X450775Y489599D01*
X449805Y490247D01*
X448727Y490694D01*
X447583Y490921D01*
D02*
G37*
G36*
X426583D02*
X425417D01*
X424273Y490694D01*
X423195Y490247D01*
X422225Y489599D01*
X421401Y488775D01*
X420753Y487805D01*
X420306Y486727D01*
X420079Y485583D01*
Y484417D01*
X420306Y483273D01*
X420518Y482762D01*
X403345Y465589D01*
X402847Y464845D01*
X402673Y463967D01*
Y447564D01*
X402467Y447501D01*
X401338Y446898D01*
X400349Y446085D01*
X399536Y445096D01*
X398933Y443966D01*
X398561Y442741D01*
X398435Y441467D01*
Y440467D01*
X398561Y439193D01*
X398933Y437967D01*
X399536Y436838D01*
X400349Y435849D01*
X401338Y435036D01*
X402467Y434433D01*
X403693Y434061D01*
X404967Y433935D01*
X406241Y434061D01*
X407466Y434433D01*
X408596Y435036D01*
X409585Y435849D01*
X410398Y436838D01*
X411001Y437967D01*
X411373Y439193D01*
X411498Y440467D01*
Y441467D01*
X411373Y442741D01*
X411001Y443966D01*
X410398Y445096D01*
X409585Y446085D01*
X408596Y446898D01*
X407466Y447501D01*
X407261Y447564D01*
Y463017D01*
X423762Y479518D01*
X424273Y479306D01*
X425417Y479079D01*
X426583D01*
X427727Y479306D01*
X428805Y479753D01*
X429775Y480401D01*
X430599Y481225D01*
X431247Y482195D01*
X431694Y483273D01*
X431921Y484417D01*
Y485583D01*
X431694Y486727D01*
X431247Y487805D01*
X430599Y488775D01*
X429775Y489599D01*
X428805Y490247D01*
X427727Y490694D01*
X426583Y490921D01*
D02*
G37*
G36*
X366583D02*
X365417D01*
X364273Y490694D01*
X363195Y490247D01*
X362225Y489599D01*
X361401Y488775D01*
X360753Y487805D01*
X360306Y486727D01*
X360079Y485583D01*
Y484417D01*
X360306Y483273D01*
X360753Y482195D01*
X361401Y481225D01*
X362225Y480401D01*
X363195Y479753D01*
X364273Y479306D01*
X365417Y479079D01*
X366583D01*
X367727Y479306D01*
X368805Y479753D01*
X369775Y480401D01*
X370599Y481225D01*
X371247Y482195D01*
X371694Y483273D01*
X371921Y484417D01*
Y485583D01*
X371694Y486727D01*
X371247Y487805D01*
X370599Y488775D01*
X369775Y489599D01*
X368805Y490247D01*
X367727Y490694D01*
X366583Y490921D01*
D02*
G37*
G36*
X669583Y490421D02*
X668417D01*
X667273Y490194D01*
X666195Y489747D01*
X665225Y489099D01*
X664401Y488275D01*
X663753Y487305D01*
X663306Y486227D01*
X663079Y485083D01*
Y483917D01*
X663306Y482773D01*
X663518Y482262D01*
X646878Y465622D01*
X646381Y464878D01*
X646206Y464000D01*
Y447103D01*
X645858Y446917D01*
X644868Y446105D01*
X644056Y445115D01*
X643452Y443986D01*
X643081Y442761D01*
X642955Y441487D01*
Y440486D01*
X643081Y439212D01*
X643452Y437987D01*
X644056Y436858D01*
X644868Y435868D01*
X645858Y435056D01*
X646987Y434452D01*
X648212Y434081D01*
X649486Y433955D01*
X650761Y434081D01*
X651986Y434452D01*
X653115Y435056D01*
X654105Y435868D01*
X654917Y436858D01*
X655521Y437987D01*
X655893Y439212D01*
X656018Y440486D01*
Y441487D01*
X655893Y442761D01*
X655521Y443986D01*
X654917Y445115D01*
X654105Y446105D01*
X653115Y446917D01*
X651986Y447521D01*
X650794Y447882D01*
Y463050D01*
X666762Y479018D01*
X667273Y478806D01*
X668417Y478579D01*
X669583D01*
X670727Y478806D01*
X671805Y479253D01*
X672775Y479901D01*
X673599Y480725D01*
X674247Y481695D01*
X674694Y482773D01*
X674921Y483917D01*
Y485083D01*
X674694Y486227D01*
X674247Y487305D01*
X673599Y488275D01*
X672775Y489099D01*
X671805Y489747D01*
X670727Y490194D01*
X669583Y490421D01*
D02*
G37*
G36*
X609583D02*
X608417D01*
X607273Y490194D01*
X606195Y489747D01*
X605225Y489099D01*
X604401Y488275D01*
X603753Y487305D01*
X603306Y486227D01*
X603079Y485083D01*
Y483917D01*
X603306Y482773D01*
X603753Y481695D01*
X604401Y480725D01*
X605225Y479901D01*
X606195Y479253D01*
X607273Y478806D01*
X608417Y478579D01*
X609583D01*
X610727Y478806D01*
X611805Y479253D01*
X612775Y479901D01*
X613599Y480725D01*
X614247Y481695D01*
X614694Y482773D01*
X614921Y483917D01*
Y485083D01*
X614694Y486227D01*
X614247Y487305D01*
X613599Y488275D01*
X612775Y489099D01*
X611805Y489747D01*
X610727Y490194D01*
X609583Y490421D01*
D02*
G37*
G36*
X350254Y452504D02*
X347000D01*
Y449250D01*
X347950Y449504D01*
X348806Y449999D01*
X349505Y450698D01*
X350000Y451554D01*
X350254Y452504D01*
D02*
G37*
G36*
X346000D02*
X342746D01*
X343000Y451554D01*
X343495Y450698D01*
X344194Y449999D01*
X345050Y449504D01*
X346000Y449250D01*
Y452504D01*
D02*
G37*
G36*
X578583Y460921D02*
X577417D01*
X576273Y460694D01*
X575195Y460247D01*
X574225Y459599D01*
X573401Y458775D01*
X572753Y457805D01*
X572306Y456727D01*
X572079Y455583D01*
Y454417D01*
X572306Y453273D01*
X572753Y452195D01*
X573401Y451225D01*
X574225Y450401D01*
X575195Y449753D01*
X576273Y449306D01*
X577417Y449079D01*
X578583D01*
X579727Y449306D01*
X580805Y449753D01*
X581775Y450401D01*
X582599Y451225D01*
X583247Y452195D01*
X583694Y453273D01*
X583921Y454417D01*
Y455583D01*
X583694Y456727D01*
X583247Y457805D01*
X582599Y458775D01*
X581775Y459599D01*
X580805Y460247D01*
X579727Y460694D01*
X578583Y460921D01*
D02*
G37*
G36*
X528583D02*
X527417D01*
X526273Y460694D01*
X525195Y460247D01*
X524225Y459599D01*
X523401Y458775D01*
X522753Y457805D01*
X522306Y456727D01*
X522079Y455583D01*
Y454417D01*
X522306Y453273D01*
X522753Y452195D01*
X523401Y451225D01*
X524225Y450401D01*
X525195Y449753D01*
X526273Y449306D01*
X527417Y449079D01*
X528583D01*
X529727Y449306D01*
X530805Y449753D01*
X531775Y450401D01*
X532599Y451225D01*
X533247Y452195D01*
X533694Y453273D01*
X533921Y454417D01*
Y455583D01*
X533694Y456727D01*
X533247Y457805D01*
X532599Y458775D01*
X531775Y459599D01*
X530805Y460247D01*
X529727Y460694D01*
X528583Y460921D01*
D02*
G37*
G36*
X497583D02*
X496417D01*
X495273Y460694D01*
X494195Y460247D01*
X493225Y459599D01*
X492401Y458775D01*
X491753Y457805D01*
X491306Y456727D01*
X491079Y455583D01*
Y454417D01*
X491306Y453273D01*
X491753Y452195D01*
X492401Y451225D01*
X493225Y450401D01*
X494195Y449753D01*
X495273Y449306D01*
X496417Y449079D01*
X497583D01*
X498727Y449306D01*
X499805Y449753D01*
X500775Y450401D01*
X501599Y451225D01*
X502247Y452195D01*
X502694Y453273D01*
X502921Y454417D01*
Y455583D01*
X502694Y456727D01*
X502247Y457805D01*
X501599Y458775D01*
X500775Y459599D01*
X499805Y460247D01*
X498727Y460694D01*
X497583Y460921D01*
D02*
G37*
G36*
X447583D02*
X446417D01*
X445273Y460694D01*
X444195Y460247D01*
X443225Y459599D01*
X442401Y458775D01*
X441753Y457805D01*
X441306Y456727D01*
X441079Y455583D01*
Y454417D01*
X441306Y453273D01*
X441753Y452195D01*
X442401Y451225D01*
X443225Y450401D01*
X444195Y449753D01*
X445273Y449306D01*
X446417Y449079D01*
X447583D01*
X448727Y449306D01*
X449805Y449753D01*
X450775Y450401D01*
X451599Y451225D01*
X452247Y452195D01*
X452694Y453273D01*
X452921Y454417D01*
Y455583D01*
X452694Y456727D01*
X452247Y457805D01*
X451599Y458775D01*
X450775Y459599D01*
X449805Y460247D01*
X448727Y460694D01*
X447583Y460921D01*
D02*
G37*
G36*
X416583D02*
X415417D01*
X414273Y460694D01*
X413195Y460247D01*
X412225Y459599D01*
X411401Y458775D01*
X410753Y457805D01*
X410306Y456727D01*
X410079Y455583D01*
Y454417D01*
X410306Y453273D01*
X410753Y452195D01*
X411401Y451225D01*
X412225Y450401D01*
X413195Y449753D01*
X414273Y449306D01*
X415417Y449079D01*
X416583D01*
X417727Y449306D01*
X418805Y449753D01*
X419775Y450401D01*
X420599Y451225D01*
X421247Y452195D01*
X421694Y453273D01*
X421921Y454417D01*
Y455583D01*
X421694Y456727D01*
X421247Y457805D01*
X420599Y458775D01*
X419775Y459599D01*
X418805Y460247D01*
X417727Y460694D01*
X416583Y460921D01*
D02*
G37*
G36*
X366583D02*
X365417D01*
X364273Y460694D01*
X363195Y460247D01*
X362225Y459599D01*
X361401Y458775D01*
X360753Y457805D01*
X360306Y456727D01*
X360079Y455583D01*
Y454417D01*
X360306Y453273D01*
X360753Y452195D01*
X361401Y451225D01*
X362225Y450401D01*
X363195Y449753D01*
X364273Y449306D01*
X365417Y449079D01*
X366583D01*
X367727Y449306D01*
X368805Y449753D01*
X369775Y450401D01*
X370599Y451225D01*
X371247Y452195D01*
X371694Y453273D01*
X371921Y454417D01*
Y455583D01*
X371694Y456727D01*
X371247Y457805D01*
X370599Y458775D01*
X369775Y459599D01*
X368805Y460247D01*
X367727Y460694D01*
X366583Y460921D01*
D02*
G37*
G36*
X659583Y460421D02*
X658417D01*
X657273Y460194D01*
X656195Y459747D01*
X655225Y459099D01*
X654401Y458275D01*
X653753Y457305D01*
X653306Y456227D01*
X653079Y455083D01*
Y453917D01*
X653306Y452773D01*
X653753Y451695D01*
X654401Y450725D01*
X655225Y449901D01*
X656195Y449253D01*
X657273Y448806D01*
X658417Y448579D01*
X659583D01*
X660727Y448806D01*
X661805Y449253D01*
X662775Y449901D01*
X663599Y450725D01*
X664247Y451695D01*
X664694Y452773D01*
X664921Y453917D01*
Y455083D01*
X664694Y456227D01*
X664247Y457305D01*
X663599Y458275D01*
X662775Y459099D01*
X661805Y459747D01*
X660727Y460194D01*
X659583Y460421D01*
D02*
G37*
G36*
X588033Y448065D02*
X586759Y447939D01*
X585534Y447567D01*
X584404Y446964D01*
X583415Y446151D01*
X582602Y445162D01*
X581999Y444033D01*
X581627Y442807D01*
X581502Y441533D01*
Y440533D01*
X581627Y439259D01*
X581999Y438034D01*
X582602Y436904D01*
X583415Y435915D01*
X584404Y435102D01*
X585534Y434499D01*
X586759Y434127D01*
X588033Y434002D01*
X589307Y434127D01*
X590533Y434499D01*
X591662Y435102D01*
X592652Y435915D01*
X593464Y436904D01*
X594067Y438034D01*
X594439Y439259D01*
X594564Y440533D01*
Y441533D01*
X594439Y442807D01*
X594067Y444033D01*
X593464Y445162D01*
X592652Y446151D01*
X591662Y446964D01*
X590533Y447567D01*
X589307Y447939D01*
X588033Y448065D01*
D02*
G37*
G36*
X506533D02*
X505259Y447939D01*
X504034Y447567D01*
X502904Y446964D01*
X501915Y446151D01*
X501102Y445162D01*
X500499Y444033D01*
X500127Y442807D01*
X500002Y441533D01*
Y440533D01*
X500127Y439259D01*
X500499Y438034D01*
X501102Y436904D01*
X501915Y435915D01*
X502904Y435102D01*
X504034Y434499D01*
X505259Y434127D01*
X506533Y434002D01*
X507807Y434127D01*
X509033Y434499D01*
X510162Y435102D01*
X511152Y435915D01*
X511964Y436904D01*
X512567Y438034D01*
X512939Y439259D01*
X513064Y440533D01*
Y441533D01*
X512939Y442807D01*
X512567Y444033D01*
X511964Y445162D01*
X511152Y446151D01*
X510162Y446964D01*
X509033Y447567D01*
X507807Y447939D01*
X506533Y448065D01*
D02*
G37*
G36*
X534494Y447994D02*
X521494D01*
Y433994D01*
X534494D01*
Y447994D01*
D02*
G37*
G36*
X669520Y448051D02*
X668245Y447926D01*
X667020Y447554D01*
X665891Y446950D01*
X664901Y446138D01*
X664089Y445148D01*
X663485Y444019D01*
X663114Y442794D01*
X662988Y441520D01*
Y440520D01*
X663114Y439245D01*
X663485Y438020D01*
X664089Y436891D01*
X664901Y435901D01*
X665891Y435089D01*
X667020Y434485D01*
X668245Y434114D01*
X669520Y433988D01*
X670794Y434114D01*
X672019Y434485D01*
X673148Y435089D01*
X674138Y435901D01*
X674950Y436891D01*
X675554Y438020D01*
X675926Y439245D01*
X676051Y440520D01*
Y441520D01*
X675926Y442794D01*
X675554Y444019D01*
X674950Y445148D01*
X674138Y446138D01*
X673148Y446950D01*
X672019Y447554D01*
X670794Y447926D01*
X669520Y448051D01*
D02*
G37*
G36*
X615980Y447980D02*
X602980D01*
Y433980D01*
X615980D01*
Y447980D01*
D02*
G37*
G36*
X425000Y448032D02*
X423726Y447906D01*
X422501Y447534D01*
X421371Y446931D01*
X420382Y446118D01*
X419569Y445129D01*
X418966Y443999D01*
X418594Y442774D01*
X418469Y441500D01*
Y440500D01*
X418594Y439226D01*
X418966Y438000D01*
X419569Y436871D01*
X420382Y435882D01*
X421371Y435069D01*
X422501Y434466D01*
X423726Y434094D01*
X425000Y433968D01*
X426274Y434094D01*
X427499Y434466D01*
X428629Y435069D01*
X429618Y435882D01*
X430431Y436871D01*
X431034Y438000D01*
X431406Y439226D01*
X431531Y440500D01*
Y441500D01*
X431406Y442774D01*
X431034Y443999D01*
X430431Y445129D01*
X429618Y446118D01*
X428629Y446931D01*
X427499Y447534D01*
X426274Y447906D01*
X425000Y448032D01*
D02*
G37*
G36*
X547994Y448025D02*
X546720Y447900D01*
X545494Y447528D01*
X544365Y446924D01*
X543375Y446112D01*
X542563Y445122D01*
X541959Y443993D01*
X541588Y442768D01*
X541462Y441494D01*
Y440494D01*
X541588Y439220D01*
X541959Y437994D01*
X542563Y436865D01*
X543375Y435875D01*
X544365Y435063D01*
X545494Y434459D01*
X546720Y434088D01*
X547994Y433962D01*
X549268Y434088D01*
X550493Y434459D01*
X551622Y435063D01*
X552612Y435875D01*
X553425Y436865D01*
X554028Y437994D01*
X554400Y439220D01*
X554525Y440494D01*
Y441494D01*
X554400Y442768D01*
X554028Y443993D01*
X553425Y445122D01*
X552612Y446112D01*
X551622Y446924D01*
X550493Y447528D01*
X549268Y447900D01*
X547994Y448025D01*
D02*
G37*
G36*
X466494D02*
X465220Y447900D01*
X463994Y447528D01*
X462865Y446924D01*
X461875Y446112D01*
X461063Y445122D01*
X460460Y443993D01*
X460088Y442768D01*
X459962Y441494D01*
Y440494D01*
X460088Y439220D01*
X460460Y437994D01*
X461063Y436865D01*
X461875Y435875D01*
X462865Y435063D01*
X463994Y434459D01*
X465220Y434088D01*
X466494Y433962D01*
X467768Y434088D01*
X468993Y434459D01*
X470122Y435063D01*
X471112Y435875D01*
X471924Y436865D01*
X472528Y437994D01*
X472900Y439220D01*
X473025Y440494D01*
Y441494D01*
X472900Y442768D01*
X472528Y443993D01*
X471924Y445122D01*
X471112Y446112D01*
X470122Y446924D01*
X468993Y447528D01*
X467768Y447900D01*
X466494Y448025D01*
D02*
G37*
G36*
X371461Y447961D02*
X358461D01*
Y433961D01*
X371461D01*
Y447961D01*
D02*
G37*
G36*
X629480Y448012D02*
X628206Y447886D01*
X626981Y447515D01*
X625852Y446911D01*
X624862Y446099D01*
X624050Y445109D01*
X623446Y443980D01*
X623074Y442755D01*
X622949Y441480D01*
Y440480D01*
X623074Y439206D01*
X623446Y437981D01*
X624050Y436852D01*
X624862Y435862D01*
X625852Y435050D01*
X626981Y434446D01*
X628206Y434074D01*
X629480Y433949D01*
X630755Y434074D01*
X631980Y434446D01*
X633109Y435050D01*
X634099Y435862D01*
X634911Y436852D01*
X635515Y437981D01*
X635886Y439206D01*
X636012Y440480D01*
Y441480D01*
X635886Y442755D01*
X635515Y443980D01*
X634911Y445109D01*
X634099Y446099D01*
X633109Y446911D01*
X631980Y447515D01*
X630755Y447886D01*
X629480Y448012D01*
D02*
G37*
G36*
X384961Y447992D02*
X383686Y447867D01*
X382461Y447495D01*
X381332Y446891D01*
X380342Y446079D01*
X379530Y445089D01*
X378926Y443960D01*
X378555Y442735D01*
X378429Y441461D01*
Y440461D01*
X378555Y439186D01*
X378926Y437961D01*
X379530Y436832D01*
X380342Y435842D01*
X381332Y435030D01*
X382461Y434426D01*
X383686Y434055D01*
X384961Y433929D01*
X386235Y434055D01*
X387460Y434426D01*
X388589Y435030D01*
X389579Y435842D01*
X390391Y436832D01*
X390995Y437961D01*
X391367Y439186D01*
X391492Y440461D01*
Y441461D01*
X391367Y442735D01*
X390995Y443960D01*
X390391Y445089D01*
X389579Y446079D01*
X388589Y446891D01*
X387460Y447495D01*
X386235Y447867D01*
X384961Y447992D01*
>>>>>>> 086f05f611e4eabd8aa2a084d90faab6d215b326
D02*
G37*
%LPD*%
D10*
<<<<<<< HEAD
X41350Y49550D02*
X41600Y49800D01*
X42550D01*
X43650Y48700D01*
X70150Y46800D02*
X70200Y46850D01*
X70150Y45850D02*
Y46800D01*
X67450Y43150D02*
X70150Y45850D01*
X71806Y49486D02*
X71904Y49388D01*
X71608Y49675D02*
X71797Y49486D01*
X71500Y49675D02*
X71608D01*
X72351Y48449D02*
Y49028D01*
X72300Y49675D02*
X72316D01*
X71797Y49486D02*
X71806D01*
X72304Y49075D02*
X72351Y49028D01*
X72316Y49675D02*
X73250Y48741D01*
X43650Y43737D02*
X44237Y43150D01*
X43650Y43737D02*
Y48700D01*
X44237Y43150D02*
X67450D01*
X76175Y46375D02*
X76900Y47100D01*
Y49200D01*
X76493Y49607D02*
X76900Y49200D01*
X73566Y49607D02*
X76493D01*
X35150Y42500D02*
X69800D01*
X34000Y43650D02*
X35150Y42500D01*
X69800D02*
X71200Y43900D01*
X35017Y41950D02*
X70099D01*
X70399Y42250D01*
X70016Y42150D02*
X73050Y45184D01*
X34717Y42250D02*
X35017Y41950D01*
X35100Y42150D02*
X70016D01*
X33800Y43450D02*
X35100Y42150D01*
X70399Y42250D02*
X73250Y45101D01*
X33600Y43367D02*
X34717Y42250D01*
X48075Y50425D02*
X55275D01*
X48050Y50450D02*
X48075Y50425D01*
X55275D02*
X55300Y50400D01*
X76012Y47162D02*
X76327Y47477D01*
X75500Y46375D02*
X76175D01*
X76327Y47477D02*
Y48773D01*
X75500Y47162D02*
X76012D01*
X76104Y48996D02*
X76327Y48773D01*
X73560Y48996D02*
X76104D01*
X71200Y43900D02*
X71904Y44604D01*
X73050Y45184D02*
Y47750D01*
X71904Y44604D02*
Y49388D01*
X73250Y45101D02*
Y48741D01*
X72351Y48449D02*
X73050Y47750D01*
X34000Y43650D02*
Y46029D01*
X33800Y43450D02*
Y46750D01*
X33972Y47205D02*
X34192D01*
X33600Y46833D02*
X33972Y47205D01*
X33600Y43367D02*
Y46833D01*
X34192Y47205D02*
X34650Y47663D01*
X33925Y46875D02*
X34650D01*
X34000Y46029D02*
X34059Y46088D01*
X33800Y46750D02*
X33925Y46875D01*
X34059Y46088D02*
X34650D01*
D40*
X77650Y43500D02*
Y49600D01*
X66900Y50500D02*
X76750D01*
X77650Y49600D01*
X77200Y43050D02*
X77650Y43500D01*
X56680Y46380D02*
X58800Y48500D01*
X56680Y44220D02*
X56800Y44100D01*
X56680Y44220D02*
Y46380D01*
X64850Y44197D02*
Y46400D01*
Y44197D02*
X64949Y44099D01*
X64850Y46400D02*
X66900Y48450D01*
X61850Y45450D02*
X66900Y50500D01*
X60900Y45450D02*
X61850D01*
X40497Y46397D02*
X42600Y48500D01*
X40497Y44097D02*
Y46397D01*
X48650Y44100D02*
Y46450D01*
X50700Y48500D01*
D41*
X75951Y43951D02*
Y44649D01*
X73650Y41650D02*
X75951Y43951D01*
X34809Y41650D02*
X73650D01*
X33350Y43109D02*
X34809Y41650D01*
X71100Y50100D02*
X76400D01*
X77250Y49250D01*
Y45948D02*
Y49250D01*
X33350Y47150D02*
X34650Y48450D01*
X33350Y43109D02*
Y47150D01*
X75951Y44649D02*
X77250Y45948D01*
X71504Y45504D02*
Y49100D01*
X69900Y43900D02*
X71504Y45504D01*
X70850Y49850D02*
X71100Y50100D01*
X70850Y49350D02*
Y49850D01*
X71100Y49100D02*
X71504D01*
X70850Y49350D02*
X71100Y49100D01*
D42*
X60948Y44098D02*
D03*
X36496Y44096D02*
D03*
X52799Y44099D02*
D03*
X44649D02*
D03*
D43*
X66952Y44102D02*
D03*
X64949Y44099D02*
D03*
X62948Y44098D02*
D03*
X42500Y44100D02*
D03*
X40497Y44097D02*
D03*
X38496Y44096D02*
D03*
X58803Y44103D02*
D03*
X56800Y44100D02*
D03*
X54799Y44099D02*
D03*
X46649D02*
D03*
X48650Y44100D02*
D03*
X50653Y44103D02*
D03*
D44*
X60900Y48450D02*
D03*
X66900D02*
D03*
X65900Y45450D02*
D03*
X60900D02*
D03*
X36600Y45500D02*
D03*
X41600D02*
D03*
X42600Y48500D02*
D03*
X36600D02*
D03*
X44700D02*
D03*
X50700D02*
D03*
X49700Y45500D02*
D03*
X44700D02*
D03*
X52800Y48500D02*
D03*
X58800D02*
D03*
X57800Y45500D02*
D03*
X52800D02*
D03*
D45*
X75500Y44800D02*
D03*
Y45587D02*
D03*
Y46375D02*
D03*
X34650Y45300D02*
D03*
Y46088D02*
D03*
Y46875D02*
D03*
Y47663D02*
D03*
D46*
X75500Y47162D02*
D03*
D47*
X34650Y48450D02*
D03*
D48*
X41350Y49550D02*
D03*
X70200Y46850D02*
D03*
X77200Y43050D02*
D03*
X72304Y49075D02*
D03*
X71500Y49675D02*
D03*
X71504Y49075D02*
D03*
X72300Y49675D02*
D03*
X48050Y50450D02*
D03*
X55300Y50400D02*
D03*
X69900Y43900D02*
D03*
X73560Y48996D02*
D03*
X73566Y49607D02*
D03*
X71200Y43900D02*
=======
X413500Y495500D02*
X416000Y498000D01*
X425500D01*
X436500Y487000D01*
X701500Y468000D02*
X702000Y468500D01*
X701500Y458500D02*
Y468000D01*
X674500Y431500D02*
X701500Y458500D01*
X718059Y494859D02*
X719039Y493879D01*
X716082Y496750D02*
X717974Y494859D01*
X715000Y496750D02*
X716082D01*
X723510Y484490D02*
Y490280D01*
X723000Y496750D02*
X723158D01*
X717974Y494859D02*
X718059D01*
X723040Y490750D02*
X723510Y490280D01*
X723158Y496750D02*
X732500Y487408D01*
X436500Y437366D02*
X442366Y431500D01*
X436500Y437366D02*
Y487000D01*
X442366Y431500D02*
X674500D01*
X761748Y463748D02*
X769000Y471000D01*
Y492000D01*
X764925Y496075D02*
X769000Y492000D01*
X735663Y496075D02*
X764925D01*
X351500Y425000D02*
X698000D01*
X340000Y436500D02*
X351500Y425000D01*
X698000D02*
X712000Y439000D01*
X350172Y419500D02*
X700985D01*
X703985Y422500D01*
X700157Y421500D02*
X730500Y451843D01*
X347172Y422500D02*
X350172Y419500D01*
X351000Y421500D02*
X700157D01*
X338000Y434500D02*
X351000Y421500D01*
X703985Y422500D02*
X732500Y451015D01*
X336000Y433672D02*
X347172Y422500D01*
X480750Y504250D02*
X552750D01*
X480500Y504500D02*
X480750Y504250D01*
X552750D02*
X553000Y504000D01*
X760122Y471622D02*
X763267Y474767D01*
X755000Y463748D02*
X761748D01*
X763267Y474767D02*
Y487733D01*
X755000Y471622D02*
X760122D01*
X761037Y489963D02*
X763267Y487733D01*
X735602Y489963D02*
X761037D01*
X712000Y439000D02*
X719039Y446039D01*
X730500Y451843D02*
Y477500D01*
X719039Y446039D02*
Y493879D01*
X732500Y451015D02*
Y487408D01*
X723510Y484490D02*
X730500Y477500D01*
X340000Y436500D02*
Y460292D01*
X338000Y434500D02*
Y467500D01*
X339717Y472046D02*
X341920D01*
X336000Y468328D02*
X339717Y472046D01*
X336000Y433672D02*
Y468328D01*
X341920Y472046D02*
X346500Y476626D01*
X339252Y468752D02*
X346500D01*
X340000Y460292D02*
X340586Y460878D01*
X338000Y467500D02*
X339252Y468752D01*
X340586Y460878D02*
X346500D01*
D40*
X776500Y435000D02*
Y496000D01*
X669000Y505000D02*
X767500D01*
X776500Y496000D01*
X772000Y430500D02*
X776500Y435000D01*
X566799Y463799D02*
X588000Y485000D01*
X566799Y442201D02*
X568000Y441000D01*
X566799Y442201D02*
Y463799D01*
X648500Y441973D02*
Y464000D01*
Y441973D02*
X649486Y440986D01*
X648500Y464000D02*
X669000Y484500D01*
X618500Y454500D02*
X669000Y505000D01*
X609000Y454500D02*
X618500D01*
X404967Y463967D02*
X426000Y485000D01*
X404967Y440967D02*
Y463967D01*
X486500Y441000D02*
Y464500D01*
X507000Y485000D01*
D41*
X759506Y439506D02*
Y446487D01*
X736500Y416500D02*
X759506Y439506D01*
X348086Y416500D02*
X736500D01*
X333500Y431086D02*
X348086Y416500D01*
X711000Y501000D02*
X764000D01*
X772500Y492500D01*
Y459481D02*
Y492500D01*
X333500Y471500D02*
X346500Y484500D01*
X333500Y431086D02*
Y471500D01*
X759506Y446487D02*
X772500Y459481D01*
X715039Y455039D02*
Y491000D01*
X699000Y439000D02*
X715039Y455039D01*
X708500Y498500D02*
X711000Y501000D01*
X708500Y493500D02*
Y498500D01*
X711000Y491000D02*
X715039D01*
X708500Y493500D02*
X711000Y491000D01*
D42*
X609480Y440980D02*
D03*
X364961Y440961D02*
D03*
X527994Y440994D02*
D03*
X446494D02*
D03*
D43*
X669520Y441020D02*
D03*
X649486Y440986D02*
D03*
X629480Y440980D02*
D03*
X425000Y441000D02*
D03*
X404967Y440967D02*
D03*
X384961Y440961D02*
D03*
X588033Y441033D02*
D03*
X568000Y441000D02*
D03*
X547994Y440994D02*
D03*
X466494D02*
D03*
X486500Y441000D02*
D03*
X506533Y441033D02*
D03*
D44*
X609000Y484500D02*
D03*
X669000D02*
D03*
X659000Y454500D02*
D03*
X609000D02*
D03*
X366000Y455000D02*
D03*
X416000D02*
D03*
X426000Y485000D02*
D03*
X366000D02*
D03*
X447000D02*
D03*
X507000D02*
D03*
X497000Y455000D02*
D03*
X447000D02*
D03*
X528000Y485000D02*
D03*
X588000D02*
D03*
X578000Y455000D02*
D03*
X528000D02*
D03*
D45*
X755000Y448000D02*
D03*
Y455874D02*
D03*
Y463748D02*
D03*
X346500Y453004D02*
D03*
Y460878D02*
D03*
Y468752D02*
D03*
Y476626D02*
D03*
D46*
X755000Y471622D02*
D03*
D47*
X346500Y484500D02*
D03*
D48*
X413500Y495500D02*
D03*
X702000Y468500D02*
D03*
X772000Y430500D02*
D03*
X723040Y490750D02*
D03*
X715000Y496750D02*
D03*
X715039Y490750D02*
D03*
X723000Y496750D02*
D03*
X480500Y504500D02*
D03*
X553000Y504000D02*
D03*
X699000Y439000D02*
D03*
X735602Y489963D02*
D03*
X735663Y496075D02*
D03*
X712000Y439000D02*
>>>>>>> 086f05f611e4eabd8aa2a084d90faab6d215b326
D03*
M02*
