G04*
G04 #@! TF.GenerationSoftware,Altium Limited,Altium Designer,23.0.1 (38)*
G04*
G04 Layer_Color=8388736*
%FSLAX25Y25*%
%MOIN*%
G70*
G04*
G04 #@! TF.SameCoordinates,3E06254A-0F58-42D6-91FB-0DF0C2053515*
G04*
G04*
G04 #@! TF.FilePolarity,Negative*
G04*
G01*
G75*
%ADD25R,0.05524X0.05918*%
%ADD26R,0.04934X0.06115*%
%ADD27R,0.05524X0.02217*%
%ADD28O,0.05524X0.02217*%
%ADD29R,0.10052X0.06902*%
%ADD30R,0.06115X0.04934*%
%ADD31R,0.04737X0.03162*%
%ADD32R,0.05524X0.06706*%
%ADD33R,0.11800X0.12800*%
%ADD34O,0.11800X0.12800*%
%ADD35C,0.10243*%
%ADD36C,0.06312*%
G04:AMPARAMS|DCode=37|XSize=63.12mil|YSize=63.12mil|CornerRadius=17.78mil|HoleSize=0mil|Usage=FLASHONLY|Rotation=270.000|XOffset=0mil|YOffset=0mil|HoleType=Round|Shape=RoundedRectangle|*
%AMROUNDEDRECTD37*
21,1,0.06312,0.02756,0,0,270.0*
21,1,0.02756,0.06312,0,0,270.0*
1,1,0.03556,-0.01378,-0.01378*
1,1,0.03556,-0.01378,0.01378*
1,1,0.03556,0.01378,0.01378*
1,1,0.03556,0.01378,-0.01378*
%
%ADD37ROUNDEDRECTD37*%
%ADD38R,0.06312X0.06312*%
%ADD39C,0.05800*%
D25*
X638161Y494500D02*
D03*
X645839D02*
D03*
X555661Y495000D02*
D03*
X563339D02*
D03*
X474500D02*
D03*
X482177D02*
D03*
X390161D02*
D03*
X397839D02*
D03*
D26*
X716500Y454500D02*
D03*
X708823D02*
D03*
X716500Y463000D02*
D03*
X708823D02*
D03*
X729661Y452000D02*
D03*
X737339D02*
D03*
X729661Y460000D02*
D03*
X737339D02*
D03*
X729661Y468000D02*
D03*
X737339D02*
D03*
D27*
X705984Y497354D02*
D03*
D28*
Y494795D02*
D03*
Y492236D02*
D03*
Y489677D02*
D03*
Y487118D02*
D03*
Y484559D02*
D03*
Y482000D02*
D03*
Y479441D02*
D03*
Y476882D02*
D03*
Y474323D02*
D03*
X730000Y497354D02*
D03*
Y494795D02*
D03*
Y492236D02*
D03*
Y489677D02*
D03*
Y487118D02*
D03*
Y484559D02*
D03*
Y482000D02*
D03*
Y479441D02*
D03*
Y476882D02*
D03*
Y474323D02*
D03*
D29*
X356201Y498000D02*
D03*
X368799D02*
D03*
X443299D02*
D03*
X430701D02*
D03*
X511701Y497000D02*
D03*
X524299D02*
D03*
X604799D02*
D03*
X592201D02*
D03*
D30*
X753000Y495839D02*
D03*
Y488161D02*
D03*
X762000Y495839D02*
D03*
Y488161D02*
D03*
X744500Y495839D02*
D03*
Y488161D02*
D03*
D31*
X683563Y461000D02*
D03*
X691437Y464740D02*
D03*
Y457260D02*
D03*
Y443760D02*
D03*
Y451240D02*
D03*
X683563Y447500D02*
D03*
X691500Y486000D02*
D03*
Y493480D02*
D03*
X683626Y489740D02*
D03*
X718563Y429740D02*
D03*
Y422260D02*
D03*
X726437Y426000D02*
D03*
X691437Y471260D02*
D03*
Y478740D02*
D03*
X683563Y475000D02*
D03*
D32*
X726500Y437000D02*
D03*
X719413D02*
D03*
X697457Y432000D02*
D03*
X704543D02*
D03*
X704500Y423500D02*
D03*
X697413D02*
D03*
X744000Y432000D02*
D03*
X736913D02*
D03*
X744043Y423500D02*
D03*
X736957D02*
D03*
D33*
X609480Y440980D02*
D03*
X364961Y440961D02*
D03*
X527994Y440994D02*
D03*
X446494D02*
D03*
D34*
X669520Y441020D02*
D03*
X649486Y440986D02*
D03*
X629480Y440980D02*
D03*
X425000Y441000D02*
D03*
X404967Y440967D02*
D03*
X384961Y440961D02*
D03*
X588033Y441033D02*
D03*
X568000Y441000D02*
D03*
X547994Y440994D02*
D03*
X466494D02*
D03*
X486500Y441000D02*
D03*
X506533Y441033D02*
D03*
D35*
X609000Y484500D02*
D03*
X669000D02*
D03*
X659000Y454500D02*
D03*
X609000D02*
D03*
X366000Y455000D02*
D03*
X416000D02*
D03*
X426000Y485000D02*
D03*
X366000D02*
D03*
X447000D02*
D03*
X507000D02*
D03*
X497000Y455000D02*
D03*
X447000D02*
D03*
X528000Y485000D02*
D03*
X588000D02*
D03*
X578000Y455000D02*
D03*
X528000D02*
D03*
D36*
X755000Y448000D02*
D03*
Y455874D02*
D03*
Y463748D02*
D03*
X346500Y453004D02*
D03*
Y460878D02*
D03*
Y468752D02*
D03*
Y476626D02*
D03*
D37*
X755000Y471622D02*
D03*
D38*
X346500Y484500D02*
D03*
D39*
X413500Y495500D02*
D03*
X702000Y468500D02*
D03*
X772000Y430500D02*
D03*
X723040Y490750D02*
D03*
X715000Y496750D02*
D03*
X715039Y490750D02*
D03*
X723000Y496750D02*
D03*
X480500Y504500D02*
D03*
X553000Y504000D02*
D03*
X699000Y439000D02*
D03*
X735602Y489963D02*
D03*
X735663Y496075D02*
D03*
X712000Y439000D02*
D03*
M02*
