G04*
G04 #@! TF.GenerationSoftware,Altium Limited,Altium Designer,23.0.1 (38)*
G04*
G04 Layer_Physical_Order=1*
G04 Layer_Color=255*
%FSLAX25Y25*%
%MOIN*%
G70*
G04*
G04 #@! TF.SameCoordinates,3E06254A-0F58-42D6-91FB-0DF0C2053515*
G04*
G04*
G04 #@! TF.FilePolarity,Positive*
G04*
G01*
G75*
%ADD10C,0.01000*%
%ADD17R,0.04724X0.05118*%
%ADD18R,0.04134X0.05315*%
%ADD19R,0.04724X0.01417*%
%ADD20O,0.04724X0.01417*%
%ADD21R,0.09252X0.06102*%
%ADD22R,0.05315X0.04134*%
%ADD23R,0.03937X0.02362*%
%ADD24R,0.04724X0.05906*%
%ADD40C,0.02500*%
%ADD41C,0.01500*%
%ADD42R,0.11000X0.12000*%
%ADD43O,0.11000X0.12000*%
%ADD44C,0.09843*%
%ADD45C,0.05512*%
G04:AMPARAMS|DCode=46|XSize=55.12mil|YSize=55.12mil|CornerRadius=13.78mil|HoleSize=0mil|Usage=FLASHONLY|Rotation=270.000|XOffset=0mil|YOffset=0mil|HoleType=Round|Shape=RoundedRectangle|*
%AMROUNDEDRECTD46*
21,1,0.05512,0.02756,0,0,270.0*
21,1,0.02756,0.05512,0,0,270.0*
1,1,0.02756,-0.01378,-0.01378*
1,1,0.02756,-0.01378,0.01378*
1,1,0.02756,0.01378,0.01378*
1,1,0.02756,0.01378,-0.01378*
%
%ADD46ROUNDEDRECTD46*%
%ADD47R,0.05512X0.05512*%
%ADD48C,0.05000*%
G36*
X490346Y507009D02*
X482778Y499441D01*
X482447Y498945D01*
X482370Y498559D01*
X478815D01*
Y495500D01*
X482177D01*
X485539D01*
Y497877D01*
X493133Y505471D01*
X532367D01*
X547978Y489859D01*
X548474Y489528D01*
X549059Y489411D01*
X559476D01*
X560062Y489528D01*
X560558Y489859D01*
X562139Y491441D01*
X562839D01*
Y495000D01*
X563339D01*
Y495500D01*
X566701D01*
Y496199D01*
X571972Y501471D01*
X586380D01*
X586575Y501051D01*
Y496914D01*
X586435Y496821D01*
X570987Y481373D01*
X554717D01*
X532166Y503923D01*
X531422Y504421D01*
X530544Y504595D01*
X518741D01*
X517863Y504421D01*
X517119Y503923D01*
X514649Y501453D01*
X514153Y501122D01*
X514082Y501051D01*
X506075D01*
Y497249D01*
X505435Y496821D01*
X488487Y479873D01*
X475530D01*
X450479Y504923D01*
X450409Y504971D01*
X450560Y505471D01*
X453367D01*
X468978Y489859D01*
X469474Y489528D01*
X470059Y489411D01*
X478315D01*
X478900Y489528D01*
X479396Y489859D01*
X480978Y491441D01*
X481677D01*
Y494500D01*
X478815D01*
Y493604D01*
X478324Y493113D01*
X477862Y493304D01*
Y498559D01*
X477375D01*
X477184Y499021D01*
X479348Y501185D01*
X480039Y501000D01*
X480961D01*
X481851Y501238D01*
X482649Y501699D01*
X483301Y502351D01*
X483762Y503149D01*
X484000Y504039D01*
Y504961D01*
X483762Y505851D01*
X483301Y506649D01*
X482979Y506971D01*
X483186Y507471D01*
X490154D01*
X490346Y507009D01*
D02*
G37*
G36*
X755718Y499368D02*
X755526Y498906D01*
X751505D01*
X745402Y505009D01*
X745594Y505471D01*
X749614D01*
X755718Y499368D01*
D02*
G37*
G36*
X436190Y504971D02*
X436119Y504923D01*
X434801Y503605D01*
X434680Y503425D01*
X433351Y502095D01*
X432502D01*
X432280Y502051D01*
X425075D01*
Y499282D01*
X423789D01*
X422911Y499108D01*
X422167Y498610D01*
X417207Y493650D01*
X416709Y492906D01*
X416535Y492028D01*
Y487779D01*
X411628Y482873D01*
X389872D01*
X384429Y488316D01*
Y495524D01*
X384254Y496402D01*
X383757Y497146D01*
X375894Y505009D01*
X376085Y505471D01*
X396309D01*
Y498559D01*
X394476D01*
Y495500D01*
X397839D01*
Y495000D01*
D01*
Y495500D01*
X401201D01*
Y498559D01*
X399368D01*
Y505471D01*
X436038D01*
X436190Y504971D01*
D02*
G37*
G36*
X771011Y507302D02*
X772946Y506715D01*
X774728Y505762D01*
X776291Y504480D01*
X777573Y502917D01*
X778526Y501135D01*
X779113Y499200D01*
X779299Y497305D01*
X779269Y497153D01*
X779359Y426386D01*
X779368Y426340D01*
X779238Y424687D01*
X778840Y423029D01*
X778187Y421453D01*
X777295Y419998D01*
X776187Y418701D01*
X774890Y417593D01*
X773436Y416701D01*
X771860Y416049D01*
X770201Y415650D01*
X768546Y415520D01*
X768500Y415529D01*
X751012D01*
X750963Y416029D01*
X751709Y416178D01*
X752453Y416675D01*
X760196Y424418D01*
X768536D01*
X769413Y424593D01*
X770158Y425090D01*
X772067Y427000D01*
X772461D01*
X773351Y427239D01*
X774149Y427699D01*
X774801Y428351D01*
X775261Y429149D01*
X775500Y430039D01*
Y430961D01*
X775261Y431851D01*
X774801Y432649D01*
X774294Y433156D01*
Y445000D01*
X774119Y445878D01*
X773622Y446622D01*
X762748Y457496D01*
X762004Y457994D01*
X761126Y458168D01*
X758012D01*
X758006Y458180D01*
X757306Y458880D01*
X756450Y459374D01*
X755785Y459552D01*
Y460070D01*
X756450Y460248D01*
X757306Y460743D01*
X758006Y461442D01*
X758500Y462298D01*
X758756Y463254D01*
Y464243D01*
X758500Y465198D01*
X758006Y466054D01*
X757306Y466753D01*
X756450Y467248D01*
X756182Y467320D01*
X756248Y467820D01*
X756378D01*
X757306Y468004D01*
X758092Y468530D01*
X758618Y469316D01*
X758803Y470244D01*
Y473000D01*
X758618Y473928D01*
X758092Y474714D01*
X757306Y475240D01*
X756378Y475424D01*
X753622D01*
X752694Y475240D01*
X751908Y474714D01*
X751382Y473928D01*
X751197Y473000D01*
Y470244D01*
X751382Y469316D01*
X751908Y468530D01*
X752694Y468004D01*
X753622Y467820D01*
X753752D01*
X753818Y467320D01*
X753550Y467248D01*
X752694Y466753D01*
X751995Y466054D01*
X751500Y465198D01*
X751244Y464243D01*
Y463254D01*
X751500Y462298D01*
X751995Y461442D01*
X752694Y460743D01*
X753550Y460248D01*
X754215Y460070D01*
Y459552D01*
X753550Y459374D01*
X752694Y458880D01*
X751995Y458180D01*
X751500Y457324D01*
X751244Y456368D01*
Y455380D01*
X751500Y454424D01*
X751995Y453568D01*
X752694Y452869D01*
X753550Y452374D01*
X754215Y452196D01*
Y451678D01*
X753550Y451500D01*
X752694Y451006D01*
X751995Y450306D01*
X751500Y449450D01*
X751246Y448500D01*
X755000D01*
X758754D01*
X758500Y449450D01*
X758006Y450306D01*
X757306Y451006D01*
X756450Y451500D01*
X755785Y451678D01*
Y452196D01*
X756450Y452374D01*
X757306Y452869D01*
X758006Y453568D01*
X758012Y453580D01*
X760176D01*
X769706Y444050D01*
Y433156D01*
X769199Y432649D01*
X768739Y431851D01*
X768500Y430961D01*
Y430039D01*
X768525Y429946D01*
X767585Y429006D01*
X759246D01*
X758368Y428832D01*
X757624Y428335D01*
X749881Y420591D01*
X747405D01*
Y423000D01*
X744043D01*
Y424000D01*
X747405D01*
Y427453D01*
X745529D01*
Y428047D01*
X747362D01*
Y431500D01*
X744000D01*
Y432000D01*
X743500D01*
Y435953D01*
X742801D01*
X740672Y438081D01*
X740176Y438413D01*
X739591Y438529D01*
X729862D01*
Y440953D01*
X727000D01*
Y437000D01*
X726000D01*
Y440953D01*
X725301D01*
X724402Y441851D01*
X724594Y442313D01*
X745323D01*
X745908Y442430D01*
X746404Y442761D01*
X748581Y444938D01*
X748913Y445434D01*
X749029Y446020D01*
Y460500D01*
X748913Y461085D01*
X748582Y461581D01*
X741401Y468762D01*
X740905Y469093D01*
X740406Y469193D01*
Y471658D01*
X734272D01*
Y464342D01*
X740406D01*
Y464778D01*
X740868Y464970D01*
X745971Y459867D01*
Y458346D01*
X745509Y458154D01*
X742581Y461081D01*
X742085Y461413D01*
X741500Y461529D01*
X740406D01*
Y463658D01*
X734272D01*
Y456343D01*
X740406D01*
Y458376D01*
X740906Y458432D01*
X743971Y455367D01*
Y451360D01*
X743889Y451304D01*
X743210Y451432D01*
X743167Y451496D01*
X741581Y453081D01*
X741085Y453413D01*
X740500Y453529D01*
X740406D01*
Y455657D01*
X734272D01*
Y449372D01*
X732728D01*
Y455657D01*
X728965D01*
X728824Y455842D01*
X729073Y456343D01*
X732728D01*
Y463658D01*
X728965D01*
X728824Y463842D01*
X729073Y464342D01*
X732728D01*
Y471658D01*
X728757D01*
X728326Y472089D01*
X728541Y472581D01*
X731653D01*
X732320Y472713D01*
X732885Y473091D01*
X733263Y473656D01*
X733396Y474323D01*
X733290Y474852D01*
X733576Y475352D01*
X749882D01*
X750467Y475469D01*
X750963Y475800D01*
X760228Y485065D01*
X760433D01*
X760581Y485094D01*
X765658D01*
Y491228D01*
X758343D01*
Y487505D01*
X757119Y486282D01*
X756658Y486474D01*
Y491228D01*
X749342D01*
Y487257D01*
X748619Y486534D01*
X748158Y486726D01*
Y491228D01*
X741529D01*
Y492772D01*
X748158D01*
Y497274D01*
X748619Y497466D01*
X749342Y496743D01*
Y492772D01*
X756658D01*
Y497774D01*
X757119Y497966D01*
X758343Y496743D01*
Y492772D01*
X765658D01*
Y498906D01*
X760505D01*
X752402Y507009D01*
X752594Y507471D01*
X769000D01*
X769098Y507490D01*
X771011Y507302D01*
D02*
G37*
G36*
X478021Y506971D02*
X477699Y506649D01*
X477239Y505851D01*
X477000Y504961D01*
Y504039D01*
X477185Y503348D01*
X473419Y499581D01*
X473087Y499085D01*
X472982Y498559D01*
X471138D01*
Y492602D01*
X470638Y492525D01*
X456154Y507009D01*
X456346Y507471D01*
X477814D01*
X478021Y506971D01*
D02*
G37*
G36*
X551145D02*
X550851Y506801D01*
X550199Y506149D01*
X549739Y505351D01*
X549500Y504461D01*
Y503539D01*
X549739Y502649D01*
X550199Y501851D01*
X550851Y501199D01*
X551649Y500738D01*
X552539Y500500D01*
X553461D01*
X554351Y500738D01*
X555149Y501199D01*
X555801Y501851D01*
X556261Y502649D01*
X556500Y503539D01*
Y504337D01*
X557633Y505471D01*
X563119D01*
X563310Y505009D01*
X556861Y498559D01*
X552299D01*
Y492470D01*
X549693D01*
X535154Y507009D01*
X535346Y507471D01*
X551011D01*
X551145Y506971D01*
D02*
G37*
G36*
X624919Y486919D02*
X625415Y486587D01*
X625704Y486529D01*
X625655Y486029D01*
X614733D01*
X614694Y486227D01*
X614247Y487305D01*
X613599Y488275D01*
X612775Y489099D01*
X611805Y489747D01*
X610727Y490194D01*
X609583Y490421D01*
X608417D01*
X607273Y490194D01*
X606313Y489796D01*
X605974Y489963D01*
X605829Y490104D01*
Y492949D01*
X610425D01*
Y500705D01*
X610925Y500912D01*
X624919Y486919D01*
D02*
G37*
G36*
X599173Y501051D02*
Y492949D01*
X602770D01*
Y489201D01*
X602886Y488616D01*
X603218Y488119D01*
X603865Y487472D01*
X603753Y487305D01*
X603306Y486227D01*
X603079Y485083D01*
Y483917D01*
X603306Y482773D01*
X603753Y481695D01*
X604401Y480725D01*
X605225Y479901D01*
X606195Y479253D01*
X607273Y478806D01*
X608417Y478579D01*
X609583D01*
X610727Y478806D01*
X611805Y479253D01*
X612775Y479901D01*
X613599Y480725D01*
X614247Y481695D01*
X614694Y482773D01*
X614733Y482971D01*
X659919D01*
X660504Y483087D01*
X661000Y483419D01*
X662579Y484997D01*
X663079Y484790D01*
Y483917D01*
X663306Y482773D01*
X663753Y481695D01*
X664401Y480725D01*
X665225Y479901D01*
X666195Y479253D01*
X667273Y478806D01*
X668417Y478579D01*
X669583D01*
X670727Y478806D01*
X671805Y479253D01*
X672775Y479901D01*
X673599Y480725D01*
X674247Y481695D01*
X674694Y482773D01*
X674921Y483917D01*
Y484320D01*
X675383Y484511D01*
X676476Y483419D01*
X676972Y483087D01*
X677557Y482971D01*
X678386D01*
X678971Y483087D01*
X679467Y483419D01*
X683608Y487559D01*
X686502D01*
Y481612D01*
X686439Y481295D01*
Y477181D01*
X680594D01*
Y476529D01*
X573022D01*
X572920Y477029D01*
X573559Y477457D01*
X581579Y485476D01*
X582079Y485269D01*
Y484417D01*
X582306Y483273D01*
X582753Y482195D01*
X583401Y481225D01*
X584225Y480401D01*
X585195Y479753D01*
X586273Y479306D01*
X587417Y479079D01*
X588583D01*
X589727Y479306D01*
X590805Y479753D01*
X591775Y480401D01*
X592599Y481225D01*
X593247Y482195D01*
X593694Y483273D01*
X593921Y484417D01*
Y485583D01*
X593694Y486727D01*
X593247Y487805D01*
X592599Y488775D01*
X591775Y489599D01*
X590805Y490247D01*
X589727Y490694D01*
X588583Y490921D01*
X587731D01*
X587524Y491421D01*
X589007Y492905D01*
X590400D01*
X590621Y492949D01*
X597827D01*
Y501051D01*
X598021Y501471D01*
X598979D01*
X599173Y501051D01*
D02*
G37*
G36*
X755470Y484632D02*
X749248Y478411D01*
X745475D01*
X745284Y478873D01*
X751505Y485094D01*
X755278D01*
X755470Y484632D01*
D02*
G37*
G36*
X552144Y477457D02*
X552784Y477029D01*
X552682Y476529D01*
X538633D01*
X533135Y482028D01*
X533247Y482195D01*
X533694Y483273D01*
X533921Y484417D01*
Y485583D01*
X533694Y486727D01*
X533247Y487805D01*
X532599Y488775D01*
X531775Y489599D01*
X530805Y490247D01*
X529727Y490694D01*
X528583Y490921D01*
X527417D01*
X526529Y490745D01*
X526029Y491087D01*
Y492949D01*
X529925D01*
Y499022D01*
X530387Y499214D01*
X552144Y477457D01*
D02*
G37*
G36*
X472957Y475957D02*
X473702Y475459D01*
X474580Y475285D01*
X489437D01*
X490315Y475459D01*
X491059Y475957D01*
X500579Y485476D01*
X501079Y485269D01*
Y484417D01*
X501306Y483273D01*
X501753Y482195D01*
X502401Y481225D01*
X503225Y480401D01*
X504195Y479753D01*
X505273Y479306D01*
X506417Y479079D01*
X507583D01*
X508727Y479306D01*
X509805Y479753D01*
X510775Y480401D01*
X511599Y481225D01*
X512247Y482195D01*
X512694Y483273D01*
X512921Y484417D01*
Y485583D01*
X512694Y486727D01*
X512247Y487805D01*
X511599Y488775D01*
X510775Y489599D01*
X509805Y490247D01*
X508727Y490694D01*
X507583Y490921D01*
X506731D01*
X506524Y491421D01*
X508007Y492905D01*
X509900D01*
X510121Y492949D01*
X517327D01*
Y497720D01*
X517562Y497878D01*
X518211Y498527D01*
X518673Y498336D01*
Y492949D01*
X522971D01*
Y489581D01*
X523087Y488996D01*
X523318Y488651D01*
X522753Y487805D01*
X522306Y486727D01*
X522079Y485583D01*
Y484417D01*
X522306Y483273D01*
X522753Y482195D01*
X523401Y481225D01*
X524225Y480401D01*
X525195Y479753D01*
X526273Y479306D01*
X527417Y479079D01*
X528583D01*
X529727Y479306D01*
X530805Y479753D01*
X530972Y479865D01*
X535846Y474991D01*
X535654Y474529D01*
X459633D01*
X452135Y482028D01*
X452247Y482195D01*
X452694Y483273D01*
X452921Y484417D01*
Y485583D01*
X452694Y486727D01*
X452247Y487805D01*
X451599Y488775D01*
X450775Y489599D01*
X449805Y490247D01*
X448727Y490694D01*
X447583Y490921D01*
X446417D01*
X445273Y490694D01*
X445185Y490657D01*
X444829Y491014D01*
Y493949D01*
X448925D01*
Y499336D01*
X449387Y499527D01*
X472957Y475957D01*
D02*
G37*
G36*
X726448Y484618D02*
X726613Y484515D01*
X726737Y483892D01*
X726881Y483677D01*
X727090Y483280D01*
X726881Y482882D01*
X726737Y482667D01*
X726604Y482000D01*
X726737Y481333D01*
X726881Y481118D01*
X727090Y480721D01*
X726881Y480323D01*
X726737Y480108D01*
X726604Y479441D01*
X726737Y478774D01*
X727115Y478209D01*
Y478114D01*
X726737Y477549D01*
X726604Y476882D01*
X726737Y476215D01*
X726881Y476000D01*
X727090Y475602D01*
X726881Y475205D01*
X726737Y474990D01*
X726637Y474485D01*
X726144Y474271D01*
X716661Y483754D01*
X716852Y484216D01*
X724868D01*
X725551Y484351D01*
X726130Y484738D01*
X726130Y484739D01*
X726448Y484618D01*
D02*
G37*
G36*
X680594Y472819D02*
X686439D01*
Y467421D01*
Y463181D01*
X683422D01*
X683176Y463550D01*
X673717Y473009D01*
X673909Y473471D01*
X680594D01*
Y472819D01*
D02*
G37*
G36*
X637310Y503009D02*
X636919Y502617D01*
X636587Y502121D01*
X636471Y501535D01*
Y498059D01*
X634799D01*
Y490941D01*
X641524D01*
Y498059D01*
X639529D01*
Y500902D01*
X640098Y501471D01*
X644165D01*
X644421Y501058D01*
X644420Y500971D01*
X644309Y500414D01*
Y498059D01*
X642476D01*
Y495000D01*
X645839D01*
X649201D01*
Y498059D01*
X647368D01*
Y499471D01*
X695461D01*
X695653Y499009D01*
X692306Y495661D01*
X692000D01*
Y493980D01*
X694950D01*
X700441Y499471D01*
X702399D01*
X702622Y499063D01*
Y497854D01*
X705984D01*
Y496854D01*
X702622D01*
Y495646D01*
X702622Y495646D01*
X702622D01*
X702658Y495146D01*
X702589Y494795D01*
X702721Y494129D01*
X703099Y493564D01*
Y493468D01*
X702721Y492903D01*
X702589Y492236D01*
X702721Y491570D01*
X702865Y491354D01*
X703074Y490957D01*
X702865Y490559D01*
X702721Y490344D01*
X702589Y489677D01*
X702721Y489010D01*
X702865Y488795D01*
X703074Y488398D01*
X702865Y488000D01*
X702721Y487785D01*
X702589Y487118D01*
X702721Y486451D01*
X703099Y485886D01*
Y485791D01*
X702721Y485226D01*
X702589Y484559D01*
X702721Y483892D01*
X702865Y483677D01*
X703074Y483280D01*
X702865Y482882D01*
X702721Y482667D01*
X702589Y482000D01*
X702721Y481333D01*
X702865Y481118D01*
X703074Y480721D01*
X702865Y480323D01*
X702721Y480108D01*
X702589Y479441D01*
X702721Y478774D01*
X703099Y478209D01*
Y478114D01*
X702721Y477549D01*
X702589Y476882D01*
X702721Y476215D01*
X702865Y476000D01*
X703074Y475602D01*
X702865Y475205D01*
X702721Y474990D01*
X702589Y474323D01*
X702721Y473656D01*
X703099Y473091D01*
X703664Y472713D01*
X704331Y472581D01*
X707638D01*
X708305Y472713D01*
X708425Y472793D01*
X711044D01*
X714971Y468866D01*
Y466657D01*
X713433D01*
Y459342D01*
X717882D01*
X718089Y458843D01*
X717404Y458157D01*
X713433D01*
Y450843D01*
X713063Y450529D01*
X712260D01*
X711890Y450843D01*
Y458157D01*
X705756D01*
Y456029D01*
X701274D01*
X698435Y458869D01*
Y466675D01*
X698935Y466809D01*
X699199Y466351D01*
X699851Y465699D01*
X700649Y465239D01*
X701539Y465000D01*
X702461D01*
X703351Y465239D01*
X704149Y465699D01*
X704350Y465900D01*
X705756Y464495D01*
Y459342D01*
X711890D01*
Y466657D01*
X707919D01*
X705760Y468816D01*
X705490Y468996D01*
X705262Y469851D01*
X704801Y470649D01*
X704149Y471301D01*
X703351Y471762D01*
X702461Y472000D01*
X701539D01*
X700649Y471762D01*
X699851Y471301D01*
X699199Y470649D01*
X698738Y469851D01*
X698500Y468961D01*
Y468585D01*
X698000Y468433D01*
X697987Y468453D01*
X696435Y470005D01*
Y483382D01*
X696318Y483967D01*
X695987Y484463D01*
X694468Y485982D01*
Y488181D01*
X689561D01*
Y490166D01*
X690694Y491299D01*
X691000D01*
Y492980D01*
X688050D01*
X687064Y491995D01*
X686594Y491921D01*
X686594Y491921D01*
X686594Y491921D01*
X680657D01*
Y488935D01*
X677972Y486249D01*
X676923Y487297D01*
X676834Y487745D01*
X676503Y488241D01*
X672741Y492003D01*
X672245Y492334D01*
X671660Y492451D01*
X666340D01*
X665755Y492334D01*
X665259Y492003D01*
X659285Y486029D01*
X645598D01*
X645548Y486529D01*
X645838Y486587D01*
X646334Y486919D01*
X646920Y487504D01*
X647252Y488000D01*
X647368Y488586D01*
Y490941D01*
X649201D01*
Y494000D01*
X645839D01*
X642476D01*
Y490941D01*
X644309D01*
Y489529D01*
X626634D01*
X613154Y503009D01*
X613346Y503471D01*
X637119D01*
X637310Y503009D01*
D02*
G37*
G36*
X379841Y494573D02*
Y487365D01*
X380015Y486487D01*
X380512Y485743D01*
X387299Y478957D01*
X388043Y478459D01*
X388921Y478285D01*
X412579D01*
X413457Y478459D01*
X414201Y478957D01*
X419594Y484350D01*
X420127Y484175D01*
X420306Y483273D01*
X420753Y482195D01*
X421401Y481225D01*
X422225Y480401D01*
X423195Y479753D01*
X424273Y479306D01*
X425417Y479079D01*
X426583D01*
X427727Y479306D01*
X428805Y479753D01*
X429775Y480401D01*
X430599Y481225D01*
X431247Y482195D01*
X431694Y483273D01*
X431921Y484417D01*
Y485583D01*
X431694Y486727D01*
X431247Y487805D01*
X430599Y488775D01*
X429775Y489599D01*
X428805Y490247D01*
X427727Y490694D01*
X426583Y490921D01*
X425417D01*
X424273Y490694D01*
X423195Y490247D01*
X422225Y489599D01*
X421623Y488997D01*
X421123Y489204D01*
Y491077D01*
X424575Y494529D01*
X425075Y494322D01*
Y493949D01*
X436327D01*
Y498583D01*
X437211Y499467D01*
X437673Y499276D01*
Y493949D01*
X441770D01*
Y490380D01*
X441886Y489795D01*
X442218Y489299D01*
X442571Y488945D01*
X442401Y488775D01*
X441753Y487805D01*
X441306Y486727D01*
X441079Y485583D01*
Y484417D01*
X441306Y483273D01*
X441753Y482195D01*
X442401Y481225D01*
X443225Y480401D01*
X444195Y479753D01*
X445273Y479306D01*
X446417Y479079D01*
X447583D01*
X448727Y479306D01*
X449805Y479753D01*
X449972Y479865D01*
X457919Y471919D01*
X458415Y471587D01*
X459000Y471471D01*
X670929D01*
X680565Y461835D01*
Y461681D01*
X680594Y461533D01*
Y458819D01*
X686439D01*
Y453921D01*
Y449681D01*
X682757D01*
X662357Y470081D01*
X661861Y470413D01*
X661276Y470529D01*
X382633D01*
X371135Y482028D01*
X371247Y482195D01*
X371694Y483273D01*
X371921Y484417D01*
Y485583D01*
X371694Y486727D01*
X371247Y487805D01*
X370599Y488775D01*
X369775Y489599D01*
X368805Y490247D01*
X367727Y490694D01*
X367529Y490733D01*
Y493949D01*
X374425D01*
Y499336D01*
X374887Y499527D01*
X379841Y494573D01*
D02*
G37*
G36*
X726594Y453495D02*
Y449372D01*
X720426D01*
X719717Y450081D01*
X719326Y450343D01*
X719429Y450843D01*
X719567D01*
Y455995D01*
X721148Y457576D01*
X721431Y458000D01*
X721661Y458080D01*
X721994Y458095D01*
X726594Y453495D01*
D02*
G37*
G36*
X708553Y438340D02*
X708739Y437649D01*
X709199Y436851D01*
X709851Y436199D01*
X710649Y435739D01*
X711539Y435500D01*
X712461D01*
X713351Y435739D01*
X713877Y436042D01*
X714001Y435919D01*
X714497Y435587D01*
X715082Y435471D01*
X716051D01*
Y433047D01*
X722775D01*
X722775Y433047D01*
X723138D01*
Y433047D01*
X723275Y433047D01*
X724231D01*
X724422Y432585D01*
X723107Y431270D01*
X721531D01*
Y431921D01*
X719063D01*
Y429740D01*
Y427559D01*
X721531D01*
Y428211D01*
X722981D01*
X723468Y428181D01*
X723468Y427794D01*
Y423819D01*
X725869D01*
X726437Y423706D01*
X729050D01*
X730687Y422069D01*
X731431Y421572D01*
X732309Y421397D01*
X733595D01*
Y419547D01*
X736972D01*
X737195Y419325D01*
X737312Y418737D01*
X737809Y417993D01*
X739127Y416675D01*
X739871Y416178D01*
X740617Y416029D01*
X740568Y415529D01*
X713361D01*
X713311Y416029D01*
X713601Y416087D01*
X714097Y416419D01*
X717757Y420079D01*
X721531D01*
Y424441D01*
X715594D01*
Y422242D01*
X712382Y419029D01*
X700096D01*
X700084Y419047D01*
X700351Y419547D01*
X700775D01*
Y419547D01*
X701138D01*
Y419547D01*
X704000D01*
Y423500D01*
X704500D01*
Y424000D01*
X707862D01*
Y427453D01*
X706073D01*
Y428047D01*
X707906D01*
Y431500D01*
X704543D01*
Y432500D01*
X707906D01*
Y435953D01*
X706073D01*
Y436567D01*
X708032Y438526D01*
X708553Y438340D01*
D02*
G37*
G36*
X733551Y428047D02*
X734609D01*
Y427453D01*
X733595D01*
Y426357D01*
X733095Y426150D01*
X731622Y427622D01*
X730878Y428119D01*
X730000Y428294D01*
X726437D01*
X725869Y428181D01*
X725007D01*
X724850Y428585D01*
X724844Y428681D01*
X727581Y431419D01*
X727913Y431915D01*
X728029Y432500D01*
Y433047D01*
X729862D01*
Y435471D01*
X733551D01*
Y428047D01*
D02*
G37*
G36*
X342500Y507471D02*
X353057D01*
X353248Y507009D01*
X340419Y494179D01*
X340087Y493683D01*
X339971Y493098D01*
Y458004D01*
X340087Y457419D01*
X340419Y456923D01*
X342976Y454365D01*
X342746Y453504D01*
X346500D01*
X350254D01*
X350000Y454454D01*
X349505Y455310D01*
X348806Y456009D01*
X347950Y456504D01*
X347285Y456682D01*
Y457200D01*
X347950Y457378D01*
X348806Y457872D01*
X349505Y458572D01*
X350000Y459428D01*
X350256Y460384D01*
Y461373D01*
X350000Y462328D01*
X349505Y463184D01*
X348806Y463883D01*
X347950Y464378D01*
X347285Y464556D01*
Y465074D01*
X347950Y465252D01*
X348806Y465746D01*
X349505Y466446D01*
X350000Y467302D01*
X350256Y468258D01*
Y469246D01*
X350000Y470202D01*
X349505Y471058D01*
X348806Y471758D01*
X347950Y472252D01*
X347285Y472430D01*
Y472948D01*
X347950Y473126D01*
X348806Y473621D01*
X349505Y474320D01*
X350000Y475176D01*
X350256Y476131D01*
Y477120D01*
X350000Y478076D01*
X349505Y478932D01*
X348806Y479632D01*
X347950Y480126D01*
X347509Y480244D01*
X347575Y480744D01*
X350256D01*
Y488256D01*
X343029D01*
Y492464D01*
X350113Y499548D01*
X350575Y499356D01*
Y493949D01*
X353907D01*
Y463926D01*
X354081Y463048D01*
X354579Y462303D01*
X360281Y456601D01*
X360079Y455583D01*
Y454417D01*
X360306Y453273D01*
X360753Y452195D01*
X361401Y451225D01*
X362225Y450401D01*
X363195Y449753D01*
X364273Y449306D01*
X365417Y449079D01*
X366583D01*
X367727Y449306D01*
X368805Y449753D01*
X369775Y450401D01*
X370599Y451225D01*
X371247Y452195D01*
X371694Y453273D01*
X371921Y454417D01*
Y455583D01*
X371694Y456727D01*
X371482Y457238D01*
X374121Y459877D01*
X411796D01*
X412003Y459377D01*
X411401Y458775D01*
X410753Y457805D01*
X410541Y457294D01*
X399000D01*
X398122Y457119D01*
X397378Y456622D01*
X387975Y447220D01*
X387460Y447495D01*
X386235Y447867D01*
X384961Y447992D01*
X383686Y447867D01*
X382461Y447495D01*
X381332Y446891D01*
X380342Y446079D01*
X379530Y445089D01*
X378926Y443960D01*
X378555Y442735D01*
X378429Y441461D01*
Y440461D01*
X378555Y439186D01*
X378926Y437961D01*
X379530Y436832D01*
X380342Y435842D01*
X381332Y435030D01*
X382461Y434426D01*
X383686Y434055D01*
X384961Y433929D01*
X386235Y434055D01*
X387460Y434426D01*
X388589Y435030D01*
X389579Y435842D01*
X390391Y436832D01*
X390995Y437961D01*
X391367Y439186D01*
X391492Y440461D01*
Y441461D01*
X391367Y442735D01*
X391044Y443799D01*
X399950Y452706D01*
X410541D01*
X410753Y452195D01*
X411401Y451225D01*
X412225Y450401D01*
X413195Y449753D01*
X414273Y449306D01*
X415417Y449079D01*
X416583D01*
X417727Y449306D01*
X418805Y449753D01*
X419775Y450401D01*
X420599Y451225D01*
X421247Y452195D01*
X421694Y453273D01*
X421921Y454417D01*
Y455269D01*
X422421Y455476D01*
X425020Y452878D01*
X425764Y452381D01*
X426642Y452206D01*
X441748D01*
X441753Y452195D01*
X442401Y451225D01*
X443225Y450401D01*
X444195Y449753D01*
X445273Y449306D01*
X446417Y449079D01*
X447583D01*
X448727Y449306D01*
X449805Y449753D01*
X450775Y450401D01*
X451599Y451225D01*
X452247Y452195D01*
X452694Y453273D01*
X452921Y454417D01*
Y455583D01*
X452694Y456727D01*
X452482Y457238D01*
X455122Y459877D01*
X492796D01*
X493003Y459377D01*
X492401Y458775D01*
X491753Y457805D01*
X491541Y457294D01*
X480500D01*
X479622Y457119D01*
X478878Y456622D01*
X469508Y447253D01*
X468993Y447528D01*
X467768Y447900D01*
X466494Y448025D01*
X465220Y447900D01*
X463994Y447528D01*
X462865Y446924D01*
X461875Y446112D01*
X461063Y445122D01*
X460460Y443993D01*
X460088Y442768D01*
X459962Y441494D01*
Y440494D01*
X460088Y439220D01*
X460460Y437994D01*
X461063Y436865D01*
X461875Y435875D01*
X462865Y435063D01*
X463994Y434459D01*
X465220Y434088D01*
X466494Y433962D01*
X467768Y434088D01*
X468993Y434459D01*
X470122Y435063D01*
X471112Y435875D01*
X471924Y436865D01*
X472528Y437994D01*
X472900Y439220D01*
X473025Y440494D01*
Y441494D01*
X472900Y442768D01*
X472577Y443832D01*
X481450Y452706D01*
X491541D01*
X491753Y452195D01*
X492401Y451225D01*
X493225Y450401D01*
X494195Y449753D01*
X495273Y449306D01*
X496417Y449079D01*
X497583D01*
X498727Y449306D01*
X499805Y449753D01*
X500775Y450401D01*
X501599Y451225D01*
X502247Y452195D01*
X502694Y453273D01*
X502921Y454417D01*
Y455269D01*
X503421Y455476D01*
X506019Y452878D01*
X506764Y452381D01*
X507642Y452206D01*
X522748D01*
X522753Y452195D01*
X523401Y451225D01*
X524225Y450401D01*
X525195Y449753D01*
X526273Y449306D01*
X527417Y449079D01*
X528583D01*
X529727Y449306D01*
X530805Y449753D01*
X531775Y450401D01*
X532599Y451225D01*
X533247Y452195D01*
X533694Y453273D01*
X533921Y454417D01*
Y455583D01*
X533694Y456727D01*
X533482Y457238D01*
X536122Y459877D01*
X573796D01*
X574003Y459377D01*
X573401Y458775D01*
X572753Y457805D01*
X572541Y457294D01*
X562000D01*
X561122Y457119D01*
X560378Y456622D01*
X551008Y447253D01*
X550493Y447528D01*
X549268Y447900D01*
X547994Y448025D01*
X546720Y447900D01*
X545494Y447528D01*
X544365Y446924D01*
X543375Y446112D01*
X542563Y445122D01*
X541959Y443993D01*
X541588Y442768D01*
X541462Y441494D01*
Y440494D01*
X541588Y439220D01*
X541959Y437994D01*
X542563Y436865D01*
X543375Y435875D01*
X544365Y435063D01*
X545494Y434459D01*
X546720Y434088D01*
X547994Y433962D01*
X549268Y434088D01*
X550493Y434459D01*
X551622Y435063D01*
X552612Y435875D01*
X553425Y436865D01*
X554028Y437994D01*
X554400Y439220D01*
X554525Y440494D01*
Y441494D01*
X554400Y442768D01*
X554077Y443832D01*
X562950Y452706D01*
X572541D01*
X572753Y452195D01*
X573401Y451225D01*
X574225Y450401D01*
X575195Y449753D01*
X576273Y449306D01*
X577417Y449079D01*
X578583D01*
X579727Y449306D01*
X580805Y449753D01*
X581775Y450401D01*
X582599Y451225D01*
X583247Y452195D01*
X583694Y453273D01*
X583921Y454417D01*
Y455269D01*
X584421Y455476D01*
X587019Y452878D01*
X587764Y452381D01*
X588642Y452206D01*
X603541D01*
X603753Y451695D01*
X604401Y450725D01*
X605225Y449901D01*
X606195Y449253D01*
X607273Y448806D01*
X608417Y448579D01*
X609583D01*
X610727Y448806D01*
X611805Y449253D01*
X612775Y449901D01*
X613599Y450725D01*
X614247Y451695D01*
X614694Y452773D01*
X614921Y453917D01*
Y455083D01*
X614694Y456227D01*
X614247Y457305D01*
X613599Y458275D01*
X612775Y459099D01*
X611805Y459747D01*
X610727Y460194D01*
X609583Y460421D01*
X608417D01*
X607273Y460194D01*
X606195Y459747D01*
X605225Y459099D01*
X604401Y458275D01*
X603753Y457305D01*
X603541Y456794D01*
X589592D01*
X582593Y463793D01*
X581848Y464291D01*
X580970Y464465D01*
X535171D01*
X534293Y464291D01*
X533549Y463793D01*
X530238Y460482D01*
X529727Y460694D01*
X528583Y460921D01*
X527417D01*
X526273Y460694D01*
X525195Y460247D01*
X524225Y459599D01*
X523401Y458775D01*
X522753Y457805D01*
X522334Y456794D01*
X508592D01*
X501593Y463793D01*
X500848Y464291D01*
X499970Y464465D01*
X454171D01*
X453293Y464291D01*
X452549Y463793D01*
X449238Y460482D01*
X448727Y460694D01*
X447583Y460921D01*
X446417D01*
X445273Y460694D01*
X444195Y460247D01*
X443225Y459599D01*
X442401Y458775D01*
X441753Y457805D01*
X441334Y456794D01*
X427592D01*
X420593Y463793D01*
X419848Y464291D01*
X418970Y464465D01*
X373171D01*
X372293Y464291D01*
X371549Y463793D01*
X368238Y460482D01*
X367727Y460694D01*
X366583Y460921D01*
X365417D01*
X364273Y460694D01*
X363195Y460247D01*
X363152Y460219D01*
X358495Y464876D01*
Y493949D01*
X361827D01*
Y498807D01*
X362711Y499691D01*
X363173Y499500D01*
Y493949D01*
X364471D01*
Y490733D01*
X364273Y490694D01*
X363195Y490247D01*
X362225Y489599D01*
X361401Y488775D01*
X360753Y487805D01*
X360306Y486727D01*
X360079Y485583D01*
Y484417D01*
X360306Y483273D01*
X360753Y482195D01*
X361401Y481225D01*
X362225Y480401D01*
X363195Y479753D01*
X364273Y479306D01*
X365417Y479079D01*
X366583D01*
X367727Y479306D01*
X368805Y479753D01*
X368972Y479865D01*
X380919Y467919D01*
X381415Y467587D01*
X382000Y467471D01*
X660642D01*
X680594Y447518D01*
Y445319D01*
X686439D01*
Y441957D01*
X686555Y441372D01*
X686887Y440876D01*
X687766Y439997D01*
X688262Y439666D01*
X688847Y439549D01*
X695022D01*
X695434Y439473D01*
X695500Y439063D01*
Y438539D01*
X695739Y437649D01*
X696069Y437076D01*
X696044Y437038D01*
X695927Y436453D01*
Y435953D01*
X694094D01*
Y428047D01*
X695927D01*
Y427453D01*
X694051D01*
Y419547D01*
X695884D01*
Y419087D01*
X696000Y418502D01*
X696332Y418005D01*
X697919Y416419D01*
X698415Y416087D01*
X698704Y416029D01*
X698655Y415529D01*
X343494D01*
X343000Y415529D01*
X342513Y415548D01*
X340988Y415698D01*
X339054Y416285D01*
X337272Y417238D01*
X335709Y418520D01*
X334427Y420083D01*
X333474Y421865D01*
X332887Y423800D01*
X332738Y425319D01*
X332718Y425811D01*
X332691Y425949D01*
X332690Y426310D01*
X332438Y497414D01*
X332420Y497505D01*
X332604Y499377D01*
X333178Y501270D01*
X334111Y503014D01*
X335366Y504543D01*
X336894Y505798D01*
X338639Y506731D01*
X340532Y507305D01*
X342406Y507489D01*
X342500Y507471D01*
D02*
G37*
%LPC*%
G36*
X566701Y494500D02*
X563839D01*
Y491441D01*
X566701D01*
Y494500D01*
D02*
G37*
G36*
X485539Y494500D02*
X482677D01*
Y491441D01*
X485539D01*
Y494500D01*
D02*
G37*
G36*
X401201Y494500D02*
X398339D01*
Y491441D01*
X401201D01*
Y494500D01*
D02*
G37*
G36*
X397339D02*
X394476D01*
Y491441D01*
X397339D01*
Y494500D01*
D02*
G37*
G36*
X413961Y499000D02*
X413039D01*
X412149Y498762D01*
X411351Y498301D01*
X410699Y497649D01*
X410239Y496851D01*
X410000Y495961D01*
Y495039D01*
X410185Y494348D01*
X402867Y487029D01*
X392133D01*
X391691Y487472D01*
Y491441D01*
X393524D01*
Y498559D01*
X386799D01*
Y491441D01*
X388632D01*
Y486839D01*
X388749Y486253D01*
X389080Y485757D01*
X390419Y484419D01*
X390915Y484087D01*
X391500Y483971D01*
X403500D01*
X404085Y484087D01*
X404581Y484419D01*
X412348Y492185D01*
X413039Y492000D01*
X413961D01*
X414851Y492239D01*
X415649Y492699D01*
X416301Y493351D01*
X416761Y494149D01*
X417000Y495039D01*
Y495961D01*
X416761Y496851D01*
X416301Y497649D01*
X415649Y498301D01*
X414851Y498762D01*
X413961Y499000D01*
D02*
G37*
G36*
X758754Y447500D02*
X755000D01*
X751246D01*
X751500Y446550D01*
X751995Y445694D01*
X752694Y444994D01*
X753291Y444650D01*
X753343Y444097D01*
X745199Y435953D01*
X744500D01*
Y432500D01*
X747362D01*
Y433790D01*
X756081Y442509D01*
X756413Y443005D01*
X756529Y443590D01*
Y444546D01*
X757306Y444994D01*
X758006Y445694D01*
X758500Y446550D01*
X758754Y447500D01*
D02*
G37*
G36*
X691000Y495661D02*
X688531D01*
Y493980D01*
X691000D01*
Y495661D01*
D02*
G37*
G36*
X694468Y492980D02*
X692000D01*
Y491299D01*
X694468D01*
Y492980D01*
D02*
G37*
G36*
X718063Y431921D02*
X715594D01*
Y430240D01*
X718063D01*
Y431921D01*
D02*
G37*
G36*
Y429240D02*
X715594D01*
Y427559D01*
X718063D01*
Y429240D01*
D02*
G37*
G36*
X707862Y423000D02*
X705000D01*
Y419547D01*
X707862D01*
Y423000D01*
D02*
G37*
G36*
X350254Y452504D02*
X347000D01*
Y449250D01*
X347950Y449504D01*
X348806Y449999D01*
X349505Y450698D01*
X350000Y451554D01*
X350254Y452504D01*
D02*
G37*
G36*
X346000D02*
X342746D01*
X343000Y451554D01*
X343495Y450698D01*
X344194Y449999D01*
X345050Y449504D01*
X346000Y449250D01*
Y452504D01*
D02*
G37*
G36*
X659583Y460421D02*
X658417D01*
X657273Y460194D01*
X656195Y459747D01*
X655225Y459099D01*
X654401Y458275D01*
X653753Y457305D01*
X653541Y456794D01*
X643000D01*
X642122Y456619D01*
X641378Y456122D01*
X632495Y447239D01*
X631980Y447515D01*
X630755Y447886D01*
X629480Y448012D01*
X628206Y447886D01*
X626981Y447515D01*
X625852Y446911D01*
X624862Y446099D01*
X624050Y445109D01*
X623446Y443980D01*
X623074Y442755D01*
X622949Y441480D01*
Y440480D01*
X623074Y439206D01*
X623446Y437981D01*
X624050Y436852D01*
X624862Y435862D01*
X625852Y435050D01*
X626981Y434446D01*
X628206Y434074D01*
X629480Y433949D01*
X630755Y434074D01*
X631980Y434446D01*
X633109Y435050D01*
X634099Y435862D01*
X634911Y436852D01*
X635515Y437981D01*
X635886Y439206D01*
X636012Y440480D01*
Y441480D01*
X635886Y442755D01*
X635563Y443819D01*
X643950Y452206D01*
X653541D01*
X653753Y451695D01*
X654401Y450725D01*
X655225Y449901D01*
X656195Y449253D01*
X657273Y448806D01*
X658417Y448579D01*
X659583D01*
X660727Y448806D01*
X661805Y449253D01*
X662775Y449901D01*
X663599Y450725D01*
X664247Y451695D01*
X664694Y452773D01*
X664921Y453917D01*
Y455083D01*
X664694Y456227D01*
X664247Y457305D01*
X663599Y458275D01*
X662775Y459099D01*
X661805Y459747D01*
X660727Y460194D01*
X659583Y460421D01*
D02*
G37*
G36*
X568000Y448032D02*
X566726Y447906D01*
X565500Y447534D01*
X564371Y446931D01*
X563382Y446118D01*
X562569Y445129D01*
X561966Y443999D01*
X561594Y442774D01*
X561469Y441500D01*
Y440500D01*
X561594Y439226D01*
X561966Y438000D01*
X562569Y436871D01*
X563382Y435882D01*
X564371Y435069D01*
X565500Y434466D01*
X566726Y434094D01*
X568000Y433968D01*
X569274Y434094D01*
X570500Y434466D01*
X571629Y435069D01*
X572618Y435882D01*
X573431Y436871D01*
X574034Y438000D01*
X574406Y439226D01*
X574532Y440500D01*
Y441500D01*
X574406Y442774D01*
X574034Y443999D01*
X573431Y445129D01*
X572618Y446118D01*
X571629Y446931D01*
X570500Y447534D01*
X569274Y447906D01*
X568000Y448032D01*
D02*
G37*
G36*
X486500D02*
X485226Y447906D01*
X484000Y447534D01*
X482871Y446931D01*
X481882Y446118D01*
X481069Y445129D01*
X480466Y443999D01*
X480094Y442774D01*
X479969Y441500D01*
Y440500D01*
X480094Y439226D01*
X480466Y438000D01*
X481069Y436871D01*
X481882Y435882D01*
X482871Y435069D01*
X484000Y434466D01*
X485226Y434094D01*
X486500Y433968D01*
X487774Y434094D01*
X489000Y434466D01*
X490129Y435069D01*
X491118Y435882D01*
X491931Y436871D01*
X492534Y438000D01*
X492906Y439226D01*
X493032Y440500D01*
Y441500D01*
X492906Y442774D01*
X492534Y443999D01*
X491931Y445129D01*
X491118Y446118D01*
X490129Y446931D01*
X489000Y447534D01*
X487774Y447906D01*
X486500Y448032D01*
D02*
G37*
G36*
X649486Y448018D02*
X648212Y447893D01*
X646987Y447521D01*
X645858Y446917D01*
X644868Y446105D01*
X644056Y445115D01*
X643452Y443986D01*
X643081Y442761D01*
X642955Y441487D01*
Y440486D01*
X643081Y439212D01*
X643452Y437987D01*
X644056Y436858D01*
X644868Y435868D01*
X645858Y435056D01*
X646987Y434452D01*
X648212Y434081D01*
X649486Y433955D01*
X650761Y434081D01*
X651986Y434452D01*
X653115Y435056D01*
X654105Y435868D01*
X654917Y436858D01*
X655521Y437987D01*
X655893Y439212D01*
X656018Y440486D01*
Y441487D01*
X655893Y442761D01*
X655521Y443986D01*
X654917Y445115D01*
X654105Y446105D01*
X653115Y446917D01*
X651986Y447521D01*
X650761Y447893D01*
X649486Y448018D01*
D02*
G37*
G36*
X404967Y447998D02*
X403693Y447873D01*
X402467Y447501D01*
X401338Y446898D01*
X400349Y446085D01*
X399536Y445096D01*
X398933Y443966D01*
X398561Y442741D01*
X398435Y441467D01*
Y440467D01*
X398561Y439193D01*
X398933Y437967D01*
X399536Y436838D01*
X400349Y435849D01*
X401338Y435036D01*
X402467Y434433D01*
X403693Y434061D01*
X404967Y433935D01*
X406241Y434061D01*
X407466Y434433D01*
X408596Y435036D01*
X409585Y435849D01*
X410398Y436838D01*
X411001Y437967D01*
X411373Y439193D01*
X411498Y440467D01*
Y441467D01*
X411373Y442741D01*
X411001Y443966D01*
X410398Y445096D01*
X409585Y446085D01*
X408596Y446898D01*
X407466Y447501D01*
X406241Y447873D01*
X404967Y447998D01*
D02*
G37*
G36*
X425000Y448032D02*
X423726Y447906D01*
X422501Y447534D01*
X421371Y446931D01*
X420382Y446118D01*
X419569Y445129D01*
X418966Y443999D01*
X418594Y442774D01*
X418469Y441500D01*
Y440500D01*
X418594Y439226D01*
X418917Y438161D01*
X414050Y433294D01*
X375372D01*
X371461Y437205D01*
Y447961D01*
X358461D01*
Y433961D01*
X368216D01*
X372799Y429378D01*
X373544Y428881D01*
X374421Y428706D01*
X415000D01*
X415878Y428881D01*
X416622Y429378D01*
X421985Y434741D01*
X422501Y434466D01*
X423726Y434094D01*
X425000Y433968D01*
X426274Y434094D01*
X427499Y434466D01*
X428629Y435069D01*
X429618Y435882D01*
X430431Y436871D01*
X431034Y438000D01*
X431406Y439226D01*
X431531Y440500D01*
Y441500D01*
X431406Y442774D01*
X431034Y443999D01*
X430431Y445129D01*
X429618Y446118D01*
X428629Y446931D01*
X427499Y447534D01*
X426274Y447906D01*
X425000Y448032D01*
D02*
G37*
G36*
X669520Y448051D02*
X668245Y447926D01*
X667020Y447554D01*
X665891Y446950D01*
X664901Y446138D01*
X664089Y445148D01*
X663485Y444019D01*
X663114Y442794D01*
X662988Y441520D01*
Y440520D01*
X663114Y439245D01*
X663437Y438181D01*
X657050Y431794D01*
X621411D01*
X615980Y437225D01*
Y447980D01*
X602980D01*
Y433980D01*
X612736D01*
X618839Y427878D01*
X619583Y427381D01*
X620461Y427206D01*
X658000D01*
X658878Y427381D01*
X659622Y427878D01*
X666505Y434761D01*
X667020Y434485D01*
X668245Y434114D01*
X669520Y433988D01*
X670794Y434114D01*
X672019Y434485D01*
X673148Y435089D01*
X674138Y435901D01*
X674950Y436891D01*
X675554Y438020D01*
X675926Y439245D01*
X676051Y440520D01*
Y441520D01*
X675926Y442794D01*
X675554Y444019D01*
X674950Y445148D01*
X674138Y446138D01*
X673148Y446950D01*
X672019Y447554D01*
X670794Y447926D01*
X669520Y448051D01*
D02*
G37*
G36*
X588033Y448065D02*
X586759Y447939D01*
X585534Y447567D01*
X584404Y446964D01*
X583415Y446151D01*
X582602Y445162D01*
X581999Y444033D01*
X581627Y442807D01*
X581502Y441533D01*
Y440533D01*
X581627Y439259D01*
X581950Y438194D01*
X575550Y431794D01*
X540438D01*
X535116Y437116D01*
X534494Y437532D01*
Y447994D01*
X521494D01*
Y433994D01*
X531250D01*
X531372Y433872D01*
X532116Y433374D01*
X532432Y433312D01*
X537865Y427878D01*
X538610Y427381D01*
X539488Y427206D01*
X576500D01*
X577378Y427381D01*
X578122Y427878D01*
X585018Y434774D01*
X585534Y434499D01*
X586759Y434127D01*
X588033Y434002D01*
X589307Y434127D01*
X590533Y434499D01*
X591662Y435102D01*
X592652Y435915D01*
X593464Y436904D01*
X594067Y438034D01*
X594439Y439259D01*
X594564Y440533D01*
Y441533D01*
X594439Y442807D01*
X594067Y444033D01*
X593464Y445162D01*
X592652Y446151D01*
X591662Y446964D01*
X590533Y447567D01*
X589307Y447939D01*
X588033Y448065D01*
D02*
G37*
G36*
X506533D02*
X505259Y447939D01*
X504034Y447567D01*
X502904Y446964D01*
X501915Y446151D01*
X501102Y445162D01*
X500499Y444033D01*
X500127Y442807D01*
X500002Y441533D01*
Y440533D01*
X500127Y439259D01*
X500450Y438194D01*
X494050Y431794D01*
X458438D01*
X452994Y437238D01*
Y447994D01*
X439994D01*
Y433994D01*
X449750D01*
X455865Y427878D01*
X456610Y427381D01*
X457488Y427206D01*
X495000D01*
X495878Y427381D01*
X496622Y427878D01*
X503518Y434774D01*
X504034Y434499D01*
X505259Y434127D01*
X506533Y434002D01*
X507807Y434127D01*
X509033Y434499D01*
X510162Y435102D01*
X511152Y435915D01*
X511964Y436904D01*
X512567Y438034D01*
X512939Y439259D01*
X513064Y440533D01*
Y441533D01*
X512939Y442807D01*
X512567Y444033D01*
X511964Y445162D01*
X511152Y446151D01*
X510162Y446964D01*
X509033Y447567D01*
X507807Y447939D01*
X506533Y448065D01*
D02*
G37*
%LPD*%
D10*
X745323Y443843D02*
X747500Y446020D01*
X740320Y467680D02*
X747500Y460500D01*
X743833Y445843D02*
X745500Y447510D01*
X741500Y460000D02*
X745500Y456000D01*
Y447510D02*
Y456000D01*
X747500Y446020D02*
Y460500D01*
X403500Y485500D02*
X413500Y495500D01*
X390161Y486839D02*
X391500Y485500D01*
X403500D01*
X390161Y486839D02*
Y495000D01*
X397839D02*
Y506839D01*
X398000Y507000D01*
X355402D02*
X454000D01*
X645839Y500414D02*
X646424Y501000D01*
X645839Y488586D02*
Y500414D01*
X646424Y501000D02*
X699807D01*
X645253Y488000D02*
X645839Y488586D01*
X626000Y488000D02*
X645253D01*
X611000Y503000D02*
X626000Y488000D01*
X571339Y503000D02*
X611000D01*
X638000Y494000D02*
Y501535D01*
X639465Y503000D01*
X677557Y484500D02*
X678386D01*
X675421Y486636D02*
X677557Y484500D01*
X659919D02*
X666340Y490921D01*
X609000Y484500D02*
X659919D01*
X671660Y490921D02*
X675421Y487160D01*
X678386Y484500D02*
X683626Y489740D01*
X675421Y486636D02*
Y487160D01*
X666340Y490921D02*
X671660D01*
X604299Y489201D02*
X609000Y484500D01*
X750248Y507000D02*
X761410Y495839D01*
X554000Y504000D02*
X557000Y507000D01*
X565465Y505000D02*
X743248D01*
X555661Y495197D02*
X565465Y505000D01*
X743248D02*
X752410Y495839D01*
X557000Y507000D02*
X750248D01*
X341500Y493098D02*
X355402Y507000D01*
X710500Y495500D02*
X711586Y496586D01*
X714836D01*
X715000Y496750D01*
X710500Y491975D02*
Y495500D01*
X704679Y467735D02*
X708823Y463590D01*
X702000Y468500D02*
X702765Y467735D01*
X704679D01*
X694906Y469371D02*
X696906Y467371D01*
X692287Y486000D02*
X694906Y483382D01*
Y469371D02*
Y483382D01*
Y457407D02*
Y466543D01*
X696906Y458236D02*
Y467371D01*
X692224Y471260D02*
X692906Y470579D01*
X696906Y458236D02*
X700641Y454500D01*
X692906Y468543D02*
X694906Y466543D01*
X691437Y471260D02*
X692224D01*
X692906Y468543D02*
Y470579D01*
X694906Y457407D02*
X697293Y455020D01*
X708823Y463000D02*
Y463590D01*
X700641Y454500D02*
X708823D01*
X697413Y419087D02*
Y423500D01*
X699000Y417500D02*
X713016D01*
X697413Y419087D02*
X699000Y417500D01*
X713016D02*
X717776Y422260D01*
X697413Y423500D02*
X697457Y423543D01*
Y432000D01*
Y436453D01*
X699000Y437996D02*
Y439000D01*
X697457Y436453D02*
X699000Y437996D01*
X717776Y422260D02*
X718563D01*
X723000Y496750D02*
X723525Y497275D01*
X726702Y494795D02*
X730000D01*
X723040Y490750D02*
Y491134D01*
X723525Y497275D02*
X729920D01*
X723040Y491134D02*
X726702Y494795D01*
X492500Y507000D02*
X533000D01*
X483860Y498360D02*
X492500Y507000D01*
X549059Y490941D02*
X559476D01*
X482177Y494803D02*
Y495000D01*
X559476Y490941D02*
X563339Y494803D01*
Y495000D01*
X533000Y507000D02*
X549059Y490941D01*
X482177Y495000D02*
X483860Y496683D01*
X563339Y495000D02*
Y495197D01*
X483860Y496683D02*
Y498360D01*
X697293Y449793D02*
X698086Y449000D01*
X697293Y449793D02*
Y455020D01*
X704543Y432000D02*
Y437200D01*
X710343Y443000D01*
X382000Y469000D02*
X661276D01*
X682776Y447500D01*
X366000Y485000D02*
X382000Y469000D01*
X682094Y461681D02*
X682776Y461000D01*
X682094Y461681D02*
Y462468D01*
X687968Y467421D02*
Y481295D01*
Y453921D02*
Y467421D01*
X690650Y464740D01*
X671563Y473000D02*
X682094Y462468D01*
X682776Y461000D02*
X683563D01*
X459000Y473000D02*
X671563D01*
X538000Y475000D02*
X683563D01*
X528000Y485000D02*
X538000Y475000D01*
X447000Y485000D02*
X459000Y473000D01*
X474500Y498500D02*
X480500Y504500D01*
X474500Y495000D02*
Y498500D01*
X553000Y504000D02*
X554000D01*
X454000Y507000D02*
X470059Y490941D01*
X682776Y447500D02*
X683563D01*
X528500Y485000D02*
Y485581D01*
X470059Y490941D02*
X478315D01*
X482177Y494803D01*
X341500Y458004D02*
Y493098D01*
Y458004D02*
X346500Y453004D01*
X565398Y497059D02*
X571339Y503000D01*
X366000Y495449D02*
X368551Y498000D01*
X366000Y485000D02*
Y495449D01*
X368551Y498000D02*
X368799D01*
X443299Y490380D02*
Y498000D01*
Y490380D02*
X447000Y486679D01*
Y485000D02*
Y486679D01*
X524500Y489581D02*
Y498000D01*
Y489581D02*
X528500Y485581D01*
X604299Y489201D02*
Y497500D01*
X563339Y495197D02*
X565201Y497059D01*
X565398D01*
X697343Y443000D02*
X710343D01*
X687968Y441957D02*
X688847Y441079D01*
X687968Y441957D02*
Y453921D01*
X696515Y445000D02*
X716979D01*
X695422Y441079D02*
X697343Y443000D01*
X695274Y443760D02*
X696515Y445000D01*
X691437Y443760D02*
X695274D01*
X688847Y441079D02*
X695422D01*
X690650Y464740D02*
X691437D01*
X687968Y481295D02*
X688031Y481358D01*
X690650Y451240D02*
X691437D01*
X687968Y453921D02*
X690650Y451240D01*
X688031Y481358D02*
X690650Y478740D01*
X688031Y481358D02*
Y490799D01*
X690713Y493480D01*
X691500D01*
X690650Y478740D02*
X691437D01*
X692287Y493480D02*
X699807Y501000D01*
X691500Y493480D02*
X692287D01*
X699807Y501000D02*
X709630D01*
X730080Y489757D02*
X735396D01*
X735602Y489963D01*
X740000Y486500D02*
Y497657D01*
X738139Y484639D02*
X740000Y486500D01*
X736657Y501000D02*
X740000Y497657D01*
X729920Y497275D02*
X730000Y497354D01*
X725500Y464752D02*
Y469000D01*
X711644Y483677D02*
X714575D01*
X705984Y479441D02*
X712216D01*
X712823Y481677D02*
X725500Y469000D01*
X712216Y479441D02*
X723000Y468657D01*
X714575Y483677D02*
X729661Y468590D01*
X710488Y481677D02*
X712823D01*
X735663Y495681D02*
Y496075D01*
X732298Y492316D02*
X735663Y495681D01*
X709630Y501000D02*
X736657D01*
X742343Y497405D02*
Y498143D01*
X737485Y503000D02*
X742343Y498143D01*
X639465Y503000D02*
X737485D01*
X730000Y489677D02*
X730080Y489757D01*
X712000Y439000D02*
X713082D01*
X715082Y437000D02*
X719413D01*
X713082Y439000D02*
X715082Y437000D01*
X718136Y443843D02*
X745323D01*
X716979Y445000D02*
X718136Y443843D01*
X740500Y452000D02*
X742086Y450414D01*
X698086Y449000D02*
X718635D01*
X717217Y441500D02*
X722590D01*
X718964Y445843D02*
X743833D01*
X710343Y443000D02*
X715717D01*
X717217Y441500D01*
X740343Y447843D02*
X742086Y449586D01*
X695203Y447586D02*
X695788Y447000D01*
X719793Y447843D02*
X740343D01*
X695203Y447586D02*
Y454282D01*
X742086Y449586D02*
Y450414D01*
X718635Y449000D02*
X719793Y447843D01*
X695788Y447000D02*
X717807D01*
X718964Y445843D01*
X722590Y441500D02*
X726500Y437591D01*
Y437000D02*
Y437591D01*
X704543Y423543D02*
Y432000D01*
X726500Y432500D02*
Y437000D01*
X708282Y489757D02*
X710500Y491975D01*
X706064Y489757D02*
X708282D01*
X705984Y489677D02*
X706064Y489757D01*
X710165Y482000D02*
X710488Y481677D01*
X705984Y482000D02*
X710165D01*
X710762Y484559D02*
X711644Y483677D01*
X723000Y459252D02*
Y468657D01*
X711947Y476882D02*
X720067Y468761D01*
X705984Y476882D02*
X711947D01*
X705984Y484559D02*
X710762D01*
X730080Y492316D02*
X732298D01*
X730000Y492236D02*
X730080Y492316D01*
X742343Y497405D02*
X743910Y495839D01*
X730080Y484639D02*
X738139D01*
X705984Y497354D02*
X709630Y501000D01*
X730000Y484559D02*
X730080Y484639D01*
X739591Y437000D02*
X744000Y432590D01*
Y432000D02*
Y432590D01*
X726500Y437000D02*
X739591D01*
X718563Y429740D02*
X723740D01*
X726500Y432500D01*
X704500Y423500D02*
X704543Y423543D01*
X744000Y423543D02*
Y432000D01*
Y423543D02*
X744043Y423500D01*
X755000Y443590D02*
Y448000D01*
X744000Y432590D02*
X755000Y443590D01*
X737658Y467680D02*
X740320D01*
X737339Y468000D02*
X737658Y467680D01*
X638161Y494500D02*
Y494697D01*
X743910Y495839D02*
X744500D01*
X555661Y495000D02*
Y495197D01*
X752410Y495839D02*
X753000D01*
X761410D02*
X762000D01*
X691500Y486000D02*
X692287D01*
X737339Y452000D02*
X740500D01*
X691437Y457260D02*
X692224D01*
X695203Y454282D01*
X737339Y460000D02*
X741500D01*
X725500Y464752D02*
X729661Y460591D01*
X723000Y459252D02*
X729661Y452591D01*
X720067Y458658D02*
Y468761D01*
X716500Y455091D02*
X720067Y458658D01*
X716500Y454500D02*
Y455091D01*
Y463000D02*
Y469500D01*
X711677Y474323D02*
X716500Y469500D01*
X705984Y474323D02*
X711677D01*
X729661Y452000D02*
Y452591D01*
Y460000D02*
Y460591D01*
Y468000D02*
Y468590D01*
X759594Y486594D02*
X760433D01*
X749882Y476882D02*
X759594Y486594D01*
X730000Y476882D02*
X749882D01*
X760433Y486594D02*
X762000Y488161D01*
X744500Y484500D02*
Y488161D01*
X742000Y482000D02*
X744500Y484500D01*
X730000Y482000D02*
X742000D01*
X743689Y479441D02*
X752410Y488161D01*
X730000Y479441D02*
X743689D01*
X752410Y488161D02*
X753000D01*
D17*
X638161Y494500D02*
D03*
X645839D02*
D03*
X555661Y495000D02*
D03*
X563339D02*
D03*
X474500D02*
D03*
X482177D02*
D03*
X390161D02*
D03*
X397839D02*
D03*
D18*
X716500Y454500D02*
D03*
X708823D02*
D03*
X716500Y463000D02*
D03*
X708823D02*
D03*
X729661Y452000D02*
D03*
X737339D02*
D03*
X729661Y460000D02*
D03*
X737339D02*
D03*
X729661Y468000D02*
D03*
X737339D02*
D03*
D19*
X705984Y497354D02*
D03*
D20*
Y494795D02*
D03*
Y492236D02*
D03*
Y489677D02*
D03*
Y487118D02*
D03*
Y484559D02*
D03*
Y482000D02*
D03*
Y479441D02*
D03*
Y476882D02*
D03*
Y474323D02*
D03*
X730000Y497354D02*
D03*
Y494795D02*
D03*
Y492236D02*
D03*
Y489677D02*
D03*
Y487118D02*
D03*
Y484559D02*
D03*
Y482000D02*
D03*
Y479441D02*
D03*
Y476882D02*
D03*
Y474323D02*
D03*
D21*
X356201Y498000D02*
D03*
X368799D02*
D03*
X443299D02*
D03*
X430701D02*
D03*
X511701Y497000D02*
D03*
X524299D02*
D03*
X604799D02*
D03*
X592201D02*
D03*
D22*
X753000Y495839D02*
D03*
Y488161D02*
D03*
X762000Y495839D02*
D03*
Y488161D02*
D03*
X744500Y495839D02*
D03*
Y488161D02*
D03*
D23*
X683563Y461000D02*
D03*
X691437Y464740D02*
D03*
Y457260D02*
D03*
Y443760D02*
D03*
Y451240D02*
D03*
X683563Y447500D02*
D03*
X691500Y486000D02*
D03*
Y493480D02*
D03*
X683626Y489740D02*
D03*
X718563Y429740D02*
D03*
Y422260D02*
D03*
X726437Y426000D02*
D03*
X691437Y471260D02*
D03*
Y478740D02*
D03*
X683563Y475000D02*
D03*
D24*
X726500Y437000D02*
D03*
X719413D02*
D03*
X697457Y432000D02*
D03*
X704543D02*
D03*
X704500Y423500D02*
D03*
X697413D02*
D03*
X744000Y432000D02*
D03*
X736913D02*
D03*
X744043Y423500D02*
D03*
X736957D02*
D03*
D40*
X457488Y429500D02*
X495000D01*
X446494Y440494D02*
X457488Y429500D01*
X495000D02*
X506533Y441033D01*
X576500Y429500D02*
X588033Y441033D01*
X533494Y435494D02*
X539488Y429500D01*
X576500D01*
X382135Y487365D02*
Y495524D01*
X388921Y480579D02*
X412579D01*
X382135Y487365D02*
X388921Y480579D01*
X364026Y504250D02*
X373408D01*
X382135Y495524D01*
X358755Y498979D02*
X364026Y504250D01*
X356201Y498979D02*
X358755D01*
X509900Y495199D02*
X511701Y497000D01*
X507057Y495199D02*
X509900D01*
X489437Y477579D02*
X507057Y495199D01*
X513276Y497000D02*
X515776Y499500D01*
X590400Y495199D02*
X592201Y497000D01*
X588057Y495199D02*
X590400D01*
X571937Y479079D02*
X588057Y495199D01*
X515940Y499500D02*
X518741Y502301D01*
X530544D01*
X515776Y499500D02*
X515940D01*
X434301Y499801D02*
X436423Y501923D01*
X437741Y503301D02*
X448857D01*
X436423Y501983D02*
X437741Y503301D01*
X432502Y499801D02*
X434301D01*
X436423Y501923D02*
Y501983D01*
X429689Y496988D02*
X432502Y499801D01*
X423789Y496988D02*
X429689D01*
X448857Y503301D02*
X474580Y477579D01*
X418829Y492028D02*
X423789Y496988D01*
X418829Y486829D02*
Y492028D01*
X412579Y480579D02*
X418829Y486829D01*
X736903Y423520D02*
Y431990D01*
Y422909D02*
Y423520D01*
X736947Y422866D02*
X737000D01*
X736903Y423520D02*
X736957Y423466D01*
X736732Y423691D02*
X736903Y423520D01*
X499970Y462171D02*
X507642Y454500D01*
X580970Y462171D02*
X588642Y454500D01*
X553766Y479079D02*
X571937D01*
X535171Y462171D02*
X580970D01*
X356201Y463926D02*
Y498000D01*
X454171Y462171D02*
X499970D01*
X528000Y455000D02*
X535171Y462171D01*
X366000Y455000D02*
X373171Y462171D01*
X446500Y454500D02*
X447000Y455000D01*
X373171Y462171D02*
X418970D01*
X426642Y454500D01*
X527500D02*
X528000Y455000D01*
X365126D02*
X366000D01*
X507642Y454500D02*
X527500D01*
X474580Y477579D02*
X489437D01*
X356201Y463926D02*
X365126Y455000D01*
X426642Y454500D02*
X446500D01*
X447000Y455000D02*
X454171Y462171D01*
X588642Y454500D02*
X609000D01*
X530544Y502301D02*
X553766Y479079D01*
X772000Y430500D02*
Y445000D01*
X761126Y455874D02*
X772000Y445000D01*
X755000Y455874D02*
X761126D01*
X759246Y426712D02*
X768536D01*
X772000Y430177D01*
X732309Y423691D02*
X736732D01*
X726437Y426000D02*
X730000D01*
X732309Y423691D01*
X620461Y429500D02*
X658000D01*
X609480Y440480D02*
X620461Y429500D01*
X658000D02*
X669520Y441020D01*
X609480Y440480D02*
Y440980D01*
X669520Y441020D02*
Y441020D01*
X740749Y418297D02*
X750831D01*
X759246Y426712D01*
X739431Y419615D02*
Y420333D01*
Y419615D02*
X740749Y418297D01*
X738069Y421695D02*
X739431Y420333D01*
X737000Y422866D02*
X738069Y421797D01*
Y421695D02*
Y421797D01*
X736903Y422909D02*
X736947Y422866D01*
X562000Y455000D02*
X578000D01*
X399000D02*
X416000D01*
X384961Y440961D02*
X399000Y455000D01*
X384961Y440961D02*
Y440961D01*
X466494Y440994D02*
Y440994D01*
X480500Y455000D01*
X497000D01*
X643000Y454500D02*
X659000D01*
X629480Y440980D02*
Y440980D01*
X643000Y454500D01*
X547994Y440994D02*
X562000Y455000D01*
X547994Y440994D02*
Y440994D01*
X425000Y441000D02*
Y441000D01*
X415000Y431000D02*
X425000Y441000D01*
X374421Y431000D02*
X415000D01*
X364961Y440461D02*
Y440961D01*
Y440461D02*
X374421Y431000D01*
X506533Y441033D02*
Y441033D01*
X446494Y440494D02*
Y440994D01*
X527994Y440494D02*
X532994Y435494D01*
X527994Y440494D02*
Y440994D01*
X532994Y435494D02*
X533494D01*
X588033Y441033D02*
Y441033D01*
D41*
X715039Y490090D02*
Y490750D01*
X724868Y486000D02*
X725986Y487118D01*
X713198Y486000D02*
X724868D01*
X725986Y487118D02*
X730000D01*
X712859Y487910D02*
X715039Y490090D01*
X712079Y487118D02*
X712859Y487898D01*
Y487910D01*
X712079Y487118D02*
X713198Y486000D01*
X705984Y487118D02*
X712079D01*
D42*
X609480Y440980D02*
D03*
X364961Y440961D02*
D03*
X527994Y440994D02*
D03*
X446494D02*
D03*
D43*
X669520Y441020D02*
D03*
X649486Y440986D02*
D03*
X629480Y440980D02*
D03*
X425000Y441000D02*
D03*
X404967Y440967D02*
D03*
X384961Y440961D02*
D03*
X588033Y441033D02*
D03*
X568000Y441000D02*
D03*
X547994Y440994D02*
D03*
X466494D02*
D03*
X486500Y441000D02*
D03*
X506533Y441033D02*
D03*
D44*
X609000Y484500D02*
D03*
X669000D02*
D03*
X659000Y454500D02*
D03*
X609000D02*
D03*
X366000Y455000D02*
D03*
X416000D02*
D03*
X426000Y485000D02*
D03*
X366000D02*
D03*
X447000D02*
D03*
X507000D02*
D03*
X497000Y455000D02*
D03*
X447000D02*
D03*
X528000Y485000D02*
D03*
X588000D02*
D03*
X578000Y455000D02*
D03*
X528000D02*
D03*
D45*
X755000Y448000D02*
D03*
Y455874D02*
D03*
Y463748D02*
D03*
X346500Y453004D02*
D03*
Y460878D02*
D03*
Y468752D02*
D03*
Y476626D02*
D03*
D46*
X755000Y471622D02*
D03*
D47*
X346500Y484500D02*
D03*
D48*
X413500Y495500D02*
D03*
X702000Y468500D02*
D03*
X772000Y430500D02*
D03*
X723040Y490750D02*
D03*
X715000Y496750D02*
D03*
X715039Y490750D02*
D03*
X723000Y496750D02*
D03*
X480500Y504500D02*
D03*
X553000Y504000D02*
D03*
X699000Y439000D02*
D03*
X735602Y489963D02*
D03*
X735663Y496075D02*
D03*
X712000Y439000D02*
D03*
M02*
