G04*
G04 #@! TF.GenerationSoftware,Altium Limited,Altium Designer,23.0.1 (38)*
G04*
G04 Layer_Color=65535*
%FSLAX24Y24*%
%MOIN*%
G70*
G04*
G04 #@! TF.SameCoordinates,BEEE6B11-5ECA-4AAD-BFAB-FF97A37F51A9*
G04*
G04*
G04 #@! TF.FilePolarity,Positive*
G04*
G01*
G75*
%ADD10C,0.0100*%
%ADD11C,0.0079*%
%ADD12C,0.0098*%
%ADD13C,0.0050*%
%ADD14C,0.0070*%
%ADD15C,0.0039*%
%ADD16C,0.0080*%
G36*
X39496Y44346D02*
X39246Y44096D01*
X39396D01*
Y43846D01*
X39596D01*
Y44096D01*
X39746D01*
X39496Y44346D01*
D02*
G37*
G36*
X47649Y44349D02*
X47399Y44099D01*
X47549D01*
Y43849D01*
X47749D01*
Y44099D01*
X47899D01*
X47649Y44349D01*
D02*
G37*
G36*
X55799D02*
X55549Y44099D01*
X55699D01*
Y43849D01*
X55899D01*
Y44099D01*
X56049D01*
X55799Y44349D01*
D02*
G37*
G36*
X63948Y44348D02*
X63698Y44098D01*
X63848D01*
Y43848D01*
X64048D01*
Y44098D01*
X64198D01*
X63948Y44348D01*
D02*
G37*
G36*
X34027Y47232D02*
X34030D01*
X34034Y47232D01*
X34039Y47231D01*
X34043Y47231D01*
X34054Y47229D01*
X34066Y47226D01*
X34077Y47222D01*
X34083Y47220D01*
X34089Y47217D01*
X34089D01*
X34090Y47216D01*
X34092Y47216D01*
X34094Y47214D01*
X34096Y47213D01*
X34099Y47211D01*
X34106Y47206D01*
X34113Y47200D01*
X34121Y47192D01*
X34128Y47184D01*
X34135Y47173D01*
Y47173D01*
X34135Y47172D01*
X34136Y47171D01*
X34137Y47168D01*
X34138Y47166D01*
X34139Y47163D01*
X34141Y47159D01*
X34142Y47155D01*
X34144Y47151D01*
X34145Y47146D01*
X34147Y47136D01*
X34149Y47124D01*
X34150Y47112D01*
Y47109D01*
X34150Y47106D01*
Y47103D01*
X34149Y47100D01*
X34149Y47096D01*
X34148Y47091D01*
X34146Y47081D01*
X34143Y47070D01*
X34138Y47059D01*
X34136Y47054D01*
X34133Y47049D01*
X34133Y47048D01*
X34132Y47047D01*
X34131Y47046D01*
X34130Y47044D01*
X34128Y47042D01*
X34126Y47039D01*
X34121Y47033D01*
X34114Y47026D01*
X34106Y47019D01*
X34097Y47012D01*
X34086Y47006D01*
X34086D01*
X34085Y47005D01*
X34083Y47005D01*
X34081Y47004D01*
X34078Y47003D01*
X34075Y47002D01*
X34071Y47000D01*
X34067Y46999D01*
X34063Y46998D01*
X34058Y46996D01*
X34047Y46994D01*
X34036Y46993D01*
X34023Y46992D01*
X34023D01*
X34023D01*
X34020D01*
X34017Y46992D01*
X34013D01*
X34008Y46993D01*
X34001Y46994D01*
X33995Y46995D01*
X33987Y46996D01*
X33980Y46998D01*
X33972Y47000D01*
X33964Y47003D01*
X33955Y47006D01*
X33947Y47010D01*
X33939Y47014D01*
X33932Y47019D01*
X33925Y47025D01*
X33925Y47026D01*
X33924Y47027D01*
X33922Y47029D01*
X33920Y47031D01*
X33917Y47035D01*
X33914Y47039D01*
X33910Y47043D01*
X33907Y47049D01*
X33904Y47055D01*
X33901Y47061D01*
X33898Y47069D01*
X33895Y47076D01*
X33893Y47085D01*
X33891Y47093D01*
X33890Y47102D01*
X33889Y47112D01*
Y47116D01*
X33890Y47118D01*
Y47121D01*
X33890Y47125D01*
X33891Y47129D01*
X33892Y47133D01*
X33893Y47143D01*
X33896Y47154D01*
X33901Y47164D01*
X33903Y47170D01*
X33906Y47175D01*
X33906Y47176D01*
X33907Y47176D01*
X33908Y47178D01*
X33909Y47180D01*
X33911Y47182D01*
X33913Y47185D01*
X33918Y47191D01*
X33925Y47198D01*
X33933Y47205D01*
X33942Y47212D01*
X33953Y47218D01*
X33953D01*
X33954Y47219D01*
X33956Y47219D01*
X33958Y47220D01*
X33961Y47221D01*
X33964Y47223D01*
X33968Y47224D01*
X33972Y47225D01*
X33977Y47227D01*
X33982Y47228D01*
X33988Y47229D01*
X33994Y47231D01*
X34007Y47232D01*
X34020Y47233D01*
X34021D01*
X34022D01*
X34024D01*
X34027Y47232D01*
D02*
G37*
G36*
X34146Y46910D02*
X33894D01*
Y46943D01*
X34146D01*
Y46910D01*
D02*
G37*
G36*
X34026Y46858D02*
X34029D01*
X34036Y46857D01*
X34044Y46856D01*
X34052Y46855D01*
X34061Y46853D01*
X34070Y46851D01*
X34070D01*
X34071Y46851D01*
X34072Y46851D01*
X34073Y46850D01*
X34077Y46849D01*
X34082Y46847D01*
X34088Y46844D01*
X34094Y46841D01*
X34100Y46838D01*
X34106Y46834D01*
X34107Y46834D01*
X34109Y46832D01*
X34111Y46830D01*
X34114Y46827D01*
X34118Y46824D01*
X34122Y46820D01*
X34126Y46816D01*
X34129Y46811D01*
X34129Y46811D01*
X34130Y46809D01*
X34132Y46807D01*
X34134Y46803D01*
X34136Y46799D01*
X34138Y46793D01*
X34140Y46788D01*
X34142Y46781D01*
Y46780D01*
X34142Y46779D01*
X34142Y46778D01*
X34143Y46774D01*
X34143Y46769D01*
X34144Y46764D01*
X34145Y46757D01*
X34145Y46749D01*
X34146Y46741D01*
Y46650D01*
X33894D01*
Y46747D01*
X33894Y46753D01*
X33894Y46761D01*
X33895Y46768D01*
X33896Y46775D01*
X33897Y46781D01*
Y46782D01*
X33898Y46782D01*
Y46784D01*
X33898Y46785D01*
X33900Y46789D01*
X33901Y46794D01*
X33904Y46800D01*
X33907Y46806D01*
X33911Y46812D01*
X33916Y46818D01*
X33916Y46819D01*
X33916Y46819D01*
X33917Y46820D01*
X33918Y46821D01*
X33922Y46825D01*
X33927Y46829D01*
X33933Y46834D01*
X33941Y46839D01*
X33949Y46844D01*
X33959Y46848D01*
X33959D01*
X33960Y46848D01*
X33961Y46849D01*
X33963Y46849D01*
X33966Y46851D01*
X33969Y46851D01*
X33972Y46852D01*
X33976Y46853D01*
X33980Y46854D01*
X33985Y46855D01*
X33995Y46857D01*
X34006Y46858D01*
X34019Y46858D01*
X34019D01*
X34020D01*
X34022D01*
X34023D01*
X34026Y46858D01*
D02*
G37*
G36*
X34096Y48808D02*
Y48773D01*
X33844Y48676D01*
Y48712D01*
X34027Y48778D01*
X34027D01*
X34028Y48778D01*
X34029Y48778D01*
X34030Y48779D01*
X34033Y48779D01*
X34035Y48780D01*
X34040Y48782D01*
X34046Y48784D01*
X34053Y48786D01*
X34068Y48791D01*
X34068D01*
X34067Y48791D01*
X34066Y48791D01*
X34064Y48792D01*
X34060Y48793D01*
X34055Y48795D01*
X34049Y48797D01*
X34042Y48799D01*
X34034Y48801D01*
X34027Y48804D01*
X33844Y48873D01*
Y48907D01*
X34096Y48808D01*
D02*
G37*
G36*
X34027Y48658D02*
X34030Y48658D01*
X34033Y48657D01*
X34037Y48656D01*
X34041Y48656D01*
X34049Y48653D01*
X34054Y48651D01*
X34058Y48648D01*
X34063Y48646D01*
X34068Y48642D01*
X34073Y48639D01*
X34077Y48634D01*
X34077Y48634D01*
X34078Y48633D01*
X34079Y48632D01*
X34081Y48630D01*
X34083Y48628D01*
X34084Y48625D01*
X34087Y48622D01*
X34088Y48618D01*
X34091Y48614D01*
X34093Y48609D01*
X34095Y48604D01*
X34096Y48599D01*
X34098Y48593D01*
X34099Y48587D01*
X34100Y48580D01*
X34100Y48573D01*
Y48570D01*
X34100Y48568D01*
X34099Y48565D01*
X34099Y48562D01*
X34098Y48558D01*
X34097Y48554D01*
X34095Y48545D01*
X34092Y48536D01*
X34089Y48532D01*
X34087Y48527D01*
X34084Y48523D01*
X34080Y48519D01*
X34080Y48518D01*
X34079Y48517D01*
X34078Y48516D01*
X34077Y48515D01*
X34075Y48513D01*
X34072Y48512D01*
X34070Y48509D01*
X34067Y48507D01*
X34063Y48505D01*
X34059Y48503D01*
X34051Y48499D01*
X34040Y48496D01*
X34035Y48494D01*
X34029Y48494D01*
X34025Y48525D01*
X34025D01*
X34026Y48525D01*
X34028Y48525D01*
X34029Y48526D01*
X34032Y48526D01*
X34034Y48527D01*
X34040Y48529D01*
X34046Y48531D01*
X34052Y48535D01*
X34058Y48538D01*
X34063Y48543D01*
X34064Y48543D01*
X34065Y48545D01*
X34067Y48548D01*
X34069Y48551D01*
X34071Y48556D01*
X34073Y48561D01*
X34074Y48567D01*
X34075Y48574D01*
Y48576D01*
X34074Y48577D01*
X34074Y48581D01*
X34073Y48587D01*
X34071Y48592D01*
X34068Y48599D01*
X34065Y48605D01*
X34060Y48611D01*
X34059Y48611D01*
X34057Y48613D01*
X34053Y48615D01*
X34049Y48618D01*
X34044Y48621D01*
X34037Y48623D01*
X34030Y48625D01*
X34022Y48626D01*
X34022D01*
X34021D01*
X34020D01*
X34018Y48626D01*
X34014Y48625D01*
X34010Y48624D01*
X34004Y48623D01*
X33998Y48620D01*
X33992Y48616D01*
X33987Y48612D01*
X33986Y48611D01*
X33985Y48609D01*
X33982Y48606D01*
X33980Y48602D01*
X33977Y48597D01*
X33975Y48591D01*
X33974Y48584D01*
X33973Y48576D01*
Y48573D01*
X33973Y48571D01*
X33974Y48567D01*
X33974Y48564D01*
X33975Y48559D01*
X33976Y48555D01*
X33949Y48558D01*
Y48560D01*
X33949Y48561D01*
Y48566D01*
X33949Y48570D01*
X33948Y48575D01*
X33947Y48580D01*
X33945Y48587D01*
X33942Y48592D01*
X33939Y48599D01*
Y48599D01*
X33939Y48599D01*
X33937Y48601D01*
X33935Y48604D01*
X33931Y48607D01*
X33927Y48609D01*
X33921Y48612D01*
X33915Y48614D01*
X33911Y48615D01*
X33907D01*
X33907D01*
X33907D01*
X33905D01*
X33902Y48614D01*
X33898Y48613D01*
X33893Y48612D01*
X33889Y48610D01*
X33884Y48607D01*
X33879Y48603D01*
X33879Y48603D01*
X33878Y48601D01*
X33876Y48598D01*
X33874Y48595D01*
X33872Y48591D01*
X33870Y48585D01*
X33869Y48580D01*
X33868Y48573D01*
Y48570D01*
X33869Y48567D01*
X33870Y48563D01*
X33871Y48558D01*
X33873Y48553D01*
X33876Y48548D01*
X33879Y48543D01*
X33880Y48543D01*
X33882Y48541D01*
X33884Y48539D01*
X33888Y48537D01*
X33893Y48534D01*
X33898Y48532D01*
X33905Y48529D01*
X33913Y48528D01*
X33908Y48497D01*
X33907D01*
X33906Y48497D01*
X33905Y48498D01*
X33903Y48498D01*
X33900Y48499D01*
X33897Y48500D01*
X33890Y48502D01*
X33882Y48506D01*
X33874Y48510D01*
X33867Y48516D01*
X33860Y48523D01*
X33859Y48523D01*
X33859Y48524D01*
X33858Y48525D01*
X33857Y48526D01*
X33856Y48528D01*
X33854Y48531D01*
X33853Y48533D01*
X33851Y48536D01*
X33848Y48544D01*
X33845Y48552D01*
X33843Y48562D01*
X33843Y48567D01*
Y48576D01*
X33843Y48580D01*
X33844Y48585D01*
X33845Y48591D01*
X33847Y48597D01*
X33849Y48604D01*
X33852Y48610D01*
Y48611D01*
X33852Y48611D01*
X33853Y48613D01*
X33855Y48616D01*
X33858Y48620D01*
X33862Y48624D01*
X33866Y48629D01*
X33870Y48633D01*
X33876Y48637D01*
X33877Y48637D01*
X33878Y48638D01*
X33882Y48640D01*
X33886Y48642D01*
X33890Y48643D01*
X33896Y48645D01*
X33902Y48646D01*
X33908Y48646D01*
X33909D01*
X33911D01*
X33914Y48646D01*
X33918Y48645D01*
X33923Y48644D01*
X33928Y48642D01*
X33933Y48640D01*
X33938Y48637D01*
X33939Y48637D01*
X33940Y48636D01*
X33943Y48634D01*
X33946Y48631D01*
X33949Y48627D01*
X33953Y48623D01*
X33956Y48618D01*
X33959Y48611D01*
Y48612D01*
X33960Y48612D01*
X33960Y48614D01*
X33960Y48615D01*
X33962Y48619D01*
X33964Y48624D01*
X33967Y48630D01*
X33970Y48636D01*
X33975Y48641D01*
X33981Y48646D01*
X33981Y48647D01*
X33984Y48648D01*
X33987Y48650D01*
X33992Y48652D01*
X33998Y48655D01*
X34005Y48657D01*
X34013Y48658D01*
X34021Y48659D01*
X34022D01*
X34023D01*
X34025D01*
X34027Y48658D01*
D02*
G37*
G36*
X34096Y48413D02*
X34060D01*
Y48448D01*
X34096D01*
Y48413D01*
D02*
G37*
G36*
X34027Y48365D02*
X34030Y48364D01*
X34033Y48363D01*
X34037Y48363D01*
X34041Y48362D01*
X34049Y48359D01*
X34054Y48357D01*
X34058Y48355D01*
X34063Y48352D01*
X34068Y48349D01*
X34073Y48345D01*
X34077Y48341D01*
X34077Y48340D01*
X34078Y48339D01*
X34079Y48338D01*
X34081Y48336D01*
X34083Y48334D01*
X34084Y48331D01*
X34087Y48328D01*
X34088Y48324D01*
X34091Y48320D01*
X34093Y48315D01*
X34095Y48310D01*
X34096Y48305D01*
X34098Y48299D01*
X34099Y48293D01*
X34100Y48287D01*
X34100Y48280D01*
Y48276D01*
X34100Y48274D01*
X34099Y48271D01*
X34099Y48268D01*
X34098Y48264D01*
X34097Y48260D01*
X34095Y48252D01*
X34092Y48243D01*
X34089Y48238D01*
X34087Y48233D01*
X34084Y48229D01*
X34080Y48225D01*
X34080Y48224D01*
X34079Y48224D01*
X34078Y48223D01*
X34077Y48221D01*
X34075Y48220D01*
X34072Y48218D01*
X34070Y48216D01*
X34067Y48213D01*
X34063Y48211D01*
X34059Y48209D01*
X34051Y48205D01*
X34040Y48202D01*
X34035Y48201D01*
X34029Y48200D01*
X34025Y48231D01*
X34025D01*
X34026Y48231D01*
X34028Y48232D01*
X34029Y48232D01*
X34032Y48232D01*
X34034Y48233D01*
X34040Y48235D01*
X34046Y48237D01*
X34052Y48241D01*
X34058Y48244D01*
X34063Y48249D01*
X34064Y48250D01*
X34065Y48251D01*
X34067Y48254D01*
X34069Y48258D01*
X34071Y48262D01*
X34073Y48267D01*
X34074Y48274D01*
X34075Y48280D01*
Y48282D01*
X34074Y48284D01*
X34074Y48288D01*
X34073Y48293D01*
X34071Y48299D01*
X34068Y48305D01*
X34065Y48311D01*
X34060Y48317D01*
X34059Y48318D01*
X34057Y48319D01*
X34053Y48322D01*
X34049Y48324D01*
X34044Y48327D01*
X34037Y48330D01*
X34030Y48331D01*
X34022Y48332D01*
X34022D01*
X34021D01*
X34020D01*
X34018Y48332D01*
X34014Y48331D01*
X34010Y48330D01*
X34004Y48329D01*
X33998Y48326D01*
X33992Y48323D01*
X33987Y48318D01*
X33986Y48317D01*
X33985Y48315D01*
X33982Y48312D01*
X33980Y48308D01*
X33977Y48303D01*
X33975Y48297D01*
X33974Y48290D01*
X33973Y48283D01*
Y48279D01*
X33973Y48277D01*
X33974Y48274D01*
X33974Y48270D01*
X33975Y48266D01*
X33976Y48261D01*
X33949Y48264D01*
Y48266D01*
X33949Y48268D01*
Y48272D01*
X33949Y48276D01*
X33948Y48281D01*
X33947Y48287D01*
X33945Y48293D01*
X33942Y48299D01*
X33939Y48305D01*
Y48305D01*
X33939Y48306D01*
X33937Y48307D01*
X33935Y48310D01*
X33931Y48313D01*
X33927Y48316D01*
X33921Y48318D01*
X33915Y48320D01*
X33911Y48321D01*
X33907D01*
X33907D01*
X33907D01*
X33905D01*
X33902Y48320D01*
X33898Y48319D01*
X33893Y48318D01*
X33889Y48316D01*
X33884Y48313D01*
X33879Y48309D01*
X33879Y48309D01*
X33878Y48307D01*
X33876Y48304D01*
X33874Y48301D01*
X33872Y48297D01*
X33870Y48292D01*
X33869Y48286D01*
X33868Y48279D01*
Y48276D01*
X33869Y48273D01*
X33870Y48269D01*
X33871Y48264D01*
X33873Y48259D01*
X33876Y48254D01*
X33879Y48250D01*
X33880Y48249D01*
X33882Y48248D01*
X33884Y48246D01*
X33888Y48243D01*
X33893Y48240D01*
X33898Y48238D01*
X33905Y48236D01*
X33913Y48234D01*
X33908Y48203D01*
X33907D01*
X33906Y48204D01*
X33905Y48204D01*
X33903Y48204D01*
X33900Y48205D01*
X33897Y48206D01*
X33890Y48208D01*
X33882Y48212D01*
X33874Y48216D01*
X33867Y48222D01*
X33860Y48229D01*
X33859Y48229D01*
X33859Y48230D01*
X33858Y48231D01*
X33857Y48232D01*
X33856Y48234D01*
X33854Y48237D01*
X33853Y48239D01*
X33851Y48243D01*
X33848Y48250D01*
X33845Y48258D01*
X33843Y48268D01*
X33843Y48273D01*
Y48282D01*
X33843Y48286D01*
X33844Y48291D01*
X33845Y48297D01*
X33847Y48303D01*
X33849Y48310D01*
X33852Y48316D01*
Y48317D01*
X33852Y48317D01*
X33853Y48319D01*
X33855Y48323D01*
X33858Y48326D01*
X33862Y48331D01*
X33866Y48335D01*
X33870Y48339D01*
X33876Y48343D01*
X33877Y48343D01*
X33878Y48345D01*
X33882Y48346D01*
X33886Y48348D01*
X33890Y48350D01*
X33896Y48351D01*
X33902Y48352D01*
X33908Y48353D01*
X33909D01*
X33911D01*
X33914Y48352D01*
X33918Y48351D01*
X33923Y48350D01*
X33928Y48349D01*
X33933Y48346D01*
X33938Y48343D01*
X33939Y48343D01*
X33940Y48342D01*
X33943Y48340D01*
X33946Y48337D01*
X33949Y48333D01*
X33953Y48329D01*
X33956Y48324D01*
X33959Y48318D01*
Y48318D01*
X33960Y48319D01*
X33960Y48320D01*
X33960Y48321D01*
X33962Y48325D01*
X33964Y48330D01*
X33967Y48336D01*
X33970Y48342D01*
X33975Y48347D01*
X33981Y48353D01*
X33981Y48353D01*
X33984Y48354D01*
X33987Y48357D01*
X33992Y48359D01*
X33998Y48361D01*
X34005Y48363D01*
X34013Y48365D01*
X34021Y48365D01*
X34022D01*
X34023D01*
X34025D01*
X34027Y48365D01*
D02*
G37*
G36*
X34146Y48022D02*
X34019Y47933D01*
X34058Y47892D01*
X34146D01*
Y47858D01*
X33894D01*
Y47892D01*
X34019D01*
X33894Y48016D01*
Y48062D01*
X33996Y47956D01*
X34146Y48066D01*
Y48022D01*
D02*
G37*
G36*
Y47662D02*
X33894D01*
Y47696D01*
X34116D01*
Y47820D01*
X34146D01*
Y47662D01*
D02*
G37*
G36*
X34068Y47622D02*
X34070Y47622D01*
X34073Y47621D01*
X34076Y47619D01*
X34080Y47618D01*
X34084Y47616D01*
X34089Y47614D01*
X34099Y47609D01*
X34110Y47602D01*
X34115Y47598D01*
X34120Y47594D01*
X34124Y47590D01*
X34129Y47585D01*
X34129Y47585D01*
X34130Y47584D01*
X34130Y47582D01*
X34132Y47580D01*
X34134Y47577D01*
X34135Y47574D01*
X34137Y47570D01*
X34139Y47566D01*
X34141Y47562D01*
X34143Y47557D01*
X34145Y47551D01*
X34147Y47545D01*
X34148Y47539D01*
X34149Y47533D01*
X34150Y47526D01*
X34150Y47518D01*
Y47514D01*
X34150Y47511D01*
Y47508D01*
X34149Y47504D01*
X34149Y47500D01*
X34148Y47495D01*
X34146Y47484D01*
X34143Y47473D01*
X34139Y47462D01*
X34137Y47457D01*
X34134Y47452D01*
X34133Y47452D01*
X34133Y47451D01*
X34132Y47449D01*
X34130Y47448D01*
X34129Y47446D01*
X34127Y47443D01*
X34124Y47440D01*
X34121Y47437D01*
X34118Y47435D01*
X34115Y47431D01*
X34106Y47425D01*
X34096Y47419D01*
X34086Y47413D01*
X34085D01*
X34084Y47412D01*
X34082Y47412D01*
X34080Y47411D01*
X34077Y47410D01*
X34074Y47409D01*
X34070Y47408D01*
X34065Y47407D01*
X34060Y47405D01*
X34055Y47404D01*
X34044Y47402D01*
X34031Y47401D01*
X34018Y47400D01*
X34018D01*
X34016D01*
X34014D01*
X34011Y47400D01*
X34008D01*
X34004Y47401D01*
X33999Y47401D01*
X33995Y47402D01*
X33984Y47404D01*
X33972Y47406D01*
X33961Y47410D01*
X33949Y47415D01*
X33949Y47415D01*
X33948Y47416D01*
X33947Y47416D01*
X33945Y47418D01*
X33942Y47419D01*
X33939Y47421D01*
X33933Y47426D01*
X33925Y47432D01*
X33918Y47439D01*
X33911Y47448D01*
X33905Y47458D01*
X33904Y47458D01*
X33904Y47459D01*
X33903Y47460D01*
X33902Y47462D01*
X33901Y47465D01*
X33900Y47468D01*
X33898Y47472D01*
X33897Y47476D01*
X33896Y47480D01*
X33894Y47485D01*
X33892Y47495D01*
X33890Y47507D01*
X33889Y47519D01*
Y47522D01*
X33890Y47525D01*
X33890Y47528D01*
X33890Y47532D01*
X33891Y47536D01*
X33892Y47541D01*
X33894Y47551D01*
X33897Y47562D01*
X33900Y47567D01*
X33902Y47572D01*
X33905Y47577D01*
X33909Y47582D01*
X33909Y47583D01*
X33909Y47583D01*
X33910Y47585D01*
X33912Y47587D01*
X33914Y47589D01*
X33917Y47591D01*
X33920Y47594D01*
X33923Y47597D01*
X33926Y47599D01*
X33931Y47602D01*
X33935Y47606D01*
X33940Y47609D01*
X33945Y47611D01*
X33951Y47614D01*
X33956Y47616D01*
X33963Y47618D01*
X33971Y47586D01*
X33970D01*
X33969Y47585D01*
X33968Y47585D01*
X33966Y47584D01*
X33964Y47583D01*
X33961Y47582D01*
X33955Y47579D01*
X33949Y47575D01*
X33942Y47571D01*
X33936Y47566D01*
X33931Y47560D01*
X33930Y47559D01*
X33928Y47557D01*
X33926Y47553D01*
X33924Y47549D01*
X33922Y47542D01*
X33920Y47535D01*
X33918Y47527D01*
X33918Y47518D01*
Y47515D01*
X33918Y47513D01*
Y47511D01*
X33918Y47508D01*
X33920Y47501D01*
X33921Y47493D01*
X33924Y47485D01*
X33927Y47477D01*
X33932Y47469D01*
Y47469D01*
X33933Y47468D01*
X33935Y47466D01*
X33937Y47463D01*
X33942Y47459D01*
X33947Y47454D01*
X33953Y47449D01*
X33961Y47446D01*
X33969Y47442D01*
X33970D01*
X33971Y47442D01*
X33972Y47441D01*
X33973Y47441D01*
X33976Y47440D01*
X33978Y47439D01*
X33984Y47438D01*
X33992Y47437D01*
X34000Y47435D01*
X34008Y47435D01*
X34018Y47434D01*
X34018D01*
X34019D01*
X34021D01*
X34023D01*
X34026Y47435D01*
X34029D01*
X34033Y47435D01*
X34037Y47435D01*
X34046Y47436D01*
X34055Y47438D01*
X34064Y47440D01*
X34074Y47443D01*
X34074D01*
X34075Y47444D01*
X34076Y47444D01*
X34078Y47445D01*
X34082Y47447D01*
X34087Y47451D01*
X34093Y47455D01*
X34099Y47460D01*
X34105Y47466D01*
X34110Y47472D01*
Y47473D01*
X34110Y47474D01*
X34111Y47475D01*
X34112Y47476D01*
X34113Y47478D01*
X34114Y47480D01*
X34116Y47485D01*
X34118Y47492D01*
X34120Y47499D01*
X34121Y47507D01*
X34122Y47515D01*
Y47518D01*
X34121Y47520D01*
Y47523D01*
X34121Y47525D01*
X34119Y47532D01*
X34118Y47539D01*
X34115Y47547D01*
X34111Y47555D01*
X34109Y47559D01*
X34106Y47563D01*
X34105Y47563D01*
X34105Y47563D01*
X34104Y47565D01*
X34103Y47566D01*
X34101Y47567D01*
X34099Y47569D01*
X34096Y47571D01*
X34094Y47573D01*
X34090Y47575D01*
X34087Y47578D01*
X34083Y47580D01*
X34079Y47582D01*
X34074Y47584D01*
X34069Y47586D01*
X34063Y47588D01*
X34058Y47589D01*
X34066Y47623D01*
X34066D01*
X34068Y47622D01*
D02*
G37*
G36*
X33924Y46336D02*
X34146D01*
Y46303D01*
X33924D01*
Y46220D01*
X33894D01*
Y46419D01*
X33924D01*
Y46336D01*
D02*
G37*
G36*
X34082Y46192D02*
X34087Y46191D01*
X34093Y46190D01*
X34099Y46188D01*
X34106Y46185D01*
X34113Y46181D01*
X34113D01*
X34114Y46181D01*
X34116Y46179D01*
X34119Y46176D01*
X34123Y46173D01*
X34127Y46168D01*
X34132Y46162D01*
X34136Y46156D01*
X34140Y46148D01*
Y46147D01*
X34141Y46147D01*
X34141Y46146D01*
X34142Y46144D01*
X34142Y46142D01*
X34143Y46139D01*
X34145Y46134D01*
X34147Y46127D01*
X34149Y46118D01*
X34150Y46109D01*
X34150Y46099D01*
Y46094D01*
X34150Y46091D01*
Y46087D01*
X34149Y46084D01*
X34149Y46079D01*
X34147Y46070D01*
X34146Y46061D01*
X34143Y46051D01*
X34140Y46042D01*
Y46042D01*
X34140Y46041D01*
X34139Y46040D01*
X34138Y46039D01*
X34136Y46034D01*
X34133Y46029D01*
X34129Y46023D01*
X34123Y46017D01*
X34117Y46011D01*
X34110Y46006D01*
X34110D01*
X34109Y46005D01*
X34108Y46005D01*
X34107Y46004D01*
X34105Y46003D01*
X34103Y46002D01*
X34097Y45999D01*
X34090Y45997D01*
X34083Y45995D01*
X34074Y45993D01*
X34065Y45992D01*
X34062Y46024D01*
X34062D01*
X34063D01*
X34064Y46024D01*
X34065D01*
X34068Y46025D01*
X34073Y46026D01*
X34078Y46027D01*
X34083Y46029D01*
X34088Y46031D01*
X34093Y46034D01*
X34094Y46034D01*
X34095Y46035D01*
X34098Y46037D01*
X34100Y46040D01*
X34103Y46044D01*
X34107Y46048D01*
X34110Y46053D01*
X34113Y46059D01*
Y46059D01*
X34113Y46060D01*
X34114Y46061D01*
X34114Y46062D01*
X34115Y46066D01*
X34117Y46070D01*
X34118Y46076D01*
X34119Y46083D01*
X34120Y46090D01*
X34120Y46098D01*
Y46101D01*
X34120Y46105D01*
X34119Y46109D01*
X34119Y46114D01*
X34118Y46120D01*
X34117Y46126D01*
X34115Y46131D01*
X34114Y46132D01*
X34114Y46134D01*
X34112Y46137D01*
X34111Y46140D01*
X34108Y46143D01*
X34106Y46147D01*
X34103Y46150D01*
X34099Y46153D01*
X34099Y46154D01*
X34097Y46154D01*
X34095Y46156D01*
X34092Y46157D01*
X34090Y46158D01*
X34086Y46160D01*
X34082Y46160D01*
X34078Y46161D01*
X34077D01*
X34075D01*
X34073Y46160D01*
X34070Y46160D01*
X34067Y46159D01*
X34064Y46158D01*
X34060Y46156D01*
X34057Y46153D01*
X34056Y46153D01*
X34055Y46152D01*
X34054Y46150D01*
X34052Y46148D01*
X34050Y46145D01*
X34047Y46141D01*
X34044Y46136D01*
X34042Y46131D01*
X34042Y46130D01*
X34042Y46129D01*
X34040Y46126D01*
X34040Y46124D01*
X34039Y46121D01*
X34038Y46119D01*
X34038Y46115D01*
X34036Y46112D01*
X34035Y46107D01*
X34034Y46103D01*
X34033Y46098D01*
X34031Y46092D01*
X34030Y46086D01*
Y46086D01*
X34030Y46085D01*
X34029Y46083D01*
X34028Y46081D01*
X34028Y46078D01*
X34027Y46074D01*
X34025Y46067D01*
X34022Y46059D01*
X34020Y46051D01*
X34017Y46043D01*
X34016Y46040D01*
X34014Y46037D01*
Y46037D01*
X34014Y46036D01*
X34012Y46034D01*
X34011Y46031D01*
X34008Y46027D01*
X34004Y46023D01*
X34000Y46019D01*
X33996Y46014D01*
X33991Y46011D01*
X33990Y46010D01*
X33988Y46009D01*
X33985Y46008D01*
X33981Y46006D01*
X33977Y46005D01*
X33971Y46003D01*
X33965Y46002D01*
X33959Y46002D01*
X33959D01*
X33959D01*
X33957D01*
X33956D01*
X33952Y46003D01*
X33948Y46003D01*
X33942Y46004D01*
X33936Y46006D01*
X33930Y46009D01*
X33924Y46012D01*
X33923D01*
X33923Y46013D01*
X33921Y46015D01*
X33918Y46017D01*
X33914Y46020D01*
X33910Y46025D01*
X33906Y46030D01*
X33902Y46037D01*
X33898Y46044D01*
Y46044D01*
X33898Y46045D01*
X33897Y46046D01*
X33897Y46048D01*
X33896Y46050D01*
X33895Y46052D01*
X33894Y46058D01*
X33892Y46065D01*
X33891Y46073D01*
X33890Y46081D01*
X33889Y46090D01*
Y46095D01*
X33890Y46098D01*
Y46100D01*
X33890Y46107D01*
X33892Y46115D01*
X33893Y46123D01*
X33896Y46131D01*
X33898Y46139D01*
Y46140D01*
X33899Y46141D01*
X33900Y46142D01*
X33900Y46143D01*
X33902Y46147D01*
X33905Y46151D01*
X33909Y46157D01*
X33914Y46162D01*
X33919Y46168D01*
X33925Y46172D01*
X33926D01*
X33926Y46173D01*
X33927Y46173D01*
X33928Y46174D01*
X33932Y46176D01*
X33937Y46178D01*
X33943Y46181D01*
X33949Y46182D01*
X33957Y46184D01*
X33965Y46185D01*
X33967Y46153D01*
X33967D01*
X33966D01*
X33965Y46153D01*
X33963Y46152D01*
X33959Y46151D01*
X33954Y46150D01*
X33948Y46147D01*
X33942Y46144D01*
X33937Y46140D01*
X33932Y46135D01*
X33931Y46134D01*
X33930Y46133D01*
X33928Y46129D01*
X33925Y46124D01*
X33923Y46118D01*
X33921Y46111D01*
X33920Y46102D01*
X33919Y46091D01*
Y46086D01*
X33920Y46084D01*
X33920Y46081D01*
X33921Y46075D01*
X33922Y46067D01*
X33924Y46060D01*
X33927Y46053D01*
X33929Y46050D01*
X33931Y46047D01*
X33931Y46047D01*
X33932Y46045D01*
X33935Y46043D01*
X33938Y46041D01*
X33942Y46038D01*
X33946Y46036D01*
X33951Y46035D01*
X33957Y46034D01*
X33958D01*
X33959D01*
X33962Y46034D01*
X33965Y46035D01*
X33968Y46036D01*
X33972Y46038D01*
X33976Y46040D01*
X33979Y46043D01*
X33980Y46044D01*
X33981Y46046D01*
X33982Y46047D01*
X33983Y46048D01*
X33984Y46051D01*
X33985Y46053D01*
X33986Y46056D01*
X33988Y46060D01*
X33989Y46064D01*
X33991Y46069D01*
X33992Y46074D01*
X33994Y46080D01*
X33996Y46086D01*
X33997Y46094D01*
Y46094D01*
X33998Y46095D01*
X33998Y46098D01*
X33999Y46100D01*
X34000Y46103D01*
X34001Y46107D01*
X34002Y46111D01*
X34003Y46116D01*
X34005Y46125D01*
X34008Y46134D01*
X34009Y46139D01*
X34011Y46143D01*
X34012Y46146D01*
X34014Y46149D01*
Y46150D01*
X34014Y46150D01*
X34015Y46151D01*
X34015Y46153D01*
X34018Y46157D01*
X34020Y46162D01*
X34024Y46167D01*
X34029Y46173D01*
X34034Y46178D01*
X34039Y46182D01*
X34040Y46182D01*
X34042Y46184D01*
X34045Y46185D01*
X34050Y46188D01*
X34055Y46189D01*
X34061Y46191D01*
X34068Y46192D01*
X34075Y46193D01*
X34075D01*
X34076D01*
X34077D01*
X34078D01*
X34082Y46192D01*
D02*
G37*
G36*
X34146Y45930D02*
X34093Y45897D01*
X34093D01*
X34092Y45896D01*
X34091Y45895D01*
X34090Y45894D01*
X34086Y45892D01*
X34080Y45888D01*
X34075Y45884D01*
X34069Y45880D01*
X34064Y45876D01*
X34059Y45873D01*
X34058Y45872D01*
X34057Y45871D01*
X34055Y45869D01*
X34052Y45867D01*
X34047Y45861D01*
X34044Y45858D01*
X34042Y45856D01*
X34042Y45855D01*
X34041Y45854D01*
X34040Y45853D01*
X34039Y45851D01*
X34038Y45849D01*
X34037Y45846D01*
X34035Y45840D01*
Y45840D01*
X34035Y45839D01*
Y45838D01*
X34035Y45836D01*
X34034Y45833D01*
Y45830D01*
X34034Y45826D01*
Y45783D01*
X34146D01*
Y45750D01*
X33894D01*
Y45867D01*
X33894Y45870D01*
Y45873D01*
X33894Y45881D01*
X33896Y45889D01*
X33897Y45897D01*
X33898Y45905D01*
X33900Y45909D01*
X33901Y45913D01*
Y45913D01*
X33901Y45913D01*
X33902Y45916D01*
X33904Y45919D01*
X33906Y45923D01*
X33909Y45927D01*
X33914Y45932D01*
X33919Y45936D01*
X33925Y45941D01*
X33925D01*
X33925Y45941D01*
X33928Y45943D01*
X33931Y45944D01*
X33936Y45946D01*
X33941Y45948D01*
X33948Y45950D01*
X33955Y45951D01*
X33963Y45951D01*
X33963D01*
X33964D01*
X33965D01*
X33967Y45951D01*
X33969D01*
X33972Y45951D01*
X33978Y45949D01*
X33985Y45947D01*
X33993Y45944D01*
X34001Y45940D01*
X34004Y45937D01*
X34008Y45934D01*
X34008Y45933D01*
X34009Y45933D01*
X34010Y45932D01*
X34011Y45931D01*
X34012Y45929D01*
X34014Y45927D01*
X34016Y45924D01*
X34018Y45921D01*
X34020Y45917D01*
X34022Y45913D01*
X34024Y45909D01*
X34026Y45904D01*
X34027Y45899D01*
X34029Y45893D01*
X34030Y45887D01*
X34031Y45880D01*
X34031Y45881D01*
X34032Y45883D01*
X34034Y45885D01*
X34035Y45888D01*
X34039Y45894D01*
X34042Y45897D01*
X34044Y45900D01*
X34044Y45901D01*
X34046Y45903D01*
X34049Y45906D01*
X34053Y45909D01*
X34058Y45913D01*
X34063Y45918D01*
X34070Y45923D01*
X34077Y45928D01*
X34146Y45971D01*
Y45930D01*
D02*
G37*
G36*
X34026Y45594D02*
X34029D01*
X34036Y45594D01*
X34044Y45593D01*
X34052Y45592D01*
X34061Y45590D01*
X34070Y45588D01*
X34070D01*
X34071Y45587D01*
X34072Y45587D01*
X34073Y45587D01*
X34077Y45585D01*
X34082Y45583D01*
X34088Y45581D01*
X34094Y45578D01*
X34100Y45574D01*
X34106Y45571D01*
X34107Y45570D01*
X34109Y45569D01*
X34111Y45567D01*
X34114Y45564D01*
X34118Y45561D01*
X34122Y45557D01*
X34126Y45553D01*
X34129Y45548D01*
X34129Y45547D01*
X34130Y45546D01*
X34132Y45543D01*
X34134Y45539D01*
X34136Y45535D01*
X34138Y45530D01*
X34140Y45524D01*
X34142Y45518D01*
Y45517D01*
X34142Y45516D01*
X34142Y45515D01*
X34143Y45511D01*
X34143Y45506D01*
X34144Y45500D01*
X34145Y45493D01*
X34145Y45486D01*
X34146Y45477D01*
Y45387D01*
X33894D01*
Y45483D01*
X33894Y45490D01*
X33894Y45497D01*
X33895Y45504D01*
X33896Y45512D01*
X33897Y45518D01*
Y45518D01*
X33898Y45519D01*
Y45520D01*
X33898Y45522D01*
X33900Y45526D01*
X33901Y45531D01*
X33904Y45536D01*
X33907Y45543D01*
X33911Y45549D01*
X33916Y45555D01*
X33916Y45555D01*
X33916Y45555D01*
X33917Y45557D01*
X33918Y45558D01*
X33922Y45562D01*
X33927Y45566D01*
X33933Y45571D01*
X33941Y45576D01*
X33949Y45581D01*
X33959Y45585D01*
X33959D01*
X33960Y45585D01*
X33961Y45586D01*
X33963Y45586D01*
X33966Y45587D01*
X33969Y45588D01*
X33972Y45589D01*
X33976Y45590D01*
X33980Y45591D01*
X33985Y45591D01*
X33995Y45593D01*
X34006Y45594D01*
X34019Y45595D01*
X34019D01*
X34020D01*
X34022D01*
X34023D01*
X34026Y45594D01*
D02*
G37*
G36*
X34146Y45296D02*
X33948Y45164D01*
X34146D01*
Y45132D01*
X33894D01*
Y45166D01*
X34092Y45298D01*
X33894D01*
Y45330D01*
X34146D01*
Y45296D01*
D02*
G37*
G36*
X34111Y45083D02*
X34111Y45082D01*
X34113Y45081D01*
X34114Y45079D01*
X34115Y45077D01*
X34117Y45074D01*
X34119Y45071D01*
X34122Y45068D01*
X34126Y45060D01*
X34131Y45051D01*
X34136Y45042D01*
X34140Y45032D01*
Y45032D01*
X34141Y45031D01*
X34141Y45030D01*
X34142Y45028D01*
X34142Y45025D01*
X34143Y45023D01*
X34144Y45019D01*
X34145Y45016D01*
X34147Y45008D01*
X34149Y44999D01*
X34150Y44989D01*
X34150Y44979D01*
Y44975D01*
X34150Y44973D01*
Y44969D01*
X34149Y44965D01*
X34149Y44961D01*
X34148Y44956D01*
X34146Y44946D01*
X34143Y44934D01*
X34139Y44923D01*
X34137Y44917D01*
X34134Y44911D01*
X34134Y44911D01*
X34134Y44910D01*
X34133Y44908D01*
X34131Y44906D01*
X34130Y44904D01*
X34128Y44901D01*
X34123Y44894D01*
X34116Y44887D01*
X34108Y44879D01*
X34099Y44872D01*
X34088Y44865D01*
X34088D01*
X34087Y44865D01*
X34086Y44864D01*
X34083Y44863D01*
X34080Y44862D01*
X34077Y44861D01*
X34073Y44859D01*
X34069Y44858D01*
X34064Y44856D01*
X34059Y44855D01*
X34053Y44854D01*
X34047Y44853D01*
X34035Y44851D01*
X34021Y44850D01*
X34021D01*
X34019D01*
X34018D01*
X34015Y44850D01*
X34012D01*
X34008Y44851D01*
X34004Y44851D01*
X33999Y44852D01*
X33994Y44853D01*
X33988Y44854D01*
X33977Y44857D01*
X33965Y44860D01*
X33953Y44865D01*
X33952Y44866D01*
X33951Y44866D01*
X33950Y44867D01*
X33948Y44868D01*
X33945Y44870D01*
X33942Y44871D01*
X33935Y44877D01*
X33927Y44883D01*
X33919Y44890D01*
X33912Y44899D01*
X33908Y44904D01*
X33905Y44909D01*
X33905Y44910D01*
X33904Y44911D01*
X33904Y44912D01*
X33902Y44914D01*
X33901Y44917D01*
X33900Y44921D01*
X33898Y44924D01*
X33897Y44929D01*
X33896Y44933D01*
X33894Y44938D01*
X33893Y44944D01*
X33892Y44950D01*
X33890Y44962D01*
X33889Y44969D01*
Y44981D01*
X33890Y44983D01*
Y44986D01*
X33890Y44993D01*
X33892Y45000D01*
X33893Y45008D01*
X33896Y45017D01*
X33898Y45025D01*
Y45026D01*
X33899Y45027D01*
X33899Y45028D01*
X33900Y45029D01*
X33902Y45033D01*
X33905Y45038D01*
X33908Y45044D01*
X33913Y45049D01*
X33917Y45055D01*
X33923Y45060D01*
X33924Y45061D01*
X33926Y45062D01*
X33929Y45064D01*
X33934Y45067D01*
X33940Y45070D01*
X33947Y45073D01*
X33955Y45077D01*
X33964Y45079D01*
X33972Y45049D01*
X33972D01*
X33972Y45049D01*
X33971Y45048D01*
X33969Y45048D01*
X33966Y45047D01*
X33961Y45045D01*
X33956Y45043D01*
X33952Y45041D01*
X33947Y45038D01*
X33942Y45035D01*
X33942Y45035D01*
X33940Y45033D01*
X33939Y45031D01*
X33936Y45029D01*
X33933Y45025D01*
X33930Y45021D01*
X33927Y45016D01*
X33925Y45011D01*
X33924Y45010D01*
X33924Y45008D01*
X33923Y45005D01*
X33921Y45001D01*
X33920Y44996D01*
X33919Y44990D01*
X33918Y44983D01*
X33918Y44976D01*
Y44972D01*
X33918Y44970D01*
Y44968D01*
X33918Y44963D01*
X33920Y44957D01*
X33921Y44950D01*
X33923Y44943D01*
X33925Y44937D01*
X33925Y44936D01*
X33926Y44934D01*
X33928Y44931D01*
X33930Y44927D01*
X33933Y44923D01*
X33936Y44918D01*
X33939Y44914D01*
X33943Y44910D01*
X33944Y44909D01*
X33945Y44908D01*
X33948Y44906D01*
X33951Y44904D01*
X33954Y44901D01*
X33959Y44899D01*
X33963Y44896D01*
X33968Y44894D01*
X33969D01*
X33969Y44893D01*
X33971Y44893D01*
X33972Y44892D01*
X33975Y44892D01*
X33977Y44891D01*
X33980Y44890D01*
X33983Y44889D01*
X33991Y44887D01*
X34000Y44886D01*
X34009Y44885D01*
X34019Y44884D01*
X34019D01*
X34020D01*
X34022D01*
X34024Y44885D01*
X34027D01*
X34031Y44885D01*
X34035Y44885D01*
X34039Y44886D01*
X34048Y44887D01*
X34057Y44889D01*
X34067Y44892D01*
X34076Y44896D01*
X34076D01*
X34077Y44896D01*
X34078Y44897D01*
X34079Y44898D01*
X34083Y44900D01*
X34088Y44904D01*
X34094Y44909D01*
X34099Y44915D01*
X34104Y44922D01*
X34109Y44929D01*
Y44930D01*
X34110Y44930D01*
X34110Y44932D01*
X34111Y44933D01*
X34112Y44935D01*
X34113Y44938D01*
X34115Y44944D01*
X34117Y44951D01*
X34118Y44959D01*
X34120Y44968D01*
X34120Y44977D01*
Y44980D01*
X34120Y44983D01*
Y44985D01*
X34119Y44990D01*
X34118Y44997D01*
X34117Y45004D01*
X34115Y45011D01*
X34112Y45019D01*
Y45019D01*
X34112Y45020D01*
X34111Y45021D01*
X34111Y45022D01*
X34109Y45026D01*
X34107Y45031D01*
X34104Y45036D01*
X34101Y45041D01*
X34098Y45046D01*
X34094Y45051D01*
X34047D01*
Y44976D01*
X34017D01*
Y45083D01*
X34111D01*
X34111Y45083D01*
D02*
G37*
G36*
X74796Y47399D02*
X74544D01*
Y47432D01*
X74766D01*
Y47556D01*
X74796D01*
Y47399D01*
D02*
G37*
G36*
X74718Y47359D02*
X74720Y47358D01*
X74723Y47357D01*
X74726Y47356D01*
X74730Y47354D01*
X74734Y47352D01*
X74739Y47350D01*
X74749Y47345D01*
X74760Y47339D01*
X74765Y47335D01*
X74770Y47331D01*
X74774Y47326D01*
X74779Y47321D01*
X74779Y47321D01*
X74780Y47320D01*
X74780Y47318D01*
X74782Y47316D01*
X74784Y47313D01*
X74785Y47311D01*
X74787Y47307D01*
X74789Y47303D01*
X74791Y47298D01*
X74793Y47293D01*
X74795Y47287D01*
X74797Y47281D01*
X74798Y47275D01*
X74799Y47269D01*
X74800Y47262D01*
X74800Y47255D01*
Y47251D01*
X74800Y47248D01*
Y47244D01*
X74799Y47240D01*
X74799Y47236D01*
X74798Y47231D01*
X74796Y47220D01*
X74793Y47209D01*
X74789Y47198D01*
X74787Y47193D01*
X74784Y47188D01*
X74783Y47188D01*
X74783Y47187D01*
X74782Y47186D01*
X74780Y47184D01*
X74779Y47182D01*
X74777Y47180D01*
X74774Y47177D01*
X74771Y47174D01*
X74768Y47171D01*
X74765Y47168D01*
X74756Y47161D01*
X74746Y47155D01*
X74736Y47149D01*
X74735D01*
X74734Y47149D01*
X74732Y47148D01*
X74730Y47147D01*
X74727Y47146D01*
X74724Y47145D01*
X74720Y47144D01*
X74715Y47143D01*
X74710Y47142D01*
X74705Y47140D01*
X74694Y47138D01*
X74681Y47137D01*
X74668Y47136D01*
X74668D01*
X74666D01*
X74664D01*
X74661Y47137D01*
X74658D01*
X74654Y47137D01*
X74649Y47137D01*
X74645Y47138D01*
X74634Y47140D01*
X74622Y47142D01*
X74611Y47146D01*
X74599Y47151D01*
X74599Y47152D01*
X74598Y47152D01*
X74597Y47153D01*
X74595Y47154D01*
X74592Y47156D01*
X74589Y47157D01*
X74583Y47162D01*
X74575Y47168D01*
X74568Y47176D01*
X74561Y47184D01*
X74555Y47194D01*
X74554Y47194D01*
X74554Y47195D01*
X74553Y47197D01*
X74552Y47198D01*
X74551Y47201D01*
X74550Y47204D01*
X74548Y47208D01*
X74547Y47212D01*
X74546Y47216D01*
X74544Y47221D01*
X74542Y47231D01*
X74540Y47243D01*
X74539Y47255D01*
Y47259D01*
X74540Y47261D01*
X74540Y47264D01*
X74540Y47268D01*
X74541Y47272D01*
X74542Y47277D01*
X74544Y47287D01*
X74547Y47298D01*
X74550Y47303D01*
X74552Y47308D01*
X74555Y47313D01*
X74559Y47319D01*
X74559Y47319D01*
X74559Y47320D01*
X74560Y47321D01*
X74562Y47323D01*
X74564Y47325D01*
X74567Y47327D01*
X74570Y47330D01*
X74573Y47333D01*
X74576Y47336D01*
X74581Y47339D01*
X74585Y47342D01*
X74590Y47345D01*
X74595Y47347D01*
X74601Y47350D01*
X74606Y47352D01*
X74613Y47355D01*
X74621Y47322D01*
X74620D01*
X74619Y47322D01*
X74618Y47321D01*
X74616Y47320D01*
X74614Y47319D01*
X74611Y47318D01*
X74605Y47315D01*
X74599Y47312D01*
X74592Y47307D01*
X74586Y47302D01*
X74581Y47296D01*
X74580Y47295D01*
X74578Y47293D01*
X74577Y47289D01*
X74574Y47285D01*
X74572Y47279D01*
X74570Y47272D01*
X74568Y47263D01*
X74568Y47254D01*
Y47251D01*
X74568Y47249D01*
Y47247D01*
X74569Y47244D01*
X74570Y47237D01*
X74571Y47229D01*
X74574Y47221D01*
X74577Y47213D01*
X74582Y47205D01*
Y47205D01*
X74583Y47205D01*
X74585Y47202D01*
X74587Y47199D01*
X74592Y47195D01*
X74597Y47190D01*
X74603Y47186D01*
X74611Y47182D01*
X74619Y47178D01*
X74620D01*
X74621Y47178D01*
X74622Y47177D01*
X74623Y47177D01*
X74626Y47176D01*
X74628Y47176D01*
X74634Y47174D01*
X74642Y47173D01*
X74650Y47172D01*
X74658Y47171D01*
X74668Y47170D01*
X74668D01*
X74669D01*
X74671D01*
X74673D01*
X74676Y47171D01*
X74679D01*
X74683Y47171D01*
X74687Y47172D01*
X74696Y47173D01*
X74705Y47174D01*
X74714Y47177D01*
X74724Y47180D01*
X74724D01*
X74725Y47180D01*
X74726Y47181D01*
X74728Y47181D01*
X74732Y47184D01*
X74737Y47187D01*
X74743Y47191D01*
X74749Y47196D01*
X74755Y47202D01*
X74760Y47209D01*
Y47209D01*
X74760Y47210D01*
X74761Y47211D01*
X74762Y47212D01*
X74763Y47214D01*
X74764Y47216D01*
X74766Y47221D01*
X74768Y47228D01*
X74770Y47235D01*
X74771Y47243D01*
X74772Y47252D01*
Y47254D01*
X74771Y47256D01*
Y47259D01*
X74771Y47261D01*
X74769Y47268D01*
X74768Y47276D01*
X74765Y47283D01*
X74761Y47291D01*
X74759Y47295D01*
X74756Y47299D01*
X74755Y47299D01*
X74755Y47300D01*
X74754Y47301D01*
X74753Y47302D01*
X74751Y47304D01*
X74749Y47305D01*
X74746Y47308D01*
X74744Y47309D01*
X74740Y47312D01*
X74737Y47314D01*
X74733Y47316D01*
X74729Y47319D01*
X74724Y47320D01*
X74719Y47322D01*
X74713Y47324D01*
X74708Y47326D01*
X74716Y47359D01*
X74716D01*
X74718Y47359D01*
D02*
G37*
G36*
X74732Y47099D02*
X74737Y47099D01*
X74743Y47097D01*
X74749Y47095D01*
X74756Y47093D01*
X74763Y47089D01*
X74763D01*
X74764Y47088D01*
X74766Y47086D01*
X74769Y47084D01*
X74773Y47080D01*
X74777Y47075D01*
X74782Y47070D01*
X74786Y47063D01*
X74790Y47055D01*
Y47055D01*
X74791Y47054D01*
X74791Y47053D01*
X74792Y47052D01*
X74792Y47050D01*
X74793Y47047D01*
X74795Y47041D01*
X74797Y47034D01*
X74799Y47026D01*
X74800Y47017D01*
X74800Y47007D01*
Y47001D01*
X74800Y46998D01*
Y46995D01*
X74799Y46991D01*
X74799Y46987D01*
X74797Y46978D01*
X74796Y46968D01*
X74793Y46959D01*
X74790Y46950D01*
Y46950D01*
X74790Y46949D01*
X74789Y46948D01*
X74788Y46946D01*
X74786Y46942D01*
X74783Y46937D01*
X74779Y46931D01*
X74773Y46925D01*
X74767Y46919D01*
X74760Y46913D01*
X74760D01*
X74759Y46913D01*
X74758Y46912D01*
X74757Y46911D01*
X74755Y46911D01*
X74753Y46909D01*
X74747Y46907D01*
X74740Y46904D01*
X74733Y46902D01*
X74724Y46901D01*
X74715Y46900D01*
X74712Y46931D01*
X74712D01*
X74713D01*
X74714Y46932D01*
X74715D01*
X74718Y46932D01*
X74723Y46933D01*
X74728Y46935D01*
X74733Y46936D01*
X74738Y46939D01*
X74743Y46941D01*
X74744Y46942D01*
X74745Y46943D01*
X74748Y46945D01*
X74750Y46948D01*
X74753Y46951D01*
X74757Y46955D01*
X74760Y46961D01*
X74763Y46967D01*
Y46967D01*
X74763Y46967D01*
X74764Y46968D01*
X74764Y46970D01*
X74765Y46973D01*
X74767Y46978D01*
X74768Y46984D01*
X74769Y46990D01*
X74770Y46998D01*
X74770Y47006D01*
Y47009D01*
X74770Y47012D01*
X74769Y47017D01*
X74769Y47022D01*
X74768Y47028D01*
X74767Y47034D01*
X74765Y47039D01*
X74764Y47040D01*
X74764Y47042D01*
X74762Y47044D01*
X74761Y47047D01*
X74758Y47051D01*
X74756Y47054D01*
X74753Y47058D01*
X74749Y47061D01*
X74749Y47061D01*
X74747Y47062D01*
X74745Y47063D01*
X74742Y47065D01*
X74740Y47066D01*
X74736Y47067D01*
X74732Y47068D01*
X74728Y47068D01*
X74727D01*
X74725D01*
X74723Y47068D01*
X74720Y47067D01*
X74717Y47066D01*
X74714Y47065D01*
X74710Y47063D01*
X74707Y47061D01*
X74706Y47061D01*
X74705Y47059D01*
X74704Y47058D01*
X74702Y47055D01*
X74700Y47053D01*
X74697Y47049D01*
X74694Y47044D01*
X74692Y47038D01*
X74692Y47038D01*
X74692Y47036D01*
X74690Y47033D01*
X74690Y47031D01*
X74689Y47029D01*
X74688Y47026D01*
X74688Y47023D01*
X74686Y47019D01*
X74685Y47015D01*
X74684Y47011D01*
X74683Y47006D01*
X74681Y47000D01*
X74680Y46994D01*
Y46993D01*
X74680Y46992D01*
X74679Y46990D01*
X74678Y46988D01*
X74678Y46985D01*
X74677Y46982D01*
X74675Y46975D01*
X74672Y46967D01*
X74670Y46958D01*
X74667Y46951D01*
X74666Y46948D01*
X74664Y46945D01*
Y46944D01*
X74664Y46944D01*
X74662Y46942D01*
X74661Y46939D01*
X74658Y46935D01*
X74654Y46931D01*
X74650Y46926D01*
X74646Y46922D01*
X74641Y46918D01*
X74640Y46918D01*
X74638Y46917D01*
X74635Y46915D01*
X74631Y46914D01*
X74627Y46912D01*
X74621Y46911D01*
X74615Y46910D01*
X74609Y46909D01*
X74609D01*
X74609D01*
X74607D01*
X74606D01*
X74602Y46910D01*
X74598Y46911D01*
X74592Y46912D01*
X74586Y46914D01*
X74580Y46916D01*
X74574Y46920D01*
X74573D01*
X74573Y46920D01*
X74571Y46922D01*
X74568Y46925D01*
X74564Y46928D01*
X74560Y46932D01*
X74556Y46938D01*
X74552Y46944D01*
X74548Y46952D01*
Y46952D01*
X74548Y46953D01*
X74547Y46954D01*
X74547Y46955D01*
X74546Y46957D01*
X74545Y46960D01*
X74544Y46965D01*
X74542Y46972D01*
X74541Y46980D01*
X74540Y46988D01*
X74539Y46998D01*
Y47003D01*
X74540Y47005D01*
Y47008D01*
X74540Y47015D01*
X74542Y47022D01*
X74543Y47030D01*
X74546Y47039D01*
X74548Y47047D01*
Y47047D01*
X74549Y47048D01*
X74550Y47049D01*
X74550Y47051D01*
X74552Y47054D01*
X74555Y47059D01*
X74559Y47065D01*
X74564Y47070D01*
X74569Y47075D01*
X74575Y47080D01*
X74576D01*
X74576Y47080D01*
X74577Y47081D01*
X74578Y47082D01*
X74582Y47083D01*
X74587Y47086D01*
X74593Y47088D01*
X74599Y47090D01*
X74607Y47092D01*
X74615Y47093D01*
X74617Y47061D01*
X74617D01*
X74616D01*
X74615Y47060D01*
X74613Y47060D01*
X74609Y47059D01*
X74604Y47057D01*
X74598Y47055D01*
X74592Y47052D01*
X74587Y47048D01*
X74582Y47043D01*
X74581Y47042D01*
X74580Y47040D01*
X74578Y47036D01*
X74575Y47032D01*
X74573Y47026D01*
X74571Y47018D01*
X74570Y47009D01*
X74569Y46999D01*
Y46994D01*
X74570Y46992D01*
X74570Y46989D01*
X74571Y46982D01*
X74572Y46975D01*
X74574Y46968D01*
X74577Y46961D01*
X74579Y46958D01*
X74581Y46955D01*
X74581Y46954D01*
X74582Y46953D01*
X74585Y46951D01*
X74588Y46948D01*
X74592Y46946D01*
X74596Y46944D01*
X74601Y46942D01*
X74607Y46941D01*
X74608D01*
X74609D01*
X74612Y46942D01*
X74615Y46943D01*
X74618Y46944D01*
X74622Y46946D01*
X74626Y46948D01*
X74629Y46951D01*
X74630Y46951D01*
X74631Y46953D01*
X74632Y46955D01*
X74633Y46956D01*
X74634Y46958D01*
X74635Y46961D01*
X74636Y46964D01*
X74638Y46968D01*
X74639Y46972D01*
X74641Y46976D01*
X74642Y46982D01*
X74644Y46987D01*
X74646Y46994D01*
X74647Y47001D01*
Y47002D01*
X74648Y47003D01*
X74648Y47005D01*
X74649Y47008D01*
X74650Y47011D01*
X74651Y47015D01*
X74652Y47019D01*
X74653Y47023D01*
X74655Y47033D01*
X74658Y47042D01*
X74660Y47046D01*
X74661Y47050D01*
X74662Y47054D01*
X74664Y47057D01*
Y47057D01*
X74664Y47058D01*
X74665Y47059D01*
X74665Y47061D01*
X74668Y47065D01*
X74670Y47069D01*
X74674Y47075D01*
X74679Y47080D01*
X74684Y47085D01*
X74689Y47090D01*
X74690Y47090D01*
X74692Y47091D01*
X74695Y47093D01*
X74700Y47095D01*
X74705Y47097D01*
X74711Y47099D01*
X74718Y47100D01*
X74725Y47100D01*
X74725D01*
X74726D01*
X74727D01*
X74728D01*
X74732Y47099D01*
D02*
G37*
G36*
X74796Y46720D02*
X74719Y46691D01*
Y46585D01*
X74796Y46558D01*
Y46522D01*
X74544Y46619D01*
Y46655D01*
X74796Y46758D01*
Y46720D01*
D02*
G37*
G36*
X74676Y46504D02*
X74679D01*
X74686Y46504D01*
X74694Y46502D01*
X74702Y46501D01*
X74711Y46500D01*
X74720Y46497D01*
X74720D01*
X74721Y46497D01*
X74722Y46497D01*
X74723Y46496D01*
X74727Y46495D01*
X74732Y46493D01*
X74738Y46490D01*
X74744Y46488D01*
X74750Y46484D01*
X74756Y46480D01*
X74757Y46480D01*
X74759Y46478D01*
X74761Y46476D01*
X74764Y46473D01*
X74768Y46470D01*
X74772Y46466D01*
X74776Y46462D01*
X74779Y46457D01*
X74779Y46457D01*
X74780Y46455D01*
X74782Y46453D01*
X74784Y46449D01*
X74786Y46445D01*
X74788Y46439D01*
X74790Y46434D01*
X74792Y46427D01*
Y46426D01*
X74792Y46425D01*
X74792Y46424D01*
X74793Y46421D01*
X74793Y46415D01*
X74794Y46410D01*
X74795Y46403D01*
X74795Y46395D01*
X74796Y46387D01*
Y46296D01*
X74544D01*
Y46393D01*
X74544Y46399D01*
X74544Y46407D01*
X74545Y46414D01*
X74546Y46421D01*
X74547Y46427D01*
Y46428D01*
X74548Y46429D01*
Y46430D01*
X74548Y46431D01*
X74550Y46435D01*
X74551Y46440D01*
X74554Y46446D01*
X74557Y46452D01*
X74561Y46458D01*
X74566Y46464D01*
X74566Y46465D01*
X74566Y46465D01*
X74567Y46466D01*
X74569Y46468D01*
X74572Y46471D01*
X74577Y46476D01*
X74583Y46480D01*
X74591Y46485D01*
X74599Y46490D01*
X74609Y46494D01*
X74609D01*
X74610Y46494D01*
X74611Y46495D01*
X74613Y46496D01*
X74616Y46497D01*
X74619Y46497D01*
X74622Y46498D01*
X74626Y46499D01*
X74630Y46500D01*
X74635Y46501D01*
X74645Y46503D01*
X74656Y46504D01*
X74669Y46504D01*
X74669D01*
X74670D01*
X74672D01*
X74673D01*
X74676Y46504D01*
D02*
G37*
G36*
X74732Y46249D02*
X74737Y46249D01*
X74743Y46247D01*
X74749Y46245D01*
X74756Y46243D01*
X74763Y46239D01*
X74763D01*
X74764Y46238D01*
X74766Y46236D01*
X74769Y46234D01*
X74773Y46230D01*
X74777Y46225D01*
X74782Y46220D01*
X74786Y46213D01*
X74790Y46205D01*
Y46205D01*
X74791Y46204D01*
X74791Y46203D01*
X74792Y46202D01*
X74792Y46200D01*
X74793Y46197D01*
X74795Y46191D01*
X74797Y46184D01*
X74799Y46176D01*
X74800Y46167D01*
X74800Y46157D01*
Y46151D01*
X74800Y46148D01*
Y46145D01*
X74799Y46141D01*
X74799Y46137D01*
X74797Y46128D01*
X74796Y46118D01*
X74793Y46109D01*
X74790Y46100D01*
Y46100D01*
X74790Y46099D01*
X74789Y46098D01*
X74788Y46096D01*
X74786Y46092D01*
X74783Y46087D01*
X74779Y46081D01*
X74773Y46075D01*
X74767Y46069D01*
X74760Y46063D01*
X74760D01*
X74759Y46063D01*
X74758Y46062D01*
X74757Y46061D01*
X74755Y46061D01*
X74753Y46059D01*
X74747Y46057D01*
X74740Y46054D01*
X74733Y46052D01*
X74724Y46051D01*
X74715Y46050D01*
X74712Y46081D01*
X74712D01*
X74713D01*
X74714Y46082D01*
X74715D01*
X74718Y46082D01*
X74723Y46083D01*
X74728Y46085D01*
X74733Y46086D01*
X74738Y46089D01*
X74743Y46091D01*
X74744Y46092D01*
X74745Y46093D01*
X74748Y46095D01*
X74750Y46098D01*
X74753Y46101D01*
X74757Y46105D01*
X74760Y46111D01*
X74763Y46117D01*
Y46117D01*
X74763Y46117D01*
X74764Y46118D01*
X74764Y46120D01*
X74765Y46123D01*
X74767Y46128D01*
X74768Y46134D01*
X74769Y46140D01*
X74770Y46148D01*
X74770Y46156D01*
Y46159D01*
X74770Y46162D01*
X74769Y46167D01*
X74769Y46172D01*
X74768Y46178D01*
X74767Y46184D01*
X74765Y46189D01*
X74764Y46190D01*
X74764Y46192D01*
X74762Y46194D01*
X74761Y46197D01*
X74758Y46201D01*
X74756Y46204D01*
X74753Y46208D01*
X74749Y46211D01*
X74749Y46211D01*
X74747Y46212D01*
X74745Y46213D01*
X74742Y46215D01*
X74740Y46216D01*
X74736Y46217D01*
X74732Y46218D01*
X74728Y46218D01*
X74727D01*
X74725D01*
X74723Y46218D01*
X74720Y46217D01*
X74717Y46216D01*
X74714Y46215D01*
X74710Y46213D01*
X74707Y46211D01*
X74706Y46211D01*
X74705Y46209D01*
X74704Y46208D01*
X74702Y46205D01*
X74700Y46203D01*
X74697Y46199D01*
X74694Y46194D01*
X74692Y46188D01*
X74692Y46188D01*
X74692Y46186D01*
X74690Y46183D01*
X74690Y46181D01*
X74689Y46179D01*
X74688Y46176D01*
X74688Y46173D01*
X74686Y46169D01*
X74685Y46165D01*
X74684Y46161D01*
X74683Y46156D01*
X74681Y46150D01*
X74680Y46144D01*
Y46143D01*
X74680Y46142D01*
X74679Y46140D01*
X74678Y46138D01*
X74678Y46135D01*
X74677Y46132D01*
X74675Y46125D01*
X74672Y46117D01*
X74670Y46108D01*
X74667Y46101D01*
X74666Y46098D01*
X74664Y46095D01*
Y46094D01*
X74664Y46094D01*
X74662Y46092D01*
X74661Y46089D01*
X74658Y46085D01*
X74654Y46081D01*
X74650Y46076D01*
X74646Y46072D01*
X74641Y46068D01*
X74640Y46068D01*
X74638Y46067D01*
X74635Y46065D01*
X74631Y46064D01*
X74627Y46062D01*
X74621Y46061D01*
X74615Y46060D01*
X74609Y46059D01*
X74609D01*
X74609D01*
X74607D01*
X74606D01*
X74602Y46060D01*
X74598Y46061D01*
X74592Y46062D01*
X74586Y46064D01*
X74580Y46066D01*
X74574Y46070D01*
X74573D01*
X74573Y46070D01*
X74571Y46072D01*
X74568Y46075D01*
X74564Y46078D01*
X74560Y46082D01*
X74556Y46088D01*
X74552Y46094D01*
X74548Y46102D01*
Y46102D01*
X74548Y46103D01*
X74547Y46104D01*
X74547Y46105D01*
X74546Y46107D01*
X74545Y46110D01*
X74544Y46115D01*
X74542Y46122D01*
X74541Y46130D01*
X74540Y46138D01*
X74539Y46148D01*
Y46153D01*
X74540Y46155D01*
Y46158D01*
X74540Y46165D01*
X74542Y46172D01*
X74543Y46180D01*
X74546Y46189D01*
X74548Y46197D01*
Y46197D01*
X74549Y46198D01*
X74550Y46199D01*
X74550Y46201D01*
X74552Y46204D01*
X74555Y46209D01*
X74559Y46215D01*
X74564Y46220D01*
X74569Y46225D01*
X74575Y46230D01*
X74576D01*
X74576Y46230D01*
X74577Y46231D01*
X74578Y46232D01*
X74582Y46233D01*
X74587Y46236D01*
X74593Y46238D01*
X74599Y46240D01*
X74607Y46242D01*
X74615Y46243D01*
X74617Y46211D01*
X74617D01*
X74616D01*
X74615Y46210D01*
X74613Y46210D01*
X74609Y46209D01*
X74604Y46207D01*
X74598Y46205D01*
X74592Y46202D01*
X74587Y46198D01*
X74582Y46193D01*
X74581Y46192D01*
X74580Y46190D01*
X74578Y46186D01*
X74575Y46182D01*
X74573Y46176D01*
X74571Y46168D01*
X74570Y46159D01*
X74569Y46149D01*
Y46144D01*
X74570Y46142D01*
X74570Y46139D01*
X74571Y46132D01*
X74572Y46125D01*
X74574Y46118D01*
X74577Y46111D01*
X74579Y46108D01*
X74581Y46105D01*
X74581Y46104D01*
X74582Y46103D01*
X74585Y46101D01*
X74588Y46098D01*
X74592Y46096D01*
X74596Y46094D01*
X74601Y46092D01*
X74607Y46091D01*
X74608D01*
X74609D01*
X74612Y46092D01*
X74615Y46093D01*
X74618Y46094D01*
X74622Y46095D01*
X74626Y46098D01*
X74629Y46101D01*
X74630Y46101D01*
X74631Y46103D01*
X74632Y46105D01*
X74633Y46106D01*
X74634Y46108D01*
X74635Y46111D01*
X74636Y46114D01*
X74638Y46118D01*
X74639Y46122D01*
X74641Y46126D01*
X74642Y46132D01*
X74644Y46137D01*
X74646Y46144D01*
X74647Y46151D01*
Y46152D01*
X74648Y46153D01*
X74648Y46155D01*
X74649Y46158D01*
X74650Y46161D01*
X74651Y46165D01*
X74652Y46169D01*
X74653Y46173D01*
X74655Y46183D01*
X74658Y46192D01*
X74660Y46196D01*
X74661Y46200D01*
X74662Y46204D01*
X74664Y46207D01*
Y46207D01*
X74664Y46208D01*
X74665Y46209D01*
X74665Y46211D01*
X74668Y46215D01*
X74670Y46219D01*
X74674Y46225D01*
X74679Y46230D01*
X74684Y46235D01*
X74689Y46240D01*
X74690Y46240D01*
X74692Y46241D01*
X74695Y46243D01*
X74700Y46245D01*
X74705Y46247D01*
X74711Y46249D01*
X74718Y46250D01*
X74725Y46250D01*
X74725D01*
X74726D01*
X74727D01*
X74728D01*
X74732Y46249D01*
D02*
G37*
G36*
X74796Y45715D02*
Y45680D01*
X74544Y45582D01*
Y45619D01*
X74727Y45684D01*
X74727D01*
X74728Y45685D01*
X74729Y45685D01*
X74730Y45686D01*
X74733Y45686D01*
X74735Y45687D01*
X74740Y45689D01*
X74746Y45691D01*
X74753Y45693D01*
X74768Y45697D01*
X74768D01*
X74767Y45698D01*
X74766Y45698D01*
X74764Y45698D01*
X74760Y45700D01*
X74755Y45701D01*
X74749Y45703D01*
X74742Y45705D01*
X74734Y45708D01*
X74727Y45711D01*
X74544Y45779D01*
Y45813D01*
X74796Y45715D01*
D02*
G37*
G36*
X74716Y45567D02*
X74719Y45566D01*
X74722Y45566D01*
X74726Y45565D01*
X74730Y45565D01*
X74740Y45562D01*
X74750Y45559D01*
X74755Y45557D01*
X74760Y45554D01*
X74765Y45551D01*
X74769Y45547D01*
X74770Y45547D01*
X74771Y45546D01*
X74772Y45545D01*
X74774Y45543D01*
X74776Y45540D01*
X74779Y45537D01*
X74782Y45534D01*
X74785Y45530D01*
X74788Y45525D01*
X74790Y45520D01*
X74793Y45515D01*
X74795Y45509D01*
X74797Y45503D01*
X74799Y45496D01*
X74800Y45488D01*
X74800Y45481D01*
Y45478D01*
X74800Y45475D01*
X74799Y45472D01*
X74799Y45469D01*
X74799Y45465D01*
X74797Y45461D01*
X74795Y45452D01*
X74792Y45443D01*
X74790Y45438D01*
X74787Y45433D01*
X74784Y45429D01*
X74781Y45424D01*
X74781Y45424D01*
X74780Y45423D01*
X74779Y45423D01*
X74777Y45421D01*
X74776Y45419D01*
X74773Y45417D01*
X74771Y45415D01*
X74767Y45413D01*
X74764Y45411D01*
X74760Y45409D01*
X74751Y45405D01*
X74741Y45402D01*
X74736Y45401D01*
X74730Y45400D01*
X74727Y45432D01*
X74728D01*
X74728D01*
X74729Y45433D01*
X74731Y45433D01*
X74735Y45434D01*
X74741Y45436D01*
X74746Y45438D01*
X74752Y45441D01*
X74758Y45444D01*
X74763Y45449D01*
X74763Y45450D01*
X74765Y45451D01*
X74767Y45454D01*
X74769Y45458D01*
X74771Y45462D01*
X74773Y45468D01*
X74774Y45474D01*
X74775Y45481D01*
Y45483D01*
X74774Y45484D01*
X74774Y45489D01*
X74772Y45494D01*
X74771Y45500D01*
X74768Y45506D01*
X74763Y45513D01*
X74761Y45516D01*
X74758Y45519D01*
X74757Y45519D01*
X74757Y45519D01*
X74756Y45520D01*
X74755Y45521D01*
X74751Y45524D01*
X74746Y45527D01*
X74740Y45529D01*
X74732Y45532D01*
X74723Y45534D01*
X74718Y45534D01*
X74713D01*
X74713D01*
X74712D01*
X74710D01*
X74709Y45534D01*
X74706D01*
X74704Y45534D01*
X74698Y45532D01*
X74691Y45531D01*
X74684Y45528D01*
X74678Y45524D01*
X74672Y45519D01*
X74671D01*
X74671Y45519D01*
X74669Y45517D01*
X74666Y45514D01*
X74664Y45509D01*
X74661Y45503D01*
X74658Y45497D01*
X74657Y45489D01*
X74656Y45485D01*
Y45478D01*
X74656Y45475D01*
X74657Y45471D01*
X74658Y45467D01*
X74659Y45463D01*
X74661Y45458D01*
X74663Y45453D01*
X74663Y45453D01*
X74664Y45451D01*
X74666Y45449D01*
X74668Y45446D01*
X74670Y45443D01*
X74673Y45440D01*
X74677Y45437D01*
X74681Y45435D01*
X74677Y45405D01*
X74547Y45430D01*
Y45555D01*
X74577D01*
Y45454D01*
X74645Y45441D01*
X74644Y45441D01*
X74644Y45442D01*
X74643Y45443D01*
X74642Y45445D01*
X74641Y45447D01*
X74639Y45450D01*
X74637Y45455D01*
X74634Y45463D01*
X74631Y45471D01*
X74629Y45479D01*
X74629Y45484D01*
Y45492D01*
X74629Y45494D01*
X74629Y45497D01*
X74630Y45500D01*
X74630Y45504D01*
X74631Y45508D01*
X74634Y45516D01*
X74636Y45521D01*
X74638Y45526D01*
X74641Y45531D01*
X74644Y45535D01*
X74647Y45540D01*
X74651Y45544D01*
X74652Y45545D01*
X74653Y45545D01*
X74654Y45546D01*
X74655Y45548D01*
X74658Y45550D01*
X74661Y45551D01*
X74664Y45554D01*
X74668Y45556D01*
X74672Y45558D01*
X74676Y45560D01*
X74681Y45562D01*
X74686Y45563D01*
X74692Y45565D01*
X74698Y45566D01*
X74704Y45567D01*
X74710Y45567D01*
X74711D01*
X74712D01*
X74714D01*
X74716Y45567D01*
D02*
G37*
G36*
X74676Y45194D02*
X74679D01*
X74686Y45194D01*
X74694Y45193D01*
X74702Y45192D01*
X74711Y45190D01*
X74720Y45188D01*
X74720D01*
X74721Y45187D01*
X74722Y45187D01*
X74723Y45187D01*
X74727Y45185D01*
X74732Y45183D01*
X74738Y45181D01*
X74744Y45178D01*
X74750Y45174D01*
X74756Y45171D01*
X74757Y45170D01*
X74759Y45169D01*
X74761Y45167D01*
X74764Y45164D01*
X74768Y45161D01*
X74772Y45157D01*
X74776Y45153D01*
X74779Y45148D01*
X74779Y45147D01*
X74780Y45146D01*
X74782Y45143D01*
X74784Y45139D01*
X74786Y45135D01*
X74788Y45130D01*
X74790Y45124D01*
X74792Y45118D01*
Y45117D01*
X74792Y45116D01*
X74792Y45115D01*
X74793Y45111D01*
X74793Y45106D01*
X74794Y45100D01*
X74795Y45093D01*
X74795Y45086D01*
X74796Y45077D01*
Y44987D01*
X74544D01*
Y45083D01*
X74544Y45090D01*
X74544Y45097D01*
X74545Y45104D01*
X74546Y45112D01*
X74547Y45118D01*
Y45118D01*
X74548Y45119D01*
Y45120D01*
X74548Y45122D01*
X74550Y45126D01*
X74551Y45131D01*
X74554Y45136D01*
X74557Y45143D01*
X74561Y45149D01*
X74566Y45155D01*
X74566Y45155D01*
X74566Y45155D01*
X74567Y45157D01*
X74569Y45158D01*
X74572Y45162D01*
X74577Y45166D01*
X74583Y45171D01*
X74591Y45176D01*
X74599Y45181D01*
X74609Y45185D01*
X74609D01*
X74610Y45185D01*
X74611Y45186D01*
X74613Y45186D01*
X74616Y45187D01*
X74619Y45188D01*
X74622Y45189D01*
X74626Y45190D01*
X74630Y45191D01*
X74635Y45191D01*
X74645Y45193D01*
X74656Y45194D01*
X74669Y45195D01*
X74669D01*
X74670D01*
X74672D01*
X74673D01*
X74676Y45194D01*
D02*
G37*
G36*
X74796Y44896D02*
X74598Y44764D01*
X74796D01*
Y44732D01*
X74544D01*
Y44766D01*
X74742Y44898D01*
X74544D01*
Y44930D01*
X74796D01*
Y44896D01*
D02*
G37*
G36*
X74761Y44683D02*
X74761Y44682D01*
X74763Y44681D01*
X74764Y44679D01*
X74765Y44677D01*
X74767Y44674D01*
X74769Y44671D01*
X74772Y44668D01*
X74776Y44660D01*
X74781Y44651D01*
X74786Y44642D01*
X74790Y44632D01*
Y44632D01*
X74791Y44631D01*
X74791Y44630D01*
X74792Y44628D01*
X74792Y44625D01*
X74793Y44623D01*
X74794Y44619D01*
X74795Y44616D01*
X74797Y44608D01*
X74799Y44599D01*
X74800Y44589D01*
X74800Y44579D01*
Y44575D01*
X74800Y44573D01*
Y44569D01*
X74799Y44565D01*
X74799Y44561D01*
X74798Y44556D01*
X74796Y44546D01*
X74793Y44534D01*
X74789Y44523D01*
X74787Y44517D01*
X74784Y44511D01*
X74784Y44511D01*
X74784Y44510D01*
X74783Y44508D01*
X74781Y44506D01*
X74780Y44504D01*
X74778Y44501D01*
X74773Y44494D01*
X74766Y44487D01*
X74758Y44479D01*
X74749Y44472D01*
X74738Y44465D01*
X74738D01*
X74737Y44465D01*
X74736Y44464D01*
X74733Y44463D01*
X74730Y44462D01*
X74727Y44461D01*
X74723Y44459D01*
X74719Y44458D01*
X74714Y44456D01*
X74709Y44455D01*
X74703Y44454D01*
X74697Y44453D01*
X74685Y44451D01*
X74671Y44450D01*
X74671D01*
X74669D01*
X74668D01*
X74665Y44450D01*
X74662D01*
X74658Y44451D01*
X74654Y44451D01*
X74649Y44452D01*
X74644Y44453D01*
X74638Y44454D01*
X74627Y44457D01*
X74615Y44460D01*
X74603Y44465D01*
X74602Y44466D01*
X74601Y44466D01*
X74600Y44467D01*
X74598Y44468D01*
X74595Y44470D01*
X74592Y44471D01*
X74585Y44477D01*
X74577Y44483D01*
X74569Y44490D01*
X74562Y44499D01*
X74558Y44504D01*
X74555Y44509D01*
X74555Y44510D01*
X74554Y44511D01*
X74554Y44512D01*
X74552Y44514D01*
X74551Y44517D01*
X74550Y44521D01*
X74548Y44524D01*
X74547Y44529D01*
X74546Y44533D01*
X74544Y44538D01*
X74543Y44544D01*
X74542Y44550D01*
X74540Y44562D01*
X74539Y44569D01*
Y44581D01*
X74540Y44583D01*
Y44586D01*
X74540Y44593D01*
X74542Y44600D01*
X74543Y44608D01*
X74546Y44617D01*
X74548Y44625D01*
Y44626D01*
X74549Y44627D01*
X74549Y44628D01*
X74550Y44629D01*
X74552Y44633D01*
X74555Y44638D01*
X74558Y44644D01*
X74563Y44649D01*
X74567Y44655D01*
X74573Y44660D01*
X74574Y44661D01*
X74576Y44662D01*
X74579Y44664D01*
X74584Y44667D01*
X74590Y44670D01*
X74597Y44674D01*
X74605Y44677D01*
X74614Y44679D01*
X74622Y44649D01*
X74622D01*
X74622Y44649D01*
X74621Y44648D01*
X74619Y44648D01*
X74616Y44647D01*
X74611Y44645D01*
X74606Y44643D01*
X74602Y44641D01*
X74597Y44638D01*
X74592Y44635D01*
X74592Y44635D01*
X74590Y44633D01*
X74589Y44631D01*
X74586Y44629D01*
X74583Y44625D01*
X74580Y44621D01*
X74577Y44616D01*
X74575Y44611D01*
X74574Y44610D01*
X74574Y44608D01*
X74573Y44605D01*
X74571Y44601D01*
X74570Y44596D01*
X74569Y44590D01*
X74568Y44583D01*
X74568Y44576D01*
Y44572D01*
X74568Y44570D01*
Y44568D01*
X74569Y44563D01*
X74570Y44557D01*
X74571Y44550D01*
X74573Y44543D01*
X74575Y44537D01*
X74575Y44536D01*
X74576Y44534D01*
X74578Y44531D01*
X74580Y44527D01*
X74583Y44523D01*
X74586Y44518D01*
X74589Y44514D01*
X74593Y44510D01*
X74594Y44509D01*
X74595Y44508D01*
X74598Y44506D01*
X74601Y44504D01*
X74604Y44501D01*
X74609Y44499D01*
X74613Y44496D01*
X74618Y44494D01*
X74619D01*
X74619Y44493D01*
X74621Y44493D01*
X74622Y44492D01*
X74625Y44492D01*
X74627Y44491D01*
X74630Y44490D01*
X74633Y44489D01*
X74641Y44487D01*
X74650Y44486D01*
X74659Y44485D01*
X74669Y44484D01*
X74669D01*
X74670D01*
X74672D01*
X74674Y44485D01*
X74677D01*
X74681Y44485D01*
X74685Y44485D01*
X74689Y44486D01*
X74698Y44487D01*
X74707Y44489D01*
X74717Y44492D01*
X74726Y44496D01*
X74726D01*
X74727Y44496D01*
X74728Y44497D01*
X74729Y44498D01*
X74733Y44500D01*
X74738Y44504D01*
X74744Y44509D01*
X74749Y44515D01*
X74755Y44522D01*
X74759Y44529D01*
Y44530D01*
X74760Y44530D01*
X74760Y44532D01*
X74761Y44533D01*
X74762Y44535D01*
X74763Y44538D01*
X74765Y44544D01*
X74767Y44551D01*
X74768Y44559D01*
X74770Y44568D01*
X74770Y44577D01*
Y44580D01*
X74770Y44583D01*
Y44585D01*
X74769Y44590D01*
X74768Y44597D01*
X74767Y44604D01*
X74765Y44611D01*
X74762Y44619D01*
Y44619D01*
X74762Y44620D01*
X74761Y44621D01*
X74761Y44622D01*
X74759Y44626D01*
X74757Y44631D01*
X74754Y44636D01*
X74751Y44641D01*
X74748Y44646D01*
X74744Y44651D01*
X74697D01*
Y44576D01*
X74667D01*
Y44683D01*
X74761D01*
X74761Y44683D01*
D02*
G37*
G36*
X72172Y44648D02*
X72177Y44648D01*
X72183Y44647D01*
X72189Y44646D01*
X72196Y44645D01*
X72211Y44641D01*
X72228Y44636D01*
X72236Y44633D01*
X72244Y44629D01*
X72251Y44624D01*
X72259Y44619D01*
X72260Y44619D01*
X72261Y44618D01*
X72263Y44616D01*
X72266Y44614D01*
X72269Y44611D01*
X72273Y44607D01*
X72276Y44603D01*
X72281Y44598D01*
X72285Y44593D01*
X72290Y44586D01*
X72295Y44579D01*
X72299Y44572D01*
X72303Y44564D01*
X72307Y44555D01*
X72311Y44547D01*
X72314Y44537D01*
X72264Y44525D01*
Y44525D01*
X72264Y44527D01*
X72263Y44529D01*
X72261Y44532D01*
X72260Y44535D01*
X72259Y44539D01*
X72254Y44548D01*
X72249Y44558D01*
X72242Y44568D01*
X72234Y44578D01*
X72225Y44586D01*
X72224Y44587D01*
X72220Y44589D01*
X72215Y44592D01*
X72208Y44596D01*
X72198Y44599D01*
X72188Y44603D01*
X72175Y44605D01*
X72161Y44605D01*
X72157D01*
X72154Y44605D01*
X72150D01*
X72145Y44604D01*
X72135Y44603D01*
X72123Y44600D01*
X72111Y44597D01*
X72098Y44591D01*
X72087Y44584D01*
X72086D01*
X72085Y44583D01*
X72082Y44580D01*
X72077Y44575D01*
X72071Y44569D01*
X72063Y44560D01*
X72057Y44551D01*
X72051Y44539D01*
X72045Y44527D01*
Y44526D01*
X72044Y44525D01*
X72044Y44523D01*
X72043Y44520D01*
X72042Y44517D01*
X72041Y44513D01*
X72039Y44504D01*
X72037Y44493D01*
X72035Y44481D01*
X72034Y44467D01*
X72033Y44453D01*
Y44452D01*
Y44451D01*
Y44448D01*
Y44444D01*
X72034Y44441D01*
Y44436D01*
X72034Y44430D01*
X72035Y44424D01*
X72037Y44411D01*
X72039Y44396D01*
X72043Y44382D01*
X72047Y44367D01*
Y44367D01*
X72048Y44366D01*
X72049Y44364D01*
X72050Y44361D01*
X72053Y44355D01*
X72058Y44347D01*
X72064Y44338D01*
X72072Y44328D01*
X72081Y44320D01*
X72092Y44312D01*
X72092D01*
X72093Y44312D01*
X72095Y44311D01*
X72097Y44310D01*
X72100Y44308D01*
X72103Y44307D01*
X72111Y44303D01*
X72121Y44300D01*
X72132Y44297D01*
X72144Y44295D01*
X72157Y44295D01*
X72161D01*
X72164Y44295D01*
X72168D01*
X72172Y44296D01*
X72182Y44298D01*
X72194Y44301D01*
X72205Y44305D01*
X72218Y44311D01*
X72224Y44315D01*
X72229Y44319D01*
X72230Y44320D01*
X72230Y44320D01*
X72232Y44322D01*
X72234Y44323D01*
X72236Y44326D01*
X72239Y44330D01*
X72243Y44333D01*
X72245Y44337D01*
X72249Y44342D01*
X72253Y44348D01*
X72256Y44353D01*
X72259Y44360D01*
X72262Y44367D01*
X72265Y44375D01*
X72268Y44383D01*
X72270Y44392D01*
X72321Y44380D01*
Y44379D01*
X72320Y44377D01*
X72319Y44373D01*
X72317Y44369D01*
X72316Y44364D01*
X72314Y44358D01*
X72311Y44351D01*
X72307Y44344D01*
X72300Y44328D01*
X72290Y44313D01*
X72284Y44305D01*
X72278Y44297D01*
X72271Y44291D01*
X72263Y44284D01*
X72263Y44283D01*
X72261Y44282D01*
X72259Y44281D01*
X72256Y44279D01*
X72251Y44276D01*
X72247Y44274D01*
X72241Y44271D01*
X72235Y44268D01*
X72228Y44265D01*
X72220Y44262D01*
X72211Y44259D01*
X72203Y44256D01*
X72193Y44254D01*
X72183Y44253D01*
X72173Y44252D01*
X72162Y44251D01*
X72155D01*
X72151Y44252D01*
X72146D01*
X72140Y44252D01*
X72133Y44254D01*
X72125Y44255D01*
X72109Y44257D01*
X72093Y44262D01*
X72076Y44268D01*
X72068Y44272D01*
X72061Y44276D01*
X72060Y44277D01*
X72059Y44277D01*
X72057Y44279D01*
X72054Y44281D01*
X72051Y44283D01*
X72047Y44287D01*
X72043Y44291D01*
X72038Y44295D01*
X72034Y44300D01*
X72029Y44305D01*
X72019Y44318D01*
X72009Y44333D01*
X72001Y44350D01*
Y44350D01*
X72000Y44352D01*
X71999Y44355D01*
X71998Y44358D01*
X71997Y44362D01*
X71995Y44368D01*
X71993Y44374D01*
X71991Y44381D01*
X71989Y44388D01*
X71987Y44396D01*
X71984Y44413D01*
X71982Y44433D01*
X71981Y44453D01*
Y44453D01*
Y44456D01*
Y44459D01*
X71982Y44463D01*
Y44468D01*
X71982Y44474D01*
X71983Y44481D01*
X71984Y44488D01*
X71987Y44504D01*
X71991Y44522D01*
X71996Y44540D01*
X72004Y44557D01*
X72004Y44558D01*
X72005Y44559D01*
X72006Y44562D01*
X72008Y44564D01*
X72011Y44568D01*
X72013Y44573D01*
X72021Y44583D01*
X72030Y44594D01*
X72041Y44605D01*
X72054Y44616D01*
X72069Y44625D01*
X72069Y44626D01*
X72071Y44626D01*
X72073Y44628D01*
X72076Y44629D01*
X72080Y44631D01*
X72085Y44633D01*
X72090Y44635D01*
X72097Y44637D01*
X72103Y44639D01*
X72110Y44641D01*
X72126Y44645D01*
X72144Y44648D01*
X72162Y44649D01*
X72168D01*
X72172Y44648D01*
D02*
G37*
G36*
X72601Y44592D02*
X72447D01*
X72426Y44488D01*
X72427Y44489D01*
X72428Y44489D01*
X72430Y44491D01*
X72432Y44492D01*
X72436Y44494D01*
X72440Y44496D01*
X72448Y44501D01*
X72460Y44505D01*
X72472Y44509D01*
X72485Y44512D01*
X72492Y44513D01*
X72504D01*
X72507Y44512D01*
X72512Y44512D01*
X72517Y44511D01*
X72522Y44510D01*
X72528Y44508D01*
X72542Y44504D01*
X72549Y44502D01*
X72556Y44498D01*
X72563Y44494D01*
X72571Y44489D01*
X72577Y44484D01*
X72584Y44478D01*
X72584Y44477D01*
X72586Y44476D01*
X72587Y44474D01*
X72589Y44472D01*
X72592Y44468D01*
X72595Y44464D01*
X72598Y44459D01*
X72602Y44453D01*
X72604Y44447D01*
X72608Y44441D01*
X72611Y44433D01*
X72613Y44425D01*
X72616Y44417D01*
X72617Y44407D01*
X72618Y44398D01*
X72619Y44388D01*
Y44387D01*
Y44386D01*
Y44383D01*
X72618Y44379D01*
X72618Y44375D01*
X72617Y44370D01*
X72616Y44363D01*
X72615Y44357D01*
X72612Y44343D01*
X72606Y44328D01*
X72603Y44320D01*
X72598Y44313D01*
X72594Y44305D01*
X72588Y44298D01*
X72588Y44297D01*
X72587Y44296D01*
X72584Y44293D01*
X72582Y44291D01*
X72578Y44287D01*
X72573Y44283D01*
X72568Y44279D01*
X72562Y44275D01*
X72555Y44270D01*
X72547Y44266D01*
X72539Y44262D01*
X72530Y44259D01*
X72521Y44256D01*
X72510Y44254D01*
X72499Y44252D01*
X72487Y44251D01*
X72482D01*
X72478Y44252D01*
X72474Y44252D01*
X72469Y44253D01*
X72463Y44254D01*
X72457Y44255D01*
X72443Y44259D01*
X72429Y44264D01*
X72422Y44267D01*
X72415Y44271D01*
X72408Y44275D01*
X72401Y44280D01*
X72401Y44281D01*
X72400Y44281D01*
X72399Y44283D01*
X72396Y44286D01*
X72394Y44289D01*
X72391Y44292D01*
X72387Y44296D01*
X72385Y44301D01*
X72381Y44306D01*
X72378Y44312D01*
X72372Y44326D01*
X72367Y44341D01*
X72365Y44350D01*
X72364Y44358D01*
X72414Y44362D01*
Y44362D01*
Y44361D01*
X72414Y44359D01*
X72415Y44356D01*
X72416Y44350D01*
X72418Y44342D01*
X72422Y44333D01*
X72426Y44324D01*
X72432Y44316D01*
X72438Y44308D01*
X72440Y44307D01*
X72442Y44305D01*
X72446Y44302D01*
X72452Y44299D01*
X72459Y44296D01*
X72467Y44293D01*
X72477Y44291D01*
X72487Y44290D01*
X72491D01*
X72493Y44291D01*
X72500Y44291D01*
X72507Y44293D01*
X72517Y44296D01*
X72526Y44301D01*
X72536Y44307D01*
X72541Y44311D01*
X72545Y44316D01*
X72546Y44316D01*
X72546Y44317D01*
X72547Y44318D01*
X72549Y44320D01*
X72553Y44326D01*
X72557Y44334D01*
X72561Y44343D01*
X72565Y44355D01*
X72568Y44369D01*
X72569Y44376D01*
Y44384D01*
Y44385D01*
Y44386D01*
Y44388D01*
X72568Y44391D01*
Y44394D01*
X72568Y44398D01*
X72566Y44407D01*
X72563Y44417D01*
X72559Y44428D01*
X72554Y44438D01*
X72546Y44447D01*
Y44448D01*
X72545Y44448D01*
X72542Y44451D01*
X72537Y44455D01*
X72531Y44459D01*
X72522Y44463D01*
X72512Y44467D01*
X72500Y44470D01*
X72493Y44471D01*
X72483D01*
X72478Y44471D01*
X72473Y44470D01*
X72466Y44468D01*
X72460Y44467D01*
X72452Y44464D01*
X72445Y44461D01*
X72445Y44460D01*
X72442Y44459D01*
X72439Y44456D01*
X72435Y44453D01*
X72430Y44449D01*
X72426Y44444D01*
X72421Y44439D01*
X72417Y44433D01*
X72372Y44439D01*
X72410Y44637D01*
X72601D01*
Y44592D01*
D02*
G37*
G36*
X62206Y49343D02*
X62258D01*
Y49300D01*
X62206D01*
Y49208D01*
X62159D01*
Y49300D01*
X61992D01*
Y49343D01*
X62168Y49592D01*
X62206D01*
Y49343D01*
D02*
G37*
G36*
X61778Y49253D02*
X61967D01*
Y49208D01*
X61726D01*
Y49592D01*
X61778D01*
Y49253D01*
D02*
G37*
G36*
X61524Y49591D02*
X61529D01*
X61541Y49591D01*
X61553Y49589D01*
X61567Y49588D01*
X61579Y49585D01*
X61585Y49583D01*
X61590Y49581D01*
X61590D01*
X61591Y49581D01*
X61594Y49579D01*
X61599Y49577D01*
X61605Y49573D01*
X61612Y49568D01*
X61619Y49562D01*
X61626Y49554D01*
X61633Y49545D01*
Y49544D01*
X61633Y49544D01*
X61635Y49540D01*
X61638Y49535D01*
X61641Y49528D01*
X61644Y49519D01*
X61647Y49509D01*
X61648Y49499D01*
X61649Y49487D01*
Y49487D01*
Y49485D01*
Y49483D01*
X61648Y49480D01*
Y49477D01*
X61648Y49473D01*
X61645Y49463D01*
X61642Y49452D01*
X61638Y49441D01*
X61631Y49429D01*
X61627Y49423D01*
X61622Y49418D01*
X61622Y49417D01*
X61621Y49417D01*
X61619Y49415D01*
X61617Y49413D01*
X61614Y49411D01*
X61611Y49409D01*
X61607Y49406D01*
X61602Y49403D01*
X61597Y49400D01*
X61590Y49397D01*
X61584Y49394D01*
X61577Y49391D01*
X61568Y49389D01*
X61560Y49386D01*
X61551Y49384D01*
X61541Y49383D01*
X61542Y49382D01*
X61544Y49381D01*
X61547Y49379D01*
X61552Y49377D01*
X61562Y49371D01*
X61567Y49367D01*
X61571Y49363D01*
X61572Y49362D01*
X61575Y49359D01*
X61579Y49355D01*
X61585Y49349D01*
X61591Y49342D01*
X61598Y49333D01*
X61605Y49323D01*
X61613Y49312D01*
X61679Y49208D01*
X61616D01*
X61566Y49288D01*
Y49288D01*
X61564Y49290D01*
X61563Y49291D01*
X61562Y49293D01*
X61558Y49300D01*
X61553Y49307D01*
X61547Y49316D01*
X61541Y49325D01*
X61534Y49333D01*
X61529Y49341D01*
X61528Y49341D01*
X61527Y49343D01*
X61524Y49347D01*
X61520Y49351D01*
X61512Y49359D01*
X61507Y49363D01*
X61503Y49366D01*
X61502Y49367D01*
X61501Y49367D01*
X61499Y49368D01*
X61496Y49370D01*
X61492Y49372D01*
X61488Y49373D01*
X61479Y49376D01*
X61479D01*
X61478Y49377D01*
X61476D01*
X61473Y49377D01*
X61469Y49378D01*
X61465D01*
X61458Y49378D01*
X61393D01*
Y49208D01*
X61342D01*
Y49592D01*
X61520D01*
X61524Y49591D01*
D02*
G37*
G36*
X54139Y49646D02*
X54146Y49645D01*
X54155Y49643D01*
X54165Y49640D01*
X54175Y49637D01*
X54185Y49632D01*
X54186D01*
X54186Y49632D01*
X54190Y49630D01*
X54195Y49627D01*
X54200Y49623D01*
X54207Y49617D01*
X54213Y49611D01*
X54220Y49604D01*
X54226Y49596D01*
X54226Y49595D01*
X54228Y49592D01*
X54230Y49587D01*
X54233Y49581D01*
X54236Y49573D01*
X54238Y49565D01*
X54240Y49556D01*
X54240Y49546D01*
Y49545D01*
Y49542D01*
X54240Y49537D01*
X54238Y49531D01*
X54237Y49524D01*
X54234Y49516D01*
X54231Y49509D01*
X54226Y49501D01*
X54226Y49500D01*
X54224Y49497D01*
X54221Y49494D01*
X54216Y49489D01*
X54211Y49484D01*
X54204Y49479D01*
X54196Y49474D01*
X54187Y49469D01*
X54187D01*
X54188Y49468D01*
X54190Y49467D01*
X54192Y49467D01*
X54198Y49465D01*
X54206Y49461D01*
X54215Y49457D01*
X54224Y49451D01*
X54232Y49444D01*
X54240Y49436D01*
X54241Y49435D01*
X54243Y49431D01*
X54246Y49426D01*
X54250Y49419D01*
X54253Y49410D01*
X54256Y49399D01*
X54258Y49387D01*
X54259Y49374D01*
Y49373D01*
Y49371D01*
Y49369D01*
X54258Y49365D01*
X54258Y49361D01*
X54257Y49356D01*
X54256Y49350D01*
X54255Y49344D01*
X54250Y49331D01*
X54247Y49324D01*
X54243Y49317D01*
X54239Y49310D01*
X54234Y49303D01*
X54228Y49295D01*
X54222Y49289D01*
X54221Y49288D01*
X54220Y49287D01*
X54218Y49285D01*
X54215Y49283D01*
X54212Y49280D01*
X54207Y49278D01*
X54202Y49274D01*
X54196Y49272D01*
X54190Y49268D01*
X54183Y49265D01*
X54176Y49262D01*
X54167Y49259D01*
X54159Y49257D01*
X54149Y49255D01*
X54140Y49254D01*
X54129Y49254D01*
X54124D01*
X54121Y49254D01*
X54116Y49255D01*
X54111Y49255D01*
X54106Y49257D01*
X54100Y49258D01*
X54086Y49261D01*
X54073Y49267D01*
X54065Y49270D01*
X54059Y49274D01*
X54052Y49279D01*
X54045Y49284D01*
X54045Y49284D01*
X54044Y49285D01*
X54042Y49287D01*
X54040Y49289D01*
X54038Y49292D01*
X54035Y49296D01*
X54031Y49300D01*
X54028Y49305D01*
X54025Y49310D01*
X54021Y49316D01*
X54015Y49329D01*
X54010Y49345D01*
X54009Y49353D01*
X54008Y49362D01*
X54055Y49368D01*
Y49368D01*
X54055Y49366D01*
X54056Y49364D01*
X54056Y49361D01*
X54057Y49358D01*
X54058Y49354D01*
X54061Y49346D01*
X54065Y49336D01*
X54070Y49327D01*
X54075Y49318D01*
X54082Y49310D01*
X54083Y49309D01*
X54085Y49307D01*
X54090Y49304D01*
X54095Y49302D01*
X54102Y49298D01*
X54110Y49295D01*
X54120Y49293D01*
X54130Y49293D01*
X54133D01*
X54135Y49293D01*
X54141Y49294D01*
X54149Y49295D01*
X54158Y49298D01*
X54167Y49302D01*
X54177Y49308D01*
X54186Y49315D01*
X54187Y49317D01*
X54190Y49320D01*
X54193Y49325D01*
X54197Y49332D01*
X54202Y49340D01*
X54205Y49349D01*
X54208Y49360D01*
X54209Y49373D01*
Y49373D01*
Y49374D01*
Y49376D01*
X54208Y49378D01*
X54208Y49384D01*
X54206Y49391D01*
X54204Y49400D01*
X54200Y49409D01*
X54195Y49418D01*
X54187Y49426D01*
X54186Y49428D01*
X54184Y49430D01*
X54179Y49433D01*
X54173Y49437D01*
X54165Y49441D01*
X54156Y49444D01*
X54145Y49446D01*
X54134Y49447D01*
X54129D01*
X54125Y49447D01*
X54120Y49446D01*
X54114Y49445D01*
X54107Y49444D01*
X54100Y49443D01*
X54106Y49484D01*
X54109D01*
X54111Y49484D01*
X54118D01*
X54124Y49485D01*
X54131Y49486D01*
X54140Y49487D01*
X54149Y49490D01*
X54158Y49494D01*
X54167Y49499D01*
X54168D01*
X54169Y49500D01*
X54171Y49502D01*
X54175Y49506D01*
X54180Y49511D01*
X54184Y49518D01*
X54188Y49526D01*
X54191Y49536D01*
X54192Y49541D01*
Y49547D01*
Y49548D01*
Y49549D01*
Y49552D01*
X54191Y49556D01*
X54190Y49562D01*
X54187Y49569D01*
X54185Y49576D01*
X54180Y49583D01*
X54174Y49590D01*
X54174Y49591D01*
X54171Y49593D01*
X54167Y49596D01*
X54162Y49599D01*
X54155Y49602D01*
X54147Y49605D01*
X54139Y49607D01*
X54129Y49607D01*
X54124D01*
X54119Y49606D01*
X54112Y49605D01*
X54105Y49603D01*
X54098Y49600D01*
X54090Y49596D01*
X54083Y49590D01*
X54082Y49590D01*
X54080Y49587D01*
X54077Y49583D01*
X54073Y49577D01*
X54069Y49570D01*
X54065Y49561D01*
X54062Y49551D01*
X54060Y49539D01*
X54013Y49547D01*
Y49547D01*
X54013Y49549D01*
X54014Y49551D01*
X54014Y49555D01*
X54015Y49559D01*
X54017Y49563D01*
X54020Y49573D01*
X54026Y49586D01*
X54033Y49598D01*
X54041Y49610D01*
X54051Y49620D01*
X54052Y49621D01*
X54053Y49621D01*
X54055Y49622D01*
X54057Y49624D01*
X54060Y49626D01*
X54064Y49628D01*
X54068Y49631D01*
X54073Y49633D01*
X54084Y49638D01*
X54096Y49642D01*
X54111Y49645D01*
X54119Y49646D01*
X54133D01*
X54139Y49646D01*
D02*
G37*
G36*
X53777Y49306D02*
X53966D01*
Y49260D01*
X53726D01*
Y49645D01*
X53777D01*
Y49306D01*
D02*
G37*
G36*
X53524Y49644D02*
X53529D01*
X53540Y49643D01*
X53552Y49642D01*
X53566Y49640D01*
X53578Y49637D01*
X53584Y49636D01*
X53589Y49634D01*
X53590D01*
X53590Y49633D01*
X53594Y49632D01*
X53599Y49630D01*
X53605Y49626D01*
X53611Y49621D01*
X53619Y49614D01*
X53625Y49606D01*
X53632Y49597D01*
Y49597D01*
X53632Y49596D01*
X53635Y49593D01*
X53637Y49587D01*
X53640Y49580D01*
X53643Y49572D01*
X53646Y49562D01*
X53647Y49551D01*
X53648Y49540D01*
Y49539D01*
Y49538D01*
Y49536D01*
X53647Y49533D01*
Y49529D01*
X53647Y49525D01*
X53645Y49516D01*
X53641Y49505D01*
X53637Y49493D01*
X53630Y49481D01*
X53626Y49476D01*
X53621Y49470D01*
X53621Y49470D01*
X53620Y49469D01*
X53619Y49467D01*
X53616Y49466D01*
X53614Y49464D01*
X53610Y49461D01*
X53606Y49459D01*
X53601Y49455D01*
X53596Y49453D01*
X53590Y49450D01*
X53583Y49446D01*
X53576Y49444D01*
X53567Y49441D01*
X53559Y49439D01*
X53550Y49437D01*
X53540Y49435D01*
X53541Y49435D01*
X53543Y49434D01*
X53546Y49431D01*
X53551Y49429D01*
X53561Y49423D01*
X53566Y49419D01*
X53570Y49416D01*
X53571Y49415D01*
X53574Y49412D01*
X53579Y49408D01*
X53584Y49402D01*
X53590Y49394D01*
X53597Y49386D01*
X53605Y49376D01*
X53612Y49365D01*
X53678Y49260D01*
X53615D01*
X53565Y49340D01*
Y49341D01*
X53564Y49342D01*
X53562Y49344D01*
X53561Y49346D01*
X53557Y49352D01*
X53552Y49360D01*
X53546Y49368D01*
X53540Y49377D01*
X53534Y49385D01*
X53528Y49393D01*
X53527Y49394D01*
X53526Y49396D01*
X53523Y49399D01*
X53519Y49403D01*
X53511Y49411D01*
X53506Y49415D01*
X53502Y49419D01*
X53501Y49419D01*
X53500Y49420D01*
X53498Y49421D01*
X53495Y49423D01*
X53491Y49424D01*
X53488Y49426D01*
X53479Y49429D01*
X53478D01*
X53477Y49429D01*
X53475D01*
X53472Y49430D01*
X53468Y49430D01*
X53464D01*
X53458Y49431D01*
X53392D01*
Y49260D01*
X53341D01*
Y49645D01*
X53519D01*
X53524Y49644D01*
D02*
G37*
G36*
X46095Y49592D02*
X46100Y49592D01*
X46105Y49591D01*
X46112Y49590D01*
X46118Y49589D01*
X46132Y49585D01*
X46147Y49580D01*
X46154Y49576D01*
X46161Y49572D01*
X46168Y49567D01*
X46174Y49562D01*
X46174Y49561D01*
X46175Y49561D01*
X46177Y49558D01*
X46179Y49556D01*
X46182Y49553D01*
X46184Y49550D01*
X46187Y49546D01*
X46190Y49541D01*
X46196Y49530D01*
X46201Y49517D01*
X46204Y49510D01*
X46205Y49502D01*
X46206Y49495D01*
X46206Y49486D01*
Y49485D01*
Y49482D01*
X46206Y49478D01*
X46205Y49472D01*
X46204Y49465D01*
X46202Y49457D01*
X46200Y49449D01*
X46196Y49441D01*
X46196Y49440D01*
X46195Y49437D01*
X46193Y49432D01*
X46189Y49426D01*
X46185Y49420D01*
X46179Y49411D01*
X46173Y49403D01*
X46165Y49394D01*
X46164Y49393D01*
X46161Y49389D01*
X46158Y49386D01*
X46155Y49384D01*
X46152Y49380D01*
X46148Y49376D01*
X46143Y49371D01*
X46138Y49366D01*
X46132Y49361D01*
X46125Y49355D01*
X46118Y49349D01*
X46110Y49341D01*
X46102Y49334D01*
X46093Y49326D01*
X46092Y49326D01*
X46091Y49325D01*
X46089Y49323D01*
X46086Y49321D01*
X46083Y49318D01*
X46079Y49314D01*
X46070Y49307D01*
X46061Y49299D01*
X46052Y49290D01*
X46044Y49283D01*
X46041Y49280D01*
X46038Y49278D01*
X46037Y49277D01*
X46036Y49275D01*
X46033Y49273D01*
X46031Y49270D01*
X46028Y49266D01*
X46024Y49262D01*
X46018Y49253D01*
X46207D01*
Y49207D01*
X45952D01*
Y49208D01*
Y49210D01*
Y49213D01*
X45953Y49218D01*
X45953Y49223D01*
X45955Y49228D01*
X45956Y49234D01*
X45958Y49240D01*
Y49240D01*
X45958Y49241D01*
X45960Y49244D01*
X45962Y49249D01*
X45965Y49256D01*
X45970Y49264D01*
X45975Y49273D01*
X45981Y49282D01*
X45989Y49291D01*
Y49292D01*
X45990Y49292D01*
X45993Y49295D01*
X45998Y49300D01*
X46005Y49308D01*
X46013Y49316D01*
X46024Y49326D01*
X46037Y49337D01*
X46051Y49349D01*
X46051Y49349D01*
X46053Y49351D01*
X46057Y49354D01*
X46061Y49357D01*
X46066Y49361D01*
X46072Y49366D01*
X46078Y49372D01*
X46085Y49378D01*
X46099Y49391D01*
X46113Y49405D01*
X46119Y49411D01*
X46125Y49418D01*
X46131Y49424D01*
X46135Y49430D01*
Y49431D01*
X46137Y49431D01*
X46138Y49433D01*
X46139Y49435D01*
X46143Y49441D01*
X46147Y49449D01*
X46151Y49457D01*
X46155Y49467D01*
X46157Y49477D01*
X46158Y49487D01*
Y49488D01*
Y49489D01*
X46158Y49492D01*
X46157Y49497D01*
X46155Y49504D01*
X46153Y49511D01*
X46149Y49519D01*
X46144Y49527D01*
X46138Y49535D01*
X46137Y49536D01*
X46134Y49538D01*
X46130Y49541D01*
X46124Y49545D01*
X46116Y49548D01*
X46107Y49551D01*
X46097Y49553D01*
X46085Y49554D01*
X46082D01*
X46079Y49553D01*
X46073Y49553D01*
X46065Y49551D01*
X46057Y49549D01*
X46047Y49545D01*
X46038Y49540D01*
X46030Y49533D01*
X46029Y49532D01*
X46027Y49530D01*
X46023Y49525D01*
X46020Y49518D01*
X46016Y49511D01*
X46013Y49501D01*
X46011Y49490D01*
X46009Y49477D01*
X45961Y49482D01*
Y49482D01*
X45962Y49484D01*
Y49487D01*
X45962Y49491D01*
X45963Y49495D01*
X45965Y49500D01*
X45966Y49506D01*
X45968Y49512D01*
X45972Y49526D01*
X45979Y49539D01*
X45983Y49546D01*
X45988Y49552D01*
X45993Y49558D01*
X45998Y49564D01*
X45999Y49565D01*
X46000Y49565D01*
X46002Y49567D01*
X46004Y49568D01*
X46008Y49571D01*
X46012Y49573D01*
X46016Y49576D01*
X46022Y49578D01*
X46028Y49581D01*
X46034Y49584D01*
X46042Y49586D01*
X46049Y49588D01*
X46058Y49590D01*
X46067Y49592D01*
X46076Y49592D01*
X46086Y49593D01*
X46092D01*
X46095Y49592D01*
D02*
G37*
G36*
X45729Y49253D02*
X45918D01*
Y49207D01*
X45678D01*
Y49591D01*
X45729D01*
Y49253D01*
D02*
G37*
G36*
X45476Y49591D02*
X45481D01*
X45492Y49590D01*
X45504Y49588D01*
X45518Y49587D01*
X45530Y49584D01*
X45536Y49582D01*
X45541Y49581D01*
X45542D01*
X45542Y49580D01*
X45545Y49578D01*
X45550Y49576D01*
X45557Y49572D01*
X45563Y49567D01*
X45570Y49561D01*
X45577Y49553D01*
X45584Y49544D01*
Y49543D01*
X45584Y49543D01*
X45587Y49540D01*
X45589Y49534D01*
X45592Y49527D01*
X45595Y49518D01*
X45598Y49509D01*
X45599Y49498D01*
X45600Y49486D01*
Y49486D01*
Y49485D01*
Y49482D01*
X45599Y49480D01*
Y49476D01*
X45599Y49472D01*
X45597Y49462D01*
X45593Y49451D01*
X45589Y49440D01*
X45582Y49428D01*
X45578Y49422D01*
X45573Y49417D01*
X45573Y49416D01*
X45572Y49416D01*
X45570Y49414D01*
X45568Y49412D01*
X45565Y49410D01*
X45562Y49408D01*
X45558Y49405D01*
X45553Y49402D01*
X45548Y49399D01*
X45542Y49396D01*
X45535Y49393D01*
X45528Y49390D01*
X45519Y49388D01*
X45511Y49385D01*
X45502Y49384D01*
X45492Y49382D01*
X45493Y49381D01*
X45495Y49380D01*
X45498Y49378D01*
X45503Y49376D01*
X45513Y49370D01*
X45518Y49366D01*
X45522Y49363D01*
X45523Y49361D01*
X45526Y49359D01*
X45531Y49354D01*
X45536Y49349D01*
X45542Y49341D01*
X45549Y49333D01*
X45557Y49323D01*
X45564Y49311D01*
X45630Y49207D01*
X45567D01*
X45517Y49287D01*
Y49288D01*
X45516Y49289D01*
X45514Y49290D01*
X45513Y49293D01*
X45509Y49299D01*
X45504Y49306D01*
X45498Y49315D01*
X45492Y49324D01*
X45486Y49332D01*
X45480Y49340D01*
X45479Y49340D01*
X45478Y49343D01*
X45475Y49346D01*
X45471Y49350D01*
X45463Y49358D01*
X45458Y49362D01*
X45454Y49365D01*
X45453Y49366D01*
X45452Y49366D01*
X45450Y49368D01*
X45447Y49369D01*
X45443Y49371D01*
X45439Y49373D01*
X45431Y49375D01*
X45430D01*
X45429Y49376D01*
X45427D01*
X45424Y49376D01*
X45420Y49377D01*
X45416D01*
X45410Y49378D01*
X45344D01*
Y49207D01*
X45293D01*
Y49591D01*
X45471D01*
X45476Y49591D01*
D02*
G37*
G36*
X38422Y49257D02*
X38375D01*
Y49557D01*
X38374Y49557D01*
X38371Y49555D01*
X38368Y49551D01*
X38362Y49547D01*
X38356Y49542D01*
X38349Y49537D01*
X38340Y49531D01*
X38330Y49525D01*
X38329D01*
X38329Y49524D01*
X38325Y49522D01*
X38320Y49519D01*
X38313Y49516D01*
X38305Y49512D01*
X38297Y49508D01*
X38289Y49504D01*
X38280Y49501D01*
Y49546D01*
X38281D01*
X38282Y49547D01*
X38284Y49548D01*
X38287Y49550D01*
X38290Y49551D01*
X38294Y49554D01*
X38304Y49559D01*
X38315Y49565D01*
X38326Y49573D01*
X38337Y49582D01*
X38349Y49591D01*
X38350Y49592D01*
X38350Y49592D01*
X38352Y49594D01*
X38354Y49596D01*
X38359Y49601D01*
X38366Y49608D01*
X38372Y49616D01*
X38380Y49625D01*
X38386Y49633D01*
X38391Y49643D01*
X38422D01*
Y49257D01*
D02*
G37*
G36*
X38014Y49303D02*
X38203D01*
Y49257D01*
X37963D01*
Y49641D01*
X38014D01*
Y49303D01*
D02*
G37*
G36*
X37761Y49641D02*
X37766D01*
X37777Y49640D01*
X37790Y49638D01*
X37803Y49637D01*
X37815Y49634D01*
X37821Y49632D01*
X37826Y49631D01*
X37827D01*
X37827Y49630D01*
X37831Y49628D01*
X37836Y49626D01*
X37842Y49622D01*
X37848Y49617D01*
X37856Y49611D01*
X37862Y49603D01*
X37869Y49594D01*
Y49593D01*
X37870Y49593D01*
X37872Y49590D01*
X37874Y49584D01*
X37877Y49577D01*
X37880Y49568D01*
X37883Y49559D01*
X37885Y49548D01*
X37885Y49536D01*
Y49536D01*
Y49535D01*
Y49532D01*
X37885Y49530D01*
Y49526D01*
X37884Y49522D01*
X37882Y49512D01*
X37878Y49501D01*
X37874Y49490D01*
X37867Y49478D01*
X37863Y49472D01*
X37858Y49467D01*
X37858Y49466D01*
X37857Y49466D01*
X37856Y49464D01*
X37853Y49462D01*
X37851Y49460D01*
X37847Y49458D01*
X37843Y49455D01*
X37838Y49452D01*
X37833Y49449D01*
X37827Y49446D01*
X37820Y49443D01*
X37813Y49440D01*
X37805Y49438D01*
X37796Y49435D01*
X37787Y49434D01*
X37777Y49432D01*
X37778Y49431D01*
X37780Y49430D01*
X37784Y49428D01*
X37788Y49426D01*
X37798Y49420D01*
X37803Y49416D01*
X37807Y49413D01*
X37809Y49411D01*
X37811Y49409D01*
X37816Y49404D01*
X37821Y49399D01*
X37827Y49391D01*
X37835Y49383D01*
X37842Y49373D01*
X37850Y49361D01*
X37916Y49257D01*
X37852D01*
X37802Y49337D01*
Y49338D01*
X37801Y49339D01*
X37800Y49340D01*
X37798Y49343D01*
X37794Y49349D01*
X37789Y49356D01*
X37783Y49365D01*
X37777Y49374D01*
X37771Y49382D01*
X37765Y49390D01*
X37765Y49390D01*
X37763Y49393D01*
X37760Y49396D01*
X37756Y49400D01*
X37748Y49408D01*
X37744Y49412D01*
X37739Y49415D01*
X37739Y49416D01*
X37737Y49416D01*
X37735Y49418D01*
X37732Y49419D01*
X37729Y49421D01*
X37725Y49423D01*
X37716Y49425D01*
X37715D01*
X37714Y49426D01*
X37712D01*
X37709Y49426D01*
X37705Y49427D01*
X37701D01*
X37695Y49428D01*
X37629D01*
Y49257D01*
X37578D01*
Y49641D01*
X37756D01*
X37761Y49641D01*
D02*
G37*
G36*
X72294Y41673D02*
Y41672D01*
Y41670D01*
Y41667D01*
Y41663D01*
X72294Y41658D01*
Y41653D01*
X72293Y41646D01*
X72293Y41639D01*
X72291Y41624D01*
X72289Y41609D01*
X72285Y41594D01*
X72283Y41586D01*
X72281Y41580D01*
Y41579D01*
X72280Y41578D01*
X72279Y41577D01*
X72278Y41574D01*
X72275Y41568D01*
X72270Y41560D01*
X72263Y41552D01*
X72255Y41543D01*
X72245Y41533D01*
X72233Y41525D01*
X72233D01*
X72231Y41524D01*
X72230Y41523D01*
X72227Y41522D01*
X72224Y41520D01*
X72219Y41518D01*
X72215Y41517D01*
X72209Y41514D01*
X72203Y41512D01*
X72196Y41510D01*
X72189Y41509D01*
X72181Y41507D01*
X72173Y41506D01*
X72164Y41505D01*
X72144Y41504D01*
X72139D01*
X72135Y41504D01*
X72130D01*
X72125Y41505D01*
X72119Y41505D01*
X72113Y41506D01*
X72099Y41508D01*
X72084Y41512D01*
X72069Y41516D01*
X72056Y41522D01*
X72055D01*
X72054Y41523D01*
X72052Y41524D01*
X72050Y41525D01*
X72044Y41530D01*
X72037Y41536D01*
X72028Y41544D01*
X72021Y41553D01*
X72013Y41564D01*
X72007Y41576D01*
Y41577D01*
X72006Y41578D01*
X72006Y41580D01*
X72004Y41583D01*
X72003Y41586D01*
X72002Y41590D01*
X72001Y41595D01*
X71999Y41601D01*
X71998Y41608D01*
X71997Y41615D01*
X71996Y41623D01*
X71994Y41631D01*
X71993Y41641D01*
X71993Y41651D01*
X71992Y41661D01*
Y41673D01*
Y41895D01*
X72043D01*
Y41673D01*
Y41672D01*
Y41670D01*
Y41668D01*
Y41664D01*
X72044Y41660D01*
Y41655D01*
X72044Y41645D01*
X72046Y41633D01*
X72047Y41620D01*
X72049Y41609D01*
X72051Y41604D01*
X72052Y41599D01*
X72053Y41598D01*
X72054Y41595D01*
X72057Y41591D01*
X72060Y41585D01*
X72064Y41580D01*
X72069Y41574D01*
X72076Y41568D01*
X72084Y41563D01*
X72085Y41562D01*
X72088Y41560D01*
X72093Y41559D01*
X72099Y41557D01*
X72107Y41554D01*
X72117Y41552D01*
X72128Y41550D01*
X72139Y41550D01*
X72145D01*
X72148Y41550D01*
X72153D01*
X72158Y41551D01*
X72170Y41553D01*
X72184Y41556D01*
X72196Y41560D01*
X72209Y41567D01*
X72214Y41570D01*
X72219Y41575D01*
X72220Y41575D01*
X72220Y41576D01*
X72221Y41578D01*
X72223Y41580D01*
X72225Y41583D01*
X72227Y41586D01*
X72229Y41592D01*
X72231Y41596D01*
X72234Y41603D01*
X72235Y41610D01*
X72238Y41618D01*
X72239Y41627D01*
X72241Y41637D01*
X72242Y41648D01*
X72243Y41660D01*
Y41673D01*
Y41895D01*
X72294D01*
Y41673D01*
D02*
G37*
G36*
X72496Y41896D02*
X72501Y41895D01*
X72506Y41895D01*
X72512Y41893D01*
X72518Y41892D01*
X72533Y41888D01*
X72547Y41883D01*
X72554Y41880D01*
X72562Y41876D01*
X72568Y41871D01*
X72574Y41865D01*
X72575Y41865D01*
X72576Y41864D01*
X72577Y41862D01*
X72579Y41860D01*
X72582Y41857D01*
X72585Y41853D01*
X72588Y41849D01*
X72591Y41844D01*
X72597Y41833D01*
X72602Y41820D01*
X72604Y41814D01*
X72606Y41806D01*
X72607Y41798D01*
X72607Y41790D01*
Y41789D01*
Y41786D01*
X72607Y41781D01*
X72606Y41775D01*
X72605Y41769D01*
X72603Y41761D01*
X72601Y41752D01*
X72597Y41744D01*
X72597Y41743D01*
X72596Y41740D01*
X72593Y41736D01*
X72590Y41730D01*
X72586Y41723D01*
X72580Y41715D01*
X72573Y41706D01*
X72566Y41697D01*
X72564Y41696D01*
X72562Y41693D01*
X72559Y41690D01*
X72556Y41687D01*
X72553Y41684D01*
X72548Y41679D01*
X72544Y41675D01*
X72538Y41670D01*
X72533Y41664D01*
X72526Y41658D01*
X72519Y41652D01*
X72511Y41645D01*
X72502Y41638D01*
X72493Y41630D01*
X72493Y41629D01*
X72492Y41628D01*
X72490Y41626D01*
X72487Y41624D01*
X72483Y41621D01*
X72480Y41618D01*
X72471Y41610D01*
X72461Y41602D01*
X72452Y41594D01*
X72445Y41586D01*
X72441Y41584D01*
X72438Y41581D01*
X72438Y41580D01*
X72436Y41579D01*
X72434Y41577D01*
X72431Y41573D01*
X72428Y41569D01*
X72425Y41565D01*
X72418Y41556D01*
X72608D01*
Y41510D01*
X72353D01*
Y41511D01*
Y41513D01*
Y41517D01*
X72354Y41521D01*
X72354Y41526D01*
X72355Y41532D01*
X72356Y41537D01*
X72359Y41543D01*
Y41544D01*
X72359Y41544D01*
X72360Y41548D01*
X72362Y41553D01*
X72366Y41559D01*
X72370Y41567D01*
X72376Y41576D01*
X72382Y41585D01*
X72390Y41594D01*
Y41595D01*
X72391Y41595D01*
X72394Y41599D01*
X72399Y41604D01*
X72406Y41611D01*
X72414Y41619D01*
X72425Y41629D01*
X72437Y41640D01*
X72451Y41652D01*
X72452Y41653D01*
X72454Y41654D01*
X72457Y41657D01*
X72461Y41660D01*
X72466Y41665D01*
X72472Y41670D01*
X72478Y41675D01*
X72486Y41681D01*
X72500Y41695D01*
X72513Y41708D01*
X72520Y41715D01*
X72526Y41721D01*
X72532Y41727D01*
X72536Y41734D01*
Y41734D01*
X72537Y41735D01*
X72538Y41736D01*
X72539Y41739D01*
X72543Y41745D01*
X72548Y41752D01*
X72552Y41761D01*
X72556Y41770D01*
X72558Y41781D01*
X72559Y41791D01*
Y41791D01*
Y41792D01*
X72558Y41795D01*
X72558Y41801D01*
X72556Y41807D01*
X72554Y41815D01*
X72550Y41822D01*
X72545Y41830D01*
X72538Y41838D01*
X72537Y41839D01*
X72534Y41841D01*
X72531Y41844D01*
X72524Y41848D01*
X72517Y41851D01*
X72508Y41855D01*
X72497Y41857D01*
X72486Y41857D01*
X72482D01*
X72480Y41857D01*
X72473Y41856D01*
X72466Y41855D01*
X72457Y41852D01*
X72448Y41848D01*
X72439Y41843D01*
X72431Y41837D01*
X72430Y41836D01*
X72427Y41833D01*
X72424Y41828D01*
X72421Y41822D01*
X72417Y41814D01*
X72414Y41804D01*
X72411Y41793D01*
X72410Y41780D01*
X72362Y41785D01*
Y41786D01*
X72362Y41787D01*
Y41790D01*
X72363Y41794D01*
X72364Y41799D01*
X72365Y41804D01*
X72367Y41810D01*
X72369Y41816D01*
X72373Y41829D01*
X72380Y41842D01*
X72384Y41849D01*
X72389Y41856D01*
X72394Y41862D01*
X72399Y41867D01*
X72400Y41868D01*
X72401Y41868D01*
X72402Y41870D01*
X72405Y41872D01*
X72408Y41874D01*
X72412Y41876D01*
X72417Y41879D01*
X72422Y41882D01*
X72428Y41885D01*
X72435Y41887D01*
X72442Y41890D01*
X72450Y41892D01*
X72458Y41893D01*
X72467Y41895D01*
X72477Y41896D01*
X72487Y41896D01*
X72492D01*
X72496Y41896D01*
D02*
G37*
G36*
X68774Y43398D02*
X68779Y43398D01*
X68785Y43397D01*
X68791Y43396D01*
X68798Y43395D01*
X68813Y43391D01*
X68830Y43386D01*
X68838Y43383D01*
X68846Y43379D01*
X68854Y43374D01*
X68861Y43369D01*
X68862Y43369D01*
X68863Y43368D01*
X68865Y43366D01*
X68868Y43364D01*
X68871Y43361D01*
X68875Y43357D01*
X68879Y43353D01*
X68883Y43348D01*
X68888Y43343D01*
X68892Y43336D01*
X68897Y43329D01*
X68901Y43322D01*
X68905Y43314D01*
X68910Y43305D01*
X68913Y43297D01*
X68916Y43287D01*
X68866Y43275D01*
Y43275D01*
X68866Y43277D01*
X68865Y43279D01*
X68864Y43282D01*
X68863Y43285D01*
X68861Y43289D01*
X68856Y43298D01*
X68851Y43308D01*
X68844Y43318D01*
X68836Y43328D01*
X68827Y43336D01*
X68826Y43337D01*
X68823Y43339D01*
X68817Y43342D01*
X68810Y43346D01*
X68800Y43349D01*
X68790Y43353D01*
X68777Y43355D01*
X68763Y43355D01*
X68759D01*
X68756Y43355D01*
X68752D01*
X68748Y43354D01*
X68737Y43353D01*
X68725Y43350D01*
X68713Y43347D01*
X68700Y43341D01*
X68689Y43334D01*
X68688D01*
X68688Y43333D01*
X68684Y43330D01*
X68679Y43325D01*
X68673Y43319D01*
X68666Y43310D01*
X68659Y43301D01*
X68653Y43289D01*
X68647Y43277D01*
Y43276D01*
X68647Y43275D01*
X68646Y43273D01*
X68646Y43270D01*
X68644Y43267D01*
X68643Y43263D01*
X68642Y43254D01*
X68639Y43243D01*
X68637Y43231D01*
X68636Y43217D01*
X68636Y43203D01*
Y43202D01*
Y43201D01*
Y43198D01*
Y43194D01*
X68636Y43191D01*
Y43186D01*
X68637Y43180D01*
X68637Y43174D01*
X68639Y43161D01*
X68642Y43146D01*
X68645Y43132D01*
X68649Y43117D01*
Y43117D01*
X68650Y43116D01*
X68651Y43114D01*
X68652Y43111D01*
X68656Y43105D01*
X68661Y43097D01*
X68667Y43088D01*
X68674Y43078D01*
X68683Y43070D01*
X68694Y43062D01*
X68694D01*
X68695Y43062D01*
X68697Y43061D01*
X68699Y43060D01*
X68702Y43058D01*
X68705Y43057D01*
X68713Y43053D01*
X68723Y43050D01*
X68734Y43047D01*
X68747Y43045D01*
X68759Y43045D01*
X68763D01*
X68767Y43045D01*
X68770D01*
X68774Y43046D01*
X68784Y43048D01*
X68796Y43051D01*
X68808Y43055D01*
X68820Y43061D01*
X68826Y43065D01*
X68831Y43069D01*
X68832Y43070D01*
X68833Y43070D01*
X68834Y43072D01*
X68836Y43073D01*
X68839Y43076D01*
X68841Y43080D01*
X68845Y43083D01*
X68848Y43087D01*
X68851Y43092D01*
X68855Y43098D01*
X68858Y43103D01*
X68861Y43110D01*
X68864Y43117D01*
X68867Y43125D01*
X68870Y43133D01*
X68872Y43142D01*
X68923Y43130D01*
Y43129D01*
X68922Y43127D01*
X68921Y43123D01*
X68920Y43119D01*
X68918Y43114D01*
X68916Y43108D01*
X68913Y43101D01*
X68910Y43094D01*
X68902Y43078D01*
X68892Y43063D01*
X68886Y43055D01*
X68880Y43047D01*
X68873Y43041D01*
X68865Y43034D01*
X68865Y43033D01*
X68864Y43032D01*
X68861Y43031D01*
X68858Y43029D01*
X68854Y43026D01*
X68849Y43024D01*
X68843Y43021D01*
X68837Y43018D01*
X68830Y43015D01*
X68822Y43012D01*
X68814Y43009D01*
X68805Y43006D01*
X68795Y43004D01*
X68785Y43003D01*
X68775Y43002D01*
X68764Y43001D01*
X68758D01*
X68753Y43002D01*
X68748D01*
X68742Y43002D01*
X68735Y43004D01*
X68728Y43005D01*
X68712Y43007D01*
X68695Y43012D01*
X68678Y43018D01*
X68671Y43022D01*
X68663Y43026D01*
X68662Y43027D01*
X68661Y43027D01*
X68659Y43029D01*
X68657Y43031D01*
X68653Y43033D01*
X68649Y43037D01*
X68645Y43041D01*
X68641Y43045D01*
X68636Y43050D01*
X68631Y43055D01*
X68621Y43068D01*
X68612Y43083D01*
X68603Y43100D01*
Y43100D01*
X68602Y43102D01*
X68602Y43105D01*
X68600Y43108D01*
X68599Y43112D01*
X68597Y43118D01*
X68595Y43124D01*
X68593Y43131D01*
X68592Y43138D01*
X68589Y43146D01*
X68587Y43163D01*
X68584Y43183D01*
X68583Y43203D01*
Y43203D01*
Y43206D01*
Y43209D01*
X68584Y43213D01*
Y43218D01*
X68584Y43224D01*
X68585Y43231D01*
X68586Y43238D01*
X68589Y43254D01*
X68593Y43272D01*
X68598Y43290D01*
X68606Y43307D01*
X68607Y43308D01*
X68607Y43309D01*
X68608Y43312D01*
X68611Y43314D01*
X68613Y43318D01*
X68616Y43323D01*
X68623Y43333D01*
X68632Y43344D01*
X68643Y43355D01*
X68656Y43366D01*
X68671Y43375D01*
X68672Y43376D01*
X68673Y43376D01*
X68675Y43378D01*
X68678Y43379D01*
X68683Y43381D01*
X68687Y43383D01*
X68693Y43385D01*
X68699Y43387D01*
X68705Y43389D01*
X68713Y43391D01*
X68728Y43395D01*
X68746Y43398D01*
X68764Y43399D01*
X68770D01*
X68774Y43398D01*
D02*
G37*
G36*
X69164Y43143D02*
X69217D01*
Y43100D01*
X69164D01*
Y43008D01*
X69117D01*
Y43100D01*
X68950D01*
Y43143D01*
X69126Y43392D01*
X69164D01*
Y43143D01*
D02*
G37*
G36*
X75123Y42548D02*
X75128Y42548D01*
X75134Y42547D01*
X75140Y42546D01*
X75147Y42545D01*
X75162Y42541D01*
X75179Y42536D01*
X75187Y42533D01*
X75195Y42529D01*
X75203Y42524D01*
X75211Y42519D01*
X75211Y42519D01*
X75212Y42518D01*
X75214Y42516D01*
X75217Y42514D01*
X75220Y42511D01*
X75224Y42507D01*
X75228Y42503D01*
X75232Y42498D01*
X75237Y42493D01*
X75241Y42486D01*
X75246Y42479D01*
X75251Y42472D01*
X75254Y42464D01*
X75259Y42455D01*
X75262Y42447D01*
X75266Y42437D01*
X75216Y42425D01*
Y42425D01*
X75215Y42427D01*
X75214Y42429D01*
X75213Y42432D01*
X75212Y42435D01*
X75210Y42439D01*
X75206Y42448D01*
X75200Y42458D01*
X75193Y42468D01*
X75185Y42478D01*
X75176Y42486D01*
X75175Y42487D01*
X75172Y42489D01*
X75166Y42492D01*
X75159Y42496D01*
X75150Y42499D01*
X75139Y42503D01*
X75126Y42505D01*
X75112Y42505D01*
X75108D01*
X75105Y42505D01*
X75101D01*
X75097Y42504D01*
X75086Y42503D01*
X75075Y42500D01*
X75062Y42497D01*
X75050Y42491D01*
X75038Y42484D01*
X75037D01*
X75037Y42483D01*
X75033Y42480D01*
X75028Y42475D01*
X75022Y42469D01*
X75015Y42460D01*
X75008Y42451D01*
X75002Y42439D01*
X74996Y42427D01*
Y42426D01*
X74996Y42425D01*
X74995Y42423D01*
X74995Y42420D01*
X74994Y42417D01*
X74992Y42413D01*
X74991Y42404D01*
X74989Y42393D01*
X74986Y42381D01*
X74985Y42367D01*
X74985Y42353D01*
Y42352D01*
Y42351D01*
Y42348D01*
Y42344D01*
X74985Y42341D01*
Y42336D01*
X74986Y42330D01*
X74986Y42324D01*
X74988Y42311D01*
X74991Y42296D01*
X74994Y42282D01*
X74999Y42267D01*
Y42267D01*
X74999Y42266D01*
X75000Y42264D01*
X75001Y42261D01*
X75005Y42255D01*
X75010Y42247D01*
X75016Y42238D01*
X75024Y42228D01*
X75032Y42220D01*
X75043Y42212D01*
X75044D01*
X75045Y42212D01*
X75046Y42211D01*
X75049Y42210D01*
X75051Y42208D01*
X75055Y42207D01*
X75062Y42203D01*
X75072Y42200D01*
X75083Y42197D01*
X75096Y42195D01*
X75108Y42195D01*
X75112D01*
X75116Y42195D01*
X75120D01*
X75123Y42196D01*
X75133Y42198D01*
X75145Y42201D01*
X75157Y42205D01*
X75169Y42211D01*
X75175Y42215D01*
X75181Y42219D01*
X75181Y42220D01*
X75182Y42220D01*
X75183Y42222D01*
X75186Y42223D01*
X75188Y42226D01*
X75191Y42230D01*
X75194Y42233D01*
X75197Y42237D01*
X75200Y42242D01*
X75204Y42248D01*
X75207Y42253D01*
X75211Y42260D01*
X75213Y42267D01*
X75216Y42275D01*
X75219Y42283D01*
X75221Y42292D01*
X75272Y42280D01*
Y42279D01*
X75272Y42277D01*
X75271Y42273D01*
X75269Y42269D01*
X75267Y42264D01*
X75265Y42258D01*
X75262Y42251D01*
X75259Y42244D01*
X75251Y42228D01*
X75241Y42213D01*
X75235Y42205D01*
X75229Y42197D01*
X75222Y42191D01*
X75214Y42184D01*
X75214Y42183D01*
X75213Y42182D01*
X75210Y42181D01*
X75207Y42179D01*
X75203Y42176D01*
X75198Y42174D01*
X75192Y42171D01*
X75186Y42168D01*
X75179Y42165D01*
X75171Y42162D01*
X75163Y42159D01*
X75154Y42156D01*
X75145Y42154D01*
X75135Y42153D01*
X75124Y42152D01*
X75113Y42151D01*
X75107D01*
X75102Y42152D01*
X75097D01*
X75091Y42152D01*
X75085Y42154D01*
X75077Y42155D01*
X75061Y42157D01*
X75044Y42162D01*
X75027Y42168D01*
X75020Y42172D01*
X75012Y42176D01*
X75011Y42177D01*
X75010Y42177D01*
X75008Y42179D01*
X75006Y42181D01*
X75002Y42183D01*
X74999Y42187D01*
X74994Y42191D01*
X74990Y42195D01*
X74985Y42200D01*
X74980Y42205D01*
X74970Y42218D01*
X74961Y42233D01*
X74953Y42250D01*
Y42250D01*
X74951Y42252D01*
X74951Y42255D01*
X74949Y42258D01*
X74948Y42262D01*
X74946Y42268D01*
X74944Y42274D01*
X74943Y42281D01*
X74941Y42288D01*
X74939Y42296D01*
X74936Y42313D01*
X74934Y42333D01*
X74933Y42353D01*
Y42353D01*
Y42356D01*
Y42359D01*
X74933Y42363D01*
Y42368D01*
X74934Y42374D01*
X74934Y42381D01*
X74935Y42388D01*
X74938Y42404D01*
X74942Y42422D01*
X74948Y42440D01*
X74955Y42457D01*
X74956Y42458D01*
X74956Y42459D01*
X74958Y42462D01*
X74960Y42464D01*
X74962Y42468D01*
X74965Y42473D01*
X74972Y42483D01*
X74981Y42494D01*
X74992Y42505D01*
X75005Y42516D01*
X75020Y42525D01*
X75021Y42526D01*
X75022Y42526D01*
X75025Y42528D01*
X75027Y42529D01*
X75032Y42531D01*
X75036Y42533D01*
X75042Y42535D01*
X75048Y42537D01*
X75055Y42539D01*
X75062Y42541D01*
X75077Y42545D01*
X75095Y42548D01*
X75113Y42549D01*
X75119D01*
X75123Y42548D01*
D02*
G37*
G36*
X75448Y42543D02*
X75455Y42542D01*
X75464Y42540D01*
X75474Y42538D01*
X75484Y42534D01*
X75494Y42530D01*
X75494D01*
X75495Y42529D01*
X75498Y42528D01*
X75503Y42524D01*
X75509Y42520D01*
X75515Y42515D01*
X75522Y42509D01*
X75529Y42502D01*
X75534Y42493D01*
X75535Y42492D01*
X75536Y42489D01*
X75539Y42484D01*
X75541Y42478D01*
X75544Y42471D01*
X75546Y42463D01*
X75548Y42453D01*
X75549Y42444D01*
Y42443D01*
Y42439D01*
X75548Y42435D01*
X75547Y42429D01*
X75545Y42422D01*
X75542Y42414D01*
X75539Y42406D01*
X75535Y42398D01*
X75534Y42397D01*
X75532Y42395D01*
X75529Y42391D01*
X75525Y42387D01*
X75519Y42382D01*
X75513Y42376D01*
X75505Y42371D01*
X75495Y42366D01*
X75496D01*
X75497Y42366D01*
X75499Y42365D01*
X75501Y42364D01*
X75507Y42362D01*
X75515Y42359D01*
X75524Y42354D01*
X75532Y42349D01*
X75541Y42342D01*
X75549Y42333D01*
X75549Y42332D01*
X75551Y42329D01*
X75555Y42323D01*
X75558Y42316D01*
X75561Y42307D01*
X75565Y42297D01*
X75567Y42285D01*
X75567Y42271D01*
Y42271D01*
Y42269D01*
Y42266D01*
X75567Y42263D01*
X75566Y42258D01*
X75565Y42253D01*
X75564Y42248D01*
X75563Y42242D01*
X75559Y42228D01*
X75555Y42221D01*
X75552Y42215D01*
X75547Y42207D01*
X75542Y42200D01*
X75537Y42193D01*
X75530Y42186D01*
X75530Y42186D01*
X75529Y42185D01*
X75526Y42183D01*
X75524Y42181D01*
X75520Y42178D01*
X75516Y42175D01*
X75511Y42172D01*
X75505Y42169D01*
X75499Y42166D01*
X75491Y42162D01*
X75484Y42160D01*
X75476Y42157D01*
X75467Y42155D01*
X75458Y42153D01*
X75448Y42152D01*
X75438Y42151D01*
X75433D01*
X75429Y42152D01*
X75425Y42152D01*
X75420Y42153D01*
X75414Y42154D01*
X75408Y42155D01*
X75395Y42159D01*
X75381Y42164D01*
X75374Y42167D01*
X75367Y42171D01*
X75360Y42176D01*
X75354Y42181D01*
X75353Y42182D01*
X75352Y42183D01*
X75350Y42185D01*
X75349Y42187D01*
X75346Y42190D01*
X75343Y42193D01*
X75340Y42197D01*
X75337Y42202D01*
X75333Y42208D01*
X75330Y42213D01*
X75324Y42227D01*
X75319Y42242D01*
X75317Y42251D01*
X75316Y42260D01*
X75363Y42266D01*
Y42265D01*
X75364Y42264D01*
X75364Y42262D01*
X75365Y42259D01*
X75365Y42256D01*
X75367Y42252D01*
X75369Y42243D01*
X75373Y42233D01*
X75378Y42224D01*
X75384Y42215D01*
X75390Y42207D01*
X75392Y42207D01*
X75394Y42205D01*
X75398Y42202D01*
X75404Y42199D01*
X75410Y42196D01*
X75419Y42193D01*
X75428Y42191D01*
X75438Y42190D01*
X75441D01*
X75444Y42191D01*
X75450Y42191D01*
X75458Y42193D01*
X75466Y42196D01*
X75476Y42200D01*
X75485Y42205D01*
X75494Y42213D01*
X75495Y42214D01*
X75498Y42217D01*
X75501Y42222D01*
X75506Y42229D01*
X75510Y42237D01*
X75514Y42247D01*
X75516Y42258D01*
X75518Y42270D01*
Y42271D01*
Y42272D01*
Y42273D01*
X75517Y42276D01*
X75516Y42282D01*
X75515Y42289D01*
X75513Y42298D01*
X75509Y42307D01*
X75503Y42316D01*
X75496Y42324D01*
X75495Y42325D01*
X75492Y42327D01*
X75488Y42331D01*
X75481Y42334D01*
X75474Y42338D01*
X75464Y42342D01*
X75454Y42344D01*
X75442Y42345D01*
X75437D01*
X75433Y42344D01*
X75428Y42344D01*
X75423Y42343D01*
X75416Y42342D01*
X75409Y42340D01*
X75414Y42382D01*
X75417D01*
X75419Y42381D01*
X75426D01*
X75433Y42382D01*
X75440Y42383D01*
X75448Y42385D01*
X75458Y42388D01*
X75466Y42392D01*
X75476Y42397D01*
X75476D01*
X75477Y42397D01*
X75480Y42399D01*
X75484Y42403D01*
X75488Y42408D01*
X75493Y42415D01*
X75496Y42424D01*
X75499Y42433D01*
X75500Y42439D01*
Y42445D01*
Y42445D01*
Y42446D01*
Y42449D01*
X75499Y42454D01*
X75498Y42460D01*
X75496Y42467D01*
X75493Y42474D01*
X75489Y42481D01*
X75483Y42488D01*
X75482Y42488D01*
X75479Y42490D01*
X75475Y42493D01*
X75470Y42497D01*
X75464Y42499D01*
X75456Y42502D01*
X75447Y42504D01*
X75437Y42505D01*
X75433D01*
X75428Y42504D01*
X75421Y42503D01*
X75414Y42500D01*
X75407Y42498D01*
X75399Y42493D01*
X75392Y42488D01*
X75391Y42487D01*
X75389Y42484D01*
X75385Y42480D01*
X75382Y42475D01*
X75378Y42468D01*
X75374Y42459D01*
X75370Y42448D01*
X75368Y42436D01*
X75321Y42444D01*
Y42445D01*
X75322Y42447D01*
X75322Y42449D01*
X75323Y42452D01*
X75324Y42456D01*
X75325Y42460D01*
X75329Y42471D01*
X75334Y42483D01*
X75341Y42495D01*
X75349Y42507D01*
X75360Y42518D01*
X75360Y42518D01*
X75362Y42519D01*
X75363Y42520D01*
X75365Y42522D01*
X75368Y42524D01*
X75372Y42526D01*
X75376Y42528D01*
X75381Y42531D01*
X75392Y42535D01*
X75405Y42540D01*
X75420Y42543D01*
X75428Y42544D01*
X75441D01*
X75448Y42543D01*
D02*
G37*
G36*
X75125Y43398D02*
X75130Y43398D01*
X75136Y43397D01*
X75142Y43396D01*
X75149Y43395D01*
X75164Y43391D01*
X75181Y43386D01*
X75189Y43383D01*
X75197Y43379D01*
X75205Y43374D01*
X75213Y43369D01*
X75213Y43369D01*
X75214Y43368D01*
X75216Y43366D01*
X75219Y43364D01*
X75222Y43361D01*
X75226Y43357D01*
X75230Y43353D01*
X75234Y43348D01*
X75239Y43343D01*
X75243Y43336D01*
X75248Y43329D01*
X75252Y43322D01*
X75256Y43314D01*
X75261Y43305D01*
X75264Y43297D01*
X75267Y43287D01*
X75218Y43275D01*
Y43275D01*
X75217Y43277D01*
X75216Y43279D01*
X75215Y43282D01*
X75214Y43285D01*
X75212Y43289D01*
X75208Y43298D01*
X75202Y43308D01*
X75195Y43318D01*
X75187Y43328D01*
X75178Y43336D01*
X75177Y43337D01*
X75174Y43339D01*
X75168Y43342D01*
X75161Y43346D01*
X75151Y43349D01*
X75141Y43353D01*
X75128Y43355D01*
X75114Y43355D01*
X75110D01*
X75107Y43355D01*
X75103D01*
X75099Y43354D01*
X75088Y43353D01*
X75077Y43350D01*
X75064Y43347D01*
X75052Y43341D01*
X75040Y43334D01*
X75039D01*
X75039Y43333D01*
X75035Y43330D01*
X75030Y43325D01*
X75024Y43319D01*
X75017Y43310D01*
X75010Y43301D01*
X75004Y43289D01*
X74998Y43277D01*
Y43276D01*
X74998Y43275D01*
X74997Y43273D01*
X74997Y43270D01*
X74996Y43267D01*
X74994Y43263D01*
X74993Y43254D01*
X74991Y43243D01*
X74988Y43231D01*
X74987Y43217D01*
X74987Y43203D01*
Y43202D01*
Y43201D01*
Y43198D01*
Y43194D01*
X74987Y43191D01*
Y43186D01*
X74988Y43180D01*
X74988Y43174D01*
X74990Y43161D01*
X74993Y43146D01*
X74996Y43132D01*
X75001Y43117D01*
Y43117D01*
X75001Y43116D01*
X75002Y43114D01*
X75003Y43111D01*
X75007Y43105D01*
X75012Y43097D01*
X75018Y43088D01*
X75026Y43078D01*
X75034Y43070D01*
X75045Y43062D01*
X75045D01*
X75047Y43062D01*
X75048Y43061D01*
X75050Y43060D01*
X75053Y43058D01*
X75057Y43057D01*
X75064Y43053D01*
X75074Y43050D01*
X75085Y43047D01*
X75098Y43045D01*
X75110Y43045D01*
X75114D01*
X75118Y43045D01*
X75122D01*
X75125Y43046D01*
X75135Y43048D01*
X75147Y43051D01*
X75159Y43055D01*
X75171Y43061D01*
X75177Y43065D01*
X75183Y43069D01*
X75183Y43070D01*
X75184Y43070D01*
X75185Y43072D01*
X75188Y43073D01*
X75190Y43076D01*
X75193Y43080D01*
X75196Y43083D01*
X75199Y43087D01*
X75202Y43092D01*
X75206Y43098D01*
X75209Y43103D01*
X75213Y43110D01*
X75215Y43117D01*
X75218Y43125D01*
X75221Y43133D01*
X75223Y43142D01*
X75274Y43130D01*
Y43129D01*
X75274Y43127D01*
X75272Y43123D01*
X75271Y43119D01*
X75269Y43114D01*
X75267Y43108D01*
X75264Y43101D01*
X75261Y43094D01*
X75253Y43078D01*
X75243Y43063D01*
X75237Y43055D01*
X75231Y43047D01*
X75224Y43041D01*
X75216Y43034D01*
X75216Y43033D01*
X75215Y43032D01*
X75212Y43031D01*
X75209Y43029D01*
X75205Y43026D01*
X75200Y43024D01*
X75194Y43021D01*
X75188Y43018D01*
X75181Y43015D01*
X75173Y43012D01*
X75165Y43009D01*
X75156Y43006D01*
X75146Y43004D01*
X75136Y43003D01*
X75126Y43002D01*
X75115Y43001D01*
X75109D01*
X75104Y43002D01*
X75099D01*
X75093Y43002D01*
X75087Y43004D01*
X75079Y43005D01*
X75063Y43007D01*
X75046Y43012D01*
X75029Y43018D01*
X75022Y43022D01*
X75014Y43026D01*
X75013Y43027D01*
X75012Y43027D01*
X75010Y43029D01*
X75008Y43031D01*
X75004Y43033D01*
X75001Y43037D01*
X74996Y43041D01*
X74992Y43045D01*
X74987Y43050D01*
X74982Y43055D01*
X74972Y43068D01*
X74963Y43083D01*
X74954Y43100D01*
Y43100D01*
X74953Y43102D01*
X74953Y43105D01*
X74951Y43108D01*
X74950Y43112D01*
X74948Y43118D01*
X74946Y43124D01*
X74944Y43131D01*
X74943Y43138D01*
X74941Y43146D01*
X74938Y43163D01*
X74936Y43183D01*
X74934Y43203D01*
Y43203D01*
Y43206D01*
Y43209D01*
X74935Y43213D01*
Y43218D01*
X74936Y43224D01*
X74936Y43231D01*
X74937Y43238D01*
X74940Y43254D01*
X74944Y43272D01*
X74949Y43290D01*
X74957Y43307D01*
X74958Y43308D01*
X74958Y43309D01*
X74959Y43312D01*
X74962Y43314D01*
X74964Y43318D01*
X74967Y43323D01*
X74974Y43333D01*
X74983Y43344D01*
X74994Y43355D01*
X75007Y43366D01*
X75022Y43375D01*
X75023Y43376D01*
X75024Y43376D01*
X75027Y43378D01*
X75029Y43379D01*
X75034Y43381D01*
X75038Y43383D01*
X75044Y43385D01*
X75050Y43387D01*
X75057Y43389D01*
X75064Y43391D01*
X75079Y43395D01*
X75097Y43398D01*
X75115Y43399D01*
X75121D01*
X75125Y43398D01*
D02*
G37*
G36*
X75454Y43393D02*
X75458Y43393D01*
X75464Y43392D01*
X75470Y43391D01*
X75476Y43390D01*
X75491Y43386D01*
X75505Y43380D01*
X75512Y43377D01*
X75519Y43373D01*
X75526Y43368D01*
X75532Y43363D01*
X75533Y43362D01*
X75534Y43362D01*
X75535Y43359D01*
X75537Y43357D01*
X75540Y43354D01*
X75543Y43350D01*
X75546Y43347D01*
X75549Y43342D01*
X75554Y43331D01*
X75560Y43318D01*
X75562Y43311D01*
X75563Y43303D01*
X75564Y43295D01*
X75565Y43287D01*
Y43286D01*
Y43283D01*
X75564Y43279D01*
X75564Y43273D01*
X75563Y43266D01*
X75561Y43258D01*
X75558Y43250D01*
X75555Y43242D01*
X75554Y43241D01*
X75553Y43238D01*
X75551Y43233D01*
X75548Y43227D01*
X75543Y43221D01*
X75538Y43212D01*
X75531Y43204D01*
X75523Y43194D01*
X75522Y43193D01*
X75519Y43190D01*
X75517Y43187D01*
X75514Y43184D01*
X75511Y43181D01*
X75506Y43177D01*
X75502Y43172D01*
X75496Y43167D01*
X75491Y43162D01*
X75484Y43156D01*
X75477Y43149D01*
X75469Y43142D01*
X75460Y43135D01*
X75451Y43127D01*
X75451Y43127D01*
X75450Y43126D01*
X75447Y43124D01*
X75445Y43122D01*
X75441Y43118D01*
X75437Y43115D01*
X75428Y43108D01*
X75419Y43100D01*
X75410Y43091D01*
X75402Y43084D01*
X75399Y43081D01*
X75396Y43078D01*
X75396Y43078D01*
X75394Y43076D01*
X75392Y43074D01*
X75389Y43071D01*
X75386Y43067D01*
X75383Y43063D01*
X75376Y43053D01*
X75566D01*
Y43008D01*
X75311D01*
Y43009D01*
Y43011D01*
Y43014D01*
X75311Y43019D01*
X75312Y43024D01*
X75313Y43029D01*
X75314Y43035D01*
X75316Y43041D01*
Y43041D01*
X75317Y43042D01*
X75318Y43045D01*
X75320Y43050D01*
X75324Y43057D01*
X75328Y43065D01*
X75334Y43073D01*
X75340Y43082D01*
X75347Y43092D01*
Y43092D01*
X75349Y43093D01*
X75351Y43096D01*
X75356Y43101D01*
X75363Y43108D01*
X75372Y43117D01*
X75382Y43127D01*
X75395Y43138D01*
X75409Y43149D01*
X75410Y43150D01*
X75412Y43152D01*
X75415Y43154D01*
X75419Y43158D01*
X75424Y43162D01*
X75430Y43167D01*
X75436Y43173D01*
X75443Y43179D01*
X75457Y43192D01*
X75471Y43206D01*
X75478Y43212D01*
X75484Y43219D01*
X75489Y43225D01*
X75494Y43231D01*
Y43232D01*
X75495Y43232D01*
X75496Y43234D01*
X75497Y43236D01*
X75501Y43242D01*
X75506Y43249D01*
X75509Y43258D01*
X75513Y43268D01*
X75516Y43278D01*
X75517Y43288D01*
Y43289D01*
Y43289D01*
X75516Y43293D01*
X75516Y43298D01*
X75514Y43304D01*
X75512Y43312D01*
X75508Y43320D01*
X75503Y43328D01*
X75496Y43335D01*
X75495Y43337D01*
X75492Y43339D01*
X75488Y43342D01*
X75482Y43345D01*
X75475Y43349D01*
X75466Y43352D01*
X75455Y43354D01*
X75443Y43355D01*
X75440D01*
X75438Y43354D01*
X75431Y43354D01*
X75423Y43352D01*
X75415Y43350D01*
X75406Y43346D01*
X75397Y43341D01*
X75388Y43334D01*
X75387Y43333D01*
X75385Y43330D01*
X75382Y43326D01*
X75378Y43319D01*
X75375Y43312D01*
X75371Y43302D01*
X75369Y43290D01*
X75368Y43278D01*
X75320Y43283D01*
Y43283D01*
X75320Y43285D01*
Y43288D01*
X75321Y43292D01*
X75322Y43296D01*
X75323Y43301D01*
X75325Y43307D01*
X75326Y43313D01*
X75331Y43327D01*
X75337Y43340D01*
X75341Y43347D01*
X75346Y43353D01*
X75351Y43359D01*
X75357Y43365D01*
X75357Y43365D01*
X75359Y43366D01*
X75360Y43368D01*
X75363Y43369D01*
X75366Y43372D01*
X75370Y43374D01*
X75375Y43376D01*
X75380Y43379D01*
X75386Y43382D01*
X75393Y43385D01*
X75400Y43387D01*
X75408Y43389D01*
X75416Y43391D01*
X75425Y43393D01*
X75435Y43393D01*
X75445Y43394D01*
X75450D01*
X75454Y43393D01*
D02*
G37*
G36*
X68760Y42598D02*
X68765Y42598D01*
X68771Y42597D01*
X68777Y42596D01*
X68785Y42595D01*
X68799Y42591D01*
X68816Y42586D01*
X68824Y42583D01*
X68832Y42579D01*
X68840Y42574D01*
X68848Y42569D01*
X68848Y42569D01*
X68849Y42568D01*
X68852Y42566D01*
X68854Y42564D01*
X68857Y42561D01*
X68861Y42557D01*
X68865Y42553D01*
X68869Y42548D01*
X68874Y42543D01*
X68878Y42536D01*
X68883Y42529D01*
X68888Y42522D01*
X68892Y42514D01*
X68896Y42505D01*
X68899Y42497D01*
X68903Y42487D01*
X68853Y42475D01*
Y42475D01*
X68852Y42477D01*
X68851Y42479D01*
X68850Y42482D01*
X68849Y42485D01*
X68847Y42489D01*
X68843Y42498D01*
X68837Y42508D01*
X68831Y42518D01*
X68822Y42528D01*
X68813Y42536D01*
X68812Y42537D01*
X68809Y42539D01*
X68803Y42542D01*
X68796Y42546D01*
X68787Y42549D01*
X68776Y42553D01*
X68763Y42555D01*
X68750Y42555D01*
X68745D01*
X68742Y42555D01*
X68738D01*
X68734Y42554D01*
X68723Y42553D01*
X68712Y42550D01*
X68700Y42547D01*
X68687Y42541D01*
X68675Y42534D01*
X68675D01*
X68674Y42533D01*
X68670Y42530D01*
X68665Y42525D01*
X68659Y42519D01*
X68652Y42510D01*
X68645Y42501D01*
X68639Y42489D01*
X68634Y42477D01*
Y42476D01*
X68633Y42475D01*
X68632Y42473D01*
X68632Y42470D01*
X68631Y42467D01*
X68630Y42463D01*
X68628Y42454D01*
X68626Y42443D01*
X68624Y42431D01*
X68622Y42417D01*
X68622Y42403D01*
Y42402D01*
Y42401D01*
Y42398D01*
Y42394D01*
X68622Y42391D01*
Y42386D01*
X68623Y42380D01*
X68624Y42374D01*
X68625Y42361D01*
X68628Y42346D01*
X68631Y42332D01*
X68636Y42317D01*
Y42317D01*
X68636Y42316D01*
X68637Y42314D01*
X68639Y42311D01*
X68642Y42305D01*
X68647Y42297D01*
X68653Y42288D01*
X68661Y42278D01*
X68670Y42270D01*
X68680Y42262D01*
X68681D01*
X68682Y42262D01*
X68684Y42261D01*
X68686Y42260D01*
X68689Y42258D01*
X68692Y42257D01*
X68700Y42253D01*
X68710Y42250D01*
X68721Y42247D01*
X68733Y42245D01*
X68746Y42245D01*
X68750D01*
X68753Y42245D01*
X68757D01*
X68761Y42246D01*
X68771Y42248D01*
X68782Y42251D01*
X68794Y42255D01*
X68806Y42261D01*
X68812Y42265D01*
X68818Y42269D01*
X68818Y42270D01*
X68819Y42270D01*
X68821Y42272D01*
X68823Y42273D01*
X68825Y42276D01*
X68828Y42280D01*
X68831Y42283D01*
X68834Y42287D01*
X68837Y42292D01*
X68841Y42298D01*
X68844Y42303D01*
X68848Y42310D01*
X68851Y42317D01*
X68853Y42325D01*
X68856Y42333D01*
X68858Y42342D01*
X68909Y42330D01*
Y42329D01*
X68909Y42327D01*
X68908Y42323D01*
X68906Y42319D01*
X68904Y42314D01*
X68902Y42308D01*
X68899Y42301D01*
X68896Y42294D01*
X68888Y42278D01*
X68878Y42263D01*
X68872Y42255D01*
X68866Y42247D01*
X68859Y42241D01*
X68852Y42234D01*
X68851Y42234D01*
X68850Y42232D01*
X68847Y42231D01*
X68844Y42229D01*
X68840Y42226D01*
X68836Y42224D01*
X68829Y42221D01*
X68823Y42218D01*
X68816Y42215D01*
X68808Y42212D01*
X68800Y42209D01*
X68791Y42206D01*
X68782Y42204D01*
X68772Y42203D01*
X68761Y42202D01*
X68750Y42201D01*
X68744D01*
X68740Y42202D01*
X68735D01*
X68728Y42202D01*
X68722Y42204D01*
X68714Y42205D01*
X68698Y42207D01*
X68681Y42212D01*
X68665Y42218D01*
X68657Y42222D01*
X68649Y42226D01*
X68649Y42227D01*
X68647Y42227D01*
X68645Y42229D01*
X68643Y42231D01*
X68640Y42234D01*
X68636Y42237D01*
X68631Y42241D01*
X68627Y42245D01*
X68622Y42250D01*
X68617Y42255D01*
X68607Y42268D01*
X68598Y42283D01*
X68590Y42300D01*
Y42300D01*
X68589Y42302D01*
X68588Y42305D01*
X68586Y42308D01*
X68585Y42312D01*
X68584Y42318D01*
X68581Y42324D01*
X68580Y42331D01*
X68578Y42338D01*
X68576Y42346D01*
X68573Y42363D01*
X68571Y42383D01*
X68570Y42403D01*
Y42403D01*
Y42406D01*
Y42409D01*
X68570Y42413D01*
Y42418D01*
X68571Y42424D01*
X68571Y42431D01*
X68573Y42438D01*
X68575Y42454D01*
X68579Y42472D01*
X68585Y42490D01*
X68592Y42507D01*
X68593Y42508D01*
X68594Y42509D01*
X68595Y42512D01*
X68597Y42514D01*
X68599Y42518D01*
X68602Y42523D01*
X68609Y42533D01*
X68619Y42544D01*
X68630Y42555D01*
X68642Y42566D01*
X68657Y42575D01*
X68658Y42576D01*
X68660Y42576D01*
X68662Y42578D01*
X68665Y42579D01*
X68669Y42581D01*
X68674Y42583D01*
X68679Y42585D01*
X68685Y42587D01*
X68692Y42589D01*
X68699Y42591D01*
X68715Y42595D01*
X68732Y42598D01*
X68751Y42599D01*
X68756D01*
X68760Y42598D01*
D02*
G37*
G36*
X69130Y42208D02*
X69083D01*
Y42508D01*
X69083Y42508D01*
X69080Y42505D01*
X69076Y42502D01*
X69071Y42498D01*
X69065Y42493D01*
X69057Y42488D01*
X69048Y42482D01*
X69038Y42475D01*
X69038D01*
X69037Y42475D01*
X69034Y42473D01*
X69028Y42470D01*
X69022Y42467D01*
X69014Y42463D01*
X69005Y42459D01*
X68997Y42455D01*
X68989Y42452D01*
Y42497D01*
X68989D01*
X68990Y42498D01*
X68993Y42499D01*
X68995Y42500D01*
X68999Y42502D01*
X69003Y42504D01*
X69012Y42510D01*
X69023Y42516D01*
X69034Y42524D01*
X69046Y42533D01*
X69058Y42542D01*
X69058Y42543D01*
X69059Y42543D01*
X69060Y42545D01*
X69063Y42547D01*
X69068Y42552D01*
X69074Y42559D01*
X69081Y42566D01*
X69088Y42575D01*
X69094Y42584D01*
X69100Y42594D01*
X69130D01*
Y42208D01*
D02*
G37*
G36*
X64464Y50093D02*
X64516D01*
Y50050D01*
X64464D01*
Y49958D01*
X64416D01*
Y50050D01*
X64249D01*
Y50093D01*
X64425Y50342D01*
X64464D01*
Y50093D01*
D02*
G37*
G36*
X64035Y50003D02*
X64224D01*
Y49958D01*
X63984D01*
Y50342D01*
X64035D01*
Y50003D01*
D02*
G37*
G36*
X56147Y50446D02*
X56154Y50445D01*
X56163Y50443D01*
X56173Y50440D01*
X56183Y50437D01*
X56193Y50432D01*
X56193D01*
X56194Y50432D01*
X56197Y50430D01*
X56202Y50427D01*
X56208Y50423D01*
X56215Y50417D01*
X56221Y50411D01*
X56228Y50404D01*
X56233Y50396D01*
X56234Y50395D01*
X56236Y50392D01*
X56238Y50387D01*
X56241Y50381D01*
X56243Y50373D01*
X56246Y50365D01*
X56247Y50356D01*
X56248Y50346D01*
Y50345D01*
Y50342D01*
X56247Y50337D01*
X56246Y50331D01*
X56244Y50324D01*
X56242Y50316D01*
X56238Y50309D01*
X56234Y50301D01*
X56233Y50300D01*
X56232Y50297D01*
X56228Y50294D01*
X56224Y50289D01*
X56218Y50284D01*
X56212Y50279D01*
X56204Y50274D01*
X56195Y50269D01*
X56195D01*
X56196Y50268D01*
X56198Y50267D01*
X56200Y50267D01*
X56206Y50265D01*
X56214Y50261D01*
X56223Y50257D01*
X56232Y50251D01*
X56240Y50244D01*
X56248Y50236D01*
X56248Y50235D01*
X56251Y50231D01*
X56254Y50226D01*
X56257Y50219D01*
X56261Y50210D01*
X56264Y50199D01*
X56266Y50187D01*
X56267Y50174D01*
Y50173D01*
Y50171D01*
Y50169D01*
X56266Y50165D01*
X56266Y50161D01*
X56264Y50156D01*
X56263Y50150D01*
X56262Y50144D01*
X56258Y50131D01*
X56254Y50124D01*
X56251Y50117D01*
X56247Y50110D01*
X56242Y50103D01*
X56236Y50095D01*
X56229Y50089D01*
X56229Y50088D01*
X56228Y50087D01*
X56226Y50085D01*
X56223Y50083D01*
X56220Y50080D01*
X56215Y50078D01*
X56210Y50074D01*
X56204Y50072D01*
X56198Y50068D01*
X56191Y50065D01*
X56183Y50062D01*
X56175Y50059D01*
X56166Y50057D01*
X56157Y50055D01*
X56147Y50054D01*
X56137Y50054D01*
X56132D01*
X56128Y50054D01*
X56124Y50055D01*
X56119Y50055D01*
X56114Y50057D01*
X56107Y50058D01*
X56094Y50061D01*
X56080Y50067D01*
X56073Y50070D01*
X56066Y50074D01*
X56060Y50079D01*
X56053Y50084D01*
X56052Y50084D01*
X56051Y50085D01*
X56050Y50087D01*
X56048Y50089D01*
X56045Y50092D01*
X56042Y50096D01*
X56039Y50100D01*
X56036Y50105D01*
X56032Y50110D01*
X56029Y50116D01*
X56023Y50129D01*
X56018Y50145D01*
X56016Y50153D01*
X56015Y50162D01*
X56062Y50168D01*
Y50168D01*
X56063Y50166D01*
X56064Y50164D01*
X56064Y50161D01*
X56065Y50158D01*
X56066Y50154D01*
X56069Y50146D01*
X56072Y50136D01*
X56077Y50127D01*
X56083Y50118D01*
X56090Y50110D01*
X56091Y50109D01*
X56093Y50107D01*
X56097Y50104D01*
X56103Y50102D01*
X56110Y50098D01*
X56118Y50095D01*
X56127Y50093D01*
X56137Y50093D01*
X56141D01*
X56143Y50093D01*
X56149Y50094D01*
X56157Y50095D01*
X56166Y50098D01*
X56175Y50102D01*
X56185Y50108D01*
X56193Y50115D01*
X56195Y50117D01*
X56197Y50120D01*
X56201Y50125D01*
X56205Y50132D01*
X56210Y50140D01*
X56213Y50149D01*
X56216Y50160D01*
X56217Y50173D01*
Y50173D01*
Y50174D01*
Y50176D01*
X56216Y50178D01*
X56216Y50184D01*
X56214Y50191D01*
X56212Y50200D01*
X56208Y50209D01*
X56202Y50218D01*
X56195Y50226D01*
X56194Y50228D01*
X56191Y50230D01*
X56187Y50233D01*
X56181Y50237D01*
X56173Y50241D01*
X56163Y50244D01*
X56153Y50246D01*
X56141Y50248D01*
X56136D01*
X56132Y50247D01*
X56127Y50246D01*
X56122Y50245D01*
X56115Y50244D01*
X56108Y50243D01*
X56114Y50284D01*
X56116D01*
X56118Y50284D01*
X56126D01*
X56132Y50285D01*
X56139Y50286D01*
X56147Y50287D01*
X56157Y50290D01*
X56166Y50294D01*
X56175Y50299D01*
X56176D01*
X56176Y50300D01*
X56179Y50302D01*
X56183Y50306D01*
X56187Y50311D01*
X56192Y50318D01*
X56196Y50326D01*
X56198Y50336D01*
X56200Y50341D01*
Y50347D01*
Y50348D01*
Y50349D01*
Y50352D01*
X56198Y50356D01*
X56197Y50362D01*
X56195Y50369D01*
X56192Y50376D01*
X56188Y50383D01*
X56182Y50390D01*
X56181Y50391D01*
X56178Y50393D01*
X56175Y50396D01*
X56170Y50399D01*
X56163Y50402D01*
X56155Y50405D01*
X56146Y50407D01*
X56136Y50407D01*
X56132D01*
X56127Y50406D01*
X56120Y50405D01*
X56113Y50403D01*
X56106Y50400D01*
X56098Y50396D01*
X56091Y50390D01*
X56090Y50390D01*
X56088Y50387D01*
X56085Y50383D01*
X56081Y50377D01*
X56077Y50370D01*
X56073Y50361D01*
X56070Y50351D01*
X56067Y50339D01*
X56020Y50347D01*
Y50347D01*
X56021Y50349D01*
X56021Y50351D01*
X56022Y50355D01*
X56023Y50359D01*
X56025Y50363D01*
X56028Y50373D01*
X56034Y50386D01*
X56040Y50398D01*
X56049Y50410D01*
X56059Y50420D01*
X56060Y50421D01*
X56061Y50421D01*
X56062Y50422D01*
X56065Y50424D01*
X56067Y50426D01*
X56071Y50428D01*
X56075Y50431D01*
X56080Y50433D01*
X56091Y50438D01*
X56104Y50442D01*
X56119Y50445D01*
X56127Y50446D01*
X56141D01*
X56147Y50446D01*
D02*
G37*
G36*
X55784Y50106D02*
X55974D01*
Y50060D01*
X55733D01*
Y50445D01*
X55784D01*
Y50106D01*
D02*
G37*
G36*
X47503Y50392D02*
X47508Y50392D01*
X47513Y50391D01*
X47519Y50390D01*
X47525Y50389D01*
X47540Y50385D01*
X47554Y50380D01*
X47561Y50376D01*
X47569Y50372D01*
X47575Y50367D01*
X47581Y50362D01*
X47582Y50361D01*
X47583Y50361D01*
X47584Y50358D01*
X47586Y50356D01*
X47589Y50353D01*
X47592Y50350D01*
X47595Y50346D01*
X47598Y50341D01*
X47604Y50330D01*
X47609Y50317D01*
X47611Y50310D01*
X47613Y50302D01*
X47614Y50295D01*
X47614Y50286D01*
Y50285D01*
Y50282D01*
X47614Y50278D01*
X47613Y50272D01*
X47612Y50265D01*
X47610Y50257D01*
X47608Y50249D01*
X47604Y50241D01*
X47604Y50240D01*
X47603Y50237D01*
X47600Y50232D01*
X47597Y50226D01*
X47593Y50220D01*
X47587Y50211D01*
X47580Y50203D01*
X47573Y50194D01*
X47571Y50193D01*
X47569Y50189D01*
X47566Y50186D01*
X47563Y50184D01*
X47560Y50180D01*
X47555Y50176D01*
X47551Y50171D01*
X47545Y50166D01*
X47540Y50161D01*
X47533Y50155D01*
X47526Y50149D01*
X47518Y50141D01*
X47509Y50134D01*
X47500Y50126D01*
X47500Y50126D01*
X47499Y50125D01*
X47497Y50123D01*
X47494Y50121D01*
X47490Y50118D01*
X47487Y50114D01*
X47478Y50107D01*
X47468Y50099D01*
X47459Y50090D01*
X47452Y50083D01*
X47448Y50080D01*
X47445Y50078D01*
X47445Y50077D01*
X47443Y50075D01*
X47441Y50073D01*
X47438Y50070D01*
X47435Y50066D01*
X47432Y50062D01*
X47425Y50053D01*
X47615D01*
Y50007D01*
X47360D01*
Y50008D01*
Y50010D01*
Y50013D01*
X47361Y50018D01*
X47361Y50023D01*
X47362Y50028D01*
X47363Y50034D01*
X47366Y50040D01*
Y50040D01*
X47366Y50041D01*
X47367Y50044D01*
X47369Y50049D01*
X47373Y50056D01*
X47377Y50064D01*
X47383Y50073D01*
X47389Y50082D01*
X47397Y50091D01*
Y50092D01*
X47398Y50092D01*
X47401Y50095D01*
X47406Y50100D01*
X47413Y50108D01*
X47421Y50116D01*
X47432Y50126D01*
X47444Y50137D01*
X47458Y50149D01*
X47459Y50149D01*
X47461Y50151D01*
X47464Y50154D01*
X47468Y50157D01*
X47473Y50161D01*
X47479Y50166D01*
X47485Y50172D01*
X47493Y50178D01*
X47507Y50191D01*
X47520Y50205D01*
X47527Y50211D01*
X47533Y50218D01*
X47539Y50224D01*
X47543Y50230D01*
Y50231D01*
X47544Y50231D01*
X47545Y50233D01*
X47546Y50235D01*
X47550Y50241D01*
X47555Y50249D01*
X47559Y50257D01*
X47563Y50267D01*
X47565Y50277D01*
X47566Y50287D01*
Y50288D01*
Y50289D01*
X47565Y50292D01*
X47565Y50297D01*
X47563Y50304D01*
X47561Y50311D01*
X47557Y50319D01*
X47552Y50327D01*
X47545Y50335D01*
X47544Y50336D01*
X47541Y50338D01*
X47538Y50341D01*
X47531Y50345D01*
X47524Y50348D01*
X47515Y50351D01*
X47504Y50353D01*
X47493Y50354D01*
X47489D01*
X47487Y50353D01*
X47480Y50353D01*
X47473Y50351D01*
X47464Y50349D01*
X47455Y50345D01*
X47446Y50340D01*
X47438Y50333D01*
X47437Y50332D01*
X47434Y50330D01*
X47431Y50325D01*
X47428Y50318D01*
X47424Y50311D01*
X47420Y50301D01*
X47418Y50290D01*
X47417Y50277D01*
X47369Y50282D01*
Y50282D01*
X47369Y50284D01*
Y50287D01*
X47370Y50291D01*
X47371Y50295D01*
X47372Y50300D01*
X47374Y50306D01*
X47376Y50312D01*
X47380Y50326D01*
X47387Y50339D01*
X47391Y50346D01*
X47396Y50352D01*
X47401Y50358D01*
X47406Y50364D01*
X47407Y50365D01*
X47408Y50365D01*
X47409Y50367D01*
X47412Y50368D01*
X47415Y50371D01*
X47419Y50373D01*
X47424Y50376D01*
X47429Y50378D01*
X47435Y50381D01*
X47442Y50384D01*
X47449Y50386D01*
X47457Y50388D01*
X47465Y50390D01*
X47474Y50392D01*
X47484Y50392D01*
X47494Y50393D01*
X47499D01*
X47503Y50392D01*
D02*
G37*
G36*
X47136Y50053D02*
X47326D01*
Y50007D01*
X47085D01*
Y50391D01*
X47136D01*
Y50053D01*
D02*
G37*
G36*
X39679Y50007D02*
X39632D01*
Y50307D01*
X39632Y50307D01*
X39629Y50305D01*
X39626Y50301D01*
X39620Y50297D01*
X39614Y50292D01*
X39606Y50287D01*
X39597Y50281D01*
X39587Y50275D01*
X39587D01*
X39586Y50274D01*
X39583Y50272D01*
X39577Y50269D01*
X39571Y50266D01*
X39563Y50262D01*
X39555Y50258D01*
X39546Y50254D01*
X39538Y50251D01*
Y50296D01*
X39539D01*
X39540Y50297D01*
X39542Y50298D01*
X39545Y50300D01*
X39548Y50301D01*
X39552Y50304D01*
X39561Y50309D01*
X39572Y50315D01*
X39583Y50323D01*
X39595Y50332D01*
X39607Y50341D01*
X39607Y50342D01*
X39608Y50342D01*
X39610Y50344D01*
X39612Y50346D01*
X39617Y50351D01*
X39623Y50358D01*
X39630Y50366D01*
X39637Y50375D01*
X39643Y50383D01*
X39649Y50393D01*
X39679D01*
Y50007D01*
D02*
G37*
G36*
X39272Y50053D02*
X39461D01*
Y50007D01*
X39221D01*
Y50391D01*
X39272D01*
Y50053D01*
D02*
G37*
G36*
X58457Y50493D02*
X58509D01*
Y50450D01*
X58457D01*
Y50358D01*
X58410D01*
Y50450D01*
X58243D01*
Y50493D01*
X58419Y50742D01*
X58457D01*
Y50493D01*
D02*
G37*
G36*
X58048Y50741D02*
X58060Y50741D01*
X58071Y50740D01*
X58082Y50738D01*
X58091Y50736D01*
X58092D01*
X58093Y50736D01*
X58095D01*
X58097Y50735D01*
X58103Y50733D01*
X58111Y50730D01*
X58120Y50726D01*
X58129Y50722D01*
X58138Y50716D01*
X58147Y50709D01*
X58148Y50708D01*
X58148Y50708D01*
X58150Y50706D01*
X58152Y50704D01*
X58158Y50699D01*
X58164Y50691D01*
X58172Y50682D01*
X58179Y50670D01*
X58187Y50658D01*
X58193Y50643D01*
Y50643D01*
X58193Y50642D01*
X58194Y50639D01*
X58195Y50636D01*
X58197Y50632D01*
X58198Y50628D01*
X58199Y50623D01*
X58201Y50617D01*
X58202Y50610D01*
X58203Y50603D01*
X58206Y50588D01*
X58208Y50571D01*
X58208Y50552D01*
Y50551D01*
Y50550D01*
Y50547D01*
Y50544D01*
X58208Y50541D01*
Y50536D01*
X58207Y50526D01*
X58206Y50513D01*
X58204Y50501D01*
X58201Y50487D01*
X58198Y50474D01*
Y50473D01*
X58197Y50472D01*
X58197Y50471D01*
X58196Y50468D01*
X58194Y50462D01*
X58191Y50455D01*
X58187Y50446D01*
X58183Y50437D01*
X58177Y50427D01*
X58172Y50418D01*
X58171Y50417D01*
X58169Y50415D01*
X58166Y50411D01*
X58161Y50406D01*
X58156Y50400D01*
X58150Y50395D01*
X58144Y50388D01*
X58137Y50384D01*
X58136Y50383D01*
X58133Y50381D01*
X58130Y50379D01*
X58124Y50376D01*
X58117Y50373D01*
X58110Y50370D01*
X58101Y50367D01*
X58091Y50364D01*
X58090D01*
X58088Y50364D01*
X58086Y50363D01*
X58081Y50362D01*
X58073Y50361D01*
X58064Y50360D01*
X58053Y50359D01*
X58042Y50359D01*
X58029Y50358D01*
X57891D01*
Y50742D01*
X58039D01*
X58048Y50741D01*
D02*
G37*
G36*
X50290Y50596D02*
X50297Y50595D01*
X50306Y50593D01*
X50316Y50590D01*
X50326Y50587D01*
X50336Y50582D01*
X50337D01*
X50337Y50582D01*
X50341Y50580D01*
X50346Y50577D01*
X50351Y50573D01*
X50358Y50567D01*
X50364Y50561D01*
X50371Y50554D01*
X50377Y50546D01*
X50377Y50545D01*
X50379Y50542D01*
X50381Y50537D01*
X50384Y50531D01*
X50387Y50523D01*
X50389Y50515D01*
X50391Y50506D01*
X50391Y50496D01*
Y50495D01*
Y50492D01*
X50391Y50487D01*
X50389Y50481D01*
X50388Y50474D01*
X50385Y50466D01*
X50382Y50459D01*
X50377Y50451D01*
X50377Y50450D01*
X50375Y50447D01*
X50372Y50444D01*
X50367Y50439D01*
X50362Y50434D01*
X50355Y50429D01*
X50347Y50424D01*
X50338Y50419D01*
X50338D01*
X50339Y50418D01*
X50341Y50417D01*
X50343Y50417D01*
X50349Y50415D01*
X50357Y50411D01*
X50366Y50407D01*
X50375Y50401D01*
X50383Y50394D01*
X50391Y50386D01*
X50392Y50385D01*
X50394Y50381D01*
X50397Y50376D01*
X50401Y50369D01*
X50404Y50360D01*
X50407Y50349D01*
X50409Y50337D01*
X50410Y50324D01*
Y50323D01*
Y50321D01*
Y50319D01*
X50409Y50315D01*
X50409Y50311D01*
X50408Y50306D01*
X50407Y50300D01*
X50406Y50294D01*
X50401Y50281D01*
X50398Y50274D01*
X50394Y50267D01*
X50390Y50260D01*
X50385Y50253D01*
X50379Y50245D01*
X50373Y50239D01*
X50372Y50238D01*
X50371Y50237D01*
X50369Y50235D01*
X50366Y50233D01*
X50363Y50230D01*
X50358Y50228D01*
X50353Y50224D01*
X50347Y50222D01*
X50341Y50218D01*
X50334Y50215D01*
X50327Y50212D01*
X50318Y50209D01*
X50310Y50207D01*
X50300Y50205D01*
X50291Y50204D01*
X50280Y50204D01*
X50275D01*
X50272Y50204D01*
X50267Y50205D01*
X50262Y50205D01*
X50257Y50207D01*
X50251Y50208D01*
X50237Y50211D01*
X50223Y50217D01*
X50216Y50220D01*
X50210Y50224D01*
X50203Y50229D01*
X50196Y50234D01*
X50196Y50234D01*
X50195Y50235D01*
X50193Y50237D01*
X50191Y50239D01*
X50189Y50242D01*
X50186Y50246D01*
X50182Y50250D01*
X50179Y50255D01*
X50176Y50260D01*
X50172Y50266D01*
X50166Y50279D01*
X50161Y50295D01*
X50160Y50303D01*
X50159Y50312D01*
X50206Y50318D01*
Y50318D01*
X50206Y50316D01*
X50207Y50314D01*
X50207Y50311D01*
X50208Y50308D01*
X50209Y50304D01*
X50212Y50296D01*
X50216Y50286D01*
X50221Y50277D01*
X50226Y50268D01*
X50233Y50260D01*
X50234Y50259D01*
X50236Y50257D01*
X50241Y50254D01*
X50246Y50252D01*
X50253Y50248D01*
X50261Y50245D01*
X50271Y50243D01*
X50281Y50243D01*
X50284D01*
X50286Y50243D01*
X50292Y50244D01*
X50300Y50245D01*
X50309Y50248D01*
X50318Y50252D01*
X50328Y50258D01*
X50337Y50265D01*
X50338Y50267D01*
X50341Y50270D01*
X50344Y50275D01*
X50348Y50282D01*
X50353Y50290D01*
X50356Y50299D01*
X50359Y50310D01*
X50360Y50323D01*
Y50323D01*
Y50324D01*
Y50326D01*
X50359Y50328D01*
X50359Y50334D01*
X50357Y50341D01*
X50355Y50350D01*
X50351Y50359D01*
X50346Y50368D01*
X50338Y50376D01*
X50337Y50378D01*
X50334Y50380D01*
X50330Y50383D01*
X50324Y50387D01*
X50316Y50391D01*
X50307Y50394D01*
X50296Y50396D01*
X50285Y50398D01*
X50280D01*
X50276Y50397D01*
X50271Y50396D01*
X50265Y50395D01*
X50258Y50394D01*
X50251Y50393D01*
X50257Y50434D01*
X50260D01*
X50262Y50434D01*
X50269D01*
X50275Y50435D01*
X50282Y50436D01*
X50291Y50437D01*
X50300Y50440D01*
X50309Y50444D01*
X50318Y50449D01*
X50319D01*
X50319Y50450D01*
X50322Y50452D01*
X50326Y50456D01*
X50331Y50461D01*
X50335Y50468D01*
X50339Y50476D01*
X50342Y50486D01*
X50343Y50491D01*
Y50497D01*
Y50498D01*
Y50499D01*
Y50502D01*
X50342Y50506D01*
X50341Y50512D01*
X50338Y50519D01*
X50336Y50526D01*
X50331Y50533D01*
X50325Y50540D01*
X50325Y50541D01*
X50322Y50543D01*
X50318Y50546D01*
X50313Y50549D01*
X50306Y50552D01*
X50298Y50555D01*
X50290Y50557D01*
X50280Y50557D01*
X50275D01*
X50270Y50556D01*
X50263Y50555D01*
X50256Y50553D01*
X50249Y50550D01*
X50241Y50546D01*
X50234Y50540D01*
X50233Y50540D01*
X50231Y50537D01*
X50228Y50533D01*
X50224Y50527D01*
X50220Y50520D01*
X50216Y50511D01*
X50213Y50501D01*
X50211Y50489D01*
X50164Y50497D01*
Y50497D01*
X50164Y50499D01*
X50165Y50501D01*
X50165Y50505D01*
X50166Y50508D01*
X50168Y50513D01*
X50171Y50523D01*
X50177Y50536D01*
X50184Y50548D01*
X50192Y50560D01*
X50202Y50570D01*
X50203Y50571D01*
X50204Y50571D01*
X50206Y50572D01*
X50208Y50574D01*
X50211Y50576D01*
X50215Y50578D01*
X50218Y50581D01*
X50223Y50583D01*
X50235Y50588D01*
X50247Y50592D01*
X50262Y50595D01*
X50270Y50596D01*
X50284D01*
X50290Y50596D01*
D02*
G37*
G36*
X49948Y50594D02*
X49959Y50593D01*
X49970Y50592D01*
X49981Y50591D01*
X49990Y50589D01*
X49991D01*
X49992Y50588D01*
X49994D01*
X49996Y50587D01*
X50002Y50586D01*
X50010Y50583D01*
X50019Y50579D01*
X50028Y50574D01*
X50038Y50568D01*
X50046Y50561D01*
X50047Y50561D01*
X50048Y50560D01*
X50049Y50558D01*
X50051Y50557D01*
X50057Y50551D01*
X50064Y50543D01*
X50071Y50534D01*
X50079Y50523D01*
X50086Y50510D01*
X50092Y50496D01*
Y50495D01*
X50093Y50494D01*
X50094Y50492D01*
X50094Y50489D01*
X50096Y50485D01*
X50097Y50480D01*
X50098Y50475D01*
X50100Y50469D01*
X50101Y50463D01*
X50103Y50456D01*
X50105Y50440D01*
X50107Y50423D01*
X50107Y50404D01*
Y50404D01*
Y50402D01*
Y50400D01*
Y50397D01*
X50107Y50393D01*
Y50389D01*
X50106Y50378D01*
X50105Y50366D01*
X50103Y50353D01*
X50100Y50340D01*
X50097Y50326D01*
Y50326D01*
X50096Y50325D01*
X50096Y50323D01*
X50095Y50321D01*
X50093Y50315D01*
X50090Y50307D01*
X50086Y50298D01*
X50082Y50289D01*
X50076Y50280D01*
X50071Y50271D01*
X50070Y50270D01*
X50068Y50267D01*
X50065Y50263D01*
X50060Y50258D01*
X50055Y50253D01*
X50049Y50247D01*
X50043Y50241D01*
X50036Y50236D01*
X50035Y50235D01*
X50033Y50234D01*
X50029Y50232D01*
X50023Y50229D01*
X50016Y50225D01*
X50009Y50223D01*
X50000Y50219D01*
X49990Y50217D01*
X49989D01*
X49987Y50216D01*
X49985Y50215D01*
X49980Y50215D01*
X49972Y50214D01*
X49963Y50213D01*
X49953Y50212D01*
X49941Y50211D01*
X49928Y50210D01*
X49790D01*
Y50595D01*
X49938D01*
X49948Y50594D01*
D02*
G37*
G36*
X42246Y50592D02*
X42251Y50592D01*
X42256Y50591D01*
X42263Y50590D01*
X42269Y50589D01*
X42283Y50585D01*
X42298Y50580D01*
X42305Y50576D01*
X42312Y50572D01*
X42319Y50567D01*
X42325Y50562D01*
X42325Y50561D01*
X42326Y50561D01*
X42327Y50558D01*
X42330Y50556D01*
X42332Y50553D01*
X42335Y50550D01*
X42338Y50546D01*
X42341Y50541D01*
X42347Y50530D01*
X42352Y50517D01*
X42355Y50510D01*
X42356Y50502D01*
X42357Y50495D01*
X42357Y50486D01*
Y50485D01*
Y50482D01*
X42357Y50478D01*
X42356Y50472D01*
X42355Y50465D01*
X42353Y50457D01*
X42351Y50449D01*
X42347Y50441D01*
X42347Y50440D01*
X42346Y50437D01*
X42344Y50432D01*
X42340Y50426D01*
X42336Y50420D01*
X42330Y50411D01*
X42324Y50403D01*
X42316Y50394D01*
X42315Y50393D01*
X42312Y50389D01*
X42309Y50386D01*
X42306Y50384D01*
X42303Y50380D01*
X42299Y50376D01*
X42294Y50371D01*
X42289Y50366D01*
X42283Y50361D01*
X42276Y50355D01*
X42269Y50349D01*
X42261Y50341D01*
X42253Y50334D01*
X42244Y50326D01*
X42243Y50326D01*
X42242Y50325D01*
X42240Y50323D01*
X42237Y50321D01*
X42234Y50318D01*
X42230Y50314D01*
X42221Y50307D01*
X42211Y50299D01*
X42203Y50290D01*
X42195Y50283D01*
X42192Y50280D01*
X42189Y50278D01*
X42188Y50277D01*
X42187Y50275D01*
X42184Y50273D01*
X42182Y50270D01*
X42179Y50266D01*
X42175Y50262D01*
X42169Y50253D01*
X42358D01*
Y50207D01*
X42103D01*
Y50208D01*
Y50210D01*
Y50213D01*
X42104Y50218D01*
X42104Y50223D01*
X42105Y50228D01*
X42107Y50234D01*
X42109Y50240D01*
Y50240D01*
X42109Y50241D01*
X42111Y50244D01*
X42113Y50249D01*
X42116Y50256D01*
X42120Y50264D01*
X42126Y50273D01*
X42132Y50282D01*
X42140Y50291D01*
Y50292D01*
X42141Y50292D01*
X42144Y50295D01*
X42149Y50300D01*
X42156Y50308D01*
X42164Y50316D01*
X42175Y50326D01*
X42188Y50337D01*
X42202Y50349D01*
X42202Y50349D01*
X42204Y50351D01*
X42208Y50354D01*
X42211Y50357D01*
X42217Y50361D01*
X42223Y50366D01*
X42229Y50372D01*
X42236Y50378D01*
X42250Y50391D01*
X42264Y50405D01*
X42270Y50411D01*
X42276Y50418D01*
X42282Y50424D01*
X42286Y50430D01*
Y50431D01*
X42288Y50431D01*
X42289Y50433D01*
X42290Y50435D01*
X42294Y50441D01*
X42298Y50449D01*
X42302Y50457D01*
X42306Y50467D01*
X42308Y50477D01*
X42309Y50487D01*
Y50488D01*
Y50489D01*
X42309Y50492D01*
X42308Y50497D01*
X42306Y50504D01*
X42304Y50511D01*
X42300Y50519D01*
X42295Y50527D01*
X42289Y50535D01*
X42288Y50536D01*
X42285Y50538D01*
X42281Y50541D01*
X42275Y50545D01*
X42267Y50548D01*
X42258Y50551D01*
X42248Y50553D01*
X42236Y50554D01*
X42233D01*
X42230Y50553D01*
X42224Y50553D01*
X42216Y50551D01*
X42208Y50549D01*
X42198Y50545D01*
X42189Y50540D01*
X42181Y50533D01*
X42180Y50532D01*
X42178Y50530D01*
X42174Y50525D01*
X42171Y50518D01*
X42167Y50511D01*
X42164Y50501D01*
X42162Y50490D01*
X42160Y50477D01*
X42112Y50482D01*
Y50482D01*
X42113Y50484D01*
Y50487D01*
X42113Y50491D01*
X42114Y50495D01*
X42115Y50500D01*
X42117Y50506D01*
X42119Y50512D01*
X42123Y50526D01*
X42130Y50539D01*
X42134Y50546D01*
X42139Y50552D01*
X42144Y50558D01*
X42149Y50564D01*
X42150Y50565D01*
X42151Y50565D01*
X42153Y50567D01*
X42155Y50568D01*
X42159Y50571D01*
X42163Y50573D01*
X42167Y50576D01*
X42173Y50578D01*
X42179Y50581D01*
X42185Y50584D01*
X42193Y50586D01*
X42200Y50588D01*
X42209Y50590D01*
X42218Y50592D01*
X42227Y50592D01*
X42237Y50593D01*
X42243D01*
X42246Y50592D01*
D02*
G37*
G36*
X41900Y50591D02*
X41911Y50590D01*
X41922Y50589D01*
X41933Y50587D01*
X41942Y50586D01*
X41943D01*
X41944Y50585D01*
X41946D01*
X41948Y50584D01*
X41954Y50582D01*
X41962Y50580D01*
X41971Y50576D01*
X41980Y50571D01*
X41989Y50565D01*
X41998Y50558D01*
X41999Y50557D01*
X41999Y50557D01*
X42001Y50555D01*
X42003Y50553D01*
X42009Y50548D01*
X42016Y50540D01*
X42023Y50531D01*
X42031Y50520D01*
X42038Y50507D01*
X42044Y50492D01*
Y50492D01*
X42044Y50491D01*
X42046Y50489D01*
X42046Y50485D01*
X42048Y50481D01*
X42049Y50477D01*
X42050Y50472D01*
X42052Y50466D01*
X42053Y50460D01*
X42054Y50452D01*
X42057Y50437D01*
X42059Y50420D01*
X42059Y50401D01*
Y50400D01*
Y50399D01*
Y50396D01*
Y50394D01*
X42059Y50390D01*
Y50385D01*
X42058Y50375D01*
X42057Y50363D01*
X42055Y50350D01*
X42052Y50336D01*
X42049Y50323D01*
Y50323D01*
X42048Y50321D01*
X42048Y50320D01*
X42047Y50318D01*
X42045Y50311D01*
X42042Y50304D01*
X42038Y50295D01*
X42034Y50286D01*
X42028Y50277D01*
X42023Y50268D01*
X42022Y50267D01*
X42020Y50264D01*
X42017Y50260D01*
X42012Y50255D01*
X42007Y50249D01*
X42001Y50244D01*
X41995Y50238D01*
X41988Y50233D01*
X41987Y50232D01*
X41985Y50230D01*
X41981Y50228D01*
X41975Y50225D01*
X41968Y50222D01*
X41961Y50219D01*
X41952Y50216D01*
X41942Y50213D01*
X41941D01*
X41939Y50213D01*
X41937Y50212D01*
X41932Y50212D01*
X41924Y50210D01*
X41915Y50209D01*
X41905Y50208D01*
X41893Y50208D01*
X41880Y50207D01*
X41742D01*
Y50591D01*
X41890D01*
X41900Y50591D01*
D02*
G37*
G36*
X73694Y48905D02*
X73472D01*
X73471D01*
X73470D01*
X73467D01*
X73463D01*
X73460Y48905D01*
X73455D01*
X73444Y48904D01*
X73432Y48903D01*
X73420Y48901D01*
X73408Y48899D01*
X73403Y48898D01*
X73398Y48896D01*
X73397Y48896D01*
X73394Y48895D01*
X73390Y48892D01*
X73385Y48889D01*
X73379Y48885D01*
X73373Y48879D01*
X73367Y48873D01*
X73362Y48865D01*
X73361Y48864D01*
X73360Y48861D01*
X73358Y48856D01*
X73356Y48849D01*
X73353Y48841D01*
X73351Y48831D01*
X73350Y48821D01*
X73349Y48809D01*
Y48804D01*
X73350Y48800D01*
Y48795D01*
X73350Y48790D01*
X73352Y48778D01*
X73355Y48765D01*
X73360Y48752D01*
X73366Y48740D01*
X73370Y48734D01*
X73374Y48729D01*
X73375Y48729D01*
X73375Y48728D01*
X73377Y48727D01*
X73379Y48725D01*
X73382Y48724D01*
X73386Y48722D01*
X73391Y48719D01*
X73396Y48717D01*
X73402Y48715D01*
X73409Y48713D01*
X73417Y48711D01*
X73426Y48709D01*
X73436Y48708D01*
X73447Y48707D01*
X73459Y48706D01*
X73472D01*
X73694D01*
Y48654D01*
X73472D01*
X73471D01*
X73469D01*
X73466D01*
X73462D01*
X73457Y48655D01*
X73452D01*
X73445Y48656D01*
X73438Y48656D01*
X73423Y48658D01*
X73408Y48660D01*
X73393Y48663D01*
X73386Y48666D01*
X73379Y48668D01*
X73379D01*
X73377Y48668D01*
X73376Y48669D01*
X73374Y48671D01*
X73367Y48674D01*
X73360Y48679D01*
X73351Y48686D01*
X73342Y48693D01*
X73332Y48703D01*
X73324Y48716D01*
Y48716D01*
X73323Y48717D01*
X73322Y48719D01*
X73321Y48722D01*
X73319Y48725D01*
X73317Y48729D01*
X73316Y48734D01*
X73314Y48739D01*
X73311Y48745D01*
X73310Y48752D01*
X73308Y48759D01*
X73306Y48768D01*
X73305Y48776D01*
X73304Y48785D01*
X73303Y48805D01*
Y48810D01*
X73304Y48814D01*
Y48818D01*
X73304Y48824D01*
X73305Y48830D01*
X73305Y48836D01*
X73307Y48850D01*
X73311Y48865D01*
X73315Y48879D01*
X73321Y48893D01*
Y48894D01*
X73322Y48895D01*
X73324Y48896D01*
X73325Y48899D01*
X73329Y48905D01*
X73335Y48912D01*
X73343Y48920D01*
X73352Y48928D01*
X73363Y48936D01*
X73375Y48942D01*
X73376D01*
X73377Y48942D01*
X73379Y48943D01*
X73382Y48944D01*
X73385Y48945D01*
X73390Y48946D01*
X73395Y48948D01*
X73401Y48949D01*
X73407Y48950D01*
X73415Y48952D01*
X73422Y48953D01*
X73431Y48954D01*
X73440Y48955D01*
X73450Y48956D01*
X73461Y48956D01*
X73472D01*
X73694D01*
Y48905D01*
D02*
G37*
G36*
X73599Y48552D02*
X73600Y48551D01*
X73601Y48549D01*
X73602Y48546D01*
X73604Y48543D01*
X73606Y48539D01*
X73612Y48530D01*
X73618Y48518D01*
X73625Y48507D01*
X73634Y48496D01*
X73644Y48484D01*
X73644Y48484D01*
X73645Y48483D01*
X73647Y48481D01*
X73648Y48479D01*
X73654Y48474D01*
X73660Y48467D01*
X73668Y48461D01*
X73677Y48454D01*
X73686Y48447D01*
X73695Y48442D01*
Y48411D01*
X73310D01*
Y48459D01*
X73610D01*
X73609Y48459D01*
X73607Y48462D01*
X73604Y48465D01*
X73600Y48471D01*
X73595Y48477D01*
X73589Y48485D01*
X73583Y48493D01*
X73577Y48503D01*
Y48504D01*
X73577Y48505D01*
X73574Y48508D01*
X73572Y48513D01*
X73568Y48520D01*
X73564Y48528D01*
X73561Y48536D01*
X73557Y48545D01*
X73553Y48553D01*
X73599D01*
Y48552D01*
D02*
G37*
G36*
X36493Y48509D02*
X36345D01*
X36335Y48509D01*
X36324Y48510D01*
X36313Y48511D01*
X36302Y48513D01*
X36293Y48514D01*
X36292D01*
X36291Y48515D01*
X36289D01*
X36287Y48516D01*
X36281Y48518D01*
X36273Y48520D01*
X36264Y48524D01*
X36255Y48529D01*
X36245Y48535D01*
X36236Y48542D01*
X36236Y48543D01*
X36235Y48543D01*
X36234Y48545D01*
X36231Y48547D01*
X36226Y48552D01*
X36219Y48560D01*
X36212Y48569D01*
X36204Y48580D01*
X36197Y48593D01*
X36191Y48608D01*
Y48608D01*
X36190Y48609D01*
X36189Y48611D01*
X36189Y48615D01*
X36187Y48619D01*
X36186Y48623D01*
X36185Y48628D01*
X36183Y48634D01*
X36182Y48640D01*
X36180Y48648D01*
X36178Y48663D01*
X36176Y48680D01*
X36175Y48699D01*
Y48700D01*
Y48701D01*
Y48704D01*
Y48706D01*
X36176Y48710D01*
Y48715D01*
X36177Y48725D01*
X36178Y48737D01*
X36180Y48750D01*
X36183Y48764D01*
X36186Y48777D01*
Y48777D01*
X36186Y48779D01*
X36187Y48780D01*
X36188Y48782D01*
X36190Y48789D01*
X36193Y48796D01*
X36196Y48805D01*
X36201Y48814D01*
X36206Y48823D01*
X36212Y48832D01*
X36213Y48833D01*
X36215Y48836D01*
X36218Y48840D01*
X36223Y48845D01*
X36228Y48851D01*
X36234Y48856D01*
X36240Y48862D01*
X36247Y48867D01*
X36248Y48868D01*
X36250Y48870D01*
X36254Y48872D01*
X36260Y48875D01*
X36266Y48878D01*
X36274Y48881D01*
X36283Y48884D01*
X36293Y48887D01*
X36294D01*
X36296Y48887D01*
X36298Y48888D01*
X36303Y48888D01*
X36311Y48890D01*
X36320Y48891D01*
X36330Y48892D01*
X36342Y48892D01*
X36355Y48893D01*
X36493D01*
Y48509D01*
D02*
G37*
G36*
X35994Y48593D02*
X35995Y48593D01*
X35998Y48595D01*
X36001Y48599D01*
X36007Y48603D01*
X36013Y48608D01*
X36021Y48613D01*
X36029Y48619D01*
X36039Y48625D01*
X36040D01*
X36041Y48626D01*
X36044Y48628D01*
X36049Y48631D01*
X36056Y48634D01*
X36064Y48638D01*
X36072Y48642D01*
X36081Y48646D01*
X36089Y48649D01*
Y48604D01*
X36088D01*
X36087Y48603D01*
X36085Y48602D01*
X36082Y48600D01*
X36079Y48599D01*
X36075Y48596D01*
X36066Y48591D01*
X36054Y48585D01*
X36043Y48577D01*
X36032Y48568D01*
X36020Y48559D01*
X36019Y48558D01*
X36019Y48558D01*
X36017Y48556D01*
X36015Y48554D01*
X36010Y48549D01*
X36003Y48542D01*
X35997Y48534D01*
X35989Y48525D01*
X35983Y48517D01*
X35978Y48507D01*
X35947D01*
Y48893D01*
X35994D01*
Y48593D01*
D02*
G37*
%LPC*%
G36*
X34020Y47199D02*
X34020D01*
X34019D01*
X34017D01*
X34015D01*
X34012Y47198D01*
X34009D01*
X34006Y47198D01*
X34002Y47197D01*
X33993Y47196D01*
X33985Y47194D01*
X33975Y47192D01*
X33967Y47188D01*
X33966D01*
X33965Y47188D01*
X33964Y47187D01*
X33963Y47186D01*
X33959Y47184D01*
X33953Y47180D01*
X33948Y47176D01*
X33942Y47171D01*
X33936Y47164D01*
X33931Y47157D01*
Y47157D01*
X33930Y47157D01*
X33930Y47156D01*
X33929Y47154D01*
X33928Y47152D01*
X33927Y47150D01*
X33924Y47144D01*
X33922Y47138D01*
X33920Y47130D01*
X33918Y47121D01*
X33918Y47112D01*
Y47109D01*
X33918Y47106D01*
X33919Y47103D01*
X33920Y47100D01*
X33920Y47096D01*
X33921Y47092D01*
X33924Y47082D01*
X33926Y47077D01*
X33928Y47072D01*
X33931Y47066D01*
X33935Y47061D01*
X33938Y47056D01*
X33943Y47051D01*
X33943Y47051D01*
X33944Y47050D01*
X33945Y47049D01*
X33947Y47047D01*
X33950Y47046D01*
X33953Y47043D01*
X33957Y47041D01*
X33962Y47039D01*
X33967Y47037D01*
X33973Y47034D01*
X33980Y47032D01*
X33987Y47030D01*
X33995Y47028D01*
X34004Y47027D01*
X34014Y47026D01*
X34024Y47026D01*
X34024D01*
X34026D01*
X34028D01*
X34031Y47026D01*
X34035Y47027D01*
X34039Y47027D01*
X34044Y47028D01*
X34050Y47029D01*
X34061Y47032D01*
X34067Y47034D01*
X34073Y47036D01*
X34079Y47039D01*
X34085Y47042D01*
X34090Y47046D01*
X34095Y47050D01*
X34096Y47051D01*
X34096Y47051D01*
X34098Y47053D01*
X34099Y47055D01*
X34102Y47057D01*
X34104Y47060D01*
X34106Y47063D01*
X34109Y47067D01*
X34111Y47072D01*
X34113Y47076D01*
X34115Y47081D01*
X34118Y47087D01*
X34119Y47093D01*
X34121Y47098D01*
X34121Y47105D01*
X34122Y47112D01*
Y47114D01*
X34121Y47116D01*
Y47118D01*
X34121Y47121D01*
X34120Y47125D01*
X34119Y47129D01*
X34118Y47134D01*
X34117Y47139D01*
X34115Y47144D01*
X34113Y47149D01*
X34111Y47154D01*
X34107Y47159D01*
X34104Y47164D01*
X34100Y47169D01*
X34095Y47174D01*
X34095Y47175D01*
X34094Y47175D01*
X34092Y47176D01*
X34090Y47178D01*
X34088Y47180D01*
X34084Y47182D01*
X34080Y47184D01*
X34076Y47187D01*
X34071Y47189D01*
X34065Y47191D01*
X34059Y47193D01*
X34052Y47195D01*
X34045Y47196D01*
X34037Y47197D01*
X34029Y47198D01*
X34020Y47199D01*
D02*
G37*
G36*
X34018Y46824D02*
X34018D01*
X34016D01*
X34014D01*
X34011Y46824D01*
X34008D01*
X34004Y46823D01*
X34000Y46823D01*
X33996Y46823D01*
X33986Y46821D01*
X33976Y46819D01*
X33966Y46815D01*
X33961Y46813D01*
X33957Y46811D01*
X33957D01*
X33956Y46810D01*
X33955Y46809D01*
X33954Y46809D01*
X33950Y46806D01*
X33946Y46802D01*
X33941Y46797D01*
X33936Y46792D01*
X33932Y46786D01*
X33929Y46779D01*
X33929Y46778D01*
X33928Y46777D01*
X33927Y46773D01*
X33926Y46769D01*
X33925Y46763D01*
X33924Y46756D01*
X33924Y46751D01*
Y46746D01*
X33924Y46742D01*
Y46683D01*
X34116D01*
Y46743D01*
X34115Y46746D01*
X34115Y46751D01*
X34115Y46757D01*
X34114Y46764D01*
X34113Y46770D01*
X34111Y46776D01*
X34111Y46777D01*
X34111Y46778D01*
X34110Y46781D01*
X34108Y46784D01*
X34106Y46788D01*
X34104Y46792D01*
X34101Y46795D01*
X34098Y46799D01*
X34098Y46799D01*
X34096Y46801D01*
X34094Y46803D01*
X34090Y46805D01*
X34085Y46808D01*
X34080Y46812D01*
X34074Y46815D01*
X34067Y46817D01*
X34066D01*
X34066Y46817D01*
X34064Y46818D01*
X34063Y46818D01*
X34061Y46819D01*
X34059Y46819D01*
X34056Y46820D01*
X34053Y46821D01*
X34046Y46822D01*
X34038Y46823D01*
X34028Y46824D01*
X34018Y46824D01*
D02*
G37*
G36*
X33963Y45917D02*
X33963D01*
X33962D01*
X33960Y45917D01*
X33957Y45916D01*
X33952Y45916D01*
X33948Y45914D01*
X33943Y45912D01*
X33938Y45908D01*
X33933Y45904D01*
X33933Y45903D01*
X33932Y45901D01*
X33930Y45899D01*
X33928Y45894D01*
X33925Y45888D01*
X33924Y45881D01*
X33922Y45873D01*
X33922Y45863D01*
Y45783D01*
X34005D01*
Y45858D01*
X34005Y45863D01*
X34004Y45868D01*
X34004Y45874D01*
X34003Y45880D01*
X34002Y45885D01*
X34001Y45890D01*
X34000Y45891D01*
X34000Y45893D01*
X33999Y45895D01*
X33997Y45898D01*
X33995Y45901D01*
X33992Y45904D01*
X33989Y45908D01*
X33985Y45910D01*
X33985Y45911D01*
X33984Y45911D01*
X33981Y45912D01*
X33979Y45914D01*
X33975Y45915D01*
X33972Y45916D01*
X33967Y45917D01*
X33963Y45917D01*
D02*
G37*
G36*
X34018Y45561D02*
X34018D01*
X34016D01*
X34014D01*
X34011Y45560D01*
X34008D01*
X34004Y45560D01*
X34000Y45559D01*
X33996Y45559D01*
X33986Y45557D01*
X33976Y45555D01*
X33966Y45552D01*
X33961Y45550D01*
X33957Y45547D01*
X33957D01*
X33956Y45547D01*
X33955Y45546D01*
X33954Y45545D01*
X33950Y45542D01*
X33946Y45539D01*
X33941Y45534D01*
X33936Y45528D01*
X33932Y45522D01*
X33929Y45516D01*
X33929Y45515D01*
X33928Y45513D01*
X33927Y45510D01*
X33926Y45505D01*
X33925Y45499D01*
X33924Y45492D01*
X33924Y45488D01*
Y45483D01*
X33924Y45478D01*
Y45420D01*
X34116D01*
Y45480D01*
X34115Y45482D01*
X34115Y45488D01*
X34115Y45494D01*
X34114Y45500D01*
X34113Y45507D01*
X34111Y45512D01*
X34111Y45513D01*
X34111Y45515D01*
X34110Y45518D01*
X34108Y45521D01*
X34106Y45524D01*
X34104Y45528D01*
X34101Y45532D01*
X34098Y45535D01*
X34098Y45536D01*
X34096Y45537D01*
X34094Y45539D01*
X34090Y45542D01*
X34085Y45545D01*
X34080Y45548D01*
X34074Y45551D01*
X34067Y45554D01*
X34066D01*
X34066Y45554D01*
X34064Y45554D01*
X34063Y45555D01*
X34061Y45555D01*
X34059Y45556D01*
X34056Y45557D01*
X34053Y45557D01*
X34046Y45558D01*
X34038Y45559D01*
X34028Y45560D01*
X34018Y45561D01*
D02*
G37*
G36*
X74692Y46680D02*
X74623Y46654D01*
X74622D01*
X74621Y46654D01*
X74619Y46653D01*
X74617Y46652D01*
X74615Y46651D01*
X74611Y46650D01*
X74608Y46649D01*
X74604Y46647D01*
X74596Y46644D01*
X74587Y46642D01*
X74578Y46639D01*
X74570Y46636D01*
X74570D01*
X74571Y46636D01*
X74573D01*
X74574Y46635D01*
X74577Y46635D01*
X74579Y46634D01*
X74585Y46632D01*
X74593Y46631D01*
X74601Y46628D01*
X74609Y46625D01*
X74618Y46622D01*
X74692Y46595D01*
Y46680D01*
D02*
G37*
G36*
X74668Y46470D02*
X74668D01*
X74666D01*
X74664D01*
X74661Y46470D01*
X74658D01*
X74654Y46469D01*
X74650Y46469D01*
X74646Y46469D01*
X74636Y46467D01*
X74626Y46465D01*
X74616Y46461D01*
X74611Y46459D01*
X74607Y46457D01*
X74607D01*
X74606Y46456D01*
X74605Y46455D01*
X74604Y46455D01*
X74600Y46452D01*
X74596Y46448D01*
X74591Y46443D01*
X74586Y46438D01*
X74582Y46432D01*
X74579Y46425D01*
X74579Y46425D01*
X74578Y46423D01*
X74577Y46419D01*
X74576Y46415D01*
X74575Y46409D01*
X74574Y46402D01*
X74574Y46397D01*
Y46393D01*
X74574Y46388D01*
Y46330D01*
X74766D01*
Y46389D01*
X74765Y46392D01*
X74765Y46397D01*
X74765Y46403D01*
X74764Y46410D01*
X74763Y46417D01*
X74761Y46422D01*
X74761Y46423D01*
X74761Y46425D01*
X74760Y46427D01*
X74758Y46430D01*
X74756Y46434D01*
X74754Y46438D01*
X74751Y46441D01*
X74748Y46445D01*
X74748Y46445D01*
X74746Y46447D01*
X74744Y46449D01*
X74740Y46451D01*
X74735Y46454D01*
X74730Y46458D01*
X74724Y46461D01*
X74717Y46463D01*
X74716D01*
X74716Y46463D01*
X74714Y46464D01*
X74713Y46464D01*
X74711Y46465D01*
X74709Y46465D01*
X74706Y46466D01*
X74703Y46467D01*
X74696Y46468D01*
X74688Y46469D01*
X74678Y46470D01*
X74668Y46470D01*
D02*
G37*
G36*
Y45161D02*
X74668D01*
X74666D01*
X74664D01*
X74661Y45160D01*
X74658D01*
X74654Y45160D01*
X74650Y45159D01*
X74646Y45159D01*
X74636Y45157D01*
X74626Y45155D01*
X74616Y45152D01*
X74611Y45150D01*
X74607Y45147D01*
X74607D01*
X74606Y45147D01*
X74605Y45146D01*
X74604Y45145D01*
X74600Y45142D01*
X74596Y45139D01*
X74591Y45134D01*
X74586Y45128D01*
X74582Y45122D01*
X74579Y45116D01*
X74579Y45115D01*
X74578Y45113D01*
X74577Y45110D01*
X74576Y45105D01*
X74575Y45099D01*
X74574Y45092D01*
X74574Y45088D01*
Y45083D01*
X74574Y45078D01*
Y45020D01*
X74766D01*
Y45080D01*
X74765Y45082D01*
X74765Y45088D01*
X74765Y45094D01*
X74764Y45100D01*
X74763Y45107D01*
X74761Y45112D01*
X74761Y45113D01*
X74761Y45115D01*
X74760Y45118D01*
X74758Y45121D01*
X74756Y45124D01*
X74754Y45128D01*
X74751Y45132D01*
X74748Y45135D01*
X74748Y45136D01*
X74746Y45137D01*
X74744Y45139D01*
X74740Y45142D01*
X74735Y45145D01*
X74730Y45148D01*
X74724Y45151D01*
X74717Y45154D01*
X74716D01*
X74716Y45154D01*
X74714Y45154D01*
X74713Y45155D01*
X74711Y45155D01*
X74709Y45156D01*
X74706Y45157D01*
X74703Y45157D01*
X74696Y45158D01*
X74688Y45159D01*
X74678Y45160D01*
X74668Y45161D01*
D02*
G37*
G36*
X62159Y49515D02*
X62038Y49343D01*
X62159D01*
Y49515D01*
D02*
G37*
G36*
X61514Y49549D02*
X61393D01*
Y49422D01*
X61507D01*
X61514Y49423D01*
X61522Y49423D01*
X61531Y49424D01*
X61539Y49425D01*
X61548Y49427D01*
X61556Y49429D01*
X61557Y49429D01*
X61559Y49431D01*
X61563Y49432D01*
X61567Y49434D01*
X61572Y49438D01*
X61577Y49442D01*
X61582Y49447D01*
X61586Y49452D01*
X61587Y49453D01*
X61588Y49455D01*
X61589Y49458D01*
X61592Y49463D01*
X61593Y49468D01*
X61595Y49473D01*
X61596Y49480D01*
X61597Y49487D01*
Y49487D01*
Y49488D01*
X61596Y49491D01*
X61595Y49496D01*
X61594Y49503D01*
X61592Y49509D01*
X61588Y49517D01*
X61583Y49524D01*
X61577Y49532D01*
X61575Y49532D01*
X61573Y49534D01*
X61568Y49537D01*
X61561Y49540D01*
X61553Y49544D01*
X61542Y49547D01*
X61529Y49549D01*
X61514Y49549D01*
D02*
G37*
G36*
X53513Y49602D02*
X53392D01*
Y49475D01*
X53506D01*
X53513Y49475D01*
X53521Y49476D01*
X53530Y49476D01*
X53539Y49477D01*
X53547Y49479D01*
X53555Y49481D01*
X53556Y49482D01*
X53559Y49483D01*
X53562Y49485D01*
X53566Y49487D01*
X53571Y49490D01*
X53576Y49494D01*
X53581Y49499D01*
X53585Y49505D01*
X53586Y49505D01*
X53587Y49507D01*
X53589Y49511D01*
X53591Y49515D01*
X53592Y49520D01*
X53594Y49526D01*
X53595Y49532D01*
X53596Y49539D01*
Y49540D01*
Y49540D01*
X53595Y49544D01*
X53595Y49549D01*
X53594Y49555D01*
X53591Y49562D01*
X53587Y49570D01*
X53582Y49577D01*
X53576Y49584D01*
X53575Y49585D01*
X53572Y49587D01*
X53567Y49590D01*
X53560Y49593D01*
X53552Y49596D01*
X53541Y49599D01*
X53528Y49601D01*
X53513Y49602D01*
D02*
G37*
G36*
X45465Y49548D02*
X45344D01*
Y49421D01*
X45458D01*
X45465Y49422D01*
X45473Y49422D01*
X45482Y49423D01*
X45491Y49424D01*
X45499Y49426D01*
X45507Y49428D01*
X45508Y49429D01*
X45511Y49430D01*
X45514Y49431D01*
X45518Y49434D01*
X45523Y49437D01*
X45528Y49441D01*
X45533Y49446D01*
X45537Y49451D01*
X45538Y49452D01*
X45539Y49454D01*
X45540Y49457D01*
X45543Y49462D01*
X45544Y49467D01*
X45546Y49472D01*
X45547Y49479D01*
X45548Y49486D01*
Y49486D01*
Y49487D01*
X45547Y49490D01*
X45547Y49495D01*
X45545Y49502D01*
X45543Y49509D01*
X45539Y49516D01*
X45534Y49523D01*
X45528Y49531D01*
X45527Y49531D01*
X45524Y49533D01*
X45519Y49536D01*
X45512Y49540D01*
X45504Y49543D01*
X45493Y49546D01*
X45480Y49548D01*
X45465Y49548D01*
D02*
G37*
G36*
X37750Y49598D02*
X37629D01*
Y49471D01*
X37744D01*
X37750Y49472D01*
X37758Y49472D01*
X37767Y49473D01*
X37776Y49474D01*
X37785Y49476D01*
X37792Y49478D01*
X37794Y49479D01*
X37796Y49480D01*
X37799Y49481D01*
X37804Y49484D01*
X37809Y49487D01*
X37814Y49491D01*
X37819Y49496D01*
X37822Y49501D01*
X37823Y49502D01*
X37824Y49504D01*
X37826Y49507D01*
X37828Y49512D01*
X37830Y49517D01*
X37831Y49522D01*
X37832Y49529D01*
X37833Y49536D01*
Y49536D01*
Y49537D01*
X37832Y49540D01*
X37832Y49545D01*
X37831Y49552D01*
X37828Y49559D01*
X37825Y49566D01*
X37820Y49573D01*
X37813Y49581D01*
X37812Y49581D01*
X37809Y49583D01*
X37805Y49586D01*
X37797Y49590D01*
X37789Y49593D01*
X37778Y49596D01*
X37765Y49598D01*
X37750Y49598D01*
D02*
G37*
G36*
X69117Y43315D02*
X68996Y43143D01*
X69117D01*
Y43315D01*
D02*
G37*
G36*
X64416Y50265D02*
X64296Y50093D01*
X64416D01*
Y50265D01*
D02*
G37*
G36*
X58410Y50665D02*
X58289Y50493D01*
X58410D01*
Y50665D01*
D02*
G37*
G36*
X58031Y50697D02*
X57942D01*
Y50403D01*
X58033D01*
X58037Y50404D01*
X58045Y50405D01*
X58055Y50405D01*
X58065Y50406D01*
X58075Y50408D01*
X58083Y50410D01*
X58084Y50411D01*
X58087Y50411D01*
X58091Y50413D01*
X58096Y50415D01*
X58101Y50418D01*
X58107Y50422D01*
X58112Y50426D01*
X58118Y50430D01*
X58118Y50431D01*
X58121Y50433D01*
X58124Y50437D01*
X58128Y50443D01*
X58132Y50450D01*
X58137Y50458D01*
X58142Y50468D01*
X58146Y50478D01*
Y50479D01*
X58146Y50480D01*
X58147Y50482D01*
X58147Y50484D01*
X58148Y50487D01*
X58149Y50491D01*
X58150Y50494D01*
X58151Y50499D01*
X58153Y50510D01*
X58154Y50523D01*
X58156Y50537D01*
X58156Y50553D01*
Y50553D01*
Y50556D01*
Y50558D01*
X58156Y50563D01*
Y50568D01*
X58155Y50573D01*
X58154Y50580D01*
X58154Y50587D01*
X58151Y50602D01*
X58148Y50617D01*
X58143Y50632D01*
X58140Y50639D01*
X58136Y50645D01*
Y50645D01*
X58135Y50647D01*
X58134Y50648D01*
X58133Y50650D01*
X58128Y50656D01*
X58123Y50663D01*
X58116Y50670D01*
X58107Y50677D01*
X58098Y50683D01*
X58088Y50688D01*
X58087Y50689D01*
X58084Y50689D01*
X58079Y50691D01*
X58072Y50693D01*
X58063Y50694D01*
X58052Y50695D01*
X58045Y50696D01*
X58038D01*
X58031Y50697D01*
D02*
G37*
G36*
X49930Y50549D02*
X49841D01*
Y50256D01*
X49932D01*
X49936Y50257D01*
X49944Y50257D01*
X49954Y50258D01*
X49964Y50259D01*
X49974Y50260D01*
X49982Y50263D01*
X49983Y50263D01*
X49986Y50264D01*
X49990Y50265D01*
X49995Y50268D01*
X50000Y50271D01*
X50006Y50274D01*
X50011Y50278D01*
X50017Y50283D01*
X50018Y50284D01*
X50020Y50286D01*
X50023Y50290D01*
X50027Y50295D01*
X50031Y50303D01*
X50036Y50311D01*
X50041Y50320D01*
X50045Y50331D01*
Y50331D01*
X50045Y50333D01*
X50046Y50334D01*
X50046Y50336D01*
X50047Y50339D01*
X50048Y50343D01*
X50049Y50347D01*
X50050Y50351D01*
X50052Y50363D01*
X50054Y50375D01*
X50055Y50390D01*
X50055Y50405D01*
Y50406D01*
Y50408D01*
Y50411D01*
X50055Y50415D01*
Y50420D01*
X50054Y50426D01*
X50054Y50432D01*
X50053Y50439D01*
X50050Y50454D01*
X50047Y50470D01*
X50042Y50484D01*
X50039Y50491D01*
X50035Y50497D01*
Y50498D01*
X50034Y50499D01*
X50033Y50501D01*
X50032Y50503D01*
X50028Y50508D01*
X50022Y50515D01*
X50015Y50522D01*
X50006Y50530D01*
X49997Y50536D01*
X49987Y50541D01*
X49986Y50541D01*
X49983Y50542D01*
X49978Y50543D01*
X49971Y50545D01*
X49962Y50546D01*
X49951Y50548D01*
X49944Y50548D01*
X49937D01*
X49930Y50549D01*
D02*
G37*
G36*
X41882Y50546D02*
X41793D01*
Y50253D01*
X41884D01*
X41888Y50253D01*
X41896Y50254D01*
X41906Y50254D01*
X41916Y50255D01*
X41926Y50257D01*
X41934Y50259D01*
X41935Y50260D01*
X41938Y50260D01*
X41942Y50262D01*
X41947Y50264D01*
X41952Y50268D01*
X41958Y50271D01*
X41963Y50275D01*
X41969Y50279D01*
X41970Y50280D01*
X41972Y50283D01*
X41975Y50286D01*
X41979Y50292D01*
X41983Y50299D01*
X41988Y50308D01*
X41993Y50317D01*
X41997Y50328D01*
Y50328D01*
X41997Y50329D01*
X41998Y50331D01*
X41998Y50333D01*
X41999Y50336D01*
X42000Y50340D01*
X42001Y50344D01*
X42002Y50348D01*
X42004Y50359D01*
X42006Y50372D01*
X42007Y50386D01*
X42007Y50402D01*
Y50402D01*
Y50405D01*
Y50407D01*
X42007Y50412D01*
Y50417D01*
X42006Y50422D01*
X42006Y50429D01*
X42005Y50436D01*
X42002Y50451D01*
X41999Y50466D01*
X41994Y50481D01*
X41991Y50488D01*
X41987Y50494D01*
Y50495D01*
X41986Y50496D01*
X41985Y50497D01*
X41984Y50500D01*
X41980Y50505D01*
X41974Y50512D01*
X41967Y50519D01*
X41958Y50526D01*
X41949Y50532D01*
X41939Y50537D01*
X41938Y50538D01*
X41935Y50538D01*
X41930Y50540D01*
X41923Y50542D01*
X41914Y50543D01*
X41903Y50545D01*
X41896Y50545D01*
X41889D01*
X41882Y50546D01*
D02*
G37*
G36*
X36442Y48847D02*
X36351D01*
X36347Y48847D01*
X36339Y48846D01*
X36329Y48846D01*
X36319Y48845D01*
X36309Y48843D01*
X36301Y48841D01*
X36300Y48840D01*
X36297Y48840D01*
X36293Y48838D01*
X36288Y48836D01*
X36283Y48832D01*
X36277Y48829D01*
X36271Y48825D01*
X36266Y48821D01*
X36265Y48820D01*
X36263Y48817D01*
X36260Y48814D01*
X36256Y48808D01*
X36251Y48801D01*
X36246Y48792D01*
X36242Y48783D01*
X36238Y48772D01*
Y48772D01*
X36238Y48771D01*
X36237Y48769D01*
X36236Y48767D01*
X36236Y48764D01*
X36235Y48760D01*
X36234Y48756D01*
X36233Y48752D01*
X36231Y48741D01*
X36229Y48728D01*
X36228Y48714D01*
X36228Y48698D01*
Y48698D01*
Y48695D01*
Y48693D01*
X36228Y48688D01*
Y48683D01*
X36229Y48678D01*
X36229Y48671D01*
X36230Y48664D01*
X36233Y48649D01*
X36236Y48634D01*
X36241Y48619D01*
X36244Y48612D01*
X36248Y48606D01*
Y48605D01*
X36249Y48604D01*
X36250Y48603D01*
X36251Y48600D01*
X36255Y48595D01*
X36261Y48588D01*
X36268Y48581D01*
X36276Y48574D01*
X36286Y48568D01*
X36296Y48563D01*
X36297Y48562D01*
X36300Y48562D01*
X36305Y48560D01*
X36312Y48558D01*
X36321Y48557D01*
X36332Y48555D01*
X36339Y48555D01*
X36346D01*
X36353Y48554D01*
X36442D01*
Y48847D01*
D02*
G37*
%LPD*%
D10*
X61000Y44700D02*
G03*
X61000Y44700I-100J0D01*
G01*
X36700Y44750D02*
G03*
X36700Y44750I-100J0D01*
G01*
X44800D02*
G03*
X44800Y44750I-100J0D01*
G01*
X52900D02*
G03*
X52900Y44750I-100J0D01*
G01*
X67186Y48958D02*
X67502D01*
X61186D02*
X66614D01*
X60298D02*
X60614D01*
X60298D02*
X60298Y44942D01*
X60615D01*
X61185Y44942D02*
X65615D01*
X66185D02*
X67502D01*
Y48958D01*
X43202Y44992D02*
Y49008D01*
X41885Y44992D02*
X43202D01*
X36885D02*
X41315D01*
X35998Y44992D02*
X36314D01*
X35998Y49008D02*
X35998Y44992D01*
X35998Y49008D02*
X36314D01*
X36886D02*
X42314D01*
X42886D02*
X43202D01*
X50986D02*
X51302D01*
X44986D02*
X50414D01*
X44098D02*
X44414D01*
X44098D02*
X44098Y44992D01*
X44415D01*
X44985Y44992D02*
X49415D01*
X49985D02*
X51302D01*
Y49008D01*
X59086D02*
X59402D01*
X53086D02*
X58514D01*
X52198D02*
X52514D01*
X52198D02*
X52198Y44992D01*
X52515D01*
X53085Y44992D02*
X57515D01*
X58085D02*
X59402D01*
Y49008D01*
X76287Y47261D02*
Y47654D01*
X76976D01*
Y47261D02*
Y47654D01*
X76287Y47261D02*
X76976D01*
X76287Y44702D02*
X76976D01*
Y44308D02*
Y44702D01*
X76287Y44308D02*
X76976D01*
X76287D02*
Y44702D01*
X76091Y46965D02*
X77862D01*
X76091Y44997D02*
X77862D01*
X76091D02*
Y46965D01*
X75598Y47556D02*
Y47654D01*
Y44308D02*
Y44406D01*
X74969Y44032D02*
X77961D01*
X74969Y47930D02*
X77961D01*
Y44032D02*
Y47930D01*
X74969Y44308D02*
X75598D01*
X74969Y44032D02*
Y44308D01*
Y47654D02*
Y47930D01*
Y47654D02*
X75598D01*
D11*
X71735Y49863D02*
G03*
X71863Y49863I64J0D01*
G01*
X71163Y49863D02*
X71735D01*
X71863D02*
X72435D01*
Y47304D02*
Y49863D01*
X71163Y47304D02*
X72435D01*
X71163D02*
Y49863D01*
X35344Y50263D02*
Y50391D01*
X37156Y50263D02*
Y50391D01*
X35344Y49209D02*
Y49337D01*
X37156Y49209D02*
Y49337D01*
X35344Y50391D02*
X37156D01*
X35344Y49209D02*
X37156D01*
X42794D02*
X44606D01*
X42794Y50391D02*
X44606D01*
Y49209D02*
Y49337D01*
X42794Y49209D02*
Y49337D01*
X44606Y50263D02*
Y50391D01*
X42794Y50263D02*
Y50391D01*
X50894Y50163D02*
Y50291D01*
X52706Y50163D02*
Y50291D01*
X50894Y49109D02*
Y49237D01*
X52706Y49109D02*
Y49237D01*
X50894Y50291D02*
X52706D01*
X50894Y49109D02*
X52706D01*
X68474Y46376D02*
Y46691D01*
X68671D01*
X68474Y45509D02*
Y45824D01*
Y45509D02*
X68671D01*
X58944Y49109D02*
X60756D01*
X58944Y50291D02*
X60756D01*
Y49109D02*
Y49237D01*
X58944Y49109D02*
Y49237D01*
X60756Y50163D02*
Y50291D01*
X58944Y50163D02*
Y50291D01*
X68474Y44159D02*
X68671D01*
X68474D02*
Y44474D01*
Y45341D02*
X68671D01*
X68474Y45026D02*
Y45341D01*
X68481Y48383D02*
X68678D01*
X68481D02*
Y48698D01*
Y49565D02*
X68678D01*
X68481Y49250D02*
Y49565D01*
X72329Y43191D02*
X72526D01*
Y42876D02*
Y43191D01*
X72329Y42009D02*
X72526D01*
Y42324D01*
X68474Y46909D02*
X68671D01*
X68474D02*
Y47224D01*
Y48091D02*
X68671D01*
X68474Y47776D02*
Y48091D01*
D12*
X35211Y49278D02*
G03*
X35211Y49278I-49J0D01*
G01*
X42661D02*
G03*
X42661Y49278I-49J0D01*
G01*
X50761Y49178D02*
G03*
X50761Y49178I-49J0D01*
G01*
X58811D02*
G03*
X58811Y49178I-49J0D01*
G01*
D13*
X63500Y49250D02*
Y49650D01*
X63600Y49100D02*
X64900D01*
Y49800D01*
X63600D02*
X64900D01*
X55250Y49300D02*
Y49700D01*
X55350Y49150D02*
X56650D01*
Y49850D01*
X55350D02*
X56650D01*
X47134Y49300D02*
Y49700D01*
X47234Y49150D02*
X48534D01*
Y49850D01*
X47234D02*
X48534D01*
X38700Y49300D02*
Y49700D01*
X38800Y49150D02*
X40100D01*
Y49850D01*
X38800D02*
X40100D01*
X70577Y45814D02*
X71955D01*
X70577Y45086D02*
X71955D01*
X70577D02*
Y45814D01*
X71955Y45086D02*
Y45814D01*
X70577Y46664D02*
X71955D01*
X70577Y45936D02*
X71955D01*
X70577D02*
Y46664D01*
X71955Y45936D02*
Y46664D01*
X72661Y44836D02*
X74039D01*
X72661Y45564D02*
X74039D01*
Y44836D02*
Y45564D01*
X72661Y44836D02*
Y45564D01*
Y45636D02*
X74039D01*
X72661Y46364D02*
X74039D01*
Y45636D02*
Y46364D01*
X72661Y45636D02*
Y46364D01*
Y46436D02*
X74039D01*
X72661Y47164D02*
X74039D01*
Y46436D02*
Y47164D01*
X72661Y46436D02*
Y47164D01*
X74936Y48511D02*
X75664D01*
X74936Y49889D02*
X75664D01*
X74936Y48511D02*
Y49889D01*
X75664Y48511D02*
Y49889D01*
X75836Y48511D02*
X76564D01*
X75836Y49889D02*
X76564D01*
X75836Y48511D02*
Y49889D01*
X76564Y48511D02*
Y49889D01*
X74086Y48511D02*
X74814D01*
X74086Y49889D02*
X74814D01*
X74086Y48511D02*
Y49889D01*
X74814Y48511D02*
Y49889D01*
D14*
X59898Y43948D02*
Y44248D01*
X67848D02*
X67948D01*
X67848Y43948D02*
Y44248D01*
Y43948D02*
X67948D01*
X67198Y40148D02*
Y40698D01*
X66648D02*
X67198D01*
X66648Y40148D02*
Y40698D01*
X65198Y40098D02*
Y40648D01*
X64648D02*
X65198D01*
X64648Y40098D02*
Y40648D01*
X63198Y40098D02*
Y40648D01*
X62648D02*
X63198D01*
X62648Y40098D02*
Y40648D01*
X61198Y40098D02*
Y40648D01*
X60648D02*
X61198D01*
X60648Y40098D02*
Y40648D01*
X59948Y44848D02*
X67948D01*
X59948Y40098D02*
Y44848D01*
X67948Y40098D02*
Y43948D01*
X59948Y40098D02*
X67948D01*
Y44248D02*
Y44848D01*
X35446Y43946D02*
Y44246D01*
X43396D02*
X43496D01*
X43396Y43946D02*
Y44246D01*
Y43946D02*
X43496D01*
X42746Y40146D02*
Y40696D01*
X42196D02*
X42746D01*
X42196Y40146D02*
Y40696D01*
X40746Y40096D02*
Y40646D01*
X40196D02*
X40746D01*
X40196Y40096D02*
Y40646D01*
X38746Y40096D02*
Y40646D01*
X38196D02*
X38746D01*
X38196Y40096D02*
Y40646D01*
X36746Y40096D02*
Y40646D01*
X36196D02*
X36746D01*
X36196Y40096D02*
Y40646D01*
X35496Y44846D02*
X43496D01*
X35496Y40096D02*
Y44846D01*
X43496Y40096D02*
Y43946D01*
X35496Y40096D02*
X43496D01*
Y44246D02*
Y44846D01*
X51749Y43949D02*
Y44249D01*
X59699D02*
X59799D01*
X59699Y43949D02*
Y44249D01*
Y43949D02*
X59799D01*
X59049Y40149D02*
Y40699D01*
X58499D02*
X59049D01*
X58499Y40149D02*
Y40699D01*
X57049Y40099D02*
Y40649D01*
X56499D02*
X57049D01*
X56499Y40099D02*
Y40649D01*
X55049Y40099D02*
Y40649D01*
X54499D02*
X55049D01*
X54499Y40099D02*
Y40649D01*
X53049Y40099D02*
Y40649D01*
X52499D02*
X53049D01*
X52499Y40099D02*
Y40649D01*
X51799Y44849D02*
X59799D01*
X51799Y40099D02*
Y44849D01*
X59799Y40099D02*
Y43949D01*
X51799Y40099D02*
X59799D01*
Y44249D02*
Y44849D01*
X51649Y44249D02*
Y44849D01*
X43649Y40099D02*
X51649D01*
Y43949D01*
X43649Y40099D02*
Y44849D01*
X51649D01*
X44349Y40099D02*
Y40649D01*
X44899D01*
Y40099D02*
Y40649D01*
X46349Y40099D02*
Y40649D01*
X46899D01*
Y40099D02*
Y40649D01*
X48349Y40099D02*
Y40649D01*
X48899D01*
Y40099D02*
Y40649D01*
X50349Y40149D02*
Y40699D01*
X50899D01*
Y40149D02*
Y40699D01*
X51549Y43949D02*
X51649D01*
X51549D02*
Y44249D01*
X51649D01*
X43599Y43949D02*
Y44249D01*
D15*
X72994Y43306D02*
Y44094D01*
X71597D02*
X72994D01*
X71597Y43306D02*
Y44094D01*
Y43306D02*
X72994D01*
X72296Y43450D02*
Y43950D01*
X69401Y42806D02*
Y43594D01*
Y42806D02*
X70799D01*
Y43594D01*
X69401D02*
X70799D01*
X70100Y42950D02*
Y43450D01*
X70096Y42100D02*
Y42600D01*
X69397Y42744D02*
X70794D01*
Y41956D02*
Y42744D01*
X69397Y41956D02*
X70794D01*
X69397D02*
Y42744D01*
X74046Y42950D02*
Y43450D01*
X73347Y43594D02*
X74744D01*
Y42806D02*
Y43594D01*
X73347Y42806D02*
X74744D01*
X73347D02*
Y43594D01*
X74050Y42100D02*
Y42600D01*
X73351Y42744D02*
X74749D01*
Y41956D02*
Y42744D01*
X73351Y41956D02*
X74749D01*
X73351D02*
Y42744D01*
D16*
X34138Y48962D02*
X34256Y48844D01*
Y44907D02*
X35044D01*
Y48844D01*
X34256D02*
X35044D01*
X34256Y44907D02*
Y48844D01*
M02*
