G04*
G04 #@! TF.GenerationSoftware,Altium Limited,Altium Designer,23.0.1 (38)*
G04*
G04 Layer_Color=8388736*
%FSLAX24Y24*%
%MOIN*%
G70*
G04*
G04 #@! TF.SameCoordinates,BEEE6B11-5ECA-4AAD-BFAB-FF97A37F51A9*
G04*
G04*
G04 #@! TF.FilePolarity,Negative*
G04*
G01*
G75*
%ADD25R,0.0552X0.0592*%
%ADD26R,0.0493X0.0611*%
%ADD27R,0.0552X0.0222*%
%ADD28O,0.0552X0.0222*%
%ADD29R,0.1005X0.0690*%
%ADD30R,0.0611X0.0493*%
%ADD31R,0.0474X0.0316*%
%ADD32R,0.0552X0.0671*%
%ADD33R,0.1180X0.1280*%
%ADD34O,0.1180X0.1280*%
%ADD35C,0.1024*%
%ADD36C,0.0631*%
G04:AMPARAMS|DCode=37|XSize=63.1mil|YSize=63.1mil|CornerRadius=17.8mil|HoleSize=0mil|Usage=FLASHONLY|Rotation=270.000|XOffset=0mil|YOffset=0mil|HoleType=Round|Shape=RoundedRectangle|*
%AMROUNDEDRECTD37*
21,1,0.0631,0.0276,0,0,270.0*
21,1,0.0276,0.0631,0,0,270.0*
1,1,0.0356,-0.0138,-0.0138*
1,1,0.0356,-0.0138,0.0138*
1,1,0.0356,0.0138,0.0138*
1,1,0.0356,0.0138,-0.0138*
%
%ADD37ROUNDEDRECTD37*%
%ADD38R,0.0631X0.0631*%
%ADD39C,0.0580*%
D25*
X63816Y49450D02*
D03*
X64584D02*
D03*
X55566Y49500D02*
D03*
X56334D02*
D03*
X47450D02*
D03*
X48218D02*
D03*
X39016D02*
D03*
X39784D02*
D03*
D26*
X71650Y45450D02*
D03*
X70882D02*
D03*
X71650Y46300D02*
D03*
X70882D02*
D03*
X72966Y45200D02*
D03*
X73734D02*
D03*
X72966Y46000D02*
D03*
X73734D02*
D03*
X72966Y46800D02*
D03*
X73734D02*
D03*
D27*
X70598Y49735D02*
D03*
D28*
Y49480D02*
D03*
Y49224D02*
D03*
Y48968D02*
D03*
Y48712D02*
D03*
Y48456D02*
D03*
Y48200D02*
D03*
Y47944D02*
D03*
Y47688D02*
D03*
Y47432D02*
D03*
X73000Y49735D02*
D03*
Y49480D02*
D03*
Y49224D02*
D03*
Y48968D02*
D03*
Y48712D02*
D03*
Y48456D02*
D03*
Y48200D02*
D03*
Y47944D02*
D03*
Y47688D02*
D03*
Y47432D02*
D03*
D29*
X35620Y49800D02*
D03*
X36880D02*
D03*
X44330D02*
D03*
X43070D02*
D03*
X51170Y49700D02*
D03*
X52430D02*
D03*
X60480D02*
D03*
X59220D02*
D03*
D30*
X75300Y49584D02*
D03*
Y48816D02*
D03*
X76200Y49584D02*
D03*
Y48816D02*
D03*
X74450Y49584D02*
D03*
Y48816D02*
D03*
D31*
X68356Y46100D02*
D03*
X69144Y46474D02*
D03*
Y45726D02*
D03*
Y44376D02*
D03*
Y45124D02*
D03*
X68356Y44750D02*
D03*
X69150Y48600D02*
D03*
Y49348D02*
D03*
X68363Y48974D02*
D03*
X71856Y42974D02*
D03*
Y42226D02*
D03*
X72644Y42600D02*
D03*
X69144Y47126D02*
D03*
Y47874D02*
D03*
X68356Y47500D02*
D03*
D32*
X72650Y43700D02*
D03*
X71941D02*
D03*
X69746Y43200D02*
D03*
X70454D02*
D03*
X70450Y42350D02*
D03*
X69741D02*
D03*
X74400Y43200D02*
D03*
X73691D02*
D03*
X74404Y42350D02*
D03*
X73696D02*
D03*
D33*
X60948Y44098D02*
D03*
X36496Y44096D02*
D03*
X52799Y44099D02*
D03*
X44649D02*
D03*
D34*
X66952Y44102D02*
D03*
X64949Y44099D02*
D03*
X62948Y44098D02*
D03*
X42500Y44100D02*
D03*
X40497Y44097D02*
D03*
X38496Y44096D02*
D03*
X58803Y44103D02*
D03*
X56800Y44100D02*
D03*
X54799Y44099D02*
D03*
X46649D02*
D03*
X48650Y44100D02*
D03*
X50653Y44103D02*
D03*
D35*
X60900Y48450D02*
D03*
X66900D02*
D03*
X65900Y45450D02*
D03*
X60900D02*
D03*
X36600Y45500D02*
D03*
X41600D02*
D03*
X42600Y48500D02*
D03*
X36600D02*
D03*
X44700D02*
D03*
X50700D02*
D03*
X49700Y45500D02*
D03*
X44700D02*
D03*
X52800Y48500D02*
D03*
X58800D02*
D03*
X57800Y45500D02*
D03*
X52800D02*
D03*
D36*
X75500Y44800D02*
D03*
Y45587D02*
D03*
Y46375D02*
D03*
X34650Y45300D02*
D03*
Y46088D02*
D03*
Y46875D02*
D03*
Y47663D02*
D03*
D37*
X75500Y47162D02*
D03*
D38*
X34650Y48450D02*
D03*
D39*
X41350Y49550D02*
D03*
X70200Y46850D02*
D03*
X77200Y43050D02*
D03*
X72304Y49075D02*
D03*
X71500Y49675D02*
D03*
X71504Y49075D02*
D03*
X72300Y49675D02*
D03*
X48050Y50450D02*
D03*
X55300Y50400D02*
D03*
X69900Y43900D02*
D03*
X73560Y48996D02*
D03*
X73566Y49607D02*
D03*
X71200Y43900D02*
D03*
M02*
