G04*
G04 #@! TF.GenerationSoftware,Altium Limited,Altium Designer,23.0.1 (38)*
G04*
G04 Layer_Color=255*
%FSLAX25Y25*%
%MOIN*%
G70*
G04*
G04 #@! TF.SameCoordinates,3E06254A-0F58-42D6-91FB-0DF0C2053515*
G04*
G04*
G04 #@! TF.FilePolarity,Positive*
G04*
G01*
G75*
%ADD42R,0.11000X0.12000*%
%ADD43O,0.11000X0.12000*%
%ADD44C,0.09843*%
%ADD45C,0.05512*%
G04:AMPARAMS|DCode=46|XSize=55.12mil|YSize=55.12mil|CornerRadius=13.78mil|HoleSize=0mil|Usage=FLASHONLY|Rotation=270.000|XOffset=0mil|YOffset=0mil|HoleType=Round|Shape=RoundedRectangle|*
%AMROUNDEDRECTD46*
21,1,0.05512,0.02756,0,0,270.0*
21,1,0.02756,0.05512,0,0,270.0*
1,1,0.02756,-0.01378,-0.01378*
1,1,0.02756,-0.01378,0.01378*
1,1,0.02756,0.01378,0.01378*
1,1,0.02756,0.01378,-0.01378*
%
%ADD46ROUNDEDRECTD46*%
%ADD47R,0.05512X0.05512*%
D42*
X609480Y440980D02*
D03*
X364961Y440961D02*
D03*
X527994Y440994D02*
D03*
X446494D02*
D03*
D43*
X669520Y441020D02*
D03*
X649486Y440986D02*
D03*
X629480Y440980D02*
D03*
X425000Y441000D02*
D03*
X404967Y440967D02*
D03*
X384961Y440961D02*
D03*
X588033Y441033D02*
D03*
X568000Y441000D02*
D03*
X547994Y440994D02*
D03*
X466494D02*
D03*
X486500Y441000D02*
D03*
X506533Y441033D02*
D03*
D44*
X609000Y484500D02*
D03*
X669000D02*
D03*
X659000Y454500D02*
D03*
X609000D02*
D03*
X366000Y455000D02*
D03*
X416000D02*
D03*
X426000Y485000D02*
D03*
X366000D02*
D03*
X447000D02*
D03*
X507000D02*
D03*
X497000Y455000D02*
D03*
X447000D02*
D03*
X528000Y485000D02*
D03*
X588000D02*
D03*
X578000Y455000D02*
D03*
X528000D02*
D03*
D45*
X755000Y448000D02*
D03*
Y455874D02*
D03*
Y463748D02*
D03*
X346500Y453004D02*
D03*
Y460878D02*
D03*
Y468752D02*
D03*
Y476626D02*
D03*
D46*
X755000Y471622D02*
D03*
D47*
X346500Y484500D02*
D03*
M02*
