G04*
G04 #@! TF.GenerationSoftware,Altium Limited,Altium Designer,23.0.1 (38)*
G04*
G04 Layer_Color=255*
%FSLAX25Y25*%
%MOIN*%
G70*
G04*
G04 #@! TF.SameCoordinates,3E06254A-0F58-42D6-91FB-0DF0C2053515*
G04*
G04*
G04 #@! TF.FilePolarity,Positive*
G04*
G01*
G75*
%ADD17R,0.04724X0.05118*%
%ADD18R,0.04134X0.05315*%
%ADD19R,0.04724X0.01417*%
%ADD20O,0.04724X0.01417*%
%ADD21R,0.09252X0.06102*%
%ADD22R,0.05315X0.04134*%
%ADD23R,0.03937X0.02362*%
%ADD24R,0.04724X0.05906*%
%ADD42R,0.11000X0.12000*%
%ADD43O,0.11000X0.12000*%
%ADD44C,0.09843*%
%ADD45C,0.05512*%
G04:AMPARAMS|DCode=46|XSize=55.12mil|YSize=55.12mil|CornerRadius=13.78mil|HoleSize=0mil|Usage=FLASHONLY|Rotation=270.000|XOffset=0mil|YOffset=0mil|HoleType=Round|Shape=RoundedRectangle|*
%AMROUNDEDRECTD46*
21,1,0.05512,0.02756,0,0,270.0*
21,1,0.02756,0.05512,0,0,270.0*
1,1,0.02756,-0.01378,-0.01378*
1,1,0.02756,-0.01378,0.01378*
1,1,0.02756,0.01378,0.01378*
1,1,0.02756,0.01378,-0.01378*
%
%ADD46ROUNDEDRECTD46*%
%ADD47R,0.05512X0.05512*%
D17*
X638161Y494500D02*
D03*
X645839D02*
D03*
X555661Y495000D02*
D03*
X563339D02*
D03*
X474500D02*
D03*
X482177D02*
D03*
X390161D02*
D03*
X397839D02*
D03*
D18*
X716500Y454500D02*
D03*
X708823D02*
D03*
X716500Y463000D02*
D03*
X708823D02*
D03*
X729661Y452000D02*
D03*
X737339D02*
D03*
X729661Y460000D02*
D03*
X737339D02*
D03*
X729661Y468000D02*
D03*
X737339D02*
D03*
D19*
X705984Y497354D02*
D03*
D20*
Y494795D02*
D03*
Y492236D02*
D03*
Y489677D02*
D03*
Y487118D02*
D03*
Y484559D02*
D03*
Y482000D02*
D03*
Y479441D02*
D03*
Y476882D02*
D03*
Y474323D02*
D03*
X730000Y497354D02*
D03*
Y494795D02*
D03*
Y492236D02*
D03*
Y489677D02*
D03*
Y487118D02*
D03*
Y484559D02*
D03*
Y482000D02*
D03*
Y479441D02*
D03*
Y476882D02*
D03*
Y474323D02*
D03*
D21*
X356201Y498000D02*
D03*
X368799D02*
D03*
X443299D02*
D03*
X430701D02*
D03*
X511701Y497000D02*
D03*
X524299D02*
D03*
X604799D02*
D03*
X592201D02*
D03*
D22*
X753000Y495839D02*
D03*
Y488161D02*
D03*
X762000Y495839D02*
D03*
Y488161D02*
D03*
X744500Y495839D02*
D03*
Y488161D02*
D03*
D23*
X683563Y461000D02*
D03*
X691437Y464740D02*
D03*
Y457260D02*
D03*
Y443760D02*
D03*
Y451240D02*
D03*
X683563Y447500D02*
D03*
X691500Y486000D02*
D03*
Y493480D02*
D03*
X683626Y489740D02*
D03*
X718563Y429740D02*
D03*
Y422260D02*
D03*
X726437Y426000D02*
D03*
X691437Y471260D02*
D03*
Y478740D02*
D03*
X683563Y475000D02*
D03*
D24*
X726500Y437000D02*
D03*
X719413D02*
D03*
X697457Y432000D02*
D03*
X704543D02*
D03*
X704500Y423500D02*
D03*
X697413D02*
D03*
X744000Y432000D02*
D03*
X736913D02*
D03*
X744043Y423500D02*
D03*
X736957D02*
D03*
D42*
X609480Y440980D02*
D03*
X364961Y440961D02*
D03*
X527994Y440994D02*
D03*
X446494D02*
D03*
D43*
X669520Y441020D02*
D03*
X649486Y440986D02*
D03*
X629480Y440980D02*
D03*
X425000Y441000D02*
D03*
X404967Y440967D02*
D03*
X384961Y440961D02*
D03*
X588033Y441033D02*
D03*
X568000Y441000D02*
D03*
X547994Y440994D02*
D03*
X466494D02*
D03*
X486500Y441000D02*
D03*
X506533Y441033D02*
D03*
D44*
X609000Y484500D02*
D03*
X669000D02*
D03*
X659000Y454500D02*
D03*
X609000D02*
D03*
X366000Y455000D02*
D03*
X416000D02*
D03*
X426000Y485000D02*
D03*
X366000D02*
D03*
X447000D02*
D03*
X507000D02*
D03*
X497000Y455000D02*
D03*
X447000D02*
D03*
X528000Y485000D02*
D03*
X588000D02*
D03*
X578000Y455000D02*
D03*
X528000D02*
D03*
D45*
X755000Y448000D02*
D03*
Y455874D02*
D03*
Y463748D02*
D03*
X346500Y453004D02*
D03*
Y460878D02*
D03*
Y468752D02*
D03*
Y476626D02*
D03*
D46*
X755000Y471622D02*
D03*
D47*
X346500Y484500D02*
D03*
M02*
