G04*
G04 #@! TF.GenerationSoftware,Altium Limited,Altium Designer,23.0.1 (38)*
G04*
G04 Layer_Color=2752767*
%FSLAX24Y24*%
%MOIN*%
G70*
G04*
G04 #@! TF.SameCoordinates,BEEE6B11-5ECA-4AAD-BFAB-FF97A37F51A9*
G04*
G04*
G04 #@! TF.FilePolarity,Positive*
G04*
G01*
G75*
%ADD13C,0.0050*%
%ADD49C,0.0067*%
D13*
X60948Y43898D02*
X60748Y44298D01*
X61148D01*
X60948Y43898D01*
X66952Y43902D02*
X66752Y44302D01*
X67152D01*
X66952Y43902D01*
X64949Y43899D02*
X64749Y44299D01*
X65149D01*
X64949Y43899D01*
X62948Y43898D02*
X62748Y44298D01*
X63148D01*
X62948Y43898D01*
X60700Y48250D02*
Y48650D01*
X61100D01*
Y48250D01*
X60700D01*
X66700D02*
Y48650D01*
X67100D01*
Y48250D01*
X66700D01*
X65700Y45250D02*
Y45650D01*
X66100D01*
Y45250D01*
X65700D01*
X60700D02*
Y45650D01*
X61100D01*
Y45250D01*
X60700D01*
X36400Y45300D02*
Y45700D01*
X36800D01*
Y45300D01*
X36400D01*
X41400D02*
Y45700D01*
X41800D01*
Y45300D01*
X41400D01*
X42400Y48300D02*
Y48700D01*
X42800D01*
Y48300D01*
X42400D01*
X36400D02*
Y48700D01*
X36800D01*
Y48300D01*
X36400D01*
X36496Y43896D02*
X36296Y44296D01*
X36696D01*
X36496Y43896D01*
X42500Y43900D02*
X42300Y44300D01*
X42700D01*
X42500Y43900D01*
X40497Y43897D02*
X40297Y44297D01*
X40697D01*
X40497Y43897D01*
X38496Y43896D02*
X38296Y44296D01*
X38696D01*
X38496Y43896D01*
X52799Y43899D02*
X52599Y44299D01*
X52999D01*
X52799Y43899D01*
X58803Y43903D02*
X58603Y44303D01*
X59003D01*
X58803Y43903D01*
X56800Y43900D02*
X56600Y44300D01*
X57000D01*
X56800Y43900D01*
X54799Y43899D02*
X54599Y44299D01*
X54999D01*
X54799Y43899D01*
X44500Y48300D02*
Y48700D01*
X44900D01*
Y48300D01*
X44500D01*
X50500D02*
Y48700D01*
X50900D01*
Y48300D01*
X50500D01*
X49500Y45300D02*
Y45700D01*
X49900D01*
Y45300D01*
X49500D01*
X44500D02*
Y45700D01*
X44900D01*
Y45300D01*
X44500D01*
X52600Y48300D02*
Y48700D01*
X53000D01*
Y48300D01*
X52600D01*
X58600D02*
Y48700D01*
X59000D01*
Y48300D01*
X58600D01*
X57600Y45300D02*
Y45700D01*
X58000D01*
Y45300D01*
X57600D01*
X52600D02*
Y45700D01*
X53000D01*
Y45300D01*
X52600D01*
X75500Y44600D02*
X75600Y44700D01*
X75700D01*
X75600Y44800D01*
X75700Y44900D01*
X75600D01*
X75500Y45000D01*
X75400Y44900D01*
X75300D01*
X75400Y44800D01*
X75300Y44700D01*
X75400D01*
X75500Y44600D01*
Y45387D02*
X75600Y45487D01*
X75700D01*
X75600Y45587D01*
X75700Y45687D01*
X75600D01*
X75500Y45787D01*
X75400Y45687D01*
X75300D01*
X75400Y45587D01*
X75300Y45487D01*
X75400D01*
X75500Y45387D01*
Y46175D02*
X75600Y46275D01*
X75700D01*
X75600Y46375D01*
X75700Y46475D01*
X75600D01*
X75500Y46575D01*
X75400Y46475D01*
X75300D01*
X75400Y46375D01*
X75300Y46275D01*
X75400D01*
X75500Y46175D01*
Y46962D02*
X75600Y47062D01*
X75700D01*
X75600Y47162D01*
X75700Y47262D01*
X75600D01*
X75500Y47362D01*
X75400Y47262D01*
X75300D01*
X75400Y47162D01*
X75300Y47062D01*
X75400D01*
X75500Y46962D01*
X34650Y45100D02*
X34750Y45200D01*
X34850D01*
X34750Y45300D01*
X34850Y45400D01*
X34750D01*
X34650Y45500D01*
X34550Y45400D01*
X34450D01*
X34550Y45300D01*
X34450Y45200D01*
X34550D01*
X34650Y45100D01*
Y45888D02*
X34750Y45988D01*
X34850D01*
X34750Y46088D01*
X34850Y46188D01*
X34750D01*
X34650Y46288D01*
X34550Y46188D01*
X34450D01*
X34550Y46088D01*
X34450Y45988D01*
X34550D01*
X34650Y45888D01*
Y46675D02*
X34750Y46775D01*
X34850D01*
X34750Y46875D01*
X34850Y46975D01*
X34750D01*
X34650Y47075D01*
X34550Y46975D01*
X34450D01*
X34550Y46875D01*
X34450Y46775D01*
X34550D01*
X34650Y46675D01*
Y47463D02*
X34750Y47563D01*
X34850D01*
X34750Y47663D01*
X34850Y47763D01*
X34750D01*
X34650Y47863D01*
X34550Y47763D01*
X34450D01*
X34550Y47663D01*
X34450Y47563D01*
X34550D01*
X34650Y47463D01*
Y48250D02*
X34750Y48350D01*
X34850D01*
X34750Y48450D01*
X34850Y48550D01*
X34750D01*
X34650Y48650D01*
X34550Y48550D01*
X34450D01*
X34550Y48450D01*
X34450Y48350D01*
X34550D01*
X34650Y48250D01*
X46649Y43899D02*
X46449Y44299D01*
X46849D01*
X46649Y43899D01*
X48650Y43900D02*
X48450Y44300D01*
X48850D01*
X48650Y43900D01*
X50653Y43903D02*
X50453Y44303D01*
X50853D01*
X50653Y43903D01*
X44649Y43899D02*
X44449Y44299D01*
X44849D01*
X44649Y43899D01*
D49*
X41550Y49550D02*
G03*
X41550Y49550I-200J0D01*
G01*
X70400Y46850D02*
G03*
X70400Y46850I-200J0D01*
G01*
X77400Y43050D02*
G03*
X77400Y43050I-200J0D01*
G01*
X72504Y49075D02*
G03*
X72504Y49075I-200J0D01*
G01*
X71700Y49675D02*
G03*
X71700Y49675I-200J0D01*
G01*
X71704Y49075D02*
G03*
X71704Y49075I-200J0D01*
G01*
X72500Y49675D02*
G03*
X72500Y49675I-200J0D01*
G01*
X48250Y50450D02*
G03*
X48250Y50450I-200J0D01*
G01*
X55500Y50400D02*
G03*
X55500Y50400I-200J0D01*
G01*
X70100Y43900D02*
G03*
X70100Y43900I-200J0D01*
G01*
X73760Y48996D02*
G03*
X73760Y48996I-200J0D01*
G01*
X73766Y49607D02*
G03*
X73766Y49607I-200J0D01*
G01*
X71400Y43900D02*
G03*
X71400Y43900I-200J0D01*
G01*
M02*
