G04*
G04 #@! TF.GenerationSoftware,Altium Limited,Altium Designer,23.0.1 (38)*
G04*
G04 Layer_Color=128*
%FSLAX24Y24*%
%MOIN*%
G70*
G04*
G04 #@! TF.SameCoordinates,BEEE6B11-5ECA-4AAD-BFAB-FF97A37F51A9*
G04*
G04*
G04 #@! TF.FilePolarity,Positive*
G04*
G01*
G75*
%ADD13C,0.0050*%
D13*
X60648Y44098D02*
X61248D01*
X60948Y43798D02*
Y44398D01*
X66652Y44102D02*
X67252D01*
X66952Y43802D02*
Y44402D01*
X64649Y44099D02*
X65249D01*
X64949Y43799D02*
Y44399D01*
X62648Y44098D02*
X63248D01*
X62948Y43798D02*
Y44398D01*
X60605Y48450D02*
X61195D01*
X60900Y48155D02*
Y48745D01*
X66605Y48450D02*
X67195D01*
X66900Y48155D02*
Y48745D01*
X65605Y45450D02*
X66195D01*
X65900Y45155D02*
Y45745D01*
X60605Y45450D02*
X61195D01*
X60900Y45155D02*
Y45745D01*
X36305Y45500D02*
X36895D01*
X36600Y45205D02*
Y45795D01*
X41305Y45500D02*
X41895D01*
X41600Y45205D02*
Y45795D01*
X42305Y48500D02*
X42895D01*
X42600Y48205D02*
Y48795D01*
X36305Y48500D02*
X36895D01*
X36600Y48205D02*
Y48795D01*
X36196Y44096D02*
X36796D01*
X36496Y43796D02*
Y44396D01*
X42200Y44100D02*
X42800D01*
X42500Y43800D02*
Y44400D01*
X40197Y44097D02*
X40797D01*
X40497Y43797D02*
Y44397D01*
X38196Y44096D02*
X38796D01*
X38496Y43796D02*
Y44396D01*
X52499Y44099D02*
X53099D01*
X52799Y43799D02*
Y44399D01*
X58503Y44103D02*
X59103D01*
X58803Y43803D02*
Y44403D01*
X56500Y44100D02*
X57100D01*
X56800Y43800D02*
Y44400D01*
X54499Y44099D02*
X55099D01*
X54799Y43799D02*
Y44399D01*
X44405Y48500D02*
X44995D01*
X44700Y48205D02*
Y48795D01*
X50405Y48500D02*
X50995D01*
X50700Y48205D02*
Y48795D01*
X49405Y45500D02*
X49995D01*
X49700Y45205D02*
Y45795D01*
X44405Y45500D02*
X44995D01*
X44700Y45205D02*
Y45795D01*
X52505Y48500D02*
X53095D01*
X52800Y48205D02*
Y48795D01*
X58505Y48500D02*
X59095D01*
X58800Y48205D02*
Y48795D01*
X57505Y45500D02*
X58095D01*
X57800Y45205D02*
Y45795D01*
X52505Y45500D02*
X53095D01*
X52800Y45205D02*
Y45795D01*
X75343Y44800D02*
X75657D01*
X75500Y44643D02*
Y44957D01*
X75343Y45587D02*
X75657D01*
X75500Y45430D02*
Y45745D01*
X75343Y46375D02*
X75657D01*
X75500Y46217D02*
Y46532D01*
X75343Y47162D02*
X75657D01*
X75500Y47005D02*
Y47320D01*
X34493Y45300D02*
X34807D01*
X34650Y45143D02*
Y45458D01*
X34493Y46088D02*
X34807D01*
X34650Y45930D02*
Y46245D01*
X34493Y46875D02*
X34807D01*
X34650Y46718D02*
Y47033D01*
X34493Y47663D02*
X34807D01*
X34650Y47505D02*
Y47820D01*
X34493Y48450D02*
X34807D01*
X34650Y48293D02*
Y48607D01*
X46349Y44099D02*
X46949D01*
X46649Y43799D02*
Y44399D01*
X48350Y44100D02*
X48950D01*
X48650Y43800D02*
Y44400D01*
X50353Y44103D02*
X50953D01*
X50653Y43803D02*
Y44403D01*
X44349Y44099D02*
X44949D01*
X44649Y43799D02*
Y44399D01*
X41210Y49550D02*
X41490D01*
X41350Y49410D02*
Y49690D01*
X70060Y46850D02*
X70340D01*
X70200Y46710D02*
Y46990D01*
X77060Y43050D02*
X77340D01*
X77200Y42910D02*
Y43190D01*
X72164Y49075D02*
X72444D01*
X72304Y48935D02*
Y49215D01*
X71360Y49675D02*
X71640D01*
X71500Y49535D02*
Y49815D01*
X71364Y49075D02*
X71644D01*
X71504Y48935D02*
Y49215D01*
X72160Y49675D02*
X72440D01*
X72300Y49535D02*
Y49815D01*
X47910Y50450D02*
X48190D01*
X48050Y50310D02*
Y50590D01*
X55160Y50400D02*
X55440D01*
X55300Y50260D02*
Y50540D01*
X69760Y43900D02*
X70040D01*
X69900Y43760D02*
Y44040D01*
X73420Y48996D02*
X73700D01*
X73560Y48856D02*
Y49136D01*
X73426Y49607D02*
X73706D01*
X73566Y49467D02*
Y49747D01*
X71060Y43900D02*
X71340D01*
X71200Y43760D02*
Y44040D01*
M02*
