G04*
G04 #@! TF.GenerationSoftware,Altium Limited,Altium Designer,23.0.1 (38)*
G04*
G04 Layer_Physical_Order=1*
G04 Layer_Color=255*
<<<<<<< HEAD
%FSLAX24Y24*%
%MOIN*%
G70*
G04*
G04 #@! TF.SameCoordinates,BEEE6B11-5ECA-4AAD-BFAB-FF97A37F51A9*
=======
%FSLAX25Y25*%
%MOIN*%
G70*
G04*
G04 #@! TF.SameCoordinates,3E06254A-0F58-42D6-91FB-0DF0C2053515*
>>>>>>> 086f05f611e4eabd8aa2a084d90faab6d215b326
G04*
G04*
G04 #@! TF.FilePolarity,Positive*
G04*
G01*
G75*
<<<<<<< HEAD
%ADD10C,0.0100*%
%ADD17R,0.0472X0.0512*%
%ADD18R,0.0413X0.0531*%
%ADD19R,0.0472X0.0142*%
%ADD20O,0.0472X0.0142*%
%ADD21R,0.0925X0.0610*%
%ADD22R,0.0531X0.0413*%
%ADD23R,0.0394X0.0236*%
%ADD24R,0.0472X0.0591*%
%ADD40C,0.0250*%
%ADD41C,0.0150*%
%ADD42R,0.1100X0.1200*%
%ADD43O,0.1100X0.1200*%
%ADD44C,0.0984*%
%ADD45C,0.0551*%
G04:AMPARAMS|DCode=46|XSize=55.1mil|YSize=55.1mil|CornerRadius=13.8mil|HoleSize=0mil|Usage=FLASHONLY|Rotation=270.000|XOffset=0mil|YOffset=0mil|HoleType=Round|Shape=RoundedRectangle|*
%AMROUNDEDRECTD46*
21,1,0.0551,0.0276,0,0,270.0*
21,1,0.0276,0.0551,0,0,270.0*
1,1,0.0276,-0.0138,-0.0138*
1,1,0.0276,-0.0138,0.0138*
1,1,0.0276,0.0138,0.0138*
1,1,0.0276,0.0138,-0.0138*
%
%ADD46ROUNDEDRECTD46*%
%ADD47R,0.0551X0.0551*%
%ADD48C,0.0500*%
G36*
X49035Y50701D02*
X48278Y49944D01*
X48245Y49895D01*
X48237Y49856D01*
X47881D01*
Y49550D01*
X48218D01*
X48554D01*
Y49788D01*
X49313Y50547D01*
X53237D01*
X54798Y48986D01*
X54847Y48953D01*
X54906Y48941D01*
X55948D01*
X56006Y48953D01*
X56056Y48986D01*
X56214Y49144D01*
X56284D01*
Y49500D01*
X56334D01*
Y49550D01*
X56670D01*
Y49620D01*
X57197Y50147D01*
X58638D01*
X58657Y50105D01*
Y49691D01*
X58643Y49682D01*
X57099Y48137D01*
X55472D01*
X53217Y50392D01*
X53142Y50442D01*
X53054Y50460D01*
X51874D01*
X51786Y50442D01*
X51712Y50392D01*
X51465Y50145D01*
X51415Y50112D01*
X51408Y50105D01*
X50607D01*
Y49725D01*
X50543Y49682D01*
X48849Y47987D01*
X47553D01*
X45048Y50492D01*
X45041Y50497D01*
X45056Y50547D01*
X45337D01*
X46898Y48986D01*
X46947Y48953D01*
X47006Y48941D01*
X47832D01*
X47890Y48953D01*
X47940Y48986D01*
X48098Y49144D01*
X48168D01*
Y49450D01*
X47881D01*
Y49360D01*
X47832Y49311D01*
X47786Y49330D01*
Y49856D01*
X47738D01*
X47718Y49902D01*
X47935Y50119D01*
X48004Y50100D01*
X48096D01*
X48185Y50124D01*
X48265Y50170D01*
X48330Y50235D01*
X48376Y50315D01*
X48400Y50404D01*
Y50496D01*
X48376Y50585D01*
X48330Y50665D01*
X48298Y50697D01*
X48319Y50747D01*
X49015D01*
X49035Y50701D01*
D02*
G37*
G36*
X75572Y49937D02*
X75553Y49891D01*
X75151D01*
X74540Y50501D01*
X74559Y50547D01*
X74961D01*
X75572Y49937D01*
D02*
G37*
G36*
X43619Y50497D02*
X43612Y50492D01*
X43480Y50361D01*
X43468Y50342D01*
X43335Y50210D01*
X43250D01*
X43228Y50205D01*
X42507D01*
Y49928D01*
X42379D01*
X42291Y49911D01*
X42217Y49861D01*
X41721Y49365D01*
X41671Y49291D01*
X41653Y49203D01*
Y48778D01*
X41163Y48287D01*
X38987D01*
X38443Y48832D01*
Y49552D01*
X38425Y49640D01*
X38376Y49715D01*
X37589Y50501D01*
X37609Y50547D01*
X39631D01*
Y49856D01*
X39448D01*
Y49550D01*
X39784D01*
Y49500D01*
D01*
Y49550D01*
X40120D01*
Y49856D01*
X39937D01*
Y50547D01*
X43604D01*
X43619Y50497D01*
D02*
G37*
G36*
X77101Y50730D02*
X77295Y50671D01*
X77473Y50576D01*
X77629Y50448D01*
X77757Y50292D01*
X77853Y50113D01*
X77911Y49920D01*
X77930Y49731D01*
X77927Y49715D01*
X77936Y42639D01*
X77937Y42634D01*
X77924Y42469D01*
X77884Y42303D01*
X77819Y42145D01*
X77730Y42000D01*
X77619Y41870D01*
X77489Y41759D01*
X77344Y41670D01*
X77186Y41605D01*
X77020Y41565D01*
X76855Y41552D01*
X76850Y41553D01*
X75101D01*
X75096Y41603D01*
X75171Y41618D01*
X75245Y41668D01*
X76020Y42442D01*
X76854D01*
X76941Y42459D01*
X77016Y42509D01*
X77207Y42700D01*
X77246D01*
X77335Y42724D01*
X77415Y42770D01*
X77480Y42835D01*
X77526Y42915D01*
X77550Y43004D01*
Y43096D01*
X77526Y43185D01*
X77480Y43265D01*
X77429Y43316D01*
Y44500D01*
X77412Y44588D01*
X77362Y44662D01*
X76275Y45750D01*
X76200Y45799D01*
X76113Y45817D01*
X75801D01*
X75801Y45818D01*
X75731Y45888D01*
X75645Y45937D01*
X75578Y45955D01*
Y46007D01*
X75645Y46025D01*
X75731Y46074D01*
X75801Y46144D01*
X75850Y46230D01*
X75876Y46325D01*
Y46424D01*
X75850Y46520D01*
X75801Y46605D01*
X75731Y46675D01*
X75645Y46725D01*
X75618Y46732D01*
X75625Y46782D01*
X75638D01*
X75731Y46800D01*
X75809Y46853D01*
X75862Y46932D01*
X75880Y47024D01*
Y47300D01*
X75862Y47393D01*
X75809Y47471D01*
X75731Y47524D01*
X75638Y47542D01*
X75362D01*
X75269Y47524D01*
X75191Y47471D01*
X75138Y47393D01*
X75120Y47300D01*
Y47024D01*
X75138Y46932D01*
X75191Y46853D01*
X75269Y46800D01*
X75362Y46782D01*
X75375D01*
X75382Y46732D01*
X75355Y46725D01*
X75269Y46675D01*
X75199Y46605D01*
X75150Y46520D01*
X75124Y46424D01*
Y46325D01*
X75150Y46230D01*
X75199Y46144D01*
X75269Y46074D01*
X75355Y46025D01*
X75422Y46007D01*
Y45955D01*
X75355Y45937D01*
X75269Y45888D01*
X75199Y45818D01*
X75150Y45732D01*
X75124Y45637D01*
Y45538D01*
X75150Y45442D01*
X75199Y45357D01*
X75269Y45287D01*
X75355Y45237D01*
X75422Y45220D01*
Y45168D01*
X75355Y45150D01*
X75269Y45101D01*
X75199Y45031D01*
X75150Y44945D01*
X75125Y44850D01*
X75500D01*
X75875D01*
X75850Y44945D01*
X75801Y45031D01*
X75731Y45101D01*
X75645Y45150D01*
X75578Y45168D01*
Y45220D01*
X75645Y45237D01*
X75731Y45287D01*
X75801Y45357D01*
X75801Y45358D01*
X76018D01*
X76971Y44405D01*
Y43316D01*
X76920Y43265D01*
X76874Y43185D01*
X76850Y43096D01*
Y43004D01*
X76852Y42995D01*
X76759Y42901D01*
X75925D01*
X75837Y42883D01*
X75762Y42833D01*
X74988Y42059D01*
X74741D01*
Y42300D01*
X74404D01*
Y42400D01*
X74741D01*
Y42745D01*
X74553D01*
Y42805D01*
X74736D01*
Y43150D01*
X74400D01*
Y43200D01*
X74350D01*
Y43595D01*
X74280D01*
X74067Y43808D01*
X74018Y43841D01*
X73959Y43853D01*
X72986D01*
Y44095D01*
X72700D01*
Y43700D01*
X72600D01*
Y44095D01*
X72530D01*
X72440Y44185D01*
X72459Y44231D01*
X74532D01*
X74591Y44243D01*
X74640Y44276D01*
X74858Y44494D01*
X74891Y44543D01*
X74903Y44602D01*
Y46050D01*
X74891Y46109D01*
X74858Y46158D01*
X74140Y46876D01*
X74090Y46909D01*
X74041Y46919D01*
Y47166D01*
X73427D01*
Y46434D01*
X74041D01*
Y46478D01*
X74087Y46497D01*
X74597Y45987D01*
Y45835D01*
X74551Y45815D01*
X74258Y46108D01*
X74209Y46141D01*
X74150Y46153D01*
X74041D01*
Y46366D01*
X73427D01*
Y45634D01*
X74041D01*
Y45838D01*
X74091Y45843D01*
X74397Y45537D01*
Y45136D01*
X74389Y45130D01*
X74321Y45143D01*
X74317Y45150D01*
X74158Y45308D01*
X74109Y45341D01*
X74050Y45353D01*
X74041D01*
Y45566D01*
X73427D01*
Y44937D01*
X73273D01*
Y45566D01*
X72896D01*
X72882Y45584D01*
X72907Y45634D01*
X73273D01*
Y46366D01*
X72896D01*
X72882Y46384D01*
X72907Y46434D01*
X73273D01*
Y47166D01*
X72876D01*
X72833Y47209D01*
X72854Y47258D01*
X73165D01*
X73232Y47271D01*
X73289Y47309D01*
X73326Y47366D01*
X73340Y47432D01*
X73329Y47485D01*
X73358Y47535D01*
X74988D01*
X75047Y47547D01*
X75096Y47580D01*
X76023Y48507D01*
X76043D01*
X76058Y48509D01*
X76566D01*
Y49123D01*
X75834D01*
Y48751D01*
X75712Y48628D01*
X75666Y48647D01*
Y49123D01*
X74934D01*
Y48726D01*
X74862Y48653D01*
X74816Y48673D01*
Y49123D01*
X74153D01*
Y49277D01*
X74816D01*
Y49727D01*
X74862Y49747D01*
X74934Y49674D01*
Y49277D01*
X75666D01*
Y49777D01*
X75712Y49797D01*
X75834Y49674D01*
Y49277D01*
X76566D01*
Y49891D01*
X76051D01*
X75240Y50701D01*
X75259Y50747D01*
X76900D01*
X76910Y50749D01*
X77101Y50730D01*
D02*
G37*
G36*
X47802Y50697D02*
X47770Y50665D01*
X47724Y50585D01*
X47700Y50496D01*
Y50404D01*
X47719Y50335D01*
X47342Y49958D01*
X47309Y49909D01*
X47298Y49856D01*
X47114D01*
Y49260D01*
X47064Y49253D01*
X45615Y50701D01*
X45635Y50747D01*
X47781D01*
X47802Y50697D01*
D02*
G37*
G36*
X55115D02*
X55085Y50680D01*
X55020Y50615D01*
X54974Y50535D01*
X54950Y50446D01*
Y50354D01*
X54974Y50265D01*
X55020Y50185D01*
X55085Y50120D01*
X55165Y50074D01*
X55254Y50050D01*
X55346D01*
X55435Y50074D01*
X55515Y50120D01*
X55580Y50185D01*
X55626Y50265D01*
X55650Y50354D01*
Y50434D01*
X55763Y50547D01*
X56312D01*
X56331Y50501D01*
X55686Y49856D01*
X55230D01*
Y49247D01*
X54969D01*
X53515Y50701D01*
X53535Y50747D01*
X55101D01*
X55115Y50697D01*
D02*
G37*
G36*
X62492Y48692D02*
X62541Y48659D01*
X62570Y48653D01*
X62566Y48603D01*
X61473D01*
X61469Y48623D01*
X61425Y48730D01*
X61360Y48827D01*
X61277Y48910D01*
X61180Y48975D01*
X61073Y49019D01*
X60958Y49042D01*
X60842D01*
X60727Y49019D01*
X60631Y48980D01*
X60597Y48996D01*
X60583Y49010D01*
Y49295D01*
X61043D01*
Y50070D01*
X61093Y50091D01*
X62492Y48692D01*
D02*
G37*
G36*
X59917Y50105D02*
Y49295D01*
X60277D01*
Y48920D01*
X60289Y48862D01*
X60322Y48812D01*
X60386Y48747D01*
X60375Y48730D01*
X60331Y48623D01*
X60308Y48508D01*
Y48392D01*
X60331Y48277D01*
X60375Y48170D01*
X60440Y48073D01*
X60523Y47990D01*
X60620Y47925D01*
X60727Y47881D01*
X60842Y47858D01*
X60958D01*
X61073Y47881D01*
X61180Y47925D01*
X61277Y47990D01*
X61360Y48073D01*
X61425Y48170D01*
X61469Y48277D01*
X61473Y48297D01*
X65992D01*
X66050Y48309D01*
X66100Y48342D01*
X66258Y48500D01*
X66308Y48479D01*
Y48392D01*
X66331Y48277D01*
X66375Y48170D01*
X66440Y48073D01*
X66523Y47990D01*
X66620Y47925D01*
X66727Y47881D01*
X66842Y47858D01*
X66958D01*
X67073Y47881D01*
X67180Y47925D01*
X67277Y47990D01*
X67360Y48073D01*
X67425Y48170D01*
X67469Y48277D01*
X67492Y48392D01*
Y48432D01*
X67538Y48451D01*
X67648Y48342D01*
X67697Y48309D01*
X67756Y48297D01*
X67839D01*
X67897Y48309D01*
X67947Y48342D01*
X68361Y48756D01*
X68650D01*
Y48161D01*
X68644Y48130D01*
Y47718D01*
X68059D01*
Y47653D01*
X57302D01*
X57292Y47703D01*
X57356Y47746D01*
X58158Y48548D01*
X58208Y48527D01*
Y48442D01*
X58231Y48327D01*
X58275Y48220D01*
X58340Y48123D01*
X58423Y48040D01*
X58520Y47975D01*
X58627Y47931D01*
X58742Y47908D01*
X58858D01*
X58973Y47931D01*
X59080Y47975D01*
X59177Y48040D01*
X59260Y48123D01*
X59325Y48220D01*
X59369Y48327D01*
X59392Y48442D01*
Y48558D01*
X59369Y48673D01*
X59325Y48780D01*
X59260Y48877D01*
X59177Y48960D01*
X59080Y49025D01*
X58973Y49069D01*
X58858Y49092D01*
X58773D01*
X58752Y49142D01*
X58901Y49290D01*
X59040D01*
X59062Y49295D01*
X59783D01*
Y50105D01*
X59802Y50147D01*
X59898D01*
X59917Y50105D01*
D02*
G37*
G36*
X75547Y48463D02*
X74925Y47841D01*
X74548D01*
X74528Y47887D01*
X75151Y48509D01*
X75528D01*
X75547Y48463D01*
D02*
G37*
G36*
X55214Y47746D02*
X55278Y47703D01*
X55268Y47653D01*
X53863D01*
X53314Y48203D01*
X53325Y48220D01*
X53369Y48327D01*
X53392Y48442D01*
Y48558D01*
X53369Y48673D01*
X53325Y48780D01*
X53260Y48877D01*
X53177Y48960D01*
X53080Y49025D01*
X52973Y49069D01*
X52858Y49092D01*
X52742D01*
X52653Y49074D01*
X52603Y49109D01*
Y49295D01*
X52993D01*
Y49902D01*
X53039Y49921D01*
X55214Y47746D01*
D02*
G37*
G36*
X47296Y47596D02*
X47370Y47546D01*
X47458Y47528D01*
X48944D01*
X49032Y47546D01*
X49106Y47596D01*
X50058Y48548D01*
X50108Y48527D01*
Y48442D01*
X50131Y48327D01*
X50175Y48220D01*
X50240Y48123D01*
X50323Y48040D01*
X50420Y47975D01*
X50527Y47931D01*
X50642Y47908D01*
X50758D01*
X50873Y47931D01*
X50980Y47975D01*
X51077Y48040D01*
X51160Y48123D01*
X51225Y48220D01*
X51269Y48327D01*
X51292Y48442D01*
Y48558D01*
X51269Y48673D01*
X51225Y48780D01*
X51160Y48877D01*
X51077Y48960D01*
X50980Y49025D01*
X50873Y49069D01*
X50758Y49092D01*
X50673D01*
X50652Y49142D01*
X50801Y49290D01*
X50990D01*
X51012Y49295D01*
X51733D01*
Y49772D01*
X51756Y49788D01*
X51821Y49853D01*
X51867Y49834D01*
Y49295D01*
X52297D01*
Y48958D01*
X52309Y48900D01*
X52332Y48865D01*
X52275Y48780D01*
X52231Y48673D01*
X52208Y48558D01*
Y48442D01*
X52231Y48327D01*
X52275Y48220D01*
X52340Y48123D01*
X52423Y48040D01*
X52520Y47975D01*
X52627Y47931D01*
X52742Y47908D01*
X52858D01*
X52973Y47931D01*
X53080Y47975D01*
X53097Y47986D01*
X53585Y47499D01*
X53565Y47453D01*
X45963D01*
X45214Y48203D01*
X45225Y48220D01*
X45269Y48327D01*
X45292Y48442D01*
Y48558D01*
X45269Y48673D01*
X45225Y48780D01*
X45160Y48877D01*
X45077Y48960D01*
X44980Y49025D01*
X44873Y49069D01*
X44758Y49092D01*
X44642D01*
X44527Y49069D01*
X44518Y49066D01*
X44483Y49101D01*
Y49395D01*
X44893D01*
Y49934D01*
X44939Y49953D01*
X47296Y47596D01*
D02*
G37*
G36*
X72645Y48462D02*
X72661Y48451D01*
X72674Y48389D01*
X72688Y48368D01*
X72709Y48328D01*
X72688Y48288D01*
X72674Y48267D01*
X72660Y48200D01*
X72674Y48133D01*
X72688Y48112D01*
X72709Y48072D01*
X72688Y48032D01*
X72674Y48011D01*
X72660Y47944D01*
X72674Y47877D01*
X72711Y47821D01*
Y47811D01*
X72674Y47755D01*
X72660Y47688D01*
X72674Y47622D01*
X72688Y47600D01*
X72709Y47560D01*
X72688Y47520D01*
X72674Y47499D01*
X72664Y47449D01*
X72614Y47427D01*
X71666Y48375D01*
X71685Y48422D01*
X72487D01*
X72555Y48435D01*
X72613Y48474D01*
X72613Y48474D01*
X72645Y48462D01*
D02*
G37*
G36*
X68059Y47282D02*
X68644D01*
Y46742D01*
Y46318D01*
X68342D01*
X68318Y46355D01*
X67372Y47301D01*
X67391Y47347D01*
X68059D01*
Y47282D01*
D02*
G37*
G36*
X63731Y50301D02*
X63692Y50262D01*
X63659Y50212D01*
X63647Y50154D01*
Y49806D01*
X63480D01*
Y49094D01*
X64152D01*
Y49806D01*
X63953D01*
Y50090D01*
X64010Y50147D01*
X64416D01*
X64442Y50106D01*
X64442Y50097D01*
X64431Y50041D01*
Y49806D01*
X64248D01*
Y49500D01*
X64584D01*
X64920D01*
Y49806D01*
X64737D01*
Y49947D01*
X69546D01*
X69565Y49901D01*
X69231Y49566D01*
X69200D01*
Y49398D01*
X69495D01*
X70044Y49947D01*
X70240D01*
X70262Y49906D01*
Y49785D01*
X70598D01*
Y49685D01*
X70262D01*
Y49565D01*
X70262Y49565D01*
X70262D01*
X70266Y49515D01*
X70259Y49480D01*
X70272Y49413D01*
X70310Y49356D01*
Y49347D01*
X70272Y49290D01*
X70259Y49224D01*
X70272Y49157D01*
X70287Y49135D01*
X70307Y49096D01*
X70287Y49056D01*
X70272Y49034D01*
X70259Y48968D01*
X70272Y48901D01*
X70287Y48880D01*
X70307Y48840D01*
X70287Y48800D01*
X70272Y48778D01*
X70259Y48712D01*
X70272Y48645D01*
X70310Y48589D01*
Y48579D01*
X70272Y48523D01*
X70259Y48456D01*
X70272Y48389D01*
X70287Y48368D01*
X70307Y48328D01*
X70287Y48288D01*
X70272Y48267D01*
X70259Y48200D01*
X70272Y48133D01*
X70287Y48112D01*
X70307Y48072D01*
X70287Y48032D01*
X70272Y48011D01*
X70259Y47944D01*
X70272Y47877D01*
X70310Y47821D01*
Y47811D01*
X70272Y47755D01*
X70259Y47688D01*
X70272Y47622D01*
X70287Y47600D01*
X70307Y47560D01*
X70287Y47520D01*
X70272Y47499D01*
X70259Y47432D01*
X70272Y47366D01*
X70310Y47309D01*
X70366Y47271D01*
X70433Y47258D01*
X70764D01*
X70830Y47271D01*
X70842Y47279D01*
X71104D01*
X71497Y46887D01*
Y46666D01*
X71343D01*
Y45934D01*
X71788D01*
X71809Y45884D01*
X71740Y45816D01*
X71343D01*
Y45084D01*
X71306Y45053D01*
X71226D01*
X71189Y45084D01*
Y45816D01*
X70576D01*
Y45603D01*
X70127D01*
X69843Y45887D01*
Y46667D01*
X69893Y46681D01*
X69920Y46635D01*
X69985Y46570D01*
X70065Y46524D01*
X70154Y46500D01*
X70246D01*
X70335Y46524D01*
X70415Y46570D01*
X70435Y46590D01*
X70576Y46449D01*
Y45934D01*
X71189D01*
Y46666D01*
X70792D01*
X70576Y46882D01*
X70549Y46900D01*
X70526Y46985D01*
X70480Y47065D01*
X70415Y47130D01*
X70335Y47176D01*
X70246Y47200D01*
X70154D01*
X70065Y47176D01*
X69985Y47130D01*
X69920Y47065D01*
X69874Y46985D01*
X69850Y46896D01*
Y46858D01*
X69800Y46843D01*
X69799Y46845D01*
X69643Y47000D01*
Y48338D01*
X69632Y48397D01*
X69599Y48446D01*
X69447Y48598D01*
Y48818D01*
X68956D01*
Y49017D01*
X69069Y49130D01*
X69100D01*
Y49298D01*
X68805D01*
X68706Y49199D01*
X68659Y49192D01*
X68659Y49192D01*
X68659Y49192D01*
X68066D01*
Y48893D01*
X67797Y48625D01*
X67692Y48730D01*
X67683Y48774D01*
X67650Y48824D01*
X67274Y49200D01*
X67224Y49233D01*
X67166Y49245D01*
X66634D01*
X66575Y49233D01*
X66526Y49200D01*
X65929Y48603D01*
X64560D01*
X64555Y48653D01*
X64584Y48659D01*
X64633Y48692D01*
X64692Y48750D01*
X64725Y48800D01*
X64737Y48859D01*
Y49094D01*
X64920D01*
Y49400D01*
X64584D01*
X64248D01*
Y49094D01*
X64431D01*
Y48953D01*
X62663D01*
X61315Y50301D01*
X61335Y50347D01*
X63712D01*
X63731Y50301D01*
D02*
G37*
G36*
X37984Y49457D02*
Y48737D01*
X38002Y48649D01*
X38051Y48574D01*
X38730Y47896D01*
X38804Y47846D01*
X38892Y47828D01*
X41258D01*
X41346Y47846D01*
X41420Y47896D01*
X41959Y48435D01*
X42013Y48418D01*
X42031Y48327D01*
X42075Y48220D01*
X42140Y48123D01*
X42223Y48040D01*
X42320Y47975D01*
X42427Y47931D01*
X42542Y47908D01*
X42658D01*
X42773Y47931D01*
X42880Y47975D01*
X42977Y48040D01*
X43060Y48123D01*
X43125Y48220D01*
X43169Y48327D01*
X43192Y48442D01*
Y48558D01*
X43169Y48673D01*
X43125Y48780D01*
X43060Y48877D01*
X42977Y48960D01*
X42880Y49025D01*
X42773Y49069D01*
X42658Y49092D01*
X42542D01*
X42427Y49069D01*
X42320Y49025D01*
X42223Y48960D01*
X42162Y48900D01*
X42112Y48920D01*
Y49108D01*
X42457Y49453D01*
X42507Y49432D01*
Y49395D01*
X43633D01*
Y49858D01*
X43721Y49947D01*
X43767Y49928D01*
Y49395D01*
X44177D01*
Y49038D01*
X44189Y48979D01*
X44222Y48930D01*
X44257Y48895D01*
X44240Y48877D01*
X44175Y48780D01*
X44131Y48673D01*
X44108Y48558D01*
Y48442D01*
X44131Y48327D01*
X44175Y48220D01*
X44240Y48123D01*
X44323Y48040D01*
X44420Y47975D01*
X44527Y47931D01*
X44642Y47908D01*
X44758D01*
X44873Y47931D01*
X44980Y47975D01*
X44997Y47986D01*
X45792Y47192D01*
X45841Y47159D01*
X45900Y47147D01*
X67093D01*
X68057Y46184D01*
Y46168D01*
X68059Y46153D01*
Y45882D01*
X68644D01*
Y45392D01*
Y44968D01*
X68276D01*
X66236Y47008D01*
X66186Y47041D01*
X66128Y47053D01*
X38263D01*
X37114Y48203D01*
X37125Y48220D01*
X37169Y48327D01*
X37192Y48442D01*
Y48558D01*
X37169Y48673D01*
X37125Y48780D01*
X37060Y48877D01*
X36977Y48960D01*
X36880Y49025D01*
X36773Y49069D01*
X36753Y49073D01*
Y49395D01*
X37443D01*
Y49934D01*
X37489Y49953D01*
X37984Y49457D01*
D02*
G37*
G36*
X72659Y45349D02*
Y44937D01*
X72043D01*
X71972Y45008D01*
X71933Y45034D01*
X71943Y45084D01*
X71957D01*
Y45599D01*
X72115Y45758D01*
X72143Y45800D01*
X72166Y45808D01*
X72199Y45809D01*
X72659Y45349D01*
D02*
G37*
G36*
X70855Y43834D02*
X70874Y43765D01*
X70920Y43685D01*
X70985Y43620D01*
X71065Y43574D01*
X71154Y43550D01*
X71246D01*
X71335Y43574D01*
X71388Y43604D01*
X71400Y43592D01*
X71450Y43559D01*
X71508Y43547D01*
X71605D01*
Y43305D01*
X72278D01*
X72278Y43305D01*
X72314D01*
Y43305D01*
X72328Y43305D01*
X72423D01*
X72442Y43259D01*
X72311Y43127D01*
X72153D01*
Y43192D01*
X71906D01*
Y42974D01*
Y42756D01*
X72153D01*
Y42821D01*
X72298D01*
X72347Y42818D01*
X72347Y42779D01*
Y42382D01*
X72587D01*
X72644Y42371D01*
X72905D01*
X73069Y42207D01*
X73143Y42157D01*
X73231Y42140D01*
X73359D01*
Y41955D01*
X73697D01*
X73719Y41932D01*
X73731Y41874D01*
X73781Y41799D01*
X73913Y41668D01*
X73987Y41618D01*
X74062Y41603D01*
X74057Y41553D01*
X71336D01*
X71331Y41603D01*
X71360Y41609D01*
X71410Y41642D01*
X71776Y42008D01*
X72153D01*
Y42444D01*
X71559D01*
Y42224D01*
X71238Y41903D01*
X70010D01*
X70008Y41905D01*
X70035Y41955D01*
X70078D01*
Y41955D01*
X70114D01*
Y41955D01*
X70400D01*
Y42350D01*
X70450D01*
Y42400D01*
X70786D01*
Y42745D01*
X70607D01*
Y42805D01*
X70791D01*
Y43150D01*
X70454D01*
Y43250D01*
X70791D01*
Y43595D01*
X70607D01*
Y43657D01*
X70803Y43853D01*
X70855Y43834D01*
D02*
G37*
G36*
X73355Y42805D02*
X73461D01*
Y42745D01*
X73359D01*
Y42636D01*
X73309Y42615D01*
X73162Y42762D01*
X73088Y42812D01*
X73000Y42829D01*
X72644D01*
X72587Y42818D01*
X72501D01*
X72485Y42859D01*
X72484Y42868D01*
X72758Y43142D01*
X72791Y43191D01*
X72803Y43250D01*
Y43305D01*
X72986D01*
Y43547D01*
X73355D01*
Y42805D01*
D02*
G37*
G36*
X34250Y50747D02*
X35306D01*
X35325Y50701D01*
X34042Y49418D01*
X34009Y49368D01*
X33997Y49310D01*
Y45800D01*
X34009Y45742D01*
X34042Y45692D01*
X34298Y45436D01*
X34275Y45350D01*
X34650D01*
X35025D01*
X35000Y45445D01*
X34951Y45531D01*
X34881Y45601D01*
X34795Y45650D01*
X34728Y45668D01*
Y45720D01*
X34795Y45738D01*
X34881Y45787D01*
X34951Y45857D01*
X35000Y45943D01*
X35026Y46038D01*
Y46137D01*
X35000Y46233D01*
X34951Y46318D01*
X34881Y46388D01*
X34795Y46438D01*
X34728Y46456D01*
Y46507D01*
X34795Y46525D01*
X34881Y46575D01*
X34951Y46645D01*
X35000Y46730D01*
X35026Y46826D01*
Y46925D01*
X35000Y47020D01*
X34951Y47106D01*
X34881Y47176D01*
X34795Y47225D01*
X34728Y47243D01*
Y47295D01*
X34795Y47313D01*
X34881Y47362D01*
X34951Y47432D01*
X35000Y47518D01*
X35026Y47613D01*
Y47712D01*
X35000Y47808D01*
X34951Y47893D01*
X34881Y47963D01*
X34795Y48013D01*
X34751Y48024D01*
X34757Y48074D01*
X35026D01*
Y48826D01*
X34303D01*
Y49246D01*
X35011Y49955D01*
X35057Y49936D01*
Y49395D01*
X35391D01*
Y46393D01*
X35408Y46305D01*
X35458Y46230D01*
X36028Y45660D01*
X36008Y45558D01*
Y45442D01*
X36031Y45327D01*
X36075Y45220D01*
X36140Y45123D01*
X36223Y45040D01*
X36320Y44975D01*
X36427Y44931D01*
X36542Y44908D01*
X36658D01*
X36773Y44931D01*
X36880Y44975D01*
X36977Y45040D01*
X37060Y45123D01*
X37125Y45220D01*
X37169Y45327D01*
X37192Y45442D01*
Y45558D01*
X37169Y45673D01*
X37148Y45724D01*
X37412Y45988D01*
X41180D01*
X41200Y45938D01*
X41140Y45877D01*
X41075Y45780D01*
X41054Y45729D01*
X39900D01*
X39812Y45712D01*
X39738Y45662D01*
X38798Y44722D01*
X38746Y44749D01*
X38623Y44787D01*
X38496Y44799D01*
X38369Y44787D01*
X38246Y44749D01*
X38133Y44689D01*
X38034Y44608D01*
X37953Y44509D01*
X37893Y44396D01*
X37855Y44273D01*
X37843Y44146D01*
Y44046D01*
X37855Y43919D01*
X37893Y43796D01*
X37953Y43683D01*
X38034Y43584D01*
X38133Y43503D01*
X38246Y43443D01*
X38369Y43405D01*
X38496Y43393D01*
X38623Y43405D01*
X38746Y43443D01*
X38859Y43503D01*
X38958Y43584D01*
X39039Y43683D01*
X39100Y43796D01*
X39137Y43919D01*
X39149Y44046D01*
Y44146D01*
X39137Y44273D01*
X39104Y44380D01*
X39995Y45271D01*
X41054D01*
X41075Y45220D01*
X41140Y45123D01*
X41223Y45040D01*
X41320Y44975D01*
X41427Y44931D01*
X41542Y44908D01*
X41658D01*
X41773Y44931D01*
X41880Y44975D01*
X41977Y45040D01*
X42060Y45123D01*
X42125Y45220D01*
X42169Y45327D01*
X42192Y45442D01*
Y45527D01*
X42242Y45548D01*
X42502Y45288D01*
X42576Y45238D01*
X42664Y45221D01*
X44175D01*
X44175Y45220D01*
X44240Y45123D01*
X44323Y45040D01*
X44420Y44975D01*
X44527Y44931D01*
X44642Y44908D01*
X44758D01*
X44873Y44931D01*
X44980Y44975D01*
X45077Y45040D01*
X45160Y45123D01*
X45225Y45220D01*
X45269Y45327D01*
X45292Y45442D01*
Y45558D01*
X45269Y45673D01*
X45248Y45724D01*
X45512Y45988D01*
X49280D01*
X49300Y45938D01*
X49240Y45877D01*
X49175Y45780D01*
X49154Y45729D01*
X48050D01*
X47962Y45712D01*
X47888Y45662D01*
X46951Y44725D01*
X46899Y44753D01*
X46777Y44790D01*
X46649Y44803D01*
X46522Y44790D01*
X46399Y44753D01*
X46287Y44692D01*
X46188Y44611D01*
X46106Y44512D01*
X46046Y44399D01*
X46009Y44277D01*
X45996Y44149D01*
Y44049D01*
X46009Y43922D01*
X46046Y43799D01*
X46106Y43687D01*
X46188Y43588D01*
X46287Y43506D01*
X46399Y43446D01*
X46522Y43409D01*
X46649Y43396D01*
X46777Y43409D01*
X46899Y43446D01*
X47012Y43506D01*
X47111Y43588D01*
X47192Y43687D01*
X47253Y43799D01*
X47290Y43922D01*
X47303Y44049D01*
Y44149D01*
X47290Y44277D01*
X47258Y44383D01*
X48145Y45271D01*
X49154D01*
X49175Y45220D01*
X49240Y45123D01*
X49323Y45040D01*
X49420Y44975D01*
X49527Y44931D01*
X49642Y44908D01*
X49758D01*
X49873Y44931D01*
X49980Y44975D01*
X50077Y45040D01*
X50160Y45123D01*
X50225Y45220D01*
X50269Y45327D01*
X50292Y45442D01*
Y45527D01*
X50342Y45548D01*
X50602Y45288D01*
X50676Y45238D01*
X50764Y45221D01*
X52275D01*
X52275Y45220D01*
X52340Y45123D01*
X52423Y45040D01*
X52520Y44975D01*
X52627Y44931D01*
X52742Y44908D01*
X52858D01*
X52973Y44931D01*
X53080Y44975D01*
X53177Y45040D01*
X53260Y45123D01*
X53325Y45220D01*
X53369Y45327D01*
X53392Y45442D01*
Y45558D01*
X53369Y45673D01*
X53348Y45724D01*
X53612Y45988D01*
X57380D01*
X57400Y45938D01*
X57340Y45877D01*
X57275Y45780D01*
X57254Y45729D01*
X56200D01*
X56112Y45712D01*
X56038Y45662D01*
X55101Y44725D01*
X55049Y44753D01*
X54927Y44790D01*
X54799Y44803D01*
X54672Y44790D01*
X54549Y44753D01*
X54437Y44692D01*
X54338Y44611D01*
X54256Y44512D01*
X54196Y44399D01*
X54159Y44277D01*
X54146Y44149D01*
Y44049D01*
X54159Y43922D01*
X54196Y43799D01*
X54256Y43687D01*
X54338Y43588D01*
X54437Y43506D01*
X54549Y43446D01*
X54672Y43409D01*
X54799Y43396D01*
X54927Y43409D01*
X55049Y43446D01*
X55162Y43506D01*
X55261Y43588D01*
X55342Y43687D01*
X55403Y43799D01*
X55440Y43922D01*
X55453Y44049D01*
Y44149D01*
X55440Y44277D01*
X55408Y44383D01*
X56295Y45271D01*
X57254D01*
X57275Y45220D01*
X57340Y45123D01*
X57423Y45040D01*
X57520Y44975D01*
X57627Y44931D01*
X57742Y44908D01*
X57858D01*
X57973Y44931D01*
X58080Y44975D01*
X58177Y45040D01*
X58260Y45123D01*
X58325Y45220D01*
X58369Y45327D01*
X58392Y45442D01*
Y45527D01*
X58442Y45548D01*
X58702Y45288D01*
X58776Y45238D01*
X58864Y45221D01*
X60354D01*
X60375Y45170D01*
X60440Y45073D01*
X60523Y44990D01*
X60620Y44925D01*
X60727Y44881D01*
X60842Y44858D01*
X60958D01*
X61073Y44881D01*
X61180Y44925D01*
X61277Y44990D01*
X61360Y45073D01*
X61425Y45170D01*
X61469Y45277D01*
X61492Y45392D01*
Y45508D01*
X61469Y45623D01*
X61425Y45730D01*
X61360Y45827D01*
X61277Y45910D01*
X61180Y45975D01*
X61073Y46019D01*
X60958Y46042D01*
X60842D01*
X60727Y46019D01*
X60620Y45975D01*
X60523Y45910D01*
X60440Y45827D01*
X60375Y45730D01*
X60354Y45679D01*
X58959D01*
X58259Y46379D01*
X58185Y46429D01*
X58097Y46447D01*
X53517D01*
X53429Y46429D01*
X53355Y46379D01*
X53024Y46048D01*
X52973Y46069D01*
X52858Y46092D01*
X52742D01*
X52627Y46069D01*
X52520Y46025D01*
X52423Y45960D01*
X52340Y45877D01*
X52275Y45780D01*
X52233Y45679D01*
X50859D01*
X50159Y46379D01*
X50085Y46429D01*
X49997Y46447D01*
X45417D01*
X45329Y46429D01*
X45255Y46379D01*
X44924Y46048D01*
X44873Y46069D01*
X44758Y46092D01*
X44642D01*
X44527Y46069D01*
X44420Y46025D01*
X44323Y45960D01*
X44240Y45877D01*
X44175Y45780D01*
X44133Y45679D01*
X42759D01*
X42059Y46379D01*
X41985Y46429D01*
X41897Y46447D01*
X37317D01*
X37229Y46429D01*
X37155Y46379D01*
X36824Y46048D01*
X36773Y46069D01*
X36658Y46092D01*
X36542D01*
X36427Y46069D01*
X36320Y46025D01*
X36315Y46022D01*
X35849Y46488D01*
Y49395D01*
X36183D01*
Y49881D01*
X36271Y49969D01*
X36317Y49950D01*
Y49395D01*
X36447D01*
Y49073D01*
X36427Y49069D01*
X36320Y49025D01*
X36223Y48960D01*
X36140Y48877D01*
X36075Y48780D01*
X36031Y48673D01*
X36008Y48558D01*
Y48442D01*
X36031Y48327D01*
X36075Y48220D01*
X36140Y48123D01*
X36223Y48040D01*
X36320Y47975D01*
X36427Y47931D01*
X36542Y47908D01*
X36658D01*
X36773Y47931D01*
X36880Y47975D01*
X36897Y47986D01*
X38092Y46792D01*
X38141Y46759D01*
X38200Y46747D01*
X66064D01*
X68059Y44752D01*
Y44532D01*
X68644D01*
Y44196D01*
X68656Y44137D01*
X68689Y44088D01*
X68777Y44000D01*
X68826Y43967D01*
X68885Y43955D01*
X69502D01*
X69543Y43947D01*
X69550Y43906D01*
Y43854D01*
X69574Y43765D01*
X69607Y43708D01*
X69604Y43704D01*
X69593Y43645D01*
Y43595D01*
X69409D01*
Y42805D01*
X69593D01*
Y42745D01*
X69405D01*
Y41955D01*
X69588D01*
Y41909D01*
X69600Y41850D01*
X69633Y41801D01*
X69792Y41642D01*
X69841Y41609D01*
X69870Y41603D01*
X69866Y41553D01*
X34349D01*
X34300Y41553D01*
X34251Y41555D01*
X34099Y41570D01*
X33905Y41629D01*
X33727Y41724D01*
X33571Y41852D01*
X33443Y42008D01*
X33347Y42187D01*
X33289Y42380D01*
X33274Y42532D01*
X33272Y42581D01*
X33269Y42595D01*
X33269Y42631D01*
X33244Y49741D01*
X33242Y49751D01*
X33260Y49938D01*
X33318Y50127D01*
X33411Y50301D01*
X33537Y50454D01*
X33689Y50580D01*
X33864Y50673D01*
X34053Y50730D01*
X34241Y50749D01*
X34250Y50747D01*
=======
%ADD10C,0.01000*%
%ADD17R,0.04724X0.05118*%
%ADD18R,0.04134X0.05315*%
%ADD19R,0.04724X0.01417*%
%ADD20O,0.04724X0.01417*%
%ADD21R,0.09252X0.06102*%
%ADD22R,0.05315X0.04134*%
%ADD23R,0.03937X0.02362*%
%ADD24R,0.04724X0.05906*%
%ADD40C,0.02500*%
%ADD41C,0.01500*%
%ADD42R,0.11000X0.12000*%
%ADD43O,0.11000X0.12000*%
%ADD44C,0.09843*%
%ADD45C,0.05512*%
G04:AMPARAMS|DCode=46|XSize=55.12mil|YSize=55.12mil|CornerRadius=13.78mil|HoleSize=0mil|Usage=FLASHONLY|Rotation=270.000|XOffset=0mil|YOffset=0mil|HoleType=Round|Shape=RoundedRectangle|*
%AMROUNDEDRECTD46*
21,1,0.05512,0.02756,0,0,270.0*
21,1,0.02756,0.05512,0,0,270.0*
1,1,0.02756,-0.01378,-0.01378*
1,1,0.02756,-0.01378,0.01378*
1,1,0.02756,0.01378,0.01378*
1,1,0.02756,0.01378,-0.01378*
%
%ADD46ROUNDEDRECTD46*%
%ADD47R,0.05512X0.05512*%
%ADD48C,0.05000*%
G36*
X490346Y507009D02*
X482778Y499441D01*
X482447Y498945D01*
X482370Y498559D01*
X478815D01*
Y495500D01*
X482177D01*
X485539D01*
Y497877D01*
X493133Y505471D01*
X532367D01*
X547978Y489859D01*
X548474Y489528D01*
X549059Y489411D01*
X559476D01*
X560062Y489528D01*
X560558Y489859D01*
X562139Y491441D01*
X562839D01*
Y495000D01*
X563339D01*
Y495500D01*
X566701D01*
Y496199D01*
X571972Y501471D01*
X586380D01*
X586575Y501051D01*
Y496914D01*
X586435Y496821D01*
X570987Y481373D01*
X554717D01*
X532166Y503923D01*
X531422Y504421D01*
X530544Y504595D01*
X518741D01*
X517863Y504421D01*
X517119Y503923D01*
X514649Y501453D01*
X514153Y501122D01*
X514082Y501051D01*
X506075D01*
Y497249D01*
X505435Y496821D01*
X488487Y479873D01*
X475530D01*
X450479Y504923D01*
X450409Y504971D01*
X450560Y505471D01*
X453367D01*
X468978Y489859D01*
X469474Y489528D01*
X470059Y489411D01*
X478315D01*
X478900Y489528D01*
X479396Y489859D01*
X480978Y491441D01*
X481677D01*
Y494500D01*
X478815D01*
Y493604D01*
X478324Y493113D01*
X477862Y493304D01*
Y498559D01*
X477375D01*
X477184Y499021D01*
X479348Y501185D01*
X480039Y501000D01*
X480961D01*
X481851Y501238D01*
X482649Y501699D01*
X483301Y502351D01*
X483762Y503149D01*
X484000Y504039D01*
Y504961D01*
X483762Y505851D01*
X483301Y506649D01*
X482979Y506971D01*
X483186Y507471D01*
X490154D01*
X490346Y507009D01*
D02*
G37*
G36*
X755718Y499368D02*
X755526Y498906D01*
X751505D01*
X745402Y505009D01*
X745594Y505471D01*
X749614D01*
X755718Y499368D01*
D02*
G37*
G36*
X436190Y504971D02*
X436119Y504923D01*
X434801Y503605D01*
X434680Y503425D01*
X433351Y502095D01*
X432502D01*
X432280Y502051D01*
X425075D01*
Y499282D01*
X423789D01*
X422911Y499108D01*
X422167Y498610D01*
X417207Y493650D01*
X416709Y492906D01*
X416535Y492028D01*
Y487779D01*
X411628Y482873D01*
X389872D01*
X384429Y488316D01*
Y495524D01*
X384254Y496402D01*
X383757Y497146D01*
X375894Y505009D01*
X376085Y505471D01*
X396309D01*
Y498559D01*
X394476D01*
Y495500D01*
X397839D01*
Y495000D01*
D01*
Y495500D01*
X401201D01*
Y498559D01*
X399368D01*
Y505471D01*
X436038D01*
X436190Y504971D01*
D02*
G37*
G36*
X771011Y507302D02*
X772946Y506715D01*
X774728Y505762D01*
X776291Y504480D01*
X777573Y502917D01*
X778526Y501135D01*
X779113Y499200D01*
X779299Y497305D01*
X779269Y497153D01*
X779359Y426386D01*
X779368Y426340D01*
X779238Y424687D01*
X778840Y423029D01*
X778187Y421453D01*
X777295Y419998D01*
X776187Y418701D01*
X774890Y417593D01*
X773436Y416701D01*
X771860Y416049D01*
X770201Y415650D01*
X768546Y415520D01*
X768500Y415529D01*
X751012D01*
X750963Y416029D01*
X751709Y416178D01*
X752453Y416675D01*
X760196Y424418D01*
X768536D01*
X769413Y424593D01*
X770158Y425090D01*
X772067Y427000D01*
X772461D01*
X773351Y427239D01*
X774149Y427699D01*
X774801Y428351D01*
X775261Y429149D01*
X775500Y430039D01*
Y430961D01*
X775261Y431851D01*
X774801Y432649D01*
X774294Y433156D01*
Y445000D01*
X774119Y445878D01*
X773622Y446622D01*
X762748Y457496D01*
X762004Y457994D01*
X761126Y458168D01*
X758012D01*
X758006Y458180D01*
X757306Y458880D01*
X756450Y459374D01*
X755785Y459552D01*
Y460070D01*
X756450Y460248D01*
X757306Y460743D01*
X758006Y461442D01*
X758500Y462298D01*
X758756Y463254D01*
Y464243D01*
X758500Y465198D01*
X758006Y466054D01*
X757306Y466753D01*
X756450Y467248D01*
X756182Y467320D01*
X756248Y467820D01*
X756378D01*
X757306Y468004D01*
X758092Y468530D01*
X758618Y469316D01*
X758803Y470244D01*
Y473000D01*
X758618Y473928D01*
X758092Y474714D01*
X757306Y475240D01*
X756378Y475424D01*
X753622D01*
X752694Y475240D01*
X751908Y474714D01*
X751382Y473928D01*
X751197Y473000D01*
Y470244D01*
X751382Y469316D01*
X751908Y468530D01*
X752694Y468004D01*
X753622Y467820D01*
X753752D01*
X753818Y467320D01*
X753550Y467248D01*
X752694Y466753D01*
X751995Y466054D01*
X751500Y465198D01*
X751244Y464243D01*
Y463254D01*
X751500Y462298D01*
X751995Y461442D01*
X752694Y460743D01*
X753550Y460248D01*
X754215Y460070D01*
Y459552D01*
X753550Y459374D01*
X752694Y458880D01*
X751995Y458180D01*
X751500Y457324D01*
X751244Y456368D01*
Y455380D01*
X751500Y454424D01*
X751995Y453568D01*
X752694Y452869D01*
X753550Y452374D01*
X754215Y452196D01*
Y451678D01*
X753550Y451500D01*
X752694Y451006D01*
X751995Y450306D01*
X751500Y449450D01*
X751246Y448500D01*
X755000D01*
X758754D01*
X758500Y449450D01*
X758006Y450306D01*
X757306Y451006D01*
X756450Y451500D01*
X755785Y451678D01*
Y452196D01*
X756450Y452374D01*
X757306Y452869D01*
X758006Y453568D01*
X758012Y453580D01*
X760176D01*
X769706Y444050D01*
Y433156D01*
X769199Y432649D01*
X768739Y431851D01*
X768500Y430961D01*
Y430039D01*
X768525Y429946D01*
X767585Y429006D01*
X759246D01*
X758368Y428832D01*
X757624Y428335D01*
X749881Y420591D01*
X747405D01*
Y423000D01*
X744043D01*
Y424000D01*
X747405D01*
Y427453D01*
X745529D01*
Y428047D01*
X747362D01*
Y431500D01*
X744000D01*
Y432000D01*
X743500D01*
Y435953D01*
X742801D01*
X740672Y438081D01*
X740176Y438413D01*
X739591Y438529D01*
X729862D01*
Y440953D01*
X727000D01*
Y437000D01*
X726000D01*
Y440953D01*
X725301D01*
X724402Y441851D01*
X724594Y442313D01*
X745323D01*
X745908Y442430D01*
X746404Y442761D01*
X748581Y444938D01*
X748913Y445434D01*
X749029Y446020D01*
Y460500D01*
X748913Y461085D01*
X748582Y461581D01*
X741401Y468762D01*
X740905Y469093D01*
X740406Y469193D01*
Y471658D01*
X734272D01*
Y464342D01*
X740406D01*
Y464778D01*
X740868Y464970D01*
X745971Y459867D01*
Y458346D01*
X745509Y458154D01*
X742581Y461081D01*
X742085Y461413D01*
X741500Y461529D01*
X740406D01*
Y463658D01*
X734272D01*
Y456343D01*
X740406D01*
Y458376D01*
X740906Y458432D01*
X743971Y455367D01*
Y451360D01*
X743889Y451304D01*
X743210Y451432D01*
X743167Y451496D01*
X741581Y453081D01*
X741085Y453413D01*
X740500Y453529D01*
X740406D01*
Y455657D01*
X734272D01*
Y449372D01*
X732728D01*
Y455657D01*
X728965D01*
X728824Y455842D01*
X729073Y456343D01*
X732728D01*
Y463658D01*
X728965D01*
X728824Y463842D01*
X729073Y464342D01*
X732728D01*
Y471658D01*
X728757D01*
X728326Y472089D01*
X728541Y472581D01*
X731653D01*
X732320Y472713D01*
X732885Y473091D01*
X733263Y473656D01*
X733396Y474323D01*
X733290Y474852D01*
X733576Y475352D01*
X749882D01*
X750467Y475469D01*
X750963Y475800D01*
X760228Y485065D01*
X760433D01*
X760581Y485094D01*
X765658D01*
Y491228D01*
X758343D01*
Y487505D01*
X757119Y486282D01*
X756658Y486474D01*
Y491228D01*
X749342D01*
Y487257D01*
X748619Y486534D01*
X748158Y486726D01*
Y491228D01*
X741529D01*
Y492772D01*
X748158D01*
Y497274D01*
X748619Y497466D01*
X749342Y496743D01*
Y492772D01*
X756658D01*
Y497774D01*
X757119Y497966D01*
X758343Y496743D01*
Y492772D01*
X765658D01*
Y498906D01*
X760505D01*
X752402Y507009D01*
X752594Y507471D01*
X769000D01*
X769098Y507490D01*
X771011Y507302D01*
D02*
G37*
G36*
X478021Y506971D02*
X477699Y506649D01*
X477239Y505851D01*
X477000Y504961D01*
Y504039D01*
X477185Y503348D01*
X473419Y499581D01*
X473087Y499085D01*
X472982Y498559D01*
X471138D01*
Y492602D01*
X470638Y492525D01*
X456154Y507009D01*
X456346Y507471D01*
X477814D01*
X478021Y506971D01*
D02*
G37*
G36*
X551145D02*
X550851Y506801D01*
X550199Y506149D01*
X549739Y505351D01*
X549500Y504461D01*
Y503539D01*
X549739Y502649D01*
X550199Y501851D01*
X550851Y501199D01*
X551649Y500738D01*
X552539Y500500D01*
X553461D01*
X554351Y500738D01*
X555149Y501199D01*
X555801Y501851D01*
X556261Y502649D01*
X556500Y503539D01*
Y504337D01*
X557633Y505471D01*
X563119D01*
X563310Y505009D01*
X556861Y498559D01*
X552299D01*
Y492470D01*
X549693D01*
X535154Y507009D01*
X535346Y507471D01*
X551011D01*
X551145Y506971D01*
D02*
G37*
G36*
X624919Y486919D02*
X625415Y486587D01*
X625704Y486529D01*
X625655Y486029D01*
X614733D01*
X614694Y486227D01*
X614247Y487305D01*
X613599Y488275D01*
X612775Y489099D01*
X611805Y489747D01*
X610727Y490194D01*
X609583Y490421D01*
X608417D01*
X607273Y490194D01*
X606313Y489796D01*
X605974Y489963D01*
X605829Y490104D01*
Y492949D01*
X610425D01*
Y500705D01*
X610925Y500912D01*
X624919Y486919D01*
D02*
G37*
G36*
X599173Y501051D02*
Y492949D01*
X602770D01*
Y489201D01*
X602886Y488616D01*
X603218Y488119D01*
X603865Y487472D01*
X603753Y487305D01*
X603306Y486227D01*
X603079Y485083D01*
Y483917D01*
X603306Y482773D01*
X603753Y481695D01*
X604401Y480725D01*
X605225Y479901D01*
X606195Y479253D01*
X607273Y478806D01*
X608417Y478579D01*
X609583D01*
X610727Y478806D01*
X611805Y479253D01*
X612775Y479901D01*
X613599Y480725D01*
X614247Y481695D01*
X614694Y482773D01*
X614733Y482971D01*
X659919D01*
X660504Y483087D01*
X661000Y483419D01*
X662579Y484997D01*
X663079Y484790D01*
Y483917D01*
X663306Y482773D01*
X663753Y481695D01*
X664401Y480725D01*
X665225Y479901D01*
X666195Y479253D01*
X667273Y478806D01*
X668417Y478579D01*
X669583D01*
X670727Y478806D01*
X671805Y479253D01*
X672775Y479901D01*
X673599Y480725D01*
X674247Y481695D01*
X674694Y482773D01*
X674921Y483917D01*
Y484320D01*
X675383Y484511D01*
X676476Y483419D01*
X676972Y483087D01*
X677557Y482971D01*
X678386D01*
X678971Y483087D01*
X679467Y483419D01*
X683608Y487559D01*
X686502D01*
Y481612D01*
X686439Y481295D01*
Y477181D01*
X680594D01*
Y476529D01*
X573022D01*
X572920Y477029D01*
X573559Y477457D01*
X581579Y485476D01*
X582079Y485269D01*
Y484417D01*
X582306Y483273D01*
X582753Y482195D01*
X583401Y481225D01*
X584225Y480401D01*
X585195Y479753D01*
X586273Y479306D01*
X587417Y479079D01*
X588583D01*
X589727Y479306D01*
X590805Y479753D01*
X591775Y480401D01*
X592599Y481225D01*
X593247Y482195D01*
X593694Y483273D01*
X593921Y484417D01*
Y485583D01*
X593694Y486727D01*
X593247Y487805D01*
X592599Y488775D01*
X591775Y489599D01*
X590805Y490247D01*
X589727Y490694D01*
X588583Y490921D01*
X587731D01*
X587524Y491421D01*
X589007Y492905D01*
X590400D01*
X590621Y492949D01*
X597827D01*
Y501051D01*
X598021Y501471D01*
X598979D01*
X599173Y501051D01*
D02*
G37*
G36*
X755470Y484632D02*
X749248Y478411D01*
X745475D01*
X745284Y478873D01*
X751505Y485094D01*
X755278D01*
X755470Y484632D01*
D02*
G37*
G36*
X552144Y477457D02*
X552784Y477029D01*
X552682Y476529D01*
X538633D01*
X533135Y482028D01*
X533247Y482195D01*
X533694Y483273D01*
X533921Y484417D01*
Y485583D01*
X533694Y486727D01*
X533247Y487805D01*
X532599Y488775D01*
X531775Y489599D01*
X530805Y490247D01*
X529727Y490694D01*
X528583Y490921D01*
X527417D01*
X526529Y490745D01*
X526029Y491087D01*
Y492949D01*
X529925D01*
Y499022D01*
X530387Y499214D01*
X552144Y477457D01*
D02*
G37*
G36*
X472957Y475957D02*
X473702Y475459D01*
X474580Y475285D01*
X489437D01*
X490315Y475459D01*
X491059Y475957D01*
X500579Y485476D01*
X501079Y485269D01*
Y484417D01*
X501306Y483273D01*
X501753Y482195D01*
X502401Y481225D01*
X503225Y480401D01*
X504195Y479753D01*
X505273Y479306D01*
X506417Y479079D01*
X507583D01*
X508727Y479306D01*
X509805Y479753D01*
X510775Y480401D01*
X511599Y481225D01*
X512247Y482195D01*
X512694Y483273D01*
X512921Y484417D01*
Y485583D01*
X512694Y486727D01*
X512247Y487805D01*
X511599Y488775D01*
X510775Y489599D01*
X509805Y490247D01*
X508727Y490694D01*
X507583Y490921D01*
X506731D01*
X506524Y491421D01*
X508007Y492905D01*
X509900D01*
X510121Y492949D01*
X517327D01*
Y497720D01*
X517562Y497878D01*
X518211Y498527D01*
X518673Y498336D01*
Y492949D01*
X522971D01*
Y489581D01*
X523087Y488996D01*
X523318Y488651D01*
X522753Y487805D01*
X522306Y486727D01*
X522079Y485583D01*
Y484417D01*
X522306Y483273D01*
X522753Y482195D01*
X523401Y481225D01*
X524225Y480401D01*
X525195Y479753D01*
X526273Y479306D01*
X527417Y479079D01*
X528583D01*
X529727Y479306D01*
X530805Y479753D01*
X530972Y479865D01*
X535846Y474991D01*
X535654Y474529D01*
X459633D01*
X452135Y482028D01*
X452247Y482195D01*
X452694Y483273D01*
X452921Y484417D01*
Y485583D01*
X452694Y486727D01*
X452247Y487805D01*
X451599Y488775D01*
X450775Y489599D01*
X449805Y490247D01*
X448727Y490694D01*
X447583Y490921D01*
X446417D01*
X445273Y490694D01*
X445185Y490657D01*
X444829Y491014D01*
Y493949D01*
X448925D01*
Y499336D01*
X449387Y499527D01*
X472957Y475957D01*
D02*
G37*
G36*
X726448Y484618D02*
X726613Y484515D01*
X726737Y483892D01*
X726881Y483677D01*
X727090Y483280D01*
X726881Y482882D01*
X726737Y482667D01*
X726604Y482000D01*
X726737Y481333D01*
X726881Y481118D01*
X727090Y480721D01*
X726881Y480323D01*
X726737Y480108D01*
X726604Y479441D01*
X726737Y478774D01*
X727115Y478209D01*
Y478114D01*
X726737Y477549D01*
X726604Y476882D01*
X726737Y476215D01*
X726881Y476000D01*
X727090Y475602D01*
X726881Y475205D01*
X726737Y474990D01*
X726637Y474485D01*
X726144Y474271D01*
X716661Y483754D01*
X716852Y484216D01*
X724868D01*
X725551Y484351D01*
X726130Y484738D01*
X726130Y484739D01*
X726448Y484618D01*
D02*
G37*
G36*
X680594Y472819D02*
X686439D01*
Y467421D01*
Y463181D01*
X683422D01*
X683176Y463550D01*
X673717Y473009D01*
X673909Y473471D01*
X680594D01*
Y472819D01*
D02*
G37*
G36*
X637310Y503009D02*
X636919Y502617D01*
X636587Y502121D01*
X636471Y501535D01*
Y498059D01*
X634799D01*
Y490941D01*
X641524D01*
Y498059D01*
X639529D01*
Y500902D01*
X640098Y501471D01*
X644165D01*
X644421Y501058D01*
X644420Y500971D01*
X644309Y500414D01*
Y498059D01*
X642476D01*
Y495000D01*
X645839D01*
X649201D01*
Y498059D01*
X647368D01*
Y499471D01*
X695461D01*
X695653Y499009D01*
X692306Y495661D01*
X692000D01*
Y493980D01*
X694950D01*
X700441Y499471D01*
X702399D01*
X702622Y499063D01*
Y497854D01*
X705984D01*
Y496854D01*
X702622D01*
Y495646D01*
X702622Y495646D01*
X702622D01*
X702658Y495146D01*
X702589Y494795D01*
X702721Y494129D01*
X703099Y493564D01*
Y493468D01*
X702721Y492903D01*
X702589Y492236D01*
X702721Y491570D01*
X702865Y491354D01*
X703074Y490957D01*
X702865Y490559D01*
X702721Y490344D01*
X702589Y489677D01*
X702721Y489010D01*
X702865Y488795D01*
X703074Y488398D01*
X702865Y488000D01*
X702721Y487785D01*
X702589Y487118D01*
X702721Y486451D01*
X703099Y485886D01*
Y485791D01*
X702721Y485226D01*
X702589Y484559D01*
X702721Y483892D01*
X702865Y483677D01*
X703074Y483280D01*
X702865Y482882D01*
X702721Y482667D01*
X702589Y482000D01*
X702721Y481333D01*
X702865Y481118D01*
X703074Y480721D01*
X702865Y480323D01*
X702721Y480108D01*
X702589Y479441D01*
X702721Y478774D01*
X703099Y478209D01*
Y478114D01*
X702721Y477549D01*
X702589Y476882D01*
X702721Y476215D01*
X702865Y476000D01*
X703074Y475602D01*
X702865Y475205D01*
X702721Y474990D01*
X702589Y474323D01*
X702721Y473656D01*
X703099Y473091D01*
X703664Y472713D01*
X704331Y472581D01*
X707638D01*
X708305Y472713D01*
X708425Y472793D01*
X711044D01*
X714971Y468866D01*
Y466657D01*
X713433D01*
Y459342D01*
X717882D01*
X718089Y458843D01*
X717404Y458157D01*
X713433D01*
Y450843D01*
X713063Y450529D01*
X712260D01*
X711890Y450843D01*
Y458157D01*
X705756D01*
Y456029D01*
X701274D01*
X698435Y458869D01*
Y466675D01*
X698935Y466809D01*
X699199Y466351D01*
X699851Y465699D01*
X700649Y465239D01*
X701539Y465000D01*
X702461D01*
X703351Y465239D01*
X704149Y465699D01*
X704350Y465900D01*
X705756Y464495D01*
Y459342D01*
X711890D01*
Y466657D01*
X707919D01*
X705760Y468816D01*
X705490Y468996D01*
X705262Y469851D01*
X704801Y470649D01*
X704149Y471301D01*
X703351Y471762D01*
X702461Y472000D01*
X701539D01*
X700649Y471762D01*
X699851Y471301D01*
X699199Y470649D01*
X698738Y469851D01*
X698500Y468961D01*
Y468585D01*
X698000Y468433D01*
X697987Y468453D01*
X696435Y470005D01*
Y483382D01*
X696318Y483967D01*
X695987Y484463D01*
X694468Y485982D01*
Y488181D01*
X689561D01*
Y490166D01*
X690694Y491299D01*
X691000D01*
Y492980D01*
X688050D01*
X687064Y491995D01*
X686594Y491921D01*
X686594Y491921D01*
X686594Y491921D01*
X680657D01*
Y488935D01*
X677972Y486249D01*
X676923Y487297D01*
X676834Y487745D01*
X676503Y488241D01*
X672741Y492003D01*
X672245Y492334D01*
X671660Y492451D01*
X666340D01*
X665755Y492334D01*
X665259Y492003D01*
X659285Y486029D01*
X645598D01*
X645548Y486529D01*
X645838Y486587D01*
X646334Y486919D01*
X646920Y487504D01*
X647252Y488000D01*
X647368Y488586D01*
Y490941D01*
X649201D01*
Y494000D01*
X645839D01*
X642476D01*
Y490941D01*
X644309D01*
Y489529D01*
X626634D01*
X613154Y503009D01*
X613346Y503471D01*
X637119D01*
X637310Y503009D01*
D02*
G37*
G36*
X379841Y494573D02*
Y487365D01*
X380015Y486487D01*
X380512Y485743D01*
X387299Y478957D01*
X388043Y478459D01*
X388921Y478285D01*
X412579D01*
X413457Y478459D01*
X414201Y478957D01*
X419594Y484350D01*
X420127Y484175D01*
X420306Y483273D01*
X420753Y482195D01*
X421401Y481225D01*
X422225Y480401D01*
X423195Y479753D01*
X424273Y479306D01*
X425417Y479079D01*
X426583D01*
X427727Y479306D01*
X428805Y479753D01*
X429775Y480401D01*
X430599Y481225D01*
X431247Y482195D01*
X431694Y483273D01*
X431921Y484417D01*
Y485583D01*
X431694Y486727D01*
X431247Y487805D01*
X430599Y488775D01*
X429775Y489599D01*
X428805Y490247D01*
X427727Y490694D01*
X426583Y490921D01*
X425417D01*
X424273Y490694D01*
X423195Y490247D01*
X422225Y489599D01*
X421623Y488997D01*
X421123Y489204D01*
Y491077D01*
X424575Y494529D01*
X425075Y494322D01*
Y493949D01*
X436327D01*
Y498583D01*
X437211Y499467D01*
X437673Y499276D01*
Y493949D01*
X441770D01*
Y490380D01*
X441886Y489795D01*
X442218Y489299D01*
X442571Y488945D01*
X442401Y488775D01*
X441753Y487805D01*
X441306Y486727D01*
X441079Y485583D01*
Y484417D01*
X441306Y483273D01*
X441753Y482195D01*
X442401Y481225D01*
X443225Y480401D01*
X444195Y479753D01*
X445273Y479306D01*
X446417Y479079D01*
X447583D01*
X448727Y479306D01*
X449805Y479753D01*
X449972Y479865D01*
X457919Y471919D01*
X458415Y471587D01*
X459000Y471471D01*
X670929D01*
X680565Y461835D01*
Y461681D01*
X680594Y461533D01*
Y458819D01*
X686439D01*
Y453921D01*
Y449681D01*
X682757D01*
X662357Y470081D01*
X661861Y470413D01*
X661276Y470529D01*
X382633D01*
X371135Y482028D01*
X371247Y482195D01*
X371694Y483273D01*
X371921Y484417D01*
Y485583D01*
X371694Y486727D01*
X371247Y487805D01*
X370599Y488775D01*
X369775Y489599D01*
X368805Y490247D01*
X367727Y490694D01*
X367529Y490733D01*
Y493949D01*
X374425D01*
Y499336D01*
X374887Y499527D01*
X379841Y494573D01*
D02*
G37*
G36*
X726594Y453495D02*
Y449372D01*
X720426D01*
X719717Y450081D01*
X719326Y450343D01*
X719429Y450843D01*
X719567D01*
Y455995D01*
X721148Y457576D01*
X721431Y458000D01*
X721661Y458080D01*
X721994Y458095D01*
X726594Y453495D01*
D02*
G37*
G36*
X708553Y438340D02*
X708739Y437649D01*
X709199Y436851D01*
X709851Y436199D01*
X710649Y435739D01*
X711539Y435500D01*
X712461D01*
X713351Y435739D01*
X713877Y436042D01*
X714001Y435919D01*
X714497Y435587D01*
X715082Y435471D01*
X716051D01*
Y433047D01*
X722775D01*
X722775Y433047D01*
X723138D01*
Y433047D01*
X723275Y433047D01*
X724231D01*
X724422Y432585D01*
X723107Y431270D01*
X721531D01*
Y431921D01*
X719063D01*
Y429740D01*
Y427559D01*
X721531D01*
Y428211D01*
X722981D01*
X723468Y428181D01*
X723468Y427794D01*
Y423819D01*
X725869D01*
X726437Y423706D01*
X729050D01*
X730687Y422069D01*
X731431Y421572D01*
X732309Y421397D01*
X733595D01*
Y419547D01*
X736972D01*
X737195Y419325D01*
X737312Y418737D01*
X737809Y417993D01*
X739127Y416675D01*
X739871Y416178D01*
X740617Y416029D01*
X740568Y415529D01*
X713361D01*
X713311Y416029D01*
X713601Y416087D01*
X714097Y416419D01*
X717757Y420079D01*
X721531D01*
Y424441D01*
X715594D01*
Y422242D01*
X712382Y419029D01*
X700096D01*
X700084Y419047D01*
X700351Y419547D01*
X700775D01*
Y419547D01*
X701138D01*
Y419547D01*
X704000D01*
Y423500D01*
X704500D01*
Y424000D01*
X707862D01*
Y427453D01*
X706073D01*
Y428047D01*
X707906D01*
Y431500D01*
X704543D01*
Y432500D01*
X707906D01*
Y435953D01*
X706073D01*
Y436567D01*
X708032Y438526D01*
X708553Y438340D01*
D02*
G37*
G36*
X733551Y428047D02*
X734609D01*
Y427453D01*
X733595D01*
Y426357D01*
X733095Y426150D01*
X731622Y427622D01*
X730878Y428119D01*
X730000Y428294D01*
X726437D01*
X725869Y428181D01*
X725007D01*
X724850Y428585D01*
X724844Y428681D01*
X727581Y431419D01*
X727913Y431915D01*
X728029Y432500D01*
Y433047D01*
X729862D01*
Y435471D01*
X733551D01*
Y428047D01*
D02*
G37*
G36*
X342500Y507471D02*
X353057D01*
X353248Y507009D01*
X340419Y494179D01*
X340087Y493683D01*
X339971Y493098D01*
Y458004D01*
X340087Y457419D01*
X340419Y456923D01*
X342976Y454365D01*
X342746Y453504D01*
X346500D01*
X350254D01*
X350000Y454454D01*
X349505Y455310D01*
X348806Y456009D01*
X347950Y456504D01*
X347285Y456682D01*
Y457200D01*
X347950Y457378D01*
X348806Y457872D01*
X349505Y458572D01*
X350000Y459428D01*
X350256Y460384D01*
Y461373D01*
X350000Y462328D01*
X349505Y463184D01*
X348806Y463883D01*
X347950Y464378D01*
X347285Y464556D01*
Y465074D01*
X347950Y465252D01*
X348806Y465746D01*
X349505Y466446D01*
X350000Y467302D01*
X350256Y468258D01*
Y469246D01*
X350000Y470202D01*
X349505Y471058D01*
X348806Y471758D01*
X347950Y472252D01*
X347285Y472430D01*
Y472948D01*
X347950Y473126D01*
X348806Y473621D01*
X349505Y474320D01*
X350000Y475176D01*
X350256Y476131D01*
Y477120D01*
X350000Y478076D01*
X349505Y478932D01*
X348806Y479632D01*
X347950Y480126D01*
X347509Y480244D01*
X347575Y480744D01*
X350256D01*
Y488256D01*
X343029D01*
Y492464D01*
X350113Y499548D01*
X350575Y499356D01*
Y493949D01*
X353907D01*
Y463926D01*
X354081Y463048D01*
X354579Y462303D01*
X360281Y456601D01*
X360079Y455583D01*
Y454417D01*
X360306Y453273D01*
X360753Y452195D01*
X361401Y451225D01*
X362225Y450401D01*
X363195Y449753D01*
X364273Y449306D01*
X365417Y449079D01*
X366583D01*
X367727Y449306D01*
X368805Y449753D01*
X369775Y450401D01*
X370599Y451225D01*
X371247Y452195D01*
X371694Y453273D01*
X371921Y454417D01*
Y455583D01*
X371694Y456727D01*
X371482Y457238D01*
X374121Y459877D01*
X411796D01*
X412003Y459377D01*
X411401Y458775D01*
X410753Y457805D01*
X410541Y457294D01*
X399000D01*
X398122Y457119D01*
X397378Y456622D01*
X387975Y447220D01*
X387460Y447495D01*
X386235Y447867D01*
X384961Y447992D01*
X383686Y447867D01*
X382461Y447495D01*
X381332Y446891D01*
X380342Y446079D01*
X379530Y445089D01*
X378926Y443960D01*
X378555Y442735D01*
X378429Y441461D01*
Y440461D01*
X378555Y439186D01*
X378926Y437961D01*
X379530Y436832D01*
X380342Y435842D01*
X381332Y435030D01*
X382461Y434426D01*
X383686Y434055D01*
X384961Y433929D01*
X386235Y434055D01*
X387460Y434426D01*
X388589Y435030D01*
X389579Y435842D01*
X390391Y436832D01*
X390995Y437961D01*
X391367Y439186D01*
X391492Y440461D01*
Y441461D01*
X391367Y442735D01*
X391044Y443799D01*
X399950Y452706D01*
X410541D01*
X410753Y452195D01*
X411401Y451225D01*
X412225Y450401D01*
X413195Y449753D01*
X414273Y449306D01*
X415417Y449079D01*
X416583D01*
X417727Y449306D01*
X418805Y449753D01*
X419775Y450401D01*
X420599Y451225D01*
X421247Y452195D01*
X421694Y453273D01*
X421921Y454417D01*
Y455269D01*
X422421Y455476D01*
X425020Y452878D01*
X425764Y452381D01*
X426642Y452206D01*
X441748D01*
X441753Y452195D01*
X442401Y451225D01*
X443225Y450401D01*
X444195Y449753D01*
X445273Y449306D01*
X446417Y449079D01*
X447583D01*
X448727Y449306D01*
X449805Y449753D01*
X450775Y450401D01*
X451599Y451225D01*
X452247Y452195D01*
X452694Y453273D01*
X452921Y454417D01*
Y455583D01*
X452694Y456727D01*
X452482Y457238D01*
X455122Y459877D01*
X492796D01*
X493003Y459377D01*
X492401Y458775D01*
X491753Y457805D01*
X491541Y457294D01*
X480500D01*
X479622Y457119D01*
X478878Y456622D01*
X469508Y447253D01*
X468993Y447528D01*
X467768Y447900D01*
X466494Y448025D01*
X465220Y447900D01*
X463994Y447528D01*
X462865Y446924D01*
X461875Y446112D01*
X461063Y445122D01*
X460460Y443993D01*
X460088Y442768D01*
X459962Y441494D01*
Y440494D01*
X460088Y439220D01*
X460460Y437994D01*
X461063Y436865D01*
X461875Y435875D01*
X462865Y435063D01*
X463994Y434459D01*
X465220Y434088D01*
X466494Y433962D01*
X467768Y434088D01*
X468993Y434459D01*
X470122Y435063D01*
X471112Y435875D01*
X471924Y436865D01*
X472528Y437994D01*
X472900Y439220D01*
X473025Y440494D01*
Y441494D01*
X472900Y442768D01*
X472577Y443832D01*
X481450Y452706D01*
X491541D01*
X491753Y452195D01*
X492401Y451225D01*
X493225Y450401D01*
X494195Y449753D01*
X495273Y449306D01*
X496417Y449079D01*
X497583D01*
X498727Y449306D01*
X499805Y449753D01*
X500775Y450401D01*
X501599Y451225D01*
X502247Y452195D01*
X502694Y453273D01*
X502921Y454417D01*
Y455269D01*
X503421Y455476D01*
X506019Y452878D01*
X506764Y452381D01*
X507642Y452206D01*
X522748D01*
X522753Y452195D01*
X523401Y451225D01*
X524225Y450401D01*
X525195Y449753D01*
X526273Y449306D01*
X527417Y449079D01*
X528583D01*
X529727Y449306D01*
X530805Y449753D01*
X531775Y450401D01*
X532599Y451225D01*
X533247Y452195D01*
X533694Y453273D01*
X533921Y454417D01*
Y455583D01*
X533694Y456727D01*
X533482Y457238D01*
X536122Y459877D01*
X573796D01*
X574003Y459377D01*
X573401Y458775D01*
X572753Y457805D01*
X572541Y457294D01*
X562000D01*
X561122Y457119D01*
X560378Y456622D01*
X551008Y447253D01*
X550493Y447528D01*
X549268Y447900D01*
X547994Y448025D01*
X546720Y447900D01*
X545494Y447528D01*
X544365Y446924D01*
X543375Y446112D01*
X542563Y445122D01*
X541959Y443993D01*
X541588Y442768D01*
X541462Y441494D01*
Y440494D01*
X541588Y439220D01*
X541959Y437994D01*
X542563Y436865D01*
X543375Y435875D01*
X544365Y435063D01*
X545494Y434459D01*
X546720Y434088D01*
X547994Y433962D01*
X549268Y434088D01*
X550493Y434459D01*
X551622Y435063D01*
X552612Y435875D01*
X553425Y436865D01*
X554028Y437994D01*
X554400Y439220D01*
X554525Y440494D01*
Y441494D01*
X554400Y442768D01*
X554077Y443832D01*
X562950Y452706D01*
X572541D01*
X572753Y452195D01*
X573401Y451225D01*
X574225Y450401D01*
X575195Y449753D01*
X576273Y449306D01*
X577417Y449079D01*
X578583D01*
X579727Y449306D01*
X580805Y449753D01*
X581775Y450401D01*
X582599Y451225D01*
X583247Y452195D01*
X583694Y453273D01*
X583921Y454417D01*
Y455269D01*
X584421Y455476D01*
X587019Y452878D01*
X587764Y452381D01*
X588642Y452206D01*
X603541D01*
X603753Y451695D01*
X604401Y450725D01*
X605225Y449901D01*
X606195Y449253D01*
X607273Y448806D01*
X608417Y448579D01*
X609583D01*
X610727Y448806D01*
X611805Y449253D01*
X612775Y449901D01*
X613599Y450725D01*
X614247Y451695D01*
X614694Y452773D01*
X614921Y453917D01*
Y455083D01*
X614694Y456227D01*
X614247Y457305D01*
X613599Y458275D01*
X612775Y459099D01*
X611805Y459747D01*
X610727Y460194D01*
X609583Y460421D01*
X608417D01*
X607273Y460194D01*
X606195Y459747D01*
X605225Y459099D01*
X604401Y458275D01*
X603753Y457305D01*
X603541Y456794D01*
X589592D01*
X582593Y463793D01*
X581848Y464291D01*
X580970Y464465D01*
X535171D01*
X534293Y464291D01*
X533549Y463793D01*
X530238Y460482D01*
X529727Y460694D01*
X528583Y460921D01*
X527417D01*
X526273Y460694D01*
X525195Y460247D01*
X524225Y459599D01*
X523401Y458775D01*
X522753Y457805D01*
X522334Y456794D01*
X508592D01*
X501593Y463793D01*
X500848Y464291D01*
X499970Y464465D01*
X454171D01*
X453293Y464291D01*
X452549Y463793D01*
X449238Y460482D01*
X448727Y460694D01*
X447583Y460921D01*
X446417D01*
X445273Y460694D01*
X444195Y460247D01*
X443225Y459599D01*
X442401Y458775D01*
X441753Y457805D01*
X441334Y456794D01*
X427592D01*
X420593Y463793D01*
X419848Y464291D01*
X418970Y464465D01*
X373171D01*
X372293Y464291D01*
X371549Y463793D01*
X368238Y460482D01*
X367727Y460694D01*
X366583Y460921D01*
X365417D01*
X364273Y460694D01*
X363195Y460247D01*
X363152Y460219D01*
X358495Y464876D01*
Y493949D01*
X361827D01*
Y498807D01*
X362711Y499691D01*
X363173Y499500D01*
Y493949D01*
X364471D01*
Y490733D01*
X364273Y490694D01*
X363195Y490247D01*
X362225Y489599D01*
X361401Y488775D01*
X360753Y487805D01*
X360306Y486727D01*
X360079Y485583D01*
Y484417D01*
X360306Y483273D01*
X360753Y482195D01*
X361401Y481225D01*
X362225Y480401D01*
X363195Y479753D01*
X364273Y479306D01*
X365417Y479079D01*
X366583D01*
X367727Y479306D01*
X368805Y479753D01*
X368972Y479865D01*
X380919Y467919D01*
X381415Y467587D01*
X382000Y467471D01*
X660642D01*
X680594Y447518D01*
Y445319D01*
X686439D01*
Y441957D01*
X686555Y441372D01*
X686887Y440876D01*
X687766Y439997D01*
X688262Y439666D01*
X688847Y439549D01*
X695022D01*
X695434Y439473D01*
X695500Y439063D01*
Y438539D01*
X695739Y437649D01*
X696069Y437076D01*
X696044Y437038D01*
X695927Y436453D01*
Y435953D01*
X694094D01*
Y428047D01*
X695927D01*
Y427453D01*
X694051D01*
Y419547D01*
X695884D01*
Y419087D01*
X696000Y418502D01*
X696332Y418005D01*
X697919Y416419D01*
X698415Y416087D01*
X698704Y416029D01*
X698655Y415529D01*
X343494D01*
X343000Y415529D01*
X342513Y415548D01*
X340988Y415698D01*
X339054Y416285D01*
X337272Y417238D01*
X335709Y418520D01*
X334427Y420083D01*
X333474Y421865D01*
X332887Y423800D01*
X332738Y425319D01*
X332718Y425811D01*
X332691Y425949D01*
X332690Y426310D01*
X332438Y497414D01*
X332420Y497505D01*
X332604Y499377D01*
X333178Y501270D01*
X334111Y503014D01*
X335366Y504543D01*
X336894Y505798D01*
X338639Y506731D01*
X340532Y507305D01*
X342406Y507489D01*
X342500Y507471D01*
>>>>>>> 086f05f611e4eabd8aa2a084d90faab6d215b326
D02*
G37*
%LPC*%
G36*
<<<<<<< HEAD
X56670Y49450D02*
X56384D01*
Y49144D01*
X56670D01*
Y49450D01*
D02*
G37*
G36*
X48554Y49450D02*
X48268D01*
Y49144D01*
X48554D01*
Y49450D01*
D02*
G37*
G36*
X40120Y49450D02*
X39834D01*
Y49144D01*
X40120D01*
Y49450D01*
D02*
G37*
G36*
X39734D02*
X39448D01*
Y49144D01*
X39734D01*
Y49450D01*
D02*
G37*
G36*
X41396Y49900D02*
X41304D01*
X41215Y49876D01*
X41135Y49830D01*
X41070Y49765D01*
X41024Y49685D01*
X41000Y49596D01*
Y49504D01*
X41019Y49435D01*
X40287Y48703D01*
X39213D01*
X39169Y48747D01*
Y49144D01*
X39352D01*
Y49856D01*
X38680D01*
Y49144D01*
X38863D01*
Y48684D01*
X38875Y48625D01*
X38908Y48576D01*
X39042Y48442D01*
X39091Y48409D01*
X39150Y48397D01*
X40350D01*
X40409Y48409D01*
X40458Y48442D01*
X41235Y49219D01*
X41304Y49200D01*
X41396D01*
X41485Y49224D01*
X41565Y49270D01*
X41630Y49335D01*
X41676Y49415D01*
X41700Y49504D01*
Y49596D01*
X41676Y49685D01*
X41630Y49765D01*
X41565Y49830D01*
X41485Y49876D01*
X41396Y49900D01*
D02*
G37*
G36*
X75875Y44750D02*
X75500D01*
X75125D01*
X75150Y44655D01*
X75199Y44569D01*
X75269Y44499D01*
X75329Y44465D01*
X75334Y44410D01*
X74520Y43595D01*
X74450D01*
Y43250D01*
X74736D01*
Y43379D01*
X75608Y44251D01*
X75641Y44301D01*
X75653Y44359D01*
Y44455D01*
X75731Y44499D01*
X75801Y44569D01*
X75850Y44655D01*
X75875Y44750D01*
D02*
G37*
G36*
X69100Y49566D02*
X68853D01*
Y49398D01*
X69100D01*
Y49566D01*
D02*
G37*
G36*
X69447Y49298D02*
X69200D01*
Y49130D01*
X69447D01*
Y49298D01*
D02*
G37*
G36*
X71806Y43192D02*
X71559D01*
Y43024D01*
X71806D01*
Y43192D01*
D02*
G37*
G36*
Y42924D02*
X71559D01*
Y42756D01*
X71806D01*
Y42924D01*
D02*
G37*
G36*
X70786Y42300D02*
X70500D01*
Y41955D01*
X70786D01*
Y42300D01*
D02*
G37*
G36*
X35025Y45250D02*
X34700D01*
Y44925D01*
X34795Y44950D01*
X34881Y45000D01*
X34951Y45070D01*
X35000Y45155D01*
X35025Y45250D01*
D02*
G37*
G36*
X34600D02*
X34275D01*
X34300Y45155D01*
X34349Y45070D01*
X34419Y45000D01*
X34505Y44950D01*
X34600Y44925D01*
Y45250D01*
D02*
G37*
G36*
X65958Y46042D02*
X65842D01*
X65727Y46019D01*
X65620Y45975D01*
X65523Y45910D01*
X65440Y45827D01*
X65375Y45730D01*
X65354Y45679D01*
X64300D01*
X64212Y45662D01*
X64138Y45612D01*
X63249Y44724D01*
X63198Y44751D01*
X63075Y44789D01*
X62948Y44801D01*
X62821Y44789D01*
X62698Y44751D01*
X62585Y44691D01*
X62486Y44610D01*
X62405Y44511D01*
X62345Y44398D01*
X62307Y44275D01*
X62295Y44148D01*
Y44048D01*
X62307Y43921D01*
X62345Y43798D01*
X62405Y43685D01*
X62486Y43586D01*
X62585Y43505D01*
X62698Y43445D01*
X62821Y43407D01*
X62948Y43395D01*
X63075Y43407D01*
X63198Y43445D01*
X63311Y43505D01*
X63410Y43586D01*
X63491Y43685D01*
X63551Y43798D01*
X63589Y43921D01*
X63601Y44048D01*
Y44148D01*
X63589Y44275D01*
X63556Y44382D01*
X64395Y45221D01*
X65354D01*
X65375Y45170D01*
X65440Y45073D01*
X65523Y44990D01*
X65620Y44925D01*
X65727Y44881D01*
X65842Y44858D01*
X65958D01*
X66073Y44881D01*
X66180Y44925D01*
X66277Y44990D01*
X66360Y45073D01*
X66425Y45170D01*
X66469Y45277D01*
X66492Y45392D01*
Y45508D01*
X66469Y45623D01*
X66425Y45730D01*
X66360Y45827D01*
X66277Y45910D01*
X66180Y45975D01*
X66073Y46019D01*
X65958Y46042D01*
D02*
G37*
G36*
X56800Y44803D02*
X56673Y44791D01*
X56550Y44753D01*
X56437Y44693D01*
X56338Y44612D01*
X56257Y44513D01*
X56197Y44400D01*
X56159Y44277D01*
X56147Y44150D01*
Y44050D01*
X56159Y43923D01*
X56197Y43800D01*
X56257Y43687D01*
X56338Y43588D01*
X56437Y43507D01*
X56550Y43447D01*
X56673Y43409D01*
X56800Y43397D01*
X56927Y43409D01*
X57050Y43447D01*
X57163Y43507D01*
X57262Y43588D01*
X57343Y43687D01*
X57403Y43800D01*
X57441Y43923D01*
X57453Y44050D01*
Y44150D01*
X57441Y44277D01*
X57403Y44400D01*
X57343Y44513D01*
X57262Y44612D01*
X57163Y44693D01*
X57050Y44753D01*
X56927Y44791D01*
X56800Y44803D01*
D02*
G37*
G36*
X48650D02*
X48523Y44791D01*
X48400Y44753D01*
X48287Y44693D01*
X48188Y44612D01*
X48107Y44513D01*
X48047Y44400D01*
X48009Y44277D01*
X47997Y44150D01*
Y44050D01*
X48009Y43923D01*
X48047Y43800D01*
X48107Y43687D01*
X48188Y43588D01*
X48287Y43507D01*
X48400Y43447D01*
X48523Y43409D01*
X48650Y43397D01*
X48777Y43409D01*
X48900Y43447D01*
X49013Y43507D01*
X49112Y43588D01*
X49193Y43687D01*
X49253Y43800D01*
X49291Y43923D01*
X49303Y44050D01*
Y44150D01*
X49291Y44277D01*
X49253Y44400D01*
X49193Y44513D01*
X49112Y44612D01*
X49013Y44693D01*
X48900Y44753D01*
X48777Y44791D01*
X48650Y44803D01*
D02*
G37*
G36*
X64949Y44802D02*
X64821Y44789D01*
X64699Y44752D01*
X64586Y44692D01*
X64487Y44611D01*
X64406Y44512D01*
X64345Y44399D01*
X64308Y44276D01*
X64296Y44149D01*
Y44049D01*
X64308Y43921D01*
X64345Y43799D01*
X64406Y43686D01*
X64487Y43587D01*
X64586Y43506D01*
X64699Y43445D01*
X64821Y43408D01*
X64949Y43396D01*
X65076Y43408D01*
X65199Y43445D01*
X65312Y43506D01*
X65410Y43587D01*
X65492Y43686D01*
X65552Y43799D01*
X65589Y43921D01*
X65602Y44049D01*
Y44149D01*
X65589Y44276D01*
X65552Y44399D01*
X65492Y44512D01*
X65410Y44611D01*
X65312Y44692D01*
X65199Y44752D01*
X65076Y44789D01*
X64949Y44802D01*
D02*
G37*
G36*
X40497Y44800D02*
X40369Y44787D01*
X40247Y44750D01*
X40134Y44690D01*
X40035Y44609D01*
X39954Y44510D01*
X39893Y44397D01*
X39856Y44274D01*
X39844Y44147D01*
Y44047D01*
X39856Y43919D01*
X39893Y43797D01*
X39954Y43684D01*
X40035Y43585D01*
X40134Y43504D01*
X40247Y43443D01*
X40369Y43406D01*
X40497Y43394D01*
X40624Y43406D01*
X40747Y43443D01*
X40860Y43504D01*
X40959Y43585D01*
X41040Y43684D01*
X41100Y43797D01*
X41137Y43919D01*
X41150Y44047D01*
Y44147D01*
X41137Y44274D01*
X41100Y44397D01*
X41040Y44510D01*
X40959Y44609D01*
X40860Y44690D01*
X40747Y44750D01*
X40624Y44787D01*
X40497Y44800D01*
D02*
G37*
G36*
X42500Y44803D02*
X42373Y44791D01*
X42250Y44753D01*
X42137Y44693D01*
X42038Y44612D01*
X41957Y44513D01*
X41897Y44400D01*
X41859Y44277D01*
X41847Y44150D01*
Y44050D01*
X41859Y43923D01*
X41892Y43816D01*
X41405Y43329D01*
X37537D01*
X37146Y43720D01*
Y44796D01*
X35846D01*
Y43396D01*
X36822D01*
X37280Y42938D01*
X37354Y42888D01*
X37442Y42871D01*
X41500D01*
X41588Y42888D01*
X41662Y42938D01*
X42199Y43474D01*
X42250Y43447D01*
X42373Y43409D01*
X42500Y43397D01*
X42627Y43409D01*
X42750Y43447D01*
X42863Y43507D01*
X42962Y43588D01*
X43043Y43687D01*
X43103Y43800D01*
X43141Y43923D01*
X43153Y44050D01*
Y44150D01*
X43141Y44277D01*
X43103Y44400D01*
X43043Y44513D01*
X42962Y44612D01*
X42863Y44693D01*
X42750Y44753D01*
X42627Y44791D01*
X42500Y44803D01*
D02*
G37*
G36*
X66952Y44805D02*
X66825Y44793D01*
X66702Y44755D01*
X66589Y44695D01*
X66490Y44614D01*
X66409Y44515D01*
X66349Y44402D01*
X66311Y44279D01*
X66299Y44152D01*
Y44052D01*
X66311Y43925D01*
X66344Y43818D01*
X65705Y43179D01*
X62141D01*
X61598Y43722D01*
Y44798D01*
X60298D01*
Y43398D01*
X61274D01*
X61884Y42788D01*
X61958Y42738D01*
X62046Y42721D01*
X65800D01*
X65888Y42738D01*
X65962Y42788D01*
X66651Y43476D01*
X66702Y43449D01*
X66825Y43411D01*
X66952Y43399D01*
X67079Y43411D01*
X67202Y43449D01*
X67315Y43509D01*
X67414Y43590D01*
X67495Y43689D01*
X67555Y43802D01*
X67593Y43925D01*
X67605Y44052D01*
Y44152D01*
X67593Y44279D01*
X67555Y44402D01*
X67495Y44515D01*
X67414Y44614D01*
X67315Y44695D01*
X67202Y44755D01*
X67079Y44793D01*
X66952Y44805D01*
D02*
G37*
G36*
X58803Y44806D02*
X58676Y44794D01*
X58553Y44757D01*
X58440Y44696D01*
X58341Y44615D01*
X58260Y44516D01*
X58200Y44403D01*
X58163Y44281D01*
X58150Y44153D01*
Y44053D01*
X58163Y43926D01*
X58195Y43819D01*
X57555Y43179D01*
X54044D01*
X53512Y43712D01*
X53449Y43753D01*
Y44799D01*
X52149D01*
Y43399D01*
X53125D01*
X53137Y43387D01*
X53212Y43337D01*
X53243Y43331D01*
X53787Y42788D01*
X53861Y42738D01*
X53949Y42721D01*
X57650D01*
X57738Y42738D01*
X57812Y42788D01*
X58502Y43477D01*
X58553Y43450D01*
X58676Y43413D01*
X58803Y43400D01*
X58931Y43413D01*
X59053Y43450D01*
X59166Y43510D01*
X59265Y43591D01*
X59346Y43690D01*
X59407Y43803D01*
X59444Y43926D01*
X59456Y44053D01*
Y44153D01*
X59444Y44281D01*
X59407Y44403D01*
X59346Y44516D01*
X59265Y44615D01*
X59166Y44696D01*
X59053Y44757D01*
X58931Y44794D01*
X58803Y44806D01*
D02*
G37*
G36*
X50653D02*
X50526Y44794D01*
X50403Y44757D01*
X50290Y44696D01*
X50191Y44615D01*
X50110Y44516D01*
X50050Y44403D01*
X50013Y44281D01*
X50000Y44153D01*
Y44053D01*
X50013Y43926D01*
X50045Y43819D01*
X49405Y43179D01*
X45844D01*
X45299Y43724D01*
Y44799D01*
X43999D01*
Y43399D01*
X44975D01*
X45587Y42788D01*
X45661Y42738D01*
X45749Y42721D01*
X49500D01*
X49588Y42738D01*
X49662Y42788D01*
X50352Y43477D01*
X50403Y43450D01*
X50526Y43413D01*
X50653Y43400D01*
X50781Y43413D01*
X50903Y43450D01*
X51016Y43510D01*
X51115Y43591D01*
X51196Y43690D01*
X51257Y43803D01*
X51294Y43926D01*
X51306Y44053D01*
Y44153D01*
X51294Y44281D01*
X51257Y44403D01*
X51196Y44516D01*
X51115Y44615D01*
X51016Y44696D01*
X50903Y44757D01*
X50781Y44794D01*
X50653Y44806D01*
=======
X566701Y494500D02*
X563839D01*
Y491441D01*
X566701D01*
Y494500D01*
D02*
G37*
G36*
X485539Y494500D02*
X482677D01*
Y491441D01*
X485539D01*
Y494500D01*
D02*
G37*
G36*
X401201Y494500D02*
X398339D01*
Y491441D01*
X401201D01*
Y494500D01*
D02*
G37*
G36*
X397339D02*
X394476D01*
Y491441D01*
X397339D01*
Y494500D01*
D02*
G37*
G36*
X413961Y499000D02*
X413039D01*
X412149Y498762D01*
X411351Y498301D01*
X410699Y497649D01*
X410239Y496851D01*
X410000Y495961D01*
Y495039D01*
X410185Y494348D01*
X402867Y487029D01*
X392133D01*
X391691Y487472D01*
Y491441D01*
X393524D01*
Y498559D01*
X386799D01*
Y491441D01*
X388632D01*
Y486839D01*
X388749Y486253D01*
X389080Y485757D01*
X390419Y484419D01*
X390915Y484087D01*
X391500Y483971D01*
X403500D01*
X404085Y484087D01*
X404581Y484419D01*
X412348Y492185D01*
X413039Y492000D01*
X413961D01*
X414851Y492239D01*
X415649Y492699D01*
X416301Y493351D01*
X416761Y494149D01*
X417000Y495039D01*
Y495961D01*
X416761Y496851D01*
X416301Y497649D01*
X415649Y498301D01*
X414851Y498762D01*
X413961Y499000D01*
D02*
G37*
G36*
X758754Y447500D02*
X755000D01*
X751246D01*
X751500Y446550D01*
X751995Y445694D01*
X752694Y444994D01*
X753291Y444650D01*
X753343Y444097D01*
X745199Y435953D01*
X744500D01*
Y432500D01*
X747362D01*
Y433790D01*
X756081Y442509D01*
X756413Y443005D01*
X756529Y443590D01*
Y444546D01*
X757306Y444994D01*
X758006Y445694D01*
X758500Y446550D01*
X758754Y447500D01*
D02*
G37*
G36*
X691000Y495661D02*
X688531D01*
Y493980D01*
X691000D01*
Y495661D01*
D02*
G37*
G36*
X694468Y492980D02*
X692000D01*
Y491299D01*
X694468D01*
Y492980D01*
D02*
G37*
G36*
X718063Y431921D02*
X715594D01*
Y430240D01*
X718063D01*
Y431921D01*
D02*
G37*
G36*
Y429240D02*
X715594D01*
Y427559D01*
X718063D01*
Y429240D01*
D02*
G37*
G36*
X707862Y423000D02*
X705000D01*
Y419547D01*
X707862D01*
Y423000D01*
D02*
G37*
G36*
X350254Y452504D02*
X347000D01*
Y449250D01*
X347950Y449504D01*
X348806Y449999D01*
X349505Y450698D01*
X350000Y451554D01*
X350254Y452504D01*
D02*
G37*
G36*
X346000D02*
X342746D01*
X343000Y451554D01*
X343495Y450698D01*
X344194Y449999D01*
X345050Y449504D01*
X346000Y449250D01*
Y452504D01*
D02*
G37*
G36*
X659583Y460421D02*
X658417D01*
X657273Y460194D01*
X656195Y459747D01*
X655225Y459099D01*
X654401Y458275D01*
X653753Y457305D01*
X653541Y456794D01*
X643000D01*
X642122Y456619D01*
X641378Y456122D01*
X632495Y447239D01*
X631980Y447515D01*
X630755Y447886D01*
X629480Y448012D01*
X628206Y447886D01*
X626981Y447515D01*
X625852Y446911D01*
X624862Y446099D01*
X624050Y445109D01*
X623446Y443980D01*
X623074Y442755D01*
X622949Y441480D01*
Y440480D01*
X623074Y439206D01*
X623446Y437981D01*
X624050Y436852D01*
X624862Y435862D01*
X625852Y435050D01*
X626981Y434446D01*
X628206Y434074D01*
X629480Y433949D01*
X630755Y434074D01*
X631980Y434446D01*
X633109Y435050D01*
X634099Y435862D01*
X634911Y436852D01*
X635515Y437981D01*
X635886Y439206D01*
X636012Y440480D01*
Y441480D01*
X635886Y442755D01*
X635563Y443819D01*
X643950Y452206D01*
X653541D01*
X653753Y451695D01*
X654401Y450725D01*
X655225Y449901D01*
X656195Y449253D01*
X657273Y448806D01*
X658417Y448579D01*
X659583D01*
X660727Y448806D01*
X661805Y449253D01*
X662775Y449901D01*
X663599Y450725D01*
X664247Y451695D01*
X664694Y452773D01*
X664921Y453917D01*
Y455083D01*
X664694Y456227D01*
X664247Y457305D01*
X663599Y458275D01*
X662775Y459099D01*
X661805Y459747D01*
X660727Y460194D01*
X659583Y460421D01*
D02*
G37*
G36*
X568000Y448032D02*
X566726Y447906D01*
X565500Y447534D01*
X564371Y446931D01*
X563382Y446118D01*
X562569Y445129D01*
X561966Y443999D01*
X561594Y442774D01*
X561469Y441500D01*
Y440500D01*
X561594Y439226D01*
X561966Y438000D01*
X562569Y436871D01*
X563382Y435882D01*
X564371Y435069D01*
X565500Y434466D01*
X566726Y434094D01*
X568000Y433968D01*
X569274Y434094D01*
X570500Y434466D01*
X571629Y435069D01*
X572618Y435882D01*
X573431Y436871D01*
X574034Y438000D01*
X574406Y439226D01*
X574532Y440500D01*
Y441500D01*
X574406Y442774D01*
X574034Y443999D01*
X573431Y445129D01*
X572618Y446118D01*
X571629Y446931D01*
X570500Y447534D01*
X569274Y447906D01*
X568000Y448032D01*
D02*
G37*
G36*
X486500D02*
X485226Y447906D01*
X484000Y447534D01*
X482871Y446931D01*
X481882Y446118D01*
X481069Y445129D01*
X480466Y443999D01*
X480094Y442774D01*
X479969Y441500D01*
Y440500D01*
X480094Y439226D01*
X480466Y438000D01*
X481069Y436871D01*
X481882Y435882D01*
X482871Y435069D01*
X484000Y434466D01*
X485226Y434094D01*
X486500Y433968D01*
X487774Y434094D01*
X489000Y434466D01*
X490129Y435069D01*
X491118Y435882D01*
X491931Y436871D01*
X492534Y438000D01*
X492906Y439226D01*
X493032Y440500D01*
Y441500D01*
X492906Y442774D01*
X492534Y443999D01*
X491931Y445129D01*
X491118Y446118D01*
X490129Y446931D01*
X489000Y447534D01*
X487774Y447906D01*
X486500Y448032D01*
D02*
G37*
G36*
X649486Y448018D02*
X648212Y447893D01*
X646987Y447521D01*
X645858Y446917D01*
X644868Y446105D01*
X644056Y445115D01*
X643452Y443986D01*
X643081Y442761D01*
X642955Y441487D01*
Y440486D01*
X643081Y439212D01*
X643452Y437987D01*
X644056Y436858D01*
X644868Y435868D01*
X645858Y435056D01*
X646987Y434452D01*
X648212Y434081D01*
X649486Y433955D01*
X650761Y434081D01*
X651986Y434452D01*
X653115Y435056D01*
X654105Y435868D01*
X654917Y436858D01*
X655521Y437987D01*
X655893Y439212D01*
X656018Y440486D01*
Y441487D01*
X655893Y442761D01*
X655521Y443986D01*
X654917Y445115D01*
X654105Y446105D01*
X653115Y446917D01*
X651986Y447521D01*
X650761Y447893D01*
X649486Y448018D01*
D02*
G37*
G36*
X404967Y447998D02*
X403693Y447873D01*
X402467Y447501D01*
X401338Y446898D01*
X400349Y446085D01*
X399536Y445096D01*
X398933Y443966D01*
X398561Y442741D01*
X398435Y441467D01*
Y440467D01*
X398561Y439193D01*
X398933Y437967D01*
X399536Y436838D01*
X400349Y435849D01*
X401338Y435036D01*
X402467Y434433D01*
X403693Y434061D01*
X404967Y433935D01*
X406241Y434061D01*
X407466Y434433D01*
X408596Y435036D01*
X409585Y435849D01*
X410398Y436838D01*
X411001Y437967D01*
X411373Y439193D01*
X411498Y440467D01*
Y441467D01*
X411373Y442741D01*
X411001Y443966D01*
X410398Y445096D01*
X409585Y446085D01*
X408596Y446898D01*
X407466Y447501D01*
X406241Y447873D01*
X404967Y447998D01*
D02*
G37*
G36*
X425000Y448032D02*
X423726Y447906D01*
X422501Y447534D01*
X421371Y446931D01*
X420382Y446118D01*
X419569Y445129D01*
X418966Y443999D01*
X418594Y442774D01*
X418469Y441500D01*
Y440500D01*
X418594Y439226D01*
X418917Y438161D01*
X414050Y433294D01*
X375372D01*
X371461Y437205D01*
Y447961D01*
X358461D01*
Y433961D01*
X368216D01*
X372799Y429378D01*
X373544Y428881D01*
X374421Y428706D01*
X415000D01*
X415878Y428881D01*
X416622Y429378D01*
X421985Y434741D01*
X422501Y434466D01*
X423726Y434094D01*
X425000Y433968D01*
X426274Y434094D01*
X427499Y434466D01*
X428629Y435069D01*
X429618Y435882D01*
X430431Y436871D01*
X431034Y438000D01*
X431406Y439226D01*
X431531Y440500D01*
Y441500D01*
X431406Y442774D01*
X431034Y443999D01*
X430431Y445129D01*
X429618Y446118D01*
X428629Y446931D01*
X427499Y447534D01*
X426274Y447906D01*
X425000Y448032D01*
D02*
G37*
G36*
X669520Y448051D02*
X668245Y447926D01*
X667020Y447554D01*
X665891Y446950D01*
X664901Y446138D01*
X664089Y445148D01*
X663485Y444019D01*
X663114Y442794D01*
X662988Y441520D01*
Y440520D01*
X663114Y439245D01*
X663437Y438181D01*
X657050Y431794D01*
X621411D01*
X615980Y437225D01*
Y447980D01*
X602980D01*
Y433980D01*
X612736D01*
X618839Y427878D01*
X619583Y427381D01*
X620461Y427206D01*
X658000D01*
X658878Y427381D01*
X659622Y427878D01*
X666505Y434761D01*
X667020Y434485D01*
X668245Y434114D01*
X669520Y433988D01*
X670794Y434114D01*
X672019Y434485D01*
X673148Y435089D01*
X674138Y435901D01*
X674950Y436891D01*
X675554Y438020D01*
X675926Y439245D01*
X676051Y440520D01*
Y441520D01*
X675926Y442794D01*
X675554Y444019D01*
X674950Y445148D01*
X674138Y446138D01*
X673148Y446950D01*
X672019Y447554D01*
X670794Y447926D01*
X669520Y448051D01*
D02*
G37*
G36*
X588033Y448065D02*
X586759Y447939D01*
X585534Y447567D01*
X584404Y446964D01*
X583415Y446151D01*
X582602Y445162D01*
X581999Y444033D01*
X581627Y442807D01*
X581502Y441533D01*
Y440533D01*
X581627Y439259D01*
X581950Y438194D01*
X575550Y431794D01*
X540438D01*
X535116Y437116D01*
X534494Y437532D01*
Y447994D01*
X521494D01*
Y433994D01*
X531250D01*
X531372Y433872D01*
X532116Y433374D01*
X532432Y433312D01*
X537865Y427878D01*
X538610Y427381D01*
X539488Y427206D01*
X576500D01*
X577378Y427381D01*
X578122Y427878D01*
X585018Y434774D01*
X585534Y434499D01*
X586759Y434127D01*
X588033Y434002D01*
X589307Y434127D01*
X590533Y434499D01*
X591662Y435102D01*
X592652Y435915D01*
X593464Y436904D01*
X594067Y438034D01*
X594439Y439259D01*
X594564Y440533D01*
Y441533D01*
X594439Y442807D01*
X594067Y444033D01*
X593464Y445162D01*
X592652Y446151D01*
X591662Y446964D01*
X590533Y447567D01*
X589307Y447939D01*
X588033Y448065D01*
D02*
G37*
G36*
X506533D02*
X505259Y447939D01*
X504034Y447567D01*
X502904Y446964D01*
X501915Y446151D01*
X501102Y445162D01*
X500499Y444033D01*
X500127Y442807D01*
X500002Y441533D01*
Y440533D01*
X500127Y439259D01*
X500450Y438194D01*
X494050Y431794D01*
X458438D01*
X452994Y437238D01*
Y447994D01*
X439994D01*
Y433994D01*
X449750D01*
X455865Y427878D01*
X456610Y427381D01*
X457488Y427206D01*
X495000D01*
X495878Y427381D01*
X496622Y427878D01*
X503518Y434774D01*
X504034Y434499D01*
X505259Y434127D01*
X506533Y434002D01*
X507807Y434127D01*
X509033Y434499D01*
X510162Y435102D01*
X511152Y435915D01*
X511964Y436904D01*
X512567Y438034D01*
X512939Y439259D01*
X513064Y440533D01*
Y441533D01*
X512939Y442807D01*
X512567Y444033D01*
X511964Y445162D01*
X511152Y446151D01*
X510162Y446964D01*
X509033Y447567D01*
X507807Y447939D01*
X506533Y448065D01*
>>>>>>> 086f05f611e4eabd8aa2a084d90faab6d215b326
D02*
G37*
%LPD*%
D10*
<<<<<<< HEAD
X74532Y44384D02*
X74750Y44602D01*
X74032Y46768D02*
X74750Y46050D01*
X74383Y44584D02*
X74550Y44751D01*
X74150Y46000D02*
X74550Y45600D01*
Y44751D02*
Y45600D01*
X74750Y44602D02*
Y46050D01*
X40350Y48550D02*
X41350Y49550D01*
X39016Y48684D02*
X39150Y48550D01*
X40350D01*
X39016Y48684D02*
Y49500D01*
X39784D02*
Y50684D01*
X39800Y50700D01*
X35540D02*
X45400D01*
X64584Y50041D02*
X64642Y50100D01*
X64584Y48859D02*
Y50041D01*
X64642Y50100D02*
X69981D01*
X64525Y48800D02*
X64584Y48859D01*
X62600Y48800D02*
X64525D01*
X61100Y50300D02*
X62600Y48800D01*
X57134Y50300D02*
X61100D01*
X63800Y49400D02*
Y50154D01*
X63946Y50300D01*
X67756Y48450D02*
X67839D01*
X67542Y48664D02*
X67756Y48450D01*
X65992D02*
X66634Y49092D01*
X60900Y48450D02*
X65992D01*
X67166Y49092D02*
X67542Y48716D01*
X67839Y48450D02*
X68363Y48974D01*
X67542Y48664D02*
Y48716D01*
X66634Y49092D02*
X67166D01*
X60430Y48920D02*
X60900Y48450D01*
X75025Y50700D02*
X76141Y49584D01*
X55400Y50400D02*
X55700Y50700D01*
X56546Y50500D02*
X74325D01*
X55566Y49520D02*
X56546Y50500D01*
X74325D02*
X75241Y49584D01*
X55700Y50700D02*
X75025D01*
X34150Y49310D02*
X35540Y50700D01*
X71050Y49550D02*
X71159Y49659D01*
X71484D01*
X71500Y49675D01*
X71050Y49197D02*
Y49550D01*
X70468Y46773D02*
X70882Y46359D01*
X70200Y46850D02*
X70277Y46773D01*
X70468D01*
X69491Y46937D02*
X69691Y46737D01*
X69229Y48600D02*
X69491Y48338D01*
Y46937D02*
Y48338D01*
Y45741D02*
Y46654D01*
X69691Y45824D02*
Y46737D01*
X69222Y47126D02*
X69291Y47058D01*
X69691Y45824D02*
X70064Y45450D01*
X69291Y46854D02*
X69491Y46654D01*
X69144Y47126D02*
X69222D01*
X69291Y46854D02*
Y47058D01*
X69491Y45741D02*
X69729Y45502D01*
X70882Y46300D02*
Y46359D01*
X70064Y45450D02*
X70882D01*
X69741Y41909D02*
Y42350D01*
X69900Y41750D02*
X71302D01*
X69741Y41909D02*
X69900Y41750D01*
X71302D02*
X71778Y42226D01*
X69741Y42350D02*
X69746Y42354D01*
Y43200D01*
Y43645D01*
X69900Y43800D02*
Y43900D01*
X69746Y43645D02*
X69900Y43800D01*
X71778Y42226D02*
X71856D01*
X72300Y49675D02*
X72352Y49727D01*
X72670Y49480D02*
X73000D01*
X72304Y49075D02*
Y49113D01*
X72352Y49727D02*
X72992D01*
X72304Y49113D02*
X72670Y49480D01*
X49250Y50700D02*
X53300D01*
X48386Y49836D02*
X49250Y50700D01*
X54906Y49094D02*
X55948D01*
X48218Y49480D02*
Y49500D01*
X55948Y49094D02*
X56334Y49480D01*
Y49500D01*
X53300Y50700D02*
X54906Y49094D01*
X48218Y49500D02*
X48386Y49668D01*
X56334Y49500D02*
Y49520D01*
X48386Y49668D02*
Y49836D01*
X69729Y44979D02*
X69809Y44900D01*
X69729Y44979D02*
Y45502D01*
X70454Y43200D02*
Y43720D01*
X71034Y44300D01*
X38200Y46900D02*
X66128D01*
X68278Y44750D01*
X36600Y48500D02*
X38200Y46900D01*
X68209Y46168D02*
X68278Y46100D01*
X68209Y46168D02*
Y46247D01*
X68797Y46742D02*
Y48130D01*
Y45392D02*
Y46742D01*
X69065Y46474D01*
X67156Y47300D02*
X68209Y46247D01*
X68278Y46100D02*
X68356D01*
X45900Y47300D02*
X67156D01*
X53800Y47500D02*
X68356D01*
X52800Y48500D02*
X53800Y47500D01*
X44700Y48500D02*
X45900Y47300D01*
X47450Y49850D02*
X48050Y50450D01*
X47450Y49500D02*
Y49850D01*
X55300Y50400D02*
X55400D01*
X45400Y50700D02*
X47006Y49094D01*
X68278Y44750D02*
X68356D01*
X52850Y48500D02*
Y48558D01*
X47006Y49094D02*
X47832D01*
X48218Y49480D01*
X34150Y45800D02*
Y49310D01*
Y45800D02*
X34650Y45300D01*
X56540Y49706D02*
X57134Y50300D01*
X36600Y49545D02*
X36855Y49800D01*
X36600Y48500D02*
Y49545D01*
X36855Y49800D02*
X36880D01*
X44330Y49038D02*
Y49800D01*
Y49038D02*
X44700Y48668D01*
Y48500D02*
Y48668D01*
X52450Y48958D02*
Y49800D01*
Y48958D02*
X52850Y48558D01*
X60430Y48920D02*
Y49750D01*
X56334Y49520D02*
X56520Y49706D01*
X56540D01*
X69734Y44300D02*
X71034D01*
X68797Y44196D02*
X68885Y44108D01*
X68797Y44196D02*
Y45392D01*
X69651Y44500D02*
X71698D01*
X69542Y44108D02*
X69734Y44300D01*
X69527Y44376D02*
X69651Y44500D01*
X69144Y44376D02*
X69527D01*
X68885Y44108D02*
X69542D01*
X69065Y46474D02*
X69144D01*
X68797Y48130D02*
X68803Y48136D01*
X69065Y45124D02*
X69144D01*
X68797Y45392D02*
X69065Y45124D01*
X68803Y48136D02*
X69065Y47874D01*
X68803Y48136D02*
Y49080D01*
X69071Y49348D01*
X69150D01*
X69065Y47874D02*
X69144D01*
X69229Y49348D02*
X69981Y50100D01*
X69150Y49348D02*
X69229D01*
X69981Y50100D02*
X70963D01*
X73008Y48976D02*
X73540D01*
X73560Y48996D01*
X74000Y48650D02*
Y49766D01*
X73814Y48464D02*
X74000Y48650D01*
X73666Y50100D02*
X74000Y49766D01*
X72992Y49727D02*
X73000Y49735D01*
X72550Y46475D02*
Y46900D01*
X71164Y48368D02*
X71457D01*
X70598Y47944D02*
X71222D01*
X71282Y48168D02*
X72550Y46900D01*
X71222Y47944D02*
X72300Y46866D01*
X71457Y48368D02*
X72966Y46859D01*
X71049Y48168D02*
X71282D01*
X73566Y49568D02*
Y49607D01*
X73230Y49232D02*
X73566Y49568D01*
X70963Y50100D02*
X73666D01*
X74234Y49741D02*
Y49814D01*
X73749Y50300D02*
X74234Y49814D01*
X63946Y50300D02*
X73749D01*
X73000Y48968D02*
X73008Y48976D01*
X71200Y43900D02*
X71308D01*
X71508Y43700D02*
X71941D01*
X71308Y43900D02*
X71508Y43700D01*
X71814Y44384D02*
X74532D01*
X71698Y44500D02*
X71814Y44384D01*
X74050Y45200D02*
X74209Y45041D01*
X69809Y44900D02*
X71864D01*
X71722Y44150D02*
X72259D01*
X71896Y44584D02*
X74383D01*
X71034Y44300D02*
X71572D01*
X71722Y44150D01*
X74034Y44784D02*
X74209Y44959D01*
X69520Y44759D02*
X69579Y44700D01*
X71979Y44784D02*
X74034D01*
X69520Y44759D02*
Y45428D01*
X74209Y44959D02*
Y45041D01*
X71864Y44900D02*
X71979Y44784D01*
X69579Y44700D02*
X71781D01*
X71896Y44584D01*
X72259Y44150D02*
X72650Y43759D01*
Y43700D02*
Y43759D01*
X70454Y42354D02*
Y43200D01*
X72650Y43250D02*
Y43700D01*
X70828Y48976D02*
X71050Y49197D01*
X70606Y48976D02*
X70828D01*
X70598Y48968D02*
X70606Y48976D01*
X71017Y48200D02*
X71049Y48168D01*
X70598Y48200D02*
X71017D01*
X71076Y48456D02*
X71164Y48368D01*
X72300Y45925D02*
Y46866D01*
X71195Y47688D02*
X72007Y46876D01*
X70598Y47688D02*
X71195D01*
X70598Y48456D02*
X71076D01*
X73008Y49232D02*
X73230D01*
X73000Y49224D02*
X73008Y49232D01*
X74234Y49741D02*
X74391Y49584D01*
X73008Y48464D02*
X73814D01*
X70598Y49735D02*
X70963Y50100D01*
X73000Y48456D02*
X73008Y48464D01*
X73959Y43700D02*
X74400Y43259D01*
Y43200D02*
Y43259D01*
X72650Y43700D02*
X73959D01*
X71856Y42974D02*
X72374D01*
X72650Y43250D01*
X70450Y42350D02*
X70454Y42354D01*
X74400Y42354D02*
Y43200D01*
Y42354D02*
X74404Y42350D01*
X75500Y44359D02*
Y44800D01*
X74400Y43259D02*
X75500Y44359D01*
X73766Y46768D02*
X74032D01*
X73734Y46800D02*
X73766Y46768D01*
X63816Y49450D02*
Y49470D01*
X74391Y49584D02*
X74450D01*
X55566Y49500D02*
Y49520D01*
X75241Y49584D02*
X75300D01*
X76141D02*
X76200D01*
X69150Y48600D02*
X69229D01*
X73734Y45200D02*
X74050D01*
X69144Y45726D02*
X69222D01*
X69520Y45428D01*
X73734Y46000D02*
X74150D01*
X72550Y46475D02*
X72966Y46059D01*
X72300Y45925D02*
X72966Y45259D01*
X72007Y45866D02*
Y46876D01*
X71650Y45509D02*
X72007Y45866D01*
X71650Y45450D02*
Y45509D01*
Y46300D02*
Y46950D01*
X71168Y47432D02*
X71650Y46950D01*
X70598Y47432D02*
X71168D01*
X72966Y45200D02*
Y45259D01*
Y46000D02*
Y46059D01*
Y46800D02*
Y46859D01*
X75959Y48659D02*
X76043D01*
X74988Y47688D02*
X75959Y48659D01*
X73000Y47688D02*
X74988D01*
X76043Y48659D02*
X76200Y48816D01*
X74450Y48450D02*
Y48816D01*
X74200Y48200D02*
X74450Y48450D01*
X73000Y48200D02*
X74200D01*
X74369Y47944D02*
X75241Y48816D01*
X73000Y47944D02*
X74369D01*
X75241Y48816D02*
X75300D01*
D17*
X63816Y49450D02*
D03*
X64584D02*
D03*
X55566Y49500D02*
D03*
X56334D02*
D03*
X47450D02*
D03*
X48218D02*
D03*
X39016D02*
D03*
X39784D02*
D03*
D18*
X71650Y45450D02*
D03*
X70882D02*
D03*
X71650Y46300D02*
D03*
X70882D02*
D03*
X72966Y45200D02*
D03*
X73734D02*
D03*
X72966Y46000D02*
D03*
X73734D02*
D03*
X72966Y46800D02*
D03*
X73734D02*
D03*
D19*
X70598Y49735D02*
D03*
D20*
Y49480D02*
D03*
Y49224D02*
D03*
Y48968D02*
D03*
Y48712D02*
D03*
Y48456D02*
D03*
Y48200D02*
D03*
Y47944D02*
D03*
Y47688D02*
D03*
Y47432D02*
D03*
X73000Y49735D02*
D03*
Y49480D02*
D03*
Y49224D02*
D03*
Y48968D02*
D03*
Y48712D02*
D03*
Y48456D02*
D03*
Y48200D02*
D03*
Y47944D02*
D03*
Y47688D02*
D03*
Y47432D02*
D03*
D21*
X35620Y49800D02*
D03*
X36880D02*
D03*
X44330D02*
D03*
X43070D02*
D03*
X51170Y49700D02*
D03*
X52430D02*
D03*
X60480D02*
D03*
X59220D02*
D03*
D22*
X75300Y49584D02*
D03*
Y48816D02*
D03*
X76200Y49584D02*
D03*
Y48816D02*
D03*
X74450Y49584D02*
D03*
Y48816D02*
D03*
D23*
X68356Y46100D02*
D03*
X69144Y46474D02*
D03*
Y45726D02*
D03*
Y44376D02*
D03*
Y45124D02*
D03*
X68356Y44750D02*
D03*
X69150Y48600D02*
D03*
Y49348D02*
D03*
X68363Y48974D02*
D03*
X71856Y42974D02*
D03*
Y42226D02*
D03*
X72644Y42600D02*
D03*
X69144Y47126D02*
D03*
Y47874D02*
D03*
X68356Y47500D02*
D03*
D24*
X72650Y43700D02*
D03*
X71941D02*
D03*
X69746Y43200D02*
D03*
X70454D02*
D03*
X70450Y42350D02*
D03*
X69741D02*
D03*
X74400Y43200D02*
D03*
X73691D02*
D03*
X74404Y42350D02*
D03*
X73696D02*
D03*
D40*
X45749Y42950D02*
X49500D01*
X44649Y44049D02*
X45749Y42950D01*
X49500D02*
X50653Y44103D01*
X57650Y42950D02*
X58803Y44103D01*
X53349Y43549D02*
X53949Y42950D01*
X57650D01*
X38213Y48737D02*
Y49552D01*
X38892Y48058D02*
X41258D01*
X38213Y48737D02*
X38892Y48058D01*
X36403Y50425D02*
X37341D01*
X38213Y49552D01*
X35875Y49898D02*
X36403Y50425D01*
X35620Y49898D02*
X35875D01*
X50990Y49520D02*
X51170Y49700D01*
X50706Y49520D02*
X50990D01*
X48944Y47758D02*
X50706Y49520D01*
X51328Y49700D02*
X51578Y49950D01*
X59040Y49520D02*
X59220Y49700D01*
X58806Y49520D02*
X59040D01*
X57194Y47908D02*
X58806Y49520D01*
X51594Y49950D02*
X51874Y50230D01*
X53054D01*
X51578Y49950D02*
X51594D01*
X43430Y49980D02*
X43642Y50192D01*
X43774Y50330D02*
X44886D01*
X43642Y50198D02*
X43774Y50330D01*
X43250Y49980D02*
X43430D01*
X43642Y50192D02*
Y50198D01*
X42969Y49699D02*
X43250Y49980D01*
X42379Y49699D02*
X42969D01*
X44886Y50330D02*
X47458Y47758D01*
X41883Y49203D02*
X42379Y49699D01*
X41883Y48683D02*
Y49203D01*
X41258Y48058D02*
X41883Y48683D01*
X73690Y42352D02*
Y43199D01*
Y42291D02*
Y42352D01*
X73695Y42287D02*
X73700D01*
X73690Y42352D02*
X73696Y42347D01*
X73673Y42369D02*
X73690Y42352D01*
X49997Y46217D02*
X50764Y45450D01*
X58097Y46217D02*
X58864Y45450D01*
X55377Y47908D02*
X57194D01*
X53517Y46217D02*
X58097D01*
X35620Y46393D02*
Y49800D01*
X45417Y46217D02*
X49997D01*
X52800Y45500D02*
X53517Y46217D01*
X36600Y45500D02*
X37317Y46217D01*
X44650Y45450D02*
X44700Y45500D01*
X37317Y46217D02*
X41897D01*
X42664Y45450D01*
X52750D02*
X52800Y45500D01*
X36513D02*
X36600D01*
X50764Y45450D02*
X52750D01*
X47458Y47758D02*
X48944D01*
X35620Y46393D02*
X36513Y45500D01*
X42664Y45450D02*
X44650D01*
X44700Y45500D02*
X45417Y46217D01*
X58864Y45450D02*
X60900D01*
X53054Y50230D02*
X55377Y47908D01*
X77200Y43050D02*
Y44500D01*
X76113Y45587D02*
X77200Y44500D01*
X75500Y45587D02*
X76113D01*
X75925Y42671D02*
X76854D01*
X77200Y43018D01*
X73231Y42369D02*
X73673D01*
X72644Y42600D02*
X73000D01*
X73231Y42369D01*
X62046Y42950D02*
X65800D01*
X60948Y44048D02*
X62046Y42950D01*
X65800D02*
X66952Y44102D01*
X60948Y44048D02*
Y44098D01*
X66952Y44102D02*
Y44102D01*
X74075Y41830D02*
X75083D01*
X75925Y42671D01*
X73943Y41962D02*
Y42033D01*
Y41962D02*
X74075Y41830D01*
X73807Y42169D02*
X73943Y42033D01*
X73700Y42287D02*
X73807Y42180D01*
Y42169D02*
Y42180D01*
X73690Y42291D02*
X73695Y42287D01*
X56200Y45500D02*
X57800D01*
X39900D02*
X41600D01*
X38496Y44096D02*
X39900Y45500D01*
X38496Y44096D02*
Y44096D01*
X46649Y44099D02*
Y44099D01*
X48050Y45500D01*
X49700D01*
X64300Y45450D02*
X65900D01*
X62948Y44098D02*
Y44098D01*
X64300Y45450D01*
X54799Y44099D02*
X56200Y45500D01*
X54799Y44099D02*
Y44099D01*
X42500Y44100D02*
Y44100D01*
X41500Y43100D02*
X42500Y44100D01*
X37442Y43100D02*
X41500D01*
X36496Y44046D02*
Y44096D01*
Y44046D02*
X37442Y43100D01*
X50653Y44103D02*
Y44103D01*
X44649Y44049D02*
Y44099D01*
X52799Y44049D02*
X53299Y43549D01*
X52799Y44049D02*
Y44099D01*
X53299Y43549D02*
X53349D01*
X58803Y44103D02*
Y44103D01*
D41*
X71504Y49009D02*
Y49075D01*
X72487Y48600D02*
X72599Y48712D01*
X71320Y48600D02*
X72487D01*
X72599Y48712D02*
X73000D01*
X71286Y48791D02*
X71504Y49009D01*
X71208Y48712D02*
X71286Y48790D01*
Y48791D01*
X71208Y48712D02*
X71320Y48600D01*
X70598Y48712D02*
X71208D01*
D42*
X60948Y44098D02*
D03*
X36496Y44096D02*
D03*
X52799Y44099D02*
D03*
X44649D02*
D03*
D43*
X66952Y44102D02*
D03*
X64949Y44099D02*
D03*
X62948Y44098D02*
D03*
X42500Y44100D02*
D03*
X40497Y44097D02*
D03*
X38496Y44096D02*
D03*
X58803Y44103D02*
D03*
X56800Y44100D02*
D03*
X54799Y44099D02*
D03*
X46649D02*
D03*
X48650Y44100D02*
D03*
X50653Y44103D02*
D03*
D44*
X60900Y48450D02*
D03*
X66900D02*
D03*
X65900Y45450D02*
D03*
X60900D02*
D03*
X36600Y45500D02*
D03*
X41600D02*
D03*
X42600Y48500D02*
D03*
X36600D02*
D03*
X44700D02*
D03*
X50700D02*
D03*
X49700Y45500D02*
D03*
X44700D02*
D03*
X52800Y48500D02*
D03*
X58800D02*
D03*
X57800Y45500D02*
D03*
X52800D02*
D03*
D45*
X75500Y44800D02*
D03*
Y45587D02*
D03*
Y46375D02*
D03*
X34650Y45300D02*
D03*
Y46088D02*
D03*
Y46875D02*
D03*
Y47663D02*
D03*
D46*
X75500Y47162D02*
D03*
D47*
X34650Y48450D02*
D03*
D48*
X41350Y49550D02*
D03*
X70200Y46850D02*
D03*
X77200Y43050D02*
D03*
X72304Y49075D02*
D03*
X71500Y49675D02*
D03*
X71504Y49075D02*
D03*
X72300Y49675D02*
D03*
X48050Y50450D02*
D03*
X55300Y50400D02*
D03*
X69900Y43900D02*
D03*
X73560Y48996D02*
D03*
X73566Y49607D02*
D03*
X71200Y43900D02*
=======
X745323Y443843D02*
X747500Y446020D01*
X740320Y467680D02*
X747500Y460500D01*
X743833Y445843D02*
X745500Y447510D01*
X741500Y460000D02*
X745500Y456000D01*
Y447510D02*
Y456000D01*
X747500Y446020D02*
Y460500D01*
X403500Y485500D02*
X413500Y495500D01*
X390161Y486839D02*
X391500Y485500D01*
X403500D01*
X390161Y486839D02*
Y495000D01*
X397839D02*
Y506839D01*
X398000Y507000D01*
X355402D02*
X454000D01*
X645839Y500414D02*
X646424Y501000D01*
X645839Y488586D02*
Y500414D01*
X646424Y501000D02*
X699807D01*
X645253Y488000D02*
X645839Y488586D01*
X626000Y488000D02*
X645253D01*
X611000Y503000D02*
X626000Y488000D01*
X571339Y503000D02*
X611000D01*
X638000Y494000D02*
Y501535D01*
X639465Y503000D01*
X677557Y484500D02*
X678386D01*
X675421Y486636D02*
X677557Y484500D01*
X659919D02*
X666340Y490921D01*
X609000Y484500D02*
X659919D01*
X671660Y490921D02*
X675421Y487160D01*
X678386Y484500D02*
X683626Y489740D01*
X675421Y486636D02*
Y487160D01*
X666340Y490921D02*
X671660D01*
X604299Y489201D02*
X609000Y484500D01*
X750248Y507000D02*
X761410Y495839D01*
X554000Y504000D02*
X557000Y507000D01*
X565465Y505000D02*
X743248D01*
X555661Y495197D02*
X565465Y505000D01*
X743248D02*
X752410Y495839D01*
X557000Y507000D02*
X750248D01*
X341500Y493098D02*
X355402Y507000D01*
X710500Y495500D02*
X711586Y496586D01*
X714836D01*
X715000Y496750D01*
X710500Y491975D02*
Y495500D01*
X704679Y467735D02*
X708823Y463590D01*
X702000Y468500D02*
X702765Y467735D01*
X704679D01*
X694906Y469371D02*
X696906Y467371D01*
X692287Y486000D02*
X694906Y483382D01*
Y469371D02*
Y483382D01*
Y457407D02*
Y466543D01*
X696906Y458236D02*
Y467371D01*
X692224Y471260D02*
X692906Y470579D01*
X696906Y458236D02*
X700641Y454500D01*
X692906Y468543D02*
X694906Y466543D01*
X691437Y471260D02*
X692224D01*
X692906Y468543D02*
Y470579D01*
X694906Y457407D02*
X697293Y455020D01*
X708823Y463000D02*
Y463590D01*
X700641Y454500D02*
X708823D01*
X697413Y419087D02*
Y423500D01*
X699000Y417500D02*
X713016D01*
X697413Y419087D02*
X699000Y417500D01*
X713016D02*
X717776Y422260D01*
X697413Y423500D02*
X697457Y423543D01*
Y432000D01*
Y436453D01*
X699000Y437996D02*
Y439000D01*
X697457Y436453D02*
X699000Y437996D01*
X717776Y422260D02*
X718563D01*
X723000Y496750D02*
X723525Y497275D01*
X726702Y494795D02*
X730000D01*
X723040Y490750D02*
Y491134D01*
X723525Y497275D02*
X729920D01*
X723040Y491134D02*
X726702Y494795D01*
X492500Y507000D02*
X533000D01*
X483860Y498360D02*
X492500Y507000D01*
X549059Y490941D02*
X559476D01*
X482177Y494803D02*
Y495000D01*
X559476Y490941D02*
X563339Y494803D01*
Y495000D01*
X533000Y507000D02*
X549059Y490941D01*
X482177Y495000D02*
X483860Y496683D01*
X563339Y495000D02*
Y495197D01*
X483860Y496683D02*
Y498360D01*
X697293Y449793D02*
X698086Y449000D01*
X697293Y449793D02*
Y455020D01*
X704543Y432000D02*
Y437200D01*
X710343Y443000D01*
X382000Y469000D02*
X661276D01*
X682776Y447500D01*
X366000Y485000D02*
X382000Y469000D01*
X682094Y461681D02*
X682776Y461000D01*
X682094Y461681D02*
Y462468D01*
X687968Y467421D02*
Y481295D01*
Y453921D02*
Y467421D01*
X690650Y464740D01*
X671563Y473000D02*
X682094Y462468D01*
X682776Y461000D02*
X683563D01*
X459000Y473000D02*
X671563D01*
X538000Y475000D02*
X683563D01*
X528000Y485000D02*
X538000Y475000D01*
X447000Y485000D02*
X459000Y473000D01*
X474500Y498500D02*
X480500Y504500D01*
X474500Y495000D02*
Y498500D01*
X553000Y504000D02*
X554000D01*
X454000Y507000D02*
X470059Y490941D01*
X682776Y447500D02*
X683563D01*
X528500Y485000D02*
Y485581D01*
X470059Y490941D02*
X478315D01*
X482177Y494803D01*
X341500Y458004D02*
Y493098D01*
Y458004D02*
X346500Y453004D01*
X565398Y497059D02*
X571339Y503000D01*
X366000Y495449D02*
X368551Y498000D01*
X366000Y485000D02*
Y495449D01*
X368551Y498000D02*
X368799D01*
X443299Y490380D02*
Y498000D01*
Y490380D02*
X447000Y486679D01*
Y485000D02*
Y486679D01*
X524500Y489581D02*
Y498000D01*
Y489581D02*
X528500Y485581D01*
X604299Y489201D02*
Y497500D01*
X563339Y495197D02*
X565201Y497059D01*
X565398D01*
X697343Y443000D02*
X710343D01*
X687968Y441957D02*
X688847Y441079D01*
X687968Y441957D02*
Y453921D01*
X696515Y445000D02*
X716979D01*
X695422Y441079D02*
X697343Y443000D01*
X695274Y443760D02*
X696515Y445000D01*
X691437Y443760D02*
X695274D01*
X688847Y441079D02*
X695422D01*
X690650Y464740D02*
X691437D01*
X687968Y481295D02*
X688031Y481358D01*
X690650Y451240D02*
X691437D01*
X687968Y453921D02*
X690650Y451240D01*
X688031Y481358D02*
X690650Y478740D01*
X688031Y481358D02*
Y490799D01*
X690713Y493480D01*
X691500D01*
X690650Y478740D02*
X691437D01*
X692287Y493480D02*
X699807Y501000D01*
X691500Y493480D02*
X692287D01*
X699807Y501000D02*
X709630D01*
X730080Y489757D02*
X735396D01*
X735602Y489963D01*
X740000Y486500D02*
Y497657D01*
X738139Y484639D02*
X740000Y486500D01*
X736657Y501000D02*
X740000Y497657D01*
X729920Y497275D02*
X730000Y497354D01*
X725500Y464752D02*
Y469000D01*
X711644Y483677D02*
X714575D01*
X705984Y479441D02*
X712216D01*
X712823Y481677D02*
X725500Y469000D01*
X712216Y479441D02*
X723000Y468657D01*
X714575Y483677D02*
X729661Y468590D01*
X710488Y481677D02*
X712823D01*
X735663Y495681D02*
Y496075D01*
X732298Y492316D02*
X735663Y495681D01*
X709630Y501000D02*
X736657D01*
X742343Y497405D02*
Y498143D01*
X737485Y503000D02*
X742343Y498143D01*
X639465Y503000D02*
X737485D01*
X730000Y489677D02*
X730080Y489757D01*
X712000Y439000D02*
X713082D01*
X715082Y437000D02*
X719413D01*
X713082Y439000D02*
X715082Y437000D01*
X718136Y443843D02*
X745323D01*
X716979Y445000D02*
X718136Y443843D01*
X740500Y452000D02*
X742086Y450414D01*
X698086Y449000D02*
X718635D01*
X717217Y441500D02*
X722590D01*
X718964Y445843D02*
X743833D01*
X710343Y443000D02*
X715717D01*
X717217Y441500D01*
X740343Y447843D02*
X742086Y449586D01*
X695203Y447586D02*
X695788Y447000D01*
X719793Y447843D02*
X740343D01*
X695203Y447586D02*
Y454282D01*
X742086Y449586D02*
Y450414D01*
X718635Y449000D02*
X719793Y447843D01*
X695788Y447000D02*
X717807D01*
X718964Y445843D01*
X722590Y441500D02*
X726500Y437591D01*
Y437000D02*
Y437591D01*
X704543Y423543D02*
Y432000D01*
X726500Y432500D02*
Y437000D01*
X708282Y489757D02*
X710500Y491975D01*
X706064Y489757D02*
X708282D01*
X705984Y489677D02*
X706064Y489757D01*
X710165Y482000D02*
X710488Y481677D01*
X705984Y482000D02*
X710165D01*
X710762Y484559D02*
X711644Y483677D01*
X723000Y459252D02*
Y468657D01*
X711947Y476882D02*
X720067Y468761D01*
X705984Y476882D02*
X711947D01*
X705984Y484559D02*
X710762D01*
X730080Y492316D02*
X732298D01*
X730000Y492236D02*
X730080Y492316D01*
X742343Y497405D02*
X743910Y495839D01*
X730080Y484639D02*
X738139D01*
X705984Y497354D02*
X709630Y501000D01*
X730000Y484559D02*
X730080Y484639D01*
X739591Y437000D02*
X744000Y432590D01*
Y432000D02*
Y432590D01*
X726500Y437000D02*
X739591D01*
X718563Y429740D02*
X723740D01*
X726500Y432500D01*
X704500Y423500D02*
X704543Y423543D01*
X744000Y423543D02*
Y432000D01*
Y423543D02*
X744043Y423500D01*
X755000Y443590D02*
Y448000D01*
X744000Y432590D02*
X755000Y443590D01*
X737658Y467680D02*
X740320D01*
X737339Y468000D02*
X737658Y467680D01*
X638161Y494500D02*
Y494697D01*
X743910Y495839D02*
X744500D01*
X555661Y495000D02*
Y495197D01*
X752410Y495839D02*
X753000D01*
X761410D02*
X762000D01*
X691500Y486000D02*
X692287D01*
X737339Y452000D02*
X740500D01*
X691437Y457260D02*
X692224D01*
X695203Y454282D01*
X737339Y460000D02*
X741500D01*
X725500Y464752D02*
X729661Y460591D01*
X723000Y459252D02*
X729661Y452591D01*
X720067Y458658D02*
Y468761D01*
X716500Y455091D02*
X720067Y458658D01*
X716500Y454500D02*
Y455091D01*
Y463000D02*
Y469500D01*
X711677Y474323D02*
X716500Y469500D01*
X705984Y474323D02*
X711677D01*
X729661Y452000D02*
Y452591D01*
Y460000D02*
Y460591D01*
Y468000D02*
Y468590D01*
X759594Y486594D02*
X760433D01*
X749882Y476882D02*
X759594Y486594D01*
X730000Y476882D02*
X749882D01*
X760433Y486594D02*
X762000Y488161D01*
X744500Y484500D02*
Y488161D01*
X742000Y482000D02*
X744500Y484500D01*
X730000Y482000D02*
X742000D01*
X743689Y479441D02*
X752410Y488161D01*
X730000Y479441D02*
X743689D01*
X752410Y488161D02*
X753000D01*
D17*
X638161Y494500D02*
D03*
X645839D02*
D03*
X555661Y495000D02*
D03*
X563339D02*
D03*
X474500D02*
D03*
X482177D02*
D03*
X390161D02*
D03*
X397839D02*
D03*
D18*
X716500Y454500D02*
D03*
X708823D02*
D03*
X716500Y463000D02*
D03*
X708823D02*
D03*
X729661Y452000D02*
D03*
X737339D02*
D03*
X729661Y460000D02*
D03*
X737339D02*
D03*
X729661Y468000D02*
D03*
X737339D02*
D03*
D19*
X705984Y497354D02*
D03*
D20*
Y494795D02*
D03*
Y492236D02*
D03*
Y489677D02*
D03*
Y487118D02*
D03*
Y484559D02*
D03*
Y482000D02*
D03*
Y479441D02*
D03*
Y476882D02*
D03*
Y474323D02*
D03*
X730000Y497354D02*
D03*
Y494795D02*
D03*
Y492236D02*
D03*
Y489677D02*
D03*
Y487118D02*
D03*
Y484559D02*
D03*
Y482000D02*
D03*
Y479441D02*
D03*
Y476882D02*
D03*
Y474323D02*
D03*
D21*
X356201Y498000D02*
D03*
X368799D02*
D03*
X443299D02*
D03*
X430701D02*
D03*
X511701Y497000D02*
D03*
X524299D02*
D03*
X604799D02*
D03*
X592201D02*
D03*
D22*
X753000Y495839D02*
D03*
Y488161D02*
D03*
X762000Y495839D02*
D03*
Y488161D02*
D03*
X744500Y495839D02*
D03*
Y488161D02*
D03*
D23*
X683563Y461000D02*
D03*
X691437Y464740D02*
D03*
Y457260D02*
D03*
Y443760D02*
D03*
Y451240D02*
D03*
X683563Y447500D02*
D03*
X691500Y486000D02*
D03*
Y493480D02*
D03*
X683626Y489740D02*
D03*
X718563Y429740D02*
D03*
Y422260D02*
D03*
X726437Y426000D02*
D03*
X691437Y471260D02*
D03*
Y478740D02*
D03*
X683563Y475000D02*
D03*
D24*
X726500Y437000D02*
D03*
X719413D02*
D03*
X697457Y432000D02*
D03*
X704543D02*
D03*
X704500Y423500D02*
D03*
X697413D02*
D03*
X744000Y432000D02*
D03*
X736913D02*
D03*
X744043Y423500D02*
D03*
X736957D02*
D03*
D40*
X457488Y429500D02*
X495000D01*
X446494Y440494D02*
X457488Y429500D01*
X495000D02*
X506533Y441033D01*
X576500Y429500D02*
X588033Y441033D01*
X533494Y435494D02*
X539488Y429500D01*
X576500D01*
X382135Y487365D02*
Y495524D01*
X388921Y480579D02*
X412579D01*
X382135Y487365D02*
X388921Y480579D01*
X364026Y504250D02*
X373408D01*
X382135Y495524D01*
X358755Y498979D02*
X364026Y504250D01*
X356201Y498979D02*
X358755D01*
X509900Y495199D02*
X511701Y497000D01*
X507057Y495199D02*
X509900D01*
X489437Y477579D02*
X507057Y495199D01*
X513276Y497000D02*
X515776Y499500D01*
X590400Y495199D02*
X592201Y497000D01*
X588057Y495199D02*
X590400D01*
X571937Y479079D02*
X588057Y495199D01*
X515940Y499500D02*
X518741Y502301D01*
X530544D01*
X515776Y499500D02*
X515940D01*
X434301Y499801D02*
X436423Y501923D01*
X437741Y503301D02*
X448857D01*
X436423Y501983D02*
X437741Y503301D01*
X432502Y499801D02*
X434301D01*
X436423Y501923D02*
Y501983D01*
X429689Y496988D02*
X432502Y499801D01*
X423789Y496988D02*
X429689D01*
X448857Y503301D02*
X474580Y477579D01*
X418829Y492028D02*
X423789Y496988D01*
X418829Y486829D02*
Y492028D01*
X412579Y480579D02*
X418829Y486829D01*
X736903Y423520D02*
Y431990D01*
Y422909D02*
Y423520D01*
X736947Y422866D02*
X737000D01*
X736903Y423520D02*
X736957Y423466D01*
X736732Y423691D02*
X736903Y423520D01*
X499970Y462171D02*
X507642Y454500D01*
X580970Y462171D02*
X588642Y454500D01*
X553766Y479079D02*
X571937D01*
X535171Y462171D02*
X580970D01*
X356201Y463926D02*
Y498000D01*
X454171Y462171D02*
X499970D01*
X528000Y455000D02*
X535171Y462171D01*
X366000Y455000D02*
X373171Y462171D01*
X446500Y454500D02*
X447000Y455000D01*
X373171Y462171D02*
X418970D01*
X426642Y454500D01*
X527500D02*
X528000Y455000D01*
X365126D02*
X366000D01*
X507642Y454500D02*
X527500D01*
X474580Y477579D02*
X489437D01*
X356201Y463926D02*
X365126Y455000D01*
X426642Y454500D02*
X446500D01*
X447000Y455000D02*
X454171Y462171D01*
X588642Y454500D02*
X609000D01*
X530544Y502301D02*
X553766Y479079D01*
X772000Y430500D02*
Y445000D01*
X761126Y455874D02*
X772000Y445000D01*
X755000Y455874D02*
X761126D01*
X759246Y426712D02*
X768536D01*
X772000Y430177D01*
X732309Y423691D02*
X736732D01*
X726437Y426000D02*
X730000D01*
X732309Y423691D01*
X620461Y429500D02*
X658000D01*
X609480Y440480D02*
X620461Y429500D01*
X658000D02*
X669520Y441020D01*
X609480Y440480D02*
Y440980D01*
X669520Y441020D02*
Y441020D01*
X740749Y418297D02*
X750831D01*
X759246Y426712D01*
X739431Y419615D02*
Y420333D01*
Y419615D02*
X740749Y418297D01*
X738069Y421695D02*
X739431Y420333D01*
X737000Y422866D02*
X738069Y421797D01*
Y421695D02*
Y421797D01*
X736903Y422909D02*
X736947Y422866D01*
X562000Y455000D02*
X578000D01*
X399000D02*
X416000D01*
X384961Y440961D02*
X399000Y455000D01*
X384961Y440961D02*
Y440961D01*
X466494Y440994D02*
Y440994D01*
X480500Y455000D01*
X497000D01*
X643000Y454500D02*
X659000D01*
X629480Y440980D02*
Y440980D01*
X643000Y454500D01*
X547994Y440994D02*
X562000Y455000D01*
X547994Y440994D02*
Y440994D01*
X425000Y441000D02*
Y441000D01*
X415000Y431000D02*
X425000Y441000D01*
X374421Y431000D02*
X415000D01*
X364961Y440461D02*
Y440961D01*
Y440461D02*
X374421Y431000D01*
X506533Y441033D02*
Y441033D01*
X446494Y440494D02*
Y440994D01*
X527994Y440494D02*
X532994Y435494D01*
X527994Y440494D02*
Y440994D01*
X532994Y435494D02*
X533494D01*
X588033Y441033D02*
Y441033D01*
D41*
X715039Y490090D02*
Y490750D01*
X724868Y486000D02*
X725986Y487118D01*
X713198Y486000D02*
X724868D01*
X725986Y487118D02*
X730000D01*
X712859Y487910D02*
X715039Y490090D01*
X712079Y487118D02*
X712859Y487898D01*
Y487910D01*
X712079Y487118D02*
X713198Y486000D01*
X705984Y487118D02*
X712079D01*
D42*
X609480Y440980D02*
D03*
X364961Y440961D02*
D03*
X527994Y440994D02*
D03*
X446494D02*
D03*
D43*
X669520Y441020D02*
D03*
X649486Y440986D02*
D03*
X629480Y440980D02*
D03*
X425000Y441000D02*
D03*
X404967Y440967D02*
D03*
X384961Y440961D02*
D03*
X588033Y441033D02*
D03*
X568000Y441000D02*
D03*
X547994Y440994D02*
D03*
X466494D02*
D03*
X486500Y441000D02*
D03*
X506533Y441033D02*
D03*
D44*
X609000Y484500D02*
D03*
X669000D02*
D03*
X659000Y454500D02*
D03*
X609000D02*
D03*
X366000Y455000D02*
D03*
X416000D02*
D03*
X426000Y485000D02*
D03*
X366000D02*
D03*
X447000D02*
D03*
X507000D02*
D03*
X497000Y455000D02*
D03*
X447000D02*
D03*
X528000Y485000D02*
D03*
X588000D02*
D03*
X578000Y455000D02*
D03*
X528000D02*
D03*
D45*
X755000Y448000D02*
D03*
Y455874D02*
D03*
Y463748D02*
D03*
X346500Y453004D02*
D03*
Y460878D02*
D03*
Y468752D02*
D03*
Y476626D02*
D03*
D46*
X755000Y471622D02*
D03*
D47*
X346500Y484500D02*
D03*
D48*
X413500Y495500D02*
D03*
X702000Y468500D02*
D03*
X772000Y430500D02*
D03*
X723040Y490750D02*
D03*
X715000Y496750D02*
D03*
X715039Y490750D02*
D03*
X723000Y496750D02*
D03*
X480500Y504500D02*
D03*
X553000Y504000D02*
D03*
X699000Y439000D02*
D03*
X735602Y489963D02*
D03*
X735663Y496075D02*
D03*
X712000Y439000D02*
>>>>>>> 086f05f611e4eabd8aa2a084d90faab6d215b326
D03*
M02*
