G04*
G04 #@! TF.GenerationSoftware,Altium Limited,Altium Designer,23.0.1 (38)*
G04*
G04 Layer_Color=128*
<<<<<<< HEAD
%FSLAX24Y24*%
%MOIN*%
G70*
G04*
G04 #@! TF.SameCoordinates,BEEE6B11-5ECA-4AAD-BFAB-FF97A37F51A9*
=======
%FSLAX25Y25*%
%MOIN*%
G70*
G04*
G04 #@! TF.SameCoordinates,3E06254A-0F58-42D6-91FB-0DF0C2053515*
>>>>>>> 086f05f611e4eabd8aa2a084d90faab6d215b326
G04*
G04*
G04 #@! TF.FilePolarity,Positive*
G04*
G01*
G75*
<<<<<<< HEAD
%ADD13C,0.0050*%
D13*
X60648Y44098D02*
X61248D01*
X60948Y43798D02*
Y44398D01*
X66652Y44102D02*
X67252D01*
X66952Y43802D02*
Y44402D01*
X64649Y44099D02*
X65249D01*
X64949Y43799D02*
Y44399D01*
X62648Y44098D02*
X63248D01*
X62948Y43798D02*
Y44398D01*
X60605Y48450D02*
X61195D01*
X60900Y48155D02*
Y48745D01*
X66605Y48450D02*
X67195D01*
X66900Y48155D02*
Y48745D01*
X65605Y45450D02*
X66195D01*
X65900Y45155D02*
Y45745D01*
X60605Y45450D02*
X61195D01*
X60900Y45155D02*
Y45745D01*
X36305Y45500D02*
X36895D01*
X36600Y45205D02*
Y45795D01*
X41305Y45500D02*
X41895D01*
X41600Y45205D02*
Y45795D01*
X42305Y48500D02*
X42895D01*
X42600Y48205D02*
Y48795D01*
X36305Y48500D02*
X36895D01*
X36600Y48205D02*
Y48795D01*
X36196Y44096D02*
X36796D01*
X36496Y43796D02*
Y44396D01*
X42200Y44100D02*
X42800D01*
X42500Y43800D02*
Y44400D01*
X40197Y44097D02*
X40797D01*
X40497Y43797D02*
Y44397D01*
X38196Y44096D02*
X38796D01*
X38496Y43796D02*
Y44396D01*
X52499Y44099D02*
X53099D01*
X52799Y43799D02*
Y44399D01*
X58503Y44103D02*
X59103D01*
X58803Y43803D02*
Y44403D01*
X56500Y44100D02*
X57100D01*
X56800Y43800D02*
Y44400D01*
X54499Y44099D02*
X55099D01*
X54799Y43799D02*
Y44399D01*
X44405Y48500D02*
X44995D01*
X44700Y48205D02*
Y48795D01*
X50405Y48500D02*
X50995D01*
X50700Y48205D02*
Y48795D01*
X49405Y45500D02*
X49995D01*
X49700Y45205D02*
Y45795D01*
X44405Y45500D02*
X44995D01*
X44700Y45205D02*
Y45795D01*
X52505Y48500D02*
X53095D01*
X52800Y48205D02*
Y48795D01*
X58505Y48500D02*
X59095D01*
X58800Y48205D02*
Y48795D01*
X57505Y45500D02*
X58095D01*
X57800Y45205D02*
Y45795D01*
X52505Y45500D02*
X53095D01*
X52800Y45205D02*
Y45795D01*
X75343Y44800D02*
X75657D01*
X75500Y44643D02*
Y44957D01*
X75343Y45587D02*
X75657D01*
X75500Y45430D02*
Y45745D01*
X75343Y46375D02*
X75657D01*
X75500Y46217D02*
Y46532D01*
X75343Y47162D02*
X75657D01*
X75500Y47005D02*
Y47320D01*
X34493Y45300D02*
X34807D01*
X34650Y45143D02*
Y45458D01*
X34493Y46088D02*
X34807D01*
X34650Y45930D02*
Y46245D01*
X34493Y46875D02*
X34807D01*
X34650Y46718D02*
Y47033D01*
X34493Y47663D02*
X34807D01*
X34650Y47505D02*
Y47820D01*
X34493Y48450D02*
X34807D01*
X34650Y48293D02*
Y48607D01*
X46349Y44099D02*
X46949D01*
X46649Y43799D02*
Y44399D01*
X48350Y44100D02*
X48950D01*
X48650Y43800D02*
Y44400D01*
X50353Y44103D02*
X50953D01*
X50653Y43803D02*
Y44403D01*
X44349Y44099D02*
X44949D01*
X44649Y43799D02*
Y44399D01*
X41210Y49550D02*
X41490D01*
X41350Y49410D02*
Y49690D01*
X70060Y46850D02*
X70340D01*
X70200Y46710D02*
Y46990D01*
X77060Y43050D02*
X77340D01*
X77200Y42910D02*
Y43190D01*
X72164Y49075D02*
X72444D01*
X72304Y48935D02*
Y49215D01*
X71360Y49675D02*
X71640D01*
X71500Y49535D02*
Y49815D01*
X71364Y49075D02*
X71644D01*
X71504Y48935D02*
Y49215D01*
X72160Y49675D02*
X72440D01*
X72300Y49535D02*
Y49815D01*
X47910Y50450D02*
X48190D01*
X48050Y50310D02*
Y50590D01*
X55160Y50400D02*
X55440D01*
X55300Y50260D02*
Y50540D01*
X69760Y43900D02*
X70040D01*
X69900Y43760D02*
Y44040D01*
X73420Y48996D02*
X73700D01*
X73560Y48856D02*
Y49136D01*
X73426Y49607D02*
X73706D01*
X73566Y49467D02*
Y49747D01*
X71060Y43900D02*
X71340D01*
X71200Y43760D02*
Y44040D01*
=======
%ADD13C,0.00500*%
D13*
X606480Y440980D02*
X612480D01*
X609480Y437980D02*
Y443980D01*
X666520Y441020D02*
X672520D01*
X669520Y438020D02*
Y444020D01*
X646487Y440986D02*
X652487D01*
X649486Y437987D02*
Y443987D01*
X626480Y440980D02*
X632480D01*
X629480Y437980D02*
Y443980D01*
X606047Y484500D02*
X611953D01*
X609000Y481547D02*
Y487453D01*
X666047Y484500D02*
X671953D01*
X669000Y481547D02*
Y487453D01*
X656047Y454500D02*
X661953D01*
X659000Y451547D02*
Y457453D01*
X606047Y454500D02*
X611953D01*
X609000Y451547D02*
Y457453D01*
X363047Y455000D02*
X368953D01*
X366000Y452047D02*
Y457953D01*
X413047Y455000D02*
X418953D01*
X416000Y452047D02*
Y457953D01*
X423047Y485000D02*
X428953D01*
X426000Y482047D02*
Y487953D01*
X363047Y485000D02*
X368953D01*
X366000Y482047D02*
Y487953D01*
X361961Y440961D02*
X367961D01*
X364961Y437961D02*
Y443961D01*
X422000Y441000D02*
X428000D01*
X425000Y438000D02*
Y444000D01*
X401967Y440967D02*
X407967D01*
X404967Y437967D02*
Y443967D01*
X381961Y440961D02*
X387961D01*
X384961Y437961D02*
Y443961D01*
X524994Y440994D02*
X530994D01*
X527994Y437994D02*
Y443994D01*
X585033Y441033D02*
X591033D01*
X588033Y438033D02*
Y444033D01*
X565000Y441000D02*
X571000D01*
X568000Y438000D02*
Y444000D01*
X544994Y440994D02*
X550994D01*
X547994Y437994D02*
Y443994D01*
X444047Y485000D02*
X449953D01*
X447000Y482047D02*
Y487953D01*
X504047Y485000D02*
X509953D01*
X507000Y482047D02*
Y487953D01*
X494047Y455000D02*
X499953D01*
X497000Y452047D02*
Y457953D01*
X444047Y455000D02*
X449953D01*
X447000Y452047D02*
Y457953D01*
X525047Y485000D02*
X530953D01*
X528000Y482047D02*
Y487953D01*
X585047Y485000D02*
X590953D01*
X588000Y482047D02*
Y487953D01*
X575047Y455000D02*
X580953D01*
X578000Y452047D02*
Y457953D01*
X525047Y455000D02*
X530953D01*
X528000Y452047D02*
Y457953D01*
X753425Y448000D02*
X756575D01*
X755000Y446425D02*
Y449575D01*
X753425Y455874D02*
X756575D01*
X755000Y454299D02*
Y457449D01*
X753425Y463748D02*
X756575D01*
X755000Y462173D02*
Y465323D01*
X753425Y471622D02*
X756575D01*
X755000Y470047D02*
Y473197D01*
X344925Y453004D02*
X348075D01*
X346500Y451429D02*
Y454579D01*
X344925Y460878D02*
X348075D01*
X346500Y459303D02*
Y462453D01*
X344925Y468752D02*
X348075D01*
X346500Y467177D02*
Y470327D01*
X344925Y476626D02*
X348075D01*
X346500Y475051D02*
Y478201D01*
X344925Y484500D02*
X348075D01*
X346500Y482925D02*
Y486075D01*
X463494Y440994D02*
X469494D01*
X466494Y437994D02*
Y443994D01*
X483500Y441000D02*
X489500D01*
X486500Y438000D02*
Y444000D01*
X503533Y441033D02*
X509533D01*
X506533Y438033D02*
Y444033D01*
X443494Y440994D02*
X449494D01*
X446494Y437994D02*
Y443994D01*
X412100Y495500D02*
X414900D01*
X413500Y494100D02*
Y496900D01*
X700600Y468500D02*
X703400D01*
X702000Y467100D02*
Y469900D01*
X770600Y430500D02*
X773400D01*
X772000Y429100D02*
Y431900D01*
X721640Y490750D02*
X724440D01*
X723040Y489350D02*
Y492150D01*
X713600Y496750D02*
X716400D01*
X715000Y495350D02*
Y498150D01*
X713639Y490750D02*
X716439D01*
X715039Y489350D02*
Y492150D01*
X721600Y496750D02*
X724400D01*
X723000Y495350D02*
Y498150D01*
X479100Y504500D02*
X481900D01*
X480500Y503100D02*
Y505900D01*
X551600Y504000D02*
X554400D01*
X553000Y502600D02*
Y505400D01*
X697600Y439000D02*
X700400D01*
X699000Y437600D02*
Y440400D01*
X734202Y489963D02*
X737002D01*
X735602Y488563D02*
Y491363D01*
X734263Y496075D02*
X737063D01*
X735663Y494675D02*
Y497475D01*
X710600Y439000D02*
X713400D01*
X712000Y437600D02*
Y440400D01*
>>>>>>> 086f05f611e4eabd8aa2a084d90faab6d215b326
M02*
