M48
;Layer_Color=9474304
;FILE_FORMAT=2:4
INCH,LZ
;TYPE=PLATED
T1F00S00C0.0280
T2F00S00C0.0315
T3F00S00C0.0591
T4F00S00C0.0600
%
T01
X0699Y0439
X0712
X0702Y04685
X0772Y04305
X07356Y048996
X073566Y049607
X0723Y049675
X072304Y049075
X071504Y049075
X0715Y049675
X0553Y0504
X04805Y05045
X04135Y04955
T02
X03465Y0453
Y046088
X0755Y046375
Y045587
Y0448
Y047162
X03465Y046875
Y047663
Y04845
T03
X0366Y0455
X0416
X0447
X0497
X0528
X0578
X0609Y04545
X0659
X0669Y04845
X0609
X0588Y0485
X0528
X0507
X0447
X0426
X0366
T04
X036496Y044096
X038496
X040497Y044097
X0425Y0441
X044649Y044099
X046649
X04865Y0441
X050653Y044103
X052799Y044099
X054799
X0568Y0441
X058803Y044103
X060948Y044098
X062948
X064949Y044099
X066952Y044102
M30
