G04*
G04 #@! TF.GenerationSoftware,Altium Limited,Altium Designer,23.0.1 (38)*
G04*
G04 Layer_Physical_Order=1*
G04 Layer_Color=255*
%FSLAX24Y24*%
%MOIN*%
G70*
G04*
G04 #@! TF.SameCoordinates,BEEE6B11-5ECA-4AAD-BFAB-FF97A37F51A9*
G04*
G04*
G04 #@! TF.FilePolarity,Positive*
G04*
G01*
G75*
%ADD10C,0.0100*%
%ADD17R,0.0472X0.0512*%
%ADD18R,0.0413X0.0531*%
%ADD19R,0.0472X0.0142*%
%ADD20O,0.0472X0.0142*%
%ADD21R,0.0925X0.0610*%
%ADD22R,0.0531X0.0413*%
%ADD23R,0.0394X0.0236*%
%ADD24R,0.0472X0.0591*%
%ADD40C,0.0250*%
%ADD41C,0.0150*%
%ADD42R,0.1100X0.1200*%
%ADD43O,0.1100X0.1200*%
%ADD44C,0.0984*%
%ADD45C,0.0551*%
G04:AMPARAMS|DCode=46|XSize=55.1mil|YSize=55.1mil|CornerRadius=13.8mil|HoleSize=0mil|Usage=FLASHONLY|Rotation=270.000|XOffset=0mil|YOffset=0mil|HoleType=Round|Shape=RoundedRectangle|*
%AMROUNDEDRECTD46*
21,1,0.0551,0.0276,0,0,270.0*
21,1,0.0276,0.0551,0,0,270.0*
1,1,0.0276,-0.0138,-0.0138*
1,1,0.0276,-0.0138,0.0138*
1,1,0.0276,0.0138,0.0138*
1,1,0.0276,0.0138,-0.0138*
%
%ADD46ROUNDEDRECTD46*%
%ADD47R,0.0551X0.0551*%
%ADD48C,0.0500*%
G36*
X49035Y50701D02*
X48278Y49944D01*
X48245Y49895D01*
X48237Y49856D01*
X47881D01*
Y49550D01*
X48218D01*
X48554D01*
Y49788D01*
X49313Y50547D01*
X53237D01*
X54798Y48986D01*
X54847Y48953D01*
X54906Y48941D01*
X55948D01*
X56006Y48953D01*
X56056Y48986D01*
X56214Y49144D01*
X56284D01*
Y49500D01*
X56334D01*
Y49550D01*
X56670D01*
Y49620D01*
X57197Y50147D01*
X58638D01*
X58657Y50105D01*
Y49691D01*
X58643Y49682D01*
X57099Y48137D01*
X55472D01*
X53217Y50392D01*
X53142Y50442D01*
X53054Y50460D01*
X51874D01*
X51786Y50442D01*
X51712Y50392D01*
X51465Y50145D01*
X51415Y50112D01*
X51408Y50105D01*
X50607D01*
Y49725D01*
X50543Y49682D01*
X48849Y47987D01*
X47553D01*
X45048Y50492D01*
X45041Y50497D01*
X45056Y50547D01*
X45337D01*
X46898Y48986D01*
X46947Y48953D01*
X47006Y48941D01*
X47832D01*
X47890Y48953D01*
X47940Y48986D01*
X48098Y49144D01*
X48168D01*
Y49450D01*
X47881D01*
Y49360D01*
X47832Y49311D01*
X47786Y49330D01*
Y49856D01*
X47738D01*
X47718Y49902D01*
X47935Y50119D01*
X48004Y50100D01*
X48096D01*
X48185Y50124D01*
X48265Y50170D01*
X48330Y50235D01*
X48376Y50315D01*
X48400Y50404D01*
Y50496D01*
X48376Y50585D01*
X48330Y50665D01*
X48298Y50697D01*
X48319Y50747D01*
X49015D01*
X49035Y50701D01*
D02*
G37*
G36*
X75572Y49937D02*
X75553Y49891D01*
X75151D01*
X74540Y50501D01*
X74559Y50547D01*
X74961D01*
X75572Y49937D01*
D02*
G37*
G36*
X43619Y50497D02*
X43612Y50492D01*
X43480Y50361D01*
X43468Y50342D01*
X43335Y50210D01*
X43250D01*
X43228Y50205D01*
X42507D01*
Y49928D01*
X42379D01*
X42291Y49911D01*
X42217Y49861D01*
X41721Y49365D01*
X41671Y49291D01*
X41653Y49203D01*
Y48778D01*
X41163Y48287D01*
X38987D01*
X38443Y48832D01*
Y49552D01*
X38425Y49640D01*
X38376Y49715D01*
X37589Y50501D01*
X37609Y50547D01*
X39631D01*
Y49856D01*
X39448D01*
Y49550D01*
X39784D01*
Y49500D01*
D01*
Y49550D01*
X40120D01*
Y49856D01*
X39937D01*
Y50547D01*
X43604D01*
X43619Y50497D01*
D02*
G37*
G36*
X77101Y50730D02*
X77295Y50671D01*
X77473Y50576D01*
X77629Y50448D01*
X77757Y50292D01*
X77853Y50113D01*
X77911Y49920D01*
X77930Y49731D01*
X77927Y49715D01*
X77936Y42639D01*
X77937Y42634D01*
X77924Y42469D01*
X77884Y42303D01*
X77819Y42145D01*
X77730Y42000D01*
X77619Y41870D01*
X77489Y41759D01*
X77344Y41670D01*
X77186Y41605D01*
X77020Y41565D01*
X76855Y41552D01*
X76850Y41553D01*
X75101D01*
X75096Y41603D01*
X75171Y41618D01*
X75245Y41668D01*
X76020Y42442D01*
X76854D01*
X76941Y42459D01*
X77016Y42509D01*
X77207Y42700D01*
X77246D01*
X77335Y42724D01*
X77415Y42770D01*
X77480Y42835D01*
X77526Y42915D01*
X77550Y43004D01*
Y43096D01*
X77526Y43185D01*
X77480Y43265D01*
X77429Y43316D01*
Y44500D01*
X77412Y44588D01*
X77362Y44662D01*
X76275Y45750D01*
X76200Y45799D01*
X76113Y45817D01*
X75801D01*
X75801Y45818D01*
X75731Y45888D01*
X75645Y45937D01*
X75578Y45955D01*
Y46007D01*
X75645Y46025D01*
X75731Y46074D01*
X75801Y46144D01*
X75850Y46230D01*
X75876Y46325D01*
Y46424D01*
X75850Y46520D01*
X75801Y46605D01*
X75731Y46675D01*
X75645Y46725D01*
X75618Y46732D01*
X75625Y46782D01*
X75638D01*
X75731Y46800D01*
X75809Y46853D01*
X75862Y46932D01*
X75880Y47024D01*
Y47300D01*
X75862Y47393D01*
X75809Y47471D01*
X75731Y47524D01*
X75638Y47542D01*
X75362D01*
X75269Y47524D01*
X75191Y47471D01*
X75138Y47393D01*
X75120Y47300D01*
Y47024D01*
X75138Y46932D01*
X75191Y46853D01*
X75269Y46800D01*
X75362Y46782D01*
X75375D01*
X75382Y46732D01*
X75355Y46725D01*
X75269Y46675D01*
X75199Y46605D01*
X75150Y46520D01*
X75124Y46424D01*
Y46325D01*
X75150Y46230D01*
X75199Y46144D01*
X75269Y46074D01*
X75355Y46025D01*
X75422Y46007D01*
Y45955D01*
X75355Y45937D01*
X75269Y45888D01*
X75199Y45818D01*
X75150Y45732D01*
X75124Y45637D01*
Y45538D01*
X75150Y45442D01*
X75199Y45357D01*
X75269Y45287D01*
X75355Y45237D01*
X75422Y45220D01*
Y45168D01*
X75355Y45150D01*
X75269Y45101D01*
X75199Y45031D01*
X75150Y44945D01*
X75125Y44850D01*
X75500D01*
X75875D01*
X75850Y44945D01*
X75801Y45031D01*
X75731Y45101D01*
X75645Y45150D01*
X75578Y45168D01*
Y45220D01*
X75645Y45237D01*
X75731Y45287D01*
X75801Y45357D01*
X75801Y45358D01*
X76018D01*
X76971Y44405D01*
Y43316D01*
X76920Y43265D01*
X76874Y43185D01*
X76850Y43096D01*
Y43004D01*
X76852Y42995D01*
X76759Y42901D01*
X75925D01*
X75837Y42883D01*
X75762Y42833D01*
X74988Y42059D01*
X74741D01*
Y42300D01*
X74404D01*
Y42400D01*
X74741D01*
Y42745D01*
X74553D01*
Y42805D01*
X74736D01*
Y43150D01*
X74400D01*
Y43200D01*
X74350D01*
Y43595D01*
X74280D01*
X74067Y43808D01*
X74018Y43841D01*
X73959Y43853D01*
X72986D01*
Y44095D01*
X72700D01*
Y43700D01*
X72600D01*
Y44095D01*
X72530D01*
X72440Y44185D01*
X72459Y44231D01*
X74532D01*
X74591Y44243D01*
X74640Y44276D01*
X74858Y44494D01*
X74891Y44543D01*
X74903Y44602D01*
Y46050D01*
X74891Y46109D01*
X74858Y46158D01*
X74140Y46876D01*
X74090Y46909D01*
X74041Y46919D01*
Y47166D01*
X73427D01*
Y46434D01*
X74041D01*
Y46478D01*
X74087Y46497D01*
X74597Y45987D01*
Y45835D01*
X74551Y45815D01*
X74258Y46108D01*
X74209Y46141D01*
X74150Y46153D01*
X74041D01*
Y46366D01*
X73427D01*
Y45634D01*
X74041D01*
Y45838D01*
X74091Y45843D01*
X74397Y45537D01*
Y45136D01*
X74389Y45130D01*
X74321Y45143D01*
X74317Y45150D01*
X74158Y45308D01*
X74109Y45341D01*
X74050Y45353D01*
X74041D01*
Y45566D01*
X73427D01*
Y44937D01*
X73273D01*
Y45566D01*
X72896D01*
X72882Y45584D01*
X72907Y45634D01*
X73273D01*
Y46366D01*
X72896D01*
X72882Y46384D01*
X72907Y46434D01*
X73273D01*
Y47166D01*
X72876D01*
X72833Y47209D01*
X72854Y47258D01*
X73165D01*
X73232Y47271D01*
X73289Y47309D01*
X73326Y47366D01*
X73340Y47432D01*
X73329Y47485D01*
X73358Y47535D01*
X74988D01*
X75047Y47547D01*
X75096Y47580D01*
X76023Y48507D01*
X76043D01*
X76058Y48509D01*
X76566D01*
Y49123D01*
X75834D01*
Y48751D01*
X75712Y48628D01*
X75666Y48647D01*
Y49123D01*
X74934D01*
Y48726D01*
X74862Y48653D01*
X74816Y48673D01*
Y49123D01*
X74153D01*
Y49277D01*
X74816D01*
Y49727D01*
X74862Y49747D01*
X74934Y49674D01*
Y49277D01*
X75666D01*
Y49777D01*
X75712Y49797D01*
X75834Y49674D01*
Y49277D01*
X76566D01*
Y49891D01*
X76051D01*
X75240Y50701D01*
X75259Y50747D01*
X76900D01*
X76910Y50749D01*
X77101Y50730D01*
D02*
G37*
G36*
X47802Y50697D02*
X47770Y50665D01*
X47724Y50585D01*
X47700Y50496D01*
Y50404D01*
X47719Y50335D01*
X47342Y49958D01*
X47309Y49909D01*
X47298Y49856D01*
X47114D01*
Y49260D01*
X47064Y49253D01*
X45615Y50701D01*
X45635Y50747D01*
X47781D01*
X47802Y50697D01*
D02*
G37*
G36*
X55115D02*
X55085Y50680D01*
X55020Y50615D01*
X54974Y50535D01*
X54950Y50446D01*
Y50354D01*
X54974Y50265D01*
X55020Y50185D01*
X55085Y50120D01*
X55165Y50074D01*
X55254Y50050D01*
X55346D01*
X55435Y50074D01*
X55515Y50120D01*
X55580Y50185D01*
X55626Y50265D01*
X55650Y50354D01*
Y50434D01*
X55763Y50547D01*
X56312D01*
X56331Y50501D01*
X55686Y49856D01*
X55230D01*
Y49247D01*
X54969D01*
X53515Y50701D01*
X53535Y50747D01*
X55101D01*
X55115Y50697D01*
D02*
G37*
G36*
X62492Y48692D02*
X62541Y48659D01*
X62570Y48653D01*
X62566Y48603D01*
X61473D01*
X61469Y48623D01*
X61425Y48730D01*
X61360Y48827D01*
X61277Y48910D01*
X61180Y48975D01*
X61073Y49019D01*
X60958Y49042D01*
X60842D01*
X60727Y49019D01*
X60631Y48980D01*
X60597Y48996D01*
X60583Y49010D01*
Y49295D01*
X61043D01*
Y50070D01*
X61093Y50091D01*
X62492Y48692D01*
D02*
G37*
G36*
X59917Y50105D02*
Y49295D01*
X60277D01*
Y48920D01*
X60289Y48862D01*
X60322Y48812D01*
X60386Y48747D01*
X60375Y48730D01*
X60331Y48623D01*
X60308Y48508D01*
Y48392D01*
X60331Y48277D01*
X60375Y48170D01*
X60440Y48073D01*
X60523Y47990D01*
X60620Y47925D01*
X60727Y47881D01*
X60842Y47858D01*
X60958D01*
X61073Y47881D01*
X61180Y47925D01*
X61277Y47990D01*
X61360Y48073D01*
X61425Y48170D01*
X61469Y48277D01*
X61473Y48297D01*
X65992D01*
X66050Y48309D01*
X66100Y48342D01*
X66258Y48500D01*
X66308Y48479D01*
Y48392D01*
X66331Y48277D01*
X66375Y48170D01*
X66440Y48073D01*
X66523Y47990D01*
X66620Y47925D01*
X66727Y47881D01*
X66842Y47858D01*
X66958D01*
X67073Y47881D01*
X67180Y47925D01*
X67277Y47990D01*
X67360Y48073D01*
X67425Y48170D01*
X67469Y48277D01*
X67492Y48392D01*
Y48432D01*
X67538Y48451D01*
X67648Y48342D01*
X67697Y48309D01*
X67756Y48297D01*
X67839D01*
X67897Y48309D01*
X67947Y48342D01*
X68361Y48756D01*
X68650D01*
Y48161D01*
X68644Y48130D01*
Y47718D01*
X68059D01*
Y47653D01*
X57302D01*
X57292Y47703D01*
X57356Y47746D01*
X58158Y48548D01*
X58208Y48527D01*
Y48442D01*
X58231Y48327D01*
X58275Y48220D01*
X58340Y48123D01*
X58423Y48040D01*
X58520Y47975D01*
X58627Y47931D01*
X58742Y47908D01*
X58858D01*
X58973Y47931D01*
X59080Y47975D01*
X59177Y48040D01*
X59260Y48123D01*
X59325Y48220D01*
X59369Y48327D01*
X59392Y48442D01*
Y48558D01*
X59369Y48673D01*
X59325Y48780D01*
X59260Y48877D01*
X59177Y48960D01*
X59080Y49025D01*
X58973Y49069D01*
X58858Y49092D01*
X58773D01*
X58752Y49142D01*
X58901Y49290D01*
X59040D01*
X59062Y49295D01*
X59783D01*
Y50105D01*
X59802Y50147D01*
X59898D01*
X59917Y50105D01*
D02*
G37*
G36*
X75547Y48463D02*
X74925Y47841D01*
X74548D01*
X74528Y47887D01*
X75151Y48509D01*
X75528D01*
X75547Y48463D01*
D02*
G37*
G36*
X55214Y47746D02*
X55278Y47703D01*
X55268Y47653D01*
X53863D01*
X53314Y48203D01*
X53325Y48220D01*
X53369Y48327D01*
X53392Y48442D01*
Y48558D01*
X53369Y48673D01*
X53325Y48780D01*
X53260Y48877D01*
X53177Y48960D01*
X53080Y49025D01*
X52973Y49069D01*
X52858Y49092D01*
X52742D01*
X52653Y49074D01*
X52603Y49109D01*
Y49295D01*
X52993D01*
Y49902D01*
X53039Y49921D01*
X55214Y47746D01*
D02*
G37*
G36*
X47296Y47596D02*
X47370Y47546D01*
X47458Y47528D01*
X48944D01*
X49032Y47546D01*
X49106Y47596D01*
X50058Y48548D01*
X50108Y48527D01*
Y48442D01*
X50131Y48327D01*
X50175Y48220D01*
X50240Y48123D01*
X50323Y48040D01*
X50420Y47975D01*
X50527Y47931D01*
X50642Y47908D01*
X50758D01*
X50873Y47931D01*
X50980Y47975D01*
X51077Y48040D01*
X51160Y48123D01*
X51225Y48220D01*
X51269Y48327D01*
X51292Y48442D01*
Y48558D01*
X51269Y48673D01*
X51225Y48780D01*
X51160Y48877D01*
X51077Y48960D01*
X50980Y49025D01*
X50873Y49069D01*
X50758Y49092D01*
X50673D01*
X50652Y49142D01*
X50801Y49290D01*
X50990D01*
X51012Y49295D01*
X51733D01*
Y49772D01*
X51756Y49788D01*
X51821Y49853D01*
X51867Y49834D01*
Y49295D01*
X52297D01*
Y48958D01*
X52309Y48900D01*
X52332Y48865D01*
X52275Y48780D01*
X52231Y48673D01*
X52208Y48558D01*
Y48442D01*
X52231Y48327D01*
X52275Y48220D01*
X52340Y48123D01*
X52423Y48040D01*
X52520Y47975D01*
X52627Y47931D01*
X52742Y47908D01*
X52858D01*
X52973Y47931D01*
X53080Y47975D01*
X53097Y47986D01*
X53585Y47499D01*
X53565Y47453D01*
X45963D01*
X45214Y48203D01*
X45225Y48220D01*
X45269Y48327D01*
X45292Y48442D01*
Y48558D01*
X45269Y48673D01*
X45225Y48780D01*
X45160Y48877D01*
X45077Y48960D01*
X44980Y49025D01*
X44873Y49069D01*
X44758Y49092D01*
X44642D01*
X44527Y49069D01*
X44518Y49066D01*
X44483Y49101D01*
Y49395D01*
X44893D01*
Y49934D01*
X44939Y49953D01*
X47296Y47596D01*
D02*
G37*
G36*
X72645Y48462D02*
X72661Y48451D01*
X72674Y48389D01*
X72688Y48368D01*
X72709Y48328D01*
X72688Y48288D01*
X72674Y48267D01*
X72660Y48200D01*
X72674Y48133D01*
X72688Y48112D01*
X72709Y48072D01*
X72688Y48032D01*
X72674Y48011D01*
X72660Y47944D01*
X72674Y47877D01*
X72711Y47821D01*
Y47811D01*
X72674Y47755D01*
X72660Y47688D01*
X72674Y47622D01*
X72688Y47600D01*
X72709Y47560D01*
X72688Y47520D01*
X72674Y47499D01*
X72664Y47449D01*
X72614Y47427D01*
X71666Y48375D01*
X71685Y48422D01*
X72487D01*
X72555Y48435D01*
X72613Y48474D01*
X72613Y48474D01*
X72645Y48462D01*
D02*
G37*
G36*
X68059Y47282D02*
X68644D01*
Y46742D01*
Y46318D01*
X68342D01*
X68318Y46355D01*
X67372Y47301D01*
X67391Y47347D01*
X68059D01*
Y47282D01*
D02*
G37*
G36*
X63731Y50301D02*
X63692Y50262D01*
X63659Y50212D01*
X63647Y50154D01*
Y49806D01*
X63480D01*
Y49094D01*
X64152D01*
Y49806D01*
X63953D01*
Y50090D01*
X64010Y50147D01*
X64416D01*
X64442Y50106D01*
X64442Y50097D01*
X64431Y50041D01*
Y49806D01*
X64248D01*
Y49500D01*
X64584D01*
X64920D01*
Y49806D01*
X64737D01*
Y49947D01*
X69546D01*
X69565Y49901D01*
X69231Y49566D01*
X69200D01*
Y49398D01*
X69495D01*
X70044Y49947D01*
X70240D01*
X70262Y49906D01*
Y49785D01*
X70598D01*
Y49685D01*
X70262D01*
Y49565D01*
X70262Y49565D01*
X70262D01*
X70266Y49515D01*
X70259Y49480D01*
X70272Y49413D01*
X70310Y49356D01*
Y49347D01*
X70272Y49290D01*
X70259Y49224D01*
X70272Y49157D01*
X70287Y49135D01*
X70307Y49096D01*
X70287Y49056D01*
X70272Y49034D01*
X70259Y48968D01*
X70272Y48901D01*
X70287Y48880D01*
X70307Y48840D01*
X70287Y48800D01*
X70272Y48778D01*
X70259Y48712D01*
X70272Y48645D01*
X70310Y48589D01*
Y48579D01*
X70272Y48523D01*
X70259Y48456D01*
X70272Y48389D01*
X70287Y48368D01*
X70307Y48328D01*
X70287Y48288D01*
X70272Y48267D01*
X70259Y48200D01*
X70272Y48133D01*
X70287Y48112D01*
X70307Y48072D01*
X70287Y48032D01*
X70272Y48011D01*
X70259Y47944D01*
X70272Y47877D01*
X70310Y47821D01*
Y47811D01*
X70272Y47755D01*
X70259Y47688D01*
X70272Y47622D01*
X70287Y47600D01*
X70307Y47560D01*
X70287Y47520D01*
X70272Y47499D01*
X70259Y47432D01*
X70272Y47366D01*
X70310Y47309D01*
X70366Y47271D01*
X70433Y47258D01*
X70764D01*
X70830Y47271D01*
X70842Y47279D01*
X71104D01*
X71497Y46887D01*
Y46666D01*
X71343D01*
Y45934D01*
X71788D01*
X71809Y45884D01*
X71740Y45816D01*
X71343D01*
Y45084D01*
X71306Y45053D01*
X71226D01*
X71189Y45084D01*
Y45816D01*
X70576D01*
Y45603D01*
X70127D01*
X69843Y45887D01*
Y46667D01*
X69893Y46681D01*
X69920Y46635D01*
X69985Y46570D01*
X70065Y46524D01*
X70154Y46500D01*
X70246D01*
X70335Y46524D01*
X70415Y46570D01*
X70435Y46590D01*
X70576Y46449D01*
Y45934D01*
X71189D01*
Y46666D01*
X70792D01*
X70576Y46882D01*
X70549Y46900D01*
X70526Y46985D01*
X70480Y47065D01*
X70415Y47130D01*
X70335Y47176D01*
X70246Y47200D01*
X70154D01*
X70065Y47176D01*
X69985Y47130D01*
X69920Y47065D01*
X69874Y46985D01*
X69850Y46896D01*
Y46858D01*
X69800Y46843D01*
X69799Y46845D01*
X69643Y47000D01*
Y48338D01*
X69632Y48397D01*
X69599Y48446D01*
X69447Y48598D01*
Y48818D01*
X68956D01*
Y49017D01*
X69069Y49130D01*
X69100D01*
Y49298D01*
X68805D01*
X68706Y49199D01*
X68659Y49192D01*
X68659Y49192D01*
X68659Y49192D01*
X68066D01*
Y48893D01*
X67797Y48625D01*
X67692Y48730D01*
X67683Y48774D01*
X67650Y48824D01*
X67274Y49200D01*
X67224Y49233D01*
X67166Y49245D01*
X66634D01*
X66575Y49233D01*
X66526Y49200D01*
X65929Y48603D01*
X64560D01*
X64555Y48653D01*
X64584Y48659D01*
X64633Y48692D01*
X64692Y48750D01*
X64725Y48800D01*
X64737Y48859D01*
Y49094D01*
X64920D01*
Y49400D01*
X64584D01*
X64248D01*
Y49094D01*
X64431D01*
Y48953D01*
X62663D01*
X61315Y50301D01*
X61335Y50347D01*
X63712D01*
X63731Y50301D01*
D02*
G37*
G36*
X37984Y49457D02*
Y48737D01*
X38002Y48649D01*
X38051Y48574D01*
X38730Y47896D01*
X38804Y47846D01*
X38892Y47828D01*
X41258D01*
X41346Y47846D01*
X41420Y47896D01*
X41959Y48435D01*
X42013Y48418D01*
X42031Y48327D01*
X42075Y48220D01*
X42140Y48123D01*
X42223Y48040D01*
X42320Y47975D01*
X42427Y47931D01*
X42542Y47908D01*
X42658D01*
X42773Y47931D01*
X42880Y47975D01*
X42977Y48040D01*
X43060Y48123D01*
X43125Y48220D01*
X43169Y48327D01*
X43192Y48442D01*
Y48558D01*
X43169Y48673D01*
X43125Y48780D01*
X43060Y48877D01*
X42977Y48960D01*
X42880Y49025D01*
X42773Y49069D01*
X42658Y49092D01*
X42542D01*
X42427Y49069D01*
X42320Y49025D01*
X42223Y48960D01*
X42162Y48900D01*
X42112Y48920D01*
Y49108D01*
X42457Y49453D01*
X42507Y49432D01*
Y49395D01*
X43633D01*
Y49858D01*
X43721Y49947D01*
X43767Y49928D01*
Y49395D01*
X44177D01*
Y49038D01*
X44189Y48979D01*
X44222Y48930D01*
X44257Y48895D01*
X44240Y48877D01*
X44175Y48780D01*
X44131Y48673D01*
X44108Y48558D01*
Y48442D01*
X44131Y48327D01*
X44175Y48220D01*
X44240Y48123D01*
X44323Y48040D01*
X44420Y47975D01*
X44527Y47931D01*
X44642Y47908D01*
X44758D01*
X44873Y47931D01*
X44980Y47975D01*
X44997Y47986D01*
X45792Y47192D01*
X45841Y47159D01*
X45900Y47147D01*
X67093D01*
X68057Y46184D01*
Y46168D01*
X68059Y46153D01*
Y45882D01*
X68644D01*
Y45392D01*
Y44968D01*
X68276D01*
X66236Y47008D01*
X66186Y47041D01*
X66128Y47053D01*
X38263D01*
X37114Y48203D01*
X37125Y48220D01*
X37169Y48327D01*
X37192Y48442D01*
Y48558D01*
X37169Y48673D01*
X37125Y48780D01*
X37060Y48877D01*
X36977Y48960D01*
X36880Y49025D01*
X36773Y49069D01*
X36753Y49073D01*
Y49395D01*
X37443D01*
Y49934D01*
X37489Y49953D01*
X37984Y49457D01*
D02*
G37*
G36*
X72659Y45349D02*
Y44937D01*
X72043D01*
X71972Y45008D01*
X71933Y45034D01*
X71943Y45084D01*
X71957D01*
Y45599D01*
X72115Y45758D01*
X72143Y45800D01*
X72166Y45808D01*
X72199Y45809D01*
X72659Y45349D01*
D02*
G37*
G36*
X70855Y43834D02*
X70874Y43765D01*
X70920Y43685D01*
X70985Y43620D01*
X71065Y43574D01*
X71154Y43550D01*
X71246D01*
X71335Y43574D01*
X71388Y43604D01*
X71400Y43592D01*
X71450Y43559D01*
X71508Y43547D01*
X71605D01*
Y43305D01*
X72278D01*
X72278Y43305D01*
X72314D01*
Y43305D01*
X72328Y43305D01*
X72423D01*
X72442Y43259D01*
X72311Y43127D01*
X72153D01*
Y43192D01*
X71906D01*
Y42974D01*
Y42756D01*
X72153D01*
Y42821D01*
X72298D01*
X72347Y42818D01*
X72347Y42779D01*
Y42382D01*
X72587D01*
X72644Y42371D01*
X72905D01*
X73069Y42207D01*
X73143Y42157D01*
X73231Y42140D01*
X73359D01*
Y41955D01*
X73697D01*
X73719Y41932D01*
X73731Y41874D01*
X73781Y41799D01*
X73913Y41668D01*
X73987Y41618D01*
X74062Y41603D01*
X74057Y41553D01*
X71336D01*
X71331Y41603D01*
X71360Y41609D01*
X71410Y41642D01*
X71776Y42008D01*
X72153D01*
Y42444D01*
X71559D01*
Y42224D01*
X71238Y41903D01*
X70010D01*
X70008Y41905D01*
X70035Y41955D01*
X70078D01*
Y41955D01*
X70114D01*
Y41955D01*
X70400D01*
Y42350D01*
X70450D01*
Y42400D01*
X70786D01*
Y42745D01*
X70607D01*
Y42805D01*
X70791D01*
Y43150D01*
X70454D01*
Y43250D01*
X70791D01*
Y43595D01*
X70607D01*
Y43657D01*
X70803Y43853D01*
X70855Y43834D01*
D02*
G37*
G36*
X73355Y42805D02*
X73461D01*
Y42745D01*
X73359D01*
Y42636D01*
X73309Y42615D01*
X73162Y42762D01*
X73088Y42812D01*
X73000Y42829D01*
X72644D01*
X72587Y42818D01*
X72501D01*
X72485Y42859D01*
X72484Y42868D01*
X72758Y43142D01*
X72791Y43191D01*
X72803Y43250D01*
Y43305D01*
X72986D01*
Y43547D01*
X73355D01*
Y42805D01*
D02*
G37*
G36*
X34250Y50747D02*
X35306D01*
X35325Y50701D01*
X34042Y49418D01*
X34009Y49368D01*
X33997Y49310D01*
Y45800D01*
X34009Y45742D01*
X34042Y45692D01*
X34298Y45436D01*
X34275Y45350D01*
X34650D01*
X35025D01*
X35000Y45445D01*
X34951Y45531D01*
X34881Y45601D01*
X34795Y45650D01*
X34728Y45668D01*
Y45720D01*
X34795Y45738D01*
X34881Y45787D01*
X34951Y45857D01*
X35000Y45943D01*
X35026Y46038D01*
Y46137D01*
X35000Y46233D01*
X34951Y46318D01*
X34881Y46388D01*
X34795Y46438D01*
X34728Y46456D01*
Y46507D01*
X34795Y46525D01*
X34881Y46575D01*
X34951Y46645D01*
X35000Y46730D01*
X35026Y46826D01*
Y46925D01*
X35000Y47020D01*
X34951Y47106D01*
X34881Y47176D01*
X34795Y47225D01*
X34728Y47243D01*
Y47295D01*
X34795Y47313D01*
X34881Y47362D01*
X34951Y47432D01*
X35000Y47518D01*
X35026Y47613D01*
Y47712D01*
X35000Y47808D01*
X34951Y47893D01*
X34881Y47963D01*
X34795Y48013D01*
X34751Y48024D01*
X34757Y48074D01*
X35026D01*
Y48826D01*
X34303D01*
Y49246D01*
X35011Y49955D01*
X35057Y49936D01*
Y49395D01*
X35391D01*
Y46393D01*
X35408Y46305D01*
X35458Y46230D01*
X36028Y45660D01*
X36008Y45558D01*
Y45442D01*
X36031Y45327D01*
X36075Y45220D01*
X36140Y45123D01*
X36223Y45040D01*
X36320Y44975D01*
X36427Y44931D01*
X36542Y44908D01*
X36658D01*
X36773Y44931D01*
X36880Y44975D01*
X36977Y45040D01*
X37060Y45123D01*
X37125Y45220D01*
X37169Y45327D01*
X37192Y45442D01*
Y45558D01*
X37169Y45673D01*
X37148Y45724D01*
X37412Y45988D01*
X41180D01*
X41200Y45938D01*
X41140Y45877D01*
X41075Y45780D01*
X41054Y45729D01*
X39900D01*
X39812Y45712D01*
X39738Y45662D01*
X38798Y44722D01*
X38746Y44749D01*
X38623Y44787D01*
X38496Y44799D01*
X38369Y44787D01*
X38246Y44749D01*
X38133Y44689D01*
X38034Y44608D01*
X37953Y44509D01*
X37893Y44396D01*
X37855Y44273D01*
X37843Y44146D01*
Y44046D01*
X37855Y43919D01*
X37893Y43796D01*
X37953Y43683D01*
X38034Y43584D01*
X38133Y43503D01*
X38246Y43443D01*
X38369Y43405D01*
X38496Y43393D01*
X38623Y43405D01*
X38746Y43443D01*
X38859Y43503D01*
X38958Y43584D01*
X39039Y43683D01*
X39100Y43796D01*
X39137Y43919D01*
X39149Y44046D01*
Y44146D01*
X39137Y44273D01*
X39104Y44380D01*
X39995Y45271D01*
X41054D01*
X41075Y45220D01*
X41140Y45123D01*
X41223Y45040D01*
X41320Y44975D01*
X41427Y44931D01*
X41542Y44908D01*
X41658D01*
X41773Y44931D01*
X41880Y44975D01*
X41977Y45040D01*
X42060Y45123D01*
X42125Y45220D01*
X42169Y45327D01*
X42192Y45442D01*
Y45527D01*
X42242Y45548D01*
X42502Y45288D01*
X42576Y45238D01*
X42664Y45221D01*
X44175D01*
X44175Y45220D01*
X44240Y45123D01*
X44323Y45040D01*
X44420Y44975D01*
X44527Y44931D01*
X44642Y44908D01*
X44758D01*
X44873Y44931D01*
X44980Y44975D01*
X45077Y45040D01*
X45160Y45123D01*
X45225Y45220D01*
X45269Y45327D01*
X45292Y45442D01*
Y45558D01*
X45269Y45673D01*
X45248Y45724D01*
X45512Y45988D01*
X49280D01*
X49300Y45938D01*
X49240Y45877D01*
X49175Y45780D01*
X49154Y45729D01*
X48050D01*
X47962Y45712D01*
X47888Y45662D01*
X46951Y44725D01*
X46899Y44753D01*
X46777Y44790D01*
X46649Y44803D01*
X46522Y44790D01*
X46399Y44753D01*
X46287Y44692D01*
X46188Y44611D01*
X46106Y44512D01*
X46046Y44399D01*
X46009Y44277D01*
X45996Y44149D01*
Y44049D01*
X46009Y43922D01*
X46046Y43799D01*
X46106Y43687D01*
X46188Y43588D01*
X46287Y43506D01*
X46399Y43446D01*
X46522Y43409D01*
X46649Y43396D01*
X46777Y43409D01*
X46899Y43446D01*
X47012Y43506D01*
X47111Y43588D01*
X47192Y43687D01*
X47253Y43799D01*
X47290Y43922D01*
X47303Y44049D01*
Y44149D01*
X47290Y44277D01*
X47258Y44383D01*
X48145Y45271D01*
X49154D01*
X49175Y45220D01*
X49240Y45123D01*
X49323Y45040D01*
X49420Y44975D01*
X49527Y44931D01*
X49642Y44908D01*
X49758D01*
X49873Y44931D01*
X49980Y44975D01*
X50077Y45040D01*
X50160Y45123D01*
X50225Y45220D01*
X50269Y45327D01*
X50292Y45442D01*
Y45527D01*
X50342Y45548D01*
X50602Y45288D01*
X50676Y45238D01*
X50764Y45221D01*
X52275D01*
X52275Y45220D01*
X52340Y45123D01*
X52423Y45040D01*
X52520Y44975D01*
X52627Y44931D01*
X52742Y44908D01*
X52858D01*
X52973Y44931D01*
X53080Y44975D01*
X53177Y45040D01*
X53260Y45123D01*
X53325Y45220D01*
X53369Y45327D01*
X53392Y45442D01*
Y45558D01*
X53369Y45673D01*
X53348Y45724D01*
X53612Y45988D01*
X57380D01*
X57400Y45938D01*
X57340Y45877D01*
X57275Y45780D01*
X57254Y45729D01*
X56200D01*
X56112Y45712D01*
X56038Y45662D01*
X55101Y44725D01*
X55049Y44753D01*
X54927Y44790D01*
X54799Y44803D01*
X54672Y44790D01*
X54549Y44753D01*
X54437Y44692D01*
X54338Y44611D01*
X54256Y44512D01*
X54196Y44399D01*
X54159Y44277D01*
X54146Y44149D01*
Y44049D01*
X54159Y43922D01*
X54196Y43799D01*
X54256Y43687D01*
X54338Y43588D01*
X54437Y43506D01*
X54549Y43446D01*
X54672Y43409D01*
X54799Y43396D01*
X54927Y43409D01*
X55049Y43446D01*
X55162Y43506D01*
X55261Y43588D01*
X55342Y43687D01*
X55403Y43799D01*
X55440Y43922D01*
X55453Y44049D01*
Y44149D01*
X55440Y44277D01*
X55408Y44383D01*
X56295Y45271D01*
X57254D01*
X57275Y45220D01*
X57340Y45123D01*
X57423Y45040D01*
X57520Y44975D01*
X57627Y44931D01*
X57742Y44908D01*
X57858D01*
X57973Y44931D01*
X58080Y44975D01*
X58177Y45040D01*
X58260Y45123D01*
X58325Y45220D01*
X58369Y45327D01*
X58392Y45442D01*
Y45527D01*
X58442Y45548D01*
X58702Y45288D01*
X58776Y45238D01*
X58864Y45221D01*
X60354D01*
X60375Y45170D01*
X60440Y45073D01*
X60523Y44990D01*
X60620Y44925D01*
X60727Y44881D01*
X60842Y44858D01*
X60958D01*
X61073Y44881D01*
X61180Y44925D01*
X61277Y44990D01*
X61360Y45073D01*
X61425Y45170D01*
X61469Y45277D01*
X61492Y45392D01*
Y45508D01*
X61469Y45623D01*
X61425Y45730D01*
X61360Y45827D01*
X61277Y45910D01*
X61180Y45975D01*
X61073Y46019D01*
X60958Y46042D01*
X60842D01*
X60727Y46019D01*
X60620Y45975D01*
X60523Y45910D01*
X60440Y45827D01*
X60375Y45730D01*
X60354Y45679D01*
X58959D01*
X58259Y46379D01*
X58185Y46429D01*
X58097Y46447D01*
X53517D01*
X53429Y46429D01*
X53355Y46379D01*
X53024Y46048D01*
X52973Y46069D01*
X52858Y46092D01*
X52742D01*
X52627Y46069D01*
X52520Y46025D01*
X52423Y45960D01*
X52340Y45877D01*
X52275Y45780D01*
X52233Y45679D01*
X50859D01*
X50159Y46379D01*
X50085Y46429D01*
X49997Y46447D01*
X45417D01*
X45329Y46429D01*
X45255Y46379D01*
X44924Y46048D01*
X44873Y46069D01*
X44758Y46092D01*
X44642D01*
X44527Y46069D01*
X44420Y46025D01*
X44323Y45960D01*
X44240Y45877D01*
X44175Y45780D01*
X44133Y45679D01*
X42759D01*
X42059Y46379D01*
X41985Y46429D01*
X41897Y46447D01*
X37317D01*
X37229Y46429D01*
X37155Y46379D01*
X36824Y46048D01*
X36773Y46069D01*
X36658Y46092D01*
X36542D01*
X36427Y46069D01*
X36320Y46025D01*
X36315Y46022D01*
X35849Y46488D01*
Y49395D01*
X36183D01*
Y49881D01*
X36271Y49969D01*
X36317Y49950D01*
Y49395D01*
X36447D01*
Y49073D01*
X36427Y49069D01*
X36320Y49025D01*
X36223Y48960D01*
X36140Y48877D01*
X36075Y48780D01*
X36031Y48673D01*
X36008Y48558D01*
Y48442D01*
X36031Y48327D01*
X36075Y48220D01*
X36140Y48123D01*
X36223Y48040D01*
X36320Y47975D01*
X36427Y47931D01*
X36542Y47908D01*
X36658D01*
X36773Y47931D01*
X36880Y47975D01*
X36897Y47986D01*
X38092Y46792D01*
X38141Y46759D01*
X38200Y46747D01*
X66064D01*
X68059Y44752D01*
Y44532D01*
X68644D01*
Y44196D01*
X68656Y44137D01*
X68689Y44088D01*
X68777Y44000D01*
X68826Y43967D01*
X68885Y43955D01*
X69502D01*
X69543Y43947D01*
X69550Y43906D01*
Y43854D01*
X69574Y43765D01*
X69607Y43708D01*
X69604Y43704D01*
X69593Y43645D01*
Y43595D01*
X69409D01*
Y42805D01*
X69593D01*
Y42745D01*
X69405D01*
Y41955D01*
X69588D01*
Y41909D01*
X69600Y41850D01*
X69633Y41801D01*
X69792Y41642D01*
X69841Y41609D01*
X69870Y41603D01*
X69866Y41553D01*
X34349D01*
X34300Y41553D01*
X34251Y41555D01*
X34099Y41570D01*
X33905Y41629D01*
X33727Y41724D01*
X33571Y41852D01*
X33443Y42008D01*
X33347Y42187D01*
X33289Y42380D01*
X33274Y42532D01*
X33272Y42581D01*
X33269Y42595D01*
X33269Y42631D01*
X33244Y49741D01*
X33242Y49751D01*
X33260Y49938D01*
X33318Y50127D01*
X33411Y50301D01*
X33537Y50454D01*
X33689Y50580D01*
X33864Y50673D01*
X34053Y50730D01*
X34241Y50749D01*
X34250Y50747D01*
D02*
G37*
%LPC*%
G36*
X56670Y49450D02*
X56384D01*
Y49144D01*
X56670D01*
Y49450D01*
D02*
G37*
G36*
X48554Y49450D02*
X48268D01*
Y49144D01*
X48554D01*
Y49450D01*
D02*
G37*
G36*
X40120Y49450D02*
X39834D01*
Y49144D01*
X40120D01*
Y49450D01*
D02*
G37*
G36*
X39734D02*
X39448D01*
Y49144D01*
X39734D01*
Y49450D01*
D02*
G37*
G36*
X41396Y49900D02*
X41304D01*
X41215Y49876D01*
X41135Y49830D01*
X41070Y49765D01*
X41024Y49685D01*
X41000Y49596D01*
Y49504D01*
X41019Y49435D01*
X40287Y48703D01*
X39213D01*
X39169Y48747D01*
Y49144D01*
X39352D01*
Y49856D01*
X38680D01*
Y49144D01*
X38863D01*
Y48684D01*
X38875Y48625D01*
X38908Y48576D01*
X39042Y48442D01*
X39091Y48409D01*
X39150Y48397D01*
X40350D01*
X40409Y48409D01*
X40458Y48442D01*
X41235Y49219D01*
X41304Y49200D01*
X41396D01*
X41485Y49224D01*
X41565Y49270D01*
X41630Y49335D01*
X41676Y49415D01*
X41700Y49504D01*
Y49596D01*
X41676Y49685D01*
X41630Y49765D01*
X41565Y49830D01*
X41485Y49876D01*
X41396Y49900D01*
D02*
G37*
G36*
X75875Y44750D02*
X75500D01*
X75125D01*
X75150Y44655D01*
X75199Y44569D01*
X75269Y44499D01*
X75329Y44465D01*
X75334Y44410D01*
X74520Y43595D01*
X74450D01*
Y43250D01*
X74736D01*
Y43379D01*
X75608Y44251D01*
X75641Y44301D01*
X75653Y44359D01*
Y44455D01*
X75731Y44499D01*
X75801Y44569D01*
X75850Y44655D01*
X75875Y44750D01*
D02*
G37*
G36*
X69100Y49566D02*
X68853D01*
Y49398D01*
X69100D01*
Y49566D01*
D02*
G37*
G36*
X69447Y49298D02*
X69200D01*
Y49130D01*
X69447D01*
Y49298D01*
D02*
G37*
G36*
X71806Y43192D02*
X71559D01*
Y43024D01*
X71806D01*
Y43192D01*
D02*
G37*
G36*
Y42924D02*
X71559D01*
Y42756D01*
X71806D01*
Y42924D01*
D02*
G37*
G36*
X70786Y42300D02*
X70500D01*
Y41955D01*
X70786D01*
Y42300D01*
D02*
G37*
G36*
X35025Y45250D02*
X34700D01*
Y44925D01*
X34795Y44950D01*
X34881Y45000D01*
X34951Y45070D01*
X35000Y45155D01*
X35025Y45250D01*
D02*
G37*
G36*
X34600D02*
X34275D01*
X34300Y45155D01*
X34349Y45070D01*
X34419Y45000D01*
X34505Y44950D01*
X34600Y44925D01*
Y45250D01*
D02*
G37*
G36*
X65958Y46042D02*
X65842D01*
X65727Y46019D01*
X65620Y45975D01*
X65523Y45910D01*
X65440Y45827D01*
X65375Y45730D01*
X65354Y45679D01*
X64300D01*
X64212Y45662D01*
X64138Y45612D01*
X63249Y44724D01*
X63198Y44751D01*
X63075Y44789D01*
X62948Y44801D01*
X62821Y44789D01*
X62698Y44751D01*
X62585Y44691D01*
X62486Y44610D01*
X62405Y44511D01*
X62345Y44398D01*
X62307Y44275D01*
X62295Y44148D01*
Y44048D01*
X62307Y43921D01*
X62345Y43798D01*
X62405Y43685D01*
X62486Y43586D01*
X62585Y43505D01*
X62698Y43445D01*
X62821Y43407D01*
X62948Y43395D01*
X63075Y43407D01*
X63198Y43445D01*
X63311Y43505D01*
X63410Y43586D01*
X63491Y43685D01*
X63551Y43798D01*
X63589Y43921D01*
X63601Y44048D01*
Y44148D01*
X63589Y44275D01*
X63556Y44382D01*
X64395Y45221D01*
X65354D01*
X65375Y45170D01*
X65440Y45073D01*
X65523Y44990D01*
X65620Y44925D01*
X65727Y44881D01*
X65842Y44858D01*
X65958D01*
X66073Y44881D01*
X66180Y44925D01*
X66277Y44990D01*
X66360Y45073D01*
X66425Y45170D01*
X66469Y45277D01*
X66492Y45392D01*
Y45508D01*
X66469Y45623D01*
X66425Y45730D01*
X66360Y45827D01*
X66277Y45910D01*
X66180Y45975D01*
X66073Y46019D01*
X65958Y46042D01*
D02*
G37*
G36*
X56800Y44803D02*
X56673Y44791D01*
X56550Y44753D01*
X56437Y44693D01*
X56338Y44612D01*
X56257Y44513D01*
X56197Y44400D01*
X56159Y44277D01*
X56147Y44150D01*
Y44050D01*
X56159Y43923D01*
X56197Y43800D01*
X56257Y43687D01*
X56338Y43588D01*
X56437Y43507D01*
X56550Y43447D01*
X56673Y43409D01*
X56800Y43397D01*
X56927Y43409D01*
X57050Y43447D01*
X57163Y43507D01*
X57262Y43588D01*
X57343Y43687D01*
X57403Y43800D01*
X57441Y43923D01*
X57453Y44050D01*
Y44150D01*
X57441Y44277D01*
X57403Y44400D01*
X57343Y44513D01*
X57262Y44612D01*
X57163Y44693D01*
X57050Y44753D01*
X56927Y44791D01*
X56800Y44803D01*
D02*
G37*
G36*
X48650D02*
X48523Y44791D01*
X48400Y44753D01*
X48287Y44693D01*
X48188Y44612D01*
X48107Y44513D01*
X48047Y44400D01*
X48009Y44277D01*
X47997Y44150D01*
Y44050D01*
X48009Y43923D01*
X48047Y43800D01*
X48107Y43687D01*
X48188Y43588D01*
X48287Y43507D01*
X48400Y43447D01*
X48523Y43409D01*
X48650Y43397D01*
X48777Y43409D01*
X48900Y43447D01*
X49013Y43507D01*
X49112Y43588D01*
X49193Y43687D01*
X49253Y43800D01*
X49291Y43923D01*
X49303Y44050D01*
Y44150D01*
X49291Y44277D01*
X49253Y44400D01*
X49193Y44513D01*
X49112Y44612D01*
X49013Y44693D01*
X48900Y44753D01*
X48777Y44791D01*
X48650Y44803D01*
D02*
G37*
G36*
X64949Y44802D02*
X64821Y44789D01*
X64699Y44752D01*
X64586Y44692D01*
X64487Y44611D01*
X64406Y44512D01*
X64345Y44399D01*
X64308Y44276D01*
X64296Y44149D01*
Y44049D01*
X64308Y43921D01*
X64345Y43799D01*
X64406Y43686D01*
X64487Y43587D01*
X64586Y43506D01*
X64699Y43445D01*
X64821Y43408D01*
X64949Y43396D01*
X65076Y43408D01*
X65199Y43445D01*
X65312Y43506D01*
X65410Y43587D01*
X65492Y43686D01*
X65552Y43799D01*
X65589Y43921D01*
X65602Y44049D01*
Y44149D01*
X65589Y44276D01*
X65552Y44399D01*
X65492Y44512D01*
X65410Y44611D01*
X65312Y44692D01*
X65199Y44752D01*
X65076Y44789D01*
X64949Y44802D01*
D02*
G37*
G36*
X40497Y44800D02*
X40369Y44787D01*
X40247Y44750D01*
X40134Y44690D01*
X40035Y44609D01*
X39954Y44510D01*
X39893Y44397D01*
X39856Y44274D01*
X39844Y44147D01*
Y44047D01*
X39856Y43919D01*
X39893Y43797D01*
X39954Y43684D01*
X40035Y43585D01*
X40134Y43504D01*
X40247Y43443D01*
X40369Y43406D01*
X40497Y43394D01*
X40624Y43406D01*
X40747Y43443D01*
X40860Y43504D01*
X40959Y43585D01*
X41040Y43684D01*
X41100Y43797D01*
X41137Y43919D01*
X41150Y44047D01*
Y44147D01*
X41137Y44274D01*
X41100Y44397D01*
X41040Y44510D01*
X40959Y44609D01*
X40860Y44690D01*
X40747Y44750D01*
X40624Y44787D01*
X40497Y44800D01*
D02*
G37*
G36*
X42500Y44803D02*
X42373Y44791D01*
X42250Y44753D01*
X42137Y44693D01*
X42038Y44612D01*
X41957Y44513D01*
X41897Y44400D01*
X41859Y44277D01*
X41847Y44150D01*
Y44050D01*
X41859Y43923D01*
X41892Y43816D01*
X41405Y43329D01*
X37537D01*
X37146Y43720D01*
Y44796D01*
X35846D01*
Y43396D01*
X36822D01*
X37280Y42938D01*
X37354Y42888D01*
X37442Y42871D01*
X41500D01*
X41588Y42888D01*
X41662Y42938D01*
X42199Y43474D01*
X42250Y43447D01*
X42373Y43409D01*
X42500Y43397D01*
X42627Y43409D01*
X42750Y43447D01*
X42863Y43507D01*
X42962Y43588D01*
X43043Y43687D01*
X43103Y43800D01*
X43141Y43923D01*
X43153Y44050D01*
Y44150D01*
X43141Y44277D01*
X43103Y44400D01*
X43043Y44513D01*
X42962Y44612D01*
X42863Y44693D01*
X42750Y44753D01*
X42627Y44791D01*
X42500Y44803D01*
D02*
G37*
G36*
X66952Y44805D02*
X66825Y44793D01*
X66702Y44755D01*
X66589Y44695D01*
X66490Y44614D01*
X66409Y44515D01*
X66349Y44402D01*
X66311Y44279D01*
X66299Y44152D01*
Y44052D01*
X66311Y43925D01*
X66344Y43818D01*
X65705Y43179D01*
X62141D01*
X61598Y43722D01*
Y44798D01*
X60298D01*
Y43398D01*
X61274D01*
X61884Y42788D01*
X61958Y42738D01*
X62046Y42721D01*
X65800D01*
X65888Y42738D01*
X65962Y42788D01*
X66651Y43476D01*
X66702Y43449D01*
X66825Y43411D01*
X66952Y43399D01*
X67079Y43411D01*
X67202Y43449D01*
X67315Y43509D01*
X67414Y43590D01*
X67495Y43689D01*
X67555Y43802D01*
X67593Y43925D01*
X67605Y44052D01*
Y44152D01*
X67593Y44279D01*
X67555Y44402D01*
X67495Y44515D01*
X67414Y44614D01*
X67315Y44695D01*
X67202Y44755D01*
X67079Y44793D01*
X66952Y44805D01*
D02*
G37*
G36*
X58803Y44806D02*
X58676Y44794D01*
X58553Y44757D01*
X58440Y44696D01*
X58341Y44615D01*
X58260Y44516D01*
X58200Y44403D01*
X58163Y44281D01*
X58150Y44153D01*
Y44053D01*
X58163Y43926D01*
X58195Y43819D01*
X57555Y43179D01*
X54044D01*
X53512Y43712D01*
X53449Y43753D01*
Y44799D01*
X52149D01*
Y43399D01*
X53125D01*
X53137Y43387D01*
X53212Y43337D01*
X53243Y43331D01*
X53787Y42788D01*
X53861Y42738D01*
X53949Y42721D01*
X57650D01*
X57738Y42738D01*
X57812Y42788D01*
X58502Y43477D01*
X58553Y43450D01*
X58676Y43413D01*
X58803Y43400D01*
X58931Y43413D01*
X59053Y43450D01*
X59166Y43510D01*
X59265Y43591D01*
X59346Y43690D01*
X59407Y43803D01*
X59444Y43926D01*
X59456Y44053D01*
Y44153D01*
X59444Y44281D01*
X59407Y44403D01*
X59346Y44516D01*
X59265Y44615D01*
X59166Y44696D01*
X59053Y44757D01*
X58931Y44794D01*
X58803Y44806D01*
D02*
G37*
G36*
X50653D02*
X50526Y44794D01*
X50403Y44757D01*
X50290Y44696D01*
X50191Y44615D01*
X50110Y44516D01*
X50050Y44403D01*
X50013Y44281D01*
X50000Y44153D01*
Y44053D01*
X50013Y43926D01*
X50045Y43819D01*
X49405Y43179D01*
X45844D01*
X45299Y43724D01*
Y44799D01*
X43999D01*
Y43399D01*
X44975D01*
X45587Y42788D01*
X45661Y42738D01*
X45749Y42721D01*
X49500D01*
X49588Y42738D01*
X49662Y42788D01*
X50352Y43477D01*
X50403Y43450D01*
X50526Y43413D01*
X50653Y43400D01*
X50781Y43413D01*
X50903Y43450D01*
X51016Y43510D01*
X51115Y43591D01*
X51196Y43690D01*
X51257Y43803D01*
X51294Y43926D01*
X51306Y44053D01*
Y44153D01*
X51294Y44281D01*
X51257Y44403D01*
X51196Y44516D01*
X51115Y44615D01*
X51016Y44696D01*
X50903Y44757D01*
X50781Y44794D01*
X50653Y44806D01*
D02*
G37*
%LPD*%
D10*
X74532Y44384D02*
X74750Y44602D01*
X74032Y46768D02*
X74750Y46050D01*
X74383Y44584D02*
X74550Y44751D01*
X74150Y46000D02*
X74550Y45600D01*
Y44751D02*
Y45600D01*
X74750Y44602D02*
Y46050D01*
X40350Y48550D02*
X41350Y49550D01*
X39016Y48684D02*
X39150Y48550D01*
X40350D01*
X39016Y48684D02*
Y49500D01*
X39784D02*
Y50684D01*
X39800Y50700D01*
X35540D02*
X45400D01*
X64584Y50041D02*
X64642Y50100D01*
X64584Y48859D02*
Y50041D01*
X64642Y50100D02*
X69981D01*
X64525Y48800D02*
X64584Y48859D01*
X62600Y48800D02*
X64525D01*
X61100Y50300D02*
X62600Y48800D01*
X57134Y50300D02*
X61100D01*
X63800Y49400D02*
Y50154D01*
X63946Y50300D01*
X67756Y48450D02*
X67839D01*
X67542Y48664D02*
X67756Y48450D01*
X65992D02*
X66634Y49092D01*
X60900Y48450D02*
X65992D01*
X67166Y49092D02*
X67542Y48716D01*
X67839Y48450D02*
X68363Y48974D01*
X67542Y48664D02*
Y48716D01*
X66634Y49092D02*
X67166D01*
X60430Y48920D02*
X60900Y48450D01*
X75025Y50700D02*
X76141Y49584D01*
X55400Y50400D02*
X55700Y50700D01*
X56546Y50500D02*
X74325D01*
X55566Y49520D02*
X56546Y50500D01*
X74325D02*
X75241Y49584D01*
X55700Y50700D02*
X75025D01*
X34150Y49310D02*
X35540Y50700D01*
X71050Y49550D02*
X71159Y49659D01*
X71484D01*
X71500Y49675D01*
X71050Y49197D02*
Y49550D01*
X70468Y46773D02*
X70882Y46359D01*
X70200Y46850D02*
X70277Y46773D01*
X70468D01*
X69491Y46937D02*
X69691Y46737D01*
X69229Y48600D02*
X69491Y48338D01*
Y46937D02*
Y48338D01*
Y45741D02*
Y46654D01*
X69691Y45824D02*
Y46737D01*
X69222Y47126D02*
X69291Y47058D01*
X69691Y45824D02*
X70064Y45450D01*
X69291Y46854D02*
X69491Y46654D01*
X69144Y47126D02*
X69222D01*
X69291Y46854D02*
Y47058D01*
X69491Y45741D02*
X69729Y45502D01*
X70882Y46300D02*
Y46359D01*
X70064Y45450D02*
X70882D01*
X69741Y41909D02*
Y42350D01*
X69900Y41750D02*
X71302D01*
X69741Y41909D02*
X69900Y41750D01*
X71302D02*
X71778Y42226D01*
X69741Y42350D02*
X69746Y42354D01*
Y43200D01*
Y43645D01*
X69900Y43800D02*
Y43900D01*
X69746Y43645D02*
X69900Y43800D01*
X71778Y42226D02*
X71856D01*
X72300Y49675D02*
X72352Y49727D01*
X72670Y49480D02*
X73000D01*
X72304Y49075D02*
Y49113D01*
X72352Y49727D02*
X72992D01*
X72304Y49113D02*
X72670Y49480D01*
X49250Y50700D02*
X53300D01*
X48386Y49836D02*
X49250Y50700D01*
X54906Y49094D02*
X55948D01*
X48218Y49480D02*
Y49500D01*
X55948Y49094D02*
X56334Y49480D01*
Y49500D01*
X53300Y50700D02*
X54906Y49094D01*
X48218Y49500D02*
X48386Y49668D01*
X56334Y49500D02*
Y49520D01*
X48386Y49668D02*
Y49836D01*
X69729Y44979D02*
X69809Y44900D01*
X69729Y44979D02*
Y45502D01*
X70454Y43200D02*
Y43720D01*
X71034Y44300D01*
X38200Y46900D02*
X66128D01*
X68278Y44750D01*
X36600Y48500D02*
X38200Y46900D01*
X68209Y46168D02*
X68278Y46100D01*
X68209Y46168D02*
Y46247D01*
X68797Y46742D02*
Y48130D01*
Y45392D02*
Y46742D01*
X69065Y46474D01*
X67156Y47300D02*
X68209Y46247D01*
X68278Y46100D02*
X68356D01*
X45900Y47300D02*
X67156D01*
X53800Y47500D02*
X68356D01*
X52800Y48500D02*
X53800Y47500D01*
X44700Y48500D02*
X45900Y47300D01*
X47450Y49850D02*
X48050Y50450D01*
X47450Y49500D02*
Y49850D01*
X55300Y50400D02*
X55400D01*
X45400Y50700D02*
X47006Y49094D01*
X68278Y44750D02*
X68356D01*
X52850Y48500D02*
Y48558D01*
X47006Y49094D02*
X47832D01*
X48218Y49480D01*
X34150Y45800D02*
Y49310D01*
Y45800D02*
X34650Y45300D01*
X56540Y49706D02*
X57134Y50300D01*
X36600Y49545D02*
X36855Y49800D01*
X36600Y48500D02*
Y49545D01*
X36855Y49800D02*
X36880D01*
X44330Y49038D02*
Y49800D01*
Y49038D02*
X44700Y48668D01*
Y48500D02*
Y48668D01*
X52450Y48958D02*
Y49800D01*
Y48958D02*
X52850Y48558D01*
X60430Y48920D02*
Y49750D01*
X56334Y49520D02*
X56520Y49706D01*
X56540D01*
X69734Y44300D02*
X71034D01*
X68797Y44196D02*
X68885Y44108D01*
X68797Y44196D02*
Y45392D01*
X69651Y44500D02*
X71698D01*
X69542Y44108D02*
X69734Y44300D01*
X69527Y44376D02*
X69651Y44500D01*
X69144Y44376D02*
X69527D01*
X68885Y44108D02*
X69542D01*
X69065Y46474D02*
X69144D01*
X68797Y48130D02*
X68803Y48136D01*
X69065Y45124D02*
X69144D01*
X68797Y45392D02*
X69065Y45124D01*
X68803Y48136D02*
X69065Y47874D01*
X68803Y48136D02*
Y49080D01*
X69071Y49348D01*
X69150D01*
X69065Y47874D02*
X69144D01*
X69229Y49348D02*
X69981Y50100D01*
X69150Y49348D02*
X69229D01*
X69981Y50100D02*
X70963D01*
X73008Y48976D02*
X73540D01*
X73560Y48996D01*
X74000Y48650D02*
Y49766D01*
X73814Y48464D02*
X74000Y48650D01*
X73666Y50100D02*
X74000Y49766D01*
X72992Y49727D02*
X73000Y49735D01*
X72550Y46475D02*
Y46900D01*
X71164Y48368D02*
X71457D01*
X70598Y47944D02*
X71222D01*
X71282Y48168D02*
X72550Y46900D01*
X71222Y47944D02*
X72300Y46866D01*
X71457Y48368D02*
X72966Y46859D01*
X71049Y48168D02*
X71282D01*
X73566Y49568D02*
Y49607D01*
X73230Y49232D02*
X73566Y49568D01*
X70963Y50100D02*
X73666D01*
X74234Y49741D02*
Y49814D01*
X73749Y50300D02*
X74234Y49814D01*
X63946Y50300D02*
X73749D01*
X73000Y48968D02*
X73008Y48976D01*
X71200Y43900D02*
X71308D01*
X71508Y43700D02*
X71941D01*
X71308Y43900D02*
X71508Y43700D01*
X71814Y44384D02*
X74532D01*
X71698Y44500D02*
X71814Y44384D01*
X74050Y45200D02*
X74209Y45041D01*
X69809Y44900D02*
X71864D01*
X71722Y44150D02*
X72259D01*
X71896Y44584D02*
X74383D01*
X71034Y44300D02*
X71572D01*
X71722Y44150D01*
X74034Y44784D02*
X74209Y44959D01*
X69520Y44759D02*
X69579Y44700D01*
X71979Y44784D02*
X74034D01*
X69520Y44759D02*
Y45428D01*
X74209Y44959D02*
Y45041D01*
X71864Y44900D02*
X71979Y44784D01*
X69579Y44700D02*
X71781D01*
X71896Y44584D01*
X72259Y44150D02*
X72650Y43759D01*
Y43700D02*
Y43759D01*
X70454Y42354D02*
Y43200D01*
X72650Y43250D02*
Y43700D01*
X70828Y48976D02*
X71050Y49197D01*
X70606Y48976D02*
X70828D01*
X70598Y48968D02*
X70606Y48976D01*
X71017Y48200D02*
X71049Y48168D01*
X70598Y48200D02*
X71017D01*
X71076Y48456D02*
X71164Y48368D01*
X72300Y45925D02*
Y46866D01*
X71195Y47688D02*
X72007Y46876D01*
X70598Y47688D02*
X71195D01*
X70598Y48456D02*
X71076D01*
X73008Y49232D02*
X73230D01*
X73000Y49224D02*
X73008Y49232D01*
X74234Y49741D02*
X74391Y49584D01*
X73008Y48464D02*
X73814D01*
X70598Y49735D02*
X70963Y50100D01*
X73000Y48456D02*
X73008Y48464D01*
X73959Y43700D02*
X74400Y43259D01*
Y43200D02*
Y43259D01*
X72650Y43700D02*
X73959D01*
X71856Y42974D02*
X72374D01*
X72650Y43250D01*
X70450Y42350D02*
X70454Y42354D01*
X74400Y42354D02*
Y43200D01*
Y42354D02*
X74404Y42350D01*
X75500Y44359D02*
Y44800D01*
X74400Y43259D02*
X75500Y44359D01*
X73766Y46768D02*
X74032D01*
X73734Y46800D02*
X73766Y46768D01*
X63816Y49450D02*
Y49470D01*
X74391Y49584D02*
X74450D01*
X55566Y49500D02*
Y49520D01*
X75241Y49584D02*
X75300D01*
X76141D02*
X76200D01*
X69150Y48600D02*
X69229D01*
X73734Y45200D02*
X74050D01*
X69144Y45726D02*
X69222D01*
X69520Y45428D01*
X73734Y46000D02*
X74150D01*
X72550Y46475D02*
X72966Y46059D01*
X72300Y45925D02*
X72966Y45259D01*
X72007Y45866D02*
Y46876D01*
X71650Y45509D02*
X72007Y45866D01*
X71650Y45450D02*
Y45509D01*
Y46300D02*
Y46950D01*
X71168Y47432D02*
X71650Y46950D01*
X70598Y47432D02*
X71168D01*
X72966Y45200D02*
Y45259D01*
Y46000D02*
Y46059D01*
Y46800D02*
Y46859D01*
X75959Y48659D02*
X76043D01*
X74988Y47688D02*
X75959Y48659D01*
X73000Y47688D02*
X74988D01*
X76043Y48659D02*
X76200Y48816D01*
X74450Y48450D02*
Y48816D01*
X74200Y48200D02*
X74450Y48450D01*
X73000Y48200D02*
X74200D01*
X74369Y47944D02*
X75241Y48816D01*
X73000Y47944D02*
X74369D01*
X75241Y48816D02*
X75300D01*
D17*
X63816Y49450D02*
D03*
X64584D02*
D03*
X55566Y49500D02*
D03*
X56334D02*
D03*
X47450D02*
D03*
X48218D02*
D03*
X39016D02*
D03*
X39784D02*
D03*
D18*
X71650Y45450D02*
D03*
X70882D02*
D03*
X71650Y46300D02*
D03*
X70882D02*
D03*
X72966Y45200D02*
D03*
X73734D02*
D03*
X72966Y46000D02*
D03*
X73734D02*
D03*
X72966Y46800D02*
D03*
X73734D02*
D03*
D19*
X70598Y49735D02*
D03*
D20*
Y49480D02*
D03*
Y49224D02*
D03*
Y48968D02*
D03*
Y48712D02*
D03*
Y48456D02*
D03*
Y48200D02*
D03*
Y47944D02*
D03*
Y47688D02*
D03*
Y47432D02*
D03*
X73000Y49735D02*
D03*
Y49480D02*
D03*
Y49224D02*
D03*
Y48968D02*
D03*
Y48712D02*
D03*
Y48456D02*
D03*
Y48200D02*
D03*
Y47944D02*
D03*
Y47688D02*
D03*
Y47432D02*
D03*
D21*
X35620Y49800D02*
D03*
X36880D02*
D03*
X44330D02*
D03*
X43070D02*
D03*
X51170Y49700D02*
D03*
X52430D02*
D03*
X60480D02*
D03*
X59220D02*
D03*
D22*
X75300Y49584D02*
D03*
Y48816D02*
D03*
X76200Y49584D02*
D03*
Y48816D02*
D03*
X74450Y49584D02*
D03*
Y48816D02*
D03*
D23*
X68356Y46100D02*
D03*
X69144Y46474D02*
D03*
Y45726D02*
D03*
Y44376D02*
D03*
Y45124D02*
D03*
X68356Y44750D02*
D03*
X69150Y48600D02*
D03*
Y49348D02*
D03*
X68363Y48974D02*
D03*
X71856Y42974D02*
D03*
Y42226D02*
D03*
X72644Y42600D02*
D03*
X69144Y47126D02*
D03*
Y47874D02*
D03*
X68356Y47500D02*
D03*
D24*
X72650Y43700D02*
D03*
X71941D02*
D03*
X69746Y43200D02*
D03*
X70454D02*
D03*
X70450Y42350D02*
D03*
X69741D02*
D03*
X74400Y43200D02*
D03*
X73691D02*
D03*
X74404Y42350D02*
D03*
X73696D02*
D03*
D40*
X45749Y42950D02*
X49500D01*
X44649Y44049D02*
X45749Y42950D01*
X49500D02*
X50653Y44103D01*
X57650Y42950D02*
X58803Y44103D01*
X53349Y43549D02*
X53949Y42950D01*
X57650D01*
X38213Y48737D02*
Y49552D01*
X38892Y48058D02*
X41258D01*
X38213Y48737D02*
X38892Y48058D01*
X36403Y50425D02*
X37341D01*
X38213Y49552D01*
X35875Y49898D02*
X36403Y50425D01*
X35620Y49898D02*
X35875D01*
X50990Y49520D02*
X51170Y49700D01*
X50706Y49520D02*
X50990D01*
X48944Y47758D02*
X50706Y49520D01*
X51328Y49700D02*
X51578Y49950D01*
X59040Y49520D02*
X59220Y49700D01*
X58806Y49520D02*
X59040D01*
X57194Y47908D02*
X58806Y49520D01*
X51594Y49950D02*
X51874Y50230D01*
X53054D01*
X51578Y49950D02*
X51594D01*
X43430Y49980D02*
X43642Y50192D01*
X43774Y50330D02*
X44886D01*
X43642Y50198D02*
X43774Y50330D01*
X43250Y49980D02*
X43430D01*
X43642Y50192D02*
Y50198D01*
X42969Y49699D02*
X43250Y49980D01*
X42379Y49699D02*
X42969D01*
X44886Y50330D02*
X47458Y47758D01*
X41883Y49203D02*
X42379Y49699D01*
X41883Y48683D02*
Y49203D01*
X41258Y48058D02*
X41883Y48683D01*
X73690Y42352D02*
Y43199D01*
Y42291D02*
Y42352D01*
X73695Y42287D02*
X73700D01*
X73690Y42352D02*
X73696Y42347D01*
X73673Y42369D02*
X73690Y42352D01*
X49997Y46217D02*
X50764Y45450D01*
X58097Y46217D02*
X58864Y45450D01*
X55377Y47908D02*
X57194D01*
X53517Y46217D02*
X58097D01*
X35620Y46393D02*
Y49800D01*
X45417Y46217D02*
X49997D01*
X52800Y45500D02*
X53517Y46217D01*
X36600Y45500D02*
X37317Y46217D01*
X44650Y45450D02*
X44700Y45500D01*
X37317Y46217D02*
X41897D01*
X42664Y45450D01*
X52750D02*
X52800Y45500D01*
X36513D02*
X36600D01*
X50764Y45450D02*
X52750D01*
X47458Y47758D02*
X48944D01*
X35620Y46393D02*
X36513Y45500D01*
X42664Y45450D02*
X44650D01*
X44700Y45500D02*
X45417Y46217D01*
X58864Y45450D02*
X60900D01*
X53054Y50230D02*
X55377Y47908D01*
X77200Y43050D02*
Y44500D01*
X76113Y45587D02*
X77200Y44500D01*
X75500Y45587D02*
X76113D01*
X75925Y42671D02*
X76854D01*
X77200Y43018D01*
X73231Y42369D02*
X73673D01*
X72644Y42600D02*
X73000D01*
X73231Y42369D01*
X62046Y42950D02*
X65800D01*
X60948Y44048D02*
X62046Y42950D01*
X65800D02*
X66952Y44102D01*
X60948Y44048D02*
Y44098D01*
X66952Y44102D02*
Y44102D01*
X74075Y41830D02*
X75083D01*
X75925Y42671D01*
X73943Y41962D02*
Y42033D01*
Y41962D02*
X74075Y41830D01*
X73807Y42169D02*
X73943Y42033D01*
X73700Y42287D02*
X73807Y42180D01*
Y42169D02*
Y42180D01*
X73690Y42291D02*
X73695Y42287D01*
X56200Y45500D02*
X57800D01*
X39900D02*
X41600D01*
X38496Y44096D02*
X39900Y45500D01*
X38496Y44096D02*
Y44096D01*
X46649Y44099D02*
Y44099D01*
X48050Y45500D01*
X49700D01*
X64300Y45450D02*
X65900D01*
X62948Y44098D02*
Y44098D01*
X64300Y45450D01*
X54799Y44099D02*
X56200Y45500D01*
X54799Y44099D02*
Y44099D01*
X42500Y44100D02*
Y44100D01*
X41500Y43100D02*
X42500Y44100D01*
X37442Y43100D02*
X41500D01*
X36496Y44046D02*
Y44096D01*
Y44046D02*
X37442Y43100D01*
X50653Y44103D02*
Y44103D01*
X44649Y44049D02*
Y44099D01*
X52799Y44049D02*
X53299Y43549D01*
X52799Y44049D02*
Y44099D01*
X53299Y43549D02*
X53349D01*
X58803Y44103D02*
Y44103D01*
D41*
X71504Y49009D02*
Y49075D01*
X72487Y48600D02*
X72599Y48712D01*
X71320Y48600D02*
X72487D01*
X72599Y48712D02*
X73000D01*
X71286Y48791D02*
X71504Y49009D01*
X71208Y48712D02*
X71286Y48790D01*
Y48791D01*
X71208Y48712D02*
X71320Y48600D01*
X70598Y48712D02*
X71208D01*
D42*
X60948Y44098D02*
D03*
X36496Y44096D02*
D03*
X52799Y44099D02*
D03*
X44649D02*
D03*
D43*
X66952Y44102D02*
D03*
X64949Y44099D02*
D03*
X62948Y44098D02*
D03*
X42500Y44100D02*
D03*
X40497Y44097D02*
D03*
X38496Y44096D02*
D03*
X58803Y44103D02*
D03*
X56800Y44100D02*
D03*
X54799Y44099D02*
D03*
X46649D02*
D03*
X48650Y44100D02*
D03*
X50653Y44103D02*
D03*
D44*
X60900Y48450D02*
D03*
X66900D02*
D03*
X65900Y45450D02*
D03*
X60900D02*
D03*
X36600Y45500D02*
D03*
X41600D02*
D03*
X42600Y48500D02*
D03*
X36600D02*
D03*
X44700D02*
D03*
X50700D02*
D03*
X49700Y45500D02*
D03*
X44700D02*
D03*
X52800Y48500D02*
D03*
X58800D02*
D03*
X57800Y45500D02*
D03*
X52800D02*
D03*
D45*
X75500Y44800D02*
D03*
Y45587D02*
D03*
Y46375D02*
D03*
X34650Y45300D02*
D03*
Y46088D02*
D03*
Y46875D02*
D03*
Y47663D02*
D03*
D46*
X75500Y47162D02*
D03*
D47*
X34650Y48450D02*
D03*
D48*
X41350Y49550D02*
D03*
X70200Y46850D02*
D03*
X77200Y43050D02*
D03*
X72304Y49075D02*
D03*
X71500Y49675D02*
D03*
X71504Y49075D02*
D03*
X72300Y49675D02*
D03*
X48050Y50450D02*
D03*
X55300Y50400D02*
D03*
X69900Y43900D02*
D03*
X73560Y48996D02*
D03*
X73566Y49607D02*
D03*
X71200Y43900D02*
D03*
M02*
