G04*
G04 #@! TF.GenerationSoftware,Altium Limited,Altium Designer,23.0.1 (38)*
G04*
G04 Layer_Color=128*
%FSLAX25Y25*%
%MOIN*%
G70*
G04*
G04 #@! TF.SameCoordinates,3E06254A-0F58-42D6-91FB-0DF0C2053515*
G04*
G04*
G04 #@! TF.FilePolarity,Positive*
G04*
G01*
G75*
%ADD13C,0.00500*%
D13*
X606480Y440980D02*
X612480D01*
X609480Y437980D02*
Y443980D01*
X666520Y441020D02*
X672520D01*
X669520Y438020D02*
Y444020D01*
X646487Y440986D02*
X652487D01*
X649486Y437987D02*
Y443987D01*
X626480Y440980D02*
X632480D01*
X629480Y437980D02*
Y443980D01*
X606047Y484500D02*
X611953D01*
X609000Y481547D02*
Y487453D01*
X666047Y484500D02*
X671953D01*
X669000Y481547D02*
Y487453D01*
X656047Y454500D02*
X661953D01*
X659000Y451547D02*
Y457453D01*
X606047Y454500D02*
X611953D01*
X609000Y451547D02*
Y457453D01*
X363047Y455000D02*
X368953D01*
X366000Y452047D02*
Y457953D01*
X413047Y455000D02*
X418953D01*
X416000Y452047D02*
Y457953D01*
X423047Y485000D02*
X428953D01*
X426000Y482047D02*
Y487953D01*
X363047Y485000D02*
X368953D01*
X366000Y482047D02*
Y487953D01*
X361961Y440961D02*
X367961D01*
X364961Y437961D02*
Y443961D01*
X422000Y441000D02*
X428000D01*
X425000Y438000D02*
Y444000D01*
X401967Y440967D02*
X407967D01*
X404967Y437967D02*
Y443967D01*
X381961Y440961D02*
X387961D01*
X384961Y437961D02*
Y443961D01*
X524994Y440994D02*
X530994D01*
X527994Y437994D02*
Y443994D01*
X585033Y441033D02*
X591033D01*
X588033Y438033D02*
Y444033D01*
X565000Y441000D02*
X571000D01*
X568000Y438000D02*
Y444000D01*
X544994Y440994D02*
X550994D01*
X547994Y437994D02*
Y443994D01*
X444047Y485000D02*
X449953D01*
X447000Y482047D02*
Y487953D01*
X504047Y485000D02*
X509953D01*
X507000Y482047D02*
Y487953D01*
X494047Y455000D02*
X499953D01*
X497000Y452047D02*
Y457953D01*
X444047Y455000D02*
X449953D01*
X447000Y452047D02*
Y457953D01*
X525047Y485000D02*
X530953D01*
X528000Y482047D02*
Y487953D01*
X585047Y485000D02*
X590953D01*
X588000Y482047D02*
Y487953D01*
X575047Y455000D02*
X580953D01*
X578000Y452047D02*
Y457953D01*
X525047Y455000D02*
X530953D01*
X528000Y452047D02*
Y457953D01*
X753425Y448000D02*
X756575D01*
X755000Y446425D02*
Y449575D01*
X753425Y455874D02*
X756575D01*
X755000Y454299D02*
Y457449D01*
X753425Y463748D02*
X756575D01*
X755000Y462173D02*
Y465323D01*
X753425Y471622D02*
X756575D01*
X755000Y470047D02*
Y473197D01*
X344925Y453004D02*
X348075D01*
X346500Y451429D02*
Y454579D01*
X344925Y460878D02*
X348075D01*
X346500Y459303D02*
Y462453D01*
X344925Y468752D02*
X348075D01*
X346500Y467177D02*
Y470327D01*
X344925Y476626D02*
X348075D01*
X346500Y475051D02*
Y478201D01*
X344925Y484500D02*
X348075D01*
X346500Y482925D02*
Y486075D01*
X463494Y440994D02*
X469494D01*
X466494Y437994D02*
Y443994D01*
X483500Y441000D02*
X489500D01*
X486500Y438000D02*
Y444000D01*
X503533Y441033D02*
X509533D01*
X506533Y438033D02*
Y444033D01*
X443494Y440994D02*
X449494D01*
X446494Y437994D02*
Y443994D01*
X412100Y495500D02*
X414900D01*
X413500Y494100D02*
Y496900D01*
X700600Y468500D02*
X703400D01*
X702000Y467100D02*
Y469900D01*
X770600Y430500D02*
X773400D01*
X772000Y429100D02*
Y431900D01*
X721640Y490750D02*
X724440D01*
X723040Y489350D02*
Y492150D01*
X713600Y496750D02*
X716400D01*
X715000Y495350D02*
Y498150D01*
X713639Y490750D02*
X716439D01*
X715039Y489350D02*
Y492150D01*
X721600Y496750D02*
X724400D01*
X723000Y495350D02*
Y498150D01*
X479100Y504500D02*
X481900D01*
X480500Y503100D02*
Y505900D01*
X551600Y504000D02*
X554400D01*
X553000Y502600D02*
Y505400D01*
X697600Y439000D02*
X700400D01*
X699000Y437600D02*
Y440400D01*
X734202Y489963D02*
X737002D01*
X735602Y488563D02*
Y491363D01*
X734263Y496075D02*
X737063D01*
X735663Y494675D02*
Y497475D01*
X710600Y439000D02*
X713400D01*
X712000Y437600D02*
Y440400D01*
M02*
